<?xml version="1.0" standalone="no"?>
<!DOCTYPE svg PUBLIC "-//W3C//DTD SVG 1.1//EN" "http://www.w3.org/Graphics/SVG/1.1/DTD/svg11.dtd">
<svg xmlns="http://www.w3.org/2000/svg">
<defs >
<font id="PublicSans" horiz-adv-x="1030" ><font-face
    font-family="Public Sans Thin ExtraLight"
    units-per-em="2000"
    panose-1="0 0 0 0 0 0 0 0 0 0"
    ascent="1900"
    descent="-450"
    alphabetic="0" />
<glyph unicode=" " horiz-adv-x="505" />
<glyph unicode="!" horiz-adv-x="467" d="M187 323L155 1446H309L277 323H187ZM149 0V189H313V0H149Z" />
<glyph unicode="&quot;" horiz-adv-x="789" d="M505 1031L457 1446H640L589 1031H505ZM197 1031L149 1446H332L281 1031H197Z" />
<glyph unicode="#" horiz-adv-x="1191" d="M741 -3L650 11L870 1448L961 1437L741 -3ZM82 480V571H1042V480H82ZM339 -3L248 11L468 1448L559 1437L339 -3ZM146 890V981H1106V890H146Z" />
<glyph unicode="$" horiz-adv-x="1292" d="M661 -20Q449 -20 306 75T131 350L263 365Q299 229 404 163T661 96Q751 96 835 128T972 219T1026 359Q1026 463 966 530T774 635L517 709Q359 753 268 835T176 1055Q176 1173 237 1265T411 1411T672 1464Q812 1464 912
1409T1069 1264T1133 1069L1006 1056Q980 1203 895 1276T670 1349Q607 1349 544 1332T428 1280T344 1191T312 1064Q312 977 373 927T592 825L837 751Q1013 697 1087 594T1161 362Q1161 252 1098 166T921 30T661 -20ZM595 -220V38H720V-220H595ZM610 1409V1668H736V1409H610Z"
/>
<glyph unicode="%" horiz-adv-x="1769" d="M336 -8L1313 1462H1407L435 -8H336ZM444 640Q349 640 275 690T157 833T114 1054Q114 1183 157 1275T274 1418T444 1468Q539 1468 613 1418T728 1276T770 1054Q770 926 729 834T614 691T444 640ZM442 718Q549 718 610
804T672 1054Q672 1219 611 1304T442 1390Q336 1390 274 1304T212 1054Q212 892 273 805T442 718ZM1325 -20Q1230 -20 1155 28T1038 170T995 396Q995 527 1037 619T1155 760T1325 810Q1420 810 1494 761T1610 619T1652 396Q1652 263 1610 170T1495 29T1325 -20ZM1323
58Q1430 58 1491 144T1553 394Q1553 558 1492 644T1323 730Q1217 730 1156 644T1094 394Q1094 232 1155 145T1323 58Z" />
<glyph unicode="&amp;" horiz-adv-x="1332" d="M502 -10Q371 -10 277 37T133 168T83 364Q83 456 119 532T229 674T414 799Q355 860 314 919T252 1037T231 1161Q231 1247 274 1316T395 1427T573 1468Q670 1468 754 1431T891 1326T943 1163Q943 1131 931 1088T882
994T776 885T588 768L957 338Q979 363 1011 420T1069 561T1100 755H1217Q1209 644 1182 557T1114 397T1023 259L1243 0H1095L945 172Q839 78 728 34T502 -10ZM524 96Q623 96 716 140T880 253L481 717Q363 653 290 563T218 361Q220 281 261 222T371 130T524 96ZM528
847Q650 916 713 970T800 1071T823 1164Q823 1240 786 1285T693 1350T576 1370Q469 1369 414 1308T358 1167Q358 1108 383 1052T441 951T495 883L528 847Z" />
<glyph unicode="&apos;" horiz-adv-x="481" d="M197 1031L149 1446H332L281 1031H197Z" />
<glyph unicode="(" horiz-adv-x="571" d="M417 -225Q335 -85 276 52T184 336T151 653Q151 900 231 1129T437 1543H519Q418 1349 351 1118T283 651Q283 427 338 213T499 -225H417Z" />
<glyph unicode=")" horiz-adv-x="588" d="M68 -225Q174 -2 229 212T284 651Q284 887 217 1118T47 1543H130Q256 1358 336 1129T416 653Q416 483 384 337T292 53T150 -225H68Z" />
<glyph unicode="*" horiz-adv-x="699" d="M202 830L118 886L297 1114L52 1185L82 1272L318 1181L302 1446H408L394 1181L633 1282L660 1196L419 1115L593 898L509 837L359 1078L202 830Z" />
<glyph unicode="+" horiz-adv-x="1071" d="M485 319L484 1136H588L590 319H485ZM127 673V778L944 779V675L127 673Z" />
<glyph unicode="," horiz-adv-x="443" d="M83 -235L193 -2L114 0V187H308V26L157 -235H83Z" />
<glyph unicode="-" horiz-adv-x="738" d="M125 463V570L612 572V464L125 463Z" />
<glyph unicode="." horiz-adv-x="400" d="M115 0V190H280V0H115Z" />
<glyph unicode="/" horiz-adv-x="667" d="M28 -100L527 1446H637L139 -100H28Z" />
<glyph unicode="0" horiz-adv-x="1187" d="M592 -22Q368 -22 235 161T101 717Q101 967 163 1133T335 1383T594 1466Q816 1466 950 1280T1085 720Q1085 348 951 163T592 -22ZM595 94Q764 94 854 242T945 720Q945 1054 853 1203T593 1352Q426 1352 332 1202T238
720Q238 391 332 243T595 94Z" />
<glyph unicode="1" horiz-adv-x="790" d="M388 0V1189H97V1285Q230 1285 299 1302T395 1354T423 1446H520V0H388Z" />
<glyph unicode="2" horiz-adv-x="1149" d="M131 0V96V146Q131 258 172 339T283 482T434 592T597 689T748 788T858 909T900 1070Q900 1194 813 1270T578 1347Q418 1347 326 1258T227 1031H97Q100 1149 157 1247T321 1406T585 1466Q721 1466 821 1417T977 1278T1033
1069Q1033 957 992 876T882 735T733 627T570 533T420 435T311 316T269 155V118H1046V0H131Z" />
<glyph unicode="3" horiz-adv-x="1221" d="M588 -22Q453 -20 345 32T172 177T101 398H232Q252 257 349 176T597 94Q713 94 800 131T935 235T983 390Q983 492 928 560T779 664T571 699L445 700V815L568 816Q673 817 757 857T892 961T942 1099Q942 1163 903 1221T788
1316T598 1352Q516 1352 438 1318T308 1215T256 1038H126Q126 1169 190 1265T362 1413T596 1466Q740 1466 848 1422T1017 1296T1078 1101Q1078 994 1007 905T795 766Q899 738 971 685T1082 558T1120 393Q1120 299 1082 222T973 89T804 6T588 -22Z" />
<glyph unicode="4" horiz-adv-x="1225" d="M786 0V397H97V526L779 1446H912V514H1160V397H912V0H786ZM222 514H780V1265L222 514Z" />
<glyph unicode="5" horiz-adv-x="1242" d="M636 -22Q508 -22 399 27T212 163T101 366L223 396Q256 305 314 236T452 129T633 90Q801 90 903 190T1005 470Q1005 581 956 661T826 786T650 830Q583 830 525 818T412 771T299 662Q296 661 295 661T290 662L167 684L231
1446H1058L1055 1331H347L306 797Q373 876 466 909T666 942Q789 942 897 890T1073 733T1141 474Q1141 325 1078 214T902 40T636 -22Z" />
<glyph unicode="6" horiz-adv-x="1203" d="M625 -22Q467 -22 349 64T166 312T101 704Q101 933 162 1104T343 1371T643 1466Q754 1466 848 1424T1007 1303T1091 1112H970Q939 1221 855 1288T645 1355Q503 1355 409 1276T270 1037T236 641Q260 728 317 795T456 900T632
938Q773 938 878 883T1043 723T1102 472Q1102 325 1045 214T881 41T625 -22ZM628 91Q727 91 803 138T922 269T965 466Q965 575 928 656T815 781T625 826Q535 826 455 784T324 669T273 508Q271 389 315 295T439 146T628 91Z" />
<glyph unicode="7" horiz-adv-x="1172" d="M356 0Q377 105 423 257T542 588T711 958T929 1331H97V1446H1075V1331Q993 1214 915 1071T766 777T640 480T546 210T494 0H356Z" />
<glyph unicode="8" horiz-adv-x="1269" d="M633 -22Q472 -22 353 29T167 171T101 386Q101 471 144 549T257 683T402 753Q297 795 231 876T165 1079Q165 1202 227 1288T395 1420T633 1466Q767 1466 873 1421T1040 1289T1102 1079Q1102 957 1038 876T866 753Q943
739 1012 684T1124 550T1168 386Q1168 263 1102 172T916 29T633 -22ZM633 87Q814 87 922 168T1031 383Q1031 472 982 541T844 650T633 690Q514 690 426 651T288 542T238 383Q238 249 346 168T633 87ZM633 812Q785 812 877 883T969 1083Q969 1211 876 1285T633 1360Q484
1360 391 1286T298 1083Q298 954 391 883T633 812Z" />
<glyph unicode="9" horiz-adv-x="1210" d="M560 -22Q449 -22 352 20T189 140T102 329H227Q256 222 344 156T557 89Q698 89 797 166T944 401T982 805Q959 716 902 648T763 542T584 503Q443 503 337 558T172 718T113 971Q113 1118 169 1229T332 1403T587 1466Q745
1466 862 1380T1044 1132T1109 740Q1109 506 1047 335T862 71T560 -22ZM587 617Q678 617 758 659T888 774T939 936Q941 1055 897 1149T773 1299T584 1354Q485 1354 410 1307T292 1174T250 977Q250 814 333 716T587 617Z" />
<glyph unicode=":" horiz-adv-x="401" d="M115 793V983H281V793H115ZM115 6V195H281V6H115Z" />
<glyph unicode=";" horiz-adv-x="437" d="M115 -272L221 0H152V189H317V22L174 -272H115ZM144 791V982H309V791H144Z" />
<glyph unicode="&lt;" horiz-adv-x="1056" d="M927 317L127 631V758L929 1079V947L291 695L927 443V317Z" />
<glyph unicode="=" horiz-adv-x="1071" d="M127 868V972L944 974V870L127 868ZM127 432V536L944 538V434L127 432Z" />
<glyph unicode="&gt;" horiz-adv-x="1054" d="M129 317V443L765 695L127 947V1079L927 758V631L129 317Z" />
<glyph unicode="?" horiz-adv-x="1026" d="M420 327Q420 442 459 528T556 683T672 817T769 951T808 1112Q808 1226 728 1292T516 1358Q444 1358 375 1331T253 1258T178 1156L59 1199Q123 1323 245 1394T516 1466Q646 1466 741 1422T889 1299T942 1115Q942 1011
901 933T800 789T679 657T577 511T536 327H420ZM397 0V189H561V0H397Z" />
<glyph unicode="@" horiz-adv-x="1667" d="M854 -220Q677 -220 538 -163T302 -6T153 226T102 508Q102 666 158 807T318 1056T565 1226T881 1288Q1006 1288 1127 1252T1348 1140T1505 946T1564 663Q1564 514 1515 400T1381 222T1190 158Q1116 158 1075 183T1019
266Q1015 279 1011 279T996 269Q953 210 887 170T722 130Q652 130 590 172T491 292T453 474Q453 600 501 702T633 865T825 926Q905 926 963 891T1054 795Q1057 791 1061 792T1067 801L1087 876H1188L1112 424Q1097 331 1119 296T1195 260Q1265 260 1322 307T1415
443T1450 651Q1450 796 1400 898T1266 1065T1081 1159T880 1189Q724 1189 601 1135T392 987T261 769T215 506Q215 378 257 265T383 65T591 -71T880 -120Q969 -120 1031 -103T1144 -56T1246 9L1307 -70Q1215 -139 1100 -179T854 -220ZM741 236Q808 236 866 275T963
380T1015 523Q1029 624 1005 690T933 788T831 820Q754 820 697 774T607 651T575 480Q575 367 618 302T741 236Z" />
<glyph unicode="A" horiz-adv-x="1402" d="M98 0L624 1446H779L1304 0H1173L1017 430H384L228 0H98ZM423 553H977L700 1321L423 553Z" />
<glyph unicode="B" horiz-adv-x="1324" d="M207 0V1446H639Q891 1446 1026 1350T1161 1071Q1161 951 1099 868T883 736Q965 720 1025 689T1123 613T1179 512T1197 387Q1197 193 1056 97T649 0H207ZM332 114H643Q852 114 961 177T1071 384Q1071 490 1017 553T871
645T668 674H332V114ZM332 789H668Q731 789 796 800T916 841T1005 923T1039 1055Q1039 1200 928 1267T639 1334H332V789Z" />
<glyph unicode="C" horiz-adv-x="1344" d="M706 -20Q516 -20 384 66T184 317T115 723Q115 964 183 1129T384 1380T706 1466Q854 1466 967 1404T1148 1239T1229 1019H1093Q1076 1109 1027 1184T897 1304T705 1349Q556 1349 456 1281T305 1074T254 722Q254 403 367
250T705 97Q817 97 897 142T1026 264T1093 430H1229Q1219 344 1180 263T1075 119T916 18T706 -20Z" />
<glyph unicode="D" horiz-adv-x="1357" d="M207 0V1446Q211 1446 238 1446T306 1445T396 1445T489 1444Q756 1442 922 1363T1165 1126T1242 733Q1242 485 1158 323T902 80T465 0H207ZM339 116H462Q672 116 816 175T1035 368T1110 727Q1110 959 1035 1090T818 1275T472
1330H339V116Z" />
<glyph unicode="E" horiz-adv-x="1225" d="M207 0V1446H1073V1330H332V789H1012V672H332V120L1097 118V0H207Z" />
<glyph unicode="F" horiz-adv-x="1165" d="M207 0V1446H1062L1061 1330H339V788H1001V672H339V0H207Z" />
<glyph unicode="G" horiz-adv-x="1437" d="M708 -20Q522 -20 389 65T186 315T115 720Q115 958 186 1125T392 1379T711 1466Q810 1466 900 1430T1061 1331T1177 1188T1229 1019H1093Q1078 1105 1025 1180T891 1302T710 1348Q570 1348 466 1280T305 1073T248 722Q248
560 281 442T376 248T523 134T712 97Q817 97 894 134T1022 232T1098 360T1126 491L1128 642H747V741L1256 740V0H1151V238Q1113 168 1052 110T906 16T708 -20Z" />
<glyph unicode="H" horiz-adv-x="1527" d="M207 0V1446H332V810H1196V1446H1320V0H1196V692H332V0H207Z" />
<glyph unicode="I" horiz-adv-x="539" d="M207 0V1446H332V0H207Z" />
<glyph unicode="J" horiz-adv-x="762" d="M324 -20Q243 -20 179 1T98 32L115 158Q147 145 189 125T301 104Q397 104 434 158T471 346V1446H596V307Q596 205 572 132T489 19T324 -20Z" />
<glyph unicode="K" horiz-adv-x="1325" d="M207 0V1446H338V650L1053 1446H1210L701 873L1245 0H1098L609 782L338 479V0H207Z" />
<glyph unicode="L" horiz-adv-x="1154" d="M207 0L209 1446H339V121H1053V0H207Z" />
<glyph unicode="M" horiz-adv-x="1734" d="M207 0V1446H369L865 159L1367 1446H1527V0H1395V1204L935 0H794L339 1191V0H207Z" />
<glyph unicode="N" horiz-adv-x="1476" d="M207 0V1446H320L1145 229V1446H1269V0H1159L332 1222V0H207Z" />
<glyph unicode="O" horiz-adv-x="1437" d="M722 -20Q535 -20 399 65T189 316T115 720Q115 960 189 1126T399 1379T722 1466Q908 1466 1043 1380T1250 1128T1323 720Q1323 482 1251 317T1043 66T722 -20ZM722 97Q871 97 974 164T1131 369T1185 719Q1185 934 1131
1073T973 1280T722 1349Q574 1349 469 1281T309 1072T253 719Q253 507 308 369T469 164T722 97Z" />
<glyph unicode="P" horiz-adv-x="1255" d="M207 0V1446H672Q825 1446 944 1396T1131 1245T1199 998Q1199 854 1134 753T955 599T690 546H339V0H207ZM338 662H688Q859 662 965 752T1071 1007Q1071 1171 963 1251T676 1331H338V662Z" />
<glyph unicode="Q" horiz-adv-x="1466" d="M1308 -240Q1250 -240 1175 -222T1025 -152T893 0Q845 -9 803 -14T720 -20Q535 -20 400 63T190 311T115 720Q115 962 188 1128T397 1380T720 1466Q907 1466 1042 1381T1250 1129T1323 720Q1323 482 1252 316T1018 55Q1061
-38 1138 -80T1308 -126V-240ZM720 97Q943 97 1064 248T1186 719Q1186 1033 1067 1191T720 1349Q494 1349 374 1191T254 716Q254 399 375 248T720 97Z" />
<glyph unicode="R" horiz-adv-x="1331" d="M207 0V1446H739Q886 1446 988 1403T1142 1276T1195 1072Q1195 952 1150 874T1036 751T899 684L1192 0H1055L776 659H332V0H207ZM332 773H675Q864 773 964 841T1065 1059Q1065 1202 978 1268T731 1335H332V773Z" />
<glyph unicode="S" horiz-adv-x="1315" d="M667 -20Q564 -20 473 5T308 79T188 200T125 367H259Q280 276 339 215T485 122T671 91Q777 91 863 125T1000 223T1051 374Q1051 467 994 528T806 626L494 713Q400 738 327 781T212 895T169 1073Q169 1189 232 1277T406
1414T656 1464Q821 1464 932 1405T1100 1252T1157 1056H1024Q1014 1168 959 1232T824 1325T652 1353Q482 1353 392 1273T302 1080Q302 978 365 922T546 833L858 747Q980 715 1051 659T1151 532T1181 381Q1181 267 1119 176T941 33T667 -20Z" />
<glyph unicode="T" horiz-adv-x="1161" d="M534 0V1327H51V1446H1110V1327H660V0H534Z" />
<glyph unicode="U" horiz-adv-x="1375" d="M707 -20Q533 -20 423 37T260 209T207 496V1446H339V465Q339 282 431 188T707 94Q830 94 914 135T1040 258T1083 465V1446H1209V471Q1209 309 1155 200T990 36T707 -20Z" />
<glyph unicode="V" horiz-adv-x="1309" d="M573 0L51 1446H179L655 137L1130 1446H1258L736 0H573Z" />
<glyph unicode="W" horiz-adv-x="1890" d="M462 0L51 1446H182L531 184L888 1446H996L1350 184L1709 1446H1839L1420 0H1284L941 1219L592 0H462Z" />
<glyph unicode="X" horiz-adv-x="1344" d="M98 0L594 740L118 1446H271L671 847L1068 1446H1211L740 749L1246 0H1092L664 638L241 0H98Z" />
<glyph unicode="Y" horiz-adv-x="1147" d="M515 0V621L26 1446H164L577 737L984 1446H1120L639 619V0H515Z" />
<glyph unicode="Z" horiz-adv-x="1237" d="M138 0V79L963 1332H163V1446H1133V1369L304 115H1131V0H138Z" />
<glyph unicode="[" horiz-adv-x="568" d="M198 -322L196 1446H522V1354H316L314 -230H520V-322H198Z" />
<glyph unicode="\" horiz-adv-x="667" d="M525 -100L28 1446H139L637 -100H525Z" />
<glyph unicode="]" horiz-adv-x="568" d="M48 -322V-230H253L252 1354H46V1446H371L370 -322H48Z" />
<glyph unicode="^" horiz-adv-x="934" d="M710 263L463 889L214 266H101L391 982Q408 1027 434 1043T488 1046T535 982L828 263H710Z" />
<glyph unicode="_" horiz-adv-x="995" d="M127 -215V-108L866 -106V-213L127 -215Z" />
<glyph unicode="`" horiz-adv-x="386" d="M271 1155L10 1446H170L376 1155H271Z" />
<glyph unicode="a" horiz-adv-x="1091" d="M448 -20Q347 -20 272 15T155 115T113 271Q113 444 228 525T605 615L820 622V713Q820 822 754 887T551 952Q448 951 375 903T282 751H164Q170 845 216 913T348 1017T557 1054Q679 1054 764 1017T895 905T941 718V0H832L824
203Q760 78 661 29T448 -20ZM480 80Q540 80 599 101T709 160T789 242T820 336V528L640 524Q495 522 407 497T278 419T237 282Q237 187 304 134T480 80Z" />
<glyph unicode="b" horiz-adv-x="1180" d="M643 -20Q544 -20 478 6T371 72T311 150T282 212L270 0H168V1486H295V857Q304 878 329 911T396 976T501 1031T649 1054Q844 1054 961 922T1078 521Q1078 358 1030 237T886 48T643 -20ZM628 84Q771 84 859 192T948 532Q948
723 867 835T622 948Q503 948 432 898T329 755T295 532Q295 296 370 190T628 84Z" />
<glyph unicode="c" horiz-adv-x="1082" d="M565 -20Q428 -20 324 39T161 216T102 514Q102 675 154 797T309 986T565 1054Q666 1054 751 1017T894 909T970 734H850Q839 797 801 844T703 919T565 946Q416 946 322 840T227 514Q227 320 311 202T567 83Q644 83 704
110T802 186T851 295H969Q952 193 894 123T750 16T565 -20Z" />
<glyph unicode="d" horiz-adv-x="1180" d="M537 -20Q339 -20 221 115T102 521Q102 681 149 801T292 987T531 1054Q616 1054 678 1032T783 977T851 911T886 857V1486H1012V0H910L898 212Q890 189 870 151T809 73T703 7T537 -20ZM553 84Q735 84 810 190T886 532Q884
661 852 754T749 898T558 948Q412 948 322 847T232 532Q232 326 311 205T553 84Z" />
<glyph unicode="e" horiz-adv-x="1122" d="M585 -20Q445 -20 339 42T173 222T113 507Q113 675 167 798T324 987T572 1054Q712 1054 809 994T957 820T1009 549V487H242Q242 379 278 288T390 141T584 85Q696 85 776 138T876 287H999Q980 185 918 117T769 14T585
-20ZM244 585H885Q885 688 851 771T748 902T571 950Q457 950 385 896T278 757T244 585Z" />
<glyph unicode="f" horiz-adv-x="791" d="M318 0V937H84V1034H318V1201Q318 1322 374 1384T552 1446H723V1350H559Q490 1350 466 1313T442 1203V1034H713V937H443V0H318Z" />
<glyph unicode="g" horiz-adv-x="1238" d="M582 -342Q357 -342 226 -271T94 -60Q94 -2 119 39T179 109T245 155T286 181Q268 193 246 206T207 242T191 299Q191 344 233 381T358 440Q273 485 223 558T173 721Q173 821 222 895T366 1009T600 1050Q699 1050 767 1027T896
956Q909 962 941 975T1014 1006T1088 1037T1137 1057V917L954 880Q973 845 984 803T995 722Q995 629 951 557T815 444T585 403Q576 403 565 403T545 404Q412 401 363 375T314 320Q314 288 359 275T520 253Q563 251 620 248T750 240Q897 231 982 163T1067 -31Q1067
-169 948 -255T582 -342ZM607 -248Q762 -248 852 -198T942 -43Q942 27 892 72T736 125L415 145Q381 147 335 123T255 55T220 -46Q220 -138 314 -193T607 -248ZM588 496Q717 496 795 552T874 722Q874 841 796 900T588 959Q458 959 378 900T298 722Q298 614 373 555T588
496Z" />
<glyph unicode="h" horiz-adv-x="1136" d="M168 0V1486H288V881Q314 927 361 966T475 1028T625 1051Q727 1051 808 1014T938 910T986 754V0H861V721Q861 826 791 884T601 942Q519 942 449 917T336 839T293 707V0H168Z" />
<glyph unicode="i" horiz-adv-x="472" d="M176 0V1034H298V0H176ZM168 1293V1444H304V1293H168Z" />
<glyph unicode="j" horiz-adv-x="496" d="M74 -332Q-13 -332 -33 -322T-54 -312V-228L61 -225Q134 -222 165 -187T196 -68V1034H321V-77Q321 -207 270 -269T74 -332ZM188 1293V1444H328V1293H188Z" />
<glyph unicode="k" horiz-adv-x="1103" d="M168 0V1486H292V467L838 1034H992L621 650L1025 0H883L534 560L292 312V0H168Z" />
<glyph unicode="l" horiz-adv-x="577" d="M390 -10Q325 -10 282 10T213 67T178 151T168 253V1486H291V260Q291 170 325 129T408 87L467 86V2Q448 -4 427 -7T390 -10Z" />
<glyph unicode="m" horiz-adv-x="1695" d="M168 0V1034H287V882Q327 951 399 1002T591 1054Q649 1054 709 1035T819 977T893 883Q940 962 1022 1008T1209 1054Q1262 1054 1321 1039T1430 984T1513 868T1545 673V0H1421V665Q1421 776 1387 836T1299 919T1183 943Q1128
943 1067 922T962 850T918 707V0H793V734Q793 804 757 850T666 919T557 943Q498 943 437 919T335 843T293 707V0H168Z" />
<glyph unicode="n" horiz-adv-x="1136" d="M168 0V1034H287V882Q313 928 360 967T474 1029T624 1052Q724 1052 806 1012T937 888T986 673V0H862V665Q862 807 791 874T601 942Q520 942 449 917T336 839T293 707V0H168Z" />
<glyph unicode="o" horiz-adv-x="1119" d="M562 -20Q424 -20 321 39T160 217T102 513Q102 676 153 797T307 986T562 1054Q700 1054 801 994T960 813T1017 513Q1017 354 967 234T815 47T562 -20ZM562 85Q664 85 737 134T851 279T891 516Q891 642 856 739T749 892T562
948Q459 948 385 900T270 755T229 516Q229 390 264 293T373 141T562 85Z" />
<glyph unicode="p" horiz-adv-x="1178" d="M168 -322V1034H291L295 836Q308 866 334 903T402 974T504 1031T645 1054Q773 1054 870 998T1021 827T1076 534Q1076 362 1027 238T880 47T638 -20Q558 -20 499 3T400 61T334 135T294 205V-322H168ZM623 85Q770 85 860
193T950 527Q950 718 869 833T623 948Q461 948 377 833T292 527Q292 401 329 301T441 143T623 85Z" />
<glyph unicode="q" horiz-adv-x="1178" d="M884 -322V205Q870 174 845 136T779 62T679 3T540 -20Q411 -20 313 39T158 220T102 534Q102 694 150 810T294 990T533 1054Q615 1054 674 1032T776 975T844 903T883 836L887 1034H1010V-322H884ZM555 85Q663 85 737 143T848
301T886 527Q886 718 802 833T555 948Q410 948 319 845T228 527Q228 325 310 205T555 85Z" />
<glyph unicode="r" horiz-adv-x="758" d="M168 0V1034H286V860Q312 932 360 974T466 1035T580 1054Q607 1054 634 1050T677 1037V914Q659 922 630 925T580 929Q532 931 482 920T389 882T320 806T293 686V0H168Z" />
<glyph unicode="s" horiz-adv-x="988" d="M516 -20Q408 -20 320 13T175 114T105 287H225Q239 223 276 178T375 108T516 83Q632 83 703 129T774 271Q774 336 739 375T632 434L400 495Q282 526 212 586T142 756Q142 844 182 911T306 1016T513 1054Q669 1054 766
983T870 770H751Q741 852 681 902T513 952Q401 952 332 906T262 761Q262 697 308 661T442 603L671 541Q734 524 776 496T844 432T881 357T893 278Q893 187 851 121T724 17T516 -20Z" />
<glyph unicode="t" horiz-adv-x="748" d="M510 -2Q419 -2 369 24T299 103T279 240V937H111V1034H281L309 1329H404V1034H639V937H404V243Q404 178 416 149T459 111T549 103H648V11Q629 4 593 1T510 -2Z" />
<glyph unicode="u" horiz-adv-x="1145" d="M548 -20Q462 -19 390 3T263 70T179 182T149 340V1034H274V348Q274 231 345 159T563 86Q693 86 773 154T853 362V1034H977V0H872L860 193Q842 123 799 76T693 4T548 -20Z" />
<glyph unicode="v" horiz-adv-x="991" d="M424 0L59 1034H182L484 151H506L813 1034H932L569 0H424Z" />
<glyph unicode="w" horiz-adv-x="1550" d="M376 0L65 1034H187L446 153H467L724 1034H825L1095 156H1116L1363 1034H1485L1186 0H1033L774 840L531 0H376Z" />
<glyph unicode="x" horiz-adv-x="1102" d="M78 0L477 537L109 1034H252L551 630L851 1034H994L625 537L1024 0H882L551 444L222 0H78Z" />
<glyph unicode="y" horiz-adv-x="1038" d="M239 -330Q156 -330 128 -320T99 -310V-227L207 -228Q259 -229 295 -219T355 -192T393 -152T418 -106L463 14L59 1034H188L526 166L858 1034H980L535 -118Q503 -198 459 -244T360 -310T239 -330Z" />
<glyph unicode="z" horiz-adv-x="944" d="M84 0V89L709 936H108V1034H853V945L230 98H860V0H84Z" />
<glyph unicode="{" horiz-adv-x="592" d="M473 -322Q395 -322 343 -298T265 -230T239 -129V318Q239 365 215 411T140 487T13 518V610Q128 611 183 671T239 820V1258Q239 1315 266 1357T345 1422T470 1446H546V1354H483Q435 1354 408 1343T370 1309T359 1251V810Q358
733 332 682T263 604T169 572Q157 571 157 566T169 558Q218 554 261 530T331 455T359 323V-122Q359 -177 385 -203T484 -230H546V-322H473Z" />
<glyph unicode="|" horiz-adv-x="521" d="M209 -322L207 1652H313V-322H209Z" />
<glyph unicode="}" horiz-adv-x="605" d="M44 -322V-230H105Q179 -230 205 -204T231 -122V323Q231 404 258 454T328 529T420 558Q434 560 433 565T420 572Q370 577 327 603T258 681T231 810V1251Q231 1286 220 1308T182 1342T107 1354H44V1446H119Q192 1446 243
1423T322 1357T350 1258V820Q350 732 405 672T576 610V518Q500 518 451 488T376 411T350 318V-129Q350 -186 324 -229T246 -297T117 -322H44Z" />
<glyph unicode="~" horiz-adv-x="1086" d="M155 632L118 714Q165 758 221 792T363 827Q417 827 463 813T551 780T638 747T733 732Q809 732 853 762T926 826L965 742Q938 701 880 669T732 637Q674 637 628 651T542 683T461 716T367 731Q291 731 241 700T155 632Z" />
<glyph unicode="&#xa0;" horiz-adv-x="505" />
<glyph unicode="&#xa1;" horiz-adv-x="467" d="M155 -322L187 709H277L310 -322H155ZM149 845V1034H313V845H149Z" />
<glyph unicode="&#xa2;" horiz-adv-x="1064" d="M571 202Q434 202 330 261T167 438T108 736Q108 897 160 1019T315 1208T571 1276Q672 1276 757 1239T900 1131T976 956H856Q845 1019 807 1066T709 1141T571 1168Q422 1168 328 1062T233 736Q233 542 317 424T573
305Q650 305 710 332T808 408T857 517H975Q958 415 900 345T756 238T571 202ZM512 0V258H617V0H512ZM512 1188V1446H617V1188H512Z" />
<glyph unicode="&#xa3;" horiz-adv-x="1187" d="M25 0V112H104Q180 112 234 187T289 425Q289 477 284 540T264 693H64V787H249L214 943Q186 1065 207 1161T285 1325T424 1430T600 1466Q688 1466 764 1437T896 1360T975 1256L862 1210Q827 1278 769 1314T613 1350Q536
1350 473 1320T373 1234T335 1097Q335 1032 349 948T389 788H728V695H401Q414 623 419 568T422 455Q421 354 400 286T352 176T306 114H698Q804 114 870 150T972 279L1083 244Q1037 121 941 61T703 0H25Z" />
<glyph unicode="&#xa4;" horiz-adv-x="1036" d="M188 329L118 405L230 515Q196 562 180 615T163 728Q163 839 223 924Q231 939 220 950L120 1052L192 1124L304 1008Q347 1042 402 1059T513 1077Q625 1077 709 1016Q723 1008 734 1018L840 1124L910 1051L794 936Q827
891 845 839T863 728Q863 674 848 624T803 533Q794 518 805 508L912 406L841 334L726 448Q680 414 627 395T515 375Q404 375 315 436Q300 447 290 433L188 329ZM517 485Q586 485 641 518T727 607T759 728Q759 792 728 847T641 937T517 971Q447 971 392 937T306
848T274 728Q274 663 305 608T392 519T517 485Z" />
<glyph unicode="&#xa5;" horiz-adv-x="1169" d="M519 0V605L21 1446H183L596 738L1011 1446H1148L661 638V0H519ZM210 290V382L970 384V291L210 290ZM210 572V665L970 666V574L210 572Z" />
<glyph unicode="&#xa6;" horiz-adv-x="521" d="M209 858L207 1652H313V858H209ZM209 -322L207 472H313V-322H209Z" />
<glyph unicode="&#xa7;" horiz-adv-x="956" d="M497 -137Q409 -137 328 -108T182 -28T82 93L172 144Q220 66 305 15T501 -37Q606 -37 675 5T745 126Q745 181 701 231T531 332L349 402Q220 452 165 521T109 680Q109 773 168 839T316 939Q232 982 188 1025T128 1112T112
1202Q112 1277 156 1337T282 1431T471 1466Q555 1466 626 1439T751 1368T839 1271L748 1219Q700 1281 634 1323T480 1366Q364 1366 299 1324T234 1211Q234 1163 271 1117T414 1028L585 958Q737 896 801 819T866 643Q866 542 809 484T679 389Q769 338 819 278T869
134Q869 56 823 -5T693 -102T497 -137ZM542 450Q596 446 642 469T717 534T745 625Q744 693 710 743T565 838L445 884Q386 880 337 852T257 782T226 694Q226 635 262 594T412 506L542 450Z" />
<glyph unicode="&#xa8;" horiz-adv-x="495" d="M356 1300V1446H485L484 1300H356ZM10 1300L11 1446H139V1300H10Z" />
<glyph unicode="&#xa9;" horiz-adv-x="1618" d="M808 -20Q654 -20 519 37T282 197T123 434T65 724Q65 877 122 1011T282 1248T519 1408T808 1466Q961 1466 1095 1408T1332 1248T1493 1012T1551 724Q1551 569 1493 434T1333 197T1096 38T808 -20ZM813 311Q701 311
617 363T485 509T438 727Q438 851 486 946T618 1094T813 1148Q889 1148 948 1121T1053 1047T1133 946L1032 908Q991 979 938 1017T819 1055Q704 1055 630 967T556 731Q556 582 630 493T820 403Q898 403 959 447T1057 562L1137 524Q1113 480 1080 442T1006 374T917
328T813 311ZM808 83Q936 83 1050 128T1253 257T1392 459T1443 724Q1443 868 1393 986T1254 1189T1051 1319T808 1365Q677 1365 562 1320T359 1189T222 986T172 724Q172 578 221 460T359 257T562 128T808 83Z" />
<glyph unicode="&#xaa;" horiz-adv-x="821" d="M331 791Q228 791 171 838T113 970Q113 1064 194 1118T429 1185L557 1196V1245Q557 1317 514 1350T393 1383Q335 1383 293 1362T213 1282L129 1310Q164 1382 233 1421T401 1461Q526 1461 588 1402T651 1241Q651 1161
651 1105T651 1014Q651 996 652 974T654 929T659 881L671 803H572L555 896Q502 842 450 817T331 791ZM358 865Q443 865 503 922Q529 945 543 967T557 1014V1126L451 1117Q330 1109 272 1072T213 974Q213 925 253 895T358 865Z" />
<glyph unicode="&#xab;" horiz-adv-x="859" d="M682 147L407 502L684 873H762L538 502L758 147H682ZM344 147L69 502L346 873H424L200 502L420 147H344Z" />
<glyph unicode="&#xac;" horiz-adv-x="1071" d="M127 673V778L944 779V675L127 673ZM836 396L835 752H944V396H836Z" />
<glyph unicode="&#xad;" horiz-adv-x="738" d="M125 463V570L612 572V464L125 463Z" />
<glyph unicode="&#xae;" horiz-adv-x="1062" d="M531 536Q401 536 296 598T128 765T65 1000Q65 1129 127 1235T295 1403T531 1466Q659 1466 764 1404T932 1235T995 1000Q995 871 933 766T765 598T531 536ZM530 615Q643 615 729 662T863 795T912 1000Q912 1117
864 1204T729 1339T530 1387Q417 1387 330 1339T195 1204T147 1000Q147 882 195 796T330 662T530 615ZM357 766V1228H560Q632 1228 671 1199T711 1114Q711 1058 680 1030T613 990L701 766H625L544 984H427V766H357ZM427 1045H548Q584 1045 611 1057T638 1106Q638
1131 619 1149T542 1168H427V1045Z" />
<glyph unicode="&#xaf;" horiz-adv-x="583" d="M22 1252V1351H558V1252H22Z" />
<glyph unicode="&#xb0;" horiz-adv-x="914" d="M455 1069Q368 1069 300 1107T193 1214T154 1370Q154 1459 193 1527T300 1635T455 1674Q542 1674 610 1635T717 1528T757 1370Q757 1283 718 1215T610 1108T455 1069ZM453 1160Q546 1160 599 1218T652 1368Q652 1461
599 1519T451 1577Q360 1577 306 1519T252 1368Q254 1276 307 1218T453 1160Z" />
<glyph unicode="&#xb1;" horiz-adv-x="1071" d="M127 142V246L944 248V144L127 142ZM588 922L944 923V818H588V462H485V818L127 817V921L485 922L484 1280H588V922Z" />
<glyph unicode="&#xb2;" horiz-adv-x="705" d="M68 746V810V841Q68 924 103 980T192 1078T308 1153T424 1223T514 1305T549 1418Q549 1494 496 1540T352 1586Q258 1586 199 1534T136 1389H47Q48 1464 84 1527T188 1629T357 1668Q486 1668 562 1599T639 1418Q639
1335 605 1279T517 1182T401 1108T286 1040T198 960T164 847V828H648V746H68Z" />
<glyph unicode="&#xb3;" horiz-adv-x="777" d="M374 736Q241 738 156 812T67 1004H157Q168 916 228 867T379 817Q486 817 551 866T616 995Q616 1081 548 1132T363 1184H282V1264L361 1265Q424 1265 475 1289T558 1351T590 1436Q590 1495 537 1542T380 1589Q330
1589 282 1568T202 1504T171 1394H82Q81 1475 120 1537T226 1633T379 1668Q470 1668 538 1640T644 1561T683 1438Q683 1370 640 1316T516 1230Q606 1203 658 1144T710 997Q710 916 667 857T548 767T374 736Z" />
<glyph unicode="&#xb4;" horiz-adv-x="386" d="M10 1155L216 1446H375L115 1155H10Z" />
<glyph unicode="&#xb5;" horiz-adv-x="1150" d="M149 -330V1060H277V302Q277 248 308 202T391 128T507 100Q598 100 684 153T853 297V1060H982L981 0H859V164Q751 75 675 36T512 -5Q444 -7 386 10T277 73V-330H149Z" />
<glyph unicode="&#xb6;" horiz-adv-x="1074" d="M528 -166V593Q394 595 299 652T153 803T102 1005Q102 1116 152 1217T304 1382T557 1446H924V1361H805V-166H713V1361H621V-166H528Z" />
<glyph unicode="&#xb7;" horiz-adv-x="426" d="M115 637V820H306V637H115Z" />
<glyph unicode="&#xb8;" horiz-adv-x="415" d="M186 -404Q138 -404 97 -392T19 -356L45 -291Q68 -310 98 -323T172 -336Q231 -336 258 -315T285 -257Q285 -212 248 -190T131 -166Q122 -166 121 -163T121 -155L193 10H273L224 -112Q288 -117 324 -138T375 -191T390
-254Q390 -304 362 -337T288 -387T186 -404Z" />
<glyph unicode="&#xb9;" horiz-adv-x="461" d="M229 744V1485H47V1554Q168 1553 209 1574T251 1654H320V744H229Z" />
<glyph unicode="&#xba;" horiz-adv-x="815" d="M407 794Q310 794 242 836T138 954T102 1126Q102 1227 139 1303T245 1421T407 1464Q502 1464 570 1422T676 1303T713 1126Q713 1029 677 954T573 837T407 794ZM407 872Q507 872 558 942T609 1132Q609 1246 558 1315T407
1384Q308 1384 258 1315T207 1132Q207 1013 257 943T407 872Z" />
<glyph unicode="&#xbb;" horiz-adv-x="921" d="M465 147L685 502L462 873H538L815 502L540 147H465ZM128 147L347 502L124 873H200L477 502L203 147H128Z" />
<glyph unicode="&#xbc;" horiz-adv-x="1539" d="M229 536V1277H47V1346Q168 1345 209 1366T251 1446H320V536H229ZM299 -8L200 -7L1177 1462H1271L299 -8ZM1250 1V248H821V334L1248 911H1337V329H1492V248H1337V1H1250ZM911 329H1247V781L911 329Z" />
<glyph unicode="&#xbd;" horiz-adv-x="1693" d="M229 536V1277H47V1346Q168 1345 209 1366T251 1446H320V536H229ZM299 -8L200 -7L1177 1462H1271L299 -8ZM1056 -2V62V93Q1056 176 1091 232T1180 330T1296 405T1412 475T1502 557T1537 670Q1537 746 1484 792T1340
838Q1246 838 1187 786T1124 641H1035Q1036 716 1072 779T1176 881T1345 920Q1474 920 1550 851T1627 670Q1627 587 1593 531T1505 434T1389 360T1274 292T1186 212T1152 99V80H1636V-2H1056Z" />
<glyph unicode="&#xbe;" horiz-adv-x="1791" d="M374 526Q241 528 156 602T67 794H157Q168 706 228 657T379 607Q486 607 551 656T616 785Q616 871 548 922T363 974H282V1054L361 1055Q424 1055 475 1079T558 1141T590 1226Q590 1285 537 1332T380 1379Q330 1379
282 1358T202 1294T171 1184H82Q81 1265 120 1327T226 1423T379 1458Q470 1458 538 1430T644 1351T683 1228Q683 1160 640 1106T516 1020Q606 993 658 934T710 787Q710 706 667 647T548 557T374 526ZM551 -8L452 -7L1429 1462H1523L551 -8ZM1501 1V248H1072V334L1499
911H1588V329H1743V248H1588V1H1501ZM1162 329H1498V781L1162 329Z" />
<glyph unicode="&#xbf;" horiz-adv-x="1007" d="M487 -342Q355 -342 260 -298T113 -174T62 11Q62 94 91 153T166 260T264 350T362 442T437 556T467 710H583Q583 611 555 540T483 417T389 320T295 233T223 137T195 14Q195 -99 275 -166T488 -233Q559 -233 628 -206T751
-132T826 -30L944 -75Q881 -198 760 -270T487 -342ZM443 845V1034H608V845H443Z" />
<glyph unicode="&#xc0;" horiz-adv-x="1402" d="M98 0L624 1446H779L1304 0H1173L1017 430H384L228 0H98ZM423 553H977L700 1321L423 553ZM658 1567L397 1858H557L763 1567H658Z" />
<glyph unicode="&#xc1;" horiz-adv-x="1402" d="M98 0L624 1446H779L1304 0H1173L1017 430H384L228 0H98ZM423 553H977L700 1321L423 553ZM636 1567L842 1858H1001L741 1567H636Z" />
<glyph unicode="&#xc2;" horiz-adv-x="1402" d="M98 0L624 1446H779L1304 0H1173L1017 430H384L228 0H98ZM423 553H977L700 1321L423 553ZM412 1567L656 1772H750L989 1567H845L701 1691L547 1567H412Z" />
<glyph unicode="&#xc3;" horiz-adv-x="1402" d="M98 0L624 1446H779L1304 0H1173L1017 430H384L228 0H98ZM423 553H977L700 1321L423 553ZM456 1648L427 1732Q458 1759 493 1778T579 1798Q624 1798 663 1785T742 1759T824 1745Q865 1745 893 1758T950 1793L980
1701Q956 1685 920 1667T823 1649Q771 1649 734 1661T663 1686T587 1699Q538 1699 510 1683T456 1648Z" />
<glyph unicode="&#xc4;" horiz-adv-x="1402" d="M98 0L624 1446H779L1304 0H1173L1017 430H384L228 0H98ZM423 553H977L700 1321L423 553ZM810 1712V1858H939L938 1712H810ZM464 1712L465 1858H593V1712H464Z" />
<glyph unicode="&#xc5;" horiz-adv-x="1402" d="M98 0L624 1446H779L1304 0H1173L1017 430H384L228 0H98ZM423 553H977L700 1321L423 553ZM701 1576Q617 1576 560 1634T502 1779Q502 1859 560 1915T701 1971Q757 1971 802 1945T875 1875T902 1775Q902 1691 844
1634T701 1576ZM699 1661Q745 1661 777 1695T809 1774Q809 1824 777 1854T699 1885Q655 1885 621 1855T587 1774Q587 1730 621 1696T699 1661Z" />
<glyph unicode="&#xc6;" horiz-adv-x="1874" d="M0 0L815 1446H1720L1719 1332H1028V787H1659V674H1028V114H1746V0H886V436H376L130 0H0ZM430 553H886V1345L430 553Z" />
<glyph unicode="&#xc7;" horiz-adv-x="1344" d="M669 -404Q620 -404 579 -392T501 -356L527 -291Q551 -310 580 -323T655 -336Q714 -336 740 -315T767 -257Q767 -212 731 -190T613 -166Q605 -166 603 -163T603 -155L676 10H755L707 -112Q771 -117 807 -138T858
-191T873 -254Q873 -304 845 -337T771 -387T669 -404ZM706 -20Q516 -20 384 66T184 317T115 723Q115 964 183 1129T384 1380T706 1466Q854 1466 967 1404T1148 1239T1229 1019H1093Q1076 1109 1027 1184T897 1304T705 1349Q556 1349 456 1281T305 1074T254 722Q254
403 367 250T705 97Q817 97 897 142T1026 264T1093 430H1229Q1219 344 1180 263T1075 119T916 18T706 -20Z" />
<glyph unicode="&#xc8;" horiz-adv-x="1225" d="M207 0V1446H1073V1330H332V789H1012V672H332V120L1097 118V0H207ZM601 1567L340 1858H500L706 1567H601Z" />
<glyph unicode="&#xc9;" horiz-adv-x="1225" d="M207 0V1446H1073V1330H332V789H1012V672H332V120L1097 118V0H207ZM579 1567L785 1858H944L684 1567H579Z" />
<glyph unicode="&#xca;" horiz-adv-x="1225" d="M207 0V1446H1073V1330H332V789H1012V672H332V120L1097 118V0H207ZM355 1567L599 1772H693L932 1567H788L644 1691L490 1567H355Z" />
<glyph unicode="&#xcb;" horiz-adv-x="1225" d="M207 0V1446H1073V1330H332V789H1012V672H332V120L1097 118V0H207ZM753 1712V1858H882L881 1712H753ZM407 1712L408 1858H536V1712H407Z" />
<glyph unicode="&#xcc;" horiz-adv-x="539" d="M207 0V1446H332V0H207ZM227 1567L-34 1858H126L332 1567H227Z" />
<glyph unicode="&#xcd;" horiz-adv-x="539" d="M207 0V1446H332V0H207ZM205 1567L411 1858H570L310 1567H205Z" />
<glyph unicode="&#xce;" horiz-adv-x="539" d="M207 0V1446H332V0H207ZM-19 1567L225 1772H319L558 1567H414L270 1691L116 1567H-19Z" />
<glyph unicode="&#xcf;" horiz-adv-x="539" d="M207 0V1446H332V0H207ZM379 1712V1858H508L507 1712H379ZM33 1712L34 1858H162V1712H33Z" />
<glyph unicode="&#xd0;" horiz-adv-x="1367" d="M70 671V781H698V671H70ZM217 0V1446Q221 1446 248 1446T316 1445T405 1445T499 1444Q766 1442 932 1363T1175 1126T1252 733Q1252 485 1168 323T912 80T475 0H217ZM348 116H471Q681 116 825 175T1045 368T1120
727Q1120 959 1045 1090T827 1275T482 1330H348V116Z" />
<glyph unicode="&#xd1;" horiz-adv-x="1476" d="M207 0V1446H320L1145 229V1446H1269V0H1159L332 1222V0H207ZM493 1648L464 1732Q495 1759 530 1778T616 1798Q661 1798 700 1785T779 1759T861 1745Q902 1745 930 1758T987 1793L1017 1701Q993 1685 957 1667T860
1649Q808 1649 771 1661T700 1686T624 1699Q575 1699 547 1683T493 1648Z" />
<glyph unicode="&#xd2;" horiz-adv-x="1437" d="M722 -20Q535 -20 399 65T189 316T115 720Q115 960 189 1126T399 1379T722 1466Q908 1466 1043 1380T1250 1128T1323 720Q1323 482 1251 317T1043 66T722 -20ZM722 97Q871 97 974 164T1131 369T1185 719Q1185 934
1131 1073T973 1280T722 1349Q574 1349 469 1281T309 1072T253 719Q253 507 308 369T469 164T722 97ZM680 1567L419 1858H579L785 1567H680Z" />
<glyph unicode="&#xd3;" horiz-adv-x="1437" d="M722 -20Q535 -20 399 65T189 316T115 720Q115 960 189 1126T399 1379T722 1466Q908 1466 1043 1380T1250 1128T1323 720Q1323 482 1251 317T1043 66T722 -20ZM722 97Q871 97 974 164T1131 369T1185 719Q1185 934
1131 1073T973 1280T722 1349Q574 1349 469 1281T309 1072T253 719Q253 507 308 369T469 164T722 97ZM658 1567L864 1858H1023L763 1567H658Z" />
<glyph unicode="&#xd4;" horiz-adv-x="1437" d="M722 -20Q535 -20 399 65T189 316T115 720Q115 960 189 1126T399 1379T722 1466Q908 1466 1043 1380T1250 1128T1323 720Q1323 482 1251 317T1043 66T722 -20ZM722 97Q871 97 974 164T1131 369T1185 719Q1185 934
1131 1073T973 1280T722 1349Q574 1349 469 1281T309 1072T253 719Q253 507 308 369T469 164T722 97ZM434 1567L678 1772H772L1011 1567H867L723 1691L569 1567H434Z" />
<glyph unicode="&#xd5;" horiz-adv-x="1437" d="M722 -20Q535 -20 399 65T189 316T115 720Q115 960 189 1126T399 1379T722 1466Q908 1466 1043 1380T1250 1128T1323 720Q1323 482 1251 317T1043 66T722 -20ZM722 97Q871 97 974 164T1131 369T1185 719Q1185 934
1131 1073T973 1280T722 1349Q574 1349 469 1281T309 1072T253 719Q253 507 308 369T469 164T722 97ZM478 1648L449 1732Q480 1759 515 1778T601 1798Q646 1798 685 1785T764 1759T846 1745Q887 1745 915 1758T972 1793L1002 1701Q978 1685 942 1667T845 1649Q793
1649 756 1661T685 1686T609 1699Q560 1699 532 1683T478 1648Z" />
<glyph unicode="&#xd6;" horiz-adv-x="1437" d="M722 -20Q535 -20 399 65T189 316T115 720Q115 960 189 1126T399 1379T722 1466Q908 1466 1043 1380T1250 1128T1323 720Q1323 482 1251 317T1043 66T722 -20ZM722 97Q871 97 974 164T1131 369T1185 719Q1185 934
1131 1073T973 1280T722 1349Q574 1349 469 1281T309 1072T253 719Q253 507 308 369T469 164T722 97ZM832 1712V1858H961L960 1712H832ZM486 1712L487 1858H615V1712H486Z" />
<glyph unicode="&#xd7;" horiz-adv-x="1038" d="M204 335L129 411L834 1119L909 1046L204 335ZM835 335L127 1042L202 1116L911 411L835 335Z" />
<glyph unicode="&#xd8;" horiz-adv-x="1472" d="M147 -26L64 52L236 248Q185 337 158 454T130 717Q130 958 203 1125T412 1379T736 1466Q870 1466 977 1422T1162 1290L1323 1470L1407 1394L1231 1194Q1284 1104 1311 985T1338 720Q1338 482 1266 317T1057 66T734
-20Q599 -20 492 24T308 153L147 -26ZM737 97Q956 97 1066 242T1180 687Q1182 804 1168 902T1123 1081L397 251Q511 97 737 97ZM345 363L1071 1193Q1015 1273 931 1311T736 1350Q517 1350 403 1201T286 746Q284 631 299 536T345 363Z" />
<glyph unicode="&#xd9;" horiz-adv-x="1375" d="M707 -20Q533 -20 423 37T260 209T207 496V1446H339V465Q339 282 431 188T707 94Q830 94 914 135T1040 258T1083 465V1446H1209V471Q1209 309 1155 200T990 36T707 -20ZM667 1567L406 1858H566L772 1567H667Z" />
<glyph unicode="&#xda;" horiz-adv-x="1375" d="M707 -20Q533 -20 423 37T260 209T207 496V1446H339V465Q339 282 431 188T707 94Q830 94 914 135T1040 258T1083 465V1446H1209V471Q1209 309 1155 200T990 36T707 -20ZM645 1567L851 1858H1010L750 1567H645Z" />
<glyph unicode="&#xdb;" horiz-adv-x="1375" d="M707 -20Q533 -20 423 37T260 209T207 496V1446H339V465Q339 282 431 188T707 94Q830 94 914 135T1040 258T1083 465V1446H1209V471Q1209 309 1155 200T990 36T707 -20ZM421 1567L665 1772H759L998 1567H854L710
1691L556 1567H421Z" />
<glyph unicode="&#xdc;" horiz-adv-x="1375" d="M707 -20Q533 -20 423 37T260 209T207 496V1446H339V465Q339 282 431 188T707 94Q830 94 914 135T1040 258T1083 465V1446H1209V471Q1209 309 1155 200T990 36T707 -20ZM819 1712V1858H948L947 1712H819ZM473 1712L474
1858H602V1712H473Z" />
<glyph unicode="&#xdd;" horiz-adv-x="1147" d="M515 0V621L26 1446H164L577 737L984 1446H1120L639 619V0H515ZM516 1570L722 1861H881L621 1570H516Z" />
<glyph unicode="&#xde;" horiz-adv-x="1267" d="M207 0V1446H339V1138H684Q839 1138 958 1098T1144 973T1212 755Q1212 609 1145 518T961 385T695 342H339V0H207ZM339 459H692Q806 459 894 487T1031 581T1081 755Q1081 855 1031 913T891 997T680 1022H339V459Z" />
<glyph unicode="&#xdf;" horiz-adv-x="1136" d="M662 -20Q592 -20 515 -1T385 51L439 142Q485 116 532 98T649 79Q773 79 846 138T919 303Q919 384 880 431T778 507T647 557Q597 574 548 595T467 656T434 766Q434 840 478 888T618 986Q659 1009 698 1032T763 1090T789
1181Q789 1257 733 1302T574 1347Q451 1347 372 1272T293 1044V0H170L168 1024Q168 1120 197 1197T281 1330T414 1416T591 1446Q710 1446 780 1407T880 1307T911 1180Q911 1102 879 1055T795 976T682 915Q607 874 576 850T545 782Q545 740 574 722T677 679Q729
661 791 637T910 573T1003 471T1040 314Q1040 205 989 131T852 18T662 -20Z" />
<glyph unicode="&#xe0;" horiz-adv-x="1091" d="M448 -20Q347 -20 272 15T155 115T113 271Q113 444 228 525T605 615L820 622V713Q820 822 754 887T551 952Q448 951 375 903T282 751H164Q170 845 216 913T348 1017T557 1054Q679 1054 764 1017T895 905T941 718V0H832L824
203Q760 78 661 29T448 -20ZM480 80Q540 80 599 101T709 160T789 242T820 336V528L640 524Q495 522 407 497T278 419T237 282Q237 187 304 134T480 80ZM514 1155L253 1446H413L619 1155H514Z" />
<glyph unicode="&#xe1;" horiz-adv-x="1091" d="M448 -20Q347 -20 272 15T155 115T113 271Q113 444 228 525T605 615L820 622V713Q820 822 754 887T551 952Q448 951 375 903T282 751H164Q170 845 216 913T348 1017T557 1054Q679 1054 764 1017T895 905T941 718V0H832L824
203Q760 78 661 29T448 -20ZM480 80Q540 80 599 101T709 160T789 242T820 336V528L640 524Q495 522 407 497T278 419T237 282Q237 187 304 134T480 80ZM492 1155L698 1446H857L597 1155H492Z" />
<glyph unicode="&#xe2;" horiz-adv-x="1091" d="M448 -20Q347 -20 272 15T155 115T113 271Q113 444 228 525T605 615L820 622V713Q820 822 754 887T551 952Q448 951 375 903T282 751H164Q170 845 216 913T348 1017T557 1054Q679 1054 764 1017T895 905T941 718V0H832L824
203Q760 78 661 29T448 -20ZM480 80Q540 80 599 101T709 160T789 242T820 336V528L640 524Q495 522 407 497T278 419T237 282Q237 187 304 134T480 80ZM268 1155L512 1360H606L845 1155H701L557 1279L403 1155H268Z" />
<glyph unicode="&#xe3;" horiz-adv-x="1091" d="M448 -20Q347 -20 272 15T155 115T113 271Q113 444 228 525T605 615L820 622V713Q820 822 754 887T551 952Q448 951 375 903T282 751H164Q170 845 216 913T348 1017T557 1054Q679 1054 764 1017T895 905T941 718V0H832L824
203Q760 78 661 29T448 -20ZM480 80Q540 80 599 101T709 160T789 242T820 336V528L640 524Q495 522 407 497T278 419T237 282Q237 187 304 134T480 80ZM312 1236L283 1320Q314 1347 349 1366T435 1386Q480 1386 519 1373T598 1347T680 1333Q721 1333 749 1346T806
1381L836 1289Q812 1273 776 1255T679 1237Q627 1237 590 1249T519 1274T443 1287Q394 1287 366 1271T312 1236Z" />
<glyph unicode="&#xe4;" horiz-adv-x="1091" d="M448 -20Q347 -20 272 15T155 115T113 271Q113 444 228 525T605 615L820 622V713Q820 822 754 887T551 952Q448 951 375 903T282 751H164Q170 845 216 913T348 1017T557 1054Q679 1054 764 1017T895 905T941 718V0H832L824
203Q760 78 661 29T448 -20ZM480 80Q540 80 599 101T709 160T789 242T820 336V528L640 524Q495 522 407 497T278 419T237 282Q237 187 304 134T480 80ZM666 1300V1446H795L794 1300H666ZM320 1300L321 1446H449V1300H320Z" />
<glyph unicode="&#xe5;" horiz-adv-x="1091" d="M448 -20Q347 -20 272 15T155 115T113 271Q113 444 228 525T605 615L820 622V713Q820 822 754 887T551 952Q448 951 375 903T282 751H164Q170 845 216 913T348 1017T557 1054Q679 1054 764 1017T895 905T941 718V0H832L824
203Q760 78 661 29T448 -20ZM480 80Q540 80 599 101T709 160T789 242T820 336V528L640 524Q495 522 407 497T278 419T237 282Q237 187 304 134T480 80ZM558 1164Q474 1164 417 1222T359 1367Q359 1447 417 1503T558 1559Q614 1559 659 1533T732 1463T759 1363Q759
1279 701 1222T558 1164ZM556 1249Q602 1249 634 1283T666 1362Q666 1412 634 1442T556 1473Q512 1473 478 1443T444 1362Q444 1318 478 1284T556 1249Z" />
<glyph unicode="&#xe6;" horiz-adv-x="1829" d="M448 -20Q347 -20 272 15T155 115T113 271Q113 444 228 526T605 615L820 622V713Q820 827 746 889T551 952Q449 951 375 901T282 751H164Q169 831 215 900T348 1012T557 1054Q689 1054 781 1001T910 851Q966 949
1059 1001T1279 1054Q1418 1054 1515 994T1663 820T1715 549V487H948Q948 379 984 288T1096 141T1290 85Q1402 85 1482 138T1582 287H1706Q1686 185 1624 117T1475 14T1291 -20Q1147 -20 1038 47T874 239Q852 160 788 102T635 12T448 -20ZM480 80Q584 80 659 127T775
244T816 378L815 528L640 524Q495 522 407 497T278 419T237 282Q237 187 304 134T480 80ZM950 585H1591Q1591 688 1557 771T1454 902T1277 950Q1163 950 1091 896T984 757T950 585Z" />
<glyph unicode="&#xe7;" horiz-adv-x="1082" d="M524 -404Q475 -404 434 -392T356 -356L382 -291Q405 -310 435 -323T510 -336Q568 -336 595 -315T622 -257Q622 -212 585 -190T468 -166Q460 -166 458 -163T458 -155L530 10H610L561 -112Q625 -117 661 -138T712
-191T727 -254Q727 -304 699 -337T625 -387T524 -404ZM565 -20Q428 -20 324 39T161 216T102 514Q102 675 154 797T309 986T565 1054Q666 1054 751 1017T894 909T970 734H850Q839 797 801 844T703 919T565 946Q416 946 322 840T227 514Q227 320 311 202T567 83Q644
83 704 110T802 186T851 295H969Q952 193 894 123T750 16T565 -20Z" />
<glyph unicode="&#xe8;" horiz-adv-x="1122" d="M585 -20Q445 -20 339 42T173 222T113 507Q113 675 167 798T324 987T572 1054Q712 1054 809 994T957 820T1009 549V487H242Q242 379 278 288T390 141T584 85Q696 85 776 138T876 287H999Q980 185 918 117T769 14T585
-20ZM244 585H885Q885 688 851 771T748 902T571 950Q457 950 385 896T278 757T244 585ZM530 1155L269 1446H429L635 1155H530Z" />
<glyph unicode="&#xe9;" horiz-adv-x="1122" d="M585 -20Q445 -20 339 42T173 222T113 507Q113 675 167 798T324 987T572 1054Q712 1054 809 994T957 820T1009 549V487H242Q242 379 278 288T390 141T584 85Q696 85 776 138T876 287H999Q980 185 918 117T769 14T585
-20ZM244 585H885Q885 688 851 771T748 902T571 950Q457 950 385 896T278 757T244 585ZM507 1155L713 1446H872L612 1155H507Z" />
<glyph unicode="&#xea;" horiz-adv-x="1122" d="M585 -20Q445 -20 339 42T173 222T113 507Q113 675 167 798T324 987T572 1054Q712 1054 809 994T957 820T1009 549V487H242Q242 379 278 288T390 141T584 85Q696 85 776 138T876 287H999Q980 185 918 117T769 14T585
-20ZM244 585H885Q885 688 851 771T748 902T571 950Q457 950 385 896T278 757T244 585ZM283 1155L527 1360H621L860 1155H716L572 1279L418 1155H283Z" />
<glyph unicode="&#xeb;" horiz-adv-x="1122" d="M585 -20Q445 -20 339 42T173 222T113 507Q113 675 167 798T324 987T572 1054Q712 1054 809 994T957 820T1009 549V487H242Q242 379 278 288T390 141T584 85Q696 85 776 138T876 287H999Q980 185 918 117T769 14T585
-20ZM244 585H885Q885 688 851 771T748 902T571 950Q457 950 385 896T278 757T244 585ZM681 1300V1446H810L809 1300H681ZM335 1300L336 1446H464V1300H335Z" />
<glyph unicode="&#xec;" horiz-adv-x="458" d="M168 0V1034H290V0H168ZM437 1155L241 1446H397L534 1155H437Z" />
<glyph unicode="&#xed;" horiz-adv-x="458" d="M168 0V1034H290V0H168ZM276 1155H180L317 1446H473L276 1155Z" />
<glyph unicode="&#xee;" horiz-adv-x="458" d="M168 0V1034H290V0H168ZM196 1155L440 1360H534L773 1155H629L485 1279L331 1155H196Z" />
<glyph unicode="&#xef;" horiz-adv-x="510" d="M192 0V1034H314V0H192ZM363 1555V1701H492L491 1555H363ZM17 1555L18 1701H146V1555H17Z" />
<glyph unicode="&#xf0;" horiz-adv-x="1120" d="M561 -20Q404 -20 302 50T151 241T102 511Q102 632 132 730T221 900T364 1009T560 1048Q727 1048 825 964T954 750L835 872Q809 981 758 1074T645 1244T518 1380T400 1480H535Q624 1412 710 1320T866 1108T977 843T1018
521Q1018 367 970 245T821 51T561 -20ZM563 85Q679 85 751 141T858 295T892 513Q892 722 808 832T566 943Q396 943 313 825T229 513Q229 399 261 301T366 144T563 85ZM374 1160L349 1238L937 1419L960 1339L374 1160Z" />
<glyph unicode="&#xf1;" horiz-adv-x="1136" d="M168 0V1034H287V882Q313 928 360 967T474 1029T624 1052Q724 1052 806 1012T937 888T986 673V0H862V665Q862 807 791 874T601 942Q520 942 449 917T336 839T293 707V0H168ZM349 1236L320 1320Q351 1347 386 1366T472
1386Q517 1386 556 1373T635 1347T717 1333Q758 1333 786 1346T843 1381L873 1289Q849 1273 813 1255T716 1237Q664 1237 627 1249T556 1274T480 1287Q431 1287 403 1271T349 1236Z" />
<glyph unicode="&#xf2;" horiz-adv-x="1119" d="M562 -20Q424 -20 321 39T160 217T102 513Q102 676 153 797T307 986T562 1054Q700 1054 801 994T960 813T1017 513Q1017 354 967 234T815 47T562 -20ZM562 85Q664 85 737 134T851 279T891 516Q891 642 856 739T749
892T562 948Q459 948 385 900T270 755T229 516Q229 390 264 293T373 141T562 85ZM517 1155L256 1446H416L622 1155H517Z" />
<glyph unicode="&#xf3;" horiz-adv-x="1119" d="M562 -20Q424 -20 321 39T160 217T102 513Q102 676 153 797T307 986T562 1054Q700 1054 801 994T960 813T1017 513Q1017 354 967 234T815 47T562 -20ZM562 85Q664 85 737 134T851 279T891 516Q891 642 856 739T749
892T562 948Q459 948 385 900T270 755T229 516Q229 390 264 293T373 141T562 85ZM495 1155L701 1446H860L600 1155H495Z" />
<glyph unicode="&#xf4;" horiz-adv-x="1119" d="M562 -20Q424 -20 321 39T160 217T102 513Q102 676 153 797T307 986T562 1054Q700 1054 801 994T960 813T1017 513Q1017 354 967 234T815 47T562 -20ZM562 85Q664 85 737 134T851 279T891 516Q891 642 856 739T749
892T562 948Q459 948 385 900T270 755T229 516Q229 390 264 293T373 141T562 85ZM271 1155L515 1360H609L848 1155H704L560 1279L406 1155H271Z" />
<glyph unicode="&#xf5;" horiz-adv-x="1119" d="M562 -20Q424 -20 321 39T160 217T102 513Q102 676 153 797T307 986T562 1054Q700 1054 801 994T960 813T1017 513Q1017 354 967 234T815 47T562 -20ZM562 85Q664 85 737 134T851 279T891 516Q891 642 856 739T749
892T562 948Q459 948 385 900T270 755T229 516Q229 390 264 293T373 141T562 85ZM315 1236L286 1320Q317 1347 352 1366T438 1386Q483 1386 522 1373T601 1347T683 1333Q724 1333 752 1346T809 1381L839 1289Q815 1273 779 1255T682 1237Q630 1237 593 1249T522
1274T446 1287Q397 1287 369 1271T315 1236Z" />
<glyph unicode="&#xf6;" horiz-adv-x="1119" d="M562 -20Q424 -20 321 39T160 217T102 513Q102 676 153 797T307 986T562 1054Q700 1054 801 994T960 813T1017 513Q1017 354 967 234T815 47T562 -20ZM562 85Q664 85 737 134T851 279T891 516Q891 642 856 739T749
892T562 948Q459 948 385 900T270 755T229 516Q229 390 264 293T373 141T562 85ZM669 1300V1446H798L797 1300H669ZM323 1300L324 1446H452V1300H323Z" />
<glyph unicode="&#xf7;" horiz-adv-x="1071" d="M127 673V778L944 779V675L127 673ZM441 307V491H633V307H441ZM441 963V1148H633V963H441Z" />
<glyph unicode="&#xf8;" horiz-adv-x="1143" d="M98 -10L35 57L1042 1040L1105 974L98 -10ZM565 -20Q427 -20 324 39T163 217T105 513Q105 676 156 797T310 986T565 1054Q702 1054 804 994T962 813T1019 513Q1019 354 969 234T818 47T565 -20ZM565 85Q667 85 740
134T854 279T894 516Q894 642 859 739T752 892T565 948Q462 948 387 900T272 755T232 516Q232 390 267 293T376 141T565 85Z" />
<glyph unicode="&#xf9;" horiz-adv-x="1145" d="M548 -20Q462 -19 390 3T263 70T179 182T149 340V1034H274V348Q274 231 345 159T563 86Q693 86 773 154T853 362V1034H977V0H872L860 193Q842 123 799 76T693 4T548 -20ZM524 1155L263 1446H423L629 1155H524Z" />
<glyph unicode="&#xfa;" horiz-adv-x="1145" d="M548 -20Q462 -19 390 3T263 70T179 182T149 340V1034H274V348Q274 231 345 159T563 86Q693 86 773 154T853 362V1034H977V0H872L860 193Q842 123 799 76T693 4T548 -20ZM502 1155L708 1446H867L607 1155H502Z" />
<glyph unicode="&#xfb;" horiz-adv-x="1145" d="M548 -20Q462 -19 390 3T263 70T179 182T149 340V1034H274V348Q274 231 345 159T563 86Q693 86 773 154T853 362V1034H977V0H872L860 193Q842 123 799 76T693 4T548 -20ZM278 1155L522 1360H616L855 1155H711L567
1279L413 1155H278Z" />
<glyph unicode="&#xfc;" horiz-adv-x="1145" d="M548 -20Q462 -19 390 3T263 70T179 182T149 340V1034H274V348Q274 231 345 159T563 86Q693 86 773 154T853 362V1034H977V0H872L860 193Q842 123 799 76T693 4T548 -20ZM676 1300V1446H805L804 1300H676ZM330 1300L331
1446H459V1300H330Z" />
<glyph unicode="&#xfd;" horiz-adv-x="1038" d="M239 -330Q156 -330 128 -320T99 -310V-227L207 -228Q259 -229 295 -219T355 -192T393 -152T418 -106L463 14L59 1034H188L526 166L858 1034H980L535 -118Q503 -198 459 -244T360 -310T239 -330ZM460 1155L666 1446H825L565
1155H460Z" />
<glyph unicode="&#xfe;" horiz-adv-x="1163" d="M168 -322V1446H290V885Q309 908 348 948T454 1021T624 1054Q746 1054 845 997T1002 824T1060 534Q1060 363 1003 239T843 48T602 -20Q507 -20 437 10T321 78Q304 93 299 90T293 65V-322H168ZM577 78Q681 78 760
130T885 283T931 529Q931 677 884 771T759 909T590 954Q502 954 435 916T331 821T293 710V216Q356 154 425 116T577 78Z" />
<glyph unicode="&#xff;" horiz-adv-x="1038" d="M239 -330Q156 -330 128 -320T99 -310V-227L207 -228Q259 -229 295 -219T355 -192T393 -152T418 -106L463 14L59 1034H188L526 166L858 1034H980L535 -118Q503 -198 459 -244T360 -310T239 -330ZM634 1300V1446H763L762
1300H634ZM288 1300L289 1446H417V1300H288Z" />
<glyph unicode="&#x2013;" horiz-adv-x="1068" d="M125 449V557L943 559V451L125 449Z" />
<glyph unicode="&#x2014;" horiz-adv-x="2198" d="M376 449V557L1821 559V451L376 449Z" />
<glyph unicode="&#x2018;" horiz-adv-x="452" d="M122 1089V1250L274 1511H348L240 1276L316 1274V1089H122Z" />
<glyph unicode="&#x2019;" horiz-adv-x="428" d="M100 1025L208 1259L131 1261V1446H325V1286L174 1025H100Z" />
<glyph unicode="&#x201a;" horiz-adv-x="443" d="M83 -234L191 -1L114 1V188H308V27L157 -234H83Z" />
<glyph unicode="&#x201c;" horiz-adv-x="771" d="M122 1025V1187L276 1446H349L240 1213L316 1211V1025H122ZM440 1025V1187L592 1446H666L556 1213L635 1211V1025H440Z" />
<glyph unicode="&#x201d;" horiz-adv-x="745" d="M416 1025L526 1259L449 1261V1446H642V1286L490 1025H416ZM100 1025L208 1259L131 1261V1446H325V1286L174 1025H100Z" />
<glyph unicode="&#x201e;" horiz-adv-x="768" d="M408 -234L516 -1L439 1V188H633V27L482 -234H408ZM83 -234L191 -1L114 1V188H308V27L157 -234H83Z" />
<glyph unicode="&#x2022;" horiz-adv-x="592" d="M294 570Q248 570 211 592T152 652T129 736Q129 781 151 818T211 878T294 900Q339 900 376 878T436 819T458 736Q458 690 436 653T377 593T294 570Z" />
<glyph unicode="&#x2039;" horiz-adv-x="521" d="M344 147L69 502L346 873H424L200 502L420 147H344Z" />
<glyph unicode="&#x203a;" horiz-adv-x="519" d="M101 147L321 502L98 873H174L450 502L175 147H101Z" />
</font>
</defs>
</svg>
