<?xml version="1.0" standalone="no"?>
<!DOCTYPE svg PUBLIC "-//W3C//DTD SVG 1.1//EN" "http://www.w3.org/Graphics/SVG/1.1/DTD/svg11.dtd">
<svg xmlns="http://www.w3.org/2000/svg">
<defs >
<font id="SourGummy" horiz-adv-x="495" ><font-face
    font-family="Sour Gummy Black Light"
    units-per-em="1000"
    panose-1="0 0 0 0 0 0 0 0 0 0"
    ascent="996"
    descent="-296"
    alphabetic="0" />
<glyph unicode=" " horiz-adv-x="260" />
<glyph unicode="!" horiz-adv-x="193" d="M94 191Q81 192 74 198T63 211T59 217Q58 276 57 342T55 478T58 620Q58 620 59 625T64 636T76 647T100 652Q114 651 122 646T135 635T142 621T144 610T144 605Q141 553 139 507T134 416T130 321T125 214Q125 214 123 208T115
196T94 191ZM94 -2Q81 -2 70 3T52 19T45 41Q45 53 51 62T69 78T94 84Q108 84 119 78T138 63T145 41Q145 27 138 17T120 3T94 -2Z" />
<glyph unicode="&quot;" horiz-adv-x="307" d="M224 500Q214 502 209 507T202 518T200 524Q201 539 200 553T199 581T197 612Q197 612 198 617T205 629T225 635Q237 635 244 631T255 620T260 610T261 605Q263 575 260 553T252 513Q252 513 249 509T241 501T224
500ZM73 500Q62 502 57 507T51 518T49 524Q50 539 49 553T47 581T46 612Q46 612 47 617T54 629T73 635Q86 635 93 631T104 620T109 610T110 605Q112 575 109 553T101 513Q101 513 98 509T90 501T73 500Z" />
<glyph unicode="#" horiz-adv-x="634" d="M470 0Q457 0 449 5T436 17T430 30T428 35Q423 78 421 135T418 256T418 384T423 509T430 617Q430 617 431 622T435 633T446 644T468 648Q481 648 489 644T501 632T508 618T510 607T510 602Q506 562 504 507T501 390T500
264T503 140T508 32Q508 32 507 27T503 16T491 5T470 0ZM173 0Q160 0 152 5T139 17T133 30T131 35Q127 78 125 135T122 256T122 384T126 509T133 617Q133 617 134 622T138 633T150 644T171 648Q185 648 193 644T205 632T211 618T213 607T213 602Q209 562 207 507T205
390T204 264T206 140T211 32Q211 32 211 27T207 16T195 5T173 0ZM90 124Q90 124 84 125T69 130T53 141T46 160Q46 172 51 178T63 188T76 191T82 192Q187 200 303 204T544 210Q544 210 548 210T559 207T572 200T583 189T588 173Q588 161 584 154T573 144T562 140T557
139L90 124ZM90 397Q90 397 84 398T69 402T54 412T46 431Q46 444 51 450T63 459T76 463T82 463Q187 471 303 475T544 483Q544 483 548 482T559 479T572 472T583 462T588 446Q588 433 583 426T572 416T562 412T557 411L90 397Z" />
<glyph unicode="$" horiz-adv-x="487" d="M284 3Q235 -1 196 4T128 19T84 36T69 44Q69 44 66 46T58 52T50 61T47 74T50 89Q55 98 61 102T75 106T86 105T90 103Q131 87 174 80T255 75T320 93T354 139Q361 167 349 189T312 229T258 261T198 288Q179 297 158 311T117
344T85 388T69 440T75 500T114 565Q142 599 174 617T238 643T298 650T349 645T385 637T398 633Q398 633 402 631T414 625T427 615T436 602T438 585Q435 574 428 569T413 564T399 563T393 564Q339 580 293 571T214 539T164 484T156 422Q163 398 185 381T239 348T305
318T367 284T413 237Q435 202 439 169T435 108T404 57T352 20T284 3ZM280 -94Q269 -94 262 -88T253 -76T250 -70Q248 -59 245 -45T240 -14T237 17L316 28Q317 11 317 -7T315 -42T310 -73Q310 -73 308 -78T299 -88T280 -94ZM240 616Q239 634 239 652T241 686T246
717Q246 717 248 722T256 732T276 738Q287 738 293 732T303 720T306 713Q309 703 311 689T316 658T318 626L240 616Z" />
<glyph unicode="%" horiz-adv-x="870" d="M300 7Q288 11 283 17T277 30T275 42T276 47Q301 121 339 216T426 420T527 641Q527 641 529 644T537 652T551 658T570 655Q583 650 588 643T593 629T592 616T590 611Q539 495 493 387T410 186T344 20Q344 20 340 15T326
6T300 7ZM168 345Q110 345 78 384T45 489Q45 522 58 552T94 606T144 644T201 658Q240 658 269 639T314 585T330 506Q330 474 316 445T279 394T226 358T168 345ZM173 403Q193 402 213 415T248 452T264 502Q267 544 250 572T201 602Q181 603 161 589T128 550T113
498Q110 457 126 431T173 403ZM663 2Q605 2 573 41T540 145Q540 177 553 207T588 262T638 300T695 314Q734 314 763 295T809 241T825 163Q825 130 811 101T774 50T722 15T663 2ZM667 59Q688 58 708 71T743 107T759 158Q761 200 744 228T696 258Q675 259 656 245T623
206T608 154Q605 112 620 86T667 59Z" />
<glyph unicode="&amp;" horiz-adv-x="560" d="M115 25Q83 48 66 77T47 139T58 208Q73 245 94 274T142 324T198 355Q144 380 116 418T88 505Q94 541 109 565T148 605T199 630T259 646L391 650Q391 650 396 650T408 648T424 642T437 632T442 614Q442 605 436 599T423
590T409 586T403 585Q351 584 312 581T244 568T192 537Q176 518 170 499T169 463T190 428Q206 415 230 401T293 370Q293 370 296 367T303 359T305 346Q305 339 301 335T293 330T289 328Q254 316 224 298T172 254T135 196Q119 152 126 124T164 81T244 66Q299 78
333 98T387 146T415 204Q421 217 423 228T427 249T430 269Q430 269 430 274T434 284T446 294T471 299Q487 298 495 292T508 277T513 263T514 257Q514 216 504 183T476 125T435 78T387 38Q317 -2 248 -5T115 25ZM275 -94Q264 -94 257 -88T248 -76T245 -70Q243 -59
240 -45T236 -14T233 17L311 28Q313 11 313 -7T310 -42T305 -73Q305 -73 303 -78T295 -88T275 -94ZM234 616Q233 634 234 652T237 686T241 717Q241 717 243 722T252 732T270 738Q283 738 289 732T298 720T301 713Q304 703 306 689T311 658T314 626L234 616Z" />
<glyph unicode="&apos;" horiz-adv-x="156" d="M73 500Q62 502 57 507T51 518T49 524Q50 539 49 553T47 581T46 612Q46 612 47 617T54 629T73 635Q86 635 93 631T104 620T109 610T110 605Q112 575 109 553T101 513Q101 513 98 509T90 501T73 500Z" />
<glyph unicode="(" horiz-adv-x="281" d="M172 -26Q161 -29 152 -27T136 -21T126 -12T122 -8Q77 66 59 159T49 367Q57 419 69 469T104 569T167 670Q167 670 174 676T191 686T215 686Q225 682 229 677T235 665T235 655T233 647T231 643Q204 602 187 564T158 489T140
417T128 346Q124 307 127 259T140 163T163 76T192 15Q192 15 193 10T195 -2T190 -15T172 -26Z" />
<glyph unicode=")" horiz-adv-x="281" d="M109 -26Q96 -22 92 -16T87 -2T87 10T89 15Q104 37 117 76T141 163T154 259T153 346Q149 381 142 417T124 489T95 563T50 643Q50 643 49 646T46 655T46 665T51 676T66 686Q79 691 89 687T107 676T114 670Q153 620 176
570T212 469T232 367Q241 252 223 159T159 -8Q159 -8 156 -12T145 -20T129 -27T109 -26Z" />
<glyph unicode="*" horiz-adv-x="421" d="M87 432Q79 435 77 440T74 449T75 453Q83 480 99 513T136 578T175 629T208 650Q215 650 223 648T239 642T253 629Q280 585 303 548T340 484Q340 484 341 481T342 472T339 461T326 452Q316 449 308 451T295 456T287 464T284
468L214 588Q186 549 161 511T114 436Q114 436 111 434T101 430T87 432ZM356 532Q280 540 209 542T72 537Q72 537 66 538T54 543T46 555Q45 565 51 570T63 576T70 578Q117 586 162 588T254 588T351 579Q351 579 354 578T363 573T371 564T375 552Q375 544 370 540T361
534T356 532Z" />
<glyph unicode="+" horiz-adv-x="473" d="M238 62Q223 63 215 68T202 81T196 95T195 101Q194 166 194 226T195 342T198 448T204 544Q204 544 205 549T209 561T219 572T241 577Q254 577 262 573T275 562T281 549T283 537T284 532Q281 472 279 404T277 259T275 98Q275
98 275 93T272 80T261 67T238 62ZM46 308Q45 322 50 330T64 342T78 347T84 349Q115 354 144 357T202 362T262 363T325 359T396 351Q396 351 401 350T412 344T424 331T427 310Q426 298 421 291T409 280T395 277T384 276T379 276Q339 281 303 283T231 286T159 284T86
277Q86 277 81 277T67 279T54 288T46 308Z" />
<glyph unicode="," horiz-adv-x="196" d="M67 -95Q56 -90 53 -83T49 -70T49 -64L68 -2Q52 18 50 39T58 76T86 96Q103 97 115 93T134 82T146 65T151 45Q151 17 145 -7T130 -51T107 -86Q107 -86 102 -90T88 -97T67 -95Z" />
<glyph unicode="-" horiz-adv-x="478" d="M89 281Q88 281 83 281T70 282T56 289T47 304Q44 315 46 321T53 332T62 338T66 340Q102 346 132 350T191 356T250 359T316 357T394 350Q394 350 400 348T414 342T427 330T432 312Q432 300 426 294T413 285T401 282T395
281Q353 284 322 285T264 288T213 288T158 286T89 281Z" />
<glyph unicode="." horiz-adv-x="190" d="M94 -2Q81 -2 70 3T52 19T45 41Q45 53 51 62T69 78T94 84Q108 84 119 78T138 63T145 41Q145 20 130 9T94 -2Z" />
<glyph unicode="/" horiz-adv-x="410" d="M72 7Q60 11 55 17T48 30T46 42T46 47Q72 121 110 216T197 420T298 641Q298 641 300 644T308 652T321 658T342 655Q354 650 358 643T363 629T363 616T361 611Q311 495 265 387T180 186T116 20Q116 20 112 15T97 6T72 7Z" />
<glyph unicode="0" horiz-adv-x="612" d="M260 -4Q195 -4 145 36T69 147T46 309Q48 377 67 440T120 554T196 634T291 664Q330 664 370 653T447 617T512 552T554 453T566 316Q564 252 545 201T493 111T422 47T342 9T260 -4ZM88 171L75 229Q169 297 281 344T519
423L539 352Q419 336 307 290T88 171ZM274 77Q311 77 348 92T417 139T470 219T494 332Q496 403 481 451T438 528T375 569T302 582Q265 582 233 561T176 503T136 416T119 312Q116 238 134 185T189 105T274 77Z" />
<glyph unicode="1" horiz-adv-x="372" d="M287 3Q273 3 265 8T252 21T246 34T244 40Q239 89 236 153T233 287T235 423T242 544L104 416Q104 416 100 414T90 411T75 411T58 420Q49 428 47 435T46 447T49 456T52 460L194 585Q222 611 249 628T295 641Q307 639 313
633T322 620T326 608T327 602Q323 562 321 508T318 392T318 266T320 143T324 36Q324 36 324 31T320 19T309 8T287 3Z" />
<glyph unicode="2" horiz-adv-x="483" d="M134 3Q123 3 113 7T96 19T89 37T97 60Q171 174 219 263T289 415T303 508Q291 547 268 566T214 588Q179 586 152 572T101 537Q101 537 98 535T88 531T74 530T57 538Q51 544 49 549T46 559T48 568T53 575Q75 600 99 616T153
640T215 650Q263 648 298 628T356 574T385 500T383 419Q372 374 353 328T309 235T256 147T197 65H404Q404 65 409 64T420 60T432 51T438 36Q438 26 435 21T427 13T420 9T416 8L134 3Z" />
<glyph unicode="3" horiz-adv-x="457" d="M243 7Q217 9 191 16T142 35T97 62T59 98Q59 98 56 101T49 111T45 126T54 142Q61 150 70 150T87 148T100 142T106 138Q118 128 137 114T182 89T236 73Q263 77 282 88T312 115T328 155T330 206Q313 261 276 288T186 321Q176
323 170 329T162 343T165 358T186 368Q193 370 211 373T253 387T297 419Q319 444 326 471T324 525T289 574Q271 586 243 588T182 586T114 573Q114 573 110 573T99 574T85 579T75 590Q71 599 72 605T76 615T83 621T87 623Q120 636 150 643T210 650Q229 651 249 649T290
640T330 622Q362 600 379 570T401 507T397 443T368 389Q360 379 349 370T325 353T301 339Q328 326 350 307T388 260T410 194Q416 146 404 111T366 53T309 18T243 7Z" />
<glyph unicode="4" horiz-adv-x="484" d="M402 3Q389 3 381 8T367 19T361 31T359 36Q354 79 352 130T348 236T347 345T348 450T351 542L146 324Q138 310 134 298T133 278T148 267L366 276L368 215Q331 211 294 209T217 206T134 207Q100 211 80 224T51 257T47 299T66
342Q115 397 158 443T236 521Q273 559 307 591T371 646Q383 652 395 650T416 642T430 627T435 610Q431 569 430 514T428 397T429 269T433 145T438 36Q438 36 438 31T434 19T424 8T402 3Z" />
<glyph unicode="5" horiz-adv-x="460" d="M225 11Q193 11 163 19T107 43T59 82Q59 82 57 85T52 94T51 107T61 123Q70 131 80 131T96 128T103 125Q125 106 152 93T211 76Q259 84 286 104T325 154T336 218Q331 241 321 261T297 296T263 317T218 321L115 290Q106
287 97 287T78 293T63 307T57 330Q54 389 51 446T47 548T46 612Q48 617 50 623T58 633T72 641T96 643L355 640Q355 640 359 640T370 637T382 631T391 620T395 603Q395 592 390 587T377 580T364 578T359 578L117 584Q120 547 123 489T131 367Q167 378 197 382T254
383T304 369Q345 351 370 322T405 259T415 191T402 131Q383 91 356 65T296 26T225 11Z" />
<glyph unicode="6" horiz-adv-x="565" d="M278 7Q169 35 112 104T46 280Q45 358 61 420T106 528T171 602T243 640Q311 657 376 647T500 597Q500 597 503 594T509 586T514 573T510 556Q505 549 500 548T488 546T477 548T473 550Q422 573 373 579T274 573Q228 553
200 517T156 434Q150 416 145 396T137 354T133 312Q203 335 266 338T389 324Q448 305 479 272T516 200T509 125Q490 80 457 53T378 14T278 7ZM300 76Q348 77 378 98T424 152Q450 233 348 263Q302 275 249 266T136 235Q145 190 168 156T226 100T300 76Z" />
<glyph unicode="7" horiz-adv-x="442" d="M358 3Q345 3 337 8T324 19T318 31T316 36Q311 88 309 158T306 305T307 454T314 585Q277 589 240 589T166 584T90 574Q90 574 85 573T71 573T57 578T47 592Q45 602 48 608T56 617T66 622T71 624Q116 639 163 645T258 652T355
645Q371 644 379 637T391 622T395 607T396 600Q392 560 391 506T389 390T389 266T391 144T396 36Q396 36 395 31T391 19T379 8T358 3Z" />
<glyph unicode="8" horiz-adv-x="541" d="M267 294Q221 294 181 304T110 336T62 386T45 453Q45 490 57 526T96 591T166 638T269 653Q315 652 356 638T429 599T478 542T496 473Q496 437 477 404T426 347T352 309T267 294ZM267 -2Q221 -2 181 9T110 41T62 91T45
158Q45 195 57 231T96 296T166 342T269 357Q315 356 356 342T429 304T478 247T496 178Q496 141 477 109T426 52T352 13T267 -2ZM259 65Q286 65 313 75T363 101T399 138T413 182Q413 205 400 224T365 257T316 278T259 285Q210 283 180 265T136 220T123 163Q123 132
141 111T190 77T259 65ZM259 360Q286 360 313 370T363 396T399 434T413 478Q413 500 400 519T365 552T316 573T259 580Q210 578 180 561T136 516T123 458Q123 428 141 406T190 372T259 360Z" />
<glyph unicode="9" horiz-adv-x="564" d="M323 16Q253 -2 189 9T66 59Q66 59 63 62T55 71T50 84T55 100Q59 107 65 109T77 110T87 108T91 106Q143 84 192 78T292 83Q338 103 365 139T409 222Q415 241 420 261T428 302T432 345Q363 321 300 318T176 332Q117 351
87 384T50 457T56 531Q76 576 109 603T188 642T288 649Q395 621 453 552T518 377Q520 299 503 237T458 128T394 54T323 16ZM216 392Q263 381 316 390T428 422Q421 466 398 501T340 557T266 581Q216 579 187 559T140 504Q114 423 216 392Z" />
<glyph unicode=":" horiz-adv-x="190" d="M94 353Q81 353 70 358T52 373T45 395Q45 407 51 417T69 432T94 438Q108 438 119 433T138 417T145 395Q145 381 138 372T120 358T94 353ZM94 152Q81 152 70 157T52 173T45 195Q45 207 51 216T69 232T94 238Q108 238 119
232T138 217T145 195Q145 181 138 171T120 157T94 152Z" />
<glyph unicode=";" horiz-adv-x="197" d="M68 45Q57 50 54 57T50 71T50 77L69 139Q53 158 52 179T59 217T87 236Q104 238 116 234T136 222T147 205T152 185Q152 157 146 133T131 89T109 55Q109 55 104 51T89 44T68 45ZM99 347Q85 347 74 352T56 367T49 389Q49
401 55 411T73 427T99 433Q113 433 124 427T141 411T148 389Q148 375 142 366T124 352T99 347Z" />
<glyph unicode="&lt;" horiz-adv-x="364" d="M239 7Q224 3 213 7T196 17T190 23Q155 83 122 141T56 261Q43 283 46 307T65 353L251 627Q251 627 257 633T274 642T300 639Q311 633 315 626T319 611T317 599T315 594L135 318Q117 291 130 268L259 46Q259 46 260
41T260 30T255 17T239 7Z" />
<glyph unicode="=" horiz-adv-x="476" d="M430 185Q430 174 424 168T411 158T399 155T394 154Q358 157 326 159T265 161T207 162T149 159T87 154Q87 154 82 154T70 156T57 163T47 178Q44 189 46 195T54 206T63 212T68 214Q116 223 167 228T276 233T395 224Q395
224 400 222T413 215T426 203T430 185ZM430 374Q430 362 424 356T411 347T399 344T394 343Q358 346 326 348T265 350T207 351T149 348T87 342Q87 342 82 342T70 344T57 351T47 366Q44 377 46 383T54 394T63 400T68 402Q116 412 167 417T276 422T395 413Q395 413
400 411T413 403T426 391T430 374Z" />
<glyph unicode="&gt;" horiz-adv-x="364" d="M126 7Q115 10 110 16T105 29T104 41T105 46L234 268Q248 291 229 318L50 594Q50 594 48 598T46 610T49 625T64 639Q79 646 90 643T107 633T113 627L299 353Q315 331 318 307T309 261Q277 200 244 142T175 23Q175 23
169 18T152 8T126 7Z" />
<glyph unicode="?" horiz-adv-x="529" d="M280 163Q267 163 259 169T247 184T242 198T241 205Q236 235 245 261T274 310T317 353Q344 379 364 404T394 456T398 517Q388 541 370 557T325 580T266 584Q221 584 186 570T131 520Q127 507 126 494T129 466T148 432Q148
432 151 427T154 415T147 399Q139 392 130 392T112 394T99 400T93 404Q55 439 48 480T72 576Q91 601 120 618T186 644T268 654Q315 654 356 641T427 601T475 531Q481 509 482 485T477 434T450 379T395 316Q359 288 335 260T308 197Q308 197 307 189T300 172T280
163ZM283 -2Q270 -2 259 3T240 19T233 41Q233 53 240 62T258 78T283 84Q296 84 307 78T326 63T333 41Q333 27 326 17T308 3T283 -2Z" />
<glyph unicode="@" horiz-adv-x="863" d="M333 -147Q273 -133 224 -102T136 -25T72 79Q40 176 47 269T99 455Q139 525 193 573T318 646T481 667Q519 666 558 657T636 629T708 582T767 512T806 417Q820 349 818 291T801 180T765 80Q745 51 721 38T671 27T618 49Q596
70 582 125T569 288Q541 241 513 199T455 126T391 75Q366 66 344 68T305 83T276 113Q253 148 252 199T267 313Q291 394 334 438T440 482Q499 480 543 451T618 359Q620 354 622 331T628 275T634 210T641 153T649 125Q663 98 680 101T714 135Q741 208 749 276T742
412Q721 479 683 522T594 586T481 609Q408 612 348 591T240 528T160 423Q132 368 121 311T114 199T136 93Q154 51 180 16T245 -46T334 -86Q364 -90 394 -87T455 -74T512 -43Q512 -43 519 -40T538 -37T562 -50Q570 -58 571 -65T571 -79T567 -88T564 -92Q532 -117
496 -131T419 -148T333 -147ZM350 131Q368 128 392 150T440 208Q466 244 491 284T541 369Q513 406 484 419T424 423Q391 415 367 376T325 269Q318 235 319 203T328 151T350 131Z" />
<glyph unicode="A" horiz-adv-x="530" d="M87 -1Q71 1 63 8T51 23T46 36T45 42Q50 132 68 226T114 417Q133 472 150 513T186 584T224 628T267 643Q284 646 301 636T334 603T366 548T392 474Q402 446 415 398T442 288T467 160T484 28Q484 28 484 24T481 13T470
3T449 -2Q435 -2 426 2T412 14T405 25T403 30Q387 129 372 216T337 372Q323 428 307 471T273 551Q256 527 241 498T214 437T193 372Q180 322 169 278T151 193T139 110T131 26Q131 26 130 22T124 11T111 1T87 -1ZM106 93L115 150Q162 161 209 166T306 173T409 169L417
101Q382 107 341 109T258 112T176 106T106 93Z" />
<glyph unicode="B" horiz-adv-x="562" d="M354 13Q301 6 250 2T156 -1T88 10T55 40Q51 83 49 139T46 258T46 385T50 508T57 616Q59 624 63 632T78 644T104 649L324 648Q368 642 404 625T467 582T506 521Q516 492 514 465T497 414T460 373T404 341Q437 326 461
302T499 249T517 186Q516 145 499 112T447 53T354 13ZM134 72Q187 71 235 73T321 83T385 109Q447 156 427 217Q417 248 395 266T345 293T287 305L128 303Q127 245 128 187T134 72ZM130 385Q184 381 237 383T343 396Q380 410 403 431T428 487Q424 523 396 547T312
582Q297 585 269 586T207 587T137 588L130 385Z" />
<glyph unicode="C" horiz-adv-x="631" d="M284 10Q222 21 178 49T106 116T63 199T46 286T50 366Q59 410 81 459T141 552T231 623T352 651Q417 650 466 626T544 564T582 483T578 401Q578 401 575 397T565 388T544 385Q531 388 524 394T515 407T513 413Q513 413
513 427T508 462T491 506T456 547T393 575Q351 584 312 569T238 521T178 448T139 363T130 280Q135 237 150 204T186 148T233 108T283 85T331 77Q364 77 395 91T451 126T486 170Q486 170 489 174T500 182T517 187T541 182Q552 177 557 171T565 158T566 146T564 137T563
134Q563 134 554 118T525 80T473 37T394 8T284 10Z" />
<glyph unicode="D" horiz-adv-x="627" d="M141 -2Q102 -1 80 10T48 39Q46 182 46 324T48 605Q48 633 91 642T208 651Q284 651 337 639T426 604T487 554T535 497Q591 385 579 288T500 105Q459 59 403 36T279 5T141 -2ZM135 77Q232 70 299 85T408 133T470 215T494
328Q489 410 462 462T387 543T277 578T136 578Q130 457 130 332T135 77Z" />
<glyph unicode="E" horiz-adv-x="557" d="M126 2Q106 3 93 7T72 18T60 33T55 48Q52 120 50 189T47 328T48 470T58 624Q61 638 75 647T116 655L454 652Q454 652 459 652T472 650T487 644T500 632T505 613Q506 600 500 593T487 584T473 581T467 580L137 593Q133
541 131 490T128 389T127 288T129 184T135 72Q174 76 210 80T278 88T340 97T400 106T459 118Q459 118 463 118T475 118T489 115T502 106T510 91Q514 78 512 70T504 57T494 51T490 49Q442 39 397 31T308 18T218 8T126 2ZM79 300L76 373L355 384Q355 384 360 384T374
381T390 375T403 363T409 344Q409 332 402 325T387 315T371 312T364 311L79 300Z" />
<glyph unicode="F" horiz-adv-x="551" d="M102 7Q86 6 77 12T63 25T57 39T55 45Q52 118 50 187T47 326T48 468T58 623Q60 633 67 641T85 653T111 657L459 652Q459 652 463 651T475 648T490 642T501 631T506 612Q506 600 501 593T488 584T475 581T469 580L137 593Q132
527 130 463T127 333T130 197T136 50Q136 50 136 44T134 29T124 14T102 7ZM79 300L76 373L355 384Q355 384 360 384T374 381T390 375T403 363T409 344Q409 332 402 325T387 315T371 312T364 311L79 300Z" />
<glyph unicode="G" horiz-adv-x="628" d="M244 12Q195 23 157 46T93 105T56 188T46 297Q54 358 74 413T131 516T229 605Q301 649 369 650T501 617Q533 595 551 569T577 515T582 457T572 397Q572 397 569 394T560 387T542 385Q530 388 524 395T516 409T514 416Q517
438 516 463T506 515Q496 537 476 552T430 573T373 576T314 556Q266 530 229 496T169 417T135 312Q126 235 147 184T215 103Q257 87 297 79T377 74T463 98Q487 114 493 132T482 174Q458 191 426 203T352 223Q352 223 350 225T345 232T340 242T339 256Q341 265 346
270T356 276T361 278Q390 277 417 271T469 254T514 232Q536 215 551 196T572 156T573 113T548 69Q524 46 490 30T416 6T332 -1T244 12Z" />
<glyph unicode="H" horiz-adv-x="574" d="M98 -1Q85 -1 77 4T64 16T57 29T55 34Q51 77 49 134T46 255T46 383T50 508T57 616Q57 616 58 621T62 632T74 642T95 647Q109 647 117 643T129 631T135 618T137 607T137 602Q133 561 131 506T129 389T128 262T130 139T135
31Q135 31 135 26T131 15T120 4T98 -1ZM79 230L95 304L467 331L468 254L79 230ZM490 -1Q477 -1 469 4T456 16T449 29T447 34Q442 77 440 134T438 255T438 383T442 508T449 616Q449 616 450 621T454 632T465 642T487 647Q501 647 509 643T521 631T527 618T529 607T529
602Q525 561 523 506T521 389T520 262T522 139T527 31Q527 31 526 26T522 15T511 4T490 -1Z" />
<glyph unicode="I" horiz-adv-x="182" d="M98 -1Q85 -1 77 4T64 16T57 29T55 34Q51 77 49 134T46 255T46 383T50 508T57 616Q57 616 58 621T62 632T74 642T95 647Q109 647 117 643T129 631T135 618T137 607T137 602Q133 561 131 506T129 389T128 262T130 139T135
31Q135 31 135 26T131 15T120 4T98 -1Z" />
<glyph unicode="J" horiz-adv-x="442" d="M222 4Q189 6 158 17T100 51T51 102Q51 102 49 106T46 116T47 129T57 143Q66 150 75 151T91 150T104 145T109 142Q122 128 134 116T158 95T182 82T210 77Q257 81 279 119T310 214Q313 252 311 311T303 445T295 602Q295
602 295 608T298 623T308 638T329 646Q344 646 353 640T366 625T373 610T375 603Q381 527 386 464T394 348T397 257T395 192Q385 130 361 89T302 28T222 4Z" />
<glyph unicode="K" horiz-adv-x="498" d="M392 -1Q380 -4 370 -1T353 7T343 16T339 21Q310 78 281 117T223 185T164 231T100 263L101 350Q172 369 221 402T303 475T354 553T378 620Q378 620 379 623T386 632T399 640T420 640Q434 638 441 632T450 618T452 606T453
600Q450 561 435 523T395 449T338 384T268 331T189 296Q238 272 281 232T360 142T419 37Q419 37 420 32T420 20T412 8T392 -1ZM98 -1Q85 -1 77 4T64 16T57 29T55 34Q51 77 49 134T46 255T46 383T50 508T57 616Q57 616 58 621T62 632T74 642T95 647Q109 647 117
643T129 631T135 618T137 607T137 602Q133 561 131 506T129 389T128 262T130 139T135 31Q135 31 135 26T131 15T120 4T98 -1Z" />
<glyph unicode="L" horiz-adv-x="558" d="M127 2Q109 2 96 5T74 15T62 30T55 46Q52 104 50 159T47 270T46 381T49 496T58 619Q58 619 58 624T62 637T74 649T98 652Q113 651 121 644T132 629T137 615T138 608Q128 478 128 343T135 72Q198 78 255 85T363 100T460
118Q460 118 464 118T475 119T489 116T503 108T511 93Q514 81 512 72T506 59T497 52T493 49Q445 40 399 32T308 18T218 8T127 2Z" />
<glyph unicode="M" horiz-adv-x="704" d="M98 -1Q85 0 77 5T65 17T58 28T56 33Q50 87 48 155T45 297T48 442T56 574Q56 574 57 578T61 588T72 599T91 604Q102 604 113 601T132 586Q162 540 188 500T237 425T282 358T325 298Q353 324 381 358T441 434T506 524T579
626Q579 626 582 631T595 642T620 647Q635 646 643 640T654 625T658 612T659 606Q655 565 654 510T652 393T651 266T653 142T658 32Q658 32 657 27T653 16T641 4T620 -1Q607 -1 599 4T586 16T580 27T578 32Q574 73 572 126T568 238T568 356T572 469Q525 402 480
342T390 242Q366 219 339 219T283 238Q259 271 234 304T183 373T131 449Q129 408 129 367T128 283T129 198T131 114T135 31Q135 31 135 26T131 15T119 4T98 -1Z" />
<glyph unicode="N" horiz-adv-x="574" d="M97 -1Q85 0 77 4T64 16T58 27T56 32Q50 86 48 151T45 286T48 423T55 549Q55 549 56 556T65 570T87 580Q96 581 103 579T117 574T124 568Q174 504 226 436T333 298T441 154Q439 205 438 265T438 387T442 508T449 618Q449
618 450 622T454 632T466 642T487 647Q501 647 508 642T520 631T527 618T529 606T529 601Q525 561 523 507T521 390T520 264T522 140T527 31Q527 31 527 27T523 16T513 5T494 -1Q482 -1 473 4T458 17T452 24Q452 24 438 40T401 86T349 152T288 230T227 309T172
383T131 441Q128 381 128 312T129 170T135 31Q135 31 134 26T130 15T118 4T97 -1Z" />
<glyph unicode="O" horiz-adv-x="757" d="M320 -7Q257 -7 206 16T117 80T61 178T46 303Q49 371 74 434T141 547T238 626T359 656Q409 656 461 645T559 609T641 544T696 446T711 310Q708 246 683 196T618 107T527 44T424 6T320 -7ZM337 73Q375 73 413 83T487 113T552
163T599 234T619 327Q623 396 603 444T547 520T466 562T374 575Q327 575 286 554T212 496T160 410T138 306Q135 233 159 181T229 101T337 73Z" />
<glyph unicode="P" horiz-adv-x="562" d="M98 -1Q84 0 76 5T63 17T56 29T54 34Q51 73 49 129T46 249T46 378T49 505T56 614Q56 614 57 619T61 630T73 642T95 649Q218 659 309 649T448 590Q496 543 510 489T506 382T439 288Q419 271 384 259T305 240T216 234T128
239L134 30Q134 30 133 25T128 14T117 4T98 -1ZM128 307Q210 300 267 306T359 331T411 378T429 442Q429 492 408 523T347 571T255 591T137 589Q130 517 128 446T128 307Z" />
<glyph unicode="Q" horiz-adv-x="757" d="M320 -7Q257 -7 206 16T117 80T61 178T46 303Q49 371 74 434T141 547T238 626T359 656Q409 656 461 645T559 609T641 544T696 446T711 310Q708 246 683 196T618 107T527 44T424 6T320 -7ZM461 -132Q448 -136 438 -133T420
-124T409 -113T405 -108Q384 -49 366 4T336 107T315 204Q315 204 315 209T315 222T320 235T334 243Q346 245 354 239T367 225T372 218Q387 177 405 129T443 26T483 -87Q483 -87 484 -92T486 -106T480 -121T461 -132ZM337 73Q375 73 413 83T487 113T552 163T599
234T619 327Q623 396 603 444T547 520T466 562T374 575Q327 575 286 554T212 496T160 410T138 306Q135 233 159 181T229 101T337 73Z" />
<glyph unicode="R" horiz-adv-x="547" d="M98 6Q83 6 75 12T62 27T56 41T54 47Q51 86 49 140T46 256T47 383T51 506T58 614Q58 614 58 619T62 630T74 642T96 649Q220 659 302 649T433 590Q482 543 495 489T491 382T424 288Q404 271 371 256T298 231T215 217T129
220L134 39Q134 39 134 34T130 22T119 11T98 6ZM405 43Q362 71 315 97T214 151T100 209Q100 215 107 220T124 230T146 237T164 242T171 244Q200 232 226 221T279 197T332 170T389 137T454 96Q454 96 456 94T461 87T465 76T465 63T457 48Q452 40 443 38T426 37T411
41T405 43ZM129 298Q207 293 259 306T343 342T389 394T407 447Q407 494 385 522T324 566T237 585T137 589Q131 517 129 442T129 298Z" />
<glyph unicode="S" horiz-adv-x="487" d="M284 5Q235 1 196 6T128 21T84 38T69 46Q69 46 66 48T58 54T50 64T47 77T50 92Q55 101 61 104T75 108T86 107T90 106Q131 89 174 82T255 77T320 95T354 141Q361 169 349 191T312 231T258 263T198 290Q179 299 158 313T117
346T85 390T69 442T75 502T114 567Q142 601 174 619T238 645T298 652T349 648T385 640T398 635Q398 635 402 633T414 627T427 618T436 604T438 587Q435 576 428 571T413 565T399 565T393 566Q339 581 293 573T214 541T164 486T156 424Q163 400 185 383T239 350T305
320T367 286T413 239Q435 204 439 171T435 110T404 59T352 22T284 5Z" />
<glyph unicode="T" horiz-adv-x="543" d="M280 -1Q266 -1 258 4T246 16T240 29T238 34Q232 88 230 159T227 309T230 463T238 598Q238 598 239 603T243 613T255 624T276 629Q292 629 301 623T313 609T317 595T318 589Q314 549 313 496T311 381T310 258T313 138T317
31Q317 31 317 26T313 15T301 4T280 -1ZM458 566Q417 572 373 574T282 577T189 577T98 572Q98 572 94 572T82 572T67 575T54 583T46 599Q45 609 48 615T58 626T70 632T81 634T86 635Q179 646 271 647T455 638Q455 638 459 637T470 632T483 624T494 612T498 595Q497
583 491 577T478 569T464 566T458 566Z" />
<glyph unicode="U" horiz-adv-x="604" d="M314 -3Q228 3 170 46T81 171T46 370V620Q46 620 47 624T51 634T61 644T82 649Q97 649 107 644T122 631T128 618T130 612L134 378Q132 288 150 222T208 118T311 73Q362 80 398 112T453 211T471 387L468 608Q468 608 468
613T471 623T481 634T503 639Q516 639 525 635T539 624T548 611T552 600T553 595L558 384Q561 306 550 238T512 116T437 31T314 -3Z" />
<glyph unicode="V" horiz-adv-x="573" d="M282 3Q248 4 219 33T166 118T121 249T81 417T45 616Q45 616 46 621T50 631T61 641T82 647Q95 647 103 643T117 632T124 621T126 616Q138 543 153 472T184 338T218 224T250 139T279 92Q298 102 318 138T358 228T395 346T425
478T443 610Q443 610 444 615T449 626T461 635T485 637Q501 635 510 629T522 615T527 602T528 596Q520 507 503 421T461 260T408 128T347 37T282 3Z" />
<glyph unicode="W" horiz-adv-x="971" d="M282 3Q248 4 219 33T166 118T121 249T81 417T45 616Q45 616 46 621T50 631T61 641T82 647Q95 647 103 643T117 632T124 621T126 616Q138 543 153 472T184 338T218 224T250 139T279 92Q298 102 318 138T358 230T395 350T425
485T443 619Q443 619 444 622T449 630T461 636T485 637Q501 635 510 629T522 615T527 602T528 596Q520 507 503 421T461 260T408 128T347 37T282 3ZM680 3Q646 4 617 33T564 118T519 249T479 417T443 616Q443 616 445 621T451 631T462 641T483 646Q493 645 500
641T513 629T522 617T525 612Q538 539 552 469T583 337T615 223T647 139T677 92Q696 102 716 138T756 228T793 346T822 478T840 610Q840 610 841 615T847 626T859 635T883 637Q899 635 908 629T920 615T925 602T926 596Q918 507 901 421T859 260T805 128T745 37T680
3Z" />
<glyph unicode="X" horiz-adv-x="604" d="M535 18Q524 12 513 13T494 18T481 27T476 32Q427 92 381 149T292 262T207 371T127 479T50 589Q50 589 48 594T46 606T49 620T64 633Q74 638 84 636T102 629T116 619T122 614Q166 554 214 491T315 359T424 219T542 70Q542
70 544 67T549 58T552 45T549 31T535 18ZM76 8Q67 14 63 20T57 33T58 45T61 54T63 58Q122 129 176 198T282 338T384 482T485 633Q485 633 488 636T497 642T511 645T531 641Q544 636 550 629T557 614T558 603T557 598Q505 512 454 434T350 284T245 143T134 10Q134
10 130 7T118 2T100 0T76 8Z" />
<glyph unicode="Y" horiz-adv-x="534" d="M259 253Q170 265 119 311T52 434T56 611Q56 611 58 617T64 631T77 644T100 646Q116 643 123 636T133 619T136 604T137 597Q119 472 146 403T253 326Q296 333 327 359T377 424T401 508T398 595Q398 595 397 600T397 612T405
626T426 635Q441 637 451 633T467 622T476 610T479 604Q492 548 487 490T455 381T380 296T259 253ZM263 8Q250 8 242 13T229 25T222 37T220 42Q210 101 211 163T221 288L301 290Q291 214 292 152T299 40Q299 40 299 35T295 24T285 13T263 8Z" />
<glyph unicode="Z" horiz-adv-x="543" d="M121 0Q111 -1 101 1T83 8T71 21T66 39T74 61Q110 113 146 167T221 281T300 407T388 551Q330 579 257 577T101 555Q101 555 95 555T81 554T64 558T52 571Q47 581 47 589T49 601T57 609T64 614T67 615Q153 643 242 646T420
627Q438 619 451 608T472 581T480 548T471 509Q447 467 422 426T370 343T315 258T254 170T187 74L451 87Q451 87 457 87T472 83T488 74T496 56Q498 44 494 37T484 26T474 21T469 20L121 0Z" />
<glyph unicode="[" horiz-adv-x="327" d="M158 8Q135 9 116 16T82 37T59 69T50 111Q47 170 47 239T46 379T49 514T54 628Q55 635 58 642T71 654T94 657Q134 658 172 658T244 655Q244 655 249 654T260 649T272 638T277 621Q276 610 271 604T260 596T250 593T245
592H129L125 117Q130 94 141 84T176 71L247 69Q247 69 252 68T265 63T277 53T282 35Q281 24 276 19T264 10T252 7T246 6L158 8Z" />
<glyph unicode="\" horiz-adv-x="410" d="M339 7Q323 2 314 5T300 14T295 20Q268 93 230 186T146 387T49 611Q49 611 48 616T46 628T51 643T69 655Q81 659 88 658T101 653T109 645T112 641Q165 529 213 420T300 216T363 47Q363 47 363 42T363 31T356 18T339 7Z" />
<glyph unicode="]" horiz-adv-x="327" d="M81 6Q81 6 76 6T64 10T52 18T45 35Q45 46 50 52T62 63T74 68T80 69L151 71Q174 73 185 83T202 117L198 592H82Q82 592 78 592T67 595T56 604T50 621Q50 631 55 638T66 648T78 653T83 655Q118 657 155 657T233 657Q248
659 256 654T269 642T273 628Q276 579 278 515T280 379T281 239T277 111Q276 88 268 70T246 38T212 17T169 8L81 6Z" />
<glyph unicode="^" horiz-adv-x="371" d="M58 517Q51 522 48 528T46 539T48 547T50 551Q63 569 77 584T110 615T148 647Q157 655 168 658T192 659T217 648L315 580Q315 580 318 577T323 568T326 555T318 540Q312 534 305 533T292 532T281 536T276 538L190 603Q171
595 148 573T93 517Q93 517 88 515T75 512T58 517Z" />
<glyph unicode="_" horiz-adv-x="551" d="M47 59Q44 69 46 76T53 87T63 92T68 94Q126 104 191 109T325 113T468 104Q468 104 473 102T487 95T500 83T505 64Q504 52 499 46T486 37T474 34T468 34Q417 38 369 40T275 42T183 40T88 34Q88 34 83 34T71 35T57 43T47 59Z" />
<glyph unicode="`" horiz-adv-x="323" d="M237 505Q215 514 192 524T146 545T101 569T58 595Q58 595 55 597T50 604T46 615T50 629Q54 636 60 638T72 641T82 639T86 638Q125 619 167 601T258 559Q258 559 262 556T270 548T277 535T274 517Q271 510 265 508T252
505T242 504T237 505Z" />
<glyph unicode="a" horiz-adv-x="608" d="M272 3Q221 3 180 21T108 72T62 149T45 243Q46 295 65 341T117 423T194 479T289 500Q359 500 411 474T492 392T521 250Q521 200 503 156T451 77T372 23T272 3ZM275 77Q308 77 339 91T394 131T432 189T447 258Q447 320
427 359T372 418T292 437Q259 437 229 420T177 375T142 311T129 240Q129 193 147 156T198 98T275 77ZM528 1Q514 1 505 6T492 17T488 23Q481 96 478 169T476 319T486 477Q486 477 489 482T500 493T525 498Q540 497 547 491T558 476T562 461T563 454Q559 403 557
354T554 254T557 149T562 33Q562 33 561 28T557 17T547 6T528 1Z" />
<glyph unicode="b" horiz-adv-x="611" d="M315 3Q259 3 217 22T147 74T105 151T91 245Q91 298 109 345T159 426T235 480T332 500Q383 500 425 484T499 437T548 359T566 248Q566 198 546 154T491 76T411 23T315 3ZM97 1Q84 1 76 6T63 18T57 30T55 35Q51 79 49 136T46
257T46 387T50 512T57 621Q57 621 58 625T63 636T75 646T97 649Q111 649 119 643T131 628T136 615T138 609Q134 569 132 513T128 392T126 261T127 133T131 23Q131 23 129 18T120 7T97 1ZM310 77Q345 77 376 92T431 133T470 192T484 262Q484 323 464 361T408 418T330
436Q297 436 267 420T215 375T179 311T165 239Q165 193 182 156T233 98T310 77Z" />
<glyph unicode="c" horiz-adv-x="553" d="M281 -9Q199 -4 149 26T75 108T46 225Q42 277 57 325T105 412T185 473T292 495Q342 495 376 483T432 452T467 416T485 386T490 374Q490 374 490 369T488 357T475 344Q465 338 453 338T432 341T420 347Q420 347 415 357T397
379T363 401T309 412Q275 412 243 403T186 372T146 317T135 234Q138 177 157 144T209 96T286 75Q319 72 348 79T398 97T432 116T446 126Q455 128 464 128T482 125T500 111Q507 102 507 94T507 81T505 75Q505 75 493 61T455 30T386 1T281 -9Z" />
<glyph unicode="d" horiz-adv-x="608" d="M272 3Q221 3 180 21T108 72T62 149T45 243Q46 295 65 341T117 423T194 479T289 500Q359 500 411 474T492 392T521 250Q521 200 503 156T451 77T372 23T272 3ZM275 77Q308 77 339 91T394 131T432 189T447 258Q447 320
427 359T372 418T292 437Q259 437 229 420T177 375T142 311T129 240Q129 193 147 156T198 98T275 77ZM526 1Q512 1 504 6T490 17T483 29T481 34Q477 77 475 134T471 256T471 386T476 511T483 621Q483 621 484 625T489 636T501 646T523 649Q537 649 545 643T557
629T562 616T563 610Q560 570 558 515T555 396T554 268T556 142T561 32Q561 32 560 28T556 17T546 6T526 1Z" />
<glyph unicode="e" horiz-adv-x="543" d="M251 -10Q185 1 145 27T83 89T54 166T46 248Q46 291 63 336T114 419T194 479T299 497Q358 493 394 474T450 429T477 372T485 316Q484 266 459 234T380 190Q364 187 339 186T286 184T229 185T177 187T139 188T125 189Q127
157 143 127T190 78T267 55Q304 54 337 56T397 62T439 70T454 74Q454 74 458 74T470 75T483 70T494 56Q498 47 497 41T492 30T486 23T482 21Q482 21 461 14T406 -1T330 -13T251 -10ZM123 240L337 243Q337 243 345 244T364 249T387 261T407 285T415 323Q415 362
402 387T358 424T272 433Q233 430 204 409T156 357T129 295T123 240Z" />
<glyph unicode="f" horiz-adv-x="532" d="M180 -3Q164 -3 155 2T141 15T135 28T133 34Q130 94 129 149T126 257T126 361T130 461Q136 507 152 541T194 599T252 634T325 649Q362 648 391 637T445 608T485 567Q485 567 486 563T487 554T483 542T469 530Q460 526
452 528T437 534T430 538Q408 559 383 570T329 579Q282 572 252 537T218 442Q213 363 212 295T212 161T217 27Q217 27 217 22T212 12T201 2T180 -3ZM463 397Q463 387 458 381T448 373T438 370T433 369Q344 371 255 370T80 369Q80 369 72 370T56 377T46 391Q45 400
48 406T56 415T65 420T69 421Q113 426 156 430T243 435T332 437T426 435Q426 435 431 434T445 428T458 416T463 397Z" />
<glyph unicode="g" horiz-adv-x="677" d="M419 -210Q349 -214 287 -202T170 -164Q170 -164 166 -162T156 -154T147 -140T148 -122Q151 -112 158 -108T173 -103T185 -103T191 -104Q225 -117 258 -125T326 -137T396 -138Q443 -136 474 -121T522 -76T542 -2Q546 66
547 127T545 246T535 356T520 461Q520 461 521 467T530 481T553 488Q570 489 580 483T594 470T599 463Q617 389 624 309T632 144T627 -29Q614 -117 562 -161T419 -210ZM297 3Q241 3 195 21T116 72T64 149T45 243Q46 295 67 341T125 423T211 479T317 500Q395 500
453 474T543 392T576 250Q576 200 555 156T497 77T409 23T297 3ZM300 77Q338 77 373 91T436 131T480 189T496 258Q496 320 473 359T411 418T320 437Q281 437 248 420T189 375T149 311T134 240Q134 193 154 156T212 98T300 77Z" />
<glyph unicode="h" horiz-adv-x="580" d="M469 12Q455 15 448 22T438 37T435 50T435 56Q442 103 446 143T450 220T442 287Q423 353 395 382T332 414Q297 407 268 386T217 334T178 272T148 210T127 160Q119 142 114 136T107 132T105 139T104 147T105 148T102 130L81
232L109 294Q131 340 158 375T215 435T275 472T333 486Q383 481 421 455T485 387T525 291Q537 228 534 165T517 33Q517 33 515 29T508 20T493 12T469 12ZM100 1Q87 1 78 6T65 17T58 29T55 34Q51 77 49 134T46 256T46 386T50 511T57 621Q57 621 58 625T63 636T75
646T97 649Q111 649 119 643T131 629T136 616T137 610Q134 570 132 515T130 396T129 268T130 142T135 32Q135 32 134 28T130 17T120 6T100 1Z" />
<glyph unicode="i" horiz-adv-x="191" d="M98 1Q86 2 78 6T65 17T58 27T56 32Q50 86 48 138T45 244T48 352T56 469Q56 469 57 473T61 483T73 494T95 498Q109 498 117 492T129 478T134 465T136 459Q132 408 130 358T128 256T130 148T135 33Q135 33 135 28T131 17T119
6T98 1ZM99 552Q75 552 64 566T52 600Q52 624 63 636T99 649Q123 649 134 635T146 600Q146 587 142 576T128 559T99 552Z" />
<glyph unicode="j" horiz-adv-x="191" d="M98 -172Q86 -172 78 -168T65 -157T58 -146T56 -142Q52 -98 49 -39T46 89T46 225T49 357T56 469Q56 469 57 473T61 483T73 494T95 498Q109 498 117 492T129 478T134 465T136 459Q132 419 131 361T129 237T129 102T131
-30T135 -141Q135 -141 135 -146T131 -157T119 -168T98 -172ZM99 552Q75 552 64 566T52 600Q52 624 63 636T99 649Q123 649 134 635T146 600Q146 587 142 576T128 559T99 552Z" />
<glyph unicode="k" horiz-adv-x="481" d="M415 24Q404 19 394 21T376 28T364 37T360 41Q333 74 308 100T259 146T212 183T164 213T115 237L107 323Q164 327 211 342T298 382T365 443Q365 443 369 446T379 453T395 458T415 453Q426 447 430 439T434 422T431 407T429
401Q412 369 385 344T324 300T250 269T169 250L165 279Q209 266 247 244T319 193T381 132T434 65Q434 65 435 61T437 49T432 35T415 24ZM100 1Q87 1 78 6T65 17T58 29T55 34Q51 77 49 134T46 256T46 386T50 511T57 621Q57 621 58 625T63 636T75 646T97 649Q111
649 119 643T131 629T136 616T137 610Q134 570 132 515T130 396T129 268T130 142T135 32Q135 32 134 28T130 17T120 6T100 1Z" />
<glyph unicode="l" horiz-adv-x="182" d="M100 1Q87 1 79 6T65 17T58 29T55 34Q51 77 49 134T46 256T46 386T50 511T57 621Q57 621 58 625T63 636T75 646T97 649Q111 649 119 643T130 629T135 616T137 610Q134 570 132 515T130 396T129 268T130 142T135 32Q135
32 134 28T130 17T120 6T100 1Z" />
<glyph unicode="m" horiz-adv-x="905" d="M439 21Q425 25 418 32T408 47T405 61T404 67Q415 158 413 231T386 345Q365 386 338 404T281 423T220 406Q184 383 163 350T132 280T121 204Q123 170 123 141T124 89T127 52Q127 52 127 49T125 41T118 32T102 27Q92 26
85 30T73 40T68 45Q57 65 57 82T57 121T54 173Q53 208 53 240T58 301T72 356T97 404Q116 429 144 449T205 481T274 494T346 483Q372 471 394 453T435 411T467 355T489 284Q499 229 498 172T486 49Q486 49 485 44T479 32T465 22T439 21ZM98 1Q86 2 78 6T65 17T58
27T56 32Q50 86 48 138T45 244T48 352T56 469Q56 469 57 473T61 483T73 494T95 498Q109 498 117 492T129 478T134 465T136 459Q132 408 130 358T128 256T130 148T135 33Q135 33 135 28T131 17T119 6T98 1ZM801 21Q788 25 781 32T770 47T767 61T766 67Q777 158 775
231T749 345Q727 386 700 404T643 423T583 406Q546 383 525 350T494 280T484 204Q485 170 485 147T483 106T479 71Q479 71 479 67T478 56T472 44T459 38Q447 37 441 41T431 49T428 54Q425 68 424 86T422 126T423 173Q421 209 421 241T423 301T434 356T459 404Q479
429 506 449T567 481T636 494T709 483Q735 471 757 453T797 411T829 355T851 284Q862 229 861 172T849 49Q849 49 848 44T841 32T827 22T801 21Z" />
<glyph unicode="n" horiz-adv-x="543" d="M439 21Q425 25 418 32T408 47T405 61T404 67Q415 158 413 231T386 345Q365 386 338 404T281 423T220 406Q184 383 163 350T132 280T121 204Q123 170 123 141T124 89T127 52Q127 52 127 49T125 41T118 32T102 27Q92 26
85 30T73 40T68 45Q57 65 57 82T57 121T54 173Q53 208 53 240T58 301T72 356T97 404Q116 429 144 449T205 481T274 494T346 483Q372 471 394 453T435 411T467 355T489 284Q499 229 498 172T486 49Q486 49 485 44T479 32T465 22T439 21ZM98 1Q86 2 78 6T65 17T58
27T56 32Q50 86 48 138T45 244T48 352T56 469Q56 469 57 473T61 483T73 494T95 498Q109 498 117 492T129 478T134 465T136 459Q132 408 130 358T128 256T130 148T135 33Q135 33 135 28T131 17T119 6T98 1Z" />
<glyph unicode="o" horiz-adv-x="573" d="M273 3Q222 3 180 21T108 73T62 149T45 243Q45 293 64 339T116 422T193 479T289 500Q340 500 383 485T460 440T510 362T528 250Q528 200 508 156T452 77T371 23T273 3ZM273 77Q308 77 339 91T394 131T432 188T446 257Q446
318 426 357T371 415T291 434Q257 434 228 418T176 373T140 310T127 239Q127 191 145 155T196 98T273 77Z" />
<glyph unicode="p" horiz-adv-x="611" d="M314 3Q258 3 216 22T146 74T104 151T90 245Q90 298 107 345T157 426T234 480T331 500Q381 500 424 484T498 437T547 359T565 248Q566 198 546 154T490 76T410 23T314 3ZM100 -213Q87 -213 79 -208T65 -196T58 -183T56
-178Q52 -135 49 -72T46 64T46 211T50 351T57 465Q57 465 58 469T63 480T75 490T96 494Q110 493 118 487T130 474T135 461T136 455Q133 414 131 353T129 221T129 75T131 -65T136 -181Q136 -181 135 -186T131 -197T120 -208T100 -213ZM309 77Q343 77 374 92T430
133T468 192T482 262Q482 323 462 361T407 418T330 436Q296 436 266 420T213 375T177 311T163 239Q163 193 181 156T232 98T309 77Z" />
<glyph unicode="q" horiz-adv-x="609" d="M272 3Q221 3 180 21T108 72T62 149T45 243Q46 295 65 341T117 423T194 479T289 500Q359 500 411 474T492 392T521 250Q521 200 503 156T451 77T372 23T272 3ZM275 77Q308 77 339 91T394 131T432 189T447 258Q447 320
427 359T372 418T292 437Q259 437 229 420T177 375T142 311T129 240Q129 193 147 156T198 98T275 77ZM527 -213Q513 -213 505 -208T491 -196T484 -184T482 -179Q478 -136 476 -73T473 64T473 211T477 351T485 465Q485 465 486 469T491 480T502 490T524 494Q538
493 546 487T558 474T563 461T564 455Q561 414 559 353T556 221T555 75T557 -65T562 -181Q562 -181 561 -186T557 -197T546 -208T527 -213Z" />
<glyph unicode="r" horiz-adv-x="465" d="M95 129Q85 128 79 133T70 145T65 158T63 164Q61 178 59 186T57 201T57 223T58 264Q62 323 81 367T134 442T215 487Q253 496 286 494T348 480T401 448Q401 448 404 445T412 435T418 422T419 407T408 392Q399 385 388 385T366
390T350 399T343 404Q319 422 289 422T229 409Q184 390 160 353T130 266Q127 239 126 225T124 201T123 183T125 156Q125 156 124 150T116 138T95 129ZM98 1Q86 2 78 6T65 17T58 27T56 32Q50 86 48 138T45 244T48 352T56 469Q56 469 57 473T61 483T73 494T95 498Q109
498 117 492T129 478T134 465T136 459Q132 408 130 358T128 256T130 148T135 33Q135 33 135 28T131 17T119 6T98 1Z" />
<glyph unicode="s" horiz-adv-x="507" d="M246 60Q309 63 326 82T319 137Q309 152 287 168T237 204T183 246T138 295T114 353Q107 393 125 425T184 477T290 496T445 470Q445 470 448 468T454 462T460 453T461 439Q460 433 457 429T448 423T440 421T436 421Q436
421 424 422T392 425T347 427T298 427T253 420T219 405Q202 391 197 375T197 340T224 301T280 260Q330 230 364 197T411 128T409 58Q400 35 371 21T301 3T215 4T127 30T52 82Q52 82 51 84T47 91T45 100T51 110Q56 116 61 117T72 118T82 116T86 114Q86 114 99 106T134
86T186 66T246 60Z" />
<glyph unicode="t" horiz-adv-x="445" d="M229 1Q215 1 207 6T193 17T187 29T185 34Q181 77 178 134T175 256T175 386T179 511T186 621Q186 621 187 625T192 636T204 646T226 649Q240 649 248 643T259 629T264 616T266 610Q263 570 261 515T258 396T257 268T259
142T264 32Q264 32 263 28T259 17T249 6T229 1ZM364 413Q285 413 215 414T88 417Q88 417 82 417T68 421T53 431T45 448Q45 458 48 464T56 472T65 476T69 477Q77 479 99 479T152 480T218 481T290 482T358 483Q358 483 362 482T372 479T385 472T396 462T400 445Q400
433 394 426T382 416T370 414T364 413Z" />
<glyph unicode="u" horiz-adv-x="542" d="M197 11Q171 23 149 41T108 83T76 139T54 211Q44 266 45 324T57 446Q57 446 58 451T64 463T78 474T104 474Q118 471 125 464T135 448T138 435T139 429Q128 337 131 264T157 149Q173 119 192 101T232 76T275 71T318 85Q352
105 371 136T398 204T404 280Q401 315 394 352T381 419T370 464Q370 464 370 467T373 476T381 486T398 492Q411 494 420 489T434 479T439 473Q456 444 469 405T491 322Q499 268 496 225T481 146T446 80Q426 55 399 36T338 8T269 -2T197 11Z" />
<glyph unicode="v" horiz-adv-x="496" d="M236 1Q222 2 208 7T180 24T156 52T136 94L46 439Q46 439 46 444T47 456T55 469T74 478Q87 480 96 476T112 466T122 456T125 451L184 228Q197 173 209 136T233 87Q246 89 267 121T314 221Q330 266 341 307T359 383T369
450Q369 450 370 455T375 467T387 479T412 482Q427 480 435 473T446 458T450 443T450 437Q449 406 444 374T431 311T414 250T395 192Q368 123 341 80T288 17T236 1Z" />
<glyph unicode="w" horiz-adv-x="820" d="M236 1Q222 2 208 7T180 24T156 52T136 94L46 439Q46 439 46 444T47 456T55 469T74 478Q87 480 96 476T112 466T122 456T125 451L184 228Q197 173 209 136T233 87Q246 89 267 121T314 221Q330 266 341 307T359 383T369
450Q369 450 370 455T375 467T387 479T412 482Q427 480 435 473T446 458T450 443T450 437Q449 406 444 374T431 311T414 250T395 192Q368 123 341 80T288 17T236 1ZM560 1Q546 2 532 7T504 24T479 52T460 94L375 439Q375 439 375 444T376 456T382 470T398 478Q412
481 421 478T437 468T447 457T450 452L507 228Q521 173 533 136T557 87Q570 89 590 121T638 221Q654 266 665 307T683 383T694 450Q694 450 695 455T700 467T712 479T735 482Q751 480 759 473T771 458T774 443T775 437Q773 396 765 353T745 270T719 192Q692 123
665 80T612 17T560 1Z" />
<glyph unicode="x" horiz-adv-x="520" d="M62 3Q52 10 49 17T46 31T49 45T53 54T56 58Q85 90 111 120T163 180T215 244Q195 269 177 293T142 342T107 391T69 444Q69 444 68 448T66 457T68 469T81 481Q90 486 98 486T114 485T125 480T129 477Q151 452 173 423T219
364T264 302Q292 339 315 371T360 431T399 486Q399 486 403 489T414 497T431 501T452 496Q465 489 470 481T475 463T473 449T471 443Q447 409 426 379T386 323T350 275T318 234Q349 193 377 156T427 89T460 43Q460 43 461 40T462 32T462 20T456 9T440 0Q426 -5
415 -2T397 7T390 13L268 175Q228 127 190 82T118 4Q118 4 114 1T101 -4T83 -6T62 3Z" />
<glyph unicode="y" horiz-adv-x="610" d="M352 -210Q282 -214 220 -202T104 -164Q104 -164 99 -162T89 -154T80 -140T81 -122Q84 -112 91 -108T106 -103T118 -103T124 -104Q158 -117 191 -125T259 -137T329 -138Q376 -136 407 -121T455 -76T475 -2Q479 66 480
127T478 246T469 356T453 461Q453 461 454 467T463 481T486 488Q503 489 513 483T527 470T532 463Q550 389 557 309T565 144T559 -29Q547 -117 495 -161T352 -210ZM212 12Q170 31 138 60T86 126T56 209Q49 247 47 285T48 362T59 445Q59 445 61 450T68 461T82 471T105
474Q119 472 127 467T140 455T146 442T148 432T149 428Q140 361 140 306T147 211T172 147Q208 92 254 78T356 86Q396 104 423 132T463 196T476 273L542 325Q556 244 541 183T488 78Q459 46 416 24T320 -4T212 12Z" />
<glyph unicode="z" horiz-adv-x="571" d="M125 -5Q96 -1 82 11T65 39T70 71T94 98L385 374Q392 385 392 392T384 403T363 409T333 411Q289 413 249 411T171 404T97 391Q97 391 91 391T75 393T58 400T48 415Q45 426 47 433T55 445T65 451T69 453Q152 479 237 484T415
478Q433 474 449 467T476 449T493 422T494 384Q490 368 468 342T412 282T337 211T253 136T169 63L483 83Q483 83 489 82T503 78T518 69T526 51Q527 39 523 32T514 20T504 15T499 14L125 -5Z" />
<glyph unicode="{" horiz-adv-x="312" d="M212 7Q212 7 204 5T181 3T150 11T117 35T87 84Q79 104 79 131T82 186T85 239T74 276Q74 276 67 280T52 293T46 310Q48 319 53 323T63 327T68 328Q68 328 73 329T86 336T98 357T102 398Q102 415 100 439T97 492T104 548T125
598T167 631T236 640Q236 640 240 639T251 634T261 625T267 612Q267 601 262 597T251 593T245 592Q245 592 237 591T217 585T193 567T174 528Q167 505 168 478T172 423T175 368T165 320T133 286Q133 286 139 275T150 238T150 173Q146 138 152 112T172 71T209 61Q209
61 214 61T225 60T236 54T241 38Q242 29 238 23T228 14T217 9T212 7Z" />
<glyph unicode="|" horiz-adv-x="182" d="M98 0Q85 0 77 5T64 17T57 30T55 35Q51 78 49 135T46 256T46 384T50 509T57 617Q57 617 58 622T62 633T74 644T95 648Q109 648 117 644T129 632T135 618T137 607T137 602Q133 562 131 507T129 390T128 264T130 140T135
32Q135 32 135 27T131 16T120 5T98 0Z" />
<glyph unicode="}" horiz-adv-x="312" d="M100 7Q100 7 95 8T84 13T74 23T71 38Q71 49 76 53T87 60T98 62T103 61Q125 57 139 71T160 111T162 173Q157 213 162 238T173 274T179 286Q156 298 147 319T138 367T139 422T143 478T138 528Q131 554 119 567T95 585T75
591T67 592Q67 592 62 592T51 597T45 612Q46 619 50 624T61 633T71 638T76 640Q118 643 145 632T186 598T207 549T214 493T213 440T210 398Q209 372 214 358T226 337T238 329T244 328Q244 328 249 328T259 323T266 310Q268 301 261 293T246 281T238 276Q228 263
228 239T229 187T232 131T225 84Q212 53 196 36T162 11T131 4T109 5T100 7Z" />
<glyph unicode="~" horiz-adv-x="456" d="M98 264Q91 260 83 263T69 270T63 274Q48 289 47 305T54 337T80 363T120 375Q156 379 187 369T247 345T310 327Q323 328 333 333T350 350Q350 350 353 356T363 366T384 368Q396 365 401 360T409 347T411 336T410 331Q405
312 387 296T332 274Q311 271 283 278T225 295T170 314Q153 319 136 318T110 309T104 291Q104 291 105 287T107 276T98 264Z" />
<glyph unicode="&#xa0;" horiz-adv-x="260" />
<glyph unicode="&#xa1;" horiz-adv-x="193" d="M93 -2Q79 -2 71 3T58 15T51 29T49 40T49 45Q53 97 55 143T59 234T63 328T68 436Q68 436 70 442T79 454T99 459Q113 458 120 452T131 440T134 433Q136 375 137 309T138 172T135 30Q135 30 134 25T129 14T117 3T93
-2ZM99 566Q85 566 74 571T56 587T49 609Q49 623 55 632T73 647T99 652Q113 652 124 647T141 631T148 609Q148 597 142 587T124 572T99 566Z" />
<glyph unicode="&#xa2;" horiz-adv-x="554" d="M281 56Q199 60 149 90T75 172T46 289Q42 342 57 390T105 477T185 538T292 560Q342 559 376 547T432 516T467 480T485 450T490 438Q490 438 491 435T492 426T487 415T475 408Q464 405 456 409T443 418T438 424Q438
424 431 436T409 463T369 490T310 502Q277 502 243 491T179 455T131 392T115 299Q117 243 131 208T168 154T222 126T284 115Q322 111 354 119T411 141T448 165T462 176Q462 176 467 177T481 178T498 170Q505 164 506 159T508 149T507 142T505 139Q505 139 493 126T455
95T386 65T281 56ZM299 -25Q288 -25 281 -19T272 -7T269 0Q267 11 264 23T259 48T256 77L335 87Q337 70 336 55T334 25T329 -3Q329 -3 327 -8T318 -19T299 -25ZM258 528Q257 545 257 565T259 603T264 635Q264 635 266 640T274 651T294 656Q306 657 312 651T321
639T324 632Q327 621 329 605T334 571T337 537L258 528Z" />
<glyph unicode="&#xa3;" horiz-adv-x="453" d="M105 -4Q85 -3 74 5T62 26T68 55Q82 74 90 93T103 136T109 189Q109 219 105 257T95 335T88 415T92 486Q100 526 117 561T165 619T246 648Q275 648 300 638T346 609T381 561Q381 561 382 557T384 547T381 536T368
527Q359 524 351 526T336 533T330 537Q321 551 308 562T278 580Q258 583 239 576T204 551T177 501Q168 478 167 445T168 372T177 290T186 206Q189 163 183 127T156 59Q185 62 210 64T261 68T311 71T364 73Q364 73 368 73T379 71T392 66T403 56T408 41Q408 30 404
24T393 14T382 10T377 8Q365 8 336 7T267 4T185 0T105 -4ZM78 269Q77 269 70 270T56 276T46 292Q45 300 48 305T56 313T65 317T69 319Q104 324 143 327T223 333T307 334Q307 334 311 334T323 333T336 328T346 318T352 302Q352 290 347 284T335 275T323 273T318
272Q277 274 235 274T154 273T78 269Z" />
<glyph unicode="&#xa5;" horiz-adv-x="534" d="M259 253Q170 265 119 311T52 434T56 611Q56 611 58 617T64 631T77 644T100 646Q116 643 123 636T133 619T136 604T137 597Q119 472 146 403T253 326Q296 333 327 359T377 424T401 508T398 595Q398 595 397 600T397
612T405 626T426 635Q441 637 451 633T467 622T476 610T479 604Q492 548 487 490T455 381T380 296T259 253ZM117 83Q116 83 109 83T93 87T81 103Q78 111 80 117T88 126T97 130T101 132Q169 146 247 149T416 141Q416 141 421 139T433 133T444 123T448 109Q447 99
442 94T431 87T420 84T415 83Q380 86 349 88T290 90T233 91T177 88T117 83ZM263 8Q250 8 242 13T229 25T222 37T220 42Q210 101 211 163T221 288L301 290Q291 214 292 152T299 40Q299 40 299 35T295 24T285 13T263 8ZM117 182Q116 182 112 182T101 183T90 189T81
201Q78 210 80 215T87 224T96 229T101 231Q169 244 247 247T416 240Q416 240 421 238T433 232T444 222T448 207Q447 198 442 193T431 185T420 183T415 183Q380 185 349 187T290 189T233 190T177 187T117 182Z" />
<glyph unicode="&#xa6;" horiz-adv-x="175" d="M92 376Q80 377 72 381T59 392T53 402T51 407Q47 455 46 494T46 575T50 669Q50 669 51 673T55 683T67 694T89 698Q104 698 112 692T124 678T129 665T130 659Q123 588 124 528T130 408Q130 408 129 403T125 392T113
381T92 376ZM92 -39Q80 -38 72 -34T59 -23T53 -13T51 -8Q47 40 46 79T46 160T50 254Q50 254 51 258T55 268T67 279T89 283Q104 283 112 277T124 263T129 250T130 244Q123 173 124 113T130 -7Q130 -7 129 -12T125 -23T113 -34T92 -39Z" />
<glyph unicode="&#xa7;" horiz-adv-x="383" d="M195 -8Q168 -8 141 3T93 30T59 62T45 87Q45 95 50 100T65 106Q74 106 87 97T117 76T152 55T187 46Q199 46 208 53T224 73T230 98Q230 116 219 131T192 160T159 189T131 223T119 267Q119 301 138 328T189 365Q148
391 123 419T87 476T76 530Q76 554 84 575T108 613T146 639T195 649Q223 649 250 636T300 602T335 559Q335 559 336 555T338 545Q338 537 333 531T320 524Q312 524 307 530T301 536Q283 553 267 565T236 585T206 592Q193 592 179 585T154 564T143 527Q143 500 156
479T189 441T233 406T280 369Q286 363 289 358T292 345Q292 341 291 338T288 332T282 327T273 325Q245 323 226 315T197 294T187 263Q187 247 198 233T226 204T259 174T287 139T298 93Q298 64 285 41T249 5T195 -8Z" />
<glyph unicode="&#xa8;" horiz-adv-x="401" d="M306 519Q293 519 282 524T263 540T256 562Q256 574 263 583T281 599T306 605Q320 605 331 599T349 583T356 562Q356 541 342 530T306 519ZM94 519Q81 519 70 524T52 540T45 562Q45 574 51 583T69 599T94 605Q108
605 119 599T138 583T145 562Q145 548 138 539T120 524T94 519Z" />
<glyph unicode="&#xa9;" horiz-adv-x="727" d="M365 0Q255 0 184 44T79 163T45 327Q45 417 83 490T193 606T365 649Q411 649 456 631T542 582T614 508T664 415T682 311Q682 222 647 152T542 41T365 0ZM349 135Q291 139 256 162T204 223T183 311Q180 363 200 409T260
485T357 514Q400 513 427 499T470 468T491 437T497 423Q497 423 497 419T496 408T485 400Q478 398 472 401T463 408T460 412Q460 412 455 421T439 441T411 461T369 470Q346 470 322 462T278 435T245 388T234 318Q235 276 244 250T270 209T308 189T352 180Q378 177
400 183T440 200T467 218T476 226Q476 226 480 227T490 228T502 222Q508 216 509 211T509 202T507 198Q507 198 499 188T472 164T423 142T349 135ZM365 53Q453 53 511 87T599 180T628 314Q628 370 605 420T544 511T460 573T365 596Q282 597 223 561T132 463T100
326Q100 251 128 190T215 91T365 53Z" />
<glyph unicode="&#xaa;" horiz-adv-x="322" d="M146 278Q117 278 94 292T58 331T45 386Q45 417 60 443T99 485T154 501Q201 501 229 474T258 389Q258 359 244 334T204 294T146 278ZM148 312Q168 312 185 323T214 352T225 393Q225 434 205 453T155 473Q136 473
119 460T92 427T82 384Q82 352 100 332T148 312ZM261 277Q252 277 248 282T244 287Q239 336 239 386T242 491Q242 491 246 496T260 500Q269 499 272 495T276 486T277 481Q274 451 273 421T273 360T276 291Q276 291 276 288T272 281T261 277Z" />
<glyph unicode="&#xab;" horiz-adv-x="533" d="M450 66Q442 59 433 60T415 65T403 73T398 77Q377 100 358 122T322 167T286 217Q271 238 265 255T260 289T269 320Q291 364 315 406T366 486T424 554Q424 554 428 558T439 567T455 573T473 568Q482 563 485 556T487
543T484 532T482 528Q456 494 432 458T385 385T340 304Q323 270 347 239L452 111Q452 111 454 109T460 102T464 91T462 79T450 66ZM235 66Q227 59 218 60T200 65T188 73T183 77Q162 100 143 122T107 167T71 217Q56 238 50 255T45 289T54 320Q76 364 100 406T151
486T209 554Q209 554 213 558T224 567T240 573T258 568Q267 563 270 556T272 543T269 532T267 528Q241 494 217 458T170 385T125 304Q108 270 132 239L237 111Q237 111 239 109T245 102T249 91T247 79T235 66Z" />
<glyph unicode="&#xac;" horiz-adv-x="740" d="M635 56Q625 59 621 65T616 80T615 94T616 100Q623 139 627 175T631 249T627 323Q581 320 525 318T408 315T288 315T175 318T79 325Q79 325 74 326T63 332T51 345T45 366Q45 379 50 387T61 398T73 403T78 404Q127
401 186 400T308 397T433 396T548 399T643 405Q643 405 649 405T663 401T679 389T687 365Q694 317 694 268T689 172T667 80Q667 80 666 76T661 66T651 57T635 56Z" />
<glyph unicode="&#xae;" horiz-adv-x="609" d="M307 135Q217 135 159 170T73 264T45 394Q45 465 76 523T165 615T305 649Q352 649 398 628T481 569T541 484T564 382Q564 311 536 255T451 167T307 135ZM307 182Q377 182 422 208T491 280T514 384Q514 428 496 467T448
537T381 586T307 604Q242 604 195 576T123 500T98 394Q98 337 120 288T189 211T307 182ZM254 258Q246 258 243 262T238 270T237 274Q235 302 234 343T234 429T238 506Q238 506 238 509T242 516T253 520Q301 525 333 521T384 496Q412 468 411 434T382 373Q371 364
352 356T311 345T267 345L269 271Q269 271 268 268T264 261T254 258ZM373 273Q348 289 319 305T255 341Q255 344 259 346T269 351T279 354T283 355Q297 349 310 344T335 331T361 316T393 295Q393 295 395 292T398 285T394 275Q391 271 386 271T377 271T373 273ZM267
377Q307 375 329 384T362 409T373 438Q373 463 358 476T320 493T270 495Q267 467 267 436T267 377Z" />
<glyph unicode="&#xaf;" horiz-adv-x="483" d="M432 561Q432 549 426 543T413 534T401 531T395 530Q353 533 322 534T266 537T216 537T162 535T94 530Q94 530 89 530T76 532T62 538T52 553Q49 564 51 570T58 581T67 587T71 589Q116 597 152 601T223 607T299 607T394
600Q394 600 400 598T414 591T427 579T432 561Z" />
<glyph unicode="&#xb0;" horiz-adv-x="406" d="M203 348Q149 348 114 369T62 426T45 504Q45 547 64 582T118 638T203 659Q232 659 259 646T310 610T347 558T361 496Q361 432 322 390T203 348ZM197 406Q243 404 267 429T293 495Q295 521 283 544T250 581T206 597Q163
599 138 572T110 506Q108 467 129 438T197 406Z" />
<glyph unicode="&#xb2;" horiz-adv-x="278" d="M87 341Q81 341 75 344T67 354T70 368Q123 450 148 505T169 583Q163 601 152 610T126 621Q109 620 96 613T71 597Q71 597 68 595T61 593T51 597Q47 601 46 603T46 609T49 614Q65 631 83 640T126 650Q157 649 177
633T205 591T207 540Q199 511 186 482T155 424T118 370H216Q216 370 220 369T228 366T232 357Q233 352 230 349T225 344T222 343L87 341Z" />
<glyph unicode="&#xb3;" horiz-adv-x="261" d="M137 343Q121 345 106 350T77 364T52 385Q52 385 50 388T46 396T49 406Q55 411 60 410T70 406T74 403Q82 396 98 387T134 373Q151 376 161 384T175 405T177 435Q169 461 152 473T111 489Q105 490 102 494T100 504T111
510Q114 511 122 513T142 519T162 534Q178 552 178 571T159 606Q146 615 124 613T77 606Q77 606 74 606T66 608T59 614Q57 619 58 622T62 627T65 628Q80 634 94 638T122 641Q135 642 149 639T177 628Q198 615 205 595T211 555T196 520Q189 514 181 508T164 498Q183
488 196 472T215 430Q219 401 208 382T178 353T137 343Z" />
<glyph unicode="&#xb4;" horiz-adv-x="323" d="M86 501Q86 501 82 500T71 499T59 503T49 513Q44 522 46 530T52 543T61 552T66 555Q115 577 157 596T237 633Q237 633 241 634T251 635T263 634T273 624Q278 616 278 610T274 600T268 593T265 590Q245 577 223 565T178
541T132 520T86 501Z" />
<glyph unicode="&#xb6;" horiz-adv-x="692" d="M464 -1Q452 -1 445 3T434 14T429 25T428 30L434 239Q392 233 347 233T257 240T178 258T122 288Q74 330 56 382T52 488T114 590Q162 638 252 648T467 649Q481 648 489 643T500 631T504 619T505 614Q509 566 512 505T516
379T516 249T514 130T507 34Q507 34 506 29T500 17T487 5T464 -1ZM594 -1Q581 -1 574 4T563 15T558 26T557 31Q560 79 561 138T563 262T564 388T561 506T555 602Q555 602 555 606T557 617T563 631T575 642T597 647Q610 647 618 643T629 632T634 621T635 616Q639
568 642 508T646 384T647 255T644 134T637 34Q637 34 635 29T629 17T616 4T594 -1Z" />
<glyph unicode="&#xb7;" horiz-adv-x="190" d="M94 253Q81 253 70 258T52 274T45 296Q45 308 51 317T69 333T94 339Q108 339 119 333T138 318T145 296Q145 282 138 272T120 258T94 253Z" />
<glyph unicode="&#xb8;" horiz-adv-x="314" d="M157 -218Q123 -216 98 -202T52 -169Q52 -169 50 -167T47 -161T46 -153T52 -143Q58 -138 64 -138T75 -139T80 -141Q99 -157 119 -166T165 -177Q190 -175 202 -166T218 -143T220 -112Q216 -93 201 -81T162 -63Q155
-64 148 -61T136 -54T131 -44Q128 -24 128 -4T128 34Q128 34 129 39T134 50T147 55Q158 55 162 45T166 35Q169 23 172 7T176 -28Q195 -32 211 -40T239 -59T258 -85T268 -117Q272 -156 259 -178T219 -209T157 -218Z" />
<glyph unicode="&#xb9;" horiz-adv-x="231" d="M166 327Q157 327 152 331T146 341T144 346Q142 378 141 423T139 514T143 596L75 533Q75 533 72 531T63 529T52 534Q46 539 46 544T47 552T49 555L120 616Q134 629 147 637T170 644Q178 643 181 638T185 629T186
625Q184 600 183 564T181 489T182 411T185 343Q185 343 184 339T180 330T166 327Z" />
<glyph unicode="&#xba;" horiz-adv-x="333" d="M146 416Q100 416 72 447T46 528Q48 561 63 590T103 637T160 656Q183 656 206 650T248 629T278 591T287 531Q286 502 272 481T238 445T193 423T146 416ZM151 444Q175 444 198 454T237 485T254 536Q256 570 243 589T209
617T165 626Q142 626 123 613T93 578T79 529Q76 489 97 467T151 444Z" />
<glyph unicode="&#xbb;" horiz-adv-x="533" d="M298 66Q289 72 287 78T285 91T288 101T294 108T297 111L402 239Q425 270 409 304Q387 347 364 384T317 458T266 528Q266 528 265 532T262 542T263 556T275 568Q285 574 293 573T309 567T320 558T324 554Q355 524
382 486T433 406T479 320Q486 306 487 290T484 256T462 217Q444 190 427 167T391 122T351 77Q351 77 346 73T333 65T316 60T298 66ZM83 66Q74 72 72 78T70 91T73 101T79 108T82 111L187 239Q210 270 194 304Q172 347 149 384T102 458T51 528Q51 528 50 532T47 542T48
556T60 568Q70 574 78 573T94 567T105 558T109 554Q140 524 167 486T218 406T264 320Q271 306 272 290T269 256T247 217Q229 190 212 167T176 122T136 77Q136 77 131 73T118 65T101 60T83 66Z" />
<glyph unicode="&#xbc;" horiz-adv-x="530" d="M143 7Q132 11 126 17T119 30T117 42T118 47Q143 121 182 216T269 420T370 641Q370 641 372 644T380 652T393 658T413 655Q426 650 430 643T435 629T435 616T433 611Q382 495 336 387T252 186T188 20Q188 20 183
15T169 6T143 7ZM166 327Q157 327 152 331T146 341T144 346Q142 378 141 423T139 514T143 596L75 533Q75 533 72 531T63 529T52 534Q46 539 46 544T47 552T49 555L120 616Q134 629 147 637T170 644Q178 643 181 638T185 629T186 625Q184 600 183 564T181 489T182
411T185 343Q185 343 184 339T180 330T166 327ZM466 -2Q457 -2 453 2T446 11T444 15Q442 42 441 74T439 140T438 206T440 264L341 158Q335 147 334 139T341 129L448 134L449 103Q422 100 394 99T334 99Q312 102 301 112T290 137T300 166Q324 193 345 216T384 255Q403
273 419 289T450 317Q459 320 466 317T479 309T483 298Q481 272 480 237T479 162T481 84T484 15Q484 15 484 11T480 3T466 -2Z" />
<glyph unicode="&#xbd;" horiz-adv-x="558" d="M143 7Q132 11 126 17T119 30T117 42T118 47Q143 121 182 216T269 420T370 641Q370 641 372 644T380 652T393 658T413 655Q426 650 430 643T435 629T435 616T433 611Q382 495 336 387T252 186T188 20Q188 20 183
15T169 6T143 7ZM166 327Q157 327 152 331T146 341T144 346Q142 378 141 423T139 514T143 596L75 533Q75 533 72 531T63 529T52 534Q46 539 46 544T47 552T49 555L120 616Q134 629 147 637T170 644Q178 643 181 638T185 629T186 625Q184 600 183 564T181 489T182
411T185 343Q185 343 184 339T180 330T166 327ZM367 1Q361 1 355 4T347 14T350 28Q403 110 428 165T449 243Q443 261 432 270T406 281Q389 280 376 273T351 257Q351 257 348 255T341 253T331 257Q327 261 326 263T326 269T329 274Q345 291 363 300T406 310Q437
309 457 293T485 251T487 200Q479 171 466 142T435 84T398 30H496Q496 30 500 29T508 26T512 17Q513 11 510 8T505 4T502 3L367 1Z" />
<glyph unicode="&#xbe;" horiz-adv-x="530" d="M143 7Q132 11 126 17T119 30T117 42T118 47Q143 121 182 216T269 420T370 641Q370 641 372 644T380 652T393 658T413 655Q426 650 430 643T435 629T435 616T433 611Q382 495 336 387T252 186T188 20Q188 20 183
15T169 6T143 7ZM137 343Q121 345 106 350T77 364T52 385Q52 385 50 388T46 396T49 406Q55 411 60 410T70 406T74 403Q82 396 98 387T134 373Q151 376 161 384T175 405T177 435Q169 461 152 473T111 489Q105 490 102 494T100 504T111 510Q114 511 122 513T142 519T162
534Q178 552 178 571T159 606Q146 615 124 613T77 606Q77 606 74 606T66 608T59 614Q57 619 58 622T62 627T65 628Q80 634 94 638T122 641Q135 642 149 639T177 628Q198 615 205 595T211 555T196 520Q189 514 181 508T164 498Q183 488 196 472T215 430Q219 401
208 382T178 353T137 343ZM466 -2Q457 -2 453 2T446 11T444 15Q442 42 441 74T439 140T438 206T440 264L341 158Q335 147 334 139T341 129L448 134L449 103Q422 100 394 99T334 99Q312 102 301 112T290 137T300 166Q324 193 345 216T384 255Q403 273 419 289T450
317Q459 320 466 317T479 309T483 298Q481 272 480 237T479 162T481 84T484 15Q484 15 484 11T480 3T466 -2Z" />
<glyph unicode="&#xbf;" horiz-adv-x="529" d="M261 -2Q214 -2 173 11T102 51T54 121Q48 143 47 167T52 218T79 274T133 336Q169 364 194 392T221 455Q221 455 222 463T229 480T248 489Q262 489 270 483T282 468T287 454T288 447Q293 418 284 392T255 342T212
299Q185 274 165 249T135 196T131 135Q141 111 159 95T204 73T263 68Q308 68 343 82T397 132Q402 145 403 158T401 186T381 220Q381 220 378 225T375 237T381 253Q390 260 399 260T417 258T430 252T436 248Q474 214 481 173T457 76Q438 51 409 34T343 8T261 -2ZM246
568Q232 568 221 574T203 589T196 611Q196 625 203 635T221 649T246 654Q260 654 271 649T288 633T295 611Q295 599 289 590T271 574T246 568Z" />
<glyph unicode="&#xc0;" horiz-adv-x="530" d="M87 -1Q71 1 63 8T51 23T46 36T45 42Q50 132 68 226T114 417Q133 472 150 513T186 584T224 628T267 643Q284 646 301 636T334 603T366 548T392 474Q402 446 415 398T442 288T467 160T484 28Q484 28 484 24T481 13T470
3T449 -2Q435 -2 426 2T412 14T405 25T403 30Q387 129 372 216T337 372Q323 428 307 471T273 551Q256 527 241 498T214 437T193 372Q180 322 169 278T151 193T139 110T131 26Q131 26 130 22T124 11T111 1T87 -1ZM106 93L115 150Q162 161 209 166T306 173T409 169L417
101Q382 107 341 109T258 112T176 106T106 93ZM346 688Q324 697 301 707T255 728T210 752T167 778Q167 778 164 780T159 787T155 798T159 812Q163 819 169 821T181 824T191 822T195 821Q234 802 276 784T367 742Q367 742 371 739T379 731T386 718T383 700Q380 693
374 691T361 688T351 687T346 688Z" />
<glyph unicode="&#xc1;" horiz-adv-x="530" d="M87 -1Q71 1 63 8T51 23T46 36T45 42Q50 132 68 226T114 417Q133 472 150 513T186 584T224 628T267 643Q284 646 301 636T334 603T366 548T392 474Q402 446 415 398T442 288T467 160T484 28Q484 28 484 24T481 13T470
3T449 -2Q435 -2 426 2T412 14T405 25T403 30Q387 129 372 216T337 372Q323 428 307 471T273 551Q256 527 241 498T214 437T193 372Q180 322 169 278T151 193T139 110T131 26Q131 26 130 22T124 11T111 1T87 -1ZM106 93L115 150Q162 161 209 166T306 173T409 169L417
101Q382 107 341 109T258 112T176 106T106 93ZM188 684Q188 684 184 683T173 682T161 686T151 696Q146 705 148 713T154 726T163 735T168 738Q217 760 259 779T339 816Q339 816 343 817T353 818T365 817T375 807Q380 799 380 793T376 783T370 776T367 773Q347 760
325 748T280 724T234 703T188 684Z" />
<glyph unicode="&#xc2;" horiz-adv-x="530" d="M87 -1Q71 1 63 8T51 23T46 36T45 42Q50 132 68 226T114 417Q133 472 150 513T186 584T224 628T267 643Q284 646 301 636T334 603T366 548T392 474Q402 446 415 398T442 288T467 160T484 28Q484 28 484 24T481 13T470
3T449 -2Q435 -2 426 2T412 14T405 25T403 30Q387 129 372 216T337 372Q323 428 307 471T273 551Q256 527 241 498T214 437T193 372Q180 322 169 278T151 193T139 110T131 26Q131 26 130 22T124 11T111 1T87 -1ZM106 93L115 150Q162 161 209 166T306 173T409 169L417
101Q382 107 341 109T258 112T176 106T106 93ZM144 690Q137 696 134 701T132 712T134 721T136 724Q149 742 163 757T196 788T234 820Q243 827 254 830T278 831T303 821L401 752Q401 752 404 749T409 740T412 728T404 713Q398 707 391 706T378 705T367 709T362 711L276
775Q257 767 234 746T179 690Q179 690 174 688T161 685T144 690Z" />
<glyph unicode="&#xc3;" horiz-adv-x="530" d="M87 -1Q71 1 63 8T51 23T46 36T45 42Q50 132 68 226T114 417Q133 472 150 513T186 584T224 628T267 643Q284 646 301 636T334 603T366 548T392 474Q402 446 415 398T442 288T467 160T484 28Q484 28 484 24T481 13T470
3T449 -2Q435 -2 426 2T412 14T405 25T403 30Q387 129 372 216T337 372Q323 428 307 471T273 551Q256 527 241 498T214 437T193 372Q180 322 169 278T151 193T139 110T131 26Q131 26 130 22T124 11T111 1T87 -1ZM106 93L115 150Q162 161 209 166T306 173T409 169L417
101Q382 107 341 109T258 112T176 106T106 93ZM146 694Q139 689 131 692T117 699T111 703Q96 719 95 735T102 767T128 792T168 805Q204 809 235 799T295 775T358 757Q371 757 381 763T398 780Q398 780 401 785T411 795T432 798Q444 795 449 789T457 777T459 766T458
761Q453 742 435 725T380 703Q359 700 331 707T273 725T218 744Q201 748 184 747T158 739T152 720Q152 720 153 716T155 705T146 694Z" />
<glyph unicode="&#xc4;" horiz-adv-x="530" d="M87 -1Q71 1 63 8T51 23T46 36T45 42Q50 132 68 226T114 417Q133 472 150 513T186 584T224 628T267 643Q284 646 301 636T334 603T366 548T392 474Q402 446 415 398T442 288T467 160T484 28Q484 28 484 24T481 13T470
3T449 -2Q435 -2 426 2T412 14T405 25T403 30Q387 129 372 216T337 372Q323 428 307 471T273 551Q256 527 241 498T214 437T193 372Q180 322 169 278T151 193T139 110T131 26Q131 26 130 22T124 11T111 1T87 -1ZM106 93L115 150Q162 161 209 166T306 173T409 169L417
101Q382 107 341 109T258 112T176 106T106 93ZM367 702Q354 702 343 707T324 723T317 745Q317 757 324 766T342 782T367 788Q381 788 392 782T410 766T417 745Q417 724 403 713T367 702ZM155 702Q142 702 131 707T113 723T106 745Q106 757 112 766T130 782T155
788Q169 788 180 782T199 766T206 745Q206 731 199 722T181 707T155 702Z" />
<glyph unicode="&#xc5;" horiz-adv-x="530" d="M87 -1Q71 1 63 8T51 23T46 36T45 42Q50 132 68 226T114 417Q133 472 150 513T186 584T224 628T267 643Q284 646 301 636T334 603T366 548T392 474Q402 446 415 398T442 288T467 160T484 28Q484 28 484 24T481 13T470
3T449 -2Q435 -2 426 2T412 14T405 25T403 30Q387 129 372 216T337 372Q323 428 307 471T273 551Q256 527 241 498T214 437T193 372Q180 322 169 278T151 193T139 110T131 26Q131 26 130 22T124 11T111 1T87 -1ZM106 93L115 150Q162 161 209 166T306 173T409 169L417
101Q382 107 341 109T258 112T176 106T106 93ZM267 683Q239 683 218 696T185 730T173 775Q173 800 186 818T221 848T267 860Q292 860 314 850T351 822T366 778Q366 755 354 733T320 697T267 683ZM268 724Q293 724 307 740T321 775Q321 795 305 806T268 818Q248
818 233 806T218 774Q218 755 232 740T268 724Z" />
<glyph unicode="&#xc6;" horiz-adv-x="905" d="M87 -1Q71 1 63 8T51 23T46 36T45 42Q50 132 68 226T114 417Q133 472 150 513T186 584T224 628T267 643Q284 646 301 636T334 603T366 548T392 474Q402 446 415 398T442 288T467 160T484 28Q484 28 484 24T481 13T470
3T449 -2Q435 -2 426 2T412 14T405 25T403 30Q387 129 372 216T337 372Q323 428 307 471T273 551Q256 527 241 498T214 437T193 372Q180 322 169 278T151 193T139 110T131 26Q131 26 130 22T124 11T111 1T87 -1ZM106 93L115 150Q162 161 209 166T306 173T409 169L417
101Q382 107 341 109T258 112T176 106T106 93ZM473 -1Q454 0 441 4T420 16T408 30T402 45Q399 118 397 187T394 325T396 467T406 621Q409 635 423 644T463 653L802 649Q802 649 807 649T820 647T835 641T848 629T853 610Q853 597 848 591T835 581T821 578T815 577L485
590Q480 538 478 487T475 387T475 286T477 181T482 69Q522 73 558 77T626 85T688 94T748 103T807 115Q807 115 811 115T822 116T836 112T850 103T858 88Q861 75 859 67T851 55T842 48T838 46Q790 36 745 28T655 15T566 5T473 -1ZM427 297L424 370L703 381Q703 381
708 381T722 378T738 372T751 360T757 342Q757 329 750 322T735 312T719 309T712 308L427 297Z" />
<glyph unicode="&#xc7;" horiz-adv-x="631" d="M284 10Q222 21 178 49T106 116T63 199T46 286T50 366Q59 410 81 459T141 552T231 623T352 651Q417 650 466 626T544 564T582 483T578 401Q578 401 575 397T565 388T544 385Q531 388 524 394T515 407T513 413Q513
413 513 427T508 462T491 506T456 547T393 575Q351 584 312 569T238 521T178 448T139 363T130 280Q135 237 150 204T186 148T233 108T283 85T331 77Q364 77 395 91T451 126T486 170Q486 170 489 174T500 182T517 187T541 182Q552 177 557 171T565 158T566 146T564
137T563 134Q563 134 554 118T525 80T473 37T394 8T284 10ZM320 -228Q286 -226 261 -212T215 -179Q215 -179 213 -177T210 -171T209 -163T215 -153Q221 -148 227 -148T238 -149T243 -151Q262 -167 282 -176T328 -187Q353 -185 365 -176T380 -153T382 -122Q378 -103
364 -91T325 -73Q317 -74 310 -71T298 -64T294 -54Q290 -34 290 -14T290 24Q290 24 291 29T297 40T310 45Q321 45 325 35T329 25Q332 13 334 -3T338 -38Q357 -42 373 -50T402 -69T421 -95T430 -127Q434 -166 421 -188T382 -219T320 -228Z" />
<glyph unicode="&#xc8;" horiz-adv-x="557" d="M126 2Q106 3 93 7T72 18T60 33T55 48Q52 120 50 189T47 328T48 470T58 624Q61 638 75 647T116 655L454 652Q454 652 459 652T472 650T487 644T500 632T505 613Q506 600 500 593T487 584T473 581T467 580L137 593Q133
541 131 490T128 389T127 288T129 184T135 72Q174 76 210 80T278 88T340 97T400 106T459 118Q459 118 463 118T475 118T489 115T502 106T510 91Q514 78 512 70T504 57T494 51T490 49Q442 39 397 31T308 18T218 8T126 2ZM79 300L76 373L355 384Q355 384 360 384T374
381T390 375T403 363T409 344Q409 332 402 325T387 315T371 312T364 311L79 300ZM367 688Q345 697 322 707T276 728T231 752T188 778Q188 778 185 780T180 787T176 798T180 812Q184 819 190 821T202 824T212 822T216 821Q255 802 297 784T388 742Q388 742 392 739T400
731T407 718T404 700Q401 693 395 691T382 688T372 687T367 688Z" />
<glyph unicode="&#xc9;" horiz-adv-x="557" d="M126 2Q106 3 93 7T72 18T60 33T55 48Q52 120 50 189T47 328T48 470T58 624Q61 638 75 647T116 655L454 652Q454 652 459 652T472 650T487 644T500 632T505 613Q506 600 500 593T487 584T473 581T467 580L137 593Q133
541 131 490T128 389T127 288T129 184T135 72Q174 76 210 80T278 88T340 97T400 106T459 118Q459 118 463 118T475 118T489 115T502 106T510 91Q514 78 512 70T504 57T494 51T490 49Q442 39 397 31T308 18T218 8T126 2ZM79 300L76 373L355 384Q355 384 360 384T374
381T390 375T403 363T409 344Q409 332 402 325T387 315T371 312T364 311L79 300ZM210 684Q210 684 206 683T195 682T183 686T173 696Q168 705 170 713T176 726T185 735T190 738Q239 760 281 779T361 816Q361 816 365 817T375 818T387 817T397 807Q402 799 402 793T398
783T392 776T389 773Q369 760 347 748T302 724T256 703T210 684Z" />
<glyph unicode="&#xca;" horiz-adv-x="557" d="M126 2Q106 3 93 7T72 18T60 33T55 48Q52 120 50 189T47 328T48 470T58 624Q61 638 75 647T116 655L454 652Q454 652 459 652T472 650T487 644T500 632T505 613Q506 600 500 593T487 584T473 581T467 580L137 593Q133
541 131 490T128 389T127 288T129 184T135 72Q174 76 210 80T278 88T340 97T400 106T459 118Q459 118 463 118T475 118T489 115T502 106T510 91Q514 78 512 70T504 57T494 51T490 49Q442 39 397 31T308 18T218 8T126 2ZM79 300L76 373L355 384Q355 384 360 384T374
381T390 375T403 363T409 344Q409 332 402 325T387 315T371 312T364 311L79 300ZM165 690Q158 696 155 701T153 712T155 721T157 724Q170 742 184 757T217 788T255 820Q264 827 275 830T299 831T324 821L422 752Q422 752 425 749T430 740T433 728T425 713Q419 707
412 706T399 705T388 709T383 711L297 775Q278 767 255 746T200 690Q200 690 195 688T182 685T165 690Z" />
<glyph unicode="&#xcb;" horiz-adv-x="557" d="M126 2Q106 3 93 7T72 18T60 33T55 48Q52 120 50 189T47 328T48 470T58 624Q61 638 75 647T116 655L454 652Q454 652 459 652T472 650T487 644T500 632T505 613Q506 600 500 593T487 584T473 581T467 580L137 593Q133
541 131 490T128 389T127 288T129 184T135 72Q174 76 210 80T278 88T340 97T400 106T459 118Q459 118 463 118T475 118T489 115T502 106T510 91Q514 78 512 70T504 57T494 51T490 49Q442 39 397 31T308 18T218 8T126 2ZM79 300L76 373L355 384Q355 384 360 384T374
381T390 375T403 363T409 344Q409 332 402 325T387 315T371 312T364 311L79 300ZM389 702Q376 702 365 707T346 723T339 745Q339 757 346 766T364 782T389 788Q403 788 414 782T432 766T439 745Q439 724 425 713T389 702ZM177 702Q164 702 153 707T135 723T128
745Q128 757 134 766T152 782T177 788Q191 788 202 782T221 766T228 745Q228 731 221 722T203 707T177 702Z" />
<glyph unicode="&#xcc;" horiz-adv-x="182" d="M98 -1Q85 -1 77 4T64 16T57 29T55 34Q51 77 49 134T46 255T46 383T50 508T57 616Q57 616 58 621T62 632T74 642T95 647Q109 647 117 643T129 631T135 618T137 607T137 602Q133 561 131 506T129 389T128 262T130
139T135 31Q135 31 135 26T131 15T120 4T98 -1ZM175 688Q153 697 130 707T84 728T39 752T-4 778Q-4 778 -7 780T-12 787T-16 798T-12 812Q-8 819 -2 821T10 824T20 822T24 821Q63 802 105 784T196 742Q196 742 200 739T208 731T215 718T212 700Q209 693 203 691T190
688T180 687T175 688Z" />
<glyph unicode="&#xcd;" horiz-adv-x="182" d="M98 -1Q85 -1 77 4T64 16T57 29T55 34Q51 77 49 134T46 255T46 383T50 508T57 616Q57 616 58 621T62 632T74 642T95 647Q109 647 117 643T129 631T135 618T137 607T137 602Q133 561 131 506T129 389T128 262T130
139T135 31Q135 31 135 26T131 15T120 4T98 -1ZM17 684Q17 684 13 683T2 682T-10 686T-20 696Q-25 705 -23 713T-17 726T-8 735T-3 738Q46 760 88 779T168 816Q168 816 172 817T182 818T194 817T204 807Q209 799 209 793T205 783T199 776T196 773Q176 760 154 748T109
724T63 703T17 684Z" />
<glyph unicode="&#xce;" horiz-adv-x="182" d="M98 -1Q85 -1 77 4T64 16T57 29T55 34Q51 77 49 134T46 255T46 383T50 508T57 616Q57 616 58 621T62 632T74 642T95 647Q109 647 117 643T129 631T135 618T137 607T137 602Q133 561 131 506T129 389T128 262T130
139T135 31Q135 31 135 26T131 15T120 4T98 -1ZM-27 690Q-34 696 -37 701T-39 712T-37 721T-35 724Q-22 742 -8 757T25 788T63 820Q72 827 83 830T107 831T132 821L230 752Q230 752 233 749T238 740T241 728T233 713Q227 707 220 706T207 705T196 709T191 711L105
775Q86 767 63 746T8 690Q8 690 3 688T-10 685T-27 690Z" />
<glyph unicode="&#xcf;" horiz-adv-x="182" d="M98 -1Q85 -1 77 4T64 16T57 29T55 34Q51 77 49 134T46 255T46 383T50 508T57 616Q57 616 58 621T62 632T74 642T95 647Q109 647 117 643T129 631T135 618T137 607T137 602Q133 561 131 506T129 389T128 262T130
139T135 31Q135 31 135 26T131 15T120 4T98 -1ZM196 702Q183 702 172 707T153 723T146 745Q146 757 153 766T171 782T196 788Q210 788 221 782T239 766T246 745Q246 724 232 713T196 702ZM-16 702Q-29 702 -40 707T-58 723T-65 745Q-65 757 -59 766T-41 782T-16
788Q-2 788 9 782T28 766T35 745Q35 731 28 722T10 707T-16 702Z" />
<glyph unicode="&#xd0;" horiz-adv-x="627" d="M141 -2Q102 -1 80 10T48 39Q46 182 46 324T48 605Q48 633 91 642T208 651Q284 651 337 639T426 604T487 554T535 497Q591 385 579 288T500 105Q459 59 403 36T279 5T141 -2ZM135 77Q232 70 299 85T408 133T470 215T494
328Q489 410 462 462T387 543T277 578T136 578Q130 457 130 332T135 77ZM-30 290Q-31 290 -39 290T-55 294T-68 311Q-71 320 -69 326T-62 336T-54 341T-50 343Q-15 348 14 352T70 358T125 360T187 359T261 352Q261 352 267 351T280 345T292 334T296 318Q295 307
290 301T279 293T268 291T263 290Q223 293 193 294T137 296T88 297T36 295T-30 290Z" />
<glyph unicode="&#xd1;" horiz-adv-x="574" d="M97 -1Q85 0 77 4T64 16T58 27T56 32Q50 86 48 151T45 286T48 423T55 549Q55 549 56 556T65 570T87 580Q96 581 103 579T117 574T124 568Q174 504 226 436T333 298T441 154Q439 205 438 265T438 387T442 508T449
618Q449 618 450 622T454 632T466 642T487 647Q501 647 508 642T520 631T527 618T529 606T529 601Q525 561 523 507T521 390T520 264T522 140T527 31Q527 31 527 27T523 16T513 5T494 -1Q482 -1 473 4T458 17T452 24Q452 24 438 40T401 86T349 152T288 230T227
309T172 383T131 441Q128 381 128 312T129 170T135 31Q135 31 134 26T130 15T118 4T97 -1ZM173 694Q166 689 158 692T144 699T138 703Q123 719 122 735T129 767T155 792T195 805Q231 809 262 799T322 775T385 757Q398 757 408 763T425 780Q425 780 428 785T438
795T459 798Q471 795 476 789T484 777T486 766T485 761Q480 742 462 725T407 703Q386 700 358 707T300 725T245 744Q228 748 211 747T185 739T179 720Q179 720 180 716T182 705T173 694Z" />
<glyph unicode="&#xd2;" horiz-adv-x="757" d="M320 -7Q257 -7 206 16T117 80T61 178T46 303Q49 371 74 434T141 547T238 626T359 656Q409 656 461 645T559 609T641 544T696 446T711 310Q708 246 683 196T618 107T527 44T424 6T320 -7ZM337 73Q375 73 413 83T487
113T552 163T599 234T619 327Q623 396 603 444T547 520T466 562T374 575Q327 575 286 554T212 496T160 410T138 306Q135 233 159 181T229 101T337 73ZM438 688Q416 697 393 707T347 728T302 752T259 778Q259 778 256 780T251 787T247 798T251 812Q255 819 261 821T273
824T283 822T287 821Q326 802 368 784T459 742Q459 742 463 739T471 731T478 718T475 700Q472 693 466 691T453 688T443 687T438 688Z" />
<glyph unicode="&#xd3;" horiz-adv-x="757" d="M320 -7Q257 -7 206 16T117 80T61 178T46 303Q49 371 74 434T141 547T238 626T359 656Q409 656 461 645T559 609T641 544T696 446T711 310Q708 246 683 196T618 107T527 44T424 6T320 -7ZM337 73Q375 73 413 83T487
113T552 163T599 234T619 327Q623 396 603 444T547 520T466 562T374 575Q327 575 286 554T212 496T160 410T138 306Q135 233 159 181T229 101T337 73ZM281 684Q281 684 277 683T266 682T254 686T244 696Q239 705 241 713T247 726T256 735T261 738Q310 760 352 779T432
816Q432 816 436 817T446 818T458 817T468 807Q473 799 473 793T469 783T463 776T460 773Q440 760 418 748T373 724T327 703T281 684Z" />
<glyph unicode="&#xd4;" horiz-adv-x="757" d="M320 -7Q257 -7 206 16T117 80T61 178T46 303Q49 371 74 434T141 547T238 626T359 656Q409 656 461 645T559 609T641 544T696 446T711 310Q708 246 683 196T618 107T527 44T424 6T320 -7ZM337 73Q375 73 413 83T487
113T552 163T599 234T619 327Q623 396 603 444T547 520T466 562T374 575Q327 575 286 554T212 496T160 410T138 306Q135 233 159 181T229 101T337 73ZM236 690Q229 696 226 701T224 712T226 721T228 724Q241 742 255 757T288 788T326 820Q335 827 346 830T370 831T395
821L493 752Q493 752 496 749T501 740T504 728T496 713Q490 707 483 706T470 705T459 709T454 711L368 775Q349 767 326 746T271 690Q271 690 266 688T253 685T236 690Z" />
<glyph unicode="&#xd5;" horiz-adv-x="757" d="M320 -7Q257 -7 206 16T117 80T61 178T46 303Q49 371 74 434T141 547T238 626T359 656Q409 656 461 645T559 609T641 544T696 446T711 310Q708 246 683 196T618 107T527 44T424 6T320 -7ZM337 73Q375 73 413 83T487
113T552 163T599 234T619 327Q623 396 603 444T547 520T466 562T374 575Q327 575 286 554T212 496T160 410T138 306Q135 233 159 181T229 101T337 73ZM238 694Q231 689 223 692T209 699T203 703Q188 719 187 735T194 767T220 792T260 805Q296 809 327 799T387 775T450
757Q463 757 473 763T490 780Q490 780 493 785T503 795T524 798Q536 795 541 789T549 777T551 766T550 761Q545 742 527 725T472 703Q451 700 423 707T365 725T310 744Q293 748 276 747T250 739T244 720Q244 720 245 716T247 705T238 694Z" />
<glyph unicode="&#xd6;" horiz-adv-x="757" d="M320 -7Q257 -7 206 16T117 80T61 178T46 303Q49 371 74 434T141 547T238 626T359 656Q409 656 461 645T559 609T641 544T696 446T711 310Q708 246 683 196T618 107T527 44T424 6T320 -7ZM337 73Q375 73 413 83T487
113T552 163T599 234T619 327Q623 396 603 444T547 520T466 562T374 575Q327 575 286 554T212 496T160 410T138 306Q135 233 159 181T229 101T337 73ZM460 702Q447 702 436 707T417 723T410 745Q410 757 417 766T435 782T460 788Q474 788 485 782T503 766T510 745Q510
724 496 713T460 702ZM248 702Q235 702 224 707T206 723T199 745Q199 757 205 766T223 782T248 788Q262 788 273 782T292 766T299 745Q299 731 292 722T274 707T248 702Z" />
<glyph unicode="&#xd7;" horiz-adv-x="499" d="M434 81Q425 75 417 76T402 80T391 88T387 92Q339 152 294 208T208 318T126 425T49 534Q49 534 48 537T46 547T48 559T60 569Q68 573 76 571T91 565T102 558T106 554Q153 490 205 422T317 278T440 122Q440 122 442
118T447 107T447 93T434 81ZM70 72Q60 78 57 85T54 98T57 108T59 112Q106 168 149 223T234 335T315 449T395 569Q395 569 399 572T411 578T431 576Q442 572 446 566T452 554T453 545T452 541Q410 473 370 411T288 292T203 180T115 73Q115 73 110 70T94 66T70 72Z"
/>
<glyph unicode="&#xd8;" horiz-adv-x="757" d="M320 -7Q257 -7 206 16T117 80T61 178T46 303Q49 371 74 434T141 547T238 626T359 656Q409 656 461 645T559 609T641 544T696 446T711 310Q708 246 683 196T618 107T527 44T424 6T320 -7ZM337 73Q375 73 413 83T487
113T552 163T599 234T619 327Q623 396 603 444T547 520T466 562T374 575Q327 575 286 554T212 496T160 410T138 306Q135 233 159 181T229 101T337 73ZM234 -30Q221 -26 215 -19T207 -5T205 8T206 13Q226 73 255 146T320 304T396 478T480 659Q480 659 482 663T490
671T505 677T528 674Q541 669 546 661T551 645T550 632T548 627Q494 501 444 383T353 164T282 -16Q282 -16 277 -22T261 -32T234 -30Z" />
<glyph unicode="&#xd9;" horiz-adv-x="604" d="M314 -3Q228 3 170 46T81 171T46 370V620Q46 620 47 624T51 634T61 644T82 649Q97 649 107 644T122 631T128 618T130 612L134 378Q132 288 150 222T208 118T311 73Q362 80 398 112T453 211T471 387L468 608Q468 608
468 613T471 623T481 634T503 639Q516 639 525 635T539 624T548 611T552 600T553 595L558 384Q561 306 550 238T512 116T437 31T314 -3ZM381 688Q359 697 336 707T290 728T245 752T202 778Q202 778 199 780T194 787T190 798T194 812Q198 819 204 821T216 824T226
822T230 821Q269 802 311 784T402 742Q402 742 406 739T414 731T421 718T418 700Q415 693 409 691T396 688T386 687T381 688Z" />
<glyph unicode="&#xda;" horiz-adv-x="604" d="M314 -3Q228 3 170 46T81 171T46 370V620Q46 620 47 624T51 634T61 644T82 649Q97 649 107 644T122 631T128 618T130 612L134 378Q132 288 150 222T208 118T311 73Q362 80 398 112T453 211T471 387L468 608Q468 608
468 613T471 623T481 634T503 639Q516 639 525 635T539 624T548 611T552 600T553 595L558 384Q561 306 550 238T512 116T437 31T314 -3ZM223 684Q223 684 219 683T208 682T196 686T186 696Q181 705 183 713T189 726T198 735T203 738Q252 760 294 779T374 816Q374
816 378 817T388 818T400 817T410 807Q415 799 415 793T411 783T405 776T402 773Q382 760 360 748T315 724T269 703T223 684Z" />
<glyph unicode="&#xdb;" horiz-adv-x="604" d="M314 -3Q228 3 170 46T81 171T46 370V620Q46 620 47 624T51 634T61 644T82 649Q97 649 107 644T122 631T128 618T130 612L134 378Q132 288 150 222T208 118T311 73Q362 80 398 112T453 211T471 387L468 608Q468 608
468 613T471 623T481 634T503 639Q516 639 525 635T539 624T548 611T552 600T553 595L558 384Q561 306 550 238T512 116T437 31T314 -3ZM179 690Q172 696 169 701T167 712T169 721T171 724Q184 742 198 757T231 788T269 820Q278 827 289 830T313 831T338 821L436
752Q436 752 439 749T444 740T447 728T439 713Q433 707 426 706T413 705T402 709T397 711L311 775Q292 767 269 746T214 690Q214 690 209 688T196 685T179 690Z" />
<glyph unicode="&#xdc;" horiz-adv-x="604" d="M314 -3Q228 3 170 46T81 171T46 370V620Q46 620 47 624T51 634T61 644T82 649Q97 649 107 644T122 631T128 618T130 612L134 378Q132 288 150 222T208 118T311 73Q362 80 398 112T453 211T471 387L468 608Q468 608
468 613T471 623T481 634T503 639Q516 639 525 635T539 624T548 611T552 600T553 595L558 384Q561 306 550 238T512 116T437 31T314 -3ZM402 702Q389 702 378 707T359 723T352 745Q352 757 359 766T377 782T402 788Q416 788 427 782T445 766T452 745Q452 724 438
713T402 702ZM190 702Q177 702 166 707T148 723T141 745Q141 757 147 766T165 782T190 788Q204 788 215 782T234 766T241 745Q241 731 234 722T216 707T190 702Z" />
<glyph unicode="&#xdd;" horiz-adv-x="534" d="M259 253Q170 265 119 311T52 434T56 611Q56 611 58 617T64 631T77 644T100 646Q116 643 123 636T133 619T136 604T137 597Q119 472 146 403T253 326Q296 333 327 359T377 424T401 508T398 595Q398 595 397 600T397
612T405 626T426 635Q441 637 451 633T467 622T476 610T479 604Q492 548 487 490T455 381T380 296T259 253ZM263 8Q250 8 242 13T229 25T222 37T220 42Q210 101 211 163T221 288L301 290Q291 214 292 152T299 40Q299 40 299 35T295 24T285 13T263 8ZM203 684Q203
684 199 683T188 682T176 686T166 696Q161 705 163 713T169 726T178 735T183 738Q232 760 274 779T354 816Q354 816 358 817T368 818T380 817T390 807Q395 799 395 793T391 783T385 776T382 773Q362 760 340 748T295 724T249 703T203 684Z" />
<glyph unicode="&#xde;" horiz-adv-x="552" d="M275 86Q231 86 194 102T130 148T90 217T80 301Q84 346 103 385T155 454T227 500T310 517Q354 517 391 500T455 453T496 382T506 297Q502 252 483 214T431 147T359 102T275 86ZM98 -1Q85 -1 77 4T64 16T57 29T55
34Q51 77 49 134T46 255T46 383T50 508T57 616Q57 616 58 621T62 632T74 642T95 647Q109 647 117 643T129 631T135 618T137 607T137 602Q133 561 131 506T129 389T128 262T130 139T135 31Q135 31 135 26T131 15T120 4T98 -1ZM282 161Q319 161 350 180T402 233T425
305Q429 345 413 377T369 429T304 449Q267 449 236 430T184 378T160 305Q158 266 173 233T217 181T282 161Z" />
<glyph unicode="&#xdf;" horiz-adv-x="567" d="M98 -1Q86 -1 78 4T65 16T58 28T55 33Q51 75 49 132T46 253T46 382T50 507T57 616Q57 616 58 620T62 631T73 641T94 646Q179 655 253 653T383 633T474 579T515 483Q515 446 500 419T461 373T407 344Q440 330 465
307T506 256T522 193Q520 139 495 101T427 41T332 12Q332 12 324 12T306 13T286 21T274 39Q272 51 276 58T289 70T303 76T310 78Q351 90 379 108T422 151T434 206Q428 236 408 255T358 286T290 301T211 306T128 306L135 31Q135 31 134 26T130 15T119 4T98 -1ZM128
387Q189 384 243 386T340 399T406 431T430 488Q428 524 405 546T342 578T249 589T135 584L128 387Z" />
<glyph unicode="&#xe0;" horiz-adv-x="608" d="M272 3Q221 3 180 21T108 72T62 149T45 243Q46 295 65 341T117 423T194 479T289 500Q359 500 411 474T492 392T521 250Q521 200 503 156T451 77T372 23T272 3ZM275 77Q308 77 339 91T394 131T432 189T447 258Q447
320 427 359T372 418T292 437Q259 437 229 420T177 375T142 311T129 240Q129 193 147 156T198 98T275 77ZM528 1Q514 1 505 6T492 17T488 23Q481 96 478 169T476 319T486 477Q486 477 489 482T500 493T525 498Q540 497 547 491T558 476T562 461T563 454Q559 403
557 354T554 254T557 149T562 33Q562 33 561 28T557 17T547 6T528 1ZM374 546Q352 555 329 565T283 586T238 610T195 636Q195 636 192 638T187 645T183 656T187 670Q191 677 197 679T209 682T219 680T223 679Q262 660 304 642T395 600Q395 600 399 597T407 589T414
576T411 558Q408 551 402 549T389 546T379 545T374 546Z" />
<glyph unicode="&#xe1;" horiz-adv-x="608" d="M272 3Q221 3 180 21T108 72T62 149T45 243Q46 295 65 341T117 423T194 479T289 500Q359 500 411 474T492 392T521 250Q521 200 503 156T451 77T372 23T272 3ZM275 77Q308 77 339 91T394 131T432 189T447 258Q447
320 427 359T372 418T292 437Q259 437 229 420T177 375T142 311T129 240Q129 193 147 156T198 98T275 77ZM528 1Q514 1 505 6T492 17T488 23Q481 96 478 169T476 319T486 477Q486 477 489 482T500 493T525 498Q540 497 547 491T558 476T562 461T563 454Q559 403
557 354T554 254T557 149T562 33Q562 33 561 28T557 17T547 6T528 1ZM217 542Q217 542 213 541T202 540T190 544T180 554Q175 563 177 571T183 584T192 593T197 596Q246 618 288 637T368 674Q368 674 372 675T382 676T394 675T404 665Q409 657 409 651T405 641T399
634T396 631Q376 618 354 606T309 582T263 561T217 542Z" />
<glyph unicode="&#xe2;" horiz-adv-x="608" d="M272 3Q221 3 180 21T108 72T62 149T45 243Q46 295 65 341T117 423T194 479T289 500Q359 500 411 474T492 392T521 250Q521 200 503 156T451 77T372 23T272 3ZM275 77Q308 77 339 91T394 131T432 189T447 258Q447
320 427 359T372 418T292 437Q259 437 229 420T177 375T142 311T129 240Q129 193 147 156T198 98T275 77ZM528 1Q514 1 505 6T492 17T488 23Q481 96 478 169T476 319T486 477Q486 477 489 482T500 493T525 498Q540 497 547 491T558 476T562 461T563 454Q559 403
557 354T554 254T557 149T562 33Q562 33 561 28T557 17T547 6T528 1ZM172 548Q165 554 162 559T160 570T162 579T164 582Q177 600 191 615T224 646T262 678Q271 685 282 688T306 689T331 679L429 610Q429 610 432 607T437 598T440 586T432 571Q426 565 419 564T406
563T395 567T390 569L304 633Q285 625 262 604T207 548Q207 548 202 546T189 543T172 548Z" />
<glyph unicode="&#xe3;" horiz-adv-x="608" d="M272 3Q221 3 180 21T108 72T62 149T45 243Q46 295 65 341T117 423T194 479T289 500Q359 500 411 474T492 392T521 250Q521 200 503 156T451 77T372 23T272 3ZM275 77Q308 77 339 91T394 131T432 189T447 258Q447
320 427 359T372 418T292 437Q259 437 229 420T177 375T142 311T129 240Q129 193 147 156T198 98T275 77ZM528 1Q514 1 505 6T492 17T488 23Q481 96 478 169T476 319T486 477Q486 477 489 482T500 493T525 498Q540 497 547 491T558 476T562 461T563 454Q559 403
557 354T554 254T557 149T562 33Q562 33 561 28T557 17T547 6T528 1ZM174 552Q167 547 159 550T145 557T139 561Q124 577 123 593T130 625T156 650T196 663Q232 667 263 657T323 633T386 615Q399 615 409 621T426 638Q426 638 429 643T439 653T460 656Q472 653
477 647T485 635T487 624T486 619Q481 600 463 583T408 561Q387 558 359 565T301 583T246 602Q229 606 212 605T186 597T180 578Q180 578 181 574T183 563T174 552Z" />
<glyph unicode="&#xe4;" horiz-adv-x="608" d="M272 3Q221 3 180 21T108 72T62 149T45 243Q46 295 65 341T117 423T194 479T289 500Q359 500 411 474T492 392T521 250Q521 200 503 156T451 77T372 23T272 3ZM275 77Q308 77 339 91T394 131T432 189T447 258Q447
320 427 359T372 418T292 437Q259 437 229 420T177 375T142 311T129 240Q129 193 147 156T198 98T275 77ZM528 1Q514 1 505 6T492 17T488 23Q481 96 478 169T476 319T486 477Q486 477 489 482T500 493T525 498Q540 497 547 491T558 476T562 461T563 454Q559 403
557 354T554 254T557 149T562 33Q562 33 561 28T557 17T547 6T528 1ZM396 560Q383 560 372 565T353 581T346 603Q346 615 353 624T371 640T396 646Q410 646 421 640T439 624T446 603Q446 582 432 571T396 560ZM184 560Q171 560 160 565T142 581T135 603Q135 615
141 624T159 640T184 646Q198 646 209 640T228 624T235 603Q235 589 228 580T210 565T184 560Z" />
<glyph unicode="&#xe5;" horiz-adv-x="608" d="M272 3Q221 3 180 21T108 72T62 149T45 243Q46 295 65 341T117 423T194 479T289 500Q359 500 411 474T492 392T521 250Q521 200 503 156T451 77T372 23T272 3ZM275 77Q308 77 339 91T394 131T432 189T447 258Q447
320 427 359T372 418T292 437Q259 437 229 420T177 375T142 311T129 240Q129 193 147 156T198 98T275 77ZM528 1Q514 1 505 6T492 17T488 23Q481 96 478 169T476 319T486 477Q486 477 489 482T500 493T525 498Q540 497 547 491T558 476T562 461T563 454Q559 403
557 354T554 254T557 149T562 33Q562 33 561 28T557 17T547 6T528 1ZM296 541Q268 541 247 554T214 588T202 633Q202 658 215 676T250 706T296 718Q321 718 343 708T380 680T395 636Q395 613 383 591T349 555T296 541ZM297 582Q322 582 336 598T350 633Q350 653
334 664T297 676Q277 676 262 664T247 632Q247 613 261 598T297 582Z" />
<glyph unicode="&#xe6;" horiz-adv-x="1001" d="M709 -10Q643 1 603 27T541 89T512 166T504 248Q504 291 521 336T572 419T652 479T757 497Q816 493 852 474T908 429T935 372T943 316Q942 266 917 234T838 190Q822 187 797 186T744 184T687 185T635 187T597 188T583
189Q585 157 601 127T648 78T725 55Q762 54 795 56T855 62T897 70T912 74Q912 74 916 74T928 75T941 70T952 56Q956 47 955 41T950 30T944 23T940 21Q940 21 919 14T864 -1T788 -13T709 -10ZM272 3Q221 3 180 21T108 72T62 149T45 243Q46 295 65 341T117 423T194
479T289 500Q359 500 411 474T492 392T521 250Q521 200 503 156T451 77T372 23T272 3ZM275 77Q308 77 339 91T394 131T432 189T447 258Q447 320 427 359T372 418T292 437Q259 437 229 420T177 375T142 311T129 240Q129 193 147 156T198 98T275 77ZM528 1Q514 1
505 6T492 17T488 23Q481 96 478 169T476 319T486 477Q486 477 489 482T500 493T525 498Q540 497 547 491T558 476T562 461T563 454Q559 403 557 354T554 254T557 149T562 33Q562 33 561 28T557 17T547 6T528 1ZM581 240L795 243Q795 243 803 244T822 249T845 261T865
285T873 323Q873 362 860 387T816 424T730 433Q691 430 662 409T614 357T587 295T581 240Z" />
<glyph unicode="&#xe7;" horiz-adv-x="553" d="M305 -245Q271 -243 246 -229T200 -196Q200 -196 198 -194T195 -188T194 -180T200 -170Q206 -165 212 -165T223 -166T228 -168Q247 -184 267 -193T313 -204Q338 -202 350 -193T366 -170T368 -139Q364 -120 349 -108T310
-90Q303 -90 296 -87T285 -80T279 -71Q276 -51 276 -31T276 7Q276 7 277 12T282 23T295 28Q306 28 310 18T314 8Q317 -4 320 -20T324 -55Q343 -59 359 -67T387 -86T406 -112T416 -144Q420 -183 407 -205T367 -236T305 -245ZM281 -9Q199 -4 149 26T75 108T46 225Q42
277 57 325T105 412T185 473T292 495Q342 495 376 483T432 452T467 416T485 386T490 374Q490 374 490 369T488 357T475 344Q465 338 453 338T432 341T420 347Q420 347 415 357T397 379T363 401T309 412Q275 412 243 403T186 372T146 317T135 234Q138 177 157 144T209
96T286 75Q319 72 348 79T398 97T432 116T446 126Q455 128 464 128T482 125T500 111Q507 102 507 94T507 81T505 75Q505 75 493 61T455 30T386 1T281 -9Z" />
<glyph unicode="&#xe8;" horiz-adv-x="543" d="M251 -10Q185 1 145 27T83 89T54 166T46 248Q46 291 63 336T114 419T194 479T299 497Q358 493 394 474T450 429T477 372T485 316Q484 266 459 234T380 190Q364 187 339 186T286 184T229 185T177 187T139 188T125
189Q127 157 143 127T190 78T267 55Q304 54 337 56T397 62T439 70T454 74Q454 74 458 74T470 75T483 70T494 56Q498 47 497 41T492 30T486 23T482 21Q482 21 461 14T406 -1T330 -13T251 -10ZM123 240L337 243Q337 243 345 244T364 249T387 261T407 285T415 323Q415
362 402 387T358 424T272 433Q233 430 204 409T156 357T129 295T123 240ZM371 546Q349 555 326 565T280 586T235 610T192 636Q192 636 189 638T184 645T180 656T184 670Q188 677 194 679T206 682T216 680T220 679Q259 660 301 642T392 600Q392 600 396 597T404
589T411 576T408 558Q405 551 399 549T386 546T376 545T371 546Z" />
<glyph unicode="&#xe9;" horiz-adv-x="543" d="M251 -10Q185 1 145 27T83 89T54 166T46 248Q46 291 63 336T114 419T194 479T299 497Q358 493 394 474T450 429T477 372T485 316Q484 266 459 234T380 190Q364 187 339 186T286 184T229 185T177 187T139 188T125
189Q127 157 143 127T190 78T267 55Q304 54 337 56T397 62T439 70T454 74Q454 74 458 74T470 75T483 70T494 56Q498 47 497 41T492 30T486 23T482 21Q482 21 461 14T406 -1T330 -13T251 -10ZM123 240L337 243Q337 243 345 244T364 249T387 261T407 285T415 323Q415
362 402 387T358 424T272 433Q233 430 204 409T156 357T129 295T123 240ZM214 542Q214 542 210 541T199 540T187 544T177 554Q172 563 174 571T180 584T189 593T194 596Q243 618 285 637T365 674Q365 674 369 675T379 676T391 675T401 665Q406 657 406 651T402
641T396 634T393 631Q373 618 351 606T306 582T260 561T214 542Z" />
<glyph unicode="&#xea;" horiz-adv-x="543" d="M251 -10Q185 1 145 27T83 89T54 166T46 248Q46 291 63 336T114 419T194 479T299 497Q358 493 394 474T450 429T477 372T485 316Q484 266 459 234T380 190Q364 187 339 186T286 184T229 185T177 187T139 188T125
189Q127 157 143 127T190 78T267 55Q304 54 337 56T397 62T439 70T454 74Q454 74 458 74T470 75T483 70T494 56Q498 47 497 41T492 30T486 23T482 21Q482 21 461 14T406 -1T330 -13T251 -10ZM123 240L337 243Q337 243 345 244T364 249T387 261T407 285T415 323Q415
362 402 387T358 424T272 433Q233 430 204 409T156 357T129 295T123 240ZM169 548Q162 554 159 559T157 570T159 579T161 582Q174 600 188 615T221 646T259 678Q268 685 279 688T303 689T328 679L426 610Q426 610 429 607T434 598T437 586T429 571Q423 565 416
564T403 563T392 567T387 569L301 633Q282 625 259 604T204 548Q204 548 199 546T186 543T169 548Z" />
<glyph unicode="&#xeb;" horiz-adv-x="543" d="M251 -10Q185 1 145 27T83 89T54 166T46 248Q46 291 63 336T114 419T194 479T299 497Q358 493 394 474T450 429T477 372T485 316Q484 266 459 234T380 190Q364 187 339 186T286 184T229 185T177 187T139 188T125
189Q127 157 143 127T190 78T267 55Q304 54 337 56T397 62T439 70T454 74Q454 74 458 74T470 75T483 70T494 56Q498 47 497 41T492 30T486 23T482 21Q482 21 461 14T406 -1T330 -13T251 -10ZM123 240L337 243Q337 243 345 244T364 249T387 261T407 285T415 323Q415
362 402 387T358 424T272 433Q233 430 204 409T156 357T129 295T123 240ZM393 560Q380 560 369 565T350 581T343 603Q343 615 350 624T368 640T393 646Q407 646 418 640T436 624T443 603Q443 582 429 571T393 560ZM181 560Q168 560 157 565T139 581T132 603Q132
615 138 624T156 640T181 646Q195 646 206 640T225 624T232 603Q232 589 225 580T207 565T181 560Z" />
<glyph unicode="&#xec;" horiz-adv-x="181" d="M98 1Q86 2 78 6T65 17T58 27T56 32Q50 86 48 138T45 244T48 352T56 469Q56 469 57 473T61 483T73 494T95 498Q109 498 117 492T129 478T134 465T136 459Q132 408 130 358T128 256T130 148T135 33Q135 33 135 28T131
17T119 6T98 1ZM431 546Q409 555 386 565T340 586T295 610T252 636Q252 636 249 638T244 645T240 656T244 670Q248 677 254 679T266 682T276 680T280 679Q319 660 361 642T452 600Q452 600 456 597T464 589T471 576T468 558Q465 551 459 549T446 546T436 545T431
546Z" />
<glyph unicode="&#xed;" horiz-adv-x="181" d="M98 1Q86 2 78 6T65 17T58 27T56 32Q50 86 48 138T45 244T48 352T56 469Q56 469 57 473T61 483T73 494T95 498Q109 498 117 492T129 478T134 465T136 459Q132 408 130 358T128 256T130 148T135 33Q135 33 135 28T131
17T119 6T98 1ZM273 542Q273 542 269 541T258 540T246 544T236 554Q231 563 233 571T239 584T248 593T253 596Q302 618 344 637T424 674Q424 674 428 675T438 676T450 675T460 665Q465 657 465 651T461 641T455 634T452 631Q432 618 410 606T365 582T319 561T273
542Z" />
<glyph unicode="&#xee;" horiz-adv-x="181" d="M98 1Q86 2 78 6T65 17T58 27T56 32Q50 86 48 138T45 244T48 352T56 469Q56 469 57 473T61 483T73 494T95 498Q109 498 117 492T129 478T134 465T136 459Q132 408 130 358T128 256T130 148T135 33Q135 33 135 28T131
17T119 6T98 1ZM229 548Q222 554 219 559T217 570T219 579T221 582Q234 600 248 615T281 646T319 678Q328 685 339 688T363 689T388 679L486 610Q486 610 489 607T494 598T497 586T489 571Q483 565 476 564T463 563T452 567T447 569L361 633Q342 625 319 604T264
548Q264 548 259 546T246 543T229 548Z" />
<glyph unicode="&#xef;" horiz-adv-x="181" d="M98 1Q86 2 78 6T65 17T58 27T56 32Q50 86 48 138T45 244T48 352T56 469Q56 469 57 473T61 483T73 494T95 498Q109 498 117 492T129 478T134 465T136 459Q132 408 130 358T128 256T130 148T135 33Q135 33 135 28T131
17T119 6T98 1ZM452 560Q439 560 428 565T409 581T402 603Q402 615 409 624T427 640T452 646Q466 646 477 640T495 624T502 603Q502 582 488 571T452 560ZM240 560Q227 560 216 565T198 581T191 603Q191 615 197 624T215 640T240 646Q254 646 265 640T284 624T291
603Q291 589 284 580T266 565T240 560Z" />
<glyph unicode="&#xf0;" horiz-adv-x="593" d="M288 7Q234 3 188 14T109 52T57 125Q43 161 49 200T86 272T177 324Q237 342 300 339T432 312Q432 333 429 354T421 395T410 434Q394 480 366 516T292 573Q243 586 194 580T92 550Q92 550 88 549T78 547T66 547T55
556Q50 565 51 572T55 585T62 594T66 597Q125 636 189 646T323 640Q359 631 394 603T458 529T504 421T519 280Q511 174 454 105T288 7ZM266 76Q306 78 340 99T398 155T429 235Q371 256 317 265T217 263Q116 233 141 152Q158 119 187 98T266 76ZM253 429Q253 429
249 428T237 426T224 427T213 437Q207 445 207 451T211 462T217 469T220 471Q250 488 276 500T327 523T378 541T436 558T506 576Q506 576 512 576T525 574T539 568T547 554Q550 544 547 537T538 526T528 521T523 519Q485 509 457 502T405 487T360 472T312 453T253
429Z" />
<glyph unicode="&#xf1;" horiz-adv-x="543" d="M439 21Q425 25 418 32T408 47T405 61T404 67Q415 158 413 231T386 345Q365 386 338 404T281 423T220 406Q184 383 163 350T132 280T121 204Q123 170 123 141T124 89T127 52Q127 52 127 49T125 41T118 32T102 27Q92
26 85 30T73 40T68 45Q57 65 57 82T57 121T54 173Q53 208 53 240T58 301T72 356T97 404Q116 429 144 449T205 481T274 494T346 483Q372 471 394 453T435 411T467 355T489 284Q499 229 498 172T486 49Q486 49 485 44T479 32T465 22T439 21ZM98 1Q86 2 78 6T65 17T58
27T56 32Q50 86 48 138T45 244T48 352T56 469Q56 469 57 473T61 483T73 494T95 498Q109 498 117 492T129 478T134 465T136 459Q132 408 130 358T128 256T130 148T135 33Q135 33 135 28T131 17T119 6T98 1ZM148 552Q141 547 133 550T119 557T113 561Q98 577 97 593T104
625T130 650T170 663Q206 667 237 657T297 633T360 615Q373 615 383 621T400 638Q400 638 403 643T413 653T434 656Q446 653 451 647T459 635T461 624T460 619Q455 600 437 583T382 561Q361 558 333 565T275 583T220 602Q203 606 186 605T160 597T154 578Q154 578
155 574T157 563T148 552Z" />
<glyph unicode="&#xf2;" horiz-adv-x="573" d="M273 3Q222 3 180 21T108 73T62 149T45 243Q45 293 64 339T116 422T193 479T289 500Q340 500 383 485T460 440T510 362T528 250Q528 200 508 156T452 77T371 23T273 3ZM273 77Q308 77 339 91T394 131T432 188T446
257Q446 318 426 357T371 415T291 434Q257 434 228 418T176 373T140 310T127 239Q127 191 145 155T196 98T273 77ZM368 546Q346 555 323 565T277 586T232 610T189 636Q189 636 186 638T181 645T177 656T181 670Q185 677 191 679T203 682T213 680T217 679Q256 660
298 642T389 600Q389 600 393 597T401 589T408 576T405 558Q402 551 396 549T383 546T373 545T368 546Z" />
<glyph unicode="&#xf3;" horiz-adv-x="573" d="M273 3Q222 3 180 21T108 73T62 149T45 243Q45 293 64 339T116 422T193 479T289 500Q340 500 383 485T460 440T510 362T528 250Q528 200 508 156T452 77T371 23T273 3ZM273 77Q308 77 339 91T394 131T432 188T446
257Q446 318 426 357T371 415T291 434Q257 434 228 418T176 373T140 310T127 239Q127 191 145 155T196 98T273 77ZM211 542Q211 542 207 541T196 540T184 544T174 554Q169 563 171 571T177 584T186 593T191 596Q240 618 282 637T362 674Q362 674 366 675T376 676T388
675T398 665Q403 657 403 651T399 641T393 634T390 631Q370 618 348 606T303 582T257 561T211 542Z" />
<glyph unicode="&#xf4;" horiz-adv-x="573" d="M273 3Q222 3 180 21T108 73T62 149T45 243Q45 293 64 339T116 422T193 479T289 500Q340 500 383 485T460 440T510 362T528 250Q528 200 508 156T452 77T371 23T273 3ZM273 77Q308 77 339 91T394 131T432 188T446
257Q446 318 426 357T371 415T291 434Q257 434 228 418T176 373T140 310T127 239Q127 191 145 155T196 98T273 77ZM166 548Q159 554 156 559T154 570T156 579T158 582Q171 600 185 615T218 646T256 678Q265 685 276 688T300 689T325 679L423 610Q423 610 426 607T431
598T434 586T426 571Q420 565 413 564T400 563T389 567T384 569L298 633Q279 625 256 604T201 548Q201 548 196 546T183 543T166 548Z" />
<glyph unicode="&#xf5;" horiz-adv-x="573" d="M273 3Q222 3 180 21T108 73T62 149T45 243Q45 293 64 339T116 422T193 479T289 500Q340 500 383 485T460 440T510 362T528 250Q528 200 508 156T452 77T371 23T273 3ZM273 77Q308 77 339 91T394 131T432 188T446
257Q446 318 426 357T371 415T291 434Q257 434 228 418T176 373T140 310T127 239Q127 191 145 155T196 98T273 77ZM168 552Q161 547 153 550T139 557T133 561Q118 577 117 593T124 625T150 650T190 663Q226 667 257 657T317 633T380 615Q393 615 403 621T420 638Q420
638 423 643T433 653T454 656Q466 653 471 647T479 635T481 624T480 619Q475 600 457 583T402 561Q381 558 353 565T295 583T240 602Q223 606 206 605T180 597T174 578Q174 578 175 574T177 563T168 552Z" />
<glyph unicode="&#xf6;" horiz-adv-x="573" d="M273 3Q222 3 180 21T108 73T62 149T45 243Q45 293 64 339T116 422T193 479T289 500Q340 500 383 485T460 440T510 362T528 250Q528 200 508 156T452 77T371 23T273 3ZM273 77Q308 77 339 91T394 131T432 188T446
257Q446 318 426 357T371 415T291 434Q257 434 228 418T176 373T140 310T127 239Q127 191 145 155T196 98T273 77ZM390 560Q377 560 366 565T347 581T340 603Q340 615 347 624T365 640T390 646Q404 646 415 640T433 624T440 603Q440 582 426 571T390 560ZM178 560Q165
560 154 565T136 581T129 603Q129 615 135 624T153 640T178 646Q192 646 203 640T222 624T229 603Q229 589 222 580T204 565T178 560Z" />
<glyph unicode="&#xf7;" horiz-adv-x="488" d="M94 258Q94 258 89 258T76 259T62 266T52 281Q49 292 51 299T58 310T67 315T71 317Q107 323 137 327T196 334T255 336T321 335T399 328Q399 328 405 326T419 319T432 307T437 290Q437 278 431 272T418 263T406 259T400
258Q358 261 327 263T269 265T218 266T163 263T94 258ZM243 115Q230 115 219 120T201 136T194 158Q194 170 200 179T218 195T243 201Q258 201 269 195T287 180T294 158Q294 144 287 134T269 120T243 115ZM243 400Q230 400 219 405T201 421T194 443Q194 455 201
465T219 480T243 486Q257 486 268 480T287 465T294 443Q294 429 287 419T269 405T243 400Z" />
<glyph unicode="&#xf8;" horiz-adv-x="573" d="M273 3Q222 3 180 21T108 73T62 149T45 243Q45 293 64 339T116 422T193 479T289 500Q340 500 383 485T460 440T510 362T528 250Q528 200 508 156T452 77T371 23T273 3ZM165 -79Q155 -76 151 -70T145 -57T143 -47T143
-42Q167 29 202 122T283 320T376 536Q376 536 378 539T385 547T396 552T412 549Q423 544 427 538T431 524T430 513T428 508Q382 395 339 290T261 95T201 -67Q201 -67 198 -72T186 -80T165 -79ZM273 77Q308 77 339 91T394 131T432 188T446 257Q446 318 426 357T371
415T291 434Q257 434 228 418T176 373T140 310T127 239Q127 191 145 155T196 98T273 77Z" />
<glyph unicode="&#xf9;" horiz-adv-x="542" d="M197 11Q171 23 149 41T108 83T76 139T54 211Q44 266 45 324T57 446Q57 446 58 451T64 463T78 474T104 474Q118 471 125 464T135 448T138 435T139 429Q128 337 131 264T157 149Q173 119 192 101T232 76T275 71T318
85Q352 105 371 136T398 204T404 280Q401 315 394 352T381 419T370 464Q370 464 370 467T373 476T381 486T398 492Q411 494 420 489T434 479T439 473Q456 444 469 405T491 322Q499 268 496 225T481 146T446 80Q426 55 399 36T338 8T269 -2T197 11ZM339 546Q317
555 294 565T248 586T203 610T160 636Q160 636 157 638T152 645T148 656T152 670Q156 677 162 679T174 682T184 680T188 679Q227 660 269 642T360 600Q360 600 364 597T372 589T379 576T376 558Q373 551 367 549T354 546T344 545T339 546Z" />
<glyph unicode="&#xfa;" horiz-adv-x="542" d="M197 11Q171 23 149 41T108 83T76 139T54 211Q44 266 45 324T57 446Q57 446 58 451T64 463T78 474T104 474Q118 471 125 464T135 448T138 435T139 429Q128 337 131 264T157 149Q173 119 192 101T232 76T275 71T318
85Q352 105 371 136T398 204T404 280Q401 315 394 352T381 419T370 464Q370 464 370 467T373 476T381 486T398 492Q411 494 420 489T434 479T439 473Q456 444 469 405T491 322Q499 268 496 225T481 146T446 80Q426 55 399 36T338 8T269 -2T197 11ZM182 542Q182
542 178 541T167 540T155 544T145 554Q140 563 142 571T148 584T157 593T162 596Q211 618 253 637T333 674Q333 674 337 675T347 676T359 675T369 665Q374 657 374 651T370 641T364 634T361 631Q341 618 319 606T274 582T228 561T182 542Z" />
<glyph unicode="&#xfb;" horiz-adv-x="542" d="M197 11Q171 23 149 41T108 83T76 139T54 211Q44 266 45 324T57 446Q57 446 58 451T64 463T78 474T104 474Q118 471 125 464T135 448T138 435T139 429Q128 337 131 264T157 149Q173 119 192 101T232 76T275 71T318
85Q352 105 371 136T398 204T404 280Q401 315 394 352T381 419T370 464Q370 464 370 467T373 476T381 486T398 492Q411 494 420 489T434 479T439 473Q456 444 469 405T491 322Q499 268 496 225T481 146T446 80Q426 55 399 36T338 8T269 -2T197 11ZM137 548Q130
554 127 559T125 570T127 579T129 582Q142 600 156 615T189 646T227 678Q236 685 247 688T271 689T296 679L394 610Q394 610 397 607T402 598T405 586T397 571Q391 565 384 564T371 563T360 567T355 569L269 633Q250 625 227 604T172 548Q172 548 167 546T154 543T137
548Z" />
<glyph unicode="&#xfc;" horiz-adv-x="542" d="M197 11Q171 23 149 41T108 83T76 139T54 211Q44 266 45 324T57 446Q57 446 58 451T64 463T78 474T104 474Q118 471 125 464T135 448T138 435T139 429Q128 337 131 264T157 149Q173 119 192 101T232 76T275 71T318
85Q352 105 371 136T398 204T404 280Q401 315 394 352T381 419T370 464Q370 464 370 467T373 476T381 486T398 492Q411 494 420 489T434 479T439 473Q456 444 469 405T491 322Q499 268 496 225T481 146T446 80Q426 55 399 36T338 8T269 -2T197 11ZM361 560Q348
560 337 565T318 581T311 603Q311 615 318 624T336 640T361 646Q375 646 386 640T404 624T411 603Q411 582 397 571T361 560ZM149 560Q136 560 125 565T107 581T100 603Q100 615 106 624T124 640T149 646Q163 646 174 640T193 624T200 603Q200 589 193 580T175
565T149 560Z" />
<glyph unicode="&#xfd;" horiz-adv-x="610" d="M352 -210Q282 -214 220 -202T104 -164Q104 -164 99 -162T89 -154T80 -140T81 -122Q84 -112 91 -108T106 -103T118 -103T124 -104Q158 -117 191 -125T259 -137T329 -138Q376 -136 407 -121T455 -76T475 -2Q479 66
480 127T478 246T469 356T453 461Q453 461 454 467T463 481T486 488Q503 489 513 483T527 470T532 463Q550 389 557 309T565 144T559 -29Q547 -117 495 -161T352 -210ZM212 12Q170 31 138 60T86 126T56 209Q49 247 47 285T48 362T59 445Q59 445 61 450T68 461T82
471T105 474Q119 472 127 467T140 455T146 442T148 432T149 428Q140 361 140 306T147 211T172 147Q208 92 254 78T356 86Q396 104 423 132T463 196T476 273L542 325Q556 244 541 183T488 78Q459 46 416 24T320 -4T212 12ZM221 542Q221 542 217 541T206 540T194
544T184 554Q179 563 181 571T187 584T196 593T201 596Q250 618 292 637T372 674Q372 674 376 675T386 676T398 675T408 665Q413 657 413 651T409 641T403 634T400 631Q380 618 358 606T313 582T267 561T221 542Z" />
<glyph unicode="&#xfe;" horiz-adv-x="552" d="M275 86Q231 86 194 102T130 148T90 217T80 301Q84 346 103 385T155 454T227 500T310 517Q354 517 391 500T455 453T496 382T506 297Q502 252 483 214T431 147T359 102T275 86ZM98 -1Q85 -1 77 4T64 16T57 29T55
34Q51 77 49 134T46 255T46 383T50 508T57 616Q57 616 58 621T62 632T74 642T95 647Q109 647 117 643T129 631T135 618T137 607T137 602Q133 561 131 506T129 389T128 262T130 139T135 31Q135 31 135 26T131 15T120 4T98 -1ZM282 161Q319 161 350 180T402 233T425
305Q429 345 413 377T369 429T304 449Q267 449 236 430T184 378T160 305Q158 266 173 233T217 181T282 161Z" />
<glyph unicode="&#xff;" horiz-adv-x="610" d="M352 -210Q282 -214 220 -202T104 -164Q104 -164 99 -162T89 -154T80 -140T81 -122Q84 -112 91 -108T106 -103T118 -103T124 -104Q158 -117 191 -125T259 -137T329 -138Q376 -136 407 -121T455 -76T475 -2Q479 66
480 127T478 246T469 356T453 461Q453 461 454 467T463 481T486 488Q503 489 513 483T527 470T532 463Q550 389 557 309T565 144T559 -29Q547 -117 495 -161T352 -210ZM212 12Q170 31 138 60T86 126T56 209Q49 247 47 285T48 362T59 445Q59 445 61 450T68 461T82
471T105 474Q119 472 127 467T140 455T146 442T148 432T149 428Q140 361 140 306T147 211T172 147Q208 92 254 78T356 86Q396 104 423 132T463 196T476 273L542 325Q556 244 541 183T488 78Q459 46 416 24T320 -4T212 12ZM400 560Q387 560 376 565T357 581T350
603Q350 615 357 624T375 640T400 646Q414 646 425 640T443 624T450 603Q450 582 436 571T400 560ZM188 560Q175 560 164 565T146 581T139 603Q139 615 145 624T163 640T188 646Q202 646 213 640T232 624T239 603Q239 589 232 580T214 565T188 560Z" />
<glyph unicode="&#x2013;" horiz-adv-x="478" d="M89 281Q88 281 83 281T71 282T57 289T47 304Q44 315 46 321T53 332T62 338T66 340Q102 346 132 350T191 356T250 359T316 357T394 350Q394 350 400 348T414 342T427 330T432 312Q432 300 426 294T413 285T401
282T395 281Q353 284 322 285T264 288T213 288T158 286T89 281Z" />
<glyph unicode="&#x2014;" horiz-adv-x="678" d="M632 312Q632 300 626 294T613 285T601 282T595 281Q553 284 502 285T394 288T283 288T178 286T89 281Q89 281 84 281T71 282T57 289T47 304Q44 315 46 321T53 332T62 338T66 340Q96 345 136 348T224 354T321 358T420
359T513 356T594 350Q594 350 600 348T614 342T627 330T632 312Z" />
<glyph unicode="&#x2018;" horiz-adv-x="196" d="M67 447Q56 452 53 459T49 472T49 478L68 541Q52 560 50 581T58 619T86 638Q103 640 115 636T134 624T146 607T151 587Q151 559 145 535T130 491T107 457Q107 457 102 453T88 446T67 447Z" />
<glyph unicode="&#x2019;" horiz-adv-x="196" d="M110 440Q93 439 81 443T62 454T50 471T45 491Q46 519 51 543T67 588T89 622Q89 622 94 626T108 634T129 631Q141 627 144 620T147 606T147 600L128 538Q145 519 146 498T138 460T110 440Z" />
<glyph unicode="&#x201a;" horiz-adv-x="196" d="M67 -95Q56 -90 53 -83T49 -70T49 -64L68 -2Q52 18 50 39T58 76T86 96Q103 97 115 93T134 82T146 65T151 45Q151 17 145 -7T130 -51T107 -86Q107 -86 102 -90T88 -97T67 -95Z" />
<glyph unicode="&#x201c;" horiz-adv-x="361" d="M232 447Q221 452 218 459T214 472T214 478L233 541Q217 560 215 581T223 619T251 638Q268 640 280 636T299 624T311 607T316 587Q316 559 310 535T295 491T272 457Q272 457 267 453T253 446T232 447ZM67 447Q56
452 53 459T49 472T49 478L68 541Q52 560 50 581T58 619T86 638Q103 640 115 636T134 624T146 607T151 587Q151 559 145 535T130 491T107 457Q107 457 102 453T88 446T67 447Z" />
<glyph unicode="&#x201d;" horiz-adv-x="361" d="M275 440Q258 439 246 443T227 454T215 471T210 491Q211 519 216 543T232 588T254 622Q254 622 259 626T273 634T294 631Q306 627 309 620T312 606T312 600L293 538Q310 519 311 498T303 460T275 440ZM110 440Q93
439 81 443T62 454T50 471T45 491Q46 519 51 543T67 588T89 622Q89 622 94 626T108 634T129 631Q141 627 144 620T147 606T147 600L128 538Q145 519 146 498T138 460T110 440Z" />
<glyph unicode="&#x201e;" horiz-adv-x="351" d="M222 -95Q211 -90 208 -83T204 -70T204 -64L223 -2Q207 18 205 39T213 76T241 96Q258 97 270 93T289 82T301 65T306 45Q306 17 300 -7T285 -51T262 -86Q262 -86 257 -90T243 -97T222 -95ZM67 -95Q56 -90 53 -83T49
-70T49 -64L68 -2Q52 18 50 39T58 76T86 96Q103 97 115 93T134 82T146 65T151 45Q151 17 145 -7T130 -51T107 -86Q107 -86 102 -90T88 -97T67 -95Z" />
<glyph unicode="&#x2022;" horiz-adv-x="249" d="M124 228Q102 228 84 237T56 261T45 296Q45 315 55 331T84 356T124 365Q146 365 164 356T193 331T204 296Q204 274 193 259T164 236T124 228Z" />
<glyph unicode="&#x2039;" horiz-adv-x="318" d="M235 66Q227 59 218 60T200 65T188 73T183 77Q162 100 143 122T107 167T71 217Q56 238 50 255T45 289T54 320Q76 364 100 406T151 486T209 554Q209 554 213 558T224 567T240 573T258 568Q267 563 270 556T272 543T269
532T267 528Q241 494 217 458T170 385T125 304Q108 270 132 239L237 111Q237 111 239 109T245 102T249 91T247 79T235 66Z" />
<glyph unicode="&#x203a;" horiz-adv-x="318" d="M83 66Q74 72 72 78T70 91T73 101T79 108T82 111L187 239Q210 270 194 304Q172 347 149 384T102 458T51 528Q51 528 50 532T47 542T48 556T60 568Q70 574 78 573T94 567T105 558T109 554Q140 524 167 486T218 406T264
320Q271 306 272 290T269 256T247 217Q229 190 212 167T176 122T136 77Q136 77 131 73T118 65T101 60T83 66Z" />
</font>
</defs>
</svg>
