<?xml version="1.0" standalone="no"?>
<!DOCTYPE svg PUBLIC "-//W3C//DTD SVG 1.1//EN" "http://www.w3.org/Graphics/SVG/1.1/DTD/svg11.dtd">
<svg xmlns="http://www.w3.org/2000/svg">
<defs >
<font id="SourGummy" horiz-adv-x="507" ><font-face
    font-family="Sour Gummy Black Medium"
    units-per-em="1000"
    panose-1="0 0 0 0 0 0 0 0 0 0"
    ascent="996"
    descent="-296"
    alphabetic="0" />
<glyph unicode=" " horiz-adv-x="260" />
<glyph unicode="!" horiz-adv-x="221" d="M107 192Q90 194 80 202T66 219T62 227Q59 283 56 343T51 469T52 608Q52 608 53 614T59 630T77 646T112 652Q132 651 145 644T166 627T175 607T177 589T178 582Q174 530 171 487T165 403T159 319T150 219Q150 219 147
212T134 197T107 192ZM106 -2Q88 -2 73 6T49 27T40 56Q40 72 49 85T73 105T106 113Q126 113 141 106T165 85T174 56Q174 36 165 23T141 4T106 -2Z" />
<glyph unicode="&quot;" horiz-adv-x="325" d="M232 494Q217 498 210 506T200 521T197 528Q198 542 197 554T194 579T192 609Q192 609 194 616T205 631T230 639Q249 640 260 634T276 619T282 604T284 598Q285 568 281 548T272 512Q272 512 268 507T256 497T232
494ZM81 494Q66 498 58 506T48 521T45 528Q46 542 45 554T42 579T41 609Q41 609 43 616T53 631T79 639Q97 640 108 634T124 619T130 604T132 598Q134 568 130 548T120 512Q120 512 116 507T104 497T81 494Z" />
<glyph unicode="#" horiz-adv-x="658" d="M480 1Q461 1 450 9T432 27T423 44T421 52Q416 95 414 149T411 263T411 383T416 501T423 606Q423 606 424 612T430 627T446 642T476 649Q495 649 507 642T526 625T534 605T537 588T537 581Q533 541 531 490T529 381T528
264T531 149T535 45Q535 45 534 39T528 23T512 8T480 1ZM184 1Q165 1 154 9T136 27T127 44T125 52Q121 95 119 149T115 263T115 383T120 501T127 606Q127 606 128 612T134 627T150 642T180 649Q199 649 211 642T229 625T238 605T241 588T241 581Q237 541 235 490T233
381T232 264T235 149T239 45Q239 45 238 39T232 23T216 8T184 1ZM96 111Q96 111 88 112T70 119T51 134T41 160Q41 177 47 186T63 199T80 204T88 205Q195 214 314 218T557 225Q557 225 563 224T578 219T596 209T611 193T617 171Q617 154 611 144T596 130T581 124T574
123L96 111ZM96 383Q96 383 88 384T70 390T51 404T41 431Q41 448 47 457T63 471T80 476T88 477Q195 486 314 490T557 496Q557 496 563 495T578 490T596 481T611 465T617 443Q617 426 611 416T596 401T581 396T574 395L96 383Z" />
<glyph unicode="$" horiz-adv-x="510" d="M295 3Q243 -1 202 5T133 20T90 36T75 43Q75 43 71 46T59 55T47 69T41 88T46 110Q53 123 63 128T82 133T97 133T104 131Q142 116 182 109T258 104T318 119T347 156Q352 177 341 194T308 225T258 251T200 276Q182 284 160
298T117 333T81 378T62 432T66 493T105 561Q134 596 167 615T234 642T299 650T354 648T392 640T406 636Q406 636 412 634T428 626T447 614T462 595T464 569Q461 553 452 546T431 537T412 536T404 537Q358 550 316 543T242 517T194 472T184 422Q189 402 211 387T265
358T331 329T394 293T441 246Q465 207 468 172T460 107T423 55T365 19T295 3ZM289 -99Q274 -99 265 -92T251 -78T246 -70Q243 -59 239 -43T231 -9T227 25L341 32Q342 15 341 -5T337 -43T330 -73Q330 -73 327 -79T314 -92T289 -99ZM230 611Q229 629 230 648T234
686T241 716Q241 716 244 722T257 734T282 741Q297 742 306 735T320 720T325 712Q329 702 333 686T340 652T343 618L230 611Z" />
<glyph unicode="%" horiz-adv-x="889" d="M304 8Q288 14 281 23T271 41T269 57T270 64Q296 135 335 227T422 423T522 633Q522 633 525 638T536 650T554 658T582 655Q600 649 607 640T616 620T616 604T614 597Q562 483 516 378T433 183T368 24Q368 24 361 17T341
6T304 8ZM176 336Q112 336 76 377T40 486Q40 520 54 551T93 608T148 647T211 662Q254 662 286 642T336 586T354 504Q354 470 339 440T297 386T240 349T176 336ZM179 420Q195 418 212 428T241 455T257 495Q263 529 252 553T216 580Q200 582 184 571T155 542T139
500Q134 467 144 445T179 420ZM671 1Q607 1 571 42T535 151Q535 185 549 216T588 273T643 313T706 328Q749 328 781 307T831 251T849 169Q849 135 834 105T792 52T735 15T671 1ZM674 85Q690 83 707 93T736 120T753 160Q758 194 747 218T711 245Q695 247 679 237T650
207T634 166Q629 132 639 110T674 85Z" />
<glyph unicode="&amp;" horiz-adv-x="570" d="M118 25Q86 48 67 78T44 142T52 212Q64 245 83 274T127 325T176 355Q131 379 106 417T83 504Q89 543 105 567T147 607T202 631T263 646L387 650Q387 650 394 649T411 646T431 637T448 621T455 595Q455 583 448 575T431
563T414 558T407 556Q356 555 320 552T259 540T214 514Q204 502 199 488T195 459T212 431Q224 421 244 409T298 380Q298 380 303 376T314 363T319 344Q318 333 313 327T302 318T297 315Q267 304 241 286T194 245T163 198Q151 166 155 143T182 107T247 94Q291 106
318 121T361 156T385 198Q395 214 400 227T407 253T409 275Q409 275 409 281T415 296T433 311T468 317Q492 316 504 307T521 286T528 265T529 256Q529 213 517 180T486 121T443 74T394 35Q324 -5 253 -7T118 25ZM280 -99Q266 -99 257 -92T243 -78T238 -70Q235 -59
231 -43T223 -9T219 25L332 32Q334 15 333 -5T329 -43T322 -73Q322 -73 319 -79T306 -92T280 -99ZM222 611Q221 629 222 648T226 686T233 716Q233 716 236 722T248 734T274 741Q289 742 298 735T312 720T317 712Q320 702 324 686T331 652T335 618L222 611Z" />
<glyph unicode="&apos;" horiz-adv-x="173" d="M81 494Q66 498 58 506T48 521T45 528Q46 542 45 554T42 579T41 609Q41 609 43 616T53 631T79 639Q97 640 108 634T124 619T130 604T132 598Q134 568 130 548T120 512Q120 512 116 507T104 497T81 494Z" />
<glyph unicode="(" horiz-adv-x="303" d="M191 -27Q175 -31 163 -28T141 -19T126 -7T120 -1Q75 73 55 164T44 370Q52 422 65 471T102 568T165 666Q165 666 173 673T197 686T230 685Q245 679 252 671T261 655T262 640T258 629T256 624Q229 583 212 547T185 477T169
411T158 343Q154 303 157 258T169 170T191 91T220 33Q220 33 222 26T224 9T217 -11T191 -27Z" />
<glyph unicode=")" horiz-adv-x="303" d="M112 -27Q94 -21 87 -12T79 8T81 25T83 33Q98 55 111 91T134 170T147 258T145 343Q141 378 135 411T119 477T92 546T47 624Q47 624 45 628T42 640T41 655T50 671T73 685Q91 693 106 687T129 674T138 666Q178 616 201 568T238
471T259 370Q268 255 248 164T183 -1Q183 -1 178 -6T163 -18T141 -28T112 -27Z" />
<glyph unicode="*" horiz-adv-x="416" d="M86 430Q76 435 73 441T69 454T69 460Q76 486 91 518T126 581T165 630T198 649Q206 651 216 649T238 642T256 628Q282 584 305 550T343 488Q343 488 344 483T346 470T340 455T322 443Q307 438 296 440T277 449T265 460T261
465L209 556Q186 524 165 493T127 435Q127 435 122 432T108 427T86 430ZM353 519Q278 527 207 530T70 525Q70 525 64 527T50 534T41 550Q40 564 46 570T60 579T68 582Q115 591 157 593T244 594T339 584Q339 584 344 583T356 577T369 565T375 546Q375 536 370 530T359
522T353 519Z" />
<glyph unicode="+" horiz-adv-x="510" d="M256 61Q236 62 224 70T206 88T198 107T196 115Q193 177 193 231T194 336T198 434T205 534Q205 534 206 541T212 556T227 571T257 578Q277 578 289 571T308 555T316 535T319 519T320 512Q316 449 314 386T311 255T311
109Q311 109 310 102T304 85T288 68T256 61ZM41 312Q41 331 49 343T67 361T86 369T95 371Q130 376 161 378T222 382T283 382T349 377T425 369Q425 369 432 367T448 360T463 343T469 314Q468 295 461 284T443 267T423 259T406 257T399 258Q356 263 318 265T243 268T170
267T91 261Q91 261 84 261T67 266T50 281T41 312Z" />
<glyph unicode="," horiz-adv-x="218" d="M75 -98Q59 -92 53 -82T47 -64T46 -55L61 -2Q44 19 44 42T56 84T91 106Q116 107 132 101T158 85T172 63T178 40Q178 15 172 -9T155 -53T130 -86Q130 -86 123 -91T104 -100T75 -98Z" />
<glyph unicode="-" horiz-adv-x="494" d="M100 268Q99 268 92 268T75 270T57 280T43 301Q38 316 41 326T50 341T61 349T66 352Q98 357 128 362T190 370T254 373T323 372T402 365Q402 365 410 362T428 353T446 336T454 312Q453 295 446 286T429 272T412 267T405
266Q363 269 331 270T273 273T221 274T167 272T100 268Z" />
<glyph unicode="." horiz-adv-x="214" d="M107 -2Q88 -2 73 6T49 27T40 56Q40 72 49 85T73 105T106 113Q126 113 141 106T165 85T174 56Q174 25 155 12T107 -2Z" />
<glyph unicode="/" horiz-adv-x="429" d="M76 8Q60 14 52 23T42 41T41 57T42 64Q67 135 106 227T194 423T293 633Q293 633 296 638T307 650T326 658T354 655Q372 649 379 640T388 620T388 604T386 597Q334 483 288 378T205 183T140 24Q140 24 133 17T112 6T76 8Z" />
<glyph unicode="0" horiz-adv-x="609" d="M258 -5Q192 -5 142 35T64 145T41 307Q44 375 63 438T115 552T192 632T289 662Q329 662 370 651T448 616T513 551T557 452T568 315Q566 251 546 200T494 110T423 46T341 8T258 -5ZM90 159L66 242Q162 310 274 357T515
436L545 340Q423 324 310 278T90 159ZM277 111Q309 111 341 124T400 165T445 234T465 332Q468 394 455 436T417 503T363 539T301 550Q270 550 243 532T194 480T159 405T144 314Q142 250 158 205T205 135T277 111Z" />
<glyph unicode="1" horiz-adv-x="394" d="M297 4Q276 4 264 13T247 33T239 53T237 62Q232 106 230 162T227 279T227 398T233 505L123 406Q123 406 118 403T104 398T83 398T58 411Q46 421 43 431T41 449T46 463T49 468L197 592Q230 622 260 634T312 642Q327 639
335 631T348 612T352 596T353 589Q349 549 348 498T346 388T345 270T348 154T352 51Q352 51 351 44T345 27T329 10T297 4Z" />
<glyph unicode="2" horiz-adv-x="492" d="M142 2Q129 1 116 6T93 21T81 45T85 74Q159 188 206 273T273 414T286 500Q277 528 260 543T216 561Q187 559 163 547T120 518Q120 518 115 515T100 509T80 508T56 520Q47 528 44 535T41 550T44 562T50 571Q73 596 98 613T154
639T223 650Q271 648 308 627T369 571T403 494T401 410Q391 370 375 330T338 249T292 169T237 90H402Q402 90 409 88T426 82T443 69T451 48Q452 35 447 27T436 15T424 10T418 8L142 2Z" />
<glyph unicode="3" horiz-adv-x="464" d="M253 7Q228 8 201 14T149 31T102 59T62 95Q62 95 57 100T46 115T41 136T51 160Q61 171 73 172T96 170T114 163T121 159Q136 148 153 136T191 114T236 100Q260 105 275 116T299 143T308 180T306 221Q292 261 259 282T182
314Q171 316 163 325T154 344T160 364T186 378Q193 381 208 385T244 398T284 426Q300 445 305 468T306 514T280 553Q264 562 239 563T185 561T125 550Q125 550 119 550T104 552T87 560T73 575Q67 586 67 595T73 609T82 617T86 620Q120 636 150 644T210 650Q229
652 251 649T296 639T339 619Q368 598 386 569T410 506T410 442T385 386Q378 378 368 369T348 351T328 338Q348 325 367 307T401 263T422 199Q428 151 416 115T378 55T320 19T253 7Z" />
<glyph unicode="4" horiz-adv-x="498" d="M406 3Q386 3 374 10T355 28T345 45T342 53Q338 96 336 141T333 232T331 322T332 410T334 495L187 337Q180 325 174 314T168 294T175 284L360 294L369 206Q332 202 297 200T225 198T144 199Q103 204 80 220T47 258T42
303T62 348Q110 403 151 447T227 523Q264 562 298 592T360 643Q375 651 391 650T422 642T446 623T455 596Q451 556 450 504T448 393T448 274T451 157T456 50Q456 50 456 43T451 27T436 11T406 3Z" />
<glyph unicode="5" horiz-adv-x="471" d="M232 10Q200 10 169 18T109 43T58 84Q58 84 54 89T46 102T45 121T58 142Q71 154 84 154T106 152T115 148Q136 133 161 120T210 102Q249 107 272 123T306 163T317 210Q315 227 309 245T292 278T267 301T232 306L130 277Q119
273 106 274T81 281T61 299T50 329Q47 388 45 442T42 539T41 601Q43 606 45 613T53 628T71 639T103 643L355 642Q355 642 360 641T374 637T391 628T405 612T410 587Q410 573 403 566T386 556T369 553T361 552L144 559Q146 531 149 483T155 386Q190 394 218 395T270
393T318 377Q360 358 385 328T421 263T430 193T416 131Q397 91 368 64T304 24T232 10Z" />
<glyph unicode="6" horiz-adv-x="573" d="M278 7Q170 35 110 105T41 281Q40 359 57 421T103 530T169 604T241 642Q310 659 376 648T501 597Q501 597 506 592T515 579T521 559T514 537Q508 528 500 525T483 522T469 525T463 527Q419 543 376 549T287 546Q252 530
230 503T193 439Q189 426 184 410T174 375T169 338Q231 354 287 354T399 338Q458 319 490 283T529 205T519 124Q500 79 465 52T382 14T278 7ZM300 106Q339 107 362 123T399 165Q419 228 339 252Q302 261 260 254T172 229Q178 195 196 168T242 124T300 106Z" />
<glyph unicode="7" horiz-adv-x="461" d="M366 4Q347 4 335 11T317 29T308 46T306 54Q302 103 300 167T297 302T297 439T303 561Q268 564 236 563T170 559T100 551Q100 551 93 551T74 553T54 561T42 581Q39 595 43 603T54 616T67 623T73 625Q118 640 167 646T266
653T365 646Q386 645 397 636T414 615T420 595T421 586Q417 546 416 495T414 386T414 271T416 156T421 50Q421 50 420 43T413 27T396 10T366 4Z" />
<glyph unicode="8" horiz-adv-x="544" d="M274 281Q226 281 184 292T109 325T59 377T40 446Q40 485 53 522T93 589T165 636T270 652Q318 651 360 637T435 597T486 538T504 467Q504 429 486 396T435 337T361 296T274 281ZM274 -2Q226 -2 184 9T109 42T59 95T40
164Q40 202 53 239T93 306T165 353T270 369Q318 368 360 354T435 314T486 256T504 184Q504 146 486 113T435 54T361 13T274 -2ZM263 95Q284 95 305 103T345 123T373 153T384 188Q384 206 374 221T347 248T307 265T262 270Q224 269 200 255T166 219T155 173Q155
148 169 131T207 105T263 95ZM263 378Q284 378 305 385T345 406T373 436T384 471Q384 489 374 504T347 531T307 548T262 553Q224 552 200 538T166 502T155 456Q155 432 169 415T207 388T263 378Z" />
<glyph unicode="9" horiz-adv-x="572" d="M331 15Q262 -3 197 8T72 59Q72 59 67 64T57 77T51 97T58 120Q64 129 72 132T89 134T103 132T109 130Q154 114 197 108T286 111Q321 126 343 154T379 218Q384 231 389 247T398 281T404 318Q342 302 286 302T173 318Q115
337 83 373T44 452T53 533Q73 578 108 605T192 643T295 649Q403 621 463 551T531 375Q533 297 516 235T469 127T403 53T331 15ZM233 404Q270 396 312 403T401 427Q395 462 377 489T331 532T272 551Q233 550 210 534T174 492Q152 429 233 404Z" />
<glyph unicode=":" horiz-adv-x="214" d="M106 339Q88 339 73 346T49 367T40 397Q40 413 49 426T73 446T106 454Q126 454 141 447T165 426T174 397Q174 377 165 364T141 345T106 339ZM106 140Q88 140 73 147T49 168T40 197Q40 213 49 226T73 247T106 255Q126 255
141 247T165 226T174 197Q174 177 165 164T141 146T106 140Z" />
<glyph unicode=";" horiz-adv-x="221" d="M78 50Q62 57 56 67T50 85T49 93L64 146Q47 168 47 191T59 232T94 254Q119 255 135 249T160 233T174 212T181 189Q181 163 175 139T158 95T133 62Q133 62 126 57T107 48T78 50ZM110 335Q91 335 76 342T52 363T43 393Q43
409 52 422T76 443T110 451Q129 451 144 443T168 422T177 393Q177 373 168 360T144 341T110 335Z" />
<glyph unicode="&lt;" horiz-adv-x="381" d="M253 7Q231 2 216 8T192 22T184 30Q149 90 117 146T51 264Q38 285 41 313T65 366L246 626Q246 626 254 633T277 644T312 638Q328 630 334 620T340 601T338 585T336 578L167 319Q148 292 160 270L285 59Q285 59 286
53T285 37T276 19T253 7Z" />
<glyph unicode="=" horiz-adv-x="477" d="M437 187Q436 170 429 161T412 147T395 141T388 140Q350 143 320 145T263 147T211 148T159 146T99 141Q99 141 92 141T76 143T57 153T43 175Q38 190 41 199T50 215T62 223T68 225Q112 235 161 241T267 248T388 240Q388
240 395 237T413 227T430 210T437 187ZM437 374Q436 358 429 349T412 335T395 329T388 328Q350 331 320 333T263 335T211 336T159 333T99 328Q99 328 92 328T76 331T57 341T43 363Q38 378 41 387T50 402T62 410T68 413Q112 422 161 428T267 435T388 427Q388 427
395 424T413 415T430 398T437 374Z" />
<glyph unicode="&gt;" horiz-adv-x="381" d="M128 7Q112 11 105 19T96 36T95 52T96 59L221 270Q233 292 214 319L45 578Q45 578 43 584T41 600T47 620T69 638Q89 648 104 644T127 633T135 626L316 366Q337 341 340 313T330 264Q297 203 265 147T197 30Q197 30
189 23T166 9T128 7Z" />
<glyph unicode="?" horiz-adv-x="539" d="M283 169Q264 171 253 179T237 197T231 215T230 223Q225 253 234 279T262 327T304 369Q331 395 348 416T374 460T378 508Q371 526 354 537T316 553T271 556Q236 554 206 543T160 508Q155 498 154 486T157 461T173 430Q173
430 175 424T178 407T167 389Q153 380 140 379T115 382T98 390T91 395Q48 437 43 480T69 578Q88 603 118 620T188 646T272 655Q319 655 362 642T438 601T489 529Q495 508 497 484T494 433T468 376T412 311Q375 284 353 260T327 208Q327 208 324 198T311 178T283
169ZM284 -2Q266 -2 251 6T227 27T218 56Q218 72 227 85T251 105T284 113Q303 113 318 106T342 85T352 56Q352 36 343 23T318 4T284 -2Z" />
<glyph unicode="@" horiz-adv-x="871" d="M338 -147Q278 -133 226 -102T134 -24T68 81Q35 180 43 271T95 456Q135 527 191 575T321 648T485 668Q523 667 564 657T644 628T718 580T779 509T819 414Q833 346 831 287T814 177T777 77Q758 48 732 35T676 22T619 40Q594
59 578 106T560 242Q534 203 510 169T459 110T400 69Q372 58 347 62T302 80T272 110Q247 147 245 199T259 315Q284 395 329 441T444 487Q507 485 553 452T633 348Q635 344 637 325T641 281T647 231T653 186T659 160Q670 132 683 135T711 172Q730 235 735 291T729
401Q709 465 673 505T590 564T488 585Q421 588 364 569T261 512T184 415Q157 364 146 310T137 203T157 102Q173 68 195 36T252 -21T337 -61Q363 -65 391 -63T450 -51T507 -21Q507 -21 517 -17T543 -14T575 -31Q587 -42 589 -52T590 -71T585 -84T581 -90Q547 -117
508 -131T425 -149T338 -147ZM361 154Q375 151 394 170T433 219Q454 250 475 284T517 356Q497 388 476 399T430 405Q404 398 384 365T348 274Q342 244 342 217T346 173T361 154Z" />
<glyph unicode="A" horiz-adv-x="556" d="M101 -1Q78 2 66 12T48 33T42 53T41 61Q44 147 63 236T110 417Q133 483 154 526T195 595T237 632T281 643Q298 646 317 636T356 604T393 550T421 476Q431 448 445 401T472 296T497 172T515 42Q515 42 515 35T510 20T495
4T464 -3Q444 -3 431 4T411 21T401 38T398 46Q384 130 371 201T344 327Q330 382 316 424T285 504Q272 481 259 452T234 392T214 331Q203 285 195 249T180 179T170 112T163 38Q163 38 161 31T153 16T134 2T101 -1ZM120 91L131 172Q178 183 224 189T318 196T419 193L431
96Q396 102 355 105T272 109T190 104T120 91Z" />
<glyph unicode="B" horiz-adv-x="569" d="M359 11Q306 4 255 1T160 0T87 15T51 51Q47 94 44 148T41 262T41 382T45 500T52 605Q54 613 59 623T76 641T110 649L328 648Q372 642 409 624T475 579T516 518Q527 489 525 462T511 410T478 366T429 334Q457 320 479 296T514
241T528 180Q527 139 509 106T453 50T359 11ZM165 103Q208 102 247 103T317 111T368 131Q419 167 402 214Q394 238 377 252T336 273T288 281L160 280Q159 236 160 192T165 103ZM162 400Q206 398 248 399T334 409Q363 420 381 437T401 480Q399 509 377 528T309 555Q296
557 274 558T224 559T168 560L162 400Z" />
<glyph unicode="C" horiz-adv-x="628" d="M282 8Q220 20 176 48T102 115T59 198T41 286T46 366Q54 410 76 459T135 552T225 623T349 651Q414 651 463 626T543 562T583 478T580 395Q580 395 575 388T559 374T530 369Q511 372 501 382T487 401T483 411Q483 411 483
422T478 452T464 490T434 524T382 546Q346 551 312 536T250 492T201 427T170 353T162 285Q164 252 175 225T202 176T237 140T278 117T320 106Q347 105 374 116T424 146T456 185Q456 185 460 191T475 203T499 211T535 204Q552 196 560 187T570 167T571 149T567 136T565
131Q565 131 556 115T527 77T474 35T394 6T282 8Z" />
<glyph unicode="D" horiz-adv-x="632" d="M150 -2Q105 0 80 16T46 55Q42 192 42 326T46 592Q46 628 92 640T217 651Q293 651 346 638T435 603T497 553T546 496Q602 384 591 287T510 104Q469 58 412 35T288 4T150 -2ZM165 111Q247 106 303 118T395 160T447 232T467
329Q463 401 440 446T377 516T284 546T166 546Q161 442 161 333T165 111Z" />
<glyph unicode="E" horiz-adv-x="553" d="M134 2Q107 4 91 12T66 30T55 51T49 70Q46 142 44 206T41 334T43 466T53 614Q56 628 71 640T117 654H431Q431 654 438 654T457 651T480 643T498 626T507 599Q507 581 500 572T482 558T465 552T457 551L166 563Q162 511
160 466T158 378T158 294T160 205T163 104Q200 108 229 111T284 118T333 125T383 134T437 145Q437 145 443 145T459 144T479 139T498 126T510 105Q515 87 512 76T501 58T488 49T482 46Q435 36 393 28T309 15T225 6T134 2ZM78 284L72 387L351 398Q351 398 358 397T375
393T394 383T411 367T418 343Q418 325 410 315T391 301T372 296T363 295L78 284Z" />
<glyph unicode="F" horiz-adv-x="548" d="M115 6Q94 6 81 15T62 35T53 54T50 63Q47 136 45 201T42 330T43 462T53 612Q55 624 62 634T81 651T108 657L442 654Q442 654 448 653T465 649T485 640T501 623T508 597Q508 580 501 571T484 557T467 552T460 551L166 562Q163
498 161 440T159 323T161 200T166 60Q166 60 166 52T161 33T147 14T115 6ZM78 284L73 387L352 398Q352 398 358 397T375 393T395 383T411 367T418 343Q418 325 410 315T391 301T372 296T364 295L78 284Z" />
<glyph unicode="G" horiz-adv-x="620" d="M233 12Q189 23 153 46T92 104T53 187T41 298Q49 359 67 414T121 517T218 605Q290 649 358 650T490 617Q523 597 542 570T571 513T579 451T568 391Q568 391 564 386T551 375T527 372Q510 374 501 384T487 404T483 414Q486
432 483 458T472 511Q464 525 447 534T407 545T359 542T309 520Q271 497 242 467T193 398T165 305Q157 239 174 195T228 126Q260 113 291 107T356 102T425 119Q449 131 459 146T456 179Q435 192 406 203T342 221Q342 221 339 224T331 232T323 246T322 264Q324 277
331 282T344 289T350 291Q380 293 409 286T464 268T510 244Q532 228 548 208T570 164T571 116T541 67Q517 43 482 27T406 2T320 -4T233 12Z" />
<glyph unicode="H" horiz-adv-x="599" d="M111 1Q92 1 80 9T62 27T53 44T51 52Q47 95 45 149T41 263T41 383T46 501T53 606Q53 606 54 612T60 627T75 642T106 649Q125 648 137 642T156 625T164 605T167 589T167 582Q163 541 161 490T159 381T158 264T161 149T165
45Q165 45 164 39T158 23T142 8T111 1ZM91 218L106 324L478 351L480 242L91 218ZM502 1Q483 1 471 9T453 27T445 44T442 52Q438 95 436 149T433 263T433 383T437 501T444 606Q444 606 445 612T451 627T467 642T497 649Q517 648 529 642T547 625T556 605T559 589T559
582Q555 541 553 490T551 381T550 264T552 149T557 45Q557 45 556 39T550 23T534 8T502 1Z" />
<glyph unicode="I" horiz-adv-x="208" d="M111 1Q92 1 80 9T62 27T53 44T51 52Q47 95 45 149T41 263T41 383T46 501T53 606Q53 606 54 612T60 627T75 642T106 649Q125 648 137 642T156 625T164 605T167 589T167 582Q163 541 161 490T159 381T158 264T161 149T165
45Q165 45 164 39T158 23T142 8T111 1Z" />
<glyph unicode="J" horiz-adv-x="469" d="M235 4Q202 6 168 18T102 52T48 107Q48 107 46 112T41 126T42 145T56 164Q68 174 80 176T103 177T120 171T127 167Q142 156 153 145T174 125T195 111T221 106Q260 111 279 146T305 233Q307 269 305 321T298 441T290 587Q290
587 290 596T294 616T308 637T339 648Q361 647 374 638T395 616T404 595T407 585Q413 509 418 449T425 341T428 259T426 198Q417 136 390 93T323 28T235 4Z" />
<glyph unicode="K" horiz-adv-x="523" d="M413 -1Q395 -4 381 0T358 12T344 25T339 32Q311 86 284 122T230 181T175 220T113 248L115 364Q183 383 229 414T305 482T351 552T375 611Q375 611 377 617T387 629T407 640T438 640Q458 636 467 626T480 605T483 586T482
577Q479 538 464 501T425 431T372 370T311 322T249 292Q295 268 334 229T403 143T452 54Q452 54 453 48T453 31T441 12T413 -1ZM111 1Q92 1 80 9T62 27T53 44T51 52Q47 95 45 149T41 263T41 383T46 501T53 606Q53 606 54 612T60 627T76 642T106 649Q126 648 138
642T156 625T164 605T167 589T167 582Q163 541 161 490T159 381T158 264T161 149T165 45Q165 45 164 39T158 23T142 8T111 1Z" />
<glyph unicode="L" horiz-adv-x="554" d="M136 2Q112 1 96 7T71 23T57 45T50 67Q47 125 45 177T42 278T41 379T44 486T52 606Q52 606 53 613T60 630T77 646T111 651Q131 650 142 641T159 621T166 602T167 594Q160 466 159 344T165 104Q218 109 264 115T354 129T439
145Q439 145 445 145T461 145T481 141T499 131T511 111Q516 93 513 81T504 61T493 50T488 47Q439 37 395 29T309 16T224 7T136 2Z" />
<glyph unicode="M" horiz-adv-x="729" d="M111 1Q92 2 81 9T63 27T54 44T51 52Q45 106 43 169T40 301T43 435T51 563Q51 563 52 569T58 583T72 597T98 605Q113 606 130 602T162 579Q190 539 213 505T258 441T299 383T340 327Q367 353 392 383T445 449T504 528T574
624Q574 624 580 631T598 644T632 648Q653 646 665 637T682 617T688 598T689 590Q685 549 683 498T681 388T681 271T683 155T688 49Q688 49 687 42T680 25T664 8T633 1Q615 2 603 9T585 26T576 43T573 50Q568 87 566 132T563 224T563 320T567 414Q530 361 495 316T420
235Q395 211 364 208T301 223Q281 247 258 272T211 328T160 399Q159 360 159 325T158 258T158 192T161 124T165 47Q165 47 164 40T158 23T142 7T111 1Z" />
<glyph unicode="N" horiz-adv-x="598" d="M110 1Q91 2 80 9T62 25T53 42T50 49Q44 103 42 165T40 292T43 420T49 541Q49 541 51 550T61 569T90 584Q102 587 113 584T133 577T143 571Q187 522 234 465T332 343T435 212Q434 255 433 303T433 403T436 507T443 610Q443
610 444 616T451 629T467 642T496 648Q516 647 528 641T546 624T555 604T558 588T558 581Q554 540 552 489T550 382T549 267T551 152T556 47Q556 47 555 41T550 26T537 10T511 1Q494 -1 480 7T458 23T450 32Q450 32 438 46T405 86T358 144T304 211T248 280T198
344T159 396Q158 346 158 290T159 172T164 46Q164 46 163 39T156 23T140 7T110 1Z" />
<glyph unicode="O" horiz-adv-x="750" d="M316 -7Q253 -7 201 16T112 80T56 178T41 303Q44 371 68 434T135 547T233 626T355 656Q406 656 457 645T556 610T639 545T694 447T709 310Q706 246 681 196T615 107T524 44T421 6T316 -7ZM340 108Q372 108 404 116T467
142T522 186T562 248T579 328Q583 389 566 430T519 497T450 533T371 544Q331 544 296 526T234 475T190 401T171 310Q168 247 188 202T247 132T340 108Z" />
<glyph unicode="P" horiz-adv-x="567" d="M110 1Q90 2 78 10T60 28T51 45T49 53Q46 89 44 140T41 251T41 373T44 495T51 602Q51 602 51 608T57 623T73 639T103 649Q227 659 317 649T456 590Q505 543 519 487T517 378T453 281Q433 263 400 250T327 230T243 221T157
226L163 45Q163 45 162 38T155 23T139 8T110 1ZM157 326Q224 321 270 326T346 347T388 385T403 438Q403 479 386 505T336 545T261 561T165 560Q159 500 158 442T157 326Z" />
<glyph unicode="Q" horiz-adv-x="750" d="M316 -7Q253 -7 201 16T112 80T56 178T41 303Q44 371 68 434T135 547T233 626T355 656Q406 656 457 645T556 610T639 545T694 447T709 310Q706 246 681 196T615 107T524 44T421 6T316 -7ZM457 -133Q439 -137 425 -133T400
-122T385 -108T380 -101Q359 -42 343 7T315 103T294 198Q294 198 294 204T296 220T305 237T325 246Q342 249 353 242T371 226T378 218Q392 185 410 139T450 39T491 -73Q491 -73 492 -80T493 -98T484 -118T457 -133ZM340 108Q372 108 404 116T467 142T522 186T562
248T579 328Q583 389 566 430T519 497T450 533T371 544Q331 544 296 526T234 475T190 401T171 310Q168 247 188 202T247 132T340 108Z" />
<glyph unicode="R" horiz-adv-x="557" d="M111 6Q90 7 78 15T59 34T51 53T49 62Q46 97 44 147T42 256T42 376T45 495T52 602Q52 602 52 608T58 623T74 639T104 649Q228 659 313 649T447 590Q495 543 509 487T507 378T443 281Q423 263 392 248T322 223T242 210T158
213L163 50Q163 50 162 43T155 27T140 12T111 6ZM397 43Q356 69 312 93T219 144T112 201Q111 207 120 214T144 229T173 243T197 253T207 257Q236 244 260 234T306 213T351 190T401 160T463 119Q463 119 467 116T475 105T481 90T482 70T470 47Q462 37 450 35T425
34T405 39T397 43ZM158 324Q221 320 263 329T332 357T370 398T385 444Q385 482 367 506T318 542T247 558T165 560Q160 501 158 441T158 324Z" />
<glyph unicode="S" horiz-adv-x="510" d="M295 4Q243 1 202 6T133 21T90 37T75 45Q75 45 71 48T59 57T47 71T41 89T46 111Q53 124 63 129T82 134T97 134T104 132Q142 117 182 111T258 106T318 121T347 158Q352 179 341 195T308 226T258 253T200 278Q182 286 160
300T117 334T81 379T62 433T66 494T105 562Q134 597 167 616T234 643T299 652T354 649T392 641T406 637Q406 637 412 635T428 628T447 615T462 596T464 570Q461 554 452 547T431 537T412 536T404 537Q358 551 316 544T242 518T194 473T184 423Q189 404 211 389T265
359T331 330T394 294T441 247Q465 208 468 173T460 108T423 56T365 20T295 4Z" />
<glyph unicode="T" horiz-adv-x="567" d="M289 1Q270 1 258 9T240 27T231 44T229 52Q223 106 221 173T218 312T222 455T230 586Q230 586 231 592T237 607T253 622T283 629Q308 628 320 620T338 601T344 582T345 573Q341 533 339 482T337 375T337 261T339 148T344
45Q344 45 343 39T337 23T321 8T289 1ZM475 537Q435 542 389 545T294 548T199 548T110 545Q110 545 104 545T88 546T68 552T51 564T41 586Q39 600 44 609T57 623T74 631T89 635T95 636Q188 646 280 649T464 640Q464 640 470 639T486 633T505 622T520 605T526 580Q526
563 518 554T500 542T483 538T475 537Z" />
<glyph unicode="U" horiz-adv-x="612" d="M316 -3Q230 3 170 44T78 165T41 362V612Q41 612 42 617T48 631T63 644T91 650Q114 650 128 642T149 624T158 605T161 597L164 363Q164 284 180 228T230 140T311 103Q355 110 385 139T432 229T447 392L444 597Q444 597
444 603T448 619T463 634T494 641Q514 642 527 635T549 618T560 597T565 579T567 572L572 373Q573 297 562 230T523 112T444 30T316 -3Z" />
<glyph unicode="V" horiz-adv-x="585" d="M289 3Q247 6 215 35T157 117T112 243T75 406T41 603Q41 603 42 609T47 624T62 640T93 647Q112 648 124 641T144 624T154 607T157 600Q170 529 183 466T210 350T237 254T263 182T286 139Q299 148 315 178T348 255T380
359T406 479T423 602Q423 602 425 609T433 624T451 637T484 640Q508 636 520 627T538 607T543 588T544 580Q534 480 515 392T471 232T415 107T353 28T289 3Z" />
<glyph unicode="W" horiz-adv-x="968" d="M289 3Q247 6 215 35T157 117T112 243T75 406T41 603Q41 603 42 609T47 624T62 640T93 647Q112 648 124 641T144 624T154 607T157 600Q170 529 183 466T210 350T237 254T263 182T286 139Q299 148 315 178T348 257T380
363T406 483T423 607Q423 607 425 613T433 626T451 638T484 640Q508 636 520 627T538 607T543 588T544 580Q534 480 515 392T471 232T415 107T353 28T289 3ZM672 3Q630 6 598 35T540 117T495 243T458 406T424 603Q424 603 426 609T434 624T451 639T482 645Q496
645 507 637T526 619T538 601T543 593Q555 522 568 460T595 345T621 251T646 181T669 139Q682 148 698 178T731 255T763 359T789 479T806 602Q806 602 807 609T815 624T834 637T867 640Q891 636 903 627T921 607T926 588T927 580Q917 480 898 392T853 232T798 107T736
28T672 3Z" />
<glyph unicode="X" horiz-adv-x="615" d="M544 19Q528 10 513 12T485 21T466 34T459 41Q411 98 368 150T283 252T203 352T125 456T47 569Q47 569 45 576T41 593T45 614T67 633Q82 640 97 637T124 627T143 613T150 606Q195 547 241 487T338 365T443 234T558 91Q558
91 561 86T567 73T570 56T564 36T544 19ZM78 12Q63 20 57 30T50 49T51 66T56 78T59 83Q118 154 171 220T273 351T370 484T469 626Q469 626 473 630T486 639T507 645T535 639Q555 631 563 621T572 600T573 582T571 575Q519 490 470 415T370 273T269 142T160 13Q160
13 154 9T137 2T111 0T78 12Z" />
<glyph unicode="Y" horiz-adv-x="544" d="M265 239Q174 251 120 299T49 424T52 603Q52 603 54 610T63 626T82 642T114 645Q135 641 146 632T161 611T166 592T167 583Q154 472 174 411T254 343Q287 347 313 369T356 425T379 500T378 580Q378 580 377 587T377 604T387
624T416 637Q438 641 453 635T477 620T490 603T494 595Q507 538 502 480T469 370T392 283T265 239ZM271 7Q252 7 240 14T221 30T212 46T209 54Q198 113 199 173T208 294L324 293Q315 221 315 159T322 49Q322 49 322 43T317 28T301 14T271 7Z" />
<glyph unicode="Z" horiz-adv-x="544" d="M127 1Q116 -1 104 2T82 13T64 30T57 54T66 83Q100 131 132 180T198 282T271 396T354 530Q307 551 245 548T115 529Q115 529 108 529T90 529T69 534T52 550Q43 565 42 575T44 593T53 604T62 611T66 613Q151 644 241 647T422
627Q440 619 454 606T478 576T489 537T478 490Q454 448 432 411T387 339T341 268T289 193T228 107L439 117Q439 117 448 116T469 110T490 97T502 72Q505 55 500 44T487 28T472 22T465 20L127 1Z" />
<glyph unicode="[" horiz-adv-x="349" d="M168 8Q145 9 124 17T85 39T57 73T46 116Q43 175 42 241T41 376T43 507T48 618Q49 625 54 635T71 652T105 657Q145 658 182 658T254 655Q254 655 261 653T279 645T296 629T302 605Q302 590 295 581T279 569T263 565T256
564L156 563L151 126Q159 112 171 105T207 95L266 92Q266 92 272 90T288 81T303 66T308 42Q308 29 300 21T283 10T267 5T259 4L168 8Z" />
<glyph unicode="\" horiz-adv-x="429" d="M354 8Q332 1 318 5T297 17T290 24Q263 93 226 183T142 378T44 597Q44 597 42 603T41 620T50 639T76 655Q92 660 103 658T122 650T132 639T136 633Q188 528 236 424T323 227T388 64Q388 64 388 58T387 42T378 23T354 8Z" />
<glyph unicode="]" horiz-adv-x="349" d="M90 4Q90 4 83 5T66 9T50 21T41 42Q40 57 46 66T61 81T76 89T83 92L142 95Q165 97 177 104T198 126L193 563L93 564Q93 564 86 565T71 569T55 581T47 605Q46 619 53 629T70 644T87 652T95 655Q130 657 167 657T244 657Q267
659 278 652T295 635T301 618Q304 569 306 507T308 377T307 242T303 116Q302 93 292 74T265 40T226 17T181 8L90 4Z" />
<glyph unicode="^" horiz-adv-x="368" d="M59 510Q48 518 45 526T41 541T43 552T45 557Q58 574 71 589T101 618T139 649Q148 656 162 659T191 660T219 648L312 585Q312 585 316 580T324 567T327 549T315 528Q307 520 298 519T279 518T265 522T259 525L187 579Q171
570 151 552T106 508Q106 508 99 505T82 502T59 510Z" />
<glyph unicode="_" horiz-adv-x="541" d="M43 56Q38 71 41 81T50 96T61 104T67 107Q119 116 181 122T311 128T450 118Q450 118 458 115T476 105T493 88T501 64Q500 47 493 38T476 24T459 20T452 19Q400 23 356 25T271 27T189 27T100 21Q100 21 93 21T76 24T57 34T43 56Z" />
<glyph unicode="`" horiz-adv-x="321" d="M225 501Q207 507 186 515T141 534T96 556T56 583Q56 583 52 586T45 596T41 611T46 629Q52 638 60 641T77 645T90 645T96 643Q129 630 166 615T252 578Q252 578 258 574T271 562T280 543T275 517Q270 508 262 505T246
500T231 500T225 501Z" />
<glyph unicode="a" horiz-adv-x="618" d="M279 2Q227 1 184 19T108 71T59 149T41 243Q41 297 60 344T114 425T193 479T291 500Q366 500 420 474T502 392T531 250Q531 200 514 156T465 77T386 23T279 2ZM284 107Q312 107 337 119T383 153T414 201T426 260Q426 311
410 344T365 393T298 409Q271 409 246 395T203 357T174 304T163 244Q163 205 178 174T220 125T284 107ZM529 1Q510 1 498 7T480 20T474 27Q467 100 463 172T460 319T469 475Q469 475 474 481T491 494T524 499Q545 497 556 488T572 466T577 444T578 435Q574 384
572 340T569 252T572 157T577 46Q577 46 576 39T571 24T557 8T529 1Z" />
<glyph unicode="b" horiz-adv-x="625" d="M329 2Q267 2 222 21T150 74T109 152T95 247Q95 304 112 351T161 431T238 482T341 500Q393 499 437 483T514 434T565 355T584 246Q585 196 565 152T509 74T428 21T329 2ZM109 1Q89 1 78 9T60 27T52 45T50 53Q46 96 44
150T41 265T41 386T45 504T52 611Q52 611 54 617T61 632T78 645T109 650Q129 648 141 640T158 620T166 600T168 592Q164 552 162 498T157 382T154 257T154 135T158 26Q158 26 155 20T141 8T109 1ZM317 108Q347 108 373 121T420 157T452 208T464 268Q464 318 446
349T400 394T339 409Q311 409 286 395T241 357T210 304T198 243Q198 205 212 174T254 126T317 108Z" />
<glyph unicode="c" horiz-adv-x="546" d="M276 -9Q194 -4 144 26T70 108T41 225Q37 277 52 325T100 412T180 473T287 495Q338 495 373 482T432 451T467 414T485 383T490 371Q490 371 490 364T485 347T468 328Q456 321 441 319T413 320T395 329Q394 329 389 337T373
355T345 373T302 380Q273 379 248 370T204 344T175 300T166 237Q167 192 182 165T223 124T283 107Q309 105 332 110T373 125T402 141T416 148Q433 154 447 152T474 143T495 125Q505 112 505 100T504 81T501 74Q501 74 489 61T451 30T381 0T276 -9Z" />
<glyph unicode="d" horiz-adv-x="618" d="M279 2Q227 1 184 19T108 71T59 149T41 243Q41 297 60 344T114 425T193 479T291 500Q366 500 420 474T502 392T531 250Q531 200 514 156T465 77T386 23T279 2ZM284 107Q312 107 337 119T383 153T414 201T426 260Q426 311
410 344T365 393T298 409Q271 409 246 395T203 357T174 304T163 244Q163 205 178 174T220 125T284 107ZM526 0Q507 0 495 7T475 25T465 43T462 51Q457 94 455 148T452 263T452 385T457 504T464 611Q464 611 465 617T473 632T490 645T520 650Q540 648 551 640T568
621T576 603T578 595Q575 556 574 504T571 392T570 271T571 152T576 45Q576 45 575 38T570 23T555 7T526 0Z" />
<glyph unicode="e" horiz-adv-x="540" d="M248 -10Q182 2 142 28T79 90T50 166T41 247Q41 294 58 340T110 423T191 481T297 498Q356 494 393 476T452 430T481 372T491 314Q491 265 465 230T383 182Q367 178 344 177T295 176T243 177T197 179T163 181T150 182Q153
158 166 135T206 97T273 79Q311 78 341 80T394 86T427 92T439 95Q439 95 444 95T459 94T477 88T492 71Q499 60 498 51T493 36T484 27T480 24Q480 24 459 16T404 0T329 -13T248 -10ZM151 254L328 256Q328 256 334 257T351 261T370 271T386 290T392 321Q392 352 381
373T345 403T275 410Q244 408 220 391T180 348T156 298T151 254Z" />
<glyph unicode="f" horiz-adv-x="527" d="M185 -2Q161 -2 148 6T127 25T119 44T117 52Q114 112 113 164T111 265T110 361T114 458Q121 508 138 543T183 601T243 634T314 648Q354 647 386 635T443 604T484 560Q484 560 485 554T487 540T481 522T460 506Q449 501
438 503T418 509T410 513Q390 530 369 540T323 548Q288 542 264 510T236 421Q233 346 233 284T233 163T237 38Q237 38 236 32T229 18T214 4T185 -2ZM467 370Q467 355 460 347T445 336T431 331T424 330Q335 332 248 332T79 335Q79 335 70 337T52 347T41 366Q40 379
44 387T55 400T67 408T73 410Q117 415 157 418T239 424T323 426T414 425Q414 425 422 422T441 413T460 397T467 370Z" />
<glyph unicode="g" horiz-adv-x="680" d="M414 -211Q344 -215 282 -203T165 -164Q165 -164 159 -161T144 -149T132 -130T133 -104Q138 -89 147 -83T167 -76T185 -76T192 -77Q227 -89 257 -96T317 -107T379 -110Q426 -108 455 -93T498 -50T515 22Q519 90 519 147T516
256T508 357T494 459Q494 459 497 467T510 483T543 491Q565 492 579 483T600 465T607 455Q625 381 632 306T640 150T635 -19Q624 -111 570 -158T414 -211ZM296 2Q240 1 194 19T113 71T60 149T41 243Q41 297 62 344T119 425T204 479T309 500Q390 500 447 474T536
392T567 250Q567 200 549 156T496 77T411 23T296 2ZM301 107Q332 107 360 119T411 153T446 201T459 260Q459 311 441 344T390 393T317 409Q286 409 259 395T211 357T179 304T167 244Q167 205 183 174T229 125T301 107Z" />
<glyph unicode="h" horiz-adv-x="592" d="M467 11Q448 15 438 25T424 45T418 62T417 69Q423 115 427 151T431 220T423 285Q409 333 388 358T340 385Q305 378 279 357T232 304T197 240T172 177T154 127Q146 109 140 107T130 113T124 135T121 160T120 178T118 176L87
253L120 317Q142 363 169 395T225 447T283 477T338 488Q388 484 429 458T499 388T542 291Q555 229 552 168T535 38Q535 38 532 33T520 21T499 11T467 11ZM116 0Q96 0 84 7T64 25T54 43T51 51Q47 94 45 148T41 263T41 385T46 504T53 611Q53 611 54 617T62 632T79
645T109 650Q129 648 140 640T157 621T165 603T167 595Q164 556 163 504T160 392T159 271T161 152T165 45Q165 45 164 38T159 23T144 7T116 0Z" />
<glyph unicode="i" horiz-adv-x="215" d="M111 1Q94 2 83 8T64 24T55 39T52 45Q46 99 44 148T41 245T43 346T51 458Q51 458 52 464T59 479T75 493T106 499Q127 498 138 490T156 471T163 452T165 444Q162 395 160 349T158 255T159 156T165 45Q165 45 164 38T157
22T141 7T111 1ZM111 539Q81 538 64 556T47 600Q47 634 63 649T111 664Q141 664 158 645T175 600Q175 584 170 570T150 548T111 539Z" />
<glyph unicode="j" horiz-adv-x="215" d="M111 -173Q94 -172 83 -166T64 -151T55 -136T52 -129Q48 -86 45 -29T41 93T41 223T44 349T51 458Q51 458 52 464T59 479T75 493T106 499Q127 498 138 490T156 471T163 452T165 444Q162 405 161 350T159 231T158 103T160
-22T165 -129Q165 -129 164 -136T157 -152T141 -167T111 -173ZM111 539Q81 538 64 556T47 600Q47 634 63 649T111 664Q141 664 158 645T175 600Q175 584 170 570T150 548T111 539Z" />
<glyph unicode="k" horiz-adv-x="498" d="M427 21Q410 15 396 17T371 26T355 38T349 44Q322 77 300 101T258 143T220 174T182 198T140 219L122 339Q179 343 223 359T301 399T358 452Q358 452 363 456T377 465T400 469T429 461Q444 452 449 440T455 416T452 396T450
388Q434 358 409 333T351 288T284 258T213 242L209 281Q250 270 287 248T355 196T411 136T455 78Q455 78 456 72T458 55T450 36T427 21ZM116 0Q96 0 84 7T64 25T54 43T51 51Q47 94 45 148T41 263T41 385T46 504T53 611Q53 611 54 617T62 632T79 645T109 650Q129
648 140 640T157 621T165 603T167 595Q164 556 163 504T160 392T159 271T161 152T165 45Q165 45 164 38T159 23T144 7T116 0Z" />
<glyph unicode="l" horiz-adv-x="207" d="M116 0Q96 0 84 7T64 25T54 43T51 51Q47 94 45 148T41 263T41 385T46 504T53 611Q53 611 54 617T62 632T79 645T109 650Q129 648 140 640T157 621T165 603T167 595Q164 556 163 504T160 392T159 271T161 152T165 45Q165
45 164 38T158 22T144 7T116 0Z" />
<glyph unicode="m" horiz-adv-x="933" d="M447 17Q427 22 417 33T404 56T400 76T399 85Q409 163 407 228T383 331Q365 365 339 379T285 391T228 369Q197 347 181 316T158 251T151 186Q151 156 151 134T152 94T153 64Q153 64 153 59T150 47T139 34T115 27Q101 26
90 33T73 47T66 55Q56 72 55 88T55 125T52 176Q49 213 49 243T54 298T67 346T92 392Q112 418 142 440T208 477T282 493T358 484Q382 474 406 458T452 418T491 360T519 281Q529 229 528 176T517 58Q517 58 515 50T507 32T486 17T447 17ZM111 1Q94 2 83 8T64 24T55
39T52 45Q46 99 44 148T41 245T43 346T51 458Q51 458 52 464T59 479T75 493T106 499Q127 498 138 490T156 471T163 452T165 444Q162 395 160 349T158 255T159 156T165 45Q165 45 164 38T157 22T141 7T111 1ZM812 17Q792 22 782 33T769 56T765 76T764 85Q774 163
772 228T748 331Q730 365 704 379T650 391T593 369Q562 347 546 316T523 251T516 186Q516 156 516 137T514 105T512 76Q512 76 512 70T509 56T499 42T476 34Q461 33 451 40T435 54T430 61Q424 74 423 90T421 128T421 177Q418 214 418 243T420 298T432 346T457 392Q477
418 507 440T573 477T647 493T723 484Q747 474 771 458T817 418T856 360T884 281Q894 229 893 176T882 58Q882 58 880 50T872 32T851 17T812 17Z" />
<glyph unicode="n" horiz-adv-x="568" d="M447 17Q427 22 417 33T404 56T400 76T399 85Q409 163 407 228T383 331Q365 365 339 379T285 391T228 369Q197 347 181 316T158 251T151 186Q151 156 151 134T152 94T153 64Q153 64 153 59T150 47T139 34T115 27Q101 26
90 33T73 47T66 55Q56 72 55 88T55 125T52 176Q49 213 49 243T54 298T67 346T92 392Q112 418 142 440T208 477T282 493T358 484Q382 474 406 458T452 418T491 360T519 281Q529 229 528 176T517 58Q517 58 515 50T507 32T486 17T447 17ZM111 1Q94 2 83 8T64 24T55
39T52 45Q46 99 44 148T41 245T43 346T51 458Q51 458 52 464T59 479T75 493T106 499Q127 498 138 490T156 471T163 452T165 444Q162 395 160 349T158 255T159 156T165 45Q165 45 164 38T157 22T141 7T111 1Z" />
<glyph unicode="o" horiz-adv-x="585" d="M283 2Q229 2 185 20T108 72T58 149T40 243Q40 293 59 339T112 422T192 479T291 500Q345 500 391 485T471 440T525 362T545 250Q545 200 525 155T468 76T384 22T283 2ZM281 106Q310 106 336 118T382 151T413 199T425 256Q425
307 409 340T363 388T296 404Q268 404 243 390T200 353T171 301T160 242Q160 202 175 172T217 124T281 106Z" />
<glyph unicode="p" horiz-adv-x="624" d="M328 2Q266 2 221 21T149 74T108 152T94 247Q94 304 111 351T160 431T237 482T340 500Q392 499 436 483T513 434T565 355T584 246Q584 196 564 152T509 74T427 21T328 2ZM116 -213Q96 -213 84 -206T64 -188T55 -171T52
-163Q48 -120 45 -59T41 71T41 210T44 344T51 456Q51 456 53 462T60 477T77 491T108 495Q128 494 139 486T156 467T163 448T165 440Q163 401 162 343T160 216T159 78T161 -56T166 -169Q166 -169 165 -175T159 -191T144 -206T116 -213ZM317 108Q346 108 372 121T419
157T451 208T463 268Q463 318 445 349T399 394T338 409Q311 409 286 395T240 357T209 304T197 243Q197 205 211 174T253 126T317 108Z" />
<glyph unicode="q" horiz-adv-x="618" d="M279 2Q227 1 184 19T108 71T59 149T41 243Q41 297 60 344T114 425T193 479T291 500Q366 500 420 474T502 392T531 250Q531 200 514 156T465 77T386 23T279 2ZM284 107Q312 107 337 119T383 153T414 201T426 260Q426 311
410 344T365 393T298 409Q271 409 246 395T203 357T174 304T163 244Q163 205 178 174T220 125T284 107ZM527 -214Q507 -214 494 -207T475 -189T465 -171T462 -163Q458 -120 456 -59T453 71T453 210T457 343T464 456Q464 456 466 462T473 477T490 490T521 495Q541
493 552 485T569 466T576 448T578 440Q576 401 574 343T571 216T570 78T572 -56T576 -169Q576 -169 575 -176T570 -191T555 -207T527 -214Z" />
<glyph unicode="r" horiz-adv-x="490" d="M105 100Q90 98 81 107T68 128T63 150T62 160Q57 180 55 191T53 212T54 232T56 265Q60 324 80 369T137 444T220 488Q267 498 305 495T374 478T427 444Q427 444 431 440T441 427T448 410T449 390T433 368Q422 358 407 358T379
364T356 374T347 379Q326 393 299 393T242 378Q207 361 186 332T159 261Q157 237 156 221T153 193T152 168T154 135Q154 135 151 127T137 111T105 100ZM111 1Q94 2 83 8T64 24T55 39T52 45Q46 99 44 148T41 245T43 346T51 458Q51 458 52 464T59 479T75 493T106
499Q127 498 138 490T156 471T163 452T165 444Q162 395 160 349T158 255T159 156T165 45Q165 45 164 38T157 22T141 7T111 1Z" />
<glyph unicode="s" horiz-adv-x="504" d="M233 85Q290 85 301 100T285 146Q273 159 252 174T207 206T160 245T121 291T99 347Q92 390 112 424T176 478T287 497T440 467Q440 467 444 465T453 456T461 442T463 422Q461 413 456 408T444 401T433 398T428 397Q428
397 419 398T393 399T357 400T317 400T278 395T245 385Q227 375 220 364T216 338T239 306T293 267Q343 237 376 202T420 132T417 61Q406 36 376 21T305 1T217 2T128 28T52 80Q52 80 49 84T43 94T40 109T48 125Q55 132 64 134T81 135T94 131T100 129Q100 129 111
123T140 107T183 91T233 85Z" />
<glyph unicode="t" horiz-adv-x="470" d="M239 0Q220 0 208 7T188 25T178 43T175 51Q171 94 169 148T165 263T165 385T170 504T177 611Q177 611 178 617T186 632T203 645T233 650Q253 648 264 640T281 621T289 603T291 595Q288 556 287 504T284 392T283 271T284
152T289 45Q289 45 288 38T282 22T267 7T239 0ZM377 386Q298 387 228 388T102 391Q102 391 93 392T73 398T52 412T41 437Q39 451 44 459T58 472T72 478T78 480Q86 482 107 482T160 484T227 485T299 486T367 486Q367 486 373 485T389 482T408 473T424 457T430 432Q429
414 421 404T403 391T385 387T377 386Z" />
<glyph unicode="u" horiz-adv-x="568" d="M211 10Q187 19 163 35T116 76T77 134T50 214Q40 266 40 320T51 438Q51 438 53 446T62 465T83 480T121 480Q141 475 151 464T165 441T169 420T169 411Q159 334 161 268T185 163Q199 138 217 124T255 106T295 104T331 119Q356
135 369 165T387 231T388 299Q384 329 378 359T367 413T360 451Q360 451 360 457T364 471T377 485T405 494Q424 496 438 489T460 473T468 465Q484 439 499 401T522 318Q530 264 527 223T511 147T477 82Q456 56 426 37T360 7T286 -3T211 10Z" />
<glyph unicode="v" horiz-adv-x="521" d="M250 0Q236 1 220 6T187 23T156 54T131 101L42 421Q42 421 41 429T42 447T54 467T82 479Q101 482 114 477T137 464T150 450T155 443L202 269Q218 214 229 178T250 131Q259 131 276 160T314 241Q329 281 338 314T354 378T364
438Q364 438 365 445T373 462T391 477T426 482Q448 479 460 470T476 449T480 429T481 420Q479 389 474 357T460 294T442 236T424 188Q397 118 368 76T308 16T250 0Z" />
<glyph unicode="w" horiz-adv-x="847" d="M250 0Q236 1 220 6T187 23T156 54T131 101L42 421Q42 421 41 429T42 447T54 467T82 479Q101 482 114 477T137 464T150 450T155 443L202 269Q218 214 229 178T250 131Q259 131 276 160T314 241Q329 281 338 314T354 378T364
438Q364 438 365 445T373 462T391 477T426 482Q448 479 460 470T476 449T480 429T481 420Q479 389 474 357T460 294T442 236T424 188Q397 118 368 76T308 16T250 0ZM575 0Q561 1 545 6T512 23T481 54T457 101L370 421Q370 421 370 429T371 448T382 468T407 479Q426
483 439 478T462 465T476 450T481 443L527 269Q543 214 554 178T575 131Q584 131 601 160T640 241Q654 281 663 314T679 378T689 438Q689 438 691 445T698 462T716 477T751 482Q774 479 785 470T801 449T806 429T806 420Q804 379 795 336T774 255T750 188Q723 118
693 76T633 16T575 0Z" />
<glyph unicode="x" horiz-adv-x="532" d="M66 5Q52 15 47 26T41 47T44 65T50 77T53 82Q82 114 106 140T152 192T198 246Q179 271 163 291T132 332T101 374T64 424Q64 424 62 430T60 444T63 462T81 480Q94 487 106 487T127 484T143 478T149 474Q166 456 186 432T227
381T267 327Q294 362 314 389T352 438T384 482Q384 482 389 486T405 495T428 500T459 492Q478 483 484 471T491 446T489 426T486 418Q462 385 443 359T407 310T376 269T346 232Q377 192 402 160T446 103T475 61Q475 61 477 57T480 45T480 29T471 12T448 -1Q428
-8 412 -3T387 9T377 16L275 151Q243 112 210 75T144 5Q144 5 138 2T120 -5T95 -7T66 5Z" />
<glyph unicode="y" horiz-adv-x="620" d="M354 -211Q284 -215 222 -203T105 -164Q105 -164 99 -161T84 -149T72 -130T72 -104Q77 -89 87 -83T107 -76T125 -76T132 -77Q167 -89 197 -96T257 -107T319 -110Q366 -108 395 -93T438 -50T455 22Q459 90 459 147T456
256T448 357T434 459Q434 459 437 467T450 483T482 491Q505 492 519 483T540 465T547 455Q565 381 572 306T579 150T575 -19Q563 -111 509 -158T354 -211ZM215 12Q173 31 140 60T84 127T52 210Q44 248 42 283T43 356T54 436Q54 436 56 443T64 459T83 474T114 480Q135
478 147 471T166 453T175 432T177 416T176 409Q168 345 168 296T177 212T200 158Q228 118 267 109T359 120Q387 133 408 156T443 212T455 281L545 325Q559 244 544 183T491 78Q462 46 419 24T323 -3T215 12Z" />
<glyph unicode="z" horiz-adv-x="566" d="M132 -3Q96 0 79 15T58 49T63 87T86 117L334 350Q340 359 341 364T338 373T323 378T295 380Q258 381 226 380T165 374T107 364Q107 364 99 364T80 368T58 378T44 398Q39 414 42 424T50 441T61 449T67 452Q147 479 229
484T403 479Q421 475 439 467T473 446T495 414T496 368Q492 352 474 329T428 278T365 219T295 157T225 97L462 111Q462 111 471 110T492 106T513 93T525 68Q528 49 523 38T509 22T495 15T488 13L132 -3Z" />
<glyph unicode="{" horiz-adv-x="317" d="M215 7Q215 7 206 6T180 5T145 13T108 39T76 92Q67 112 67 138T70 191T73 241T67 274Q67 274 60 279T47 293T41 313Q43 324 49 329T60 337T66 339Q66 339 70 341T79 350T87 373T88 419Q87 435 86 457T87 506T96 558T120
602T165 632T235 640Q235 640 241 638T255 632T269 620T276 602Q277 588 271 582T259 573T252 571Q252 571 245 570T228 565T208 549T192 517Q186 494 187 469T191 417T194 366T185 320T154 283Q154 283 159 271T169 235T169 175Q166 151 169 129T185 95T218 84Q218
84 223 83T236 79T249 69T255 48Q255 36 249 28T236 16T222 9T215 7Z" />
<glyph unicode="|" horiz-adv-x="208" d="M111 1Q92 1 80 9T62 27T53 44T51 52Q47 95 45 149T41 263T41 383T46 501T53 606Q53 606 54 612T60 627T76 642T106 649Q126 649 138 642T156 625T164 605T167 588T167 581Q163 541 161 490T159 381T158 264T161 149T165
45Q165 45 164 39T158 23T142 8T111 1Z" />
<glyph unicode="}" horiz-adv-x="317" d="M102 7Q102 7 96 9T82 15T68 28T62 48Q62 61 67 68T80 79T93 83T99 84Q120 82 132 94T148 129T148 175Q144 211 148 234T157 270T163 283Q141 298 133 319T124 365T126 416T130 468T125 517Q119 538 110 549T90 564T72
570T65 571Q65 571 59 573T46 581T41 602Q41 612 47 619T62 631T76 638T82 640Q125 643 152 633T196 603T220 558T230 507T231 458T229 419Q227 390 230 374T238 350T247 341T251 339Q251 339 256 337T268 330T276 313Q278 302 271 293T257 279T250 274Q243 263
243 241T247 192T250 138T241 92Q227 58 209 40T172 14T137 5T112 5T102 7Z" />
<glyph unicode="~" horiz-adv-x="451" d="M109 257Q98 252 87 255T69 263T62 268Q44 284 42 303T49 340T76 370T116 384Q154 389 183 381T239 360T295 339Q305 339 312 345T325 360Q325 360 330 366T345 377T373 377Q390 373 397 365T407 349T410 334T409 328Q406
309 388 290T334 264Q314 261 288 265T236 277T186 295Q170 300 155 301T131 300T122 290Q122 290 123 285T122 271T109 257Z" />
<glyph unicode="&#xa0;" horiz-adv-x="260" />
<glyph unicode="&#xa1;" horiz-adv-x="221" d="M110 -2Q89 -1 76 6T56 23T47 44T44 61T43 68Q48 121 51 164T57 247T63 332T72 431Q72 431 75 439T87 453T114 458Q132 457 141 449T155 432T159 423Q163 369 166 309T170 182T170 43Q170 43 169 36T162 20T144 5T110
-2ZM115 537Q96 537 81 544T56 565T47 595Q47 615 56 628T80 646T115 652Q133 652 148 645T172 624T181 594Q181 579 173 566T149 545T115 537Z" />
<glyph unicode="&#xa2;" horiz-adv-x="547" d="M276 61Q194 65 144 95T70 177T41 294Q37 347 52 395T100 482T180 543T287 565Q338 564 373 552T432 521T467 484T485 453T490 441Q490 441 490 436T490 422T484 407T468 397Q452 394 441 399T423 410T417 417Q417
417 411 427T390 451T354 474T302 482Q275 481 247 471T194 440T155 386T140 307Q141 256 153 226T185 179T229 156T279 146Q313 142 342 149T393 168T427 189T440 199Q440 199 448 201T468 203T493 190Q502 182 504 174T507 158T504 147T501 143Q501 143 489 130T451
100T381 70T276 61ZM294 -27Q279 -27 270 -20T256 -5T252 3Q249 13 245 28T237 59T233 90L346 97Q347 80 346 62T343 28T336 -1Q336 -1 333 -7T320 -19T294 -27ZM234 533Q233 551 234 571T238 611T244 643Q244 643 247 649T260 661T286 668Q301 669 310 662T324
647T329 639Q333 629 337 612T344 575T348 540L234 533Z" />
<glyph unicode="&#xa3;" horiz-adv-x="472" d="M114 -2Q87 0 72 11T55 40T62 75Q76 94 83 110T95 147T100 196Q100 226 95 262T85 337T79 413T84 483Q92 524 111 560T165 619T251 647Q280 647 308 637T361 607T400 555Q400 555 402 549T404 534T400 517T380 505Q367
502 356 505T338 512T331 517Q322 529 310 538T283 552Q268 555 252 548T222 525T199 483Q192 463 191 432T193 365T202 288T211 206Q213 174 210 144T189 88Q218 91 240 93T282 96T323 98T371 100Q371 100 377 99T392 96T410 88T425 74T431 52Q432 36 426 27T410
14T395 9T388 8Q376 8 346 7T276 5T194 2T114 -2ZM79 261Q78 261 70 263T54 273T42 293Q40 304 43 311T53 322T63 327T68 329Q101 335 141 339T224 346T311 348Q311 348 317 348T332 345T351 339T367 325T374 301Q375 284 368 276T351 264T334 260T326 260Q285
261 241 262T155 263T79 261Z" />
<glyph unicode="&#xa5;" horiz-adv-x="544" d="M265 239Q174 251 120 299T49 424T52 603Q52 603 54 610T63 626T82 642T114 645Q135 641 146 632T161 611T166 592T167 583Q154 472 174 411T254 343Q287 347 313 369T356 425T379 500T378 580Q378 580 377 587T377
604T387 624T416 637Q438 641 453 635T477 620T490 603T494 595Q507 538 502 480T469 370T392 283T265 239ZM134 69Q132 69 122 69T102 75T86 95Q82 106 84 113T92 124T103 130T108 132Q170 144 243 149T404 144Q404 144 410 142T426 134T441 121T447 103Q447 91
440 84T425 74T411 70T404 69Q370 71 342 72T288 74T240 75T190 73T134 69ZM271 7Q252 7 240 14T221 30T212 46T209 54Q198 113 199 173T208 294L324 293Q315 221 315 159T322 49Q322 49 322 43T317 28T301 14T271 7ZM134 177Q132 177 126 177T112 179T97 186T86
203Q81 214 84 221T92 233T103 238T108 240Q170 253 243 257T404 252Q404 252 410 250T426 242T441 230T447 211Q447 199 440 192T425 182T411 178T404 177Q370 180 342 181T288 183T240 184T190 182T134 177Z" />
<glyph unicode="&#xa6;" horiz-adv-x="200" d="M105 351Q88 352 77 358T59 374T49 389T46 395Q42 441 41 480T41 561T46 658Q46 658 47 664T54 679T70 693T101 699Q121 698 133 690T150 671T158 652T160 644Q154 574 155 515T159 395Q159 395 158 388T152 372T136
357T105 351ZM105 -69Q88 -68 77 -62T59 -46T49 -31T46 -25Q42 21 41 60T41 141T46 238Q46 238 47 244T54 259T70 273T101 279Q121 278 133 270T150 251T158 232T160 224Q154 154 155 95T159 -25Q159 -25 158 -32T152 -48T136 -63T105 -69Z" />
<glyph unicode="&#xa7;" horiz-adv-x="394" d="M202 -9Q175 -9 147 2T94 30T55 65T40 97Q40 109 49 116T68 124Q80 124 94 116T123 97T154 78T188 69Q197 69 204 74T216 88T221 106Q221 122 210 136T182 164T150 193T122 228T111 271Q111 300 126 326T170 365Q132
390 110 417T78 471T68 523Q68 549 77 572T104 612T145 639T199 649Q230 649 259 635T312 600T349 556Q349 556 351 551T353 536Q353 525 346 517T328 508Q319 508 312 513T305 518Q288 531 273 542T245 560T216 567Q205 567 193 562T173 546T165 517Q165 494 177
476T210 442T252 410T295 375Q304 367 308 359T313 340Q313 335 312 331T307 324T301 318T292 314Q268 311 250 305T220 288T209 263Q209 249 220 237T247 212T279 184T307 149T318 103Q318 68 303 43T261 5T202 -9Z" />
<glyph unicode="&#xa8;" horiz-adv-x="425" d="M318 505Q300 505 285 512T261 533T251 562Q251 579 260 592T285 612T318 620Q337 620 352 613T376 592T385 563Q385 533 366 519T318 505ZM106 505Q88 505 73 513T49 534T40 563Q40 579 49 592T73 612T106 620Q126
620 141 613T165 592T174 563Q174 543 165 530T141 511T106 505Z" />
<glyph unicode="&#xa9;" horiz-adv-x="717" d="M360 0Q250 0 179 44T74 163T40 327Q40 417 78 490T188 606T360 649Q406 649 451 631T537 582T609 508T659 415T677 311Q677 222 642 152T537 41T360 0ZM347 134Q287 138 252 161T199 222T178 310Q174 363 195 409T257
485T355 514Q401 513 430 499T474 467T495 434T501 420Q501 420 501 413T499 398T485 387Q474 385 466 389T453 398T448 403Q448 403 443 410T428 428T403 445T365 451Q347 450 327 443T290 420T262 380T251 320Q252 281 260 258T283 222T315 206T349 199Q374 196
395 201T431 215T455 231T464 238Q464 238 470 240T485 242T503 232Q513 224 514 216T513 202T510 196Q510 196 501 186T473 163T423 141T347 134ZM361 69Q443 69 497 101T578 188T605 314Q605 367 584 415T527 500T449 559T361 581Q284 581 229 547T144 455T114
326Q114 255 140 197T221 104T361 69Z" />
<glyph unicode="&#xaa;" horiz-adv-x="321" d="M147 279Q116 279 92 293T54 332T40 387Q41 420 56 445T96 486T152 502Q203 502 231 475T259 390Q259 361 246 336T208 296T147 279ZM149 327Q166 327 180 336T204 361T213 394Q213 429 197 445T155 462Q139 462
125 451T103 423T95 387Q95 361 109 344T149 327ZM258 279Q246 279 240 285T234 291Q229 340 228 388T231 491Q231 491 236 496T256 501Q269 500 274 494T279 480T280 473Q278 443 277 417T277 364T280 299Q280 299 279 294T274 284T258 279Z" />
<glyph unicode="&#xab;" horiz-adv-x="560" d="M479 68Q467 60 455 61T432 67T415 78T408 83Q387 106 370 125T336 165T302 213Q283 239 276 259T271 297T280 328Q299 366 322 406T372 482T430 549Q430 549 435 554T449 565T471 572T497 566Q511 558 515 549T519
532T516 519T514 513Q490 479 468 447T424 381T382 308Q366 273 388 244L484 131Q484 131 487 127T494 117T499 103T496 85T479 68ZM249 68Q237 60 225 61T202 67T185 78T178 83Q157 106 140 125T106 165T72 213Q53 239 46 259T41 297T50 328Q69 366 92 406T142
482T200 549Q200 549 205 554T219 565T241 572T267 566Q281 558 285 549T289 532T286 519T284 513Q260 479 238 447T194 381T152 308Q136 273 158 244L254 131Q254 131 257 127T264 117T269 103T266 85T249 68Z" />
<glyph unicode="&#xac;" horiz-adv-x="731" d="M618 41Q604 44 598 53T590 72T588 90T588 98Q593 135 596 168T600 234T598 301Q554 298 502 297T395 295T284 295T180 298T91 304Q91 304 84 306T66 314T49 333T41 364Q40 383 47 394T63 410T80 417T87 419Q136
416 192 415T307 412T423 411T531 413T623 419Q623 419 631 419T651 413T672 397T683 363Q690 315 690 265T684 166T662 72Q662 72 660 66T654 53T641 42T618 41Z" />
<glyph unicode="&#xae;" horiz-adv-x="601" d="M304 132Q214 132 156 168T69 263T40 394Q40 465 71 523T161 615T301 649Q348 649 394 628T478 569T538 483T561 382Q561 311 533 255T449 165T304 132ZM305 197Q367 197 408 221T470 288T491 384Q491 425 475 461T432
526T372 571T305 588Q247 588 205 562T141 492T118 394Q118 340 138 295T199 224T305 197ZM251 257Q239 257 234 263T228 274T226 280Q224 304 224 343T224 425T227 500Q227 500 228 504T233 513T248 520Q298 524 332 520T384 496Q414 467 413 431T384 369Q373
360 355 353T316 342T271 342L273 275Q273 275 271 271T265 262T251 257ZM364 272Q340 287 313 302T252 337Q252 340 257 344T270 351T284 357T290 360Q305 354 316 349T338 337T361 323T391 303Q391 303 394 299T399 289T394 274Q390 268 383 268T370 270T364
272ZM271 387Q304 385 322 392T349 411T359 436Q359 457 347 467T316 481T273 483Q271 459 271 435T271 387Z" />
<glyph unicode="&#xaf;" horiz-adv-x="484" d="M434 561Q433 544 426 535T409 521T392 516T385 515Q343 518 314 520T263 522T220 523T174 521T110 517Q110 517 103 517T86 519T67 529T53 551Q48 566 51 575T60 590T71 598T76 601Q116 608 149 613T216 621T290
623T382 614Q382 614 390 611T408 602T426 585T434 561Z" />
<glyph unicode="&#xb0;" horiz-adv-x="418" d="M209 327Q151 327 114 349T58 410T40 494Q40 540 60 577T119 637T210 659Q241 659 270 645T324 607T363 552T378 486Q378 418 337 373T209 327ZM197 407Q234 404 255 425T280 480Q283 503 275 523T250 557T216 572Q181
576 158 554T131 497Q128 463 143 437T197 407Z" />
<glyph unicode="&#xb2;" horiz-adv-x="276" d="M88 341Q81 341 73 345T61 358T62 376Q115 457 138 507T158 579Q153 592 145 599T124 608Q110 607 99 601T78 588Q78 588 74 586T63 583T48 589Q42 594 41 598T42 606T45 612Q61 629 80 639T127 650Q158 649 179
632T210 589T212 536Q206 510 195 485T168 434T134 383H213Q213 383 218 382T230 376T236 363Q236 355 232 351T224 346T220 344L88 341Z" />
<glyph unicode="&#xb3;" horiz-adv-x="259" d="M139 343Q123 344 107 349T76 363T51 384Q51 384 47 388T41 400T46 414Q52 421 59 420T72 417T78 414Q88 406 101 398T131 387Q147 390 154 398T164 418T163 443Q157 461 142 471T106 486Q99 488 96 494T94 507T108
516Q112 517 119 518T135 524T153 538Q165 551 165 568T152 596Q141 603 121 602T80 595Q80 595 75 595T65 598T56 607Q52 614 53 618T58 625T62 627Q77 634 91 638T119 642Q133 643 149 640T179 627Q197 615 206 595T214 555T200 519Q196 514 188 507T174 497Q189
488 201 473T218 432Q222 403 211 383T180 353T139 343Z" />
<glyph unicode="&#xb4;" horiz-adv-x="321" d="M95 496Q95 496 90 496T76 495T59 500T46 513Q39 527 41 538T50 557T63 569T69 573Q118 596 155 611T225 639Q225 639 230 640T244 641T260 637T275 625Q281 615 281 607T276 592T269 583T265 579Q247 564 225 552T180
530T136 511T95 496Z" />
<glyph unicode="&#xb6;" horiz-adv-x="732" d="M457 1Q440 1 430 7T414 22T407 38T405 45L410 226Q368 220 325 221T241 229T168 250T115 281Q67 324 50 377T48 487T111 590Q159 638 250 648T464 649Q484 647 495 640T510 624T516 609T517 602Q521 554 523 495T526
374T527 251T524 140T519 53Q519 53 517 46T508 28T490 10T457 1ZM621 1Q601 1 590 7T574 23T568 38T567 45Q570 93 571 149T573 264T574 380T571 489T565 582Q565 582 565 588T567 605T576 625T595 641T627 649Q646 649 657 643T672 628T678 613T680 606Q684 558
687 501T691 384T692 263T689 150T682 52Q682 52 680 45T671 27T653 9T621 1Z" />
<glyph unicode="&#xb7;" horiz-adv-x="214" d="M106 248Q88 248 73 256T49 277T40 306Q40 322 49 335T73 355T106 363Q126 363 141 356T165 335T174 306Q174 286 165 273T141 254T106 248Z" />
<glyph unicode="&#xb8;" horiz-adv-x="309" d="M157 -218Q123 -216 98 -202T51 -169Q51 -169 48 -166T43 -156T41 -144T50 -130Q58 -123 66 -123T81 -124T87 -126Q105 -138 121 -147T156 -158Q176 -157 185 -151T198 -135T200 -113Q196 -97 185 -88T156 -72Q149
-72 141 -69T126 -61T121 -50Q116 -30 116 -8T118 30Q118 30 119 36T127 49T146 55Q160 55 166 44T173 33Q175 23 178 8T183 -25Q198 -28 212 -36T238 -56T258 -83T268 -115Q273 -154 259 -177T219 -209T157 -218Z" />
<glyph unicode="&#xb9;" horiz-adv-x="238" d="M169 327Q155 328 149 335T141 349T139 357Q136 386 135 425T133 505T137 578L82 528Q82 528 78 526T66 524T50 531Q42 538 42 544T43 555T45 559L119 621Q135 636 150 642T176 646Q187 644 191 638T196 625T197
619Q195 594 194 561T193 490T194 417T197 351Q197 351 196 345T189 333T169 327Z" />
<glyph unicode="&#xba;" horiz-adv-x="325" d="M141 415Q95 415 67 447T41 528Q43 561 58 590T98 637T155 656Q178 656 201 650T244 630T275 591T284 530Q283 502 269 480T234 444T189 422T141 415ZM149 457Q169 457 188 465T221 491T237 536Q239 566 228 583T199
607T161 615Q142 615 126 604T99 573T88 531Q86 496 103 477T149 457Z" />
<glyph unicode="&#xbb;" horiz-adv-x="560" d="M312 68Q299 76 295 85T291 102T295 117T302 127T306 131L402 244Q425 273 408 308Q387 347 367 380T324 446T276 513Q276 513 274 518T272 532T275 549T293 566Q307 574 319 573T340 566T355 555T361 549Q392 519
419 483T469 406T510 328Q518 314 520 297T515 260T488 213Q471 186 455 165T421 125T382 83Q382 83 376 78T359 68T336 61T312 68ZM82 68Q69 76 65 85T61 102T65 117T72 127T76 131L172 244Q195 273 178 308Q157 347 137 380T94 446T46 513Q46 513 44 518T42 532T45
549T63 566Q77 574 89 573T110 566T125 555T131 549Q162 519 189 483T239 406T280 328Q288 314 290 297T285 260T258 213Q241 186 225 165T191 125T152 83Q152 83 146 78T129 68T106 61T82 68Z" />
<glyph unicode="&#xbc;" horiz-adv-x="576" d="M160 8Q143 14 136 23T126 41T124 57T125 64Q151 135 190 227T277 423T377 633Q377 633 380 638T391 650T409 658T438 655Q456 649 463 640T471 620T471 604T469 597Q418 483 372 378T288 183T223 24Q223 24 217
17T196 6T160 8ZM169 327Q155 328 149 335T141 349T139 357Q136 386 135 425T133 505T137 578L82 528Q82 528 78 526T66 524T50 531Q42 538 42 544T43 555T45 559L119 621Q135 636 150 642T176 646Q187 644 191 638T196 625T197 619Q195 594 194 561T193 490T194
417T197 351Q197 351 196 345T189 333T169 327ZM510 0Q497 0 490 6T480 19T477 26Q475 52 474 80T473 136T472 192T473 245L401 167Q396 159 393 151T395 141L486 146L491 101Q464 98 438 97T379 97Q352 102 340 114T327 143T338 173Q361 201 382 222T420 260Q439
280 456 295T486 320Q497 326 508 324T527 314T535 296Q533 271 532 237T531 166T532 92T535 24Q535 24 534 18T528 6T510 0Z" />
<glyph unicode="&#xbd;" horiz-adv-x="596" d="M160 8Q143 14 136 23T126 41T124 57T125 64Q151 135 190 227T277 423T377 633Q377 633 380 638T391 650T409 658T438 655Q456 649 463 640T471 620T471 604T469 597Q418 483 372 378T288 183T223 24Q223 24 217
17T196 6T160 8ZM169 327Q155 328 149 335T141 349T139 357Q136 386 135 425T133 505T137 578L82 528Q82 528 78 526T66 524T50 531Q42 538 42 544T43 555T45 559L119 621Q135 636 150 642T176 646Q187 644 191 638T196 625T197 619Q195 594 194 561T193 490T194
417T197 351Q197 351 196 345T189 333T169 327ZM408 1Q401 1 393 5T381 18T382 36Q435 117 458 167T478 239Q473 252 465 259T444 268Q430 267 419 261T398 248Q398 248 394 246T383 243T368 249Q362 254 361 258T362 266T365 272Q381 289 400 299T447 310Q478
309 499 292T530 249T532 196Q526 170 515 145T488 94T454 43H533Q533 43 538 42T550 36T556 23Q556 15 552 11T544 6T540 4L408 1Z" />
<glyph unicode="&#xbe;" horiz-adv-x="576" d="M160 8Q143 14 136 23T126 41T124 57T125 64Q151 135 190 227T277 423T377 633Q377 633 380 638T391 650T409 658T438 655Q456 649 463 640T471 620T471 604T469 597Q418 483 372 378T288 183T223 24Q223 24 217
17T196 6T160 8ZM139 343Q123 344 107 349T76 363T51 384Q51 384 47 388T41 400T46 414Q52 421 59 420T72 417T78 414Q88 406 101 398T131 387Q147 390 154 398T164 418T163 443Q157 461 142 471T106 486Q99 488 96 494T94 507T108 516Q112 517 119 518T135 524T153
538Q165 551 165 568T152 596Q141 603 121 602T80 595Q80 595 75 595T65 598T56 607Q52 614 53 618T58 625T62 627Q77 634 91 638T119 642Q133 643 149 640T179 627Q197 615 206 595T214 555T200 519Q196 514 188 507T174 497Q189 488 201 473T218 432Q222 403
211 383T180 353T139 343ZM510 0Q497 0 490 6T480 19T477 26Q475 52 474 80T473 136T472 192T473 245L401 167Q396 159 393 151T395 141L486 146L491 101Q464 98 438 97T379 97Q352 102 340 114T327 143T338 173Q361 201 382 222T420 260Q439 280 456 295T486 320Q497
326 508 324T527 314T535 296Q533 271 532 237T531 166T532 92T535 24Q535 24 534 18T528 6T510 0Z" />
<glyph unicode="&#xbf;" horiz-adv-x="539" d="M267 -2Q220 -2 177 11T102 53T51 124Q44 145 42 169T46 220T72 277T128 342Q165 369 187 393T213 445Q213 445 216 455T228 475T257 484Q276 482 287 474T302 456T308 438T310 430Q315 401 306 375T278 326T236
284Q209 259 191 237T166 193T161 145Q169 127 185 116T224 100T269 97Q304 99 334 110T380 145Q385 155 386 167T383 193T366 223Q366 223 364 229T362 246T373 264Q386 273 399 274T424 271T441 263T448 258Q492 216 497 173T470 75Q451 50 421 33T352 8T267
-2ZM255 540Q237 540 222 547T197 568T188 597Q188 618 197 630T221 649T255 655Q274 655 289 648T313 627T322 597Q322 581 313 568T289 548T255 540Z" />
<glyph unicode="&#xc0;" horiz-adv-x="556" d="M101 -1Q78 2 66 12T48 33T42 53T41 61Q44 147 63 236T110 417Q133 483 154 526T195 595T237 632T281 643Q298 646 317 636T356 604T393 550T421 476Q431 448 445 401T472 296T497 172T515 42Q515 42 515 35T510
20T495 4T464 -3Q444 -3 431 4T411 21T401 38T398 46Q384 130 371 201T344 327Q330 382 316 424T285 504Q272 481 259 452T234 392T214 331Q203 285 195 249T180 179T170 112T163 38Q163 38 161 31T153 16T134 2T101 -1ZM120 91L131 172Q178 183 224 189T318 196T419
193L431 96Q396 102 355 105T272 109T190 104T120 91ZM346 684Q328 690 307 698T262 717T217 739T177 766Q177 766 173 769T166 779T162 794T167 812Q173 821 181 824T198 828T211 828T217 826Q250 813 287 798T373 761Q373 761 379 757T392 745T401 726T396 700Q391
691 383 688T367 683T352 683T346 684Z" />
<glyph unicode="&#xc1;" horiz-adv-x="556" d="M101 -1Q78 2 66 12T48 33T42 53T41 61Q44 147 63 236T110 417Q133 483 154 526T195 595T237 632T281 643Q298 646 317 636T356 604T393 550T421 476Q431 448 445 401T472 296T497 172T515 42Q515 42 515 35T510
20T495 4T464 -3Q444 -3 431 4T411 21T401 38T398 46Q384 130 371 201T344 327Q330 382 316 424T285 504Q272 481 259 452T234 392T214 331Q203 285 195 249T180 179T170 112T163 38Q163 38 161 31T153 16T134 2T101 -1ZM120 91L131 172Q178 183 224 189T318 196T419
193L431 96Q396 102 355 105T272 109T190 104T120 91ZM212 679Q212 679 207 679T193 678T176 683T163 696Q156 710 158 721T167 740T180 752T186 756Q235 779 272 794T342 822Q342 822 347 823T361 824T377 820T392 808Q398 798 398 790T393 775T386 766T382 762Q364
747 342 735T297 713T253 694T212 679Z" />
<glyph unicode="&#xc2;" horiz-adv-x="556" d="M101 -1Q78 2 66 12T48 33T42 53T41 61Q44 147 63 236T110 417Q133 483 154 526T195 595T237 632T281 643Q298 646 317 636T356 604T393 550T421 476Q431 448 445 401T472 296T497 172T515 42Q515 42 515 35T510
20T495 4T464 -3Q444 -3 431 4T411 21T401 38T398 46Q384 130 371 201T344 327Q330 382 316 424T285 504Q272 481 259 452T234 392T214 331Q203 285 195 249T180 179T170 112T163 38Q163 38 161 31T153 16T134 2T101 -1ZM120 91L131 172Q178 183 224 189T318 196T419
193L431 96Q396 102 355 105T272 109T190 104T120 91ZM157 687Q146 695 143 703T139 718T141 729T143 734Q156 752 169 766T199 795T237 826Q246 833 260 836T289 837T317 825L410 762Q410 762 414 757T422 744T425 726T413 705Q405 697 396 696T377 695T363 699T357
702L285 756Q269 747 249 729T204 685Q204 685 197 683T180 680T157 687Z" />
<glyph unicode="&#xc3;" horiz-adv-x="556" d="M101 -1Q78 2 66 12T48 33T42 53T41 61Q44 147 63 236T110 417Q133 483 154 526T195 595T237 632T281 643Q298 646 317 636T356 604T393 550T421 476Q431 448 445 401T472 296T497 172T515 42Q515 42 515 35T510
20T495 4T464 -3Q444 -3 431 4T411 21T401 38T398 46Q384 130 371 201T344 327Q330 382 316 424T285 504Q272 481 259 452T234 392T214 331Q203 285 195 249T180 179T170 112T163 38Q163 38 161 31T153 16T134 2T101 -1ZM120 91L131 172Q178 183 224 189T318 196T419
193L431 96Q396 102 355 105T272 109T190 104T120 91ZM169 687Q158 681 147 684T129 692T122 697Q104 714 102 733T109 770T136 800T176 814Q214 819 243 810T299 789T355 769Q365 769 372 774T385 790Q385 790 390 796T405 806T433 807Q450 803 457 795T467 778T470
763T469 757Q466 739 448 720T394 694Q374 690 348 694T296 707T246 725Q230 729 215 730T191 729T182 720Q182 720 183 714T182 701T169 687Z" />
<glyph unicode="&#xc4;" horiz-adv-x="556" d="M101 -1Q78 2 66 12T48 33T42 53T41 61Q44 147 63 236T110 417Q133 483 154 526T195 595T237 632T281 643Q298 646 317 636T356 604T393 550T421 476Q431 448 445 401T472 296T497 172T515 42Q515 42 515 35T510
20T495 4T464 -3Q444 -3 431 4T411 21T401 38T398 46Q384 130 371 201T344 327Q330 382 316 424T285 504Q272 481 259 452T234 392T214 331Q203 285 195 249T180 179T170 112T163 38Q163 38 161 31T153 16T134 2T101 -1ZM120 91L131 172Q178 183 224 189T318 196T419
193L431 96Q396 102 355 105T272 109T190 104T120 91ZM382 688Q364 688 349 695T325 716T315 745Q315 762 324 775T349 795T382 803Q401 803 416 796T440 775T449 746Q449 716 430 702T382 688ZM170 688Q152 688 137 696T113 717T104 746Q104 762 113 775T137 795T170
803Q190 803 205 796T229 775T238 746Q238 726 229 713T205 694T170 688Z" />
<glyph unicode="&#xc5;" horiz-adv-x="556" d="M101 -1Q78 2 66 12T48 33T42 53T41 61Q44 147 63 236T110 417Q133 483 154 526T195 595T237 632T281 643Q298 646 317 636T356 604T393 550T421 476Q431 448 445 401T472 296T497 172T515 42Q515 42 515 35T510
20T495 4T464 -3Q444 -3 431 4T411 21T401 38T398 46Q384 130 371 201T344 327Q330 382 316 424T285 504Q272 481 259 452T234 392T214 331Q203 285 195 249T180 179T170 112T163 38Q163 38 161 31T153 16T134 2T101 -1ZM120 91L131 172Q178 183 224 189T318 196T419
193L431 96Q396 102 355 105T272 109T190 104T120 91ZM277 674Q247 674 224 688T187 726T174 776Q174 802 188 822T226 855T277 868Q304 868 329 858T369 827T385 779Q385 753 373 729T336 690T277 674ZM278 733Q299 733 310 746T321 774Q321 791 308 800T279 809Q263
809 251 799T238 773Q238 758 249 746T278 733Z" />
<glyph unicode="&#xc6;" horiz-adv-x="902" d="M101 -1Q78 2 66 12T48 33T42 53T41 61Q44 147 63 236T110 417Q133 483 154 526T195 595T237 632T281 643Q298 646 317 636T356 604T393 550T421 476Q431 448 445 401T472 296T497 172T515 42Q515 42 515 35T510
20T495 4T464 -3Q444 -3 431 4T411 21T401 38T398 46Q384 130 371 201T344 327Q330 382 316 424T285 504Q272 481 259 452T234 392T214 331Q203 285 195 249T180 179T170 112T163 38Q163 38 161 31T153 16T134 2T101 -1ZM120 91L131 172Q178 183 224 189T318 196T419
193L431 96Q396 102 355 105T272 109T190 104T120 91ZM483 0Q456 2 440 9T415 27T403 49T398 67Q395 139 393 204T390 332T392 463T402 612Q405 626 420 638T466 651H780Q780 651 787 651T805 648T828 640T847 624T855 596Q856 579 849 569T831 555T813 550T805
549L514 561Q511 509 509 464T507 376T506 291T508 202T512 101Q548 106 578 109T633 116T682 123T731 131T786 142Q786 142 792 142T808 142T828 136T847 124T859 103Q864 85 861 73T850 55T836 47T830 44Q783 34 741 26T658 13T574 4T483 0ZM426 281L421 385L700
396Q700 396 706 395T723 390T743 381T759 365T766 340Q766 323 758 313T739 299T720 293T712 292L426 281Z" />
<glyph unicode="&#xc7;" horiz-adv-x="628" d="M282 8Q220 20 176 48T102 115T59 198T41 286T46 366Q54 410 76 459T135 552T225 623T349 651Q414 651 463 626T543 562T583 478T580 395Q580 395 575 388T559 374T530 369Q511 372 501 382T487 401T483 411Q483
411 483 422T478 452T464 490T434 524T382 546Q346 551 312 536T250 492T201 427T170 353T162 285Q164 252 175 225T202 176T237 140T278 117T320 106Q347 105 374 116T424 146T456 185Q456 185 460 191T475 203T499 211T535 204Q552 196 560 187T570 167T571 149T567
136T565 131Q565 131 556 115T527 77T474 35T394 6T282 8ZM321 -228Q287 -226 262 -212T215 -179Q215 -179 212 -176T207 -166T205 -154T214 -140Q222 -133 230 -133T245 -134T251 -136Q269 -148 285 -157T320 -168Q340 -167 349 -161T362 -145T364 -123Q360 -107
349 -98T320 -82Q313 -82 305 -79T290 -71T285 -60Q280 -40 280 -18T282 20Q282 20 283 26T291 39T310 45Q324 45 330 34T337 23Q339 13 342 -2T347 -35Q362 -38 376 -46T402 -66T422 -93T432 -125Q437 -164 423 -187T383 -219T321 -228Z" />
<glyph unicode="&#xc8;" horiz-adv-x="553" d="M134 2Q107 4 91 12T66 30T55 51T49 70Q46 142 44 206T41 334T43 466T53 614Q56 628 71 640T117 654H431Q431 654 438 654T457 651T480 643T498 626T507 599Q507 581 500 572T482 558T465 552T457 551L166 563Q162
511 160 466T158 378T158 294T160 205T163 104Q200 108 229 111T284 118T333 125T383 134T437 145Q437 145 443 145T459 144T479 139T498 126T510 105Q515 87 512 76T501 58T488 49T482 46Q435 36 393 28T309 15T225 6T134 2ZM78 284L72 387L351 398Q351 398 358
397T375 393T394 383T411 367T418 343Q418 325 410 315T391 301T372 296T363 295L78 284ZM355 684Q337 690 316 698T271 717T226 739T186 766Q186 766 182 769T175 779T171 794T176 812Q182 821 190 824T207 828T220 828T226 826Q259 813 296 798T382 761Q382 761
388 757T401 745T410 726T405 700Q400 691 392 688T376 683T361 683T355 684Z" />
<glyph unicode="&#xc9;" horiz-adv-x="553" d="M134 2Q107 4 91 12T66 30T55 51T49 70Q46 142 44 206T41 334T43 466T53 614Q56 628 71 640T117 654H431Q431 654 438 654T457 651T480 643T498 626T507 599Q507 581 500 572T482 558T465 552T457 551L166 563Q162
511 160 466T158 378T158 294T160 205T163 104Q200 108 229 111T284 118T333 125T383 134T437 145Q437 145 443 145T459 144T479 139T498 126T510 105Q515 87 512 76T501 58T488 49T482 46Q435 36 393 28T309 15T225 6T134 2ZM78 284L72 387L351 398Q351 398 358
397T375 393T394 383T411 367T418 343Q418 325 410 315T391 301T372 296T363 295L78 284ZM221 679Q221 679 216 679T202 678T185 683T172 696Q165 710 167 721T176 740T189 752T195 756Q244 779 281 794T351 822Q351 822 356 823T370 824T386 820T401 808Q407 798
407 790T402 775T395 766T391 762Q373 747 351 735T306 713T262 694T221 679Z" />
<glyph unicode="&#xca;" horiz-adv-x="553" d="M134 2Q107 4 91 12T66 30T55 51T49 70Q46 142 44 206T41 334T43 466T53 614Q56 628 71 640T117 654H431Q431 654 438 654T457 651T480 643T498 626T507 599Q507 581 500 572T482 558T465 552T457 551L166 563Q162
511 160 466T158 378T158 294T160 205T163 104Q200 108 229 111T284 118T333 125T383 134T437 145Q437 145 443 145T459 144T479 139T498 126T510 105Q515 87 512 76T501 58T488 49T482 46Q435 36 393 28T309 15T225 6T134 2ZM78 284L72 387L351 398Q351 398 358
397T375 393T394 383T411 367T418 343Q418 325 410 315T391 301T372 296T363 295L78 284ZM166 687Q155 695 152 703T148 718T150 729T152 734Q165 752 178 766T208 795T246 826Q255 833 269 836T298 837T326 825L419 762Q419 762 423 757T431 744T434 726T422 705Q414
697 405 696T386 695T372 699T366 702L294 756Q278 747 258 729T213 685Q213 685 206 683T189 680T166 687Z" />
<glyph unicode="&#xcb;" horiz-adv-x="553" d="M134 2Q107 4 91 12T66 30T55 51T49 70Q46 142 44 206T41 334T43 466T53 614Q56 628 71 640T117 654H431Q431 654 438 654T457 651T480 643T498 626T507 599Q507 581 500 572T482 558T465 552T457 551L166 563Q162
511 160 466T158 378T158 294T160 205T163 104Q200 108 229 111T284 118T333 125T383 134T437 145Q437 145 443 145T459 144T479 139T498 126T510 105Q515 87 512 76T501 58T488 49T482 46Q435 36 393 28T309 15T225 6T134 2ZM78 284L72 387L351 398Q351 398 358
397T375 393T394 383T411 367T418 343Q418 325 410 315T391 301T372 296T363 295L78 284ZM391 688Q373 688 358 695T334 716T324 745Q324 762 333 775T358 795T391 803Q410 803 425 796T449 775T458 746Q458 716 439 702T391 688ZM179 688Q161 688 146 696T122
717T113 746Q113 762 122 775T146 795T179 803Q199 803 214 796T238 775T247 746Q247 726 238 713T214 694T179 688Z" />
<glyph unicode="&#xcc;" horiz-adv-x="208" d="M111 1Q92 1 80 9T62 27T53 44T51 52Q47 95 45 149T41 263T41 383T46 501T53 606Q53 606 54 612T60 627T75 642T106 649Q125 648 137 642T156 625T164 605T167 589T167 582Q163 541 161 490T159 381T158 264T161
149T165 45Q165 45 164 39T158 23T142 8T111 1ZM173 684Q155 690 134 698T89 717T44 739T4 766Q4 766 0 769T-7 779T-11 794T-6 812Q0 821 8 824T25 828T38 828T44 826Q77 813 114 798T200 761Q200 761 206 757T219 745T228 726T223 700Q218 691 210 688T194 683T179
683T173 684Z" />
<glyph unicode="&#xcd;" horiz-adv-x="208" d="M111 1Q92 1 80 9T62 27T53 44T51 52Q47 95 45 149T41 263T41 383T46 501T53 606Q53 606 54 612T60 627T75 642T106 649Q125 648 137 642T156 625T164 605T167 589T167 582Q163 541 161 490T159 381T158 264T161
149T165 45Q165 45 164 39T158 23T142 8T111 1ZM39 679Q39 679 34 679T20 678T3 683T-10 696Q-17 710 -15 721T-6 740T7 752T13 756Q62 779 99 794T169 822Q169 822 174 823T188 824T204 820T219 808Q225 798 225 790T220 775T213 766T209 762Q191 747 169 735T124
713T80 694T39 679Z" />
<glyph unicode="&#xce;" horiz-adv-x="208" d="M111 1Q92 1 80 9T62 27T53 44T51 52Q47 95 45 149T41 263T41 383T46 501T53 606Q53 606 54 612T60 627T75 642T106 649Q125 648 137 642T156 625T164 605T167 589T167 582Q163 541 161 490T159 381T158 264T161
149T165 45Q165 45 164 39T158 23T142 8T111 1ZM-16 687Q-27 695 -30 703T-34 718T-32 729T-30 734Q-17 752 -4 766T26 795T64 826Q73 833 87 836T116 837T144 825L237 762Q237 762 241 757T249 744T252 726T240 705Q232 697 223 696T204 695T190 699T184 702L112
756Q96 747 76 729T31 685Q31 685 24 683T7 680T-16 687Z" />
<glyph unicode="&#xcf;" horiz-adv-x="208" d="M111 1Q92 1 80 9T62 27T53 44T51 52Q47 95 45 149T41 263T41 383T46 501T53 606Q53 606 54 612T60 627T75 642T106 649Q125 648 137 642T156 625T164 605T167 589T167 582Q163 541 161 490T159 381T158 264T161
149T165 45Q165 45 164 39T158 23T142 8T111 1ZM209 688Q191 688 176 695T152 716T142 745Q142 762 151 775T176 795T209 803Q228 803 243 796T267 775T276 746Q276 716 257 702T209 688ZM-3 688Q-21 688 -36 696T-60 717T-69 746Q-69 762 -60 775T-36 795T-3 803Q17
803 32 796T56 775T65 746Q65 726 56 713T32 694T-3 688Z" />
<glyph unicode="&#xd0;" horiz-adv-x="632" d="M150 -2Q105 0 80 16T46 55Q42 192 42 326T46 592Q46 628 92 640T217 651Q293 651 346 638T435 603T497 553T546 496Q602 384 591 287T510 104Q469 58 412 35T288 4T150 -2ZM165 111Q247 106 303 118T395 160T447
232T467 329Q463 401 440 446T377 516T284 546T166 546Q161 442 161 333T165 111ZM-10 281Q-12 281 -22 281T-43 287T-59 309Q-63 322 -61 330T-53 343T-44 350T-39 352Q-9 357 18 361T73 368T130 371T193 370T264 364Q264 364 271 361T287 353T302 339T308 319Q308
304 302 296T287 285T273 280T266 279Q228 282 199 283T147 286T100 287T50 285T-10 281Z" />
<glyph unicode="&#xd1;" horiz-adv-x="598" d="M110 1Q91 2 80 9T62 25T53 42T50 49Q44 103 42 165T40 292T43 420T49 541Q49 541 51 550T61 569T90 584Q102 587 113 584T133 577T143 571Q187 522 234 465T332 343T435 212Q434 255 433 303T433 403T436 507T443
610Q443 610 444 616T451 629T467 642T496 648Q516 647 528 641T546 624T555 604T558 588T558 581Q554 540 552 489T550 382T549 267T551 152T556 47Q556 47 555 41T550 26T537 10T511 1Q494 -1 480 7T458 23T450 32Q450 32 438 46T405 86T358 144T304 211T248
280T198 344T159 396Q158 346 158 290T159 172T164 46Q164 46 163 39T156 23T140 7T110 1ZM195 687Q184 681 173 684T155 692T148 697Q130 714 128 733T135 770T162 800T202 814Q240 819 269 810T325 789T381 769Q391 769 398 774T411 790Q411 790 416 796T431
806T459 807Q476 803 483 795T493 778T496 763T495 757Q492 739 474 720T420 694Q400 690 374 694T322 707T272 725Q256 729 241 730T217 729T208 720Q208 720 209 714T208 701T195 687Z" />
<glyph unicode="&#xd2;" horiz-adv-x="750" d="M316 -7Q253 -7 201 16T112 80T56 178T41 303Q44 371 68 434T135 547T233 626T355 656Q406 656 457 645T556 610T639 545T694 447T709 310Q706 246 681 196T615 107T524 44T421 6T316 -7ZM340 108Q372 108 404 116T467
142T522 186T562 248T579 328Q583 389 566 430T519 497T450 533T371 544Q331 544 296 526T234 475T190 401T171 310Q168 247 188 202T247 132T340 108ZM422 684Q404 690 383 698T338 717T293 739T253 766Q253 766 249 769T242 779T238 794T243 812Q249 821 257
824T274 828T287 828T293 826Q326 813 363 798T449 761Q449 761 455 757T468 745T477 726T472 700Q467 691 459 688T443 683T428 683T422 684Z" />
<glyph unicode="&#xd3;" horiz-adv-x="750" d="M316 -7Q253 -7 201 16T112 80T56 178T41 303Q44 371 68 434T135 547T233 626T355 656Q406 656 457 645T556 610T639 545T694 447T709 310Q706 246 681 196T615 107T524 44T421 6T316 -7ZM340 108Q372 108 404 116T467
142T522 186T562 248T579 328Q583 389 566 430T519 497T450 533T371 544Q331 544 296 526T234 475T190 401T171 310Q168 247 188 202T247 132T340 108ZM288 679Q288 679 283 679T269 678T252 683T239 696Q232 710 234 721T243 740T256 752T262 756Q311 779 348
794T418 822Q418 822 423 823T437 824T453 820T468 808Q474 798 474 790T469 775T462 766T458 762Q440 747 418 735T373 713T329 694T288 679Z" />
<glyph unicode="&#xd4;" horiz-adv-x="750" d="M316 -7Q253 -7 201 16T112 80T56 178T41 303Q44 371 68 434T135 547T233 626T355 656Q406 656 457 645T556 610T639 545T694 447T709 310Q706 246 681 196T615 107T524 44T421 6T316 -7ZM340 108Q372 108 404 116T467
142T522 186T562 248T579 328Q583 389 566 430T519 497T450 533T371 544Q331 544 296 526T234 475T190 401T171 310Q168 247 188 202T247 132T340 108ZM233 687Q222 695 219 703T215 718T217 729T219 734Q232 752 245 766T275 795T313 826Q322 833 336 836T365
837T393 825L486 762Q486 762 490 757T498 744T501 726T489 705Q481 697 472 696T453 695T439 699T433 702L361 756Q345 747 325 729T280 685Q280 685 273 683T256 680T233 687Z" />
<glyph unicode="&#xd5;" horiz-adv-x="750" d="M316 -7Q253 -7 201 16T112 80T56 178T41 303Q44 371 68 434T135 547T233 626T355 656Q406 656 457 645T556 610T639 545T694 447T709 310Q706 246 681 196T615 107T524 44T421 6T316 -7ZM340 108Q372 108 404 116T467
142T522 186T562 248T579 328Q583 389 566 430T519 497T450 533T371 544Q331 544 296 526T234 475T190 401T171 310Q168 247 188 202T247 132T340 108ZM245 687Q234 681 223 684T205 692T198 697Q180 714 178 733T185 770T212 800T252 814Q290 819 319 810T375
789T431 769Q441 769 448 774T461 790Q461 790 466 796T481 806T509 807Q526 803 533 795T543 778T546 763T545 757Q542 739 524 720T470 694Q450 690 424 694T372 707T322 725Q306 729 291 730T267 729T258 720Q258 720 259 714T258 701T245 687Z" />
<glyph unicode="&#xd6;" horiz-adv-x="750" d="M316 -7Q253 -7 201 16T112 80T56 178T41 303Q44 371 68 434T135 547T233 626T355 656Q406 656 457 645T556 610T639 545T694 447T709 310Q706 246 681 196T615 107T524 44T421 6T316 -7ZM340 108Q372 108 404 116T467
142T522 186T562 248T579 328Q583 389 566 430T519 497T450 533T371 544Q331 544 296 526T234 475T190 401T171 310Q168 247 188 202T247 132T340 108ZM458 688Q440 688 425 695T401 716T391 745Q391 762 400 775T425 795T458 803Q477 803 492 796T516 775T525
746Q525 716 506 702T458 688ZM246 688Q228 688 213 696T189 717T180 746Q180 762 189 775T213 795T246 803Q266 803 281 796T305 775T314 746Q314 726 305 713T281 694T246 688Z" />
<glyph unicode="&#xd7;" horiz-adv-x="505" d="M440 81Q427 74 415 75T393 83T378 94T373 99Q326 155 283 205T201 305T123 407T46 518Q46 518 44 523T41 536T44 553T62 568Q74 573 85 571T106 563T121 552T127 547Q175 485 225 421T331 288T451 139Q451 139 454
133T460 118T458 99T440 81ZM70 76Q55 84 51 94T48 112T53 126T56 132Q103 188 144 240T225 344T302 450T381 563Q381 563 387 568T404 577T433 573Q448 567 454 558T462 541T463 528T461 522Q420 455 381 396T302 283T221 179T135 77Q135 77 127 72T104 66T70
76Z" />
<glyph unicode="&#xd8;" horiz-adv-x="750" d="M316 -7Q253 -7 201 16T112 80T56 178T41 303Q44 371 68 434T135 547T233 626T355 656Q406 656 457 645T556 610T639 545T694 447T709 310Q706 246 681 196T615 107T524 44T421 6T316 -7ZM340 108Q372 108 404 116T467
142T522 186T562 248T579 328Q583 389 566 430T519 497T450 533T371 544Q331 544 296 526T234 475T190 401T171 310Q168 247 188 202T247 132T340 108ZM224 -32Q206 -26 198 -16T187 4T185 21T186 29Q207 86 236 158T302 310T378 477T460 650Q460 650 464 655T476
667T496 676T528 673Q547 666 555 656T564 635T564 617T562 610Q506 485 456 371T364 158T294 -16Q294 -16 287 -23T264 -35T224 -32Z" />
<glyph unicode="&#xd9;" horiz-adv-x="612" d="M316 -3Q230 3 170 44T78 165T41 362V612Q41 612 42 617T48 631T63 644T91 650Q114 650 128 642T149 624T158 605T161 597L164 363Q164 284 180 228T230 140T311 103Q355 110 385 139T432 229T447 392L444 597Q444
597 444 603T448 619T463 634T494 641Q514 642 527 635T549 618T560 597T565 579T567 572L572 373Q573 297 562 230T523 112T444 30T316 -3ZM373 684Q355 690 334 698T289 717T244 739T204 766Q204 766 200 769T193 779T189 794T194 812Q200 821 208 824T225 828T238
828T244 826Q277 813 314 798T400 761Q400 761 406 757T419 745T428 726T423 700Q418 691 410 688T394 683T379 683T373 684Z" />
<glyph unicode="&#xda;" horiz-adv-x="612" d="M316 -3Q230 3 170 44T78 165T41 362V612Q41 612 42 617T48 631T63 644T91 650Q114 650 128 642T149 624T158 605T161 597L164 363Q164 284 180 228T230 140T311 103Q355 110 385 139T432 229T447 392L444 597Q444
597 444 603T448 619T463 634T494 641Q514 642 527 635T549 618T560 597T565 579T567 572L572 373Q573 297 562 230T523 112T444 30T316 -3ZM239 679Q239 679 234 679T220 678T203 683T190 696Q183 710 185 721T194 740T207 752T213 756Q262 779 299 794T369 822Q369
822 374 823T388 824T404 820T419 808Q425 798 425 790T420 775T413 766T409 762Q391 747 369 735T324 713T280 694T239 679Z" />
<glyph unicode="&#xdb;" horiz-adv-x="612" d="M316 -3Q230 3 170 44T78 165T41 362V612Q41 612 42 617T48 631T63 644T91 650Q114 650 128 642T149 624T158 605T161 597L164 363Q164 284 180 228T230 140T311 103Q355 110 385 139T432 229T447 392L444 597Q444
597 444 603T448 619T463 634T494 641Q514 642 527 635T549 618T560 597T565 579T567 572L572 373Q573 297 562 230T523 112T444 30T316 -3ZM184 687Q173 695 170 703T166 718T168 729T170 734Q183 752 196 766T226 795T264 826Q273 833 287 836T316 837T344 825L437
762Q437 762 441 757T449 744T452 726T440 705Q432 697 423 696T404 695T390 699T384 702L312 756Q296 747 276 729T231 685Q231 685 224 683T207 680T184 687Z" />
<glyph unicode="&#xdc;" horiz-adv-x="612" d="M316 -3Q230 3 170 44T78 165T41 362V612Q41 612 42 617T48 631T63 644T91 650Q114 650 128 642T149 624T158 605T161 597L164 363Q164 284 180 228T230 140T311 103Q355 110 385 139T432 229T447 392L444 597Q444
597 444 603T448 619T463 634T494 641Q514 642 527 635T549 618T560 597T565 579T567 572L572 373Q573 297 562 230T523 112T444 30T316 -3ZM409 688Q391 688 376 695T352 716T342 745Q342 762 351 775T376 795T409 803Q428 803 443 796T467 775T476 746Q476 716
457 702T409 688ZM197 688Q179 688 164 696T140 717T131 746Q131 762 140 775T164 795T197 803Q217 803 232 796T256 775T265 746Q265 726 256 713T232 694T197 688Z" />
<glyph unicode="&#xdd;" horiz-adv-x="544" d="M265 239Q174 251 120 299T49 424T52 603Q52 603 54 610T63 626T82 642T114 645Q135 641 146 632T161 611T166 592T167 583Q154 472 174 411T254 343Q287 347 313 369T356 425T379 500T378 580Q378 580 377 587T377
604T387 624T416 637Q438 641 453 635T477 620T490 603T494 595Q507 538 502 480T469 370T392 283T265 239ZM271 7Q252 7 240 14T221 30T212 46T209 54Q198 113 199 173T208 294L324 293Q315 221 315 159T322 49Q322 49 322 43T317 28T301 14T271 7ZM213 679Q213
679 208 679T194 678T177 683T164 696Q157 710 159 721T168 740T181 752T187 756Q236 779 273 794T343 822Q343 822 348 823T362 824T378 820T393 808Q399 798 399 790T394 775T387 766T383 762Q365 747 343 735T298 713T254 694T213 679Z" />
<glyph unicode="&#xde;" horiz-adv-x="564" d="M283 79Q238 79 199 96T132 144T91 215T80 302Q84 349 104 389T158 461T232 509T320 527Q366 527 404 508T471 457T513 382T523 294Q520 247 499 208T445 140T371 95T283 79ZM111 1Q92 1 80 9T62 27T53 44T51 52Q47
95 45 149T41 263T41 383T46 501T53 606Q53 606 54 612T60 627T76 642T106 649Q126 648 138 642T156 625T164 605T167 589T167 582Q163 541 161 490T159 381T158 264T161 149T165 45Q165 45 164 39T158 23T142 8T111 1ZM293 189Q322 189 347 204T388 247T406 306Q408
339 396 365T362 407T311 423Q282 423 258 408T217 366T198 306Q196 274 208 247T242 205T293 189Z" />
<glyph unicode="&#xdf;" horiz-adv-x="572" d="M111 2Q93 2 81 9T63 26T54 44T51 52Q46 92 44 145T41 259T41 380T46 499T53 605Q53 605 54 611T60 625T75 639T102 646Q185 656 258 653T389 632T482 575T526 474Q526 437 512 409T477 363T433 337Q458 324 481
303T518 253T532 190Q530 135 504 98T435 39T339 10Q339 10 330 10T307 12T281 23T264 48Q259 65 264 75T277 92T293 100T301 103Q335 114 360 128T398 162T409 205Q404 228 388 243T347 266T293 278T228 282T158 282L165 46Q165 46 164 40T157 24T142 9T111 2ZM160
404Q209 401 253 403T331 413T384 437T404 482Q403 510 384 527T333 552T257 561T165 557L160 404Z" />
<glyph unicode="&#xe0;" horiz-adv-x="618" d="M279 2Q227 1 184 19T108 71T59 149T41 243Q41 297 60 344T114 425T193 479T291 500Q366 500 420 474T502 392T531 250Q531 200 514 156T465 77T386 23T279 2ZM284 107Q312 107 337 119T383 153T414 201T426 260Q426
311 410 344T365 393T298 409Q271 409 246 395T203 357T174 304T163 244Q163 205 178 174T220 125T284 107ZM529 1Q510 1 498 7T480 20T474 27Q467 100 463 172T460 319T469 475Q469 475 474 481T491 494T524 499Q545 497 556 488T572 466T577 444T578 435Q574
384 572 340T569 252T572 157T577 46Q577 46 576 39T571 24T557 8T529 1ZM370 542Q352 548 331 556T286 575T241 597T201 624Q201 624 197 627T190 637T186 652T191 670Q197 679 205 682T222 686T235 686T241 684Q274 671 311 656T397 619Q397 619 403 615T416
603T425 584T420 558Q415 549 407 546T391 541T376 541T370 542Z" />
<glyph unicode="&#xe1;" horiz-adv-x="618" d="M279 2Q227 1 184 19T108 71T59 149T41 243Q41 297 60 344T114 425T193 479T291 500Q366 500 420 474T502 392T531 250Q531 200 514 156T465 77T386 23T279 2ZM284 107Q312 107 337 119T383 153T414 201T426 260Q426
311 410 344T365 393T298 409Q271 409 246 395T203 357T174 304T163 244Q163 205 178 174T220 125T284 107ZM529 1Q510 1 498 7T480 20T474 27Q467 100 463 172T460 319T469 475Q469 475 474 481T491 494T524 499Q545 497 556 488T572 466T577 444T578 435Q574
384 572 340T569 252T572 157T577 46Q577 46 576 39T571 24T557 8T529 1ZM236 537Q236 537 231 537T217 536T200 541T187 554Q180 568 182 579T191 598T204 610T210 614Q259 637 296 652T366 680Q366 680 371 681T385 682T401 678T416 666Q422 656 422 648T417
633T410 624T406 620Q388 605 366 593T321 571T277 552T236 537Z" />
<glyph unicode="&#xe2;" horiz-adv-x="618" d="M279 2Q227 1 184 19T108 71T59 149T41 243Q41 297 60 344T114 425T193 479T291 500Q366 500 420 474T502 392T531 250Q531 200 514 156T465 77T386 23T279 2ZM284 107Q312 107 337 119T383 153T414 201T426 260Q426
311 410 344T365 393T298 409Q271 409 246 395T203 357T174 304T163 244Q163 205 178 174T220 125T284 107ZM529 1Q510 1 498 7T480 20T474 27Q467 100 463 172T460 319T469 475Q469 475 474 481T491 494T524 499Q545 497 556 488T572 466T577 444T578 435Q574
384 572 340T569 252T572 157T577 46Q577 46 576 39T571 24T557 8T529 1ZM181 545Q170 553 167 561T163 576T165 587T167 592Q180 610 193 624T223 653T261 684Q270 691 284 694T313 695T341 683L434 620Q434 620 438 615T446 602T449 584T437 563Q429 555 420
554T401 553T387 557T381 560L309 614Q293 605 273 587T228 543Q228 543 221 541T204 538T181 545Z" />
<glyph unicode="&#xe3;" horiz-adv-x="618" d="M279 2Q227 1 184 19T108 71T59 149T41 243Q41 297 60 344T114 425T193 479T291 500Q366 500 420 474T502 392T531 250Q531 200 514 156T465 77T386 23T279 2ZM284 107Q312 107 337 119T383 153T414 201T426 260Q426
311 410 344T365 393T298 409Q271 409 246 395T203 357T174 304T163 244Q163 205 178 174T220 125T284 107ZM529 1Q510 1 498 7T480 20T474 27Q467 100 463 172T460 319T469 475Q469 475 474 481T491 494T524 499Q545 497 556 488T572 466T577 444T578 435Q574
384 572 340T569 252T572 157T577 46Q577 46 576 39T571 24T557 8T529 1ZM193 545Q182 539 171 542T153 550T146 555Q128 572 126 591T133 628T160 658T200 672Q238 677 267 668T323 647T379 627Q389 627 396 632T409 648Q409 648 414 654T429 664T457 665Q474
661 481 653T491 636T494 621T493 615Q490 597 472 578T418 552Q398 548 372 552T320 565T270 583Q254 587 239 588T215 587T206 578Q206 578 207 572T206 559T193 545Z" />
<glyph unicode="&#xe4;" horiz-adv-x="618" d="M279 2Q227 1 184 19T108 71T59 149T41 243Q41 297 60 344T114 425T193 479T291 500Q366 500 420 474T502 392T531 250Q531 200 514 156T465 77T386 23T279 2ZM284 107Q312 107 337 119T383 153T414 201T426 260Q426
311 410 344T365 393T298 409Q271 409 246 395T203 357T174 304T163 244Q163 205 178 174T220 125T284 107ZM529 1Q510 1 498 7T480 20T474 27Q467 100 463 172T460 319T469 475Q469 475 474 481T491 494T524 499Q545 497 556 488T572 466T577 444T578 435Q574
384 572 340T569 252T572 157T577 46Q577 46 576 39T571 24T557 8T529 1ZM406 546Q388 546 373 553T349 574T339 603Q339 620 348 633T373 653T406 661Q425 661 440 654T464 633T473 604Q473 574 454 560T406 546ZM194 546Q176 546 161 554T137 575T128 604Q128
620 137 633T161 653T194 661Q214 661 229 654T253 633T262 604Q262 584 253 571T229 552T194 546Z" />
<glyph unicode="&#xe5;" horiz-adv-x="618" d="M279 2Q227 1 184 19T108 71T59 149T41 243Q41 297 60 344T114 425T193 479T291 500Q366 500 420 474T502 392T531 250Q531 200 514 156T465 77T386 23T279 2ZM284 107Q312 107 337 119T383 153T414 201T426 260Q426
311 410 344T365 393T298 409Q271 409 246 395T203 357T174 304T163 244Q163 205 178 174T220 125T284 107ZM529 1Q510 1 498 7T480 20T474 27Q467 100 463 172T460 319T469 475Q469 475 474 481T491 494T524 499Q545 497 556 488T572 466T577 444T578 435Q574
384 572 340T569 252T572 157T577 46Q577 46 576 39T571 24T557 8T529 1ZM301 532Q271 532 248 546T211 584T198 634Q198 660 212 680T250 713T301 726Q328 726 353 716T393 685T409 637Q409 611 397 587T360 548T301 532ZM302 591Q323 591 334 604T345 632Q345
649 332 658T303 667Q287 667 275 657T262 631Q262 616 273 604T302 591Z" />
<glyph unicode="&#xe6;" horiz-adv-x="1008" d="M716 -10Q650 2 610 28T547 90T518 166T509 247Q509 294 526 340T578 423T659 481T765 498Q824 494 861 476T920 430T949 372T959 314Q959 265 933 230T851 182Q835 178 812 177T763 176T711 177T665 179T631 181T618
182Q621 158 634 135T674 97T741 79Q779 78 809 80T862 86T895 92T907 95Q907 95 912 95T927 94T945 88T960 71Q967 60 966 51T961 36T952 27T948 24Q948 24 927 16T872 0T797 -13T716 -10ZM279 2Q227 1 184 19T108 71T59 149T41 243Q41 297 60 344T114 425T193
479T291 500Q366 500 420 474T502 392T531 250Q531 200 514 156T465 77T386 23T279 2ZM284 107Q312 107 337 119T383 153T414 201T426 260Q426 311 410 344T365 393T298 409Q271 409 246 395T203 357T174 304T163 244Q163 205 178 174T220 125T284 107ZM529 1Q510
1 498 7T480 20T474 27Q467 100 463 172T460 319T469 475Q469 475 474 481T491 494T524 499Q545 497 556 488T572 466T577 444T578 435Q574 384 572 340T569 252T572 157T577 46Q577 46 576 39T571 24T557 8T529 1ZM619 254L796 256Q796 256 802 257T819 261T838
271T854 290T860 321Q860 352 849 373T813 403T743 410Q712 408 688 391T648 348T624 298T619 254Z" />
<glyph unicode="&#xe7;" horiz-adv-x="546" d="M303 -245Q269 -243 244 -229T197 -196Q197 -196 194 -193T189 -183T187 -171T196 -157Q204 -150 212 -150T227 -151T233 -153Q251 -165 267 -174T302 -185Q322 -184 331 -178T344 -162T346 -140Q342 -124 331 -115T302
-99Q296 -98 288 -95T274 -86T267 -77Q262 -57 262 -35T264 3Q264 3 265 9T273 22T292 28Q306 28 312 17T319 6Q321 -4 324 -19T329 -52Q344 -55 358 -63T384 -83T404 -110T414 -142Q419 -181 405 -204T365 -236T303 -245ZM276 -9Q194 -4 144 26T70 108T41 225Q37
277 52 325T100 412T180 473T287 495Q338 495 373 482T432 451T467 414T485 383T490 371Q490 371 490 364T485 347T468 328Q456 321 441 319T413 320T395 329Q394 329 389 337T373 355T345 373T302 380Q273 379 248 370T204 344T175 300T166 237Q167 192 182 165T223
124T283 107Q309 105 332 110T373 125T402 141T416 148Q433 154 447 152T474 143T495 125Q505 112 505 100T504 81T501 74Q501 74 489 61T451 30T381 0T276 -9Z" />
<glyph unicode="&#xe8;" horiz-adv-x="540" d="M248 -10Q182 2 142 28T79 90T50 166T41 247Q41 294 58 340T110 423T191 481T297 498Q356 494 393 476T452 430T481 372T491 314Q491 265 465 230T383 182Q367 178 344 177T295 176T243 177T197 179T163 181T150
182Q153 158 166 135T206 97T273 79Q311 78 341 80T394 86T427 92T439 95Q439 95 444 95T459 94T477 88T492 71Q499 60 498 51T493 36T484 27T480 24Q480 24 459 16T404 0T329 -13T248 -10ZM151 254L328 256Q328 256 334 257T351 261T370 271T386 290T392 321Q392
352 381 373T345 403T275 410Q244 408 220 391T180 348T156 298T151 254ZM355 542Q337 548 316 556T271 575T226 597T186 624Q186 624 182 627T175 637T171 652T176 670Q182 679 190 682T207 686T220 686T226 684Q259 671 296 656T382 619Q382 619 388 615T401
603T410 584T405 558Q400 549 392 546T376 541T361 541T355 542Z" />
<glyph unicode="&#xe9;" horiz-adv-x="540" d="M248 -10Q182 2 142 28T79 90T50 166T41 247Q41 294 58 340T110 423T191 481T297 498Q356 494 393 476T452 430T481 372T491 314Q491 265 465 230T383 182Q367 178 344 177T295 176T243 177T197 179T163 181T150
182Q153 158 166 135T206 97T273 79Q311 78 341 80T394 86T427 92T439 95Q439 95 444 95T459 94T477 88T492 71Q499 60 498 51T493 36T484 27T480 24Q480 24 459 16T404 0T329 -13T248 -10ZM151 254L328 256Q328 256 334 257T351 261T370 271T386 290T392 321Q392
352 381 373T345 403T275 410Q244 408 220 391T180 348T156 298T151 254ZM221 537Q221 537 216 537T202 536T185 541T172 554Q165 568 167 579T176 598T189 610T195 614Q244 637 281 652T351 680Q351 680 356 681T370 682T386 678T401 666Q407 656 407 648T402
633T395 624T391 620Q373 605 351 593T306 571T262 552T221 537Z" />
<glyph unicode="&#xea;" horiz-adv-x="540" d="M248 -10Q182 2 142 28T79 90T50 166T41 247Q41 294 58 340T110 423T191 481T297 498Q356 494 393 476T452 430T481 372T491 314Q491 265 465 230T383 182Q367 178 344 177T295 176T243 177T197 179T163 181T150
182Q153 158 166 135T206 97T273 79Q311 78 341 80T394 86T427 92T439 95Q439 95 444 95T459 94T477 88T492 71Q499 60 498 51T493 36T484 27T480 24Q480 24 459 16T404 0T329 -13T248 -10ZM151 254L328 256Q328 256 334 257T351 261T370 271T386 290T392 321Q392
352 381 373T345 403T275 410Q244 408 220 391T180 348T156 298T151 254ZM166 545Q155 553 152 561T148 576T150 587T152 592Q165 610 178 624T208 653T246 684Q255 691 269 694T298 695T326 683L419 620Q419 620 423 615T431 602T434 584T422 563Q414 555 405
554T386 553T372 557T366 560L294 614Q278 605 258 587T213 543Q213 543 206 541T189 538T166 545Z" />
<glyph unicode="&#xeb;" horiz-adv-x="540" d="M248 -10Q182 2 142 28T79 90T50 166T41 247Q41 294 58 340T110 423T191 481T297 498Q356 494 393 476T452 430T481 372T491 314Q491 265 465 230T383 182Q367 178 344 177T295 176T243 177T197 179T163 181T150
182Q153 158 166 135T206 97T273 79Q311 78 341 80T394 86T427 92T439 95Q439 95 444 95T459 94T477 88T492 71Q499 60 498 51T493 36T484 27T480 24Q480 24 459 16T404 0T329 -13T248 -10ZM151 254L328 256Q328 256 334 257T351 261T370 271T386 290T392 321Q392
352 381 373T345 403T275 410Q244 408 220 391T180 348T156 298T151 254ZM391 546Q373 546 358 553T334 574T324 603Q324 620 333 633T358 653T391 661Q410 661 425 654T449 633T458 604Q458 574 439 560T391 546ZM179 546Q161 546 146 554T122 575T113 604Q113
620 122 633T146 653T179 661Q199 661 214 654T238 633T247 604Q247 584 238 571T214 552T179 546Z" />
<glyph unicode="&#xec;" horiz-adv-x="205" d="M111 1Q94 2 83 8T64 24T55 39T52 45Q46 99 44 148T41 245T43 346T51 458Q51 458 52 464T59 479T75 493T106 499Q127 498 138 490T156 471T163 452T165 444Q162 395 160 349T158 255T159 156T165 45Q165 45 164 38T157
22T141 7T111 1ZM432 542Q414 548 393 556T348 575T303 597T263 624Q263 624 259 627T252 637T248 652T253 670Q259 679 267 682T284 686T297 686T303 684Q336 671 373 656T459 619Q459 619 465 615T478 603T487 584T482 558Q477 549 469 546T453 541T438 541T432
542Z" />
<glyph unicode="&#xed;" horiz-adv-x="205" d="M111 1Q94 2 83 8T64 24T55 39T52 45Q46 99 44 148T41 245T43 346T51 458Q51 458 52 464T59 479T75 493T106 499Q127 498 138 490T156 471T163 452T165 444Q162 395 160 349T158 255T159 156T165 45Q165 45 164 38T157
22T141 7T111 1ZM298 537Q298 537 293 537T279 536T262 541T249 554Q242 568 244 579T253 598T266 610T272 614Q321 637 358 652T428 680Q428 680 433 681T447 682T463 678T478 666Q484 656 484 648T479 633T472 624T468 620Q450 605 428 593T383 571T339 552T298
537Z" />
<glyph unicode="&#xee;" horiz-adv-x="205" d="M111 1Q94 2 83 8T64 24T55 39T52 45Q46 99 44 148T41 245T43 346T51 458Q51 458 52 464T59 479T75 493T106 499Q127 498 138 490T156 471T163 452T165 444Q162 395 160 349T158 255T159 156T165 45Q165 45 164 38T157
22T141 7T111 1ZM243 545Q232 553 229 561T225 576T227 587T229 592Q242 610 255 624T285 653T323 684Q332 691 346 694T375 695T403 683L496 620Q496 620 500 615T508 602T511 584T499 563Q491 555 482 554T463 553T449 557T443 560L371 614Q355 605 335 587T290
543Q290 543 283 541T266 538T243 545Z" />
<glyph unicode="&#xef;" horiz-adv-x="205" d="M111 1Q94 2 83 8T64 24T55 39T52 45Q46 99 44 148T41 245T43 346T51 458Q51 458 52 464T59 479T75 493T106 499Q127 498 138 490T156 471T163 452T165 444Q162 395 160 349T158 255T159 156T165 45Q165 45 164 38T157
22T141 7T111 1ZM468 546Q450 546 435 553T411 574T401 603Q401 620 410 633T435 653T468 661Q487 661 502 654T526 633T535 604Q535 574 516 560T468 546ZM256 546Q238 546 223 554T199 575T190 604Q190 620 199 633T223 653T256 661Q276 661 291 654T315 633T324
604Q324 584 315 571T291 552T256 546Z" />
<glyph unicode="&#xf0;" horiz-adv-x="597" d="M295 7Q240 3 193 13T110 51T54 124Q37 163 44 205T83 283T174 338Q230 355 286 355T404 338Q403 357 399 375T390 409T380 439Q366 475 344 502T286 546Q241 556 198 550T110 527Q110 527 105 525T91 523T74 525T59
537Q51 548 52 559T57 578T67 592T72 597Q131 636 197 647T332 642Q368 633 404 605T469 530T516 422T532 281Q524 176 464 106T295 7ZM273 106Q305 108 332 124T377 167T401 229Q356 246 314 253T234 252Q154 228 174 165Q187 139 210 123T273 106ZM272 423Q272
423 266 422T252 420T236 424T221 438Q215 449 215 457T219 470T226 479T230 482Q256 495 280 506T329 526T381 543T438 558T506 571Q506 571 512 571T528 567T545 558T555 541Q558 527 554 519T543 505T531 498T525 496Q489 488 463 482T414 470T370 458T326 443T272
423Z" />
<glyph unicode="&#xf1;" horiz-adv-x="568" d="M447 17Q427 22 417 33T404 56T400 76T399 85Q409 163 407 228T383 331Q365 365 339 379T285 391T228 369Q197 347 181 316T158 251T151 186Q151 156 151 134T152 94T153 64Q153 64 153 59T150 47T139 34T115 27Q101
26 90 33T73 47T66 55Q56 72 55 88T55 125T52 176Q49 213 49 243T54 298T67 346T92 392Q112 418 142 440T208 477T282 493T358 484Q382 474 406 458T452 418T491 360T519 281Q529 229 528 176T517 58Q517 58 515 50T507 32T486 17T447 17ZM111 1Q94 2 83 8T64 24T55
39T52 45Q46 99 44 148T41 245T43 346T51 458Q51 458 52 464T59 479T75 493T106 499Q127 498 138 490T156 471T163 452T165 444Q162 395 160 349T158 255T159 156T165 45Q165 45 164 38T157 22T141 7T111 1ZM169 545Q158 539 147 542T129 550T122 555Q104 572 102
591T109 628T136 658T176 672Q214 677 243 668T299 647T355 627Q365 627 372 632T385 648Q385 648 390 654T405 664T433 665Q450 661 457 653T467 636T470 621T469 615Q466 597 448 578T394 552Q374 548 348 552T296 565T246 583Q230 587 215 588T191 587T182 578Q182
578 183 572T182 559T169 545Z" />
<glyph unicode="&#xf2;" horiz-adv-x="585" d="M283 2Q229 2 185 20T108 72T58 149T40 243Q40 293 59 339T112 422T192 479T291 500Q345 500 391 485T471 440T525 362T545 250Q545 200 525 155T468 76T384 22T283 2ZM281 106Q310 106 336 118T382 151T413 199T425
256Q425 307 409 340T363 388T296 404Q268 404 243 390T200 353T171 301T160 242Q160 202 175 172T217 124T281 106ZM358 542Q340 548 319 556T274 575T229 597T189 624Q189 624 185 627T178 637T174 652T179 670Q185 679 193 682T210 686T223 686T229 684Q262
671 299 656T385 619Q385 619 391 615T404 603T413 584T408 558Q403 549 395 546T379 541T364 541T358 542Z" />
<glyph unicode="&#xf3;" horiz-adv-x="585" d="M283 2Q229 2 185 20T108 72T58 149T40 243Q40 293 59 339T112 422T192 479T291 500Q345 500 391 485T471 440T525 362T545 250Q545 200 525 155T468 76T384 22T283 2ZM281 106Q310 106 336 118T382 151T413 199T425
256Q425 307 409 340T363 388T296 404Q268 404 243 390T200 353T171 301T160 242Q160 202 175 172T217 124T281 106ZM224 537Q224 537 219 537T205 536T188 541T175 554Q168 568 170 579T179 598T192 610T198 614Q247 637 284 652T354 680Q354 680 359 681T373
682T389 678T404 666Q410 656 410 648T405 633T398 624T394 620Q376 605 354 593T309 571T265 552T224 537Z" />
<glyph unicode="&#xf4;" horiz-adv-x="585" d="M283 2Q229 2 185 20T108 72T58 149T40 243Q40 293 59 339T112 422T192 479T291 500Q345 500 391 485T471 440T525 362T545 250Q545 200 525 155T468 76T384 22T283 2ZM281 106Q310 106 336 118T382 151T413 199T425
256Q425 307 409 340T363 388T296 404Q268 404 243 390T200 353T171 301T160 242Q160 202 175 172T217 124T281 106ZM169 545Q158 553 155 561T151 576T153 587T155 592Q168 610 181 624T211 653T249 684Q258 691 272 694T301 695T329 683L422 620Q422 620 426
615T434 602T437 584T425 563Q417 555 408 554T389 553T375 557T369 560L297 614Q281 605 261 587T216 543Q216 543 209 541T192 538T169 545Z" />
<glyph unicode="&#xf5;" horiz-adv-x="585" d="M283 2Q229 2 185 20T108 72T58 149T40 243Q40 293 59 339T112 422T192 479T291 500Q345 500 391 485T471 440T525 362T545 250Q545 200 525 155T468 76T384 22T283 2ZM281 106Q310 106 336 118T382 151T413 199T425
256Q425 307 409 340T363 388T296 404Q268 404 243 390T200 353T171 301T160 242Q160 202 175 172T217 124T281 106ZM181 545Q170 539 159 542T141 550T134 555Q116 572 114 591T121 628T148 658T188 672Q226 677 255 668T311 647T367 627Q377 627 384 632T397
648Q397 648 402 654T417 664T445 665Q462 661 469 653T479 636T482 621T481 615Q478 597 460 578T406 552Q386 548 360 552T308 565T258 583Q242 587 227 588T203 587T194 578Q194 578 195 572T194 559T181 545Z" />
<glyph unicode="&#xf6;" horiz-adv-x="585" d="M283 2Q229 2 185 20T108 72T58 149T40 243Q40 293 59 339T112 422T192 479T291 500Q345 500 391 485T471 440T525 362T545 250Q545 200 525 155T468 76T384 22T283 2ZM281 106Q310 106 336 118T382 151T413 199T425
256Q425 307 409 340T363 388T296 404Q268 404 243 390T200 353T171 301T160 242Q160 202 175 172T217 124T281 106ZM394 546Q376 546 361 553T337 574T327 603Q327 620 336 633T361 653T394 661Q413 661 428 654T452 633T461 604Q461 574 442 560T394 546ZM182
546Q164 546 149 554T125 575T116 604Q116 620 125 633T149 653T182 661Q202 661 217 654T241 633T250 604Q250 584 241 571T217 552T182 546Z" />
<glyph unicode="&#xf7;" horiz-adv-x="514" d="M110 253Q109 253 102 253T85 255T67 265T53 286Q48 301 51 311T59 326T70 334T76 337Q108 342 138 347T200 355T264 358T333 357T412 350Q412 350 420 347T438 338T456 321T464 297Q463 280 456 271T439 257T422
252T415 251Q373 254 341 255T283 258T231 259T177 257T110 253ZM256 96Q238 96 223 103T199 124T190 153Q190 169 199 182T223 203T257 211Q276 211 291 203T315 182T324 153Q324 133 315 120T291 102T256 96ZM256 404Q238 404 223 411T199 432T190 462Q190 478
199 491T223 511T256 519Q276 519 291 512T315 491T324 462Q324 442 315 429T291 410T256 404Z" />
<glyph unicode="&#xf8;" horiz-adv-x="585" d="M283 2Q229 2 185 20T108 72T58 149T40 243Q40 293 59 339T112 422T192 479T291 500Q345 500 391 485T471 440T525 362T545 250Q545 200 525 155T468 76T384 22T283 2ZM176 -64Q164 -59 158 -51T151 -34T149 -20T150
-14Q172 53 205 139T279 324T364 523Q364 523 366 527T374 537T389 545T410 542Q424 537 429 528T436 510T436 495T434 489Q390 382 351 283T280 100T225 -50Q225 -50 220 -56T204 -66T176 -64ZM281 106Q310 106 336 118T382 151T413 199T425 256Q425 307 409 340T363
388T296 404Q268 404 243 390T200 353T171 301T160 242Q160 202 175 172T217 124T281 106Z" />
<glyph unicode="&#xf9;" horiz-adv-x="568" d="M211 10Q187 19 163 35T116 76T77 134T50 214Q40 266 40 320T51 438Q51 438 53 446T62 465T83 480T121 480Q141 475 151 464T165 441T169 420T169 411Q159 334 161 268T185 163Q199 138 217 124T255 106T295 104T331
119Q356 135 369 165T387 231T388 299Q384 329 378 359T367 413T360 451Q360 451 360 457T364 471T377 485T405 494Q424 496 438 489T460 473T468 465Q484 439 499 401T522 318Q530 264 527 223T511 147T477 82Q456 56 426 37T360 7T286 -3T211 10ZM335 542Q317
548 296 556T251 575T206 597T166 624Q166 624 162 627T155 637T151 652T156 670Q162 679 170 682T187 686T200 686T206 684Q239 671 276 656T362 619Q362 619 368 615T381 603T390 584T385 558Q380 549 372 546T356 541T341 541T335 542Z" />
<glyph unicode="&#xfa;" horiz-adv-x="568" d="M211 10Q187 19 163 35T116 76T77 134T50 214Q40 266 40 320T51 438Q51 438 53 446T62 465T83 480T121 480Q141 475 151 464T165 441T169 420T169 411Q159 334 161 268T185 163Q199 138 217 124T255 106T295 104T331
119Q356 135 369 165T387 231T388 299Q384 329 378 359T367 413T360 451Q360 451 360 457T364 471T377 485T405 494Q424 496 438 489T460 473T468 465Q484 439 499 401T522 318Q530 264 527 223T511 147T477 82Q456 56 426 37T360 7T286 -3T211 10ZM201 537Q201
537 196 537T182 536T165 541T152 554Q145 568 147 579T156 598T169 610T175 614Q224 637 261 652T331 680Q331 680 336 681T350 682T366 678T381 666Q387 656 387 648T382 633T375 624T371 620Q353 605 331 593T286 571T242 552T201 537Z" />
<glyph unicode="&#xfb;" horiz-adv-x="568" d="M211 10Q187 19 163 35T116 76T77 134T50 214Q40 266 40 320T51 438Q51 438 53 446T62 465T83 480T121 480Q141 475 151 464T165 441T169 420T169 411Q159 334 161 268T185 163Q199 138 217 124T255 106T295 104T331
119Q356 135 369 165T387 231T388 299Q384 329 378 359T367 413T360 451Q360 451 360 457T364 471T377 485T405 494Q424 496 438 489T460 473T468 465Q484 439 499 401T522 318Q530 264 527 223T511 147T477 82Q456 56 426 37T360 7T286 -3T211 10ZM146 545Q135
553 132 561T128 576T130 587T132 592Q145 610 158 624T188 653T226 684Q235 691 249 694T278 695T306 683L399 620Q399 620 403 615T411 602T414 584T402 563Q394 555 385 554T366 553T352 557T346 560L274 614Q258 605 238 587T193 543Q193 543 186 541T169 538T146
545Z" />
<glyph unicode="&#xfc;" horiz-adv-x="568" d="M211 10Q187 19 163 35T116 76T77 134T50 214Q40 266 40 320T51 438Q51 438 53 446T62 465T83 480T121 480Q141 475 151 464T165 441T169 420T169 411Q159 334 161 268T185 163Q199 138 217 124T255 106T295 104T331
119Q356 135 369 165T387 231T388 299Q384 329 378 359T367 413T360 451Q360 451 360 457T364 471T377 485T405 494Q424 496 438 489T460 473T468 465Q484 439 499 401T522 318Q530 264 527 223T511 147T477 82Q456 56 426 37T360 7T286 -3T211 10ZM371 546Q353
546 338 553T314 574T304 603Q304 620 313 633T338 653T371 661Q390 661 405 654T429 633T438 604Q438 574 419 560T371 546ZM159 546Q141 546 126 554T102 575T93 604Q93 620 102 633T126 653T159 661Q179 661 194 654T218 633T227 604Q227 584 218 571T194 552T159
546Z" />
<glyph unicode="&#xfd;" horiz-adv-x="620" d="M354 -211Q284 -215 222 -203T105 -164Q105 -164 99 -161T84 -149T72 -130T72 -104Q77 -89 87 -83T107 -76T125 -76T132 -77Q167 -89 197 -96T257 -107T319 -110Q366 -108 395 -93T438 -50T455 22Q459 90 459 147T456
256T448 357T434 459Q434 459 437 467T450 483T482 491Q505 492 519 483T540 465T547 455Q565 381 572 306T579 150T575 -19Q563 -111 509 -158T354 -211ZM215 12Q173 31 140 60T84 127T52 210Q44 248 42 283T43 356T54 436Q54 436 56 443T64 459T83 474T114 480Q135
478 147 471T166 453T175 432T177 416T176 409Q168 345 168 296T177 212T200 158Q228 118 267 109T359 120Q387 133 408 156T443 212T455 281L545 325Q559 244 544 183T491 78Q462 46 419 24T323 -3T215 12ZM238 537Q238 537 233 537T219 536T202 541T189 554Q182
568 184 579T193 598T206 610T212 614Q261 637 298 652T368 680Q368 680 373 681T387 682T403 678T418 666Q424 656 424 648T419 633T412 624T408 620Q390 605 368 593T323 571T279 552T238 537Z" />
<glyph unicode="&#xfe;" horiz-adv-x="564" d="M283 79Q238 79 199 96T132 144T91 215T80 302Q84 349 104 389T158 461T232 509T320 527Q366 527 404 508T471 457T513 382T523 294Q520 247 499 208T445 140T371 95T283 79ZM111 1Q92 1 80 9T62 27T53 44T51 52Q47
95 45 149T41 263T41 383T46 501T53 606Q53 606 54 612T60 627T76 642T106 649Q126 648 138 642T156 625T164 605T167 589T167 582Q163 541 161 490T159 381T158 264T161 149T165 45Q165 45 164 39T158 23T142 8T111 1ZM293 189Q322 189 347 204T388 247T406 306Q408
339 396 365T362 407T311 423Q282 423 258 408T217 366T198 306Q196 274 208 247T242 205T293 189Z" />
<glyph unicode="&#xff;" horiz-adv-x="620" d="M354 -211Q284 -215 222 -203T105 -164Q105 -164 99 -161T84 -149T72 -130T72 -104Q77 -89 87 -83T107 -76T125 -76T132 -77Q167 -89 197 -96T257 -107T319 -110Q366 -108 395 -93T438 -50T455 22Q459 90 459 147T456
256T448 357T434 459Q434 459 437 467T450 483T482 491Q505 492 519 483T540 465T547 455Q565 381 572 306T579 150T575 -19Q563 -111 509 -158T354 -211ZM215 12Q173 31 140 60T84 127T52 210Q44 248 42 283T43 356T54 436Q54 436 56 443T64 459T83 474T114 480Q135
478 147 471T166 453T175 432T177 416T176 409Q168 345 168 296T177 212T200 158Q228 118 267 109T359 120Q387 133 408 156T443 212T455 281L545 325Q559 244 544 183T491 78Q462 46 419 24T323 -3T215 12ZM408 546Q390 546 375 553T351 574T341 603Q341 620 350
633T375 653T408 661Q427 661 442 654T466 633T475 604Q475 574 456 560T408 546ZM196 546Q178 546 163 554T139 575T130 604Q130 620 139 633T163 653T196 661Q216 661 231 654T255 633T264 604Q264 584 255 571T231 552T196 546Z" />
<glyph unicode="&#x2013;" horiz-adv-x="494" d="M100 268Q99 268 92 268T75 270T57 280T43 301Q38 316 41 326T50 341T61 349T66 352Q98 357 128 362T190 370T254 373T323 372T402 365Q402 365 410 362T428 353T446 336T454 312Q453 295 446 286T429 272T412
267T405 266Q363 269 331 270T273 273T221 274T167 272T100 268Z" />
<glyph unicode="&#x2014;" horiz-adv-x="694" d="M654 312Q653 295 646 286T629 272T612 267T605 266Q563 269 511 270T403 273T291 274T187 272T100 268Q100 268 93 268T76 270T57 280T43 301Q38 316 41 326T50 341T61 349T66 352Q93 357 132 361T220 367T321
372T424 374T522 371T602 365Q602 365 610 362T628 353T646 336T654 312Z" />
<glyph unicode="&#x2018;" horiz-adv-x="218" d="M75 437Q59 443 53 453T47 471T46 480L61 533Q44 554 44 577T56 619T91 641Q116 642 132 636T158 620T172 598T178 575Q178 550 172 526T155 482T130 449Q130 449 123 444T104 435T75 437Z" />
<glyph unicode="&#x2019;" horiz-adv-x="218" d="M127 428Q102 427 86 433T60 449T47 471T40 494Q41 520 47 544T64 588T88 620Q88 620 95 625T114 634T143 632Q159 626 165 616T171 598T172 589L157 536Q175 515 175 492T162 450T127 428Z" />
<glyph unicode="&#x201a;" horiz-adv-x="218" d="M75 -98Q59 -92 53 -82T47 -64T46 -55L61 -2Q44 19 44 42T56 84T91 106Q116 107 132 101T158 85T172 63T178 40Q178 15 172 -9T155 -53T130 -86Q130 -86 123 -91T104 -100T75 -98Z" />
<glyph unicode="&#x201c;" horiz-adv-x="408" d="M265 437Q249 443 243 453T237 471T236 480L251 533Q234 554 234 577T246 619T281 641Q306 642 322 636T348 620T362 598T368 575Q368 550 362 526T345 482T320 449Q320 449 313 444T294 435T265 437ZM75 437Q59
443 53 453T47 471T46 480L61 533Q44 554 44 577T56 619T91 641Q116 642 132 636T158 620T172 598T178 575Q178 550 172 526T155 482T130 449Q130 449 123 444T104 435T75 437Z" />
<glyph unicode="&#x201d;" horiz-adv-x="408" d="M317 428Q292 427 276 433T250 449T237 471T230 494Q231 520 237 544T254 588T278 620Q278 620 285 625T304 634T333 632Q349 626 355 616T361 598T362 589L347 536Q365 515 365 492T352 450T317 428ZM127 428Q102
427 86 433T60 449T47 471T40 494Q41 520 47 544T64 588T88 620Q88 620 95 625T114 634T143 632Q159 626 165 616T171 598T172 589L157 536Q175 515 175 492T162 450T127 428Z" />
<glyph unicode="&#x201e;" horiz-adv-x="398" d="M255 -98Q239 -92 233 -82T227 -64T226 -55L241 -2Q224 19 224 42T236 84T271 106Q296 107 312 101T338 85T352 63T358 40Q358 15 352 -9T335 -53T310 -86Q310 -86 303 -91T284 -100T255 -98ZM75 -98Q59 -92 53
-82T47 -64T46 -55L61 -2Q44 19 44 42T56 84T91 106Q116 107 132 101T158 85T172 63T178 40Q178 15 172 -9T155 -53T130 -86Q130 -86 123 -91T104 -100T75 -98Z" />
<glyph unicode="&#x2022;" horiz-adv-x="275" d="M137 222Q110 222 88 233T53 264T40 305Q40 329 53 348T88 378T137 389Q165 389 187 378T222 348T235 306Q235 277 222 259T187 231T137 222Z" />
<glyph unicode="&#x2039;" horiz-adv-x="330" d="M249 68Q237 60 225 61T202 67T185 78T178 83Q157 106 140 125T106 165T72 213Q53 239 46 259T41 297T50 328Q69 366 92 406T142 482T200 549Q200 549 205 554T219 565T241 572T267 566Q281 558 285 549T289 532T286
519T284 513Q260 479 238 447T194 381T152 308Q136 273 158 244L254 131Q254 131 257 127T264 117T269 103T266 85T249 68Z" />
<glyph unicode="&#x203a;" horiz-adv-x="330" d="M82 68Q69 76 65 85T61 102T65 117T72 127T76 131L172 244Q195 273 178 308Q157 347 137 380T94 446T46 513Q46 513 44 518T42 532T45 549T63 566Q77 574 89 573T110 566T125 555T131 549Q162 519 189 483T239
406T280 328Q288 314 290 297T285 260T258 213Q241 186 225 165T191 125T152 83Q152 83 146 78T129 68T106 61T82 68Z" />
</font>
</defs>
</svg>
