<?xml version="1.0" standalone="no"?>
<!DOCTYPE svg PUBLIC "-//W3C//DTD SVG 1.1//EN" "http://www.w3.org/Graphics/SVG/1.1/DTD/svg11.dtd">
<svg xmlns="http://www.w3.org/2000/svg">
<defs >
<font id="SourGummy" horiz-adv-x="488" ><font-face
    font-family="Sour Gummy Black ExtraLight"
    units-per-em="1000"
    panose-1="0 0 0 0 0 0 0 0 0 0"
    ascent="996"
    descent="-296"
    alphabetic="0" />
<glyph unicode=" " horiz-adv-x="260" />
<glyph unicode="!" horiz-adv-x="179" d="M88 190Q77 190 70 195T61 206T58 211Q58 272 58 341T58 483T62 626Q62 626 62 630T66 639T76 647T94 651Q104 651 110 648T120 639T125 628T127 620T127 616Q124 565 123 518T120 422T116 322T113 211Q113 211 112 206T105
195T88 190ZM88 -2Q77 -2 68 2T53 15T48 33Q48 43 53 51T67 65T88 70Q100 70 109 65T124 52T130 33Q130 22 125 14T110 2T88 -2Z" />
<glyph unicode="&quot;" horiz-adv-x="299" d="M220 502Q212 504 208 508T202 517T201 522Q202 537 202 552T201 582T200 613Q200 613 200 617T206 627T222 632Q232 632 237 629T246 621T249 613T250 609Q252 579 250 556T242 514Q242 514 240 510T234 504T220
502ZM69 502Q61 504 57 508T51 517T50 522Q51 537 51 552T50 582T49 613Q49 613 49 617T55 627T71 632Q81 632 86 629T95 621T98 613T99 609Q101 579 99 556T91 514Q91 514 89 510T83 504T69 502Z" />
<glyph unicode="#" horiz-adv-x="622" d="M464 0Q454 0 448 3T438 12T433 22T431 26Q427 69 425 127T421 252T421 385T426 513T433 623Q433 623 434 627T437 636T446 644T464 648Q474 648 480 645T489 636T494 625T496 616T496 613Q492 573 490 516T487 395T486
264T489 136T494 25Q494 25 494 21T490 12T481 3T464 0ZM168 0Q158 0 152 3T141 12T136 22T135 26Q131 69 129 127T126 252T126 385T130 513T137 623Q137 623 137 627T140 636T149 644T167 648Q177 648 183 645T192 636T197 625T199 616T199 613Q195 573 193 516T191
395T190 264T192 136T197 25Q197 25 197 21T193 12T184 3T168 0ZM86 131Q86 131 81 132T69 135T55 144T49 160Q48 170 52 174T63 181T75 184T80 185Q183 192 298 196T537 203Q537 203 540 203T549 201T560 196T570 187T574 174Q574 164 570 159T561 151T552 148T548
147L86 131ZM86 404Q86 404 81 404T68 407T55 415T49 431Q48 441 52 446T63 453T75 456T80 457Q183 464 298 468T537 476Q537 476 540 475T549 473T560 468T570 460T574 447Q574 437 570 431T561 423T552 420T548 419L86 404Z" />
<glyph unicode="$" horiz-adv-x="475" d="M278 3Q231 -2 192 3T125 18T81 36T65 44Q65 44 63 45T58 50T52 58T49 67T51 79Q55 86 60 89T71 92T80 91T84 90Q125 72 170 64T254 60T322 80T358 130Q365 162 353 187T315 231T258 266T197 294Q178 303 157 317T117
350T87 393T72 444T79 503T118 568Q146 601 177 618T239 643T297 650T347 645T381 636T394 631Q394 631 397 630T406 624T417 616T424 605T424 592Q422 584 416 581T403 578T392 577T387 578Q330 594 282 585T200 550T149 490T142 422Q149 395 172 377T226 343T291
313T354 278T400 232Q420 200 424 168T421 108T394 58T345 21T278 3ZM276 -91Q267 -92 261 -86T253 -75T251 -70Q250 -59 248 -46T244 -17T242 14L304 26Q305 9 305 -9T304 -43T299 -73Q299 -73 298 -77T291 -86T276 -91ZM244 618Q243 636 243 653T244 687T248
717Q248 717 250 722T257 732T272 736Q282 736 287 731T294 720T296 714Q299 703 300 690T304 662T306 631L244 618Z" />
<glyph unicode="%" horiz-adv-x="860" d="M298 7Q289 9 285 14T279 25T278 34T278 38Q303 113 341 210T428 418T530 645Q530 645 532 648T538 654T548 658T564 655Q574 651 577 645T581 633T580 623T578 619Q528 502 482 392T398 187T333 19Q333 19 330 14T319
6T298 7ZM165 350Q110 350 79 388T48 491Q48 523 60 552T94 605T141 642T195 656Q232 656 260 637T303 585T319 508Q319 476 305 448T269 397T220 363T165 350ZM170 395Q193 394 215 409T252 449T268 506Q269 552 249 582T194 613Q171 613 150 597T115 554T100
496Q99 451 117 423T170 395ZM659 2Q604 2 573 40T542 142Q542 174 554 203T588 256T635 294T690 308Q727 308 754 289T797 236T813 159Q813 128 800 99T764 48T714 14T659 2ZM664 45Q687 45 709 60T746 100T762 156Q763 202 743 233T688 265Q666 265 645 249T609
205T594 148Q593 102 611 74T664 45Z" />
<glyph unicode="&amp;" horiz-adv-x="555" d="M114 25Q82 48 66 76T50 138T62 207Q78 245 100 274T150 324T210 355Q151 381 122 418T91 505Q96 541 111 564T148 604T199 630T258 646L393 650Q393 650 397 650T408 649T420 645T431 637T435 623Q435 616 430 611T419
604T407 600T402 599Q349 598 308 595T236 582T180 548Q162 526 156 505T156 465T180 427Q197 412 224 397T290 364Q290 364 292 363T297 358T298 348Q298 342 295 339T288 335T284 334Q247 322 216 303T161 257T121 194Q103 145 112 114T155 68T243 51Q302 64
340 86T399 140T431 207Q434 218 435 228T438 247T441 267Q441 267 441 270T443 278T452 286T472 289Q484 289 491 284T501 273T506 262T507 258Q506 217 497 185T471 127T432 80T384 40Q313 0 245 -4T114 25ZM273 -91Q263 -92 258 -86T251 -75T249 -70Q247 -59
245 -46T242 -17T239 14L301 26Q302 9 302 -9T301 -43T297 -73Q297 -73 295 -77T289 -86T273 -91ZM241 618Q240 636 240 653T241 687T246 717Q246 717 247 722T254 732T269 736Q279 736 284 731T292 720T294 714Q296 703 298 690T301 662T303 631L241 618Z" />
<glyph unicode="&apos;" horiz-adv-x="148" d="M69 502Q61 504 57 508T51 517T50 522Q51 537 51 552T50 582T49 613Q49 613 49 617T55 627T71 632Q81 632 86 629T95 621T98 613T99 609Q101 579 99 556T91 514Q91 514 89 510T83 504T69 502Z" />
<glyph unicode="(" horiz-adv-x="270" d="M163 -25Q154 -28 147 -27T134 -22T126 -15T123 -12Q78 62 61 156T51 365Q59 417 71 468T106 570T169 673Q169 673 174 677T189 686T207 686Q214 683 217 679T222 670T222 662T220 656T219 653Q192 612 174 573T145 495T126
420T114 348Q110 309 113 259T125 160T149 69T178 6Q178 6 179 2T180 -7T176 -17T163 -25Z" />
<glyph unicode=")" horiz-adv-x="270" d="M107 -25Q98 -23 94 -18T90 -7T91 2T92 6Q107 28 121 69T144 159T157 259T156 348Q152 383 145 420T126 495T96 572T51 653Q51 653 50 655T48 662T48 670T52 678T63 686Q72 691 81 687T95 678T101 673Q141 621 164 570T199
468T219 365Q227 250 210 156T147 -12Q147 -12 144 -15T136 -21T124 -26T107 -25Z" />
<glyph unicode="*" horiz-adv-x="423" d="M87 433Q80 436 78 440T76 447T77 450Q87 476 104 510T141 576T180 629T213 650Q220 650 226 648T239 641T251 630Q278 586 301 548T339 482Q339 482 340 479T341 472T338 463T328 456Q321 454 315 455T304 460T298 466T295
469L217 604Q186 561 159 519T107 437Q107 437 105 435T99 432T87 433ZM357 539Q282 547 211 549T74 543Q74 543 68 543T56 547T49 557Q48 565 53 569T65 575T72 577Q119 584 165 586T259 586T357 576Q357 576 360 575T367 571T373 564T375 554Q374 548 370 545T362
540T357 539Z" />
<glyph unicode="+" horiz-adv-x="455" d="M228 62Q216 63 210 67T200 78T196 88T195 93Q194 160 194 223T195 345T198 455T204 549Q204 549 204 553T207 563T215 573T232 577Q243 576 249 573T258 565T263 555T265 547T266 543Q263 483 261 413T259 261T258 93Q258
93 258 89T255 77T246 66T228 62ZM49 307Q48 317 52 323T62 332T74 337T79 339Q107 344 135 347T192 352T251 354T313 351T381 342Q381 342 385 341T395 335T404 325T407 308Q406 299 402 294T392 287T381 285T372 285T368 286Q330 291 295 293T224 296T154 293T83
284Q83 284 79 284T68 285T56 291T49 307Z" />
<glyph unicode="," horiz-adv-x="185" d="M63 -94Q55 -90 52 -84T49 -74T50 -69L72 -1Q56 17 54 37T59 72T83 91Q96 92 106 89T123 80T132 65T137 47Q137 18 132 -6T117 -50T96 -85Q96 -85 92 -89T80 -95T63 -94Z" />
<glyph unicode="-" horiz-adv-x="470" d="M84 287Q83 287 78 287T67 288T57 293T49 306Q46 314 48 319T55 328T62 332T66 334Q104 340 134 344T192 350T249 352T312 350T389 343Q389 343 394 342T407 336T418 327T422 312Q421 303 416 298T406 291T396 289T391
288Q349 291 317 293T259 295T208 295T153 292T84 287Z" />
<glyph unicode="." horiz-adv-x="177" d="M88 -2Q77 -2 68 2T53 15T48 33Q48 43 53 51T67 65T88 70Q100 70 109 65T124 52T130 33Q130 17 118 8T88 -2Z" />
<glyph unicode="/" horiz-adv-x="400" d="M69 7Q60 9 56 14T50 25T48 34T49 38Q74 113 112 210T198 418T301 645Q301 645 303 648T309 654T319 658T335 655Q345 651 348 645T352 633T350 623T348 619Q299 502 253 392T168 187T104 19Q104 19 101 14T90 6T69 7Z" />
<glyph unicode="0" horiz-adv-x="614" d="M261 -3Q197 -3 147 37T71 147T49 309Q51 377 70 440T122 555T198 635T291 665Q331 665 371 654T447 618T511 552T553 453T565 316Q563 252 544 201T492 111T422 48T342 10T261 -3ZM88 178L79 223Q173 291 284 338T521
417L536 359Q416 343 304 297T88 178ZM273 60Q312 60 352 76T426 127T482 212T508 332Q511 407 495 458T448 540T380 585T303 599Q263 599 229 576T168 513T125 421T106 310Q103 231 122 175T181 90T273 60Z" />
<glyph unicode="1" horiz-adv-x="361" d="M282 2Q272 3 265 7T255 16T250 26T248 30Q243 80 240 148T237 291T239 436T246 564L94 422Q94 422 91 420T83 417T71 417T57 424Q50 431 49 436T48 446T52 454T54 457L192 581Q219 606 244 625T286 641Q296 640 301 635T309
624T312 614T313 609Q309 569 307 514T305 394T304 263T306 137T311 28Q311 28 310 24T307 15T298 6T282 2Z" />
<glyph unicode="2" horiz-adv-x="479" d="M131 3Q120 3 112 6T98 17T93 33T102 53Q176 167 226 258T298 414T312 511Q298 557 273 578T212 601Q175 600 146 585T92 546Q92 546 89 545T82 542T71 540T58 547Q53 551 51 555T48 563T49 570T54 577Q77 602 101 618T152
642T211 650Q259 648 293 628T349 575T376 503T374 424Q363 376 342 327T294 229T238 136T178 52H404Q404 52 408 52T417 49T427 42T432 30Q432 22 429 18T423 12T417 9T414 8L131 3Z" />
<glyph unicode="3" horiz-adv-x="454" d="M238 7Q211 10 186 17T138 36T95 63T57 99Q57 99 55 102T51 110T48 121T55 134Q61 140 68 140T82 137T93 131T98 128Q108 118 129 103T177 76T235 59Q264 63 285 73T319 101T338 143T342 198Q323 260 283 290T188 325Q179
327 173 331T165 342T168 354T186 362Q193 364 213 368T258 382T303 415Q328 444 335 473T333 531T294 585Q275 598 246 600T181 598T109 584Q109 584 105 584T96 585T85 589T76 598Q73 605 74 610T78 618T85 622T88 624Q119 636 150 643T210 649Q229 651 248 649T287
640T325 623Q359 600 376 570T396 507T390 444T360 391Q350 380 338 371T314 354T288 340Q317 327 340 307T380 259T404 192Q410 144 398 110T361 52T304 18T238 7Z" />
<glyph unicode="4" horiz-adv-x="477" d="M401 2Q391 2 385 6T374 15T369 24T367 28Q362 71 359 125T355 238T354 357T355 469T359 565L126 318Q117 302 114 289T116 269T135 259L370 266L367 219Q330 215 292 213T214 210T129 211Q99 215 80 227T53 257T49 296T69
338Q118 393 162 440T240 520Q278 557 312 590T376 648Q387 653 396 650T412 641T422 629T425 616Q421 575 420 519T418 398T420 267T423 139T429 28Q429 28 429 24T426 15T417 6T401 2Z" />
<glyph unicode="5" horiz-adv-x="455" d="M221 12Q190 12 161 20T107 43T60 80Q60 80 58 83T55 90T55 101T62 113Q70 119 78 119T91 116T97 113Q119 92 147 79T211 63Q264 72 293 94T334 150T345 221Q339 248 328 269T299 305T260 325T212 329L108 297Q100 293
92 294T77 299T65 311T60 330Q57 389 54 448T50 553T49 618Q51 623 53 628T60 636T73 642T92 643L356 640Q356 640 359 639T367 637T377 632T385 624T388 611Q387 602 383 598T372 592T362 590T357 590L104 597Q106 555 110 492T118 358Q155 371 186 375T245 378T296
365Q338 348 363 319T398 256T408 189T395 131Q376 91 350 65T291 27T221 12Z" />
<glyph unicode="6" horiz-adv-x="562" d="M277 7Q169 35 113 104T49 279Q48 357 64 419T108 528T172 602T243 640Q312 657 376 647T499 597Q499 597 501 595T507 588T511 579T508 566Q504 560 500 559T490 557T482 559T478 561Q423 587 371 593T267 587Q215 565
185 524T137 432Q131 410 126 388T119 344T115 298Q188 325 255 330T384 317Q443 298 473 266T509 198T504 126Q485 81 453 54T377 15T277 7ZM299 61Q353 63 386 86T437 145Q465 236 353 269Q302 282 243 272T119 237Q128 188 154 150T218 88T299 61Z" />
<glyph unicode="7" horiz-adv-x="432" d="M354 2Q344 3 338 6T328 15T323 24T321 28Q315 80 313 153T310 306T312 462T319 597Q281 602 242 602T165 597T86 585Q86 585 82 584T70 583T58 587T50 598Q47 606 49 611T57 618T65 622T69 624Q114 639 160 645T255 652T351
644Q364 643 371 638T380 625T383 613T383 608Q379 568 378 512T376 393T376 264T378 138T383 28Q383 28 383 24T379 15T370 6T354 2Z" />
<glyph unicode="8" horiz-adv-x="539" d="M264 300Q218 300 179 310T111 341T65 391T48 457Q48 493 60 528T98 592T167 638T268 653Q314 652 354 638T426 600T474 545T491 476Q491 440 472 408T421 352T348 314T264 300ZM264 -2Q218 -2 179 8T111 40T65 90T48
156Q48 191 60 227T98 291T167 336T268 351Q314 350 354 337T426 299T474 243T491 175Q491 139 472 107T421 51T348 13T264 -2ZM258 50Q287 50 317 61T372 90T412 131T427 179Q427 204 413 225T374 262T320 285T257 292Q203 290 170 271T122 221T107 158Q107 124
127 100T181 63T258 50ZM258 352Q287 352 317 362T372 391T412 432T427 481Q427 506 413 527T374 563T320 586T257 594Q203 592 170 572T122 523T107 459Q107 426 127 402T181 365T258 352Z" />
<glyph unicode="9" horiz-adv-x="561" d="M318 16Q249 -1 186 9T63 59Q63 59 60 61T54 68T50 77T54 90Q57 96 62 97T71 98T79 96T83 94Q138 69 190 63T294 69Q346 92 376 132T423 225Q431 246 435 268T443 312T447 358Q373 330 307 326T177 339Q119 358 89 390T52
459T57 530Q77 575 109 603T185 642T284 649Q392 621 448 552T512 377Q514 299 498 237T453 128T389 54T318 16ZM208 386Q260 374 319 384T442 419Q434 468 408 506T345 569T262 595Q208 593 175 571T124 511Q94 421 208 386Z" />
<glyph unicode=":" horiz-adv-x="177" d="M88 359Q77 359 68 363T53 376T48 395Q48 405 53 413T67 425T88 430Q100 430 109 426T124 413T130 395Q130 384 125 376T110 363T88 359ZM88 158Q77 158 68 162T53 175T48 193Q48 203 53 211T67 224T88 229Q100 229 109
225T124 212T130 193Q130 182 125 174T110 162T88 158Z" />
<glyph unicode=";" horiz-adv-x="186" d="M64 43Q55 47 53 53T50 64T50 69L72 135Q57 154 54 174T59 209T83 228Q97 229 107 226T123 217T133 202T138 184Q138 155 133 131T118 87T96 51Q96 51 92 47T81 41T64 43ZM93 352Q82 352 73 356T58 369T52 388Q52 398
57 406T72 419T93 424Q105 424 114 419T128 406T134 388Q134 377 129 369T114 356T93 352Z" />
<glyph unicode="&lt;" horiz-adv-x="356" d="M232 7Q220 4 211 7T197 15T192 20Q157 80 124 139T58 260Q45 281 48 303T66 347L254 627Q254 627 259 632T273 642T294 639Q303 634 306 628T309 616T306 606T304 601L120 317Q101 291 115 267L246 39Q246 39 247
36T248 26T244 15T232 7Z" />
<glyph unicode="=" horiz-adv-x="476" d="M427 185Q426 176 422 171T411 164T401 162T397 161Q362 164 330 166T266 168T204 169T143 166T81 160Q81 160 77 160T68 161T57 167T49 180Q46 188 49 193T56 202T65 206T69 208Q117 218 169 222T280 225T398 217Q398
217 402 215T413 209T424 199T427 185ZM427 373Q426 365 422 360T411 353T401 351T397 351Q362 354 330 355T266 358T204 359T143 356T81 349Q81 349 77 349T68 350T57 356T49 368Q46 376 49 381T56 390T65 395T69 396Q117 406 169 410T280 414T398 405Q398 405
402 403T413 398T424 388T427 373Z" />
<glyph unicode="&gt;" horiz-adv-x="356" d="M124 7Q116 10 113 15T109 26T109 35T110 39L241 267Q255 291 237 317L52 601Q52 601 50 605T48 616T51 628T62 639Q74 646 83 642T97 633T102 627L291 347Q305 326 308 304T298 260Q266 199 233 140T164 20Q164 20
159 15T146 7T124 7Z" />
<glyph unicode="?" horiz-adv-x="523" d="M279 160Q268 160 262 165T252 178T248 190T246 196Q241 226 250 252T279 301T323 346Q351 372 372 398T403 454T407 521Q397 549 377 567T329 593T263 599Q214 598 176 582T117 526Q114 512 112 498T114 468T135 432Q135
432 138 428T142 418T138 404Q132 398 125 398T110 399T99 405T94 408Q58 439 50 479T73 576Q92 601 120 618T185 644T266 653Q313 654 352 641T422 602T468 532Q474 509 475 485T468 435T441 379T387 318Q352 290 327 261T298 192Q298 192 298 185T294 169T279
160ZM282 -2Q271 -2 262 2T247 15T241 33Q241 43 246 51T261 65T282 70Q293 70 302 65T317 52T323 33Q323 22 318 14T303 2T282 -2Z" />
<glyph unicode="@" horiz-adv-x="859" d="M331 -146Q271 -132 223 -102T138 -26T75 78Q43 174 50 267T101 455Q140 523 193 572T316 646T478 666Q516 665 555 656T633 629T703 583T760 514T799 419Q813 351 811 292T795 182T759 82Q739 53 717 39T669 28T618 53Q597
76 584 135T574 310Q545 261 515 215T453 133T387 79Q363 70 343 72T306 85T278 114Q256 149 255 199T270 312Q295 393 336 436T439 480Q494 477 537 450T611 364Q613 359 615 333T620 271T628 199T636 137T644 108Q659 81 677 84T716 116Q747 194 756 269T748
417Q727 487 688 531T596 596T477 621Q402 624 340 602T231 536T148 428Q120 369 109 312T102 198T125 89Q145 43 173 6T241 -58T332 -99Q365 -102 396 -99T458 -85T515 -54Q515 -54 521 -51T536 -48T555 -59Q561 -66 562 -72T562 -83T558 -90T556 -93Q525 -116
490 -130T416 -147T331 -146ZM344 119Q365 116 391 140T444 203Q472 241 500 284T554 375Q521 415 488 428T421 433Q384 424 358 382T313 266Q306 230 308 196T319 141T344 119Z" />
<glyph unicode="A" horiz-adv-x="517" d="M81 -1Q68 1 62 6T52 17T49 28T48 32Q52 125 70 221T117 417Q133 466 149 507T182 578T218 626T261 643Q278 646 293 635T324 602T353 547T378 473Q388 445 401 396T427 284T451 155T469 22Q469 22 469 19T466 11T458
3T441 -1Q430 -1 423 2T412 10T407 19T405 23Q389 128 372 223T333 395Q319 450 303 494T267 574Q248 550 232 521T204 459T183 393Q169 341 157 293T137 200T123 110T115 21Q115 21 114 17T110 8T100 1T81 -1ZM100 94L108 138Q155 149 202 155T300 161T403 158L411
103Q376 109 335 111T252 113T170 107T100 94Z" />
<glyph unicode="B" horiz-adv-x="559" d="M352 15Q298 6 247 2T155 -1T88 8T58 34Q54 77 52 134T49 256T49 387T53 513T60 621Q61 630 66 636T79 645T100 649L322 647Q366 641 401 625T463 582T502 522Q510 493 507 466T490 417T451 377T392 344Q427 329 452 306T492
253T512 189Q511 148 495 114T444 55T352 15ZM119 56Q177 56 229 58T324 69T394 98Q462 151 440 218Q429 253 405 273T350 304T286 316L113 314Q112 250 113 186T119 56ZM113 377Q173 373 231 376T348 390Q389 405 414 428T441 490Q437 530 407 557T314 596Q297
598 266 599T198 601T122 602L113 377Z" />
<glyph unicode="C" horiz-adv-x="633" d="M285 10Q223 21 179 49T107 116T65 200T49 287T53 366Q61 410 84 459T145 552T235 623T353 651Q419 650 467 626T544 565T582 485T578 405Q578 405 576 402T568 395T552 394Q542 396 537 400T529 410T527 415Q527 415
527 429T523 466T505 513T466 559T398 590Q354 600 311 585T231 536T165 460T124 368T115 277Q120 230 137 194T178 133T231 92T286 69T336 62Q373 63 406 78T465 115T501 162Q501 162 504 165T512 172T526 176T544 172Q552 167 556 163T562 153T564 144T563 138T562
135Q562 135 553 120T525 82T473 39T394 9T285 10Z" />
<glyph unicode="D" horiz-adv-x="624" d="M137 -2Q101 -2 80 7T50 32Q49 178 49 323T50 612Q49 635 91 643T204 651Q280 651 332 639T421 604T482 554T530 497Q586 385 574 288T495 105Q454 59 398 36T275 5T137 -2ZM120 59Q225 53 298 68T415 119T482 207T508
327Q502 414 472 470T392 556T273 594T121 593Q114 465 114 332T120 59Z" />
<glyph unicode="E" horiz-adv-x="559" d="M121 2Q106 3 94 5T75 13T64 24T57 37Q54 110 52 181T49 325T51 472T61 628Q64 642 77 649T115 656L466 651Q466 651 469 651T479 649T491 644T501 635T505 620Q505 610 500 605T489 597T478 595T473 595L122 608Q118
555 115 502T112 395T112 286T115 174T120 56Q162 60 201 64T275 73T344 82T409 92T470 104Q470 104 473 104T482 105T493 103T504 96T510 83Q513 74 511 67T505 57T498 52T494 51Q446 41 400 33T307 19T215 9T121 2ZM79 308L78 366L357 377Q357 377 361 377T373
375T388 370T399 361T404 345Q404 336 398 331T385 322T371 319T365 319L79 308Z" />
<glyph unicode="F" horiz-adv-x="552" d="M95 7Q83 6 76 10T64 21T59 31T58 35Q54 108 52 180T49 324T51 471T61 628Q63 638 69 644T87 654T113 657L468 651Q468 651 471 651T481 649T492 644T501 634T505 620Q505 609 500 604T489 597T478 595T473 594L123 608Q117
542 115 475T112 338T114 195T121 45Q121 45 121 40T120 27T113 14T95 7ZM80 308L78 366L357 377Q357 377 362 377T374 375T388 370T400 361T405 345Q405 336 399 331T385 322T371 319T365 319L80 308Z" />
<glyph unicode="G" horiz-adv-x="633" d="M250 12Q197 23 158 46T94 105T57 189T48 296Q56 357 77 412T136 516T235 605Q307 649 374 650T506 617Q539 595 556 569T580 515T584 459T575 401Q575 401 572 398T564 393T549 392Q541 394 536 400T530 411T529 416Q533
441 532 466T522 518Q512 543 491 561T441 587T380 593T316 574Q263 547 223 511T157 427T120 316Q110 232 133 178T208 91Q255 74 299 65T388 60T483 87Q506 105 509 125T494 172Q470 190 436 203T357 224Q357 224 356 226T352 232T349 241T348 252Q350 260 354
264T362 269T366 271Q395 270 421 264T471 248T515 226Q537 209 551 191T572 153T574 112T552 70Q527 47 494 31T420 7T337 0T250 12Z" />
<glyph unicode="H" horiz-adv-x="562" d="M91 -2Q81 -2 75 2T65 11T60 20T58 24Q54 67 52 125T49 250T49 384T53 512T60 622Q60 622 60 625T64 634T73 643T90 647Q100 646 106 643T115 634T120 624T122 616T122 612Q118 571 116 515T114 393T113 262T115 134T120
23Q120 23 120 20T116 11T108 2T91 -2ZM72 237L89 295L461 322V261L72 237ZM483 -2Q473 -2 467 2T457 11T452 20T450 24Q445 67 443 125T440 250T440 384T445 512T452 622Q452 622 452 625T455 634T464 643T482 647Q492 646 498 643T508 634T512 624T514 616T514
612Q510 571 508 515T506 393T505 262T507 134T512 23Q512 23 512 20T508 11T500 2T483 -2Z" />
<glyph unicode="I" horiz-adv-x="170" d="M91 -2Q81 -2 75 2T65 11T60 20T58 24Q54 67 52 125T49 250T49 384T53 512T60 622Q60 622 60 625T64 634T73 643T90 647Q100 646 106 643T115 634T120 624T122 616T122 612Q118 571 116 515T114 393T113 262T115 134T120
23Q120 23 120 20T116 11T108 2T91 -2Z" />
<glyph unicode="J" horiz-adv-x="429" d="M215 5Q182 7 153 18T98 50T52 99Q52 99 51 102T48 111T49 122T58 133Q66 137 73 137T86 136T96 132T100 130Q113 115 125 103T150 81T176 67T205 62Q255 66 279 106T313 205Q315 244 313 306T306 447T297 609Q297 609
297 614T300 626T307 639T323 645Q335 645 342 640T352 629T357 618T359 613Q365 537 370 471T378 351T381 256T379 189Q369 127 346 88T290 28T215 5Z" />
<glyph unicode="K" horiz-adv-x="486" d="M381 -2Q372 -3 364 -1T351 5T343 12T340 15Q310 73 280 115T219 187T158 238T93 271L94 343Q166 361 217 396T302 472T354 554T379 624Q379 624 380 627T385 633T395 639T412 640Q423 638 428 634T435 624T437 616T438
612Q435 573 420 534T379 459T320 391T246 335T160 297Q209 274 254 234T338 141T403 28Q403 28 403 25T403 16T397 6T381 -2ZM92 -2Q81 -2 75 2T65 11T60 20T58 24Q54 67 52 125T49 250T49 384T53 512T60 622Q60 622 60 626T63 634T72 643T90 647Q100 647 106
643T115 634T120 624T122 616T122 612Q118 571 116 515T114 393T113 262T115 134T120 23Q120 23 120 19T116 11T108 2T92 -2Z" />
<glyph unicode="L" horiz-adv-x="559" d="M122 2Q107 2 96 4T76 11T64 22T58 36Q55 94 53 151T50 266T48 382T51 501T60 626Q60 626 61 630T64 640T73 650T92 653Q104 651 110 646T119 634T122 622T123 616Q111 484 111 343T121 56Q188 63 250 70T367 86T470 104Q470
104 473 104T482 105T493 103T504 97T510 85Q513 75 511 68T506 58T499 53T495 51Q447 41 400 33T307 19T214 9T122 2Z" />
<glyph unicode="M" horiz-adv-x="692" d="M91 -2Q82 -2 76 2T65 11T60 20T59 24Q53 78 51 148T48 295T51 445T59 579Q59 579 59 582T62 591T71 599T87 603Q97 604 105 601T118 589Q148 540 175 497T227 416T274 345T318 284Q346 310 376 346T439 427T508 522T581
627Q581 627 583 632T593 642T614 646Q625 646 631 641T640 630T644 619T645 614Q641 573 639 517T637 395T636 264T638 135T643 24Q643 24 643 20T639 11T630 2T614 -2Q604 -2 598 2T587 11T582 20T580 24Q576 66 574 123T571 245T571 374T575 497Q522 422 472
356T375 245Q351 222 326 223T275 246Q248 284 221 321T168 396T116 475Q114 433 114 388T113 295T114 201T117 110T121 24Q121 24 120 20T117 11T108 2T91 -2Z" />
<glyph unicode="N" horiz-adv-x="562" d="M91 -2Q81 -2 75 2T65 11T60 19T58 23Q52 77 50 144T48 283T50 424T58 553Q58 553 59 559T66 571T86 578Q93 579 98 577T108 571T114 566Q167 495 222 422T333 275T444 125Q441 180 440 245T440 378T445 509T452 623Q452
623 452 626T456 634T465 643T483 646Q493 646 499 643T508 634T513 624T514 616T514 612Q510 571 508 515T506 394T505 263T507 135T512 24Q512 24 512 20T509 11T501 3T486 -2Q477 -2 469 3T457 13T452 19Q452 19 438 37T399 86T344 156T280 239T216 324T159
402T116 463Q114 399 114 323T115 170T120 23Q120 23 120 19T116 11T107 2T91 -2Z" />
<glyph unicode="O" horiz-adv-x="761" d="M322 -7Q259 -7 208 16T119 80T64 178T49 303Q52 371 77 434T144 547T242 626T361 656Q411 656 462 645T560 609T643 544T698 445T713 310Q710 246 685 196T620 107T529 44T425 6T322 -7ZM336 56Q376 56 418 66T498 98T567
151T617 227T639 326Q644 400 623 451T562 532T475 577T375 591Q325 591 281 568T201 506T146 414T122 304Q118 226 144 171T219 86T336 56Z" />
<glyph unicode="P" horiz-adv-x="559" d="M91 -2Q81 -2 74 2T64 11T59 21T57 25Q53 66 51 123T49 247T48 381T52 511T59 621Q59 621 59 625T63 634T72 643T90 649Q214 659 305 649T443 590Q491 542 504 489T500 384T433 292Q412 274 376 262T294 245T202 239T113
246L119 23Q119 23 119 19T115 11T107 2T91 -2ZM113 297Q203 289 265 296T366 324T423 374T443 444Q443 498 420 532T353 584T252 606T123 603Q116 525 114 448T113 297Z" />
<glyph unicode="Q" horiz-adv-x="761" d="M322 -7Q259 -7 208 16T119 80T64 178T49 303Q52 371 77 434T144 547T242 626T361 656Q411 656 462 645T560 609T643 544T698 445T713 310Q710 246 685 196T620 107T529 44T425 6T322 -7ZM463 -132Q452 -135 444 -132T430
-124T421 -115T418 -111Q396 -52 378 2T347 108T325 207Q325 207 324 211T324 222T328 234T338 241Q349 243 355 237T366 224T370 217Q384 174 401 124T438 19T478 -93Q478 -93 479 -98T481 -109T478 -122T463 -132ZM336 56Q376 56 418 66T498 98T567 151T617 227T639
326Q644 400 623 451T562 532T475 577T375 591Q325 591 281 568T201 506T146 414T122 304Q118 226 144 171T219 86T336 56Z" />
<glyph unicode="R" horiz-adv-x="541" d="M92 6Q80 6 74 11T63 22T58 34T57 39Q53 81 51 137T49 257T49 386T54 512T61 621Q61 621 61 625T65 634T74 643T92 649Q216 659 297 649T427 590Q475 542 488 489T483 384T415 292Q394 274 361 259T286 234T201 221T115
223L119 33Q119 33 119 29T117 20T109 10T92 6ZM408 44Q365 72 316 99T211 155T95 213Q95 219 100 223T115 230T132 234T147 236T154 237Q183 225 210 213T265 188T322 160T383 127T450 85Q450 85 451 83T455 78T457 70T457 60T451 48Q447 41 440 40T426 39T413
42T408 44ZM115 285Q199 280 256 294T348 335T399 391T419 449Q419 500 394 531T326 578T231 600T123 603Q116 525 114 443T115 285Z" />
<glyph unicode="S" horiz-adv-x="475" d="M278 5Q231 1 192 6T125 21T81 38T65 46Q65 46 63 47T58 52T52 60T49 70T51 82Q55 89 60 91T71 94T80 94T84 92Q125 75 170 67T254 62T322 82T358 132Q365 165 353 189T315 234T258 269T197 297Q178 305 157 319T117 352T87
395T72 446T79 505T118 570Q146 604 177 621T239 646T297 652T347 647T381 639T394 634Q394 634 397 633T406 627T417 619T424 608T424 595Q422 587 416 584T403 580T392 579T387 580Q330 596 282 587T200 552T149 492T142 425Q149 398 172 379T226 345T291 315T354
281T400 234Q420 202 424 171T421 111T394 60T345 24T278 5Z" />
<glyph unicode="T" horiz-adv-x="532" d="M275 -2Q265 -2 259 2T248 11T243 20T242 24Q236 78 234 152T231 308T234 466T242 604Q242 604 242 608T246 616T255 625T273 629Q285 629 291 624T300 613T303 602T304 597Q300 557 299 502T297 384T297 257T299 133T304
23Q304 23 304 19T300 11T291 2T275 -2ZM450 580Q408 586 364 589T275 592T184 591T92 585Q92 585 88 585T78 584T66 586T56 592T49 605Q47 613 50 618T58 627T69 632T78 634T82 635Q175 645 267 646T450 636Q450 636 453 635T462 632T473 625T481 615T483 602Q482
592 477 588T466 582T455 580T450 580Z" />
<glyph unicode="U" horiz-adv-x="600" d="M312 -3Q226 3 169 47T82 174T48 375V625Q48 625 49 628T52 636T60 644T77 648Q89 648 96 644T108 634T113 624T115 620L118 386Q117 290 135 219T197 107T311 58Q365 66 404 99T464 202T483 385L480 614Q480 614 480
617T482 625T490 633T507 637Q516 638 523 635T535 627T542 617T546 609T547 606L552 390Q554 311 544 241T508 117T434 32T312 -3Z" />
<glyph unicode="V" horiz-adv-x="567" d="M279 4Q249 2 222 32T171 118T125 251T84 423T48 623Q48 623 49 626T52 634T60 642T76 646Q86 646 92 643T103 636T109 628T111 624Q123 549 138 475T172 333T208 210T243 117T276 68Q297 80 319 118T363 213T402 339T434
478T453 615Q453 615 454 619T458 627T467 635T485 636Q498 635 505 630T515 619T518 609T519 605Q512 521 496 436T456 275T405 138T344 42T279 4Z" />
<glyph unicode="W" horiz-adv-x="972" d="M279 4Q249 2 222 32T171 118T125 251T84 423T48 623Q48 623 49 626T52 634T60 642T76 646Q86 646 92 643T103 636T109 628T111 624Q123 549 138 475T172 333T208 210T243 117T276 68Q297 80 319 119T363 217T402 345T434
486T453 624Q453 624 454 626T458 632T467 636T485 636Q498 635 505 630T515 619T518 609T519 605Q512 521 496 436T456 275T405 138T344 42T279 4ZM685 4Q655 2 628 32T576 118T531 251T490 423T453 623Q453 623 454 626T459 634T468 642T483 646Q491 646 497
643T508 634T514 626T517 622Q529 548 544 474T577 332T613 209T648 117T681 68Q702 80 724 118T768 213T808 339T840 478T858 615Q858 615 858 619T862 627T872 635T891 636Q904 635 910 630T920 619T924 609T925 605Q918 521 902 436T862 275T810 138T749 42T685
4Z" />
<glyph unicode="X" horiz-adv-x="599" d="M530 18Q522 13 513 13T498 17T488 24T484 28Q434 90 387 149T296 267T210 381T128 491T52 598Q52 598 51 602T49 611T50 623T62 634Q69 638 77 636T92 630T103 623T108 619Q152 557 201 492T304 356T415 212T534 60Q534
60 536 57T540 50T543 40T541 28T530 18ZM76 6Q68 10 65 15T61 26T61 35T63 43T64 46Q123 117 178 188T287 332T391 481T493 637Q493 637 495 639T502 643T514 646T529 642Q538 638 543 633T549 622T550 613T549 609Q497 523 445 443T340 289T232 144T121 8Q121
8 118 6T108 1T94 -1T76 6Z" />
<glyph unicode="Y" horiz-adv-x="530" d="M256 259Q168 271 118 317T54 439T59 616Q59 616 60 621T65 633T75 644T94 646Q106 644 111 638T119 624T121 610T121 604Q102 473 132 400T252 318Q300 325 334 353T388 424T413 512T408 602Q408 602 408 606T408 617T414
627T431 634Q442 635 450 632T463 623T470 614T472 609Q485 552 480 495T448 387T375 303T256 259ZM260 8Q249 8 242 12T232 22T227 32T225 37Q215 96 216 158T227 285L290 288Q279 211 280 148T288 36Q288 36 288 32T285 22T277 13T260 8Z" />
<glyph unicode="Z" horiz-adv-x="542" d="M119 0Q109 -1 100 0T84 6T74 16T71 31T78 50Q116 103 154 160T232 280T315 413T404 561Q341 593 262 592T94 569Q94 569 89 568T77 567T62 570T52 582Q48 590 48 596T52 605T59 611T65 615T68 616Q153 643 242 646T420
627Q438 619 450 609T469 584T476 554T468 518Q444 476 417 433T362 345T302 254T237 158T166 58L456 73Q456 73 461 73T474 70T487 63T493 48Q494 38 491 32T483 24T475 21T471 20L119 0Z" />
<glyph unicode="[" horiz-adv-x="316" d="M152 8Q129 9 111 16T80 36T61 68T53 109Q50 168 49 238T48 380T51 518T57 633Q58 640 61 646T71 655T88 657Q128 658 166 658T238 655Q238 655 242 654T252 651T260 643T264 629Q264 621 260 616T251 608T243 606T239
605L116 606L111 112Q115 85 126 73T160 58H238Q238 58 242 57T253 53T264 45T268 31Q268 22 264 17T254 10T244 7T240 7L152 8Z" />
<glyph unicode="\" horiz-adv-x="400" d="M331 7Q319 2 312 5T301 14T297 19Q271 92 233 187T148 392T51 619Q51 619 50 622T48 632T52 645T65 655Q75 659 81 658T91 654T97 648T99 645Q153 529 201 418T288 210T351 38Q351 38 351 35T351 26T345 15T331 7Z" />
<glyph unicode="]" horiz-adv-x="316" d="M76 7Q76 7 72 7T63 9T53 17T48 31Q48 40 52 45T63 53T73 57T78 58H156Q179 60 190 72T205 112L200 606L77 605Q77 605 74 605T65 608T56 615T52 629Q52 637 55 642T64 650T73 654T78 655Q113 657 150 657T228 657Q239
658 245 655T255 646T259 633Q262 584 264 519T267 381T267 238T263 109Q262 86 256 68T236 37T205 16T164 8L76 7Z" />
<glyph unicode="^" horiz-adv-x="373" d="M58 520Q52 525 50 530T48 539T50 546T52 549Q65 566 80 582T114 614T153 647Q162 654 172 657T193 658T215 649L316 577Q316 577 318 575T322 568T324 558T319 546Q315 541 309 540T298 540T289 542T285 544L191 615Q171
607 147 584T86 522Q86 522 82 520T72 516T58 520Z" />
<glyph unicode="_" horiz-adv-x="555" d="M49 60Q46 68 48 73T55 82T64 87T68 88Q130 98 196 102T333 106T476 97Q476 97 481 95T492 89T503 79T507 64Q506 55 501 50T491 43T481 41T476 41Q425 46 376 48T278 50T181 47T83 40Q83 40 79 40T68 41T57 47T49 60Z" />
<glyph unicode="`" horiz-adv-x="324" d="M243 508Q219 518 195 529T148 551T103 575T60 601Q60 601 57 603T52 608T49 617T51 628Q55 634 60 636T70 638T78 637T81 635Q123 614 167 594T261 550Q261 550 264 548T270 541T275 531T273 517Q271 511 266 509T256
507T247 507T243 508Z" />
<glyph unicode="a" horiz-adv-x="603" d="M268 3Q218 3 178 21T108 73T64 149T48 243Q48 294 66 340T118 423T194 479T288 500Q356 500 407 474T488 392T517 250Q517 200 498 156T444 77T365 24T268 3ZM270 62Q307 62 340 78T400 121T441 183T457 258Q457 324
435 366T376 429T289 450Q253 450 221 432T164 384T126 315T112 238Q112 187 131 147T186 85T270 62ZM528 1Q516 1 509 6T499 15T495 20Q488 93 485 167T484 319T494 478Q494 478 496 483T505 493T526 497Q537 497 543 492T551 480T554 469T555 464Q551 413 549
361T546 256T549 145T554 26Q554 26 554 23T551 14T543 5T528 1Z" />
<glyph unicode="b" horiz-adv-x="605" d="M308 3Q256 3 215 22T146 74T104 150T89 244Q89 296 107 342T157 424T233 480T328 500Q378 500 420 485T492 438T540 360T557 249Q557 199 537 155T483 76T403 23T308 3ZM91 1Q81 1 74 5T64 14T60 23T58 27Q54 70 52 128T49
253T49 387T53 515T60 626Q60 626 60 629T64 638T73 646T91 649Q102 649 108 644T118 633T121 622T122 617Q118 577 116 520T113 396T112 263T114 133T118 22Q118 22 117 17T110 7T91 1ZM306 62Q343 62 376 78T436 121T478 185T494 260Q494 326 472 368T412 430T326
450Q290 450 258 432T202 384T163 315T148 238Q148 187 167 147T222 85T306 62Z" />
<glyph unicode="c" horiz-adv-x="557" d="M284 -9Q202 -4 152 26T78 108T49 225Q45 277 60 325T108 412T188 473T295 495Q343 495 377 483T433 453T468 418T486 388T491 376Q491 376 491 372T489 362T478 352Q469 347 459 347T442 351T433 356Q433 356 427 366T408
391T371 416T313 427Q276 428 241 418T177 386T132 326T120 233Q123 170 144 134T201 81T287 59Q325 56 356 63T411 83T447 104T461 114Q465 116 472 116T487 115T502 104Q508 98 508 91T508 80T507 75Q507 75 495 62T457 31T389 1T284 -9Z" />
<glyph unicode="d" horiz-adv-x="603" d="M268 3Q218 3 178 21T108 73T64 149T48 243Q48 294 66 340T118 423T194 479T288 500Q356 500 407 474T488 392T517 250Q517 200 498 156T444 77T365 24T268 3ZM270 62Q307 62 340 78T400 121T441 183T457 258Q457 324
435 366T376 429T289 450Q253 450 221 432T164 384T126 315T112 238Q112 187 131 147T186 85T270 62ZM525 1Q515 1 509 4T498 13T493 22T491 26Q486 69 484 128T481 253T481 387T486 515T493 626Q493 626 494 629T498 638T507 646T525 649Q536 649 542 644T551
633T554 622T555 617Q552 578 550 521T547 399T546 266T549 137T554 26Q554 26 553 22T550 14T541 5T525 1Z" />
<glyph unicode="e" horiz-adv-x="544" d="M252 -10Q186 1 146 27T84 89T56 166T49 248Q48 289 65 334T115 417T195 478T300 496Q359 492 395 474T450 428T475 372T482 317Q481 266 455 236T379 195Q363 192 337 191T281 189T222 189T167 191T127 192T112 193Q114
156 131 123T182 69T264 44Q300 41 335 43T400 50T445 59T462 63Q462 63 466 63T475 64T486 61T494 48Q498 40 497 35T492 27T487 22T484 20Q484 20 463 14T406 -1T331 -12T252 -10ZM109 233L342 236Q342 236 350 237T371 243T396 256T417 282T426 324Q426 366
412 394T364 435T271 444Q228 442 196 419T144 361T115 293T109 233Z" />
<glyph unicode="f" horiz-adv-x="535" d="M178 -4Q165 -4 158 0T147 11T142 21T141 26Q138 86 137 143T134 254T133 361T137 462Q143 507 159 540T199 597T256 634T331 649Q366 648 394 638T446 611T485 570Q485 570 486 568T487 561T484 551T473 542Q466 538
459 540T445 546T439 550Q416 573 390 584T332 594Q279 586 246 550T208 453Q204 371 202 300T201 161T207 21Q207 21 207 17T204 9T196 0T178 -4ZM461 410Q461 402 457 398T449 392T441 389T437 388Q348 390 259 389T80 385Q80 385 73 386T58 391T49 404Q48 411
50 415T57 422T64 426T68 427Q112 432 156 435T245 441T336 443T431 441Q431 441 436 440T447 435T457 426T461 410Z" />
<glyph unicode="g" horiz-adv-x="676" d="M421 -210Q351 -214 289 -202T173 -164Q173 -164 169 -162T161 -156T155 -146T155 -131Q158 -124 164 -121T176 -117T186 -116T190 -117Q224 -132 259 -140T330 -152T405 -153Q452 -151 484 -135T534 -89T556 -14Q560
54 561 118T559 241T550 356T533 462Q533 462 534 468T540 480T559 486Q572 487 580 482T592 472T596 466Q614 392 621 310T628 141T622 -34Q610 -119 559 -162T421 -210ZM298 3Q241 3 195 21T116 73T66 149T48 243Q48 294 69 340T128 423T214 479T320 500Q398
500 456 474T547 392T581 250Q581 200 559 156T498 77T408 24T298 3ZM300 62Q342 62 380 78T449 121T497 183T515 258Q515 324 490 366T421 429T321 450Q279 450 243 432T178 384T134 315T118 238Q118 187 140 147T203 85T300 62Z" />
<glyph unicode="h" horiz-adv-x="573" d="M470 13Q459 15 453 21T446 33T444 44T444 49Q452 97 456 139T459 219T451 289Q430 363 399 395T328 428Q292 421 263 400T210 349T168 288T136 227T113 177Q105 159 101 151T96 142T95 142T96 142T97 133T94 106L78 222L104
283Q126 329 153 365T211 428T271 469T330 485Q381 480 417 454T478 386T517 290Q528 227 525 163T509 30Q509 30 508 26T501 19T489 13T470 13ZM93 1Q83 1 76 4T65 13T60 22T58 26Q54 69 52 128T49 253T49 387T53 515T60 626Q60 626 60 629T64 638T73 646T91 649Q102
649 108 644T117 633T121 622T122 617Q118 578 116 521T114 399T113 266T115 137T120 26Q120 26 120 22T116 14T108 5T93 1Z" />
<glyph unicode="i" horiz-adv-x="180" d="M91 1Q82 1 76 4T66 13T61 21T59 25Q53 79 51 133T48 242T51 355T59 474Q59 474 59 477T63 486T72 494T90 497Q101 497 107 493T116 482T120 471T121 466Q117 415 115 363T113 257T115 145T121 26Q121 26 120 22T117 14T108
5T91 1ZM93 559Q73 559 64 571T54 600Q54 619 63 630T93 642Q113 642 122 630T132 600Q132 589 129 580T117 565T93 559Z" />
<glyph unicode="j" horiz-adv-x="180" d="M91 -172Q82 -171 76 -168T66 -160T61 -152T59 -148Q55 -104 52 -44T49 87T49 227T52 361T59 474Q59 474 59 477T63 486T72 494T90 497Q101 497 107 493T116 482T120 471T121 466Q117 426 116 367T114 240T114 101T116
-34T121 -146Q121 -146 120 -150T117 -159T108 -168T91 -172ZM93 559Q73 559 64 571T54 600Q54 619 63 630T93 642Q113 642 122 630T132 600Q132 589 129 580T117 565T93 559Z" />
<glyph unicode="k" horiz-adv-x="473" d="M410 25Q401 22 393 23T378 28T369 36T365 39Q338 72 312 99T259 149T208 188T156 220T102 246L100 314Q157 318 206 332T296 373T369 439Q369 439 372 442T380 448T392 452T409 449Q417 445 420 438T423 424T421 412T419
407Q401 375 373 350T310 306T234 275T148 254L143 278Q188 264 227 242T302 192T367 129T423 59Q423 59 424 55T426 46T422 35T410 25ZM93 1Q83 1 76 4T65 13T60 22T58 26Q54 69 52 128T49 253T49 387T53 515T60 626Q60 626 60 629T64 638T73 646T91 649Q102 649
108 644T117 633T121 622T122 617Q118 578 116 521T114 399T113 266T115 137T120 26Q120 26 120 22T116 14T108 5T93 1Z" />
<glyph unicode="l" horiz-adv-x="169" d="M93 1Q82 1 76 4T65 13T60 22T58 26Q54 69 52 128T49 253T49 387T53 515T60 626Q60 626 60 629T64 638T73 646T91 649Q102 649 108 644T117 633T121 622T122 617Q118 578 116 521T114 399T113 266T115 137T120 26Q120
26 120 23T117 14T108 5T93 1Z" />
<glyph unicode="m" horiz-adv-x="891" d="M434 24Q424 27 418 32T410 42T407 52T406 57Q417 155 415 232T388 352Q365 396 337 417T279 439T216 424Q177 402 153 368T118 294T107 213Q108 176 108 144T110 87T113 47Q113 47 113 45T112 39T108 32T96 27Q88 26
82 29T73 36T69 40Q57 61 57 79T59 119T55 171Q54 206 55 239T61 303T74 361T99 410Q118 435 144 454T203 484T270 495T341 483Q367 470 388 451T426 407T455 353T474 285Q484 229 483 170T471 45Q471 45 470 41T465 32T454 25T434 24ZM91 1Q82 1 76 4T66 13T61
21T59 25Q53 79 51 133T48 242T51 355T59 474Q59 474 59 477T63 486T72 494T90 497Q101 497 107 493T116 482T120 471T121 466Q117 415 115 363T113 257T115 145T121 26Q121 26 120 22T117 14T108 5T91 1ZM796 24Q785 27 779 32T771 42T768 52T767 57Q779 155 777
232T749 352Q726 396 698 417T640 439T577 424Q538 402 514 368T479 294T468 213Q470 176 469 151T466 106T463 69Q463 69 463 65T462 55T459 45T450 40Q441 39 436 41T430 47T428 51Q425 64 424 83T423 125T423 172Q423 206 423 239T425 303T436 361T461 410Q479
435 506 454T564 484T631 495T702 483Q728 470 749 451T788 407T816 353T835 285Q845 229 844 170T832 45Q832 45 831 41T826 32T815 25T796 24Z" />
<glyph unicode="n" horiz-adv-x="530" d="M434 24Q424 27 418 32T410 42T407 52T406 57Q417 155 415 232T388 352Q365 396 337 417T279 439T216 424Q177 402 153 368T118 294T107 213Q108 176 108 144T110 87T113 47Q113 47 113 45T112 39T108 32T96 27Q88 26
82 29T73 36T69 40Q57 61 57 79T59 119T55 171Q54 206 55 239T61 303T74 361T99 410Q118 435 144 454T203 484T270 495T341 483Q367 470 388 451T426 407T455 353T474 285Q484 229 483 170T471 45Q471 45 470 41T465 32T454 25T434 24ZM91 1Q82 1 76 4T66 13T61
21T59 25Q53 79 51 133T48 242T51 355T59 474Q59 474 59 477T63 486T72 494T90 497Q101 497 107 493T116 482T120 471T121 466Q117 415 115 363T113 257T115 145T121 26Q121 26 120 22T117 14T108 5T91 1Z" />
<glyph unicode="o" horiz-adv-x="568" d="M269 3Q219 3 178 22T108 73T64 149T48 243Q48 293 66 339T118 422T194 479T288 500Q338 500 380 485T454 440T503 362T520 250Q520 200 500 156T445 77T364 23T269 3ZM269 62Q306 62 340 77T400 120T441 182T457 257Q457
323 435 365T376 428T289 449Q252 449 220 431T163 383T125 314T111 238Q111 186 130 146T186 84T269 62Z" />
<glyph unicode="p" horiz-adv-x="604" d="M306 3Q254 3 213 22T144 74T102 150T87 244Q87 296 105 342T156 424T232 480T326 500Q376 500 418 485T491 438T539 360T556 249Q556 199 536 155T481 76T401 23T306 3ZM92 -212Q82 -212 76 -209T65 -200T60 -190T58
-186Q54 -143 52 -79T49 61T48 211T52 354T59 469Q59 469 60 473T64 482T73 490T91 494Q102 493 108 489T117 478T121 467T122 462Q118 421 116 359T114 223T113 74T115 -70T120 -187Q120 -187 120 -191T117 -199T108 -208T92 -212ZM305 62Q342 62 376 78T436 121T477
185T492 260Q492 326 470 368T411 430T325 450Q289 450 257 432T200 384T161 315T147 238Q147 187 166 147T221 85T305 62Z" />
<glyph unicode="q" horiz-adv-x="605" d="M268 3Q218 3 178 21T108 73T64 149T48 243Q48 294 66 340T118 423T194 479T288 500Q356 500 407 474T488 392T517 250Q517 200 498 156T444 77T365 24T268 3ZM270 62Q307 62 340 78T400 121T441 183T457 258Q457 324
435 366T376 429T289 450Q253 450 221 432T164 384T126 315T112 238Q112 187 131 147T186 85T270 62ZM527 -212Q517 -213 510 -209T500 -200T494 -190T492 -186Q488 -143 486 -79T483 60T483 211T487 354T495 469Q495 469 495 473T499 481T508 490T526 493Q537
493 543 489T552 478T556 467T557 462Q553 421 552 359T549 223T548 73T549 -70T554 -187Q554 -187 554 -191T551 -199T543 -208T527 -212Z" />
<glyph unicode="r" horiz-adv-x="453" d="M91 144Q83 143 78 146T70 153T66 162T64 166Q62 177 61 183T59 196T58 219T60 263Q64 322 81 366T132 441T213 486Q247 495 278 494T336 481T388 450Q388 450 391 447T397 439T403 428T404 416T396 404Q387 398 378 398T361
403T347 412T342 416Q315 436 285 437T223 425Q173 405 148 365T115 268Q112 241 111 227T110 206T109 191T110 167Q110 167 110 162T106 152T91 144ZM91 1Q82 1 76 4T66 13T61 21T59 25Q53 79 51 133T48 242T51 355T59 474Q59 474 59 477T63 486T72 494T90 497Q101
497 107 493T116 482T120 471T121 466Q117 415 115 363T113 257T115 145T121 26Q121 26 120 22T117 14T108 5T91 1Z" />
<glyph unicode="s" horiz-adv-x="509" d="M252 47Q319 52 339 73T337 132Q328 148 305 166T252 204T195 248T146 297T121 355Q115 394 131 425T188 475T292 494T448 472Q448 472 450 471T455 466T460 458T461 448Q459 442 457 439T450 435T444 433T441 433Q441
433 427 434T391 438T342 440T289 440T240 433T207 416Q189 399 185 381T188 342T217 300T273 257Q323 227 358 194T407 126T406 56Q396 35 367 21T298 3T214 5T127 30T52 82Q52 82 51 84T49 89T48 95T52 103Q56 107 60 108T69 109T75 108T78 107Q78 107 92 97T131
75T187 54T252 47Z" />
<glyph unicode="t" horiz-adv-x="433" d="M224 1Q213 1 207 4T196 13T191 22T189 26Q185 69 183 128T179 253T179 387T184 515T191 626Q191 626 192 629T196 638T205 646T222 649Q234 649 240 644T249 633T252 622T253 617Q250 578 248 521T245 399T244 266T247
137T252 26Q252 26 251 23T248 14T239 5T224 1ZM358 426Q279 426 208 427T81 429Q81 429 76 430T65 433T53 441T48 454Q47 462 49 466T56 472T62 475T65 476Q73 477 95 478T147 479T213 480T285 481T353 481Q353 481 356 480T364 477T374 472T382 463T385 451Q385
442 381 437T371 429T362 427T358 426Z" />
<glyph unicode="u" horiz-adv-x="530" d="M190 11Q164 24 142 43T104 87T75 142T56 209Q46 265 47 325T59 450Q59 450 60 454T65 462T76 470T95 471Q106 469 112 463T120 452T123 442T124 437Q112 339 115 262T142 142Q159 110 179 90T221 61T266 54T312 68Q350
90 372 121T404 191T412 270Q410 307 403 348T387 422T376 470Q376 470 376 472T377 479T382 486T395 491Q404 493 411 489T421 482T425 478Q443 447 455 407T476 323Q484 269 481 225T465 145T431 79Q412 54 385 36T327 8T261 -2T190 11Z" />
<glyph unicode="v" horiz-adv-x="483" d="M229 2Q215 3 202 8T177 24T155 51T138 90L49 447Q49 447 49 451T49 460T55 470T70 477Q81 479 88 476T100 468T108 459T111 455L174 207Q186 152 199 115T224 66Q239 67 262 102T313 211Q330 259 342 303T361 386T372
456Q372 456 373 460T377 470T386 479T405 482Q417 481 423 475T431 463T434 451T435 446Q433 415 429 383T417 320T400 257T380 194Q354 125 328 82T277 19T229 2Z" />
<glyph unicode="w" horiz-adv-x="806" d="M229 2Q215 3 202 8T177 24T155 51T138 90L49 447Q49 447 49 451T49 460T55 470T70 477Q81 479 88 476T100 468T108 459T111 455L174 207Q186 152 199 115T224 66Q239 67 262 102T313 211Q330 259 342 303T361 386T372
456Q372 456 373 460T377 470T386 479T405 482Q417 481 423 475T431 463T434 451T435 446Q433 415 429 383T417 320T400 257T380 194Q354 125 328 82T277 19T229 2ZM553 2Q539 3 526 8T500 24T478 51T461 90L378 447Q378 447 378 451T378 460T382 470T394 477Q404
480 411 477T424 469T432 460T435 456L497 207Q510 152 522 115T548 66Q563 67 585 102T637 211Q654 259 666 303T685 386T696 456Q696 456 696 460T700 470T709 479T728 482Q740 481 746 475T755 463T758 451T759 446Q757 405 749 362T730 277T703 194Q677 125
652 82T601 19T553 2Z" />
<glyph unicode="x" horiz-adv-x="515" d="M60 1Q53 7 51 12T48 24T51 35T55 42T57 45Q86 77 113 109T168 174T223 242Q204 269 185 295T147 347T110 399T71 454Q71 454 70 457T69 464T71 473T81 482Q88 486 94 486T106 484T115 481T119 479Q143 450 166 419T214
355T262 290Q290 328 315 362T364 427T407 488Q407 488 410 491T419 497T432 501T449 497Q459 493 462 486T466 472T465 461T464 456Q440 421 418 389T375 329T337 277T304 235Q336 193 365 154T417 83T452 33Q452 33 453 31T454 25T453 16T448 8T437 0Q426 -4
417 -1T402 7T396 11L265 188Q221 135 180 86T106 3Q106 3 102 1T91 -4T76 -5T60 1Z" />
<glyph unicode="y" horiz-adv-x="605" d="M351 -210Q281 -214 219 -202T103 -164Q103 -164 100 -162T92 -156T85 -146T85 -131Q88 -124 93 -121T105 -117T115 -116T119 -117Q153 -132 188 -140T259 -152T335 -153Q382 -151 414 -135T463 -89T486 -14Q490 54 490
118T489 241T480 356T462 462Q462 462 463 468T469 480T488 486Q502 487 510 482T521 472T525 466Q543 392 550 310T557 141T552 -34Q539 -119 489 -162T351 -210ZM210 12Q168 31 138 59T87 126T58 209Q51 247 50 286T51 366T62 450Q62 450 63 453T69 461T80 469T100
471Q110 470 116 466T127 457T132 448T134 440T135 437Q126 368 125 311T131 211T158 141Q198 78 247 62T355 68Q400 90 429 120T473 188T487 268L540 325Q554 244 539 183T486 78Q457 46 414 23T319 -5T210 12Z" />
<glyph unicode="z" horiz-adv-x="574" d="M122 -5Q95 -2 82 8T68 34T74 63T98 89L410 386Q418 399 417 406T406 417T383 424T352 427Q304 429 259 427T173 419T92 405Q92 405 86 405T72 405T58 411T49 424Q47 433 50 439T58 448T67 452T71 454Q154 480 241 484T421
478Q439 474 454 468T479 451T493 426T493 392Q488 376 465 348T405 284T323 207T231 125T140 47L493 68Q493 68 497 67T508 64T520 56T526 42Q526 33 523 28T516 19T509 15T505 14L122 -5Z" />
<glyph unicode="{" horiz-adv-x="309" d="M211 6Q211 6 203 4T181 3T152 10T121 33T93 80Q85 100 85 127T88 184T90 238T78 276Q78 276 70 281T55 293T49 308Q51 317 55 319T64 322T68 323Q68 323 75 323T90 329T104 349T109 388Q109 405 107 430T104 485T108
543T127 595T167 630T236 640Q236 640 240 639T249 635T258 628T262 617Q262 608 257 605T246 602T241 602Q241 602 233 602T211 596T186 576T165 534Q158 511 159 483T163 425T165 368T155 320T122 287Q122 287 129 276T142 240T141 172Q136 132 143 103T166 60T205
50Q205 50 209 50T219 51T229 46T235 34Q235 26 232 21T224 12T215 8T211 6Z" />
<glyph unicode="|" horiz-adv-x="170" d="M92 0Q81 0 75 3T65 12T60 22T58 26Q54 69 52 127T49 252T49 385T53 513T60 623Q60 623 60 627T63 636T72 644T90 648Q100 648 106 645T115 636T120 625T122 617T122 613Q118 573 116 516T114 395T113 264T115 136T120
25Q120 25 120 21T116 12T108 3T92 0Z" />
<glyph unicode="}" horiz-adv-x="309" d="M99 6Q99 6 95 7T86 12T78 20T75 34Q76 42 80 46T90 50T100 51T105 50Q127 45 143 59T167 103T168 172Q163 215 168 240T181 276T188 287Q163 298 154 319T144 368T146 425T150 483T145 534Q136 562 124 576T99 595T78
601T69 602Q69 602 64 602T53 605T48 617Q48 623 51 627T60 634T69 638T73 640Q115 643 141 631T182 595T201 544T206 485T204 430T201 388Q199 363 205 349T219 330T234 324T241 323Q241 323 245 323T255 320T261 308Q263 300 256 293T240 281T232 276Q220 263
220 239T221 185T224 128T216 80Q205 50 190 33T158 10T129 3T107 4T99 6Z" />
<glyph unicode="~" horiz-adv-x="459" d="M93 268Q87 264 80 266T68 273T63 277Q49 291 49 306T57 336T83 359T121 370Q158 374 189 363T252 338T317 321Q332 322 343 328T362 346Q362 346 364 351T373 361T390 363Q400 361 404 357T409 347T411 337T411 332Q405
313 387 298T331 278Q310 277 280 285T219 304T162 324Q144 329 126 326T99 314T95 292Q95 292 97 288T99 278T93 268Z" />
<glyph unicode="&#xa0;" horiz-adv-x="260" />
<glyph unicode="&#xa1;" horiz-adv-x="179" d="M85 -2Q75 -2 69 2T59 11T54 21T52 30T52 34Q55 84 57 131T60 227T63 327T66 439Q66 439 67 444T75 455T92 460Q104 459 110 454T119 444T122 438Q123 378 123 309T122 167T117 23Q117 23 117 19T113 10T104 2T85
-2ZM91 580Q80 580 70 584T55 597T49 616Q49 627 55 635T70 647T91 651Q102 651 111 647T126 634T132 616Q132 606 127 598T112 585T91 580Z" />
<glyph unicode="&#xa2;" horiz-adv-x="557" d="M284 53Q202 57 152 87T78 169T49 286Q45 339 60 387T108 474T188 535T295 557Q343 556 377 544T433 514T468 479T486 449T491 437Q491 437 491 434T492 427T488 419T478 413Q470 411 463 414T452 422T448 427Q448
427 441 439T418 468T376 498T314 511Q278 512 240 500T170 462T119 394T103 295Q105 236 120 199T160 142T217 112T287 99Q326 95 360 104T419 127T459 153T474 164Q474 164 478 165T488 166T501 159Q506 155 507 151T509 144T508 138T507 136Q507 136 495 123T457
92T389 63T284 53ZM301 -24Q292 -23 287 -18T279 -8T277 -2Q276 9 274 20T270 43T268 71L329 82Q331 65 331 51T330 24T325 -5Q325 -5 324 -9T317 -19T301 -24ZM269 525Q268 542 268 561T269 599T273 632Q273 632 275 636T282 646T297 650Q308 650 313 645T320
635T322 629Q325 618 326 602T329 569T331 536L269 525Z" />
<glyph unicode="&#xa3;" horiz-adv-x="443" d="M101 -5Q84 -4 75 2T66 19T72 44Q86 63 94 84T108 131T114 186Q114 216 109 254T99 334T92 415T96 487Q104 527 120 561T166 619T243 649Q272 649 296 639T339 610T371 563Q371 563 372 560T373 553T371 545T362
538Q355 536 348 537T335 542T330 546Q320 562 307 574T276 593Q253 598 233 591T195 563T165 509Q156 486 154 451T155 375T164 291T174 206Q177 158 169 118T140 45Q169 48 196 50T251 55T305 58T360 60Q360 60 363 60T373 58T384 54T392 47T396 35Q396 26 393
21T384 14T375 10T371 9Q359 9 330 8T262 4T180 0T101 -5ZM77 274Q77 274 71 274T58 278T49 292Q47 299 50 303T57 309T66 312T70 313Q105 318 143 321T223 327T306 328Q306 328 309 328T318 327T328 323T336 315T340 302Q340 292 336 288T327 281T317 279T313
279Q273 281 233 281T153 279T77 274Z" />
<glyph unicode="&#xa5;" horiz-adv-x="530" d="M256 259Q168 271 118 317T54 439T59 616Q59 616 60 621T65 633T75 644T94 646Q106 644 111 638T119 624T121 610T121 604Q102 473 132 400T252 318Q300 325 334 353T388 424T413 512T408 602Q408 602 408 606T408
617T414 627T431 634Q442 635 450 632T463 623T470 614T472 609Q485 552 480 495T448 387T375 303T256 259ZM109 90Q108 90 102 90T89 93T78 107Q76 114 78 119T85 127T93 131T97 132Q168 146 249 148T421 140Q421 140 425 139T436 134T445 124T449 111Q448 104
443 100T433 93T424 91T420 91Q386 94 354 95T290 97T229 98T169 96T109 90ZM260 8Q249 8 242 12T232 22T227 32T225 37Q215 96 216 158T227 285L290 288Q279 211 280 148T288 36Q288 36 288 32T285 22T277 13T260 8ZM109 184Q108 184 104 184T96 185T86 190T78
201Q76 208 78 213T85 220T93 224T97 226Q168 240 249 242T421 234Q421 234 425 232T436 227T445 218T449 205Q448 197 443 193T433 188T424 186T420 185Q386 188 354 190T290 192T229 193T169 190T109 184Z" />
<glyph unicode="&#xa6;" horiz-adv-x="162" d="M86 389Q76 389 70 392T60 400T55 408T53 412Q49 463 49 502T49 581T53 674Q53 674 53 677T57 686T66 694T84 697Q95 697 101 693T110 682T114 671T115 666Q108 596 109 535T115 414Q115 414 114 410T111 401T102
392T86 389ZM86 -24Q76 -24 70 -21T60 -12T55 -4T53 0Q49 50 49 89T49 168T53 261Q53 261 53 264T57 273T66 281T84 285Q95 285 101 280T110 269T114 258T115 253Q108 183 109 122T115 1Q115 1 114 -3T111 -11T102 -20T86 -24Z" />
<glyph unicode="&#xa7;" horiz-adv-x="378" d="M192 -8Q164 -8 139 3T93 29T60 60T48 81Q48 87 52 92T63 97Q71 97 84 88T114 66T150 44T187 34Q199 34 210 42T228 65T235 93Q235 112 224 127T196 157T163 187T136 221T124 265Q124 302 145 330T198 365Q156 392
130 421T92 479T80 533Q80 556 88 576T110 614T146 640T193 650Q219 650 245 637T294 603T328 561Q328 561 329 558T331 549Q331 543 327 538T316 533Q309 533 304 539T298 545Q280 564 264 577T233 598T201 605Q188 605 172 597T144 573T133 532Q133 503 145 481T179
440T224 404T273 365Q278 361 280 357T282 347Q282 343 281 340T278 335T272 332T264 330Q234 329 215 320T186 297T176 262Q176 245 187 230T215 201T248 169T276 133T288 89Q288 62 276 40T242 5T192 -8Z" />
<glyph unicode="&#xa8;" horiz-adv-x="388" d="M300 525Q289 525 280 530T265 543T259 561Q259 571 264 579T279 592T300 597Q312 597 321 592T335 579T341 561Q341 545 329 535T300 525ZM88 525Q77 525 68 530T53 543T48 561Q48 571 53 579T67 592T88 597Q100
597 109 592T124 579T130 561Q130 550 125 542T110 530T88 525Z" />
<glyph unicode="&#xa9;" horiz-adv-x="732" d="M368 0Q257 0 187 44T82 163T48 327Q48 417 86 490T196 606T368 649Q414 649 459 631T545 582T617 508T667 415T685 311Q685 222 650 152T545 41T368 0ZM350 136Q292 140 258 163T206 224T185 311Q182 363 202 409T263
485T357 514Q400 513 427 500T468 469T488 438T494 425Q494 425 494 421T494 413T486 406Q480 405 475 407T468 413T465 416Q465 416 460 425T444 447T415 469T371 480Q346 480 320 471T272 443T237 393T225 318Q226 273 236 245T264 202T305 180T353 170Q381 167
404 174T445 191T472 210T482 219Q482 219 485 220T493 222T502 216Q506 212 507 208T507 201T506 198Q506 198 498 188T472 165T424 143T350 136ZM368 45Q459 45 519 80T609 176T639 313Q639 371 616 423T553 516T466 580T368 604Q282 605 220 568T126 467T93
326Q93 249 122 186T212 84T368 45Z" />
<glyph unicode="&#xaa;" horiz-adv-x="323" d="M146 278Q117 278 95 292T61 331T48 386Q48 416 62 442T101 484T155 500Q201 501 229 474T257 388Q257 359 243 334T203 294T146 278ZM147 304Q170 304 189 316T219 349T231 392Q231 436 210 457T156 478Q135 478
117 464T87 429T76 383Q76 348 95 326T147 304ZM262 277Q255 277 252 281T248 286Q243 335 243 385T248 491Q248 491 250 495T262 500Q269 499 271 496T275 488T276 484Q273 454 272 423T272 358T275 288Q275 288 275 285T272 280T262 277Z" />
<glyph unicode="&#xab;" horiz-adv-x="520" d="M436 65Q429 59 422 60T407 64T396 71T392 75Q371 98 352 120T315 167T278 219Q266 238 260 254T255 286T264 316Q287 362 311 406T363 488T421 557Q421 557 424 560T434 568T447 573T461 570Q468 566 470 560T471
549T468 540T466 536Q439 501 414 464T365 387T318 301Q302 268 326 237L435 101Q435 101 437 99T442 94T446 86T445 76T436 65ZM229 65Q221 59 214 60T200 64T189 71T185 75Q164 98 145 120T107 167T71 219Q58 238 52 254T47 286T56 316Q80 362 104 406T155 488T213
557Q213 557 217 560T226 568T239 573T254 570Q261 566 262 560T263 549T261 540T259 536Q231 501 206 464T157 387T111 301Q95 268 118 237L228 101Q228 101 230 99T235 94T238 86T238 76T229 65Z" />
<glyph unicode="&#xac;" horiz-adv-x="744" d="M643 64Q636 66 633 72T629 84T629 95T630 100Q638 140 642 179T646 256T642 334Q595 330 537 328T415 325T289 325T172 328T73 335Q73 335 69 336T60 341T52 351T48 368Q48 378 52 384T60 393T69 396T74 397Q123
394 183 393T309 390T437 389T557 392T653 398Q653 398 658 398T670 395T683 385T689 365Q696 317 696 270T691 176T669 84Q669 84 668 81T664 72T656 65T643 64Z" />
<glyph unicode="&#xae;" horiz-adv-x="613" d="M308 136Q219 136 161 171T76 265T48 395Q48 466 79 523T168 615T307 649Q354 649 399 628T483 569T543 484T565 383Q565 312 537 256T452 168T308 136ZM308 174Q381 174 429 201T501 276T525 384Q525 429 506 470T456
543T386 593T308 612Q239 612 190 583T115 505T89 395Q89 335 112 285T184 204T308 174ZM255 258Q250 259 247 262T244 268T243 272Q240 300 240 343T240 431T244 509Q244 509 244 511T247 517T256 521Q303 526 334 522T384 497Q412 468 410 434T381 375Q370 366
351 358T310 347T265 347L267 269Q267 269 266 267T263 261T255 258ZM377 273Q352 290 322 307T257 343Q257 346 260 348T268 351T276 352T280 353Q294 347 307 341T333 328T361 312T393 290Q393 290 394 288T396 283T394 275Q391 272 387 272T380 272T377 273ZM265
372Q308 370 333 380T368 408T381 439Q381 467 365 480T322 498T268 502Q265 470 265 436T265 372Z" />
<glyph unicode="&#xaf;" horiz-adv-x="483" d="M432 561Q431 552 426 547T416 540T406 538T401 538Q359 541 327 542T267 544T213 544T156 541T86 536Q86 536 82 536T71 538T60 543T52 555Q49 563 51 568T57 577T65 581T69 583Q116 591 153 595T227 600T304 600T399
592Q399 592 404 591T417 585T428 576T432 561Z" />
<glyph unicode="&#xb0;" horiz-adv-x="399" d="M200 358Q147 358 114 378T64 433T48 509Q48 551 66 585T118 639T200 659Q228 659 254 647T303 612T339 562T352 502Q352 440 315 399T200 358ZM197 406Q248 405 273 432T300 502Q300 530 286 554T250 593T202 610Q155
610 128 581T99 510Q98 468 121 437T197 406Z" />
<glyph unicode="&#xb2;" horiz-adv-x="278" d="M87 341Q81 341 76 344T70 353T74 365Q127 447 153 504T174 584Q167 606 155 616T126 628Q108 627 95 620T68 601Q68 601 66 600T61 599T52 602Q49 605 48 606T48 610T51 615Q67 632 85 641T126 650Q156 649 175
633T202 592T204 543Q196 511 181 480T148 419T110 364H218Q218 364 221 364T227 361T231 354Q231 350 229 348T225 344T222 343L87 341Z" />
<glyph unicode="&#xb3;" horiz-adv-x="262" d="M136 342Q119 345 104 350T76 364T52 386Q52 386 51 388T48 394T51 401Q56 405 60 404T68 401T71 398Q78 392 96 381T135 367Q153 370 164 377T180 399T184 432Q175 460 157 474T113 490Q107 492 104 495T103 502T112
508Q116 509 125 510T145 517T167 532Q184 552 184 573T162 611Q148 620 125 619T76 611Q76 611 73 611T67 612T61 617Q60 622 61 624T64 628T66 629Q81 634 95 638T124 641Q137 642 150 639T177 628Q198 615 205 595T210 555T193 521Q186 514 178 508T160 498Q181
488 195 472T213 428Q217 399 206 380T177 352T136 342Z" />
<glyph unicode="&#xb4;" horiz-adv-x="324" d="M81 504Q81 504 78 503T69 502T59 504T50 513Q47 520 48 526T53 537T60 543T64 546Q113 568 157 589T244 631Q244 631 247 632T254 633T264 631T273 623Q276 617 276 612T273 604T268 598T265 596Q245 583 223 571T177
547T129 524T81 504Z" />
<glyph unicode="&#xb6;" horiz-adv-x="672" d="M468 -2Q458 -2 453 2T444 10T440 19T439 23L446 246Q404 240 357 240T265 244T184 262T126 292Q78 333 60 384T54 488T116 590Q163 638 254 648T469 649Q479 648 485 644T495 634T499 625T500 621Q504 573 506 511T510
382T511 248T508 124T502 25Q502 25 500 21T495 12T485 2T468 -2ZM581 -2Q570 -2 565 2T556 10T553 19T552 23Q555 72 556 133T558 261T559 393T556 514T550 612Q550 612 550 615T551 624T556 634T566 643T582 647Q593 647 599 643T608 635T611 626T612 622Q617
574 619 513T623 384T624 251T621 126T614 24Q614 24 613 21T608 12T598 2T581 -2Z" />
<glyph unicode="&#xb7;" horiz-adv-x="177" d="M88 256Q77 256 68 260T53 273T48 291Q48 301 53 309T67 322T88 327Q100 327 109 322T124 309T130 291Q130 280 125 272T110 260T88 256Z" />
<glyph unicode="&#xb8;" horiz-adv-x="316" d="M158 -218Q124 -216 99 -202T53 -169Q53 -169 52 -168T49 -163T49 -157T54 -149Q59 -145 64 -145T73 -147T77 -149Q96 -167 119 -177T170 -186Q198 -184 211 -174T228 -148T229 -112Q225 -90 209 -78T166 -59Q157
-59 150 -57T140 -51T137 -41Q134 -21 133 -1T133 36Q133 36 134 41T138 50T148 55Q157 55 160 46T163 37Q166 23 168 6T172 -30Q193 -34 210 -41T240 -60T258 -86T267 -117Q271 -156 258 -178T219 -209T158 -218Z" />
<glyph unicode="&#xb9;" horiz-adv-x="227" d="M165 326Q157 326 154 329T149 336T147 340Q144 374 143 422T142 519T146 605L71 535Q71 535 69 534T62 532T53 536Q49 540 49 544T49 550T51 552L120 614Q133 626 146 635T166 643Q174 642 176 639T179 631T180
627Q178 602 177 566T175 488T176 408T179 339Q179 339 179 336T175 329T165 326Z" />
<glyph unicode="&#xba;" horiz-adv-x="338" d="M148 416Q102 416 74 447T49 528Q51 561 66 590T106 637T162 656Q185 656 208 650T250 629T280 591T289 531Q288 502 274 481T240 445T195 423T148 416ZM153 438Q177 438 202 449T244 481T263 536Q265 572 251 593T215
622T167 631Q143 631 123 618T89 580T74 529Q72 486 94 462T153 438Z" />
<glyph unicode="&#xbb;" horiz-adv-x="520" d="M291 65Q284 70 282 75T281 85T284 93T289 99T292 101L401 237Q425 268 409 301Q386 346 363 386T314 464T261 536Q261 536 260 539T257 548T257 560T266 570Q273 575 280 574T293 568T302 561T306 557Q336 526 363
488T416 406T464 316Q471 302 472 286T468 254T449 219Q431 192 413 168T376 121T335 75Q335 75 331 72T320 65T306 60T291 65ZM83 65Q76 70 75 75T74 85T77 93T82 99T84 101L194 237Q217 268 201 301Q179 346 156 386T107 464T54 536Q54 536 52 539T49 548T49
560T59 570Q66 575 73 574T86 568T95 561T99 557Q129 526 156 488T208 406T256 316Q263 302 264 286T261 254T242 219Q224 192 206 168T168 121T127 75Q127 75 124 72T113 65T99 60T83 65Z" />
<glyph unicode="&#xbc;" horiz-adv-x="506" d="M135 7Q126 9 122 14T116 25T114 34T115 38Q140 113 178 210T264 418T366 645Q366 645 368 648T374 654T385 658T401 655Q411 651 414 645T418 633T416 623T414 619Q365 502 319 392T234 187T170 19Q170 19 167 14T155
6T135 7ZM165 326Q157 326 154 329T149 336T147 340Q144 374 143 422T142 519T146 605L71 535Q71 535 69 534T62 532T53 536Q49 540 49 544T49 550T51 552L120 614Q133 626 146 635T166 643Q174 642 176 639T179 631T180 627Q178 602 177 566T175 488T176 408T179
339Q179 339 179 336T175 329T165 326ZM445 -3Q438 -3 434 0T429 7T428 10Q425 36 424 70T422 142T422 213T424 273L310 153Q304 141 304 133T314 123L429 127L428 103Q401 100 373 99T312 99Q292 103 282 112T272 135T282 162Q305 190 327 213T366 252Q384 270
401 286T432 315Q440 318 445 315T454 307T457 298Q455 273 454 237T453 160T455 80T459 11Q459 11 458 8T455 1T445 -3Z" />
<glyph unicode="&#xbd;" horiz-adv-x="538" d="M135 7Q126 9 122 14T116 25T114 34T115 38Q140 113 178 210T264 418T366 645Q366 645 368 648T374 654T385 658T401 655Q411 651 414 645T418 633T416 623T414 619Q365 502 319 392T234 187T170 19Q170 19 167 14T155
6T135 7ZM165 326Q157 326 154 329T149 336T147 340Q144 374 143 422T142 519T146 605L71 535Q71 535 69 534T62 532T53 536Q49 540 49 544T49 550T51 552L120 614Q133 626 146 635T166 643Q174 642 176 639T179 631T180 627Q178 602 177 566T175 488T176 408T179
339Q179 339 179 336T175 329T165 326ZM347 1Q341 1 336 4T330 12T334 25Q387 107 413 164T434 244Q427 266 415 276T386 288Q368 287 355 280T328 261Q328 261 326 260T321 259T312 262Q309 265 308 266T308 270T311 275Q327 292 345 301T386 310Q416 309 435
293T462 252T464 203Q456 172 441 140T408 79T370 24H478Q478 24 481 24T487 21T491 14Q491 9 489 7T485 4T482 3L347 1Z" />
<glyph unicode="&#xbe;" horiz-adv-x="506" d="M135 7Q126 9 122 14T116 25T114 34T115 38Q140 113 178 210T264 418T366 645Q366 645 368 648T374 654T385 658T401 655Q411 651 414 645T418 633T416 623T414 619Q365 502 319 392T234 187T170 19Q170 19 167 14T155
6T135 7ZM136 342Q119 345 104 350T76 364T52 386Q52 386 51 388T48 394T51 401Q56 405 60 404T68 401T71 398Q78 392 96 381T135 367Q153 370 164 377T180 399T184 432Q175 460 157 474T113 490Q107 492 104 495T103 502T112 508Q116 509 125 510T145 517T167
532Q184 552 184 573T162 611Q148 620 125 619T76 611Q76 611 73 611T67 612T61 617Q60 622 61 624T64 628T66 629Q81 634 95 638T124 641Q137 642 150 639T177 628Q198 615 205 595T210 555T193 521Q186 514 178 508T160 498Q181 488 195 472T213 428Q217 399
206 380T177 352T136 342ZM445 -3Q438 -3 434 0T429 7T428 10Q425 36 424 70T422 142T422 213T424 273L310 153Q304 141 304 133T314 123L429 127L428 103Q401 100 373 99T312 99Q292 103 282 112T272 135T282 162Q305 190 327 213T366 252Q384 270 401 286T432
315Q440 318 445 315T454 307T457 298Q455 273 454 237T453 160T455 80T459 11Q459 11 458 8T455 1T445 -3Z" />
<glyph unicode="&#xbf;" horiz-adv-x="523" d="M257 -2Q210 -2 171 11T102 50T55 120Q49 142 48 166T55 217T82 272T136 334Q172 362 198 391T225 459Q225 459 225 467T230 483T244 491Q255 492 262 487T272 474T276 461T277 455Q282 426 273 400T244 350T200
306Q172 281 151 255T120 198T116 131Q127 103 146 85T194 59T260 53Q309 53 347 69T406 126Q411 139 412 153T410 184T389 219Q389 219 386 223T381 233T386 247Q391 254 398 254T413 253T424 247T429 244Q465 212 473 172T451 76Q432 51 404 34T339 8T257 -2ZM242
582Q230 582 221 587T206 600T200 618Q200 629 205 637T220 649T242 653Q253 653 262 649T276 636T282 618Q282 608 277 600T262 587T242 582Z" />
<glyph unicode="&#xc0;" horiz-adv-x="517" d="M81 -1Q68 1 62 6T52 17T49 28T48 32Q52 125 70 221T117 417Q133 466 149 507T182 578T218 626T261 643Q278 646 293 635T324 602T353 547T378 473Q388 445 401 396T427 284T451 155T469 22Q469 22 469 19T466 11T458
3T441 -1Q430 -1 423 2T412 10T407 19T405 23Q389 128 372 223T333 395Q319 450 303 494T267 574Q248 550 232 521T204 459T183 393Q169 341 157 293T137 200T123 110T115 21Q115 21 114 17T110 8T100 1T81 -1ZM100 94L108 138Q155 149 202 155T300 161T403 158L411
103Q376 109 335 111T252 113T170 107T100 94ZM345 691Q321 701 297 712T250 734T205 758T162 784Q162 784 159 786T154 791T151 800T153 811Q157 817 162 819T172 821T180 820T183 818Q225 797 269 777T363 733Q363 733 366 731T372 724T377 714T375 700Q373 694
368 692T358 690T349 690T345 691Z" />
<glyph unicode="&#xc1;" horiz-adv-x="517" d="M81 -1Q68 1 62 6T52 17T49 28T48 32Q52 125 70 221T117 417Q133 466 149 507T182 578T218 626T261 643Q278 646 293 635T324 602T353 547T378 473Q388 445 401 396T427 284T451 155T469 22Q469 22 469 19T466 11T458
3T441 -1Q430 -1 423 2T412 10T407 19T405 23Q389 128 372 223T333 395Q319 450 303 494T267 574Q248 550 232 521T204 459T183 393Q169 341 157 293T137 200T123 110T115 21Q115 21 114 17T110 8T100 1T81 -1ZM100 94L108 138Q155 149 202 155T300 161T403 158L411
103Q376 109 335 111T252 113T170 107T100 94ZM176 687Q176 687 173 686T164 685T154 687T145 696Q142 703 143 709T148 720T155 726T159 729Q208 751 252 772T339 814Q339 814 342 815T349 816T359 814T368 806Q371 800 371 795T368 787T363 781T360 779Q340 766
318 754T272 730T224 707T176 687Z" />
<glyph unicode="&#xc2;" horiz-adv-x="517" d="M81 -1Q68 1 62 6T52 17T49 28T48 32Q52 125 70 221T117 417Q133 466 149 507T182 578T218 626T261 643Q278 646 293 635T324 602T353 547T378 473Q388 445 401 396T427 284T451 155T469 22Q469 22 469 19T466 11T458
3T441 -1Q430 -1 423 2T412 10T407 19T405 23Q389 128 372 223T333 395Q319 450 303 494T267 574Q248 550 232 521T204 459T183 393Q169 341 157 293T137 200T123 110T115 21Q115 21 114 17T110 8T100 1T81 -1ZM100 94L108 138Q155 149 202 155T300 161T403 158L411
103Q376 109 335 111T252 113T170 107T100 94ZM137 692Q131 696 129 700T127 709T129 716T131 719Q144 737 159 753T193 785T232 817Q241 824 251 827T272 829T294 819L395 748Q395 748 397 746T401 739T403 729T398 717Q394 712 388 711T377 711T368 713T364 715L270
785Q250 777 226 754T165 692Q165 692 161 690T151 688T137 692Z" />
<glyph unicode="&#xc3;" horiz-adv-x="517" d="M81 -1Q68 1 62 6T52 17T49 28T48 32Q52 125 70 221T117 417Q133 466 149 507T182 578T218 626T261 643Q278 646 293 635T324 602T353 547T378 473Q388 445 401 396T427 284T451 155T469 22Q469 22 469 19T466 11T458
3T441 -1Q430 -1 423 2T412 10T407 19T405 23Q389 128 372 223T333 395Q319 450 303 494T267 574Q248 550 232 521T204 459T183 393Q169 341 157 293T137 200T123 110T115 21Q115 21 114 17T110 8T100 1T81 -1ZM100 94L108 138Q155 149 202 155T300 161T403 158L411
103Q376 109 335 111T252 113T170 107T100 94ZM134 697Q128 693 121 695T109 702T104 706Q90 721 90 736T98 765T124 788T162 800Q199 804 230 793T293 768T358 751Q373 751 384 757T403 776Q403 776 405 780T414 790T431 793Q441 791 445 786T450 776T452 766T452
762Q446 743 428 728T372 708Q351 706 321 714T260 734T203 754Q185 758 167 755T140 743T136 721Q136 721 138 717T140 707T134 697Z" />
<glyph unicode="&#xc4;" horiz-adv-x="517" d="M81 -1Q68 1 62 6T52 17T49 28T48 32Q52 125 70 221T117 417Q133 466 149 507T182 578T218 626T261 643Q278 646 293 635T324 602T353 547T378 473Q388 445 401 396T427 284T451 155T469 22Q469 22 469 19T466 11T458
3T441 -1Q430 -1 423 2T412 10T407 19T405 23Q389 128 372 223T333 395Q319 450 303 494T267 574Q248 550 232 521T204 459T183 393Q169 341 157 293T137 200T123 110T115 21Q115 21 114 17T110 8T100 1T81 -1ZM100 94L108 138Q155 149 202 155T300 161T403 158L411
103Q376 109 335 111T252 113T170 107T100 94ZM360 708Q349 708 340 713T325 726T319 744Q319 754 324 762T339 775T360 780Q372 780 381 775T395 762T401 744Q401 728 389 718T360 708ZM148 708Q137 708 128 713T113 726T108 744Q108 754 113 762T127 775T148
780Q160 780 169 775T184 762T190 744Q190 733 185 725T170 713T148 708Z" />
<glyph unicode="&#xc5;" horiz-adv-x="517" d="M81 -1Q68 1 62 6T52 17T49 28T48 32Q52 125 70 221T117 417Q133 466 149 507T182 578T218 626T261 643Q278 646 293 635T324 602T353 547T378 473Q388 445 401 396T427 284T451 155T469 22Q469 22 469 19T466 11T458
3T441 -1Q430 -1 423 2T412 10T407 19T405 23Q389 128 372 223T333 395Q319 450 303 494T267 574Q248 550 232 521T204 459T183 393Q169 341 157 293T137 200T123 110T115 21Q115 21 114 17T110 8T100 1T81 -1ZM100 94L108 138Q155 149 202 155T300 161T403 158L411
103Q376 109 335 111T252 113T170 107T100 94ZM262 687Q236 687 216 699T185 732T173 775Q173 798 185 816T218 844T262 855Q286 855 307 846T342 820T356 777Q356 755 345 734T313 700T262 687ZM262 720Q290 720 305 737T320 775Q320 798 302 810T263 823Q241
823 225 809T208 774Q208 753 223 737T262 720Z" />
<glyph unicode="&#xc6;" horiz-adv-x="906" d="M81 -1Q68 1 62 6T52 17T49 28T48 32Q52 125 70 221T117 417Q133 466 149 507T182 578T218 626T261 643Q278 646 293 635T324 602T353 547T378 473Q388 445 401 396T427 284T451 155T469 22Q469 22 469 19T466 11T458
3T441 -1Q430 -1 423 2T412 10T407 19T405 23Q389 128 372 223T333 395Q319 450 303 494T267 574Q248 550 232 521T204 459T183 393Q169 341 157 293T137 200T123 110T115 21Q115 21 114 17T110 8T100 1T81 -1ZM100 94L108 138Q155 149 202 155T300 161T403 158L411
103Q376 109 335 111T252 113T170 107T100 94ZM469 -1Q453 0 442 2T423 10T411 21T405 34Q402 107 400 178T397 322T398 469T408 625Q411 639 424 647T462 653L813 648Q813 648 816 648T826 646T838 641T848 632T852 617Q852 607 847 602T836 594T825 592T820 592L470
605Q465 552 463 499T460 392T460 283T462 171T468 53Q509 57 548 61T622 70T692 79T757 90T817 102Q817 102 820 102T829 102T840 100T851 93T857 80Q860 71 858 64T852 54T845 49T841 48Q794 38 747 30T654 16T562 6T469 -1ZM427 305L425 363L704 374Q704 374
709 374T721 372T735 367T747 358T752 342Q752 333 746 328T732 319T718 316T712 316L427 305Z" />
<glyph unicode="&#xc7;" horiz-adv-x="633" d="M285 10Q223 21 179 49T107 116T65 200T49 287T53 366Q61 410 84 459T145 552T235 623T353 651Q419 650 467 626T544 565T582 485T578 405Q578 405 576 402T568 395T552 394Q542 396 537 400T529 410T527 415Q527
415 527 429T523 466T505 513T466 559T398 590Q354 600 311 585T231 536T165 460T124 368T115 277Q120 230 137 194T178 133T231 92T286 69T336 62Q373 63 406 78T465 115T501 162Q501 162 504 165T512 172T526 176T544 172Q552 167 556 163T562 153T564 144T563
138T562 135Q562 135 553 120T525 82T473 39T394 9T285 10ZM319 -228Q285 -226 260 -212T214 -179Q214 -179 213 -178T211 -173T210 -167T215 -159Q220 -155 225 -155T234 -157T238 -159Q258 -177 280 -187T331 -196Q359 -194 372 -184T390 -158T391 -122Q387 -100
371 -88T327 -69Q319 -69 312 -67T302 -61T298 -51Q296 -31 295 -11T295 26Q295 26 295 31T299 40T309 45Q319 45 322 36T325 27Q328 13 330 -4T334 -40Q355 -44 372 -51T401 -70T420 -96T429 -127Q433 -166 420 -188T381 -219T319 -228Z" />
<glyph unicode="&#xc8;" horiz-adv-x="559" d="M121 2Q106 3 94 5T75 13T64 24T57 37Q54 110 52 181T49 325T51 472T61 628Q64 642 77 649T115 656L466 651Q466 651 469 651T479 649T491 644T501 635T505 620Q505 610 500 605T489 597T478 595T473 595L122 608Q118
555 115 502T112 395T112 286T115 174T120 56Q162 60 201 64T275 73T344 82T409 92T470 104Q470 104 473 104T482 105T493 103T504 96T510 83Q513 74 511 67T505 57T498 52T494 51Q446 41 400 33T307 19T215 9T121 2ZM79 308L78 366L357 377Q357 377 361 377T373
375T388 370T399 361T404 345Q404 336 398 331T385 322T371 319T365 319L79 308ZM373 691Q349 701 325 712T278 734T233 758T190 784Q190 784 187 786T182 791T179 800T181 811Q185 817 190 819T200 821T208 820T211 818Q253 797 297 777T391 733Q391 733 394 731T400
724T405 714T403 700Q401 694 396 692T386 690T377 690T373 691Z" />
<glyph unicode="&#xc9;" horiz-adv-x="559" d="M121 2Q106 3 94 5T75 13T64 24T57 37Q54 110 52 181T49 325T51 472T61 628Q64 642 77 649T115 656L466 651Q466 651 469 651T479 649T491 644T501 635T505 620Q505 610 500 605T489 597T478 595T473 595L122 608Q118
555 115 502T112 395T112 286T115 174T120 56Q162 60 201 64T275 73T344 82T409 92T470 104Q470 104 473 104T482 105T493 103T504 96T510 83Q513 74 511 67T505 57T498 52T494 51Q446 41 400 33T307 19T215 9T121 2ZM79 308L78 366L357 377Q357 377 361 377T373
375T388 370T399 361T404 345Q404 336 398 331T385 322T371 319T365 319L79 308ZM203 687Q203 687 200 686T191 685T181 687T172 696Q169 703 170 709T175 720T182 726T186 729Q235 751 279 772T366 814Q366 814 369 815T376 816T386 814T395 806Q398 800 398 795T395
787T390 781T387 779Q367 766 345 754T299 730T251 707T203 687Z" />
<glyph unicode="&#xca;" horiz-adv-x="559" d="M121 2Q106 3 94 5T75 13T64 24T57 37Q54 110 52 181T49 325T51 472T61 628Q64 642 77 649T115 656L466 651Q466 651 469 651T479 649T491 644T501 635T505 620Q505 610 500 605T489 597T478 595T473 595L122 608Q118
555 115 502T112 395T112 286T115 174T120 56Q162 60 201 64T275 73T344 82T409 92T470 104Q470 104 473 104T482 105T493 103T504 96T510 83Q513 74 511 67T505 57T498 52T494 51Q446 41 400 33T307 19T215 9T121 2ZM79 308L78 366L357 377Q357 377 361 377T373
375T388 370T399 361T404 345Q404 336 398 331T385 322T371 319T365 319L79 308ZM165 692Q159 696 157 700T155 709T157 716T159 719Q172 737 187 753T221 785T260 817Q269 824 279 827T300 829T322 819L423 748Q423 748 425 746T429 739T431 729T426 717Q422 712
416 711T405 711T396 713T392 715L298 785Q278 777 254 754T193 692Q193 692 189 690T179 688T165 692Z" />
<glyph unicode="&#xcb;" horiz-adv-x="559" d="M121 2Q106 3 94 5T75 13T64 24T57 37Q54 110 52 181T49 325T51 472T61 628Q64 642 77 649T115 656L466 651Q466 651 469 651T479 649T491 644T501 635T505 620Q505 610 500 605T489 597T478 595T473 595L122 608Q118
555 115 502T112 395T112 286T115 174T120 56Q162 60 201 64T275 73T344 82T409 92T470 104Q470 104 473 104T482 105T493 103T504 96T510 83Q513 74 511 67T505 57T498 52T494 51Q446 41 400 33T307 19T215 9T121 2ZM79 308L78 366L357 377Q357 377 361 377T373
375T388 370T399 361T404 345Q404 336 398 331T385 322T371 319T365 319L79 308ZM387 708Q376 708 367 713T352 726T346 744Q346 754 351 762T366 775T387 780Q399 780 408 775T422 762T428 744Q428 728 416 718T387 708ZM175 708Q164 708 155 713T140 726T135
744Q135 754 140 762T154 775T175 780Q187 780 196 775T211 762T217 744Q217 733 212 725T197 713T175 708Z" />
<glyph unicode="&#xcc;" horiz-adv-x="170" d="M91 -2Q81 -2 75 2T65 11T60 20T58 24Q54 67 52 125T49 250T49 384T53 512T60 622Q60 622 60 625T64 634T73 643T90 647Q100 646 106 643T115 634T120 624T122 616T122 612Q118 571 116 515T114 393T113 262T115
134T120 23Q120 23 120 20T116 11T108 2T91 -2ZM175 691Q151 701 127 712T80 734T35 758T-8 784Q-8 784 -11 786T-16 791T-19 800T-17 811Q-13 817 -8 819T2 821T10 820T13 818Q55 797 99 777T193 733Q193 733 196 731T202 724T207 714T205 700Q203 694 198 692T188
690T179 690T175 691Z" />
<glyph unicode="&#xcd;" horiz-adv-x="170" d="M91 -2Q81 -2 75 2T65 11T60 20T58 24Q54 67 52 125T49 250T49 384T53 512T60 622Q60 622 60 625T64 634T73 643T90 647Q100 646 106 643T115 634T120 624T122 616T122 612Q118 571 116 515T114 393T113 262T115
134T120 23Q120 23 120 20T116 11T108 2T91 -2ZM6 687Q6 687 3 686T-6 685T-16 687T-25 696Q-28 703 -27 709T-22 720T-15 726T-11 729Q38 751 82 772T169 814Q169 814 172 815T179 816T189 814T198 806Q201 800 201 795T198 787T193 781T190 779Q170 766 148 754T102
730T54 707T6 687Z" />
<glyph unicode="&#xce;" horiz-adv-x="170" d="M91 -2Q81 -2 75 2T65 11T60 20T58 24Q54 67 52 125T49 250T49 384T53 512T60 622Q60 622 60 625T64 634T73 643T90 647Q100 646 106 643T115 634T120 624T122 616T122 612Q118 571 116 515T114 393T113 262T115
134T120 23Q120 23 120 20T116 11T108 2T91 -2ZM-33 692Q-39 696 -41 700T-43 709T-41 716T-39 719Q-26 737 -11 753T23 785T62 817Q71 824 81 827T102 829T124 819L225 748Q225 748 227 746T231 739T233 729T228 717Q224 712 218 711T207 711T198 713T194 715L100
785Q80 777 56 754T-5 692Q-5 692 -9 690T-19 688T-33 692Z" />
<glyph unicode="&#xcf;" horiz-adv-x="170" d="M91 -2Q81 -2 75 2T65 11T60 20T58 24Q54 67 52 125T49 250T49 384T53 512T60 622Q60 622 60 625T64 634T73 643T90 647Q100 646 106 643T115 634T120 624T122 616T122 612Q118 571 116 515T114 393T113 262T115
134T120 23Q120 23 120 20T116 11T108 2T91 -2ZM190 708Q179 708 170 713T155 726T149 744Q149 754 154 762T169 775T190 780Q202 780 211 775T225 762T231 744Q231 728 219 718T190 708ZM-22 708Q-33 708 -42 713T-57 726T-62 744Q-62 754 -57 762T-43 775T-22
780Q-10 780 -1 775T14 762T20 744Q20 733 15 725T0 713T-22 708Z" />
<glyph unicode="&#xd0;" horiz-adv-x="624" d="M137 -2Q101 -2 80 7T50 32Q49 178 49 323T50 612Q49 635 91 643T204 651Q280 651 332 639T421 604T482 554T530 497Q586 385 574 288T495 105Q454 59 398 36T275 5T137 -2ZM120 59Q225 53 298 68T415 119T482 207T508
327Q502 414 472 470T392 556T273 594T121 593Q114 465 114 332T120 59ZM-39 294Q-41 294 -47 294T-61 298T-72 311Q-74 319 -72 324T-66 332T-59 336T-55 338Q-18 344 11 348T68 353T123 355T184 353T260 347Q260 347 265 346T276 341T286 332T290 317Q289 309
285 304T275 298T265 296T261 296Q220 298 189 300T133 302T82 302T28 299T-39 294Z" />
<glyph unicode="&#xd1;" horiz-adv-x="562" d="M91 -2Q81 -2 75 2T65 11T60 19T58 23Q52 77 50 144T48 283T50 424T58 553Q58 553 59 559T66 571T86 578Q93 579 98 577T108 571T114 566Q167 495 222 422T333 275T444 125Q441 180 440 245T440 378T445 509T452
623Q452 623 452 626T456 634T465 643T483 646Q493 646 499 643T508 634T513 624T514 616T514 612Q510 571 508 515T506 394T505 263T507 135T512 24Q512 24 512 20T509 11T501 3T486 -2Q477 -2 469 3T457 13T452 19Q452 19 438 37T399 86T344 156T280 239T216
324T159 402T116 463Q114 399 114 323T115 170T120 23Q120 23 120 19T116 11T107 2T91 -2ZM163 697Q157 693 150 695T138 702T133 706Q119 721 119 736T127 765T153 788T191 800Q228 804 259 793T322 768T387 751Q402 751 413 757T432 776Q432 776 434 780T443
790T460 793Q470 791 474 786T479 776T481 766T481 762Q475 743 457 728T401 708Q380 706 350 714T289 734T232 754Q214 758 196 755T169 743T165 721Q165 721 167 717T169 707T163 697Z" />
<glyph unicode="&#xd2;" horiz-adv-x="761" d="M322 -7Q259 -7 208 16T119 80T64 178T49 303Q52 371 77 434T144 547T242 626T361 656Q411 656 462 645T560 609T643 544T698 445T713 310Q710 246 685 196T620 107T529 44T425 6T322 -7ZM336 56Q376 56 418 66T498
98T567 151T617 227T639 326Q644 400 623 451T562 532T475 577T375 591Q325 591 281 568T201 506T146 414T122 304Q118 226 144 171T219 86T336 56ZM446 691Q422 701 398 712T351 734T306 758T263 784Q263 784 260 786T255 791T252 800T254 811Q258 817 263 819T273
821T281 820T284 818Q326 797 370 777T464 733Q464 733 467 731T473 724T478 714T476 700Q474 694 469 692T459 690T450 690T446 691Z" />
<glyph unicode="&#xd3;" horiz-adv-x="761" d="M322 -7Q259 -7 208 16T119 80T64 178T49 303Q52 371 77 434T144 547T242 626T361 656Q411 656 462 645T560 609T643 544T698 445T713 310Q710 246 685 196T620 107T529 44T425 6T322 -7ZM336 56Q376 56 418 66T498
98T567 151T617 227T639 326Q644 400 623 451T562 532T475 577T375 591Q325 591 281 568T201 506T146 414T122 304Q118 226 144 171T219 86T336 56ZM276 687Q276 687 273 686T264 685T254 687T245 696Q242 703 243 709T248 720T255 726T259 729Q308 751 352 772T439
814Q439 814 442 815T449 816T459 814T468 806Q471 800 471 795T468 787T463 781T460 779Q440 766 418 754T372 730T324 707T276 687Z" />
<glyph unicode="&#xd4;" horiz-adv-x="761" d="M322 -7Q259 -7 208 16T119 80T64 178T49 303Q52 371 77 434T144 547T242 626T361 656Q411 656 462 645T560 609T643 544T698 445T713 310Q710 246 685 196T620 107T529 44T425 6T322 -7ZM336 56Q376 56 418 66T498
98T567 151T617 227T639 326Q644 400 623 451T562 532T475 577T375 591Q325 591 281 568T201 506T146 414T122 304Q118 226 144 171T219 86T336 56ZM238 692Q232 696 230 700T228 709T230 716T232 719Q245 737 260 753T294 785T333 817Q342 824 352 827T373 829T395
819L496 748Q496 748 498 746T502 739T504 729T499 717Q495 712 489 711T478 711T469 713T465 715L371 785Q351 777 327 754T266 692Q266 692 262 690T252 688T238 692Z" />
<glyph unicode="&#xd5;" horiz-adv-x="761" d="M322 -7Q259 -7 208 16T119 80T64 178T49 303Q52 371 77 434T144 547T242 626T361 656Q411 656 462 645T560 609T643 544T698 445T713 310Q710 246 685 196T620 107T529 44T425 6T322 -7ZM336 56Q376 56 418 66T498
98T567 151T617 227T639 326Q644 400 623 451T562 532T475 577T375 591Q325 591 281 568T201 506T146 414T122 304Q118 226 144 171T219 86T336 56ZM235 697Q229 693 222 695T210 702T205 706Q191 721 191 736T199 765T225 788T263 800Q300 804 331 793T394 768T459
751Q474 751 485 757T504 776Q504 776 506 780T515 790T532 793Q542 791 546 786T551 776T553 766T553 762Q547 743 529 728T473 708Q452 706 422 714T361 734T304 754Q286 758 268 755T241 743T237 721Q237 721 239 717T241 707T235 697Z" />
<glyph unicode="&#xd6;" horiz-adv-x="761" d="M322 -7Q259 -7 208 16T119 80T64 178T49 303Q52 371 77 434T144 547T242 626T361 656Q411 656 462 645T560 609T643 544T698 445T713 310Q710 246 685 196T620 107T529 44T425 6T322 -7ZM336 56Q376 56 418 66T498
98T567 151T617 227T639 326Q644 400 623 451T562 532T475 577T375 591Q325 591 281 568T201 506T146 414T122 304Q118 226 144 171T219 86T336 56ZM460 708Q449 708 440 713T425 726T419 744Q419 754 424 762T439 775T460 780Q472 780 481 775T495 762T501 744Q501
728 489 718T460 708ZM248 708Q237 708 228 713T213 726T208 744Q208 754 213 762T227 775T248 780Q260 780 269 775T284 762T290 744Q290 733 285 725T270 713T248 708Z" />
<glyph unicode="&#xd7;" horiz-adv-x="496" d="M432 80Q425 76 418 76T406 79T398 85T395 88Q346 150 300 208T211 323T128 434T50 542Q50 542 50 545T48 552T50 561T59 569Q65 572 71 571T83 567T92 561T96 558Q143 493 196 422T309 274T434 113Q434 113 436
110T441 102T441 90T432 80ZM70 71Q62 75 60 80T58 90T59 98T61 102Q108 158 152 215T239 330T321 449T402 572Q402 572 405 575T415 579T431 577Q438 574 441 569T446 560T447 553T447 550Q405 482 364 419T280 296T194 180T106 72Q106 72 101 69T89 66T70 71Z"
/>
<glyph unicode="&#xd8;" horiz-adv-x="761" d="M322 -7Q259 -7 208 16T119 80T64 178T49 303Q52 371 77 434T144 547T242 626T361 656Q411 656 462 645T560 609T643 544T698 445T713 310Q710 246 685 196T620 107T529 44T425 6T322 -7ZM336 56Q376 56 418 66T498
98T567 151T617 227T639 326Q644 400 623 451T562 532T475 577T375 591Q325 591 281 568T201 506T146 414T122 304Q118 226 144 171T219 86T336 56ZM239 -29Q228 -26 223 -21T217 -9T216 1T216 6Q236 66 265 141T329 301T405 478T489 664Q489 664 491 667T498 673T510
678T528 675Q538 670 541 664T545 650T544 639T542 635Q488 508 438 389T347 166T277 -17Q277 -17 273 -21T260 -29T239 -29Z" />
<glyph unicode="&#xd9;" horiz-adv-x="600" d="M312 -3Q226 3 169 47T82 174T48 375V625Q48 625 49 628T52 636T60 644T77 648Q89 648 96 644T108 634T113 624T115 620L118 386Q117 290 135 219T197 107T311 58Q365 66 404 99T464 202T483 385L480 614Q480 614
480 617T482 625T490 633T507 637Q516 638 523 635T535 627T542 617T546 609T547 606L552 390Q554 311 544 241T508 117T434 32T312 -3ZM385 691Q361 701 337 712T290 734T245 758T202 784Q202 784 199 786T194 791T191 800T193 811Q197 817 202 819T212 821T220
820T223 818Q265 797 309 777T403 733Q403 733 406 731T412 724T417 714T415 700Q413 694 408 692T398 690T389 690T385 691Z" />
<glyph unicode="&#xda;" horiz-adv-x="600" d="M312 -3Q226 3 169 47T82 174T48 375V625Q48 625 49 628T52 636T60 644T77 648Q89 648 96 644T108 634T113 624T115 620L118 386Q117 290 135 219T197 107T311 58Q365 66 404 99T464 202T483 385L480 614Q480 614
480 617T482 625T490 633T507 637Q516 638 523 635T535 627T542 617T546 609T547 606L552 390Q554 311 544 241T508 117T434 32T312 -3ZM215 687Q215 687 212 686T203 685T193 687T184 696Q181 703 182 709T187 720T194 726T198 729Q247 751 291 772T378 814Q378
814 381 815T388 816T398 814T407 806Q410 800 410 795T407 787T402 781T399 779Q379 766 357 754T311 730T263 707T215 687Z" />
<glyph unicode="&#xdb;" horiz-adv-x="600" d="M312 -3Q226 3 169 47T82 174T48 375V625Q48 625 49 628T52 636T60 644T77 648Q89 648 96 644T108 634T113 624T115 620L118 386Q117 290 135 219T197 107T311 58Q365 66 404 99T464 202T483 385L480 614Q480 614
480 617T482 625T490 633T507 637Q516 638 523 635T535 627T542 617T546 609T547 606L552 390Q554 311 544 241T508 117T434 32T312 -3ZM177 692Q171 696 169 700T167 709T169 716T171 719Q184 737 199 753T233 785T272 817Q281 824 291 827T312 829T334 819L435
748Q435 748 437 746T441 739T443 729T438 717Q434 712 428 711T417 711T408 713T404 715L310 785Q290 777 266 754T205 692Q205 692 201 690T191 688T177 692Z" />
<glyph unicode="&#xdc;" horiz-adv-x="600" d="M312 -3Q226 3 169 47T82 174T48 375V625Q48 625 49 628T52 636T60 644T77 648Q89 648 96 644T108 634T113 624T115 620L118 386Q117 290 135 219T197 107T311 58Q365 66 404 99T464 202T483 385L480 614Q480 614
480 617T482 625T490 633T507 637Q516 638 523 635T535 627T542 617T546 609T547 606L552 390Q554 311 544 241T508 117T434 32T312 -3ZM399 708Q388 708 379 713T364 726T358 744Q358 754 363 762T378 775T399 780Q411 780 420 775T434 762T440 744Q440 728 428
718T399 708ZM187 708Q176 708 167 713T152 726T147 744Q147 754 152 762T166 775T187 780Q199 780 208 775T223 762T229 744Q229 733 224 725T209 713T187 708Z" />
<glyph unicode="&#xdd;" horiz-adv-x="530" d="M256 259Q168 271 118 317T54 439T59 616Q59 616 60 621T65 633T75 644T94 646Q106 644 111 638T119 624T121 610T121 604Q102 473 132 400T252 318Q300 325 334 353T388 424T413 512T408 602Q408 602 408 606T408
617T414 627T431 634Q442 635 450 632T463 623T470 614T472 609Q485 552 480 495T448 387T375 303T256 259ZM260 8Q249 8 242 12T232 22T227 32T225 37Q215 96 216 158T227 285L290 288Q279 211 280 148T288 36Q288 36 288 32T285 22T277 13T260 8ZM197 687Q197
687 194 686T185 685T175 687T166 696Q163 703 164 709T169 720T176 726T180 729Q229 751 273 772T360 814Q360 814 363 815T370 816T380 814T389 806Q392 800 392 795T389 787T384 781T381 779Q361 766 339 754T293 730T245 707T197 687Z" />
<glyph unicode="&#xde;" horiz-adv-x="545" d="M271 89Q228 89 192 105T129 151T89 218T79 301Q83 344 102 383T153 451T223 496T306 513Q349 513 385 496T448 450T487 381T497 298Q494 255 475 217T424 150T354 105T271 89ZM92 -2Q81 -2 75 2T65 11T60 20T58
24Q54 67 52 125T49 250T49 384T53 512T60 622Q60 622 60 626T63 634T72 643T90 647Q100 647 106 643T115 634T120 624T122 616T122 612Q118 571 116 515T114 393T113 262T115 134T120 23Q120 23 120 19T116 11T108 2T92 -2ZM276 147Q317 147 352 168T409 225T435
305Q439 348 422 383T373 440T300 461Q259 461 225 440T168 384T141 305Q138 261 155 225T204 168T276 147Z" />
<glyph unicode="&#xdf;" horiz-adv-x="564" d="M92 -2Q82 -2 75 2T65 11T60 20T58 24Q54 67 52 125T49 249T49 383T53 512T60 622Q60 622 60 625T63 633T72 642T89 646Q176 655 250 653T380 633T469 581T509 488Q509 451 494 424T454 377T395 347Q430 332 457
309T500 257T516 195Q514 141 489 103T423 43T328 13Q328 13 322 13T306 13T288 19T279 34Q278 44 283 50T295 59T308 64T314 66Q359 79 389 98T434 145T447 206Q440 240 419 261T364 295T289 313T203 318T112 318L120 24Q120 24 120 20T116 11T108 2T92 -2ZM113
379Q179 376 239 378T344 392T416 428T442 491Q440 531 415 555T346 591T244 604T120 598L113 379Z" />
<glyph unicode="&#xe0;" horiz-adv-x="603" d="M268 3Q218 3 178 21T108 73T64 149T48 243Q48 294 66 340T118 423T194 479T288 500Q356 500 407 474T488 392T517 250Q517 200 498 156T444 77T365 24T268 3ZM270 62Q307 62 340 78T400 121T441 183T457 258Q457
324 435 366T376 429T289 450Q253 450 221 432T164 384T126 315T112 238Q112 187 131 147T186 85T270 62ZM528 1Q516 1 509 6T499 15T495 20Q488 93 485 167T484 319T494 478Q494 478 496 483T505 493T526 497Q537 497 543 492T551 480T554 469T555 464Q551 413
549 361T546 256T549 145T554 26Q554 26 554 23T551 14T543 5T528 1ZM376 549Q352 559 328 570T281 592T236 616T193 642Q193 642 190 644T185 649T182 658T184 669Q188 675 193 677T203 679T211 678T214 676Q256 655 300 635T394 591Q394 591 397 589T403 582T408
572T406 558Q404 552 399 550T389 548T380 548T376 549Z" />
<glyph unicode="&#xe1;" horiz-adv-x="603" d="M268 3Q218 3 178 21T108 73T64 149T48 243Q48 294 66 340T118 423T194 479T288 500Q356 500 407 474T488 392T517 250Q517 200 498 156T444 77T365 24T268 3ZM270 62Q307 62 340 78T400 121T441 183T457 258Q457
324 435 366T376 429T289 450Q253 450 221 432T164 384T126 315T112 238Q112 187 131 147T186 85T270 62ZM528 1Q516 1 509 6T499 15T495 20Q488 93 485 167T484 319T494 478Q494 478 496 483T505 493T526 497Q537 497 543 492T551 480T554 469T555 464Q551 413
549 361T546 256T549 145T554 26Q554 26 554 23T551 14T543 5T528 1ZM206 545Q206 545 203 544T194 543T184 545T175 554Q172 561 173 567T178 578T185 584T189 587Q238 609 282 630T369 672Q369 672 372 673T379 674T389 672T398 664Q401 658 401 653T398 645T393
639T390 637Q370 624 348 612T302 588T254 565T206 545Z" />
<glyph unicode="&#xe2;" horiz-adv-x="603" d="M268 3Q218 3 178 21T108 73T64 149T48 243Q48 294 66 340T118 423T194 479T288 500Q356 500 407 474T488 392T517 250Q517 200 498 156T444 77T365 24T268 3ZM270 62Q307 62 340 78T400 121T441 183T457 258Q457
324 435 366T376 429T289 450Q253 450 221 432T164 384T126 315T112 238Q112 187 131 147T186 85T270 62ZM528 1Q516 1 509 6T499 15T495 20Q488 93 485 167T484 319T494 478Q494 478 496 483T505 493T526 497Q537 497 543 492T551 480T554 469T555 464Q551 413
549 361T546 256T549 145T554 26Q554 26 554 23T551 14T543 5T528 1ZM168 550Q162 554 160 558T158 567T160 574T162 577Q175 595 190 611T224 643T263 675Q272 682 282 685T303 687T325 677L426 606Q426 606 428 604T432 597T434 587T429 575Q425 570 419 569T408
569T399 571T395 573L301 643Q281 635 257 612T196 550Q196 550 192 548T182 546T168 550Z" />
<glyph unicode="&#xe3;" horiz-adv-x="603" d="M268 3Q218 3 178 21T108 73T64 149T48 243Q48 294 66 340T118 423T194 479T288 500Q356 500 407 474T488 392T517 250Q517 200 498 156T444 77T365 24T268 3ZM270 62Q307 62 340 78T400 121T441 183T457 258Q457
324 435 366T376 429T289 450Q253 450 221 432T164 384T126 315T112 238Q112 187 131 147T186 85T270 62ZM528 1Q516 1 509 6T499 15T495 20Q488 93 485 167T484 319T494 478Q494 478 496 483T505 493T526 497Q537 497 543 492T551 480T554 469T555 464Q551 413
549 361T546 256T549 145T554 26Q554 26 554 23T551 14T543 5T528 1ZM165 555Q159 551 152 553T140 560T135 564Q121 579 121 594T129 623T155 646T193 658Q230 662 261 651T324 626T389 609Q404 609 415 615T434 634Q434 634 436 638T445 648T462 651Q472 649
476 644T481 634T483 624T483 620Q477 601 459 586T403 566Q382 564 352 572T291 592T234 612Q216 616 198 613T171 601T167 579Q167 579 169 575T171 565T165 555Z" />
<glyph unicode="&#xe4;" horiz-adv-x="603" d="M268 3Q218 3 178 21T108 73T64 149T48 243Q48 294 66 340T118 423T194 479T288 500Q356 500 407 474T488 392T517 250Q517 200 498 156T444 77T365 24T268 3ZM270 62Q307 62 340 78T400 121T441 183T457 258Q457
324 435 366T376 429T289 450Q253 450 221 432T164 384T126 315T112 238Q112 187 131 147T186 85T270 62ZM528 1Q516 1 509 6T499 15T495 20Q488 93 485 167T484 319T494 478Q494 478 496 483T505 493T526 497Q537 497 543 492T551 480T554 469T555 464Q551 413
549 361T546 256T549 145T554 26Q554 26 554 23T551 14T543 5T528 1ZM390 566Q379 566 370 571T355 584T349 602Q349 612 354 620T369 633T390 638Q402 638 411 633T425 620T431 602Q431 586 419 576T390 566ZM178 566Q167 566 158 571T143 584T138 602Q138 612
143 620T157 633T178 638Q190 638 199 633T214 620T220 602Q220 591 215 583T200 571T178 566Z" />
<glyph unicode="&#xe5;" horiz-adv-x="603" d="M268 3Q218 3 178 21T108 73T64 149T48 243Q48 294 66 340T118 423T194 479T288 500Q356 500 407 474T488 392T517 250Q517 200 498 156T444 77T365 24T268 3ZM270 62Q307 62 340 78T400 121T441 183T457 258Q457
324 435 366T376 429T289 450Q253 450 221 432T164 384T126 315T112 238Q112 187 131 147T186 85T270 62ZM528 1Q516 1 509 6T499 15T495 20Q488 93 485 167T484 319T494 478Q494 478 496 483T505 493T526 497Q537 497 543 492T551 480T554 469T555 464Q551 413
549 361T546 256T549 145T554 26Q554 26 554 23T551 14T543 5T528 1ZM293 545Q267 545 247 557T216 590T204 633Q204 656 216 674T249 702T293 713Q317 713 338 704T373 678T387 635Q387 613 376 592T344 558T293 545ZM293 578Q321 578 336 595T351 633Q351 656
333 668T294 681Q272 681 256 667T239 632Q239 611 254 595T293 578Z" />
<glyph unicode="&#xe6;" horiz-adv-x="997" d="M705 -10Q639 1 599 27T537 89T509 166T502 248Q501 289 518 334T568 417T648 478T753 496Q812 492 848 474T903 428T928 372T935 317Q934 266 908 236T832 195Q816 192 790 191T734 189T675 189T620 191T580 192T565
193Q567 156 584 123T635 69T717 44Q753 41 788 43T853 50T898 59T915 63Q915 63 919 63T928 64T939 61T947 48Q951 40 950 35T945 27T940 22T937 20Q937 20 916 14T859 -1T784 -12T705 -10ZM268 3Q218 3 178 21T108 73T64 149T48 243Q48 294 66 340T118 423T194
479T288 500Q356 500 407 474T488 392T517 250Q517 200 498 156T444 77T365 24T268 3ZM270 62Q307 62 340 78T400 121T441 183T457 258Q457 324 435 366T376 429T289 450Q253 450 221 432T164 384T126 315T112 238Q112 187 131 147T186 85T270 62ZM528 1Q516 1
509 6T499 15T495 20Q488 93 485 167T484 319T494 478Q494 478 496 483T505 493T526 497Q537 497 543 492T551 480T554 469T555 464Q551 413 549 361T546 256T549 145T554 26Q554 26 554 23T551 14T543 5T528 1ZM562 233L795 236Q795 236 803 237T824 243T849 256T870
282T879 324Q879 366 865 394T817 435T724 444Q681 442 649 419T597 361T568 293T562 233Z" />
<glyph unicode="&#xe7;" horiz-adv-x="557" d="M307 -245Q273 -243 248 -229T202 -196Q202 -196 201 -195T198 -190T198 -184T203 -176Q208 -172 213 -172T222 -174T226 -176Q245 -194 268 -204T319 -213Q347 -211 360 -201T377 -175T378 -139Q374 -117 358 -105T315
-86Q306 -86 300 -84T289 -77T286 -68Q283 -48 282 -28T282 9Q282 9 283 14T287 23T297 28Q306 28 309 19T312 10Q315 -4 317 -21T321 -57Q342 -61 359 -68T389 -87T407 -113T416 -144Q420 -183 407 -205T368 -236T307 -245ZM284 -9Q202 -4 152 26T78 108T49 225Q45
277 60 325T108 412T188 473T295 495Q343 495 377 483T433 453T468 418T486 388T491 376Q491 376 491 372T489 362T478 352Q469 347 459 347T442 351T433 356Q433 356 427 366T408 391T371 416T313 427Q276 428 241 418T177 386T132 326T120 233Q123 170 144 134T201
81T287 59Q325 56 356 63T411 83T447 104T461 114Q465 116 472 116T487 115T502 104Q508 98 508 91T508 80T507 75Q507 75 495 62T457 31T389 1T284 -9Z" />
<glyph unicode="&#xe8;" horiz-adv-x="544" d="M252 -10Q186 1 146 27T84 89T56 166T49 248Q48 289 65 334T115 417T195 478T300 496Q359 492 395 474T450 428T475 372T482 317Q481 266 455 236T379 195Q363 192 337 191T281 189T222 189T167 191T127 192T112
193Q114 156 131 123T182 69T264 44Q300 41 335 43T400 50T445 59T462 63Q462 63 466 63T475 64T486 61T494 48Q498 40 497 35T492 27T487 22T484 20Q484 20 463 14T406 -1T331 -12T252 -10ZM109 233L342 236Q342 236 350 237T371 243T396 256T417 282T426 324Q426
366 412 394T364 435T271 444Q228 442 196 419T144 361T115 293T109 233ZM380 549Q356 559 332 570T285 592T240 616T197 642Q197 642 194 644T189 649T186 658T188 669Q192 675 197 677T207 679T215 678T218 676Q260 655 304 635T398 591Q398 591 401 589T407
582T412 572T410 558Q408 552 403 550T393 548T384 548T380 549Z" />
<glyph unicode="&#xe9;" horiz-adv-x="544" d="M252 -10Q186 1 146 27T84 89T56 166T49 248Q48 289 65 334T115 417T195 478T300 496Q359 492 395 474T450 428T475 372T482 317Q481 266 455 236T379 195Q363 192 337 191T281 189T222 189T167 191T127 192T112
193Q114 156 131 123T182 69T264 44Q300 41 335 43T400 50T445 59T462 63Q462 63 466 63T475 64T486 61T494 48Q498 40 497 35T492 27T487 22T484 20Q484 20 463 14T406 -1T331 -12T252 -10ZM109 233L342 236Q342 236 350 237T371 243T396 256T417 282T426 324Q426
366 412 394T364 435T271 444Q228 442 196 419T144 361T115 293T109 233ZM210 545Q210 545 207 544T198 543T188 545T179 554Q176 561 177 567T182 578T189 584T193 587Q242 609 286 630T373 672Q373 672 376 673T383 674T393 672T402 664Q405 658 405 653T402
645T397 639T394 637Q374 624 352 612T306 588T258 565T210 545Z" />
<glyph unicode="&#xea;" horiz-adv-x="544" d="M252 -10Q186 1 146 27T84 89T56 166T49 248Q48 289 65 334T115 417T195 478T300 496Q359 492 395 474T450 428T475 372T482 317Q481 266 455 236T379 195Q363 192 337 191T281 189T222 189T167 191T127 192T112
193Q114 156 131 123T182 69T264 44Q300 41 335 43T400 50T445 59T462 63Q462 63 466 63T475 64T486 61T494 48Q498 40 497 35T492 27T487 22T484 20Q484 20 463 14T406 -1T331 -12T252 -10ZM109 233L342 236Q342 236 350 237T371 243T396 256T417 282T426 324Q426
366 412 394T364 435T271 444Q228 442 196 419T144 361T115 293T109 233ZM172 550Q166 554 164 558T162 567T164 574T166 577Q179 595 194 611T228 643T267 675Q276 682 286 685T307 687T329 677L430 606Q430 606 432 604T436 597T438 587T433 575Q429 570 423
569T412 569T403 571T399 573L305 643Q285 635 261 612T200 550Q200 550 196 548T186 546T172 550Z" />
<glyph unicode="&#xeb;" horiz-adv-x="544" d="M252 -10Q186 1 146 27T84 89T56 166T49 248Q48 289 65 334T115 417T195 478T300 496Q359 492 395 474T450 428T475 372T482 317Q481 266 455 236T379 195Q363 192 337 191T281 189T222 189T167 191T127 192T112
193Q114 156 131 123T182 69T264 44Q300 41 335 43T400 50T445 59T462 63Q462 63 466 63T475 64T486 61T494 48Q498 40 497 35T492 27T487 22T484 20Q484 20 463 14T406 -1T331 -12T252 -10ZM109 233L342 236Q342 236 350 237T371 243T396 256T417 282T426 324Q426
366 412 394T364 435T271 444Q228 442 196 419T144 361T115 293T109 233ZM394 566Q383 566 374 571T359 584T353 602Q353 612 358 620T373 633T394 638Q406 638 415 633T429 620T435 602Q435 586 423 576T394 566ZM182 566Q171 566 162 571T147 584T142 602Q142
612 147 620T161 633T182 638Q194 638 203 633T218 620T224 602Q224 591 219 583T204 571T182 566Z" />
<glyph unicode="&#xec;" horiz-adv-x="168" d="M91 1Q82 1 76 4T66 13T61 21T59 25Q53 79 51 133T48 242T51 355T59 474Q59 474 59 477T63 486T72 494T90 497Q101 497 107 493T116 482T120 471T121 466Q117 415 115 363T113 257T115 145T121 26Q121 26 120 22T117
14T108 5T91 1ZM430 549Q406 559 382 570T335 592T290 616T247 642Q247 642 244 644T239 649T236 658T238 669Q242 675 247 677T257 679T265 678T268 676Q310 655 354 635T448 591Q448 591 451 589T457 582T462 572T460 558Q458 552 453 550T443 548T434 548T430
549Z" />
<glyph unicode="&#xed;" horiz-adv-x="168" d="M91 1Q82 1 76 4T66 13T61 21T59 25Q53 79 51 133T48 242T51 355T59 474Q59 474 59 477T63 486T72 494T90 497Q101 497 107 493T116 482T120 471T121 466Q117 415 115 363T113 257T115 145T121 26Q121 26 120 22T117
14T108 5T91 1ZM261 545Q261 545 258 544T249 543T239 545T230 554Q227 561 228 567T233 578T240 584T244 587Q293 609 337 630T424 672Q424 672 427 673T434 674T444 672T453 664Q456 658 456 653T453 645T448 639T445 637Q425 624 403 612T357 588T309 565T261
545Z" />
<glyph unicode="&#xee;" horiz-adv-x="168" d="M91 1Q82 1 76 4T66 13T61 21T59 25Q53 79 51 133T48 242T51 355T59 474Q59 474 59 477T63 486T72 494T90 497Q101 497 107 493T116 482T120 471T121 466Q117 415 115 363T113 257T115 145T121 26Q121 26 120 22T117
14T108 5T91 1ZM222 550Q216 554 214 558T212 567T214 574T216 577Q229 595 244 611T278 643T317 675Q326 682 336 685T357 687T379 677L480 606Q480 606 482 604T486 597T488 587T483 575Q479 570 473 569T462 569T453 571T449 573L355 643Q335 635 311 612T250
550Q250 550 246 548T236 546T222 550Z" />
<glyph unicode="&#xef;" horiz-adv-x="168" d="M91 1Q82 1 76 4T66 13T61 21T59 25Q53 79 51 133T48 242T51 355T59 474Q59 474 59 477T63 486T72 494T90 497Q101 497 107 493T116 482T120 471T121 466Q117 415 115 363T113 257T115 145T121 26Q121 26 120 22T117
14T108 5T91 1ZM445 566Q434 566 425 571T410 584T404 602Q404 612 409 620T424 633T445 638Q457 638 466 633T480 620T486 602Q486 586 474 576T445 566ZM233 566Q222 566 213 571T198 584T193 602Q193 612 198 620T212 633T233 638Q245 638 254 633T269 620T275
602Q275 591 270 583T255 571T233 566Z" />
<glyph unicode="&#xf0;" horiz-adv-x="592" d="M284 7Q230 3 186 14T109 53T58 126Q46 161 52 197T89 266T178 317Q240 336 307 331T447 298Q447 321 444 343T437 388T424 432Q407 483 377 524T294 587Q243 600 191 594T84 561Q84 561 81 560T72 558T63 558T54
566Q50 573 51 578T55 588T60 594T63 597Q122 636 186 646T318 640Q354 631 389 603T453 528T498 420T513 279Q505 173 449 104T284 7ZM262 61Q307 64 345 87T409 149T443 237Q379 261 320 271T209 269Q96 236 125 145Q143 109 176 86T262 61ZM243 431Q243 431
239 430T230 428T218 428T208 436Q204 443 204 448T207 458T212 464T215 466Q248 485 274 498T325 521T376 541T434 558T507 578Q507 578 512 578T523 577T536 572T543 560Q545 552 542 547T535 538T526 533T522 531Q483 520 454 512T401 495T354 478T304 458T243
431Z" />
<glyph unicode="&#xf1;" horiz-adv-x="530" d="M434 24Q424 27 418 32T410 42T407 52T406 57Q417 155 415 232T388 352Q365 396 337 417T279 439T216 424Q177 402 153 368T118 294T107 213Q108 176 108 144T110 87T113 47Q113 47 113 45T112 39T108 32T96 27Q88
26 82 29T73 36T69 40Q57 61 57 79T59 119T55 171Q54 206 55 239T61 303T74 361T99 410Q118 435 144 454T203 484T270 495T341 483Q367 470 388 451T426 407T455 353T474 285Q484 229 483 170T471 45Q471 45 470 41T465 32T454 25T434 24ZM91 1Q82 1 76 4T66 13T61
21T59 25Q53 79 51 133T48 242T51 355T59 474Q59 474 59 477T63 486T72 494T90 497Q101 497 107 493T116 482T120 471T121 466Q117 415 115 363T113 257T115 145T121 26Q121 26 120 22T117 14T108 5T91 1ZM138 555Q132 551 125 553T113 560T108 564Q94 579 94 594T102
623T128 646T166 658Q203 662 234 651T297 626T362 609Q377 609 388 615T407 634Q407 634 409 638T418 648T435 651Q445 649 449 644T454 634T456 624T456 620Q450 601 432 586T376 566Q355 564 325 572T264 592T207 612Q189 616 171 613T144 601T140 579Q140 579
142 575T144 565T138 555Z" />
<glyph unicode="&#xf2;" horiz-adv-x="568" d="M269 3Q219 3 178 22T108 73T64 149T48 243Q48 293 66 339T118 422T194 479T288 500Q338 500 380 485T454 440T503 362T520 250Q520 200 500 156T445 77T364 23T269 3ZM269 62Q306 62 340 77T400 120T441 182T457
257Q457 323 435 365T376 428T289 449Q252 449 220 431T163 383T125 314T111 238Q111 186 130 146T186 84T269 62ZM373 549Q349 559 325 570T278 592T233 616T190 642Q190 642 187 644T182 649T179 658T181 669Q185 675 190 677T200 679T208 678T211 676Q253 655
297 635T391 591Q391 591 394 589T400 582T405 572T403 558Q401 552 396 550T386 548T377 548T373 549Z" />
<glyph unicode="&#xf3;" horiz-adv-x="568" d="M269 3Q219 3 178 22T108 73T64 149T48 243Q48 293 66 339T118 422T194 479T288 500Q338 500 380 485T454 440T503 362T520 250Q520 200 500 156T445 77T364 23T269 3ZM269 62Q306 62 340 77T400 120T441 182T457
257Q457 323 435 365T376 428T289 449Q252 449 220 431T163 383T125 314T111 238Q111 186 130 146T186 84T269 62ZM203 545Q203 545 200 544T191 543T181 545T172 554Q169 561 170 567T175 578T182 584T186 587Q235 609 279 630T366 672Q366 672 369 673T376 674T386
672T395 664Q398 658 398 653T395 645T390 639T387 637Q367 624 345 612T299 588T251 565T203 545Z" />
<glyph unicode="&#xf4;" horiz-adv-x="568" d="M269 3Q219 3 178 22T108 73T64 149T48 243Q48 293 66 339T118 422T194 479T288 500Q338 500 380 485T454 440T503 362T520 250Q520 200 500 156T445 77T364 23T269 3ZM269 62Q306 62 340 77T400 120T441 182T457
257Q457 323 435 365T376 428T289 449Q252 449 220 431T163 383T125 314T111 238Q111 186 130 146T186 84T269 62ZM165 550Q159 554 157 558T155 567T157 574T159 577Q172 595 187 611T221 643T260 675Q269 682 279 685T300 687T322 677L423 606Q423 606 425 604T429
597T431 587T426 575Q422 570 416 569T405 569T396 571T392 573L298 643Q278 635 254 612T193 550Q193 550 189 548T179 546T165 550Z" />
<glyph unicode="&#xf5;" horiz-adv-x="568" d="M269 3Q219 3 178 22T108 73T64 149T48 243Q48 293 66 339T118 422T194 479T288 500Q338 500 380 485T454 440T503 362T520 250Q520 200 500 156T445 77T364 23T269 3ZM269 62Q306 62 340 77T400 120T441 182T457
257Q457 323 435 365T376 428T289 449Q252 449 220 431T163 383T125 314T111 238Q111 186 130 146T186 84T269 62ZM162 555Q156 551 149 553T137 560T132 564Q118 579 118 594T126 623T152 646T190 658Q227 662 258 651T321 626T386 609Q401 609 412 615T431 634Q431
634 433 638T442 648T459 651Q469 649 473 644T478 634T480 624T480 620Q474 601 456 586T400 566Q379 564 349 572T288 592T231 612Q213 616 195 613T168 601T164 579Q164 579 166 575T168 565T162 555Z" />
<glyph unicode="&#xf6;" horiz-adv-x="568" d="M269 3Q219 3 178 22T108 73T64 149T48 243Q48 293 66 339T118 422T194 479T288 500Q338 500 380 485T454 440T503 362T520 250Q520 200 500 156T445 77T364 23T269 3ZM269 62Q306 62 340 77T400 120T441 182T457
257Q457 323 435 365T376 428T289 449Q252 449 220 431T163 383T125 314T111 238Q111 186 130 146T186 84T269 62ZM387 566Q376 566 367 571T352 584T346 602Q346 612 351 620T366 633T387 638Q399 638 408 633T422 620T428 602Q428 586 416 576T387 566ZM175 566Q164
566 155 571T140 584T135 602Q135 612 140 620T154 633T175 638Q187 638 196 633T211 620T217 602Q217 591 212 583T197 571T175 566Z" />
<glyph unicode="&#xf7;" horiz-adv-x="475" d="M86 261Q86 261 82 261T71 262T60 267T52 279Q49 288 51 293T57 301T65 306T69 308Q106 314 136 318T195 324T251 326T314 323T392 317Q392 317 397 316T409 310T420 301T424 286Q423 276 419 271T408 265T398 263T393
262Q351 265 320 266T262 269T211 269T155 266T86 261ZM237 124Q225 124 216 129T202 142T196 160Q196 170 201 178T216 191T237 196Q248 196 257 191T272 178T278 160Q278 149 273 141T258 129T237 124ZM237 398Q225 398 216 402T202 415T196 433Q196 443 201
451T216 464T237 469Q248 469 257 464T272 451T278 433Q278 422 273 414T258 402T237 398Z" />
<glyph unicode="&#xf8;" horiz-adv-x="568" d="M269 3Q219 3 178 22T108 73T64 149T48 243Q48 293 66 339T118 422T194 479T288 500Q338 500 380 485T454 440T503 362T520 250Q520 200 500 156T445 77T364 23T269 3ZM159 -86Q151 -84 147 -79T141 -68T140 -60T140
-56Q164 18 201 113T284 318T383 542Q383 542 384 545T390 551T400 554T414 552Q423 548 425 542T428 530T427 521T425 517Q377 402 333 294T252 92T190 -75Q190 -75 187 -79T177 -87T159 -86ZM269 62Q306 62 340 77T400 120T441 182T457 257Q457 323 435 365T376
428T289 449Q252 449 220 431T163 383T125 314T111 238Q111 186 130 146T186 84T269 62Z" />
<glyph unicode="&#xf9;" horiz-adv-x="530" d="M190 11Q164 24 142 43T104 87T75 142T56 209Q46 265 47 325T59 450Q59 450 60 454T65 462T76 470T95 471Q106 469 112 463T120 452T123 442T124 437Q112 339 115 262T142 142Q159 110 179 90T221 61T266 54T312
68Q350 90 372 121T404 191T412 270Q410 307 403 348T387 422T376 470Q376 470 376 472T377 479T382 486T395 491Q404 493 411 489T421 482T425 478Q443 447 455 407T476 323Q484 269 481 225T465 145T431 79Q412 54 385 36T327 8T261 -2T190 11ZM342 549Q318 559
294 570T247 592T202 616T159 642Q159 642 156 644T151 649T148 658T150 669Q154 675 159 677T169 679T177 678T180 676Q222 655 266 635T360 591Q360 591 363 589T369 582T374 572T372 558Q370 552 365 550T355 548T346 548T342 549Z" />
<glyph unicode="&#xfa;" horiz-adv-x="530" d="M190 11Q164 24 142 43T104 87T75 142T56 209Q46 265 47 325T59 450Q59 450 60 454T65 462T76 470T95 471Q106 469 112 463T120 452T123 442T124 437Q112 339 115 262T142 142Q159 110 179 90T221 61T266 54T312
68Q350 90 372 121T404 191T412 270Q410 307 403 348T387 422T376 470Q376 470 376 472T377 479T382 486T395 491Q404 493 411 489T421 482T425 478Q443 447 455 407T476 323Q484 269 481 225T465 145T431 79Q412 54 385 36T327 8T261 -2T190 11ZM172 545Q172 545
169 544T160 543T150 545T141 554Q138 561 139 567T144 578T151 584T155 587Q204 609 248 630T335 672Q335 672 338 673T345 674T355 672T364 664Q367 658 367 653T364 645T359 639T356 637Q336 624 314 612T268 588T220 565T172 545Z" />
<glyph unicode="&#xfb;" horiz-adv-x="530" d="M190 11Q164 24 142 43T104 87T75 142T56 209Q46 265 47 325T59 450Q59 450 60 454T65 462T76 470T95 471Q106 469 112 463T120 452T123 442T124 437Q112 339 115 262T142 142Q159 110 179 90T221 61T266 54T312
68Q350 90 372 121T404 191T412 270Q410 307 403 348T387 422T376 470Q376 470 376 472T377 479T382 486T395 491Q404 493 411 489T421 482T425 478Q443 447 455 407T476 323Q484 269 481 225T465 145T431 79Q412 54 385 36T327 8T261 -2T190 11ZM134 550Q128 554
126 558T124 567T126 574T128 577Q141 595 156 611T190 643T229 675Q238 682 248 685T269 687T291 677L392 606Q392 606 394 604T398 597T400 587T395 575Q391 570 385 569T374 569T365 571T361 573L267 643Q247 635 223 612T162 550Q162 550 158 548T148 546T134
550Z" />
<glyph unicode="&#xfc;" horiz-adv-x="530" d="M190 11Q164 24 142 43T104 87T75 142T56 209Q46 265 47 325T59 450Q59 450 60 454T65 462T76 470T95 471Q106 469 112 463T120 452T123 442T124 437Q112 339 115 262T142 142Q159 110 179 90T221 61T266 54T312
68Q350 90 372 121T404 191T412 270Q410 307 403 348T387 422T376 470Q376 470 376 472T377 479T382 486T395 491Q404 493 411 489T421 482T425 478Q443 447 455 407T476 323Q484 269 481 225T465 145T431 79Q412 54 385 36T327 8T261 -2T190 11ZM356 566Q345 566
336 571T321 584T315 602Q315 612 320 620T335 633T356 638Q368 638 377 633T391 620T397 602Q397 586 385 576T356 566ZM144 566Q133 566 124 571T109 584T104 602Q104 612 109 620T123 633T144 638Q156 638 165 633T180 620T186 602Q186 591 181 583T166 571T144
566Z" />
<glyph unicode="&#xfd;" horiz-adv-x="605" d="M351 -210Q281 -214 219 -202T103 -164Q103 -164 100 -162T92 -156T85 -146T85 -131Q88 -124 93 -121T105 -117T115 -116T119 -117Q153 -132 188 -140T259 -152T335 -153Q382 -151 414 -135T463 -89T486 -14Q490
54 490 118T489 241T480 356T462 462Q462 462 463 468T469 480T488 486Q502 487 510 482T521 472T525 466Q543 392 550 310T557 141T552 -34Q539 -119 489 -162T351 -210ZM210 12Q168 31 138 59T87 126T58 209Q51 247 50 286T51 366T62 450Q62 450 63 453T69 461T80
469T100 471Q110 470 116 466T127 457T132 448T134 440T135 437Q126 368 125 311T131 211T158 141Q198 78 247 62T355 68Q400 90 429 120T473 188T487 268L540 325Q554 244 539 183T486 78Q457 46 414 23T319 -5T210 12ZM212 545Q212 545 209 544T200 543T190 545T181
554Q178 561 179 567T184 578T191 584T195 587Q244 609 288 630T375 672Q375 672 378 673T385 674T395 672T404 664Q407 658 407 653T404 645T399 639T396 637Q376 624 354 612T308 588T260 565T212 545Z" />
<glyph unicode="&#xfe;" horiz-adv-x="545" d="M271 89Q228 89 192 105T129 151T89 218T79 301Q83 344 102 383T153 451T223 496T306 513Q349 513 385 496T448 450T487 381T497 298Q494 255 475 217T424 150T354 105T271 89ZM92 -2Q81 -2 75 2T65 11T60 20T58
24Q54 67 52 125T49 250T49 384T53 512T60 622Q60 622 60 626T63 634T72 643T90 647Q100 647 106 643T115 634T120 624T122 616T122 612Q118 571 116 515T114 393T113 262T115 134T120 23Q120 23 120 19T116 11T108 2T92 -2ZM276 147Q317 147 352 168T409 225T435
305Q439 348 422 383T373 440T300 461Q259 461 225 440T168 384T141 305Q138 261 155 225T204 168T276 147Z" />
<glyph unicode="&#xff;" horiz-adv-x="605" d="M351 -210Q281 -214 219 -202T103 -164Q103 -164 100 -162T92 -156T85 -146T85 -131Q88 -124 93 -121T105 -117T115 -116T119 -117Q153 -132 188 -140T259 -152T335 -153Q382 -151 414 -135T463 -89T486 -14Q490
54 490 118T489 241T480 356T462 462Q462 462 463 468T469 480T488 486Q502 487 510 482T521 472T525 466Q543 392 550 310T557 141T552 -34Q539 -119 489 -162T351 -210ZM210 12Q168 31 138 59T87 126T58 209Q51 247 50 286T51 366T62 450Q62 450 63 453T69 461T80
469T100 471Q110 470 116 466T127 457T132 448T134 440T135 437Q126 368 125 311T131 211T158 141Q198 78 247 62T355 68Q400 90 429 120T473 188T487 268L540 325Q554 244 539 183T486 78Q457 46 414 23T319 -5T210 12ZM396 566Q385 566 376 571T361 584T355 602Q355
612 360 620T375 633T396 638Q408 638 417 633T431 620T437 602Q437 586 425 576T396 566ZM184 566Q173 566 164 571T149 584T144 602Q144 612 149 620T163 633T184 638Q196 638 205 633T220 620T226 602Q226 591 221 583T206 571T184 566Z" />
<glyph unicode="&#x2013;" horiz-adv-x="470" d="M84 287Q83 287 79 287T68 288T57 293T49 306Q46 314 48 319T55 328T62 332T66 334Q104 340 134 344T192 350T249 352T312 350T389 343Q389 343 394 342T407 336T418 327T422 312Q421 303 416 298T406 291T396
289T391 288Q349 291 317 293T259 295T208 295T153 292T84 287Z" />
<glyph unicode="&#x2014;" horiz-adv-x="670" d="M622 312Q621 303 616 298T606 291T596 289T591 288Q549 291 497 293T389 295T278 295T173 292T84 287Q84 287 80 287T69 288T57 293T49 306Q46 314 48 319T55 328T62 332T66 334Q97 339 138 342T225 348T320 351T417
352T509 349T589 343Q589 343 594 342T607 336T618 327T622 312Z" />
<glyph unicode="&#x2018;" horiz-adv-x="185" d="M63 452Q55 457 52 462T49 473T50 478L72 545Q56 563 54 583T59 618T83 637Q96 638 106 635T123 626T132 612T137 593Q137 564 132 540T117 496T96 461Q96 461 92 457T80 451T63 452Z" />
<glyph unicode="&#x2019;" horiz-adv-x="185" d="M102 446Q89 445 79 448T62 457T53 472T48 490Q48 519 53 543T68 588T89 622Q89 622 93 626T105 633T122 631Q131 628 133 622T136 611T135 606L113 538Q130 521 132 501T126 465T102 446Z" />
<glyph unicode="&#x201a;" horiz-adv-x="185" d="M63 -94Q55 -90 52 -84T49 -74T50 -69L72 -1Q56 17 54 37T59 72T83 91Q96 92 106 89T123 80T132 65T137 47Q137 18 132 -6T117 -50T96 -85Q96 -85 92 -89T80 -95T63 -94Z" />
<glyph unicode="&#x201c;" horiz-adv-x="337" d="M216 452Q207 457 205 462T202 473T202 478L224 545Q209 563 206 583T211 618T235 637Q249 638 259 635T275 626T285 612T290 593Q290 564 284 540T270 496T248 461Q248 461 244 457T232 451T216 452ZM63 452Q55
457 52 462T49 473T50 478L72 545Q56 563 54 583T59 618T83 637Q96 638 106 635T123 626T132 612T137 593Q137 564 132 540T117 496T96 461Q96 461 92 457T80 451T63 452Z" />
<glyph unicode="&#x201d;" horiz-adv-x="337" d="M255 446Q241 445 231 448T215 457T205 472T200 490Q201 519 206 543T221 588T242 622Q242 622 246 626T258 633T274 631Q284 628 286 622T288 611T288 606L266 538Q282 521 284 501T279 465T255 446ZM102 446Q89
445 79 448T62 457T53 472T48 490Q48 519 53 543T68 588T89 622Q89 622 93 626T105 633T122 631Q131 628 133 622T136 611T135 606L113 538Q130 521 132 501T126 465T102 446Z" />
<glyph unicode="&#x201e;" horiz-adv-x="327" d="M206 -94Q197 -90 195 -84T192 -74T192 -69L214 -1Q199 17 196 37T201 72T225 91Q239 92 249 89T265 80T275 65T280 47Q280 18 274 -6T260 -50T238 -85Q238 -85 234 -89T222 -95T206 -94ZM63 -94Q55 -90 52 -84T49
-74T50 -69L72 -1Q56 17 54 37T59 72T83 91Q96 92 106 89T123 80T132 65T137 47Q137 18 132 -6T117 -50T96 -85Q96 -85 92 -89T80 -95T63 -94Z" />
<glyph unicode="&#x2022;" horiz-adv-x="236" d="M117 230Q98 230 82 238T57 260T48 291Q48 308 57 322T82 344T117 352Q137 352 153 344T179 322T189 291Q189 273 179 259T153 238T117 230Z" />
<glyph unicode="&#x2039;" horiz-adv-x="312" d="M229 65Q221 59 214 60T200 64T189 71T185 75Q164 98 145 120T107 167T71 219Q58 238 52 254T47 286T56 316Q80 362 104 406T155 488T213 557Q213 557 217 560T226 568T239 573T254 570Q261 566 262 560T263 549T261
540T259 536Q231 501 206 464T157 387T111 301Q95 268 118 237L228 101Q228 101 230 99T235 94T238 86T238 76T229 65Z" />
<glyph unicode="&#x203a;" horiz-adv-x="312" d="M83 65Q76 70 75 75T74 85T77 93T82 99T84 101L194 237Q217 268 201 301Q179 346 156 386T107 464T54 536Q54 536 52 539T49 548T49 560T59 570Q66 575 73 574T86 568T95 561T99 557Q129 526 156 488T208 406T256
316Q263 302 264 286T261 254T242 219Q224 192 206 168T168 121T127 75Q127 75 124 72T113 65T99 60T83 65Z" />
</font>
</defs>
</svg>
