<?xml version="1.0" standalone="no"?>
<!DOCTYPE svg PUBLIC "-//W3C//DTD SVG 1.1//EN" "http://www.w3.org/Graphics/SVG/1.1/DTD/svg11.dtd">
<svg xmlns="http://www.w3.org/2000/svg">
<defs >
<font id="SourGummy" horiz-adv-x="532" ><font-face
    font-family="Sour Gummy Black Black"
    units-per-em="1000"
    panose-1="0 0 0 0 0 0 0 0 0 0"
    ascent="996"
    descent="-296"
    alphabetic="0" />
<glyph unicode=" " horiz-adv-x="260" />
<glyph unicode="!" horiz-adv-x="277" d="M133 195Q108 199 94 211T74 236T68 248Q61 296 54 344T42 449T38 583Q38 583 40 594T51 619T80 643T135 653Q170 652 192 640T225 611T241 577T245 549T246 537Q239 482 234 445T225 377T214 313T198 230Q198 230 193
220T173 200T133 195ZM131 -2Q103 -2 80 10T44 41T30 85Q30 109 43 128T80 159T131 171Q160 171 183 160T219 129T233 85Q233 53 220 34T183 6T131 -2Z" />
<glyph unicode="&quot;" horiz-adv-x="359" d="M248 483Q224 489 212 501T195 524T190 535Q191 547 189 556T184 576T182 604Q182 604 186 614T202 636T241 648Q271 649 289 639T315 616T325 592T328 582Q329 554 323 538T311 510Q311 510 305 502T284 486T248
483ZM96 483Q72 489 60 501T43 524T38 535Q39 547 37 556T32 576T31 604Q31 604 34 614T50 636T89 648Q119 649 137 639T163 616T173 592T176 582Q177 554 171 538T159 510Q159 510 153 502T132 486T96 483Z" />
<glyph unicode="#" horiz-adv-x="705" d="M502 3Q470 3 451 16T422 45T409 74T406 87Q402 130 400 178T396 277T396 380T401 483T408 582Q408 582 410 592T419 616T444 640T491 649Q524 649 544 638T574 610T588 578T592 550T592 539Q588 499 586 454T584 361T583
265T586 168T590 72Q590 72 589 62T579 37T553 13T502 3ZM207 3Q175 3 156 16T127 45T114 74T111 87Q107 130 105 178T101 277T101 380T106 483T113 582Q113 582 115 592T124 616T149 640T196 649Q229 649 248 638T278 610T293 578T297 550T297 539Q293 499 291
454T289 361T288 265T291 168T295 72Q295 72 294 62T284 37T258 13T207 3ZM109 83Q109 83 98 85T71 96T44 119T31 161Q30 187 40 201T63 222T87 230T98 232Q211 243 335 248T584 253Q584 253 593 251T616 242T643 226T666 201T675 166Q675 139 665 124T642 102T619
93T609 91L109 83ZM109 354Q109 354 98 356T71 366T44 389T31 431Q30 457 40 472T63 493T87 501T98 503Q211 514 335 518T584 523Q584 523 593 521T616 513T643 497T666 472T675 437Q675 410 665 395T642 373T619 364T609 362L109 354Z" />
<glyph unicode="$" horiz-adv-x="557" d="M316 2Q258 0 215 6T144 20T102 35T88 42Q88 42 80 47T61 61T42 84T31 114T39 150Q50 171 65 179T95 188T120 187T130 185Q163 173 198 168T263 164T312 172T333 191Q333 197 325 203T299 216T258 231T204 252Q186 259
162 274T115 310T73 357T48 415T48 480T86 551Q117 588 153 609T227 640T300 651T362 651T406 645T422 641Q422 641 432 638T458 628T488 610T511 581T517 538Q513 510 499 497T469 481T440 479T427 481Q394 491 360 487T297 472T253 446T239 421Q242 411 263 401T317
379T383 350T448 313T495 265Q525 217 527 177T511 104T461 50T391 15T316 2ZM305 -109Q284 -110 269 -101T247 -81T239 -70Q234 -60 227 -40T214 2T207 39H389Q390 22 388 -1T381 -44T371 -74Q371 -74 365 -82T345 -99T305 -109ZM211 600Q210 618 212 640T220
683T230 713Q230 713 236 721T256 738T295 748Q317 749 331 739T354 719T362 708Q368 699 375 679T387 638T393 600H211Z" />
<glyph unicode="%" horiz-adv-x="926" d="M312 10Q286 19 274 33T259 62T257 87T259 97Q285 164 325 249T414 430T510 617Q510 617 515 625T532 643T562 657T606 654Q635 645 647 631T663 602T664 577T662 567Q608 457 562 359T479 177T414 30Q414 30 403 20T370
4T312 10ZM190 316Q114 316 72 360T30 478Q30 515 47 549T93 611T158 654T232 670Q283 670 320 648T379 587T400 498Q400 461 382 429T334 371T266 331T190 316ZM190 454Q197 450 207 452T227 462T243 481Q254 499 254 514T244 535Q237 539 227 536T207 525T190
505Q180 488 180 474T190 454ZM687 0Q611 0 569 44T526 162Q526 199 543 233T589 295T654 338T728 354Q779 354 816 332T875 271T896 182Q896 145 878 113T830 55T762 15T687 0ZM686 138Q693 134 703 136T723 146T740 165Q750 183 750 198T740 219Q733 223 723
220T704 209T687 189Q677 172 677 158T686 138Z" />
<glyph unicode="&amp;" horiz-adv-x="590" d="M124 25Q92 48 68 79T35 146T38 218Q44 244 60 273T95 326T130 354Q103 377 85 414T71 501Q78 545 97 571T145 611T206 632T269 646L378 649Q378 649 388 648T414 642T444 627T470 600T480 556Q480 538 470 527T446
509T423 500T413 497Q366 496 337 493T289 484T259 469Q259 469 254 463T247 450T254 435Q259 432 271 425T309 401Q309 401 318 393T337 371T346 338Q345 320 337 310T322 295T314 290Q292 280 272 262T238 228T219 203Q214 194 212 181T218 159T251 151Q276 161
289 167T310 178T323 185Q343 209 352 227T364 259T367 285Q367 285 368 296T377 321T406 345T463 354Q501 352 520 337T548 302T558 269T559 254Q558 208 544 173T507 112T459 66T408 27Q337 -13 263 -11T124 25ZM290 -109Q269 -110 254 -101T232 -81T224 -70Q219
-60 212 -40T199 2T192 39H374Q375 22 373 -1T366 -44T356 -74Q356 -74 350 -82T330 -99T290 -109ZM196 600Q195 618 197 640T205 683T215 713Q215 713 221 721T241 738T280 748Q302 749 316 739T339 719T347 708Q352 699 359 679T372 638T378 600H196Z" />
<glyph unicode="&apos;" horiz-adv-x="207" d="M96 483Q72 489 60 501T43 524T38 535Q39 547 37 556T32 576T31 604Q31 604 34 614T50 636T89 648Q119 649 137 639T163 616T173 592T176 582Q177 554 171 538T159 510Q159 510 153 502T132 486T96 483Z" />
<glyph unicode="(" horiz-adv-x="346" d="M227 -29Q203 -36 183 -31T148 -15T125 5T116 14Q71 88 48 175T33 377Q41 429 55 474T95 564T159 656Q159 656 172 667T207 686T259 684Q286 674 298 661T314 635T314 610T308 591T304 584Q277 543 262 512T238 454T225
399T216 335Q212 295 214 257T226 184T248 120T276 68Q276 68 279 57T283 30T270 -3T227 -29Z" />
<glyph unicode=")" horiz-adv-x="346" d="M119 -29Q88 -20 76 -4T64 28T66 56T70 68Q85 90 98 119T120 183T132 256T130 335Q126 370 122 398T109 453T85 511T42 584Q42 584 39 591T32 610T32 635T47 661T87 684Q116 695 138 687T174 668T187 656Q226 609 251
565T291 475T313 377Q321 262 298 175T230 14Q230 14 222 5T198 -15T163 -31T119 -29Z" />
<glyph unicode="*" horiz-adv-x="405" d="M85 426Q69 433 64 443T58 463T58 472Q60 499 73 529T105 587T144 631T178 648Q188 651 204 649T236 642T261 626Q287 582 310 552T347 495Q347 495 349 487T352 467T343 444T313 424Q289 415 271 419T240 433T222 451T216
460L199 491Q185 473 173 457T152 433Q152 433 144 428T120 420T85 426ZM348 491Q272 499 201 503T64 500Q64 500 57 504T41 518T31 541Q30 561 37 571T53 584T62 588Q109 599 147 602T224 604T314 595Q314 595 322 593T342 583T363 565T374 535Q376 519 369 510T355
496T348 491Z" />
<glyph unicode="+" horiz-adv-x="582" d="M293 60Q261 61 242 73T214 102T201 131T198 144Q192 198 191 240T192 322T198 407T207 513Q207 513 209 523T218 547T243 570T290 580Q323 579 343 568T373 541T387 508T391 481T391 470Q385 402 383 350T380 246T381
129Q381 129 380 119T370 94T344 70T293 60ZM31 318Q31 350 44 369T73 397T102 410T115 413Q159 418 194 419T261 421T326 418T397 412T484 404Q484 404 494 402T518 393T541 368T551 321Q550 288 539 268T512 238T479 224T451 220T440 220Q389 225 348 227T268
231T190 232T100 230Q100 230 90 231T65 241T41 267T31 318Z" />
<glyph unicode="," horiz-adv-x="261" d="M91 -103Q65 -95 55 -80T43 -51T41 -38L47 -4Q28 22 30 50T52 99T102 125Q141 127 166 117T204 91T224 59T231 31Q231 10 224 -14T204 -58T176 -88Q176 -88 166 -95T136 -107T91 -103Z" />
<glyph unicode="-" horiz-adv-x="526" d="M122 241Q121 241 110 241T84 245T56 261T35 295Q27 319 30 334T42 359T58 371T66 375Q89 380 119 385T185 395T259 401T338 402T419 393Q419 393 430 388T457 373T484 348T496 312Q496 285 485 270T460 247T434 237T423
235Q381 238 349 240T290 243T238 245T185 244T122 241Z" />
<glyph unicode="." horiz-adv-x="263" d="M131 -2Q103 -2 80 10T44 41T30 85Q30 109 43 128T80 159T131 171Q160 171 183 160T219 129T233 85Q233 36 204 17T131 -2Z" />
<glyph unicode="/" horiz-adv-x="468" d="M85 10Q59 19 47 33T32 62T30 87T32 97Q58 164 98 249T187 430T283 617Q283 617 288 625T305 643T335 657T379 654Q408 645 420 631T436 602T437 577T435 567Q381 457 335 359T252 177T187 30Q187 30 176 20T143 4T85 10Z" />
<glyph unicode="0" horiz-adv-x="603" d="M254 -7Q186 -7 135 33T55 143T31 304Q34 372 52 435T104 549T183 628T286 658Q327 658 369 648T449 613T516 549T560 451T572 312Q569 248 549 197T496 107T423 44T339 6T254 -7ZM92 133L49 266Q146 334 261 381T506
460L556 314Q432 298 317 252T92 133ZM283 178Q304 178 325 187T365 216T395 264T408 332Q410 375 401 404T376 451T340 476T299 484Q278 484 260 471T228 435T206 383T195 319Q194 275 204 243T235 195T283 178Z" />
<glyph unicode="1" horiz-adv-x="437" d="M316 5Q282 6 263 21T235 55T224 89T221 104Q218 139 216 180T213 264T212 349T216 427L162 384Q162 384 154 380T131 372T99 372T59 392Q39 408 34 424T30 453T38 474T43 482L204 607Q244 644 281 647T345 644Q368 637
380 624T398 596T405 571T406 561Q402 521 401 475T399 379T400 278T403 178T406 82Q406 82 405 70T396 43T370 16T316 5Z" />
<glyph unicode="2" horiz-adv-x="508" d="M156 -1Q140 -2 121 5T85 26T62 60T62 102Q136 216 179 291T239 413T250 485Q248 490 241 497T221 506Q202 503 185 495T156 479Q156 479 147 474T124 465T91 464T54 483Q38 497 34 509T31 533T37 551T45 562Q67 587 93
605T154 635T239 650Q286 648 327 625T397 565T437 482T437 390Q429 361 420 333T398 274T364 211T315 139H399Q399 139 410 136T437 126T464 105T477 71Q478 51 470 39T451 19T432 10T423 7L156 -1Z" />
<glyph unicode="3" horiz-adv-x="478" d="M272 7Q249 4 221 9T164 25T110 52T67 88Q67 88 58 97T40 121T30 156T46 194Q61 211 79 214T113 215T141 206T152 201Q173 187 185 178T208 163T237 155Q255 160 262 172T270 199T267 228T257 250Q251 262 227 272T173
298Q159 302 150 316T139 347T149 378T186 399Q192 402 201 406T225 419T257 441Q261 445 264 460T268 490T260 509Q250 514 231 514T190 510T145 503Q145 503 137 504T115 509T89 521T68 543Q58 561 58 574T65 597T78 610T84 615Q121 635 150 643T209 651Q228
652 254 649T307 637T356 612Q380 595 399 567T428 505T437 439T417 380Q415 374 407 365T392 347T380 334Q389 323 402 307T428 267T446 207Q452 159 439 122T399 59T339 20T272 7Z" />
<glyph unicode="4" horiz-adv-x="525" d="M412 4Q380 4 360 16T329 45T314 74T309 87Q306 130 305 162T302 222T300 276T300 332T301 400L267 361Q264 356 254 346T236 327T229 318L346 331L370 189Q333 185 303 183T240 181T164 182Q109 190 79 211T38 258T32
312T52 361Q100 416 137 455T208 526Q246 567 280 595T337 635Q358 649 384 650T436 644T477 616T495 569Q491 529 489 483T486 386T485 284T487 180T492 79Q492 79 491 68T484 42T461 16T412 4Z" />
<glyph unicode="5" horiz-adv-x="491" d="M245 6Q214 6 179 15T111 42T54 89Q54 89 47 97T35 118T31 147T53 181Q73 199 92 200T125 198T139 193Q157 186 178 173T209 154Q229 152 244 160T268 180T278 195Q282 199 283 212T282 242T275 268T258 276L158 249Q143
246 124 248T86 258T54 282T37 326Q34 385 33 434T31 521T31 577Q33 582 35 593T44 615T68 635T116 643L353 644Q353 644 362 643T384 636T411 622T432 596T440 555Q439 533 428 522T402 506T377 502T366 501L198 507Q199 498 201 471T204 422Q237 424 260 421T303
411T347 393Q388 372 414 340T451 270T460 196T444 131Q425 90 393 62T322 20T245 6Z" />
<glyph unicode="6" horiz-adv-x="587" d="M279 7Q170 35 105 107T31 284Q30 362 48 424T96 532T164 606T238 644Q308 661 376 649T504 597Q504 597 511 589T526 566T535 533T522 497Q512 484 499 480T473 475T452 478T443 480Q412 484 381 490T312 490Q301 484
289 474T266 449Q265 447 259 438T248 417T241 391Q288 393 329 387T418 366Q478 347 513 306T555 215T538 120Q519 75 479 49T387 13T279 7ZM301 165Q319 165 330 172T347 190Q356 218 319 228Q302 232 283 229T242 218Q245 203 253 191T274 173T301 165Z" />
<glyph unicode="7" horiz-adv-x="500" d="M381 5Q350 6 331 18T302 47T289 75T286 88Q283 132 281 185T277 296T276 408T280 512Q251 514 227 512T177 508T118 506Q118 506 107 506T79 511T50 525T32 557Q28 579 34 592T50 613T69 624T78 627Q123 642 175 648T281
655T383 649Q416 646 433 632T459 600T468 569T470 556Q466 516 465 471T463 377T463 279T465 179T470 79Q470 79 468 68T457 41T430 15T381 5Z" />
<glyph unicode="8" horiz-adv-x="551" d="M286 256Q235 256 189 268T107 303T51 359T30 432Q30 473 43 512T86 584T161 634T273 651Q324 650 369 635T448 592T501 530T521 454Q521 414 503 378T452 315T377 272T286 256ZM286 -2Q235 -2 189 10T107 45T51 101T30
174Q30 215 43 254T86 326T161 376T273 393Q324 392 369 377T448 334T501 272T521 196Q521 156 503 120T452 57T377 14T286 -2ZM269 154Q279 154 289 158T308 168T322 182T327 200Q327 209 322 216T309 229T291 238T269 241Q251 240 240 233T223 215T218 192Q218
180 224 172T242 159T269 154ZM269 412Q279 412 289 416T308 426T322 440T327 458Q327 467 322 474T309 487T291 496T269 499Q251 498 240 491T223 474T218 451Q218 439 224 431T242 417T269 412Z" />
<glyph unicode="9" horiz-adv-x="586" d="M348 12Q278 -5 210 7T83 59Q83 59 75 67T60 90T51 123T64 160Q74 173 87 177T113 182T134 179T143 177Q174 173 205 167T275 166Q286 172 298 182T320 208Q322 210 327 218T339 239T346 265Q299 263 258 269T168 290Q109
309 74 350T32 442T48 537Q68 582 108 608T200 644T308 649Q417 621 482 550T555 372Q557 294 539 232T490 124T422 50T348 12ZM267 428Q284 424 303 427T345 438Q342 453 334 465T313 484T285 492Q267 491 257 484T240 466Q229 439 267 428Z" />
<glyph unicode=":" horiz-adv-x="263" d="M131 312Q103 312 80 323T44 355T30 399Q30 423 43 443T80 474T131 486Q160 486 183 475T219 443T233 399Q233 367 220 348T183 320T131 312ZM131 115Q103 115 80 127T44 158T30 202Q30 226 43 245T80 276T131 288Q160
288 183 277T219 246T233 202Q233 170 220 151T183 123T131 115Z" />
<glyph unicode=";" horiz-adv-x="267" d="M96 60Q70 69 60 84T48 112T46 125L52 159Q33 186 36 213T58 262T107 288Q147 290 171 280T209 255T229 223T237 195Q237 173 230 149T210 105T182 75Q182 75 172 68T142 56T96 60ZM131 312Q103 312 80 323T44 355T30
399Q30 423 43 443T80 474T131 486Q160 486 183 475T219 443T233 399Q233 367 220 348T183 320T131 312Z" />
<glyph unicode="&lt;" horiz-adv-x="413" d="M280 6Q244 0 221 10T185 32T173 44Q138 104 107 155T42 268Q29 290 31 325T63 392L234 623Q234 623 246 632T281 645T336 635Q362 623 372 608T382 579T380 556T377 547L229 322Q209 294 220 274L337 84Q337 84 337
74T335 50T319 24T280 6Z" />
<glyph unicode="=" horiz-adv-x="479" d="M449 189Q449 162 438 147T413 124T387 114T376 112Q334 115 307 116T259 119T221 120T180 118T122 114Q122 114 112 114T86 118T56 134T35 169Q27 193 30 208T42 232T58 244T66 248Q105 257 150 266T251 278T373 270Q373
270 384 265T411 250T437 225T449 189ZM449 375Q449 348 438 333T413 310T387 300T376 298Q334 301 307 302T259 305T221 306T180 304T122 300Q122 300 112 300T86 305T56 321T35 355Q27 379 30 394T42 418T58 430T66 434Q105 443 150 452T251 464T373 456Q373
456 384 451T411 436T437 411T449 375Z" />
<glyph unicode="&gt;" horiz-adv-x="413" d="M133 6Q107 11 95 23T79 50T75 74T76 84L193 274Q204 294 184 322L36 547Q36 547 33 556T30 579T41 608T77 635Q109 650 132 646T167 632T179 623L350 392Q379 361 381 326T371 268Q338 207 307 156T240 44Q240 44
228 32T193 10T133 6Z" />
<glyph unicode="?" horiz-adv-x="560" d="M287 181Q257 185 241 197T217 223T209 248T207 259Q202 289 211 315T239 362T277 399Q303 425 316 441T334 468T339 491Q335 496 323 498T298 500T280 498Q264 495 244 491T216 483Q209 478 209 470T214 451T224 427Q224
427 225 417T224 392T205 369Q181 355 160 354T122 359T96 371T87 378Q33 434 32 481T64 580Q83 605 116 622T192 648T280 656Q327 657 374 643T460 599T516 524Q523 505 527 482T527 431T503 371T444 302Q405 275 387 258T364 228Q364 228 357 215T333 190T287
181ZM287 -2Q259 -2 236 10T200 41T186 85Q186 109 199 128T236 159T287 171Q315 171 338 160T375 129T389 85Q389 53 375 34T338 6T287 -2Z" />
<glyph unicode="@" horiz-adv-x="887" d="M346 -149Q286 -135 230 -102T129 -21T58 85Q23 187 33 275T87 458Q128 532 188 580T326 651T494 669Q532 668 574 658T659 627T739 575T804 502T846 406Q860 338 857 280T838 170T801 71Q782 42 751 28T685 14T621 23Q589
35 568 65T540 151Q520 125 502 108T465 80T418 55Q383 42 352 49T297 73T263 105Q234 145 231 200T244 318Q268 398 318 448T450 497Q524 494 575 455T663 327Q665 323 666 314T669 295T672 272T674 249T678 230Q683 199 690 204T703 245Q708 288 707 319T702
380Q685 435 653 469T581 520T501 537Q447 539 395 525T300 479T232 397Q205 357 193 308T183 209T200 120Q209 102 224 77T268 28T342 -12Q359 -15 384 -15T440 -6T497 23Q497 23 512 28T551 31T602 5Q620 -10 624 -26T627 -55T620 -77T615 -86Q575 -119 530 -134T437
-152T346 -149ZM384 201Q389 198 398 210T419 241Q430 261 442 282T467 329Q464 352 458 361T441 367Q431 364 420 343T395 283Q389 263 385 245T381 214T384 201Z" />
<glyph unicode="A" horiz-adv-x="608" d="M127 -1Q90 4 70 19T42 53T32 85T31 98Q33 175 53 255T100 417Q133 504 161 550T214 616T261 639T307 643Q324 646 348 636T398 605T446 553T479 480Q489 452 503 409T532 311T559 195T577 68Q577 68 576 57T568 32T544
6T495 -5Q463 -5 442 7T410 35T394 64T389 76Q376 133 370 173T357 235Q343 291 332 331T309 409Q303 388 293 360T272 302T256 249Q249 211 245 190T238 152T233 116T226 60Q226 60 223 50T209 26T180 4T127 -1ZM146 87L161 217Q208 228 251 234T341 242T440 239L457
87Q422 93 381 97T298 102T216 100T146 87Z" />
<glyph unicode="B" horiz-adv-x="581" d="M369 5Q317 1 264 -1T165 1T86 23T41 74Q37 117 34 166T31 269T31 375T35 481T42 582Q43 591 48 607T71 636T123 649H335Q379 643 419 623T490 574T534 511Q548 484 548 455T539 399T513 350T477 319Q496 308 514 282T543
224T550 168Q549 127 528 96T466 42T369 5ZM225 164Q248 164 269 164T306 167T334 175Q361 189 352 207Q348 217 339 222T317 231T291 234L222 233Q221 216 222 199T225 164ZM227 431Q249 430 270 430T314 435Q329 440 338 447T348 467Q347 480 336 488T301 501Q295
502 284 502T259 502T230 503L227 431Z" />
<glyph unicode="C" horiz-adv-x="620" d="M278 5Q215 17 170 45T95 112T50 196T31 284T36 366Q45 410 65 459T122 552T212 623T342 651Q408 651 459 625T542 557T585 469T582 381Q582 381 574 368T548 344T500 335Q469 339 453 356T430 389T424 405Q424 405 423
413T419 433T409 458T391 478T361 486Q334 486 313 471T275 433T248 383T231 333T224 294Q223 280 225 265T232 234T246 204T268 180T297 165Q311 161 330 168T368 188T395 214Q395 214 402 224T424 245T464 258T522 246Q551 233 564 217T581 185T581 155T573 133T569
124Q569 124 560 109T530 71T475 30T393 2T278 5Z" />
<glyph unicode="D" horiz-adv-x="643" d="M166 -2Q109 1 80 26T40 85Q32 210 31 330T40 564Q42 617 93 634T233 651Q309 651 362 638T453 602T517 551T566 493Q622 381 612 284T530 101Q489 55 431 32T305 2T166 -2ZM224 180Q275 176 310 185T368 214T400 264T413
332Q410 382 396 413T357 462T299 483T225 483Q222 410 222 335T224 180Z" />
<glyph unicode="E" horiz-adv-x="545" d="M151 2Q109 6 86 20T54 53T42 87T38 113Q35 184 33 239T30 346T33 457T43 595Q46 609 63 627T120 650L385 657Q385 657 397 657T427 653T464 640T495 614T509 570Q510 543 499 528T473 505T447 495T435 493L223 503Q221
452 220 417T219 355T218 303T219 245T220 167Q250 172 267 174T296 179T318 183T347 188T393 198Q393 198 403 198T428 196T461 186T491 167T510 134Q518 105 513 87T496 58T475 44T465 40Q419 30 383 22T311 9T238 2T151 2ZM75 251L64 415L343 426Q343 426 352
424T375 416T402 400T425 375T435 339Q435 311 424 295T398 272T372 264T361 262L75 251Z" />
<glyph unicode="F" horiz-adv-x="541" d="M142 5Q108 6 88 20T57 53T44 86T40 100Q36 173 34 229T31 338T33 450T43 591Q45 606 53 621T74 647T102 657H406Q406 657 416 656T442 649T474 634T500 608T511 567Q511 541 501 526T476 503T452 494T441 492L224 501Q223
440 222 394T221 304T222 206T226 79Q226 79 225 68T216 41T192 15T142 5ZM76 251L65 415L344 426Q344 426 353 424T376 416T403 400T426 375T436 339Q436 311 425 295T399 272T373 264T362 262L76 251Z" />
<glyph unicode="G" horiz-adv-x="602" d="M209 12Q178 23 147 45T89 101T46 185T30 299Q38 360 53 414T101 517T194 605Q266 649 335 650T469 617Q501 599 523 571T558 509T571 441T558 377Q558 377 552 368T533 351T496 344Q468 347 452 363T429 395T422 411Q422
420 418 447T405 501Q400 501 389 498T363 489T331 473T298 448Q282 429 267 408T241 359T224 289Q220 248 228 217T253 173Q267 165 281 162T312 158T347 160Q373 166 391 174T405 189Q389 195 366 202T322 217Q322 217 316 221T301 232T288 252T286 280Q290 299
300 307T319 316T329 318Q360 323 392 315T454 294T503 267Q525 252 543 229T568 178T568 121T527 62Q502 38 465 21T385 -5T296 -10T209 12Z" />
<glyph unicode="H" horiz-adv-x="649" d="M137 5Q105 5 86 18T57 47T44 76T41 89Q37 132 35 180T31 279T31 382T36 485T43 584Q43 584 45 594T54 618T79 641T126 651Q159 650 179 639T209 612T223 579T227 552T227 541Q223 500 221 455T219 363T218 266T221 169T225
74Q225 74 224 64T214 39T188 15T137 5ZM116 192L129 362L501 389L505 216L116 192ZM528 5Q496 5 477 18T448 47T435 76T432 89Q428 132 426 180T422 279T422 382T427 485T434 584Q434 584 436 594T445 618T470 641T517 651Q550 650 569 639T599 612T614 579T618
552T618 541Q614 500 612 455T610 363T609 266T612 169T616 74Q616 74 615 64T605 39T579 15T528 5Z" />
<glyph unicode="I" horiz-adv-x="258" d="M137 5Q105 5 86 18T57 47T44 76T41 89Q37 132 35 180T31 279T31 382T36 485T43 584Q43 584 45 594T54 618T79 641T126 651Q159 650 179 639T209 612T223 579T227 552T227 541Q223 500 221 455T219 363T218 266T221 169T225
74Q225 74 224 64T214 39T188 15T137 5Z" />
<glyph unicode="J" horiz-adv-x="521" d="M260 2Q227 4 187 17T108 55T43 116Q43 116 39 124T31 146T32 175T52 206Q70 223 89 227T125 229T152 222T163 217Q180 210 189 201T205 184T220 171T243 165Q267 170 279 200T295 269Q296 303 294 342T288 433T279 558Q279
558 279 571T286 602T310 634T360 651Q396 650 417 635T450 599T466 563T470 547Q476 471 481 418T488 328T491 264T489 210Q481 148 449 100T367 26T260 2Z" />
<glyph unicode="K" horiz-adv-x="573" d="M454 0Q426 -6 404 1T367 21T345 43T337 53Q311 103 289 130T244 172T197 196T138 218L142 391Q204 412 244 438T309 493T347 548T368 594Q368 594 373 603T390 624T422 641T472 640Q504 633 519 615T539 578T542 545T541
531Q538 492 523 457T486 393T441 342T398 305T367 285Q408 259 439 221T490 146T518 89Q518 89 520 78T519 51T501 21T454 0ZM137 5Q105 5 86 18T57 47T44 76T41 89Q37 132 35 180T31 279T31 382T36 485T43 584Q43 584 45 594T54 618T79 641T126 651Q159 650 179
639T209 612T223 579T227 552T227 541Q223 500 221 455T219 363T218 266T221 169T225 74Q225 74 224 64T214 39T188 15T137 5Z" />
<glyph unicode="L" horiz-adv-x="547" d="M155 2Q119 0 97 10T62 38T46 74T40 107Q37 165 35 210T32 294T30 375T33 465T41 578Q41 578 43 589T53 616T81 641T135 649Q167 647 185 634T212 604T223 576T226 564Q225 442 222 345T223 167Q257 171 282 175T334 186T396
198Q396 198 406 198T431 198T463 191T493 175T512 145Q520 116 516 96T502 64T485 47T477 41Q428 32 388 24T311 11T237 3T155 2Z" />
<glyph unicode="M" horiz-adv-x="777" d="M136 5Q106 7 88 19T59 48T45 76T41 88Q35 142 33 197T30 308T33 421T41 540Q41 540 43 549T53 571T74 594T111 606Q133 608 163 602T220 566Q245 536 264 514T298 473T330 432T368 383Q394 409 413 431T453 478T499 536T565
619Q565 619 575 628T605 646T656 649Q690 645 709 630T736 599T745 570T747 557Q743 517 742 472T740 378T740 280T742 180T747 81Q747 81 745 69T735 42T709 15T659 5Q629 6 610 18T580 45T566 72T562 84Q557 115 555 143T553 197T553 249T555 302Q539 280 524
262T480 220Q452 196 414 186T335 191Q325 197 308 206T268 236T219 297Q219 262 219 242T218 208T217 180T219 142T223 77Q223 77 222 66T212 39T186 14T136 5Z" />
<glyph unicode="N" horiz-adv-x="646" d="M134 5Q104 7 86 18T57 45T43 71T39 82Q33 136 32 192T30 304T33 415T37 524Q37 524 39 537T54 566T96 591Q113 597 132 594T166 585T182 578Q212 558 250 521T332 434T423 328Q423 355 422 381T421 436T424 503T430 592Q430
592 432 601T443 621T468 641T514 649Q547 648 566 637T596 610T611 577T615 550T615 539Q611 499 609 455T607 365T606 272T608 175T613 77Q613 77 612 68T605 45T585 21T545 5Q516 0 494 11T459 36T447 49Q447 49 438 59T413 86T377 126T334 173T290 222T249
267T216 305Q216 274 216 244T218 174T221 75Q221 75 219 64T209 39T183 14T134 5Z" />
<glyph unicode="O" horiz-adv-x="734" d="M308 -7Q245 -7 193 16T103 80T46 178T31 303Q34 371 57 434T122 547T220 626T347 656Q398 656 450 646T549 611T632 547T688 449T703 310Q700 246 675 196T609 107T518 44T413 6T308 -7ZM344 176Q365 176 386 182T426
200T462 231T488 275T499 331Q501 373 490 402T460 448T415 474T364 482Q339 482 316 469T276 434T248 381T235 318Q233 274 246 242T284 193T344 176Z" />
<glyph unicode="P" horiz-adv-x="578" d="M135 5Q102 7 83 20T53 49T40 78T37 91Q35 119 34 161T31 255T30 362T33 473T39 576Q39 576 40 585T48 608T72 632T120 649Q243 659 333 648T473 590Q522 544 538 485T540 369T479 267Q460 248 432 233T370 209T297 197T216
200L220 73Q220 73 218 62T206 38T181 14T135 5ZM216 365Q252 362 277 365T318 377T341 399T349 430Q349 454 340 469T313 492T273 502T220 501Q217 467 216 433T216 365Z" />
<glyph unicode="Q" horiz-adv-x="734" d="M308 -7Q245 -7 193 16T103 80T46 178T31 303Q34 371 57 434T122 547T220 626T347 656Q398 656 450 646T549 611T632 547T688 449T703 310Q700 246 675 196T609 107T518 44T413 6T308 -7ZM449 -134Q420 -141 398 -136T361
-119T338 -99T330 -89Q308 -30 294 13T271 97T253 185Q253 185 254 194T260 217T276 240T306 253Q332 256 350 247T378 229T388 219Q401 199 421 158T465 64T508 -47Q508 -47 509 -57T508 -83T491 -113T449 -134ZM344 176Q365 176 386 182T426 200T462 231T488
275T499 331Q501 373 490 402T460 448T415 474T364 482Q339 482 316 469T276 434T248 381T235 318Q233 274 246 242T284 193T344 176Z" />
<glyph unicode="R" horiz-adv-x="578" d="M135 5Q102 7 83 20T53 49T40 78T37 91Q35 119 34 161T31 255T30 362T33 473T39 576Q39 576 40 585T48 608T72 632T120 649Q243 659 333 648T473 590Q522 544 538 485T540 369T479 267Q460 248 432 233T370 209T297 197T216
200L220 73Q220 73 218 62T206 38T181 14T135 5ZM382 41Q343 65 307 85T230 128T134 184Q133 190 147 202T183 227T226 253T262 274T277 282Q306 269 325 261T358 246T388 229T426 204T481 165Q481 165 487 159T501 142T513 116T515 83T494 46Q481 30 462 27T425
27T394 36T382 41ZM216 375Q250 372 273 375T310 386T331 407T339 436Q339 458 331 472T306 493T268 502T220 501Q217 469 216 438T216 375Z" />
<glyph unicode="S" horiz-adv-x="557" d="M316 1Q258 0 215 5T144 20T102 35T88 42Q88 42 80 47T61 61T42 84T31 114T39 150Q50 171 65 179T95 188T120 187T130 185Q163 173 198 168T263 164T312 172T333 191Q333 197 325 203T299 216T258 231T204 252Q186 259
162 274T115 310T73 357T48 414T48 479T86 550Q117 587 153 608T227 640T300 651T362 651T406 645T422 641Q422 641 432 638T458 628T488 610T511 580T517 537Q513 509 499 496T469 480T440 478T427 480Q394 491 360 487T297 471T253 445T239 421Q242 411 263 401T317
378T383 349T448 312T495 264Q525 216 527 176T511 103T461 49T391 15T316 1Z" />
<glyph unicode="T" horiz-adv-x="613" d="M308 5Q276 5 257 18T228 47T215 76T212 89Q206 143 204 200T201 318T205 439T214 561Q214 561 216 571T225 595T250 618T297 628Q338 627 359 614T388 584T397 554T398 541Q394 500 392 455T390 363T389 266T392 169T396
74Q396 74 395 64T385 39T359 15T308 5ZM509 480Q470 483 421 485T319 489T219 491T134 492Q134 492 125 492T101 496T71 506T45 526T31 561Q28 583 35 597T54 619T80 630T102 635T111 636Q204 647 297 652T481 645Q481 645 491 643T517 634T547 618T572 591T583
551Q583 524 572 509T546 488T520 481T509 480Z" />
<glyph unicode="U" horiz-adv-x="628" d="M321 -3Q235 3 171 40T71 151T30 344V594Q30 594 32 603T42 623T66 644T110 653Q148 653 170 640T204 610T218 580T221 567L225 333Q226 275 239 239T272 185T311 163Q342 168 361 191T389 265T398 400L396 573Q396 573
396 584T403 609T426 635T477 646Q511 646 533 634T567 605T584 569T591 539T593 527L598 349Q598 277 586 215T543 104T458 28T321 -3Z" />
<glyph unicode="V" horiz-adv-x="608" d="M301 1Q243 11 204 39T138 115T95 230T63 383T31 575Q31 575 32 586T40 611T65 636T114 648Q147 649 167 637T199 609T215 580T219 567Q232 502 242 454T261 371T277 311T289 268T300 234Q302 238 309 257T327 310T348
386T368 479T383 584Q383 584 386 595T399 619T428 640T481 644Q520 638 540 623T567 590T576 559T577 546Q563 426 540 333T489 173T429 65T365 9T301 1Z" />
<glyph unicode="W" horiz-adv-x="961" d="M301 1Q243 11 204 39T138 115T95 230T63 383T31 575Q31 575 32 586T40 611T65 636T114 648Q147 649 167 637T199 609T215 580T219 567Q232 502 242 454T261 371T277 311T289 268T300 234Q302 238 309 257T327 310T348
386T368 479T383 584Q383 584 386 595T399 619T428 640T481 644Q520 638 540 623T567 590T576 559T577 546Q563 426 540 333T489 173T429 65T365 9T301 1ZM654 1Q596 11 557 39T491 115T448 230T416 383T384 575Q384 575 387 586T401 611T430 635T481 644Q501 643
518 630T549 598T569 567T577 553Q590 488 600 441T618 362T632 306T643 267T653 234Q655 238 662 257T680 310T701 386T721 479T736 584Q736 584 739 595T752 619T781 640T834 644Q873 638 893 623T920 590T929 559T930 546Q916 426 893 333T842 173T782 65T718
9T654 1Z" />
<glyph unicode="X" horiz-adv-x="637" d="M561 19Q535 6 511 10T467 25T437 48T426 59Q380 108 341 149T265 230T193 313T120 409T41 530Q41 530 37 541T31 568T38 602T74 631Q99 642 122 638T165 621T195 599T206 588Q251 532 294 480T383 375T479 263T589 133Q589
133 593 125T602 105T606 77T595 46T561 19ZM80 19Q56 33 47 48T36 79T39 106T47 125T52 133Q111 204 160 262T253 375T342 487T437 612Q437 612 444 619T465 634T498 644T543 635Q576 622 589 604T604 569T603 541T600 530Q548 445 502 377T411 251T317 138T211
20Q211 20 202 14T174 3T133 0T80 19Z" />
<glyph unicode="Y" horiz-adv-x="562" d="M277 212Q182 224 122 274T41 404T42 585Q42 585 46 595T61 618T91 639T140 642Q174 637 192 623T217 594T226 567T228 555Q224 470 229 426T257 377Q268 376 283 389T313 427T334 483T337 549Q337 549 335 560T335 588T351
620T395 641Q431 648 455 639T494 615T515 588T522 575Q535 519 530 459T496 346T414 256T277 212ZM285 4Q255 4 236 15T206 40T191 65T186 76Q175 135 176 193T183 305L368 300Q362 235 362 175T368 67Q368 67 367 58T358 36T333 14T285 4Z" />
<glyph unicode="Z" horiz-adv-x="547" d="M137 1Q126 -1 110 4T77 21T50 49T37 85T49 127Q78 168 102 205T153 283T212 373T287 487Q262 494 222 488T143 475Q143 475 133 475T108 477T78 486T52 508Q36 531 33 548T33 576T44 595T58 605T64 608Q148 646 241 648T424
627Q442 619 460 603T491 564T506 513T492 453Q468 411 451 382T421 331T393 286T359 237T311 171L416 175Q416 175 429 173T461 163T494 141T514 104Q520 76 512 59T491 33T468 22T457 19L137 1Z" />
<glyph unicode="[" horiz-adv-x="392" d="M189 8Q166 9 140 18T90 44T52 80T36 124Q33 183 32 245T30 370T31 491T36 598Q37 605 44 620T70 647T126 657Q166 658 203 658T275 655Q275 655 287 651T315 636T342 610T353 572Q352 548 341 535T315 516T290 510T279
509L208 506L204 145Q218 147 232 147T270 144L304 138Q304 138 313 133T334 118T354 93T361 57Q360 37 348 26T322 9T296 2T285 0L189 8Z" />
<glyph unicode="\" horiz-adv-x="468" d="M383 10Q348 -2 326 4T292 20T281 30Q253 94 216 177T133 358T33 567Q33 567 31 577T32 602T47 631T89 654Q115 662 133 658T162 644T179 626T185 617Q233 525 281 430T369 250T436 97Q436 97 437 87T436 63T421 34T383 10Z" />
<glyph unicode="]" horiz-adv-x="392" d="M107 0Q107 0 96 1T71 8T45 25T31 57Q30 78 38 93T58 118T79 133T88 138L122 144Q145 146 159 146T188 145L184 506L113 509Q113 509 102 510T77 516T52 534T39 572Q38 594 49 610T77 636T105 650T117 655Q152 657 189
657T266 657Q303 660 322 648T348 620T356 598Q359 549 360 491T362 371T361 246T356 124Q355 101 340 81T302 44T253 19T203 8L107 0Z" />
<glyph unicode="^" horiz-adv-x="362" d="M61 495Q43 508 37 520T31 543T33 560T36 567Q49 585 60 598T85 623T121 651Q130 659 148 662T187 662T224 646L305 594Q305 594 312 586T326 565T331 536T310 503Q297 492 282 490T254 489T232 495T223 498L182 531Q170
521 156 509T131 488Q131 488 121 485T94 482T61 495Z" />
<glyph unicode="_" horiz-adv-x="522" d="M35 51Q27 75 30 90T42 115T58 127T66 131Q105 140 161 147T282 156T415 146Q415 146 426 141T453 126T480 100T492 64Q492 37 481 22T456 -1T430 -10T419 -12Q367 -9 330 -6T261 -2T198 -1T122 -4Q122 -4 112 -4T86 1T56
17T35 51Z" />
<glyph unicode="`" horiz-adv-x="316" d="M201 491Q191 493 172 497T131 510T88 531T50 559Q50 559 45 564T35 580T30 602T39 630Q47 643 60 648T86 655T107 655T116 654Q136 650 163 643T240 614Q240 614 250 608T271 589T285 558T276 517Q269 504 257 498T232
491T210 490T201 491Z" />
<glyph unicode="a" horiz-adv-x="638" d="M294 -1Q239 -2 192 16T108 69T51 147T31 242Q32 301 52 348T108 428T191 480T294 499Q380 500 436 474T521 392T549 250Q549 200 536 156T493 77T414 22T294 -1ZM301 167Q318 167 333 174T359 195T378 226T385 262Q385
294 375 314T349 344T310 354Q294 354 280 345T254 322T237 289T231 252Q231 228 239 209T264 178T301 167ZM531 0Q502 0 483 9T455 27T446 36Q439 109 433 177T427 318T434 470Q434 470 443 478T471 495T522 500Q556 497 574 481T598 446T606 412T607 397Q603
346 601 312T598 245T601 173T606 71Q606 71 605 61T597 36T575 11T531 0Z" />
<glyph unicode="b" horiz-adv-x="651" d="M357 -1Q281 -1 231 19T154 75T115 155T103 250Q103 314 118 361T165 439T245 485T357 499Q412 498 459 480T543 429T599 348T620 242Q621 192 601 148T544 71T460 18T357 -1ZM132 0Q100 0 82 13T54 44T43 74T40 87Q36
131 34 179T31 280T31 385T35 490T42 591Q42 591 45 601T58 623T85 644T133 650Q165 647 184 633T212 602T225 572T229 559Q225 519 222 469T215 363T209 250T207 137T210 32Q210 32 204 24T182 8T132 0ZM332 168Q352 168 368 177T397 203T416 239T423 278Q423
308 411 324T383 346T355 353Q339 353 323 345T294 322T272 288T263 249Q263 228 271 210T296 180T332 168Z" />
<glyph unicode="c" d="M266 -9Q184 -5 134 25T60 107T31 224Q27 276 42 325T90 412T170 473T277 495Q331 494 368 481T429 448T465 409T483 376T488 363Q488 363 487 352T479 325T453 295Q439 285 418 280T375 277T343 293Q341 293 337 297T326 307T310 315T288
317Q268 314 257 306T239 287T231 264T228 243Q226 222 233 206T252 181T276 171Q287 171 298 173T321 180T342 188T356 193Q390 204 415 199T457 180T484 153Q501 130 501 112T498 82T493 71Q493 71 481 58T441 28T371 0T266 -9Z" />
<glyph unicode="d" horiz-adv-x="637" d="M294 -1Q239 -2 192 16T108 69T51 147T31 242Q32 301 52 348T108 428T191 480T294 499Q380 500 436 474T521 392T549 250Q549 200 536 156T493 77T414 22T294 -1ZM301 167Q318 167 333 174T359 195T378 226T385 262Q385
294 375 314T349 344T310 354Q294 354 280 345T254 322T237 289T231 252Q231 228 239 209T264 178T301 167ZM527 -1Q495 -1 475 11T443 41T427 70T422 83Q418 126 416 175T412 277T412 383T417 489T424 591Q424 591 427 601T439 623T466 644T514 650Q546 647 564
634T592 604T604 576T607 564Q606 526 605 480T602 382T601 278T602 171T606 69Q606 69 604 59T595 34T572 10T527 -1Z" />
<glyph unicode="e" horiz-adv-x="533" d="M243 -11Q177 2 136 28T72 90T41 166T31 246Q30 299 48 346T102 430T185 485T292 501Q351 497 391 478T455 431T490 371T502 309Q503 262 478 221T389 164Q373 160 353 159T312 158T271 159T236 162T211 165T201 166Q205
161 213 151T238 132T285 125Q324 127 348 129T385 132T402 135T407 136Q407 136 415 136T437 134T465 125T489 102Q501 85 500 72T493 48T481 33T474 28Q474 28 454 19T400 0T325 -14T243 -11ZM207 282L310 283Q310 283 313 283T323 285T334 290T343 300T347 317Q347
333 341 344T320 360T279 363Q264 362 251 353T227 331T211 305T207 282Z" />
<glyph unicode="f" horiz-adv-x="517" d="M193 -1Q154 -1 132 12T100 43T87 73T84 86Q81 146 80 192T78 279T79 362T83 453Q90 510 110 547T161 605T225 635T292 647Q337 646 374 631T439 593T481 545Q481 545 484 536T487 512T477 484T441 458Q425 452 409 454T382
460T371 464Q355 471 341 480T311 485Q300 483 288 456T273 379Q271 311 272 261T274 164T276 61Q276 61 274 52T263 30T238 8T193 -1ZM475 315Q474 292 464 279T440 260T416 253T405 251Q316 253 233 254T78 268Q78 268 67 272T45 287T31 314Q28 335 35 348T52
370T70 382T79 386Q123 391 159 395T230 401T303 404T391 403Q391 403 404 399T434 384T463 357T475 315Z" />
<glyph unicode="g" horiz-adv-x="686" d="M403 -214Q333 -218 271 -205T155 -165Q155 -165 144 -159T120 -141T101 -110T102 -68Q110 -44 125 -34T156 -22T183 -21T195 -23Q230 -32 254 -38T299 -48T343 -53Q390 -51 415 -38T450 2T459 70Q463 138 463 186T459
275T451 357T441 455Q441 455 447 466T471 487T521 498Q554 499 576 484T610 455T621 440Q639 366 647 300T655 162T652 0Q642 -101 583 -154T403 -214ZM294 -1Q239 -2 192 16T108 69T51 147T31 242Q32 301 52 348T108 428T191 480T294 499Q380 500 436 474T521
392T549 250Q549 200 536 156T493 77T414 22T294 -1ZM301 167Q318 167 333 174T359 195T378 226T385 262Q385 294 375 314T349 344T310 354Q294 354 280 345T254 322T237 289T231 252Q231 228 239 209T264 178T301 167Z" />
<glyph unicode="h" horiz-adv-x="617" d="M462 9Q434 15 418 29T393 59T383 85T380 96Q385 138 389 167T393 222T386 279Q381 292 373 309T356 326Q322 321 299 299T261 244T236 176T220 111T209 61Q201 43 193 48T177 74T163 125T153 184T148 237T149 269L98
295L142 363Q164 409 190 434T243 472T297 487T349 491Q398 488 445 461T527 390T576 292Q590 232 586 175T569 49Q569 49 564 41T546 23T513 8T462 9ZM146 -1Q114 -1 94 11T62 41T46 70T41 83Q37 126 35 175T31 277T31 383T36 489T43 591Q43 591 46 601T58 623T85
644T133 650Q165 647 183 634T211 604T223 576T226 564Q225 526 224 480T221 382T220 278T221 171T225 69Q225 69 223 59T214 34T191 10T146 -1Z" />
<glyph unicode="i" horiz-adv-x="261" d="M136 1Q109 3 91 13T62 38T47 62T42 72Q36 126 34 168T31 248T33 332T41 437Q41 437 43 447T54 469T80 491T128 500Q161 499 180 486T208 457T221 428T224 415Q221 367 220 328T218 251T219 170T223 70Q223 70 221 59T211
34T186 9T136 1ZM135 511Q91 510 65 536T38 600Q38 653 64 672T134 692Q178 692 204 665T231 600Q231 576 223 556T194 524T135 511Z" />
<glyph unicode="j" horiz-adv-x="261" d="M136 -176Q109 -174 91 -164T62 -139T47 -115T42 -105Q38 -62 35 -9T31 102T31 218T34 333T41 437Q41 437 43 447T54 469T80 491T128 500Q161 499 180 486T208 457T221 428T224 415Q222 377 221 327T219 220T218 105T219
-8T223 -107Q223 -107 221 -118T211 -143T186 -168T136 -176ZM135 511Q91 510 65 536T38 600Q38 653 64 672T134 692Q178 692 204 665T231 600Q231 576 223 556T194 524T135 511Z" />
<glyph unicode="k" horiz-adv-x="530" d="M449 14Q422 5 400 8T361 22T337 40T328 49Q301 82 284 102T256 135T236 154T217 168T191 182L152 372Q209 376 246 394T306 433T342 468Q342 468 350 474T374 487T409 492T455 477Q480 462 489 443T498 406T494 375T490
363Q477 334 455 309T405 264T350 235T299 226L296 285Q333 277 366 254T425 202T470 146T496 102Q496 102 498 92T500 67T487 38T449 14ZM146 -1Q114 -1 94 11T62 41T46 70T41 83Q37 126 35 175T31 277T31 383T36 489T43 591Q43 591 46 601T58 623T85 644T133
650Q165 647 183 634T211 604T223 576T226 564Q225 526 224 480T221 382T220 278T221 171T225 69Q225 69 223 59T214 34T191 10T146 -1Z" />
<glyph unicode="l" horiz-adv-x="256" d="M146 -1Q114 -1 94 11T62 41T46 70T41 83Q37 126 35 175T31 277T31 383T36 489T43 591Q43 591 46 601T58 623T85 644T133 650Q165 647 183 634T211 604T223 576T226 564Q225 526 224 480T221 382T220 278T221 171T225
69Q225 69 223 59T214 34T191 10T146 -1Z" />
<glyph unicode="m" horiz-adv-x="989" d="M464 7Q431 16 415 34T394 73T389 107T390 122Q398 172 396 222T377 303Q364 324 341 329T291 325T244 294Q224 273 218 246T211 192T209 150Q208 129 208 119T207 103T206 86Q206 86 206 78T200 58T181 37T139 26Q117
25 100 37T72 62T62 75Q53 87 51 99T49 131T48 183Q42 223 41 248T43 291T56 326T81 368Q104 396 138 422T214 466T298 491T380 486Q402 480 430 468T486 432T539 370T578 276Q589 229 589 185T579 76Q579 76 576 62T562 32T528 6T464 7ZM136 1Q109 3 91 13T62
38T47 62T42 72Q36 126 34 168T31 248T33 332T41 437Q41 437 43 447T54 469T80 491T128 500Q161 499 180 486T208 457T221 428T224 415Q221 367 220 328T218 251T219 170T223 70Q223 70 221 59T211 34T186 9T136 1ZM834 7Q801 16 785 34T764 73T759 107T760 122Q768
172 766 222T747 303Q734 324 711 329T661 325T614 294Q594 273 588 246T581 192T579 150Q578 129 578 119T578 103T576 86Q576 86 576 78T570 58T551 37T509 26Q487 25 470 37T442 62T432 75Q423 87 421 99T419 131T418 183Q412 223 411 248T413 291T426 326T451
368Q474 396 508 422T584 466T668 491T750 486Q772 480 800 468T856 432T909 370T948 276Q959 229 959 185T949 76Q949 76 946 62T932 32T898 6T834 7Z" />
<glyph unicode="n" horiz-adv-x="619" d="M464 7Q431 16 415 34T394 73T389 107T390 122Q398 172 396 222T377 303Q364 324 341 329T291 325T244 294Q224 273 218 246T211 192T209 150Q208 129 208 119T207 103T206 86Q206 86 206 78T200 58T181 37T139 26Q117
25 100 37T72 62T62 75Q53 87 51 99T49 131T48 183Q42 223 41 248T43 291T56 326T81 368Q104 396 138 422T214 466T298 491T380 486Q402 480 430 468T486 432T539 370T578 276Q589 229 589 185T579 76Q579 76 576 62T562 32T528 6T464 7ZM136 1Q109 3 91 13T62
38T47 62T42 72Q36 126 34 168T31 248T33 332T41 437Q41 437 43 447T54 469T80 491T128 500Q161 499 180 486T208 457T221 428T224 415Q221 367 220 328T218 251T219 170T223 70Q223 70 221 59T211 34T186 9T136 1Z" />
<glyph unicode="o" horiz-adv-x="607" d="M301 -1Q243 -1 194 18T108 70T51 148T30 242Q30 292 49 338T104 421T188 479T295 500Q353 500 404 485T494 439T555 361T577 250Q577 200 556 155T497 74T409 19T301 -1ZM297 165Q314 165 329 172T357 192T376 221T383
255Q383 286 373 305T346 334T305 344Q288 344 274 336T248 313T231 282T224 247Q224 223 233 205T258 176T297 165Z" />
<glyph unicode="p" horiz-adv-x="651" d="M357 -1Q281 -1 231 19T154 75T115 155T103 250Q103 314 118 361T165 439T245 485T357 499Q412 498 459 480T543 429T599 348T620 242Q621 192 601 148T544 71T460 18T357 -1ZM147 -215Q115 -215 95 -203T63 -174T48 -145T43
-132Q39 -89 36 -33T31 84T30 209T33 330T40 437Q40 437 43 447T55 470T82 491T130 497Q162 494 180 481T208 451T220 423T223 411Q222 373 221 321T220 208T220 85T222 -37T227 -145Q227 -145 225 -155T216 -180T192 -204T147 -215ZM333 168Q352 168 368 178T397
204T416 239T423 278Q423 308 411 324T383 346T355 353Q339 353 323 345T294 322T272 289T263 249Q263 228 271 210T296 180T333 168Z" />
<glyph unicode="q" horiz-adv-x="636" d="M294 -1Q239 -2 192 16T108 69T51 147T31 242Q32 301 52 348T108 428T191 480T294 499Q380 500 436 474T521 392T549 250Q549 200 536 156T493 77T414 22T294 -1ZM301 167Q318 167 333 174T359 195T378 226T385 262Q385
294 375 314T349 344T310 354Q294 354 280 345T254 322T237 289T231 252Q231 228 239 209T264 178T301 167ZM526 -216Q493 -217 473 -205T441 -176T426 -146T422 -133Q418 -90 415 -34T412 83T412 208T416 329T423 437Q423 437 426 447T438 469T465 490T513 496Q545
493 563 480T591 451T603 423T606 411Q605 373 604 320T601 207T600 84T601 -38T605 -146Q605 -146 603 -156T594 -180T571 -205T526 -216Z" />
<glyph unicode="r" horiz-adv-x="540" d="M123 40Q98 38 85 54T66 93T59 133T58 151Q50 184 48 203T46 232T48 250T50 266Q54 325 79 371T144 448T230 489Q293 501 341 495T424 472T479 435Q479 435 485 429T498 411T509 384T507 353T483 320Q467 305 445 305T402
310T367 323T353 330Q341 336 317 333T268 316Q251 303 236 288T218 252Q216 231 214 212T211 175T210 137T211 93Q211 93 204 81T178 57T123 40ZM136 1Q109 3 91 13T62 38T47 62T42 72Q36 126 34 168T31 248T33 332T41 437Q41 437 43 447T54 469T80 491T128 500Q161
499 180 486T208 457T221 428T224 415Q221 367 220 328T218 251T219 170T223 70Q223 70 221 59T211 34T186 9T136 1Z" />
<glyph unicode="s" horiz-adv-x="496" d="M208 134Q250 128 250 137T215 165Q199 174 181 184T146 208T113 240T87 281T70 336Q62 383 86 421T161 481T280 500T430 461Q430 461 436 457T450 443T463 420T465 388Q462 374 454 366T435 354T418 349T410 348Q410
348 406 348T395 348T378 347T355 346T327 345T295 343Q276 342 265 340T253 332T268 313T318 279Q368 249 398 213T437 139T431 66Q419 38 387 21T312 -2T221 -2T129 24T52 77Q52 77 47 84T36 102T30 126T43 153Q54 165 68 168T97 169T120 163T129 159Q129 159
135 156T152 149T177 140T208 134Z" />
<glyph unicode="t" horiz-adv-x="520" d="M260 -1Q228 -1 208 11T176 41T161 70T156 83Q152 126 149 175T146 277T146 383T150 489T157 591Q157 591 160 601T172 623T199 644T247 650Q279 647 297 634T325 604T337 576T340 564Q339 526 338 480T335 382T334 278T335
171T339 69Q339 69 337 59T328 34T305 10T260 -1ZM403 333Q324 334 254 336T129 340Q129 340 116 342T83 351T49 373T31 414Q28 437 37 451T59 472T83 483T94 486Q102 487 124 488T177 490T244 491T316 492T384 493Q384 493 395 492T422 487T453 474T479 448T489
407Q488 377 475 361T445 340T416 334T403 333Z" />
<glyph unicode="u" horiz-adv-x="618" d="M239 7Q217 12 189 25T133 62T80 124T41 219Q31 267 31 312T40 422Q40 422 43 436T57 467T91 493T154 492Q188 483 204 464T225 425T230 391T229 376Q220 326 222 275T242 191Q252 176 267 170T301 164T334 171T357 186Q363
195 365 223T365 284T356 336Q350 358 346 373T341 400T338 426Q338 426 339 436T347 459T371 484T419 497Q449 500 472 487T510 461T524 447Q538 429 556 393T582 311Q590 257 587 219T572 149T537 85Q514 57 480 37T404 7T321 -4T239 7Z" />
<glyph unicode="v" horiz-adv-x="572" d="M277 -2Q263 -1 243 4T200 21T157 57T122 116L32 386Q32 386 31 399T34 430T52 463T97 482Q127 486 148 478T184 458T206 436T213 426L239 350Q259 297 268 262T283 217Q284 216 294 236T315 280Q326 309 332 329T343
368T352 413Q352 413 355 424T367 450T397 475T453 481Q490 477 509 462T534 429T541 398T541 384Q540 353 533 321T517 259T498 209T483 180Q455 109 420 69T348 12T277 -2Z" />
<glyph unicode="w" horiz-adv-x="900" d="M277 -2Q263 -1 243 4T200 21T157 57T122 116L32 386Q32 386 31 399T34 430T52 463T97 482Q127 486 148 478T184 458T206 436T213 426L239 350Q259 297 268 262T283 217Q284 216 294 236T315 280Q326 309 332 329T343
368T352 413Q352 413 355 424T367 450T397 475T453 481Q490 477 509 462T534 429T541 398T541 384Q540 353 533 321T517 259T498 209T483 180Q455 109 420 69T348 12T277 -2ZM605 -2Q591 -1 571 4T528 21T485 57T450 116L360 386Q360 386 359 399T362 430T380 463T425
482Q455 486 476 478T512 458T534 436T541 426L567 350Q587 297 596 262T611 217Q612 216 622 236T643 280Q654 309 660 329T671 368T680 413Q680 413 683 424T695 450T725 475T781 481Q818 477 837 462T862 429T869 398T869 384Q867 343 856 300T832 224T811 180Q783
109 748 69T676 12T605 -2Z" />
<glyph unicode="x" horiz-adv-x="554" d="M74 10Q50 26 41 43T31 76T34 104T43 124T48 131Q77 163 95 181T129 215T163 251Q145 273 133 286T111 311T88 339T55 384Q55 384 51 393T46 418T52 448T81 476Q101 487 120 487T154 483T179 473T188 468Q197 464 212
448T244 413T274 377Q299 408 313 425T336 453T354 473Q354 473 362 479T386 492T423 499T471 485Q502 469 513 449T524 411T519 380T514 368Q490 336 475 317T449 284T428 259T402 228Q431 191 451 167T484 128T506 98Q506 98 509 91T515 71T516 44T501 18T462
-4Q430 -15 405 -8T366 11T352 23L287 101Q271 82 248 60T194 8Q194 8 185 3T158 -7T120 -9T74 10Z" />
<glyph unicode="y" horiz-adv-x="639" d="M357 -214Q287 -218 225 -205T108 -165Q108 -165 97 -159T73 -141T54 -110T55 -68Q63 -44 78 -34T110 -22T137 -21T149 -23Q184 -32 208 -38T253 -48T297 -53Q344 -51 369 -38T404 2T413 70Q417 138 417 186T413 275T405
357T395 455Q395 455 401 466T424 487T474 498Q508 499 530 484T563 455T575 440Q593 366 600 300T608 162T605 0Q595 -101 536 -154T357 -214ZM220 12Q178 31 141 60T78 128T43 212Q35 250 33 280T32 343T42 418Q42 418 45 429T58 456T86 482T133 491Q168 488
188 476T218 446T230 411T232 383T231 372Q224 314 227 274T239 212T256 181Q268 171 294 171T363 189Q368 191 379 205T401 243T411 298L550 325Q564 244 549 183T496 78Q467 46 424 24T329 -2T220 12Z" />
<glyph unicode="z" horiz-adv-x="556" d="M144 -1Q97 3 74 23T45 69T47 118T70 153L233 302Q235 305 239 308T244 313T241 317T219 318Q197 317 182 316T155 313T126 310Q126 310 115 311T89 318T59 334T37 364Q28 388 30 404T40 430T54 444T61 448Q136 477 211
483T378 479Q397 475 420 466T465 441T497 398T500 335Q497 319 486 303T457 269T420 234T379 199T338 163L421 168Q421 168 435 167T468 161T504 141T524 101Q529 70 521 52T500 25T477 13T466 10L144 -1Z" />
<glyph unicode="{" horiz-adv-x="326" d="M221 8Q221 8 209 7T178 6T136 17T91 47T52 107Q43 127 43 151T45 200T51 244T53 271Q53 271 47 276T35 292T31 318Q33 334 41 343T56 356T63 361Q63 361 63 364T64 376T63 406T59 459Q58 474 58 493T64 534T80 576T110
611T160 635T232 640Q232 640 241 637T262 626T284 608T295 581Q297 560 290 549T275 534T267 530Q267 530 262 529T250 523T236 512T227 493Q222 470 223 448T227 405T230 362T223 319T197 276Q197 276 200 263T205 227T205 179Q205 175 205 163T210 141T236 128Q236
128 243 126T259 117T275 98T281 66Q280 50 271 39T251 21T230 11T221 8Z" />
<glyph unicode="|" horiz-adv-x="258" d="M137 3Q105 3 86 16T57 45T44 74T41 87Q37 130 35 178T31 277T31 380T36 483T43 582Q43 582 45 592T54 616T79 640T126 649Q159 649 179 638T209 610T223 578T227 550T227 539Q223 499 221 454T219 361T218 265T221 168T225
72Q225 72 224 62T214 37T188 13T137 3Z" />
<glyph unicode="}" horiz-adv-x="326" d="M105 8Q105 8 96 11T76 20T55 38T45 66Q44 86 51 98T67 116T83 125T90 128Q109 130 115 140T122 163T121 179Q119 205 121 227T126 262T129 276Q110 298 103 319T96 361T98 404T102 448T99 493Q96 505 90 512T77 523T64
528T59 530Q59 530 52 534T37 549T31 581Q32 596 41 607T63 626T85 636T94 640Q137 643 166 635T215 612T246 576T262 535T267 494T267 459Q264 426 263 406T262 377T262 364T263 361Q263 361 270 357T285 343T295 318Q297 303 292 293T280 277T273 271Q272 263
275 244T281 201T284 152T274 107Q257 69 235 48T190 17T148 7T117 6T105 8Z" />
<glyph unicode="~" horiz-adv-x="439" d="M129 243Q113 236 97 239T71 249T61 256Q37 275 33 299T37 346T65 384T109 403Q148 408 174 403T221 387T266 363Q269 362 270 367T276 378Q276 378 283 385T307 398T349 396Q376 389 388 377T405 351T408 330T407 321Q406
304 388 279T338 245Q318 239 298 238T259 241T217 255Q205 260 193 266T172 279T157 288Q157 288 157 280T151 262T129 243Z" />
<glyph unicode="&#xa0;" horiz-adv-x="260" />
<glyph unicode="&#xa1;" horiz-adv-x="277" d="M142 -2Q107 -1 85 11T52 40T36 74T32 102T31 114Q39 170 43 207T52 274T63 338T79 421Q79 421 84 431T104 451T144 456Q170 453 184 440T203 415T209 403Q217 356 224 308T235 202T239 68Q239 68 237 57T226 32T197
8T142 -2ZM146 480Q118 480 95 491T58 522T44 566Q44 599 57 618T94 645T146 653Q174 653 197 642T233 610T247 566Q247 542 234 523T197 492T146 480Z" />
<glyph unicode="&#xa2;" horiz-adv-x="534" d="M266 72Q184 76 134 106T60 188T31 305Q27 358 42 406T90 493T170 554T277 576Q331 575 368 562T429 530T465 491T483 458T488 445Q488 445 489 436T488 414T478 390T453 376Q428 372 411 379T384 395T374 404Q374
404 369 411T352 428T324 443T285 443Q271 440 255 432T225 410T202 375T190 323Q188 283 196 261T218 227T245 213T267 209Q294 205 317 209T358 222T384 237T394 244Q394 244 407 248T440 251T481 231Q497 217 501 203T503 178T497 159T493 152Q493 152 481 139T441
109T371 81T266 72ZM283 -32Q262 -33 247 -23T225 -3T217 8Q212 18 205 38T192 79T185 116H367Q368 99 366 77T359 34T349 4Q349 4 343 -4T323 -21T283 -32ZM187 544Q186 562 188 584T195 627T205 657Q205 657 211 665T231 682T271 692Q292 694 307 684T329 664T337
653Q343 643 350 623T362 582T369 544H187Z" />
<glyph unicode="&#xa3;" horiz-adv-x="509" d="M132 2Q90 4 68 23T41 69T48 116Q62 135 68 144T77 167T80 210Q80 240 76 273T67 340T62 409T68 478Q75 520 99 557T164 619T262 645Q291 645 325 635T390 603T437 544Q437 544 441 534T445 508T437 480T403 460Q383
456 367 460T341 471T331 478Q323 485 313 490T293 497Q287 497 277 491T257 473T244 448Q239 431 239 406T242 350T250 283T259 205Q260 194 262 178T253 144Q282 147 297 148T322 151T346 152T384 152Q384 152 393 151T417 145T445 132T468 110T478 75Q479 49
469 35T444 15T420 8T409 6Q397 6 366 6T294 4T210 3T132 2ZM82 243Q80 243 69 248T47 264T32 295Q29 310 33 320T46 337T60 347T66 350Q96 356 138 361T227 371T317 374Q317 374 327 374T352 370T382 360T407 338T419 300Q420 273 409 259T382 240T355 235T343
234Q300 235 251 237T158 241T82 243Z" />
<glyph unicode="&#xa5;" horiz-adv-x="562" d="M277 212Q182 224 122 274T41 404T42 585Q42 585 46 595T61 618T91 639T140 642Q174 637 192 623T217 594T226 567T228 555Q224 470 229 426T257 377Q268 376 283 389T313 427T334 483T337 549Q337 549 335 560T335
588T351 620T395 641Q431 648 455 639T494 615T515 588T522 575Q535 519 530 459T496 346T414 256T277 212ZM168 40Q163 40 149 41T119 49T95 78Q89 94 92 104T102 121T115 129T121 132Q171 141 233 150T381 148Q381 148 390 145T413 134T435 117T445 92Q445 73
436 63T414 47T393 41T383 39Q348 41 325 42T285 43T253 44T217 43T168 40ZM285 4Q255 4 236 15T206 40T191 65T186 76Q175 135 176 193T183 305L368 300Q362 235 362 175T368 67Q368 67 367 58T358 36T333 14T285 4ZM168 168Q164 168 155 168T134 171T112 182T95
205Q88 222 91 232T101 248T114 256T121 259Q171 269 233 277T381 275Q381 275 390 272T413 261T435 244T445 219Q445 200 436 190T414 174T393 168T383 166Q348 168 325 169T285 171T253 172T217 171T168 168Z" />
<glyph unicode="&#xa6;" horiz-adv-x="249" d="M131 301Q104 303 86 313T57 338T42 362T37 372Q33 411 32 450T31 535T36 637Q36 637 38 647T49 669T75 691T123 700Q156 699 175 686T203 657T216 628T219 615Q216 544 216 487T218 370Q218 370 216 359T206 334T181
309T131 301ZM131 -129Q104 -127 86 -117T57 -92T42 -68T37 -58Q33 -19 32 20T31 105T36 207Q36 207 38 217T49 239T75 261T123 270Q156 269 175 256T203 227T216 198T219 185Q216 114 216 57T218 -60Q218 -60 216 -71T206 -96T181 -121T131 -129Z" />
<glyph unicode="&#xa7;" horiz-adv-x="414" d="M216 -10Q188 -10 156 1T96 30T49 71T30 118Q30 138 45 148T73 159Q92 159 106 152T134 137T160 121T190 114Q194 114 196 115T200 118T201 123Q201 135 190 147T163 172T131 200T104 235T93 279Q93 298 100 321T131
365Q99 386 82 411T58 461T52 508Q52 540 63 566T94 610T142 637T206 647Q243 647 277 632T337 595T376 550Q376 550 379 541T383 519Q383 500 372 487T343 474Q331 474 323 477T314 481Q297 486 285 494T261 510T235 517Q227 517 221 515T211 508T207 497Q207
482 219 469T250 444T289 418T325 388Q338 375 345 362T353 331Q353 324 351 318T346 308T339 300T328 293Q314 286 296 283T266 276T253 264Q253 254 263 246T289 227T321 204T347 170T358 121Q358 75 338 46T286 4T216 -10Z" />
<glyph unicode="&#xa8;" horiz-adv-x="474" d="M343 478Q315 478 292 489T255 520T241 564Q241 588 255 608T292 639T343 651Q371 651 394 640T430 608T444 564Q444 516 415 497T343 478ZM131 478Q103 478 80 489T44 520T30 564Q30 588 43 608T80 639T131 651Q160
651 183 640T219 608T233 564Q233 532 220 513T183 486T131 478Z" />
<glyph unicode="&#xa9;" horiz-adv-x="697" d="M350 0Q239 0 169 44T64 163T30 327Q30 417 68 490T178 606T350 649Q396 649 441 631T527 582T599 508T649 415T667 311Q667 222 632 152T527 41T350 0ZM343 132Q281 136 244 159T188 221T167 309Q163 362 184 409T249
485T352 513Q403 513 434 498T481 464T504 429T510 414Q510 414 510 403T506 379T483 362Q465 359 452 364T432 377T425 384Q425 384 421 389T408 402T387 413T357 413Q347 410 335 404T313 388T295 361T286 322Q285 292 291 275T308 249T328 239T344 236Q365 233
382 236T413 246T433 258T440 263Q440 263 450 266T475 268T505 253Q521 239 522 225T519 202T514 193Q514 193 505 183T475 161T423 139T343 132ZM351 101Q421 101 466 129T535 205T558 315Q558 362 540 403T492 478T426 530T351 549Q286 549 239 519T167 439T142
326Q142 264 164 213T232 132T351 101Z" />
<glyph unicode="&#xaa;" horiz-adv-x="317" d="M147 281Q115 281 88 295T46 334T30 389Q31 424 46 449T88 488T147 503Q205 504 232 477T260 392Q260 363 250 338T215 298T147 281ZM150 356Q160 356 168 361T182 377T188 398Q188 419 178 429T154 439Q145 439
137 432T124 415T119 393Q119 377 127 367T150 356ZM252 281Q233 281 224 289T215 297Q210 346 208 391T209 490Q209 490 218 497T248 503Q269 501 276 490T285 469T286 458Q284 428 283 410T283 371T286 313Q286 313 285 305T276 290T252 281Z" />
<glyph unicode="&#xab;" horiz-adv-x="614" d="M535 71Q518 60 500 62T465 71T439 86T429 93Q408 116 393 130T365 161T334 204Q305 241 297 266T291 311T302 344Q315 371 335 405T382 475T441 539Q441 539 448 546T470 562T504 571T545 560Q567 548 575 535T583
510T581 491T578 483Q557 448 539 422T503 372T467 317Q450 280 471 252L549 170Q549 170 554 164T564 148T570 125T564 98T535 71ZM275 71Q258 60 240 62T205 71T179 86T169 93Q148 116 133 130T105 161T74 204Q45 241 37 266T31 311T42 344Q55 371 75 405T122
475T181 539Q181 539 188 546T210 562T244 571T285 560Q307 548 315 535T323 510T321 491T318 483Q297 448 279 422T243 372T207 317Q190 280 211 252L289 170Q289 170 294 164T304 148T310 125T304 98T275 71Z" />
<glyph unicode="&#xac;" horiz-adv-x="712" d="M583 9Q562 13 552 26T537 56T533 83T532 95Q532 128 534 153T538 203T538 257Q500 255 457 254T368 253T277 254T191 258T114 263Q114 263 102 266T73 279T45 308T31 358Q30 389 41 407T67 433T93 444T105 447Q154
444 204 443T305 440T403 439T496 441T582 447Q582 447 595 446T625 436T657 411T675 360Q682 312 682 259T675 153T653 55Q653 55 650 47T640 28T619 12T583 9Z" />
<glyph unicode="&#xae;" horiz-adv-x="584" d="M299 127Q208 127 149 163T60 260T30 392Q30 464 61 522T152 615T293 649Q340 649 386 628T471 569T531 483T554 380Q554 309 527 252T444 161T299 127ZM301 226Q349 226 380 246T428 303T444 384Q444 418 432 448T399
503T353 541T301 555Q256 555 224 533T174 474T156 392Q156 347 171 309T219 249T301 226ZM244 254Q226 255 218 264T207 281T204 290Q203 309 202 343T201 416T205 488Q205 488 206 494T214 508T238 518Q290 522 327 518T385 494Q416 466 416 427T388 361Q377
351 360 344T323 334T278 334L280 282Q280 282 278 275T268 261T244 254ZM347 269Q323 283 301 295T244 328Q244 331 253 337T274 351T295 363T304 368Q319 362 328 358T344 350T361 339T388 320Q388 320 394 314T403 296T394 271Q387 263 376 263T356 266T347
269ZM278 406Q297 405 308 407T324 416T329 431Q329 443 323 449T306 457T280 457Q279 444 279 432T278 406Z" />
<glyph unicode="&#xaf;" horiz-adv-x="486" d="M436 561Q436 534 425 519T400 496T374 487T363 485Q321 488 297 490T258 493T230 494T197 493T142 490Q142 490 132 490T106 495T76 511T55 545Q47 569 50 584T62 608T78 620T86 624Q115 631 143 637T201 648T270
652T359 643Q359 643 370 638T397 623T424 597T436 561Z" />
<glyph unicode="&#xb0;" horiz-adv-x="443" d="M222 286Q156 286 114 311T51 380T30 474Q30 526 53 568T119 635T222 659Q257 659 290 644T352 601T396 539T413 465Q413 388 366 337T222 286ZM196 409Q216 402 231 414T254 450Q260 466 259 481T251 507T234 522Q215
529 199 516T174 480Q167 456 171 436T196 409Z" />
<glyph unicode="&#xb2;" horiz-adv-x="273" d="M90 341Q80 340 68 346T48 364T45 390Q98 471 118 512T135 572Q134 574 131 577T121 582Q111 581 103 577T90 569Q90 569 83 565T64 561T41 571Q31 580 30 587T32 600T37 608Q53 625 73 636T129 650Q159 649 183
631T219 584T223 526Q218 507 212 490T195 452T165 407H205Q205 407 214 405T232 395T242 375Q243 362 237 356T224 347T217 344L90 341Z" />
<glyph unicode="&#xb3;" horiz-adv-x="254" d="M142 344Q128 343 110 347T75 360T48 382Q48 382 41 389T31 408T38 431Q47 442 58 442T78 438T87 434Q101 424 107 420T126 413Q138 416 140 424T141 442T135 457Q133 462 122 467T97 479Q88 482 84 492T83 512T103
526Q106 527 110 529T120 535T135 545Q138 548 140 560T137 576Q130 580 114 578T84 574Q84 574 77 575T62 580T48 592Q42 604 44 611T50 621T55 625Q72 634 86 638T113 642Q127 643 146 639T181 624Q196 614 206 595T219 554T209 517Q208 513 201 506T192 496Q199
488 209 475T223 437Q227 408 215 387T183 355T142 344Z" />
<glyph unicode="&#xb4;" horiz-adv-x="316" d="M114 486Q114 486 105 486T84 486T59 493T39 512Q27 535 30 553T45 583T66 602T76 609Q125 632 152 639T199 649Q199 649 208 650T230 650T256 644T277 626Q286 611 286 598T280 576T270 561T265 555Q249 539 228
527T184 507T144 493T114 486Z" />
<glyph unicode="&#xb6;" horiz-adv-x="812" d="M443 5Q415 4 398 14T372 37T361 62T358 73L362 200Q320 194 281 196T208 208T147 233T99 267Q53 311 38 368T39 485T105 590Q154 637 244 648T458 649Q489 644 506 633T530 608T538 586T539 576Q543 528 545 473T547
363T547 256T545 162T541 91Q541 91 538 79T525 50T496 20T443 5ZM675 5Q642 4 624 14T598 39T589 63T587 74Q589 120 591 168T593 266T594 362T591 455T585 541Q585 541 585 552T589 579T603 611T633 639T686 651Q716 651 733 641T757 618T767 595T769 584Q774
536 776 485T780 382T781 279T778 180T771 89Q771 89 768 77T755 48T726 18T675 5Z" />
<glyph unicode="&#xb7;" horiz-adv-x="263" d="M131 238Q103 238 80 250T44 281T30 325Q30 349 43 368T80 399T131 411Q160 411 183 400T219 369T233 325Q233 293 220 274T183 246T131 238Z" />
<glyph unicode="&#xb8;" horiz-adv-x="300" d="M155 -218Q121 -216 96 -202T49 -169Q49 -169 44 -163T35 -148T31 -127T44 -104Q56 -93 69 -92T91 -92T101 -95Q117 -101 124 -108T138 -120Q146 -122 151 -121T158 -118T161 -114Q157 -107 152 -101T142 -89Q138
-90 128 -86T108 -74T99 -62Q91 -42 92 -17T97 21Q97 21 100 29T113 47T144 55Q164 54 174 41T185 27Q187 22 192 10T198 -18Q203 -21 213 -29T236 -51T258 -80T269 -113Q274 -152 260 -176T218 -210T155 -218Z" />
<glyph unicode="&#xb9;" horiz-adv-x="251" d="M175 328Q152 329 142 341T130 365T127 378Q125 402 124 430T122 488T124 541L97 519Q97 519 90 516T71 512T45 523Q32 534 31 544T33 561T37 568L118 631Q138 650 157 651T189 650Q205 645 211 635T218 617T220
608Q218 583 218 553T217 491T218 428T220 367Q220 367 219 357T208 337T175 328Z" />
<glyph unicode="&#xba;" horiz-adv-x="307" d="M132 414Q86 414 57 446T31 527Q33 560 47 589T86 637T146 656Q169 656 193 650T236 630T267 591T276 530Q275 501 261 479T226 443T180 421T132 414ZM145 481Q158 481 170 487T192 505T202 537Q203 558 196 570T177
587T152 592Q140 592 130 584T113 563T105 533Q104 508 115 495T145 481Z" />
<glyph unicode="&#xbb;" horiz-adv-x="614" d="M339 71Q318 84 311 98T304 125T310 148T320 164T325 170L403 252Q424 280 407 317Q388 348 371 372T336 422T296 483Q296 483 294 490T291 510T299 535T329 560Q352 572 370 571T403 562T425 547T433 539Q465 510
491 475T538 406T572 344Q580 330 583 311T578 267T540 204Q523 178 510 162T482 131T445 93Q445 93 435 86T409 72T375 62T339 71ZM79 71Q58 84 51 98T44 125T50 148T60 164T65 170L143 252Q164 280 147 317Q128 348 111 372T76 422T36 483Q36 483 34 490T31 510T39
535T69 560Q92 572 110 571T143 562T165 547T173 539Q205 510 231 475T278 406T312 344Q320 330 323 311T318 267T280 204Q263 178 250 162T222 131T185 93Q185 93 175 86T149 72T115 62T79 71Z" />
<glyph unicode="&#xbc;" horiz-adv-x="669" d="M192 10Q166 19 154 33T139 62T137 87T139 97Q165 164 205 249T294 430T390 617Q390 617 395 625T412 643T442 657T486 654Q515 645 527 631T543 602T544 577T542 567Q488 457 442 359T359 177T294 30Q294 30 283
20T250 4T192 10ZM175 328Q152 329 142 341T130 365T127 378Q125 402 124 430T122 488T124 541L97 519Q97 519 90 516T71 512T45 523Q32 534 31 544T33 561T37 568L118 631Q138 650 157 651T189 650Q205 645 211 635T218 617T220 608Q218 583 218 553T217 491T218
428T220 367Q220 367 219 357T208 337T175 328ZM596 3Q575 3 564 13T548 35T543 46Q542 73 541 92T540 129T539 164T539 206L522 186Q519 182 510 174T502 164L562 171L575 98Q547 95 525 94T469 94Q432 100 417 116T401 152T412 186Q436 215 455 235T492 271Q512
292 529 306T558 327Q573 336 591 335T624 323T639 293Q637 267 636 237T634 173T635 107T637 42Q637 42 636 33T626 13T596 3Z" />
<glyph unicode="&#xbd;" horiz-adv-x="673" d="M192 10Q166 19 154 33T139 62T137 87T139 97Q165 164 205 249T294 430T390 617Q390 617 395 625T412 643T442 657T486 654Q515 645 527 631T543 602T544 577T542 567Q488 457 442 359T359 177T294 30Q294 30 283
20T250 4T192 10ZM175 328Q152 329 142 341T130 365T127 378Q125 402 124 430T122 488T124 541L97 519Q97 519 90 516T71 512T45 523Q32 534 31 544T33 561T37 568L118 631Q138 650 157 651T189 650Q205 645 211 635T218 617T220 608Q218 583 218 553T217 491T218
428T220 367Q220 367 219 357T208 337T175 328ZM490 1Q480 0 468 6T448 24T445 50Q498 131 518 172T535 232Q534 234 531 237T521 242Q511 241 503 237T490 229Q490 229 483 225T464 221T441 231Q431 240 430 247T432 260T437 268Q453 285 473 296T529 310Q559
309 583 291T619 244T623 186Q618 168 612 150T595 112T565 67H605Q605 67 614 65T632 55T642 35Q643 22 637 16T624 7T617 4L490 1Z" />
<glyph unicode="&#xbe;" horiz-adv-x="669" d="M192 10Q166 19 154 33T139 62T137 87T139 97Q165 164 205 249T294 430T390 617Q390 617 395 625T412 643T442 657T486 654Q515 645 527 631T543 602T544 577T542 567Q488 457 442 359T359 177T294 30Q294 30 283
20T250 4T192 10ZM142 344Q128 343 110 347T75 360T48 382Q48 382 41 389T31 408T38 431Q47 442 58 442T78 438T87 434Q101 424 107 420T126 413Q138 416 140 424T141 442T135 457Q133 462 122 467T97 479Q88 482 84 492T83 512T103 526Q106 527 110 529T120 535T135
545Q138 548 140 560T137 576Q130 580 114 578T84 574Q84 574 77 575T62 580T48 592Q42 604 44 611T50 621T55 625Q72 634 86 638T113 642Q127 643 146 639T181 624Q196 614 206 595T219 554T209 517Q208 513 201 506T192 496Q199 488 209 475T223 437Q227 408
215 387T183 355T142 344ZM596 3Q575 3 564 13T548 35T543 46Q542 73 541 92T540 129T539 164T539 206L522 186Q519 182 510 174T502 164L562 171L575 98Q547 95 525 94T469 94Q432 100 417 116T401 152T412 186Q436 215 455 235T492 271Q512 292 529 306T558 327Q573
336 591 335T624 323T639 293Q637 267 636 237T634 173T635 107T637 42Q637 42 636 33T626 13T596 3Z" />
<glyph unicode="&#xbf;" horiz-adv-x="560" d="M280 -2Q233 -2 186 12T101 56T44 130Q37 149 33 172T33 223T57 283T116 352Q155 379 173 396T196 426Q196 426 203 439T227 464T273 473Q303 469 319 457T343 431T351 406T353 395Q358 366 349 340T321 292T283
255Q258 230 245 214T227 186T221 163Q225 158 237 156T262 154T280 156Q297 159 316 163T344 171Q351 176 351 184T346 204T336 227Q336 227 335 237T337 262T355 285Q379 299 400 300T438 295T464 283T473 276Q527 221 529 173T496 74Q477 49 444 32T368 7T280
-2ZM273 483Q245 483 222 494T185 525T171 569Q171 602 185 621T222 648T273 656Q301 656 324 645T360 613T374 569Q374 545 361 526T324 495T273 483Z" />
<glyph unicode="&#xc0;" horiz-adv-x="608" d="M127 -1Q90 4 70 19T42 53T32 85T31 98Q33 175 53 255T100 417Q133 504 161 550T214 616T261 639T307 643Q324 646 348 636T398 605T446 553T479 480Q489 452 503 409T532 311T559 195T577 68Q577 68 576 57T568
32T544 6T495 -5Q463 -5 442 7T410 35T394 64T389 76Q376 133 370 173T357 235Q343 291 332 331T309 409Q303 388 293 360T272 302T256 249Q249 211 245 190T238 152T233 116T226 60Q226 60 223 50T209 26T180 4T127 -1ZM146 87L161 217Q208 228 251 234T341 242T440
239L457 87Q422 93 381 97T298 102T216 100T146 87ZM347 674Q337 676 318 680T277 693T234 714T196 742Q196 742 191 747T181 763T176 785T185 813Q193 826 206 831T232 838T253 838T262 837Q282 833 309 826T386 797Q386 797 396 791T417 772T431 741T422 700Q415
687 403 681T378 674T356 673T347 674Z" />
<glyph unicode="&#xc1;" horiz-adv-x="608" d="M127 -1Q90 4 70 19T42 53T32 85T31 98Q33 175 53 255T100 417Q133 504 161 550T214 616T261 639T307 643Q324 646 348 636T398 605T446 553T479 480Q489 452 503 409T532 311T559 195T577 68Q577 68 576 57T568
32T544 6T495 -5Q463 -5 442 7T410 35T394 64T389 76Q376 133 370 173T357 235Q343 291 332 331T309 409Q303 388 293 360T272 302T256 249Q249 211 245 190T238 152T233 116T226 60Q226 60 223 50T209 26T180 4T127 -1ZM146 87L161 217Q208 228 251 234T341 242T440
239L457 87Q422 93 381 97T298 102T216 100T146 87ZM261 669Q261 669 252 669T231 669T206 676T186 695Q174 718 177 736T192 766T213 785T223 792Q272 815 299 822T346 832Q346 832 355 833T377 833T403 827T424 809Q433 794 433 781T427 759T417 744T412 738Q396
722 375 710T331 690T291 676T261 669Z" />
<glyph unicode="&#xc2;" horiz-adv-x="608" d="M127 -1Q90 4 70 19T42 53T32 85T31 98Q33 175 53 255T100 417Q133 504 161 550T214 616T261 639T307 643Q324 646 348 636T398 605T446 553T479 480Q489 452 503 409T532 311T559 195T577 68Q577 68 576 57T568
32T544 6T495 -5Q463 -5 442 7T410 35T394 64T389 76Q376 133 370 173T357 235Q343 291 332 331T309 409Q303 388 293 360T272 302T256 249Q249 211 245 190T238 152T233 116T226 60Q226 60 223 50T209 26T180 4T127 -1ZM146 87L161 217Q208 228 251 234T341 242T440
239L457 87Q422 93 381 97T298 102T216 100T146 87ZM184 681Q166 694 160 706T154 729T156 746T159 753Q172 771 183 784T208 809T244 837Q253 845 271 848T310 848T347 832L428 780Q428 780 435 772T449 751T454 722T433 689Q420 677 405 675T377 674T355 680T346
683L305 716Q293 706 279 695T254 674Q254 674 244 671T217 668T184 681Z" />
<glyph unicode="&#xc3;" horiz-adv-x="608" d="M127 -1Q90 4 70 19T42 53T32 85T31 98Q33 175 53 255T100 417Q133 504 161 550T214 616T261 639T307 643Q324 646 348 636T398 605T446 553T479 480Q489 452 503 409T532 311T559 195T577 68Q577 68 576 57T568
32T544 6T495 -5Q463 -5 442 7T410 35T394 64T389 76Q376 133 370 173T357 235Q343 291 332 331T309 409Q303 388 293 360T272 302T256 249Q249 211 245 190T238 152T233 116T226 60Q226 60 223 50T209 26T180 4T127 -1ZM146 87L161 217Q208 228 251 234T341 242T440
239L457 87Q422 93 381 97T298 102T216 100T146 87ZM214 672Q198 665 182 668T156 678T146 685Q122 705 118 729T122 776T150 814T194 833Q233 838 259 833T306 816T351 792Q354 792 355 797T361 808Q361 808 368 815T392 828T434 826Q461 819 473 806T490 781T493
759T492 750Q491 734 473 709T423 674Q403 668 383 668T344 671T302 685Q290 689 278 695T257 708T242 718Q242 718 242 710T236 691T214 672Z" />
<glyph unicode="&#xc4;" horiz-adv-x="608" d="M127 -1Q90 4 70 19T42 53T32 85T31 98Q33 175 53 255T100 417Q133 504 161 550T214 616T261 639T307 643Q324 646 348 636T398 605T446 553T479 480Q489 452 503 409T532 311T559 195T577 68Q577 68 576 57T568
32T544 6T495 -5Q463 -5 442 7T410 35T394 64T389 76Q376 133 370 173T357 235Q343 291 332 331T309 409Q303 388 293 360T272 302T256 249Q249 211 245 190T238 152T233 116T226 60Q226 60 223 50T209 26T180 4T127 -1ZM146 87L161 217Q208 228 251 234T341 242T440
239L457 87Q422 93 381 97T298 102T216 100T146 87ZM413 661Q385 661 362 672T325 703T311 747Q311 771 325 791T362 822T413 834Q441 834 464 823T500 791T514 747Q514 699 485 680T413 661ZM201 661Q173 661 150 672T114 703T100 747Q100 771 113 791T150 822T201
834Q230 834 253 823T289 791T303 747Q303 715 290 696T253 669T201 661Z" />
<glyph unicode="&#xc5;" horiz-adv-x="608" d="M127 -1Q90 4 70 19T42 53T32 85T31 98Q33 175 53 255T100 417Q133 504 161 550T214 616T261 639T307 643Q324 646 348 636T398 605T446 553T479 480Q489 452 503 409T532 311T559 195T577 68Q577 68 576 57T568
32T544 6T495 -5Q463 -5 442 7T410 35T394 64T389 76Q376 133 370 173T357 235Q343 291 332 331T309 409Q303 388 293 360T272 302T256 249Q249 211 245 190T238 152T233 116T226 60Q226 60 223 50T209 26T180 4T127 -1ZM146 87L161 217Q208 228 251 234T341 242T440
239L457 87Q422 93 381 97T298 102T216 100T146 87ZM297 657Q261 657 234 674T191 718T176 776Q176 807 193 831T237 870T297 885Q329 885 358 873T405 837T424 780Q424 750 409 722T366 675T297 657ZM299 751Q310 751 316 758T322 773Q322 781 315 786T299 791Q291
791 285 786T278 772Q278 764 284 758T299 751Z" />
<glyph unicode="&#xc6;" horiz-adv-x="895" d="M127 -1Q90 4 70 19T42 53T32 85T31 98Q33 175 53 255T100 417Q133 504 161 550T214 616T261 639T307 643Q324 646 348 636T398 605T446 553T479 480Q489 452 503 409T532 311T559 195T577 68Q577 68 576 57T568
32T544 6T495 -5Q463 -5 442 7T410 35T394 64T389 76Q376 133 370 173T357 235Q343 291 332 331T309 409Q303 388 293 360T272 302T256 249Q249 211 245 190T238 152T233 116T226 60Q226 60 223 50T209 26T180 4T127 -1ZM146 87L161 217Q208 228 251 234T341 242T440
239L457 87Q422 93 381 97T298 102T216 100T146 87ZM501 0Q459 4 436 18T404 51T392 85T388 111Q385 182 383 237T380 344T383 455T393 593Q396 607 413 625T470 648L735 655Q735 655 747 655T777 651T814 638T845 612T859 568Q860 541 849 526T823 503T797 493T785
491L573 501Q571 450 570 415T569 353T568 301T569 243T570 165Q600 170 617 172T646 177T668 181T697 186T743 196Q743 196 753 196T778 194T811 184T841 165T860 132Q868 103 863 85T846 56T825 42T815 38Q769 28 733 20T661 7T588 0T501 0ZM425 249L414 413L693
424Q693 424 702 422T725 414T752 398T775 373T785 337Q785 309 774 293T748 270T722 262T711 260L425 249Z" />
<glyph unicode="&#xc7;" horiz-adv-x="620" d="M278 5Q215 17 170 45T95 112T50 196T31 284T36 366Q45 410 65 459T122 552T212 623T342 651Q408 651 459 625T542 557T585 469T582 381Q582 381 574 368T548 344T500 335Q469 339 453 356T430 389T424 405Q424 405
423 413T419 433T409 458T391 478T361 486Q334 486 313 471T275 433T248 383T231 333T224 294Q223 280 225 265T232 234T246 204T268 180T297 165Q311 161 330 168T368 188T395 214Q395 214 402 224T424 245T464 258T522 246Q551 233 564 217T581 185T581 155T573
133T569 124Q569 124 560 109T530 71T475 30T393 2T278 5ZM322 -228Q288 -226 263 -212T216 -179Q216 -179 211 -173T202 -158T198 -137T211 -114Q223 -103 236 -102T258 -102T268 -105Q284 -111 291 -118T305 -130Q313 -132 318 -131T325 -128T328 -124Q324 -117
319 -111T309 -99Q305 -100 295 -96T275 -84T266 -72Q258 -52 259 -27T264 11Q264 11 267 19T280 37T311 45Q331 44 341 31T352 17Q354 12 359 0T365 -28Q370 -31 380 -39T403 -61T425 -90T436 -123Q441 -162 427 -186T385 -220T322 -228Z" />
<glyph unicode="&#xc8;" horiz-adv-x="545" d="M151 2Q109 6 86 20T54 53T42 87T38 113Q35 184 33 239T30 346T33 457T43 595Q46 609 63 627T120 650L385 657Q385 657 397 657T427 653T464 640T495 614T509 570Q510 543 499 528T473 505T447 495T435 493L223 503Q221
452 220 417T219 355T218 303T219 245T220 167Q250 172 267 174T296 179T318 183T347 188T393 198Q393 198 403 198T428 196T461 186T491 167T510 134Q518 105 513 87T496 58T475 44T465 40Q419 30 383 22T311 9T238 2T151 2ZM75 251L64 415L343 426Q343 426 352
424T375 416T402 400T425 375T435 339Q435 311 424 295T398 272T372 264T361 262L75 251ZM331 674Q321 676 302 680T261 693T218 714T180 742Q180 742 175 747T165 763T160 785T169 813Q177 826 190 831T216 838T237 838T246 837Q266 833 293 826T370 797Q370 797
380 791T401 772T415 741T406 700Q399 687 387 681T362 674T340 673T331 674Z" />
<glyph unicode="&#xc9;" horiz-adv-x="545" d="M151 2Q109 6 86 20T54 53T42 87T38 113Q35 184 33 239T30 346T33 457T43 595Q46 609 63 627T120 650L385 657Q385 657 397 657T427 653T464 640T495 614T509 570Q510 543 499 528T473 505T447 495T435 493L223 503Q221
452 220 417T219 355T218 303T219 245T220 167Q250 172 267 174T296 179T318 183T347 188T393 198Q393 198 403 198T428 196T461 186T491 167T510 134Q518 105 513 87T496 58T475 44T465 40Q419 30 383 22T311 9T238 2T151 2ZM75 251L64 415L343 426Q343 426 352
424T375 416T402 400T425 375T435 339Q435 311 424 295T398 272T372 264T361 262L75 251ZM245 669Q245 669 236 669T215 669T190 676T170 695Q158 718 161 736T176 766T197 785T207 792Q256 815 283 822T330 832Q330 832 339 833T361 833T387 827T408 809Q417 794
417 781T411 759T401 744T396 738Q380 722 359 710T315 690T275 676T245 669Z" />
<glyph unicode="&#xca;" horiz-adv-x="545" d="M151 2Q109 6 86 20T54 53T42 87T38 113Q35 184 33 239T30 346T33 457T43 595Q46 609 63 627T120 650L385 657Q385 657 397 657T427 653T464 640T495 614T509 570Q510 543 499 528T473 505T447 495T435 493L223 503Q221
452 220 417T219 355T218 303T219 245T220 167Q250 172 267 174T296 179T318 183T347 188T393 198Q393 198 403 198T428 196T461 186T491 167T510 134Q518 105 513 87T496 58T475 44T465 40Q419 30 383 22T311 9T238 2T151 2ZM75 251L64 415L343 426Q343 426 352
424T375 416T402 400T425 375T435 339Q435 311 424 295T398 272T372 264T361 262L75 251ZM168 681Q150 694 144 706T138 729T140 746T143 753Q156 771 167 784T192 809T228 837Q237 845 255 848T294 848T331 832L412 780Q412 780 419 772T433 751T438 722T417 689Q404
677 389 675T361 674T339 680T330 683L289 716Q277 706 263 695T238 674Q238 674 228 671T201 668T168 681Z" />
<glyph unicode="&#xcb;" horiz-adv-x="545" d="M151 2Q109 6 86 20T54 53T42 87T38 113Q35 184 33 239T30 346T33 457T43 595Q46 609 63 627T120 650L385 657Q385 657 397 657T427 653T464 640T495 614T509 570Q510 543 499 528T473 505T447 495T435 493L223 503Q221
452 220 417T219 355T218 303T219 245T220 167Q250 172 267 174T296 179T318 183T347 188T393 198Q393 198 403 198T428 196T461 186T491 167T510 134Q518 105 513 87T496 58T475 44T465 40Q419 30 383 22T311 9T238 2T151 2ZM75 251L64 415L343 426Q343 426 352
424T375 416T402 400T425 375T435 339Q435 311 424 295T398 272T372 264T361 262L75 251ZM397 661Q369 661 346 672T309 703T295 747Q295 771 309 791T346 822T397 834Q425 834 448 823T484 791T498 747Q498 699 469 680T397 661ZM185 661Q157 661 134 672T98 703T84
747Q84 771 97 791T134 822T185 834Q214 834 237 823T273 791T287 747Q287 715 274 696T237 669T185 661Z" />
<glyph unicode="&#xcc;" horiz-adv-x="258" d="M137 5Q105 5 86 18T57 47T44 76T41 89Q37 132 35 180T31 279T31 382T36 485T43 584Q43 584 45 594T54 618T79 641T126 651Q159 650 179 639T209 612T223 579T227 552T227 541Q223 500 221 455T219 363T218 266T221
169T225 74Q225 74 224 64T214 39T188 15T137 5ZM170 674Q160 676 141 680T100 693T57 714T19 742Q19 742 14 747T4 763T-1 785T8 813Q16 826 29 831T55 838T76 838T85 837Q105 833 132 826T209 797Q209 797 219 791T240 772T254 741T245 700Q238 687 226 681T201
674T179 673T170 674Z" />
<glyph unicode="&#xcd;" horiz-adv-x="258" d="M137 5Q105 5 86 18T57 47T44 76T41 89Q37 132 35 180T31 279T31 382T36 485T43 584Q43 584 45 594T54 618T79 641T126 651Q159 650 179 639T209 612T223 579T227 552T227 541Q223 500 221 455T219 363T218 266T221
169T225 74Q225 74 224 64T214 39T188 15T137 5ZM84 669Q84 669 75 669T54 669T29 676T9 695Q-3 718 0 736T15 766T36 785T46 792Q95 815 122 822T169 832Q169 832 178 833T200 833T226 827T247 809Q256 794 256 781T250 759T240 744T235 738Q219 722 198 710T154
690T114 676T84 669Z" />
<glyph unicode="&#xce;" horiz-adv-x="258" d="M137 5Q105 5 86 18T57 47T44 76T41 89Q37 132 35 180T31 279T31 382T36 485T43 584Q43 584 45 594T54 618T79 641T126 651Q159 650 179 639T209 612T223 579T227 552T227 541Q223 500 221 455T219 363T218 266T221
169T225 74Q225 74 224 64T214 39T188 15T137 5ZM7 681Q-11 694 -17 706T-23 729T-21 746T-18 753Q-5 771 6 784T31 809T67 837Q76 845 94 848T133 848T170 832L251 780Q251 780 258 772T272 751T277 722T256 689Q243 677 228 675T200 674T178 680T169 683L128
716Q116 706 102 695T77 674Q77 674 67 671T40 668T7 681Z" />
<glyph unicode="&#xcf;" horiz-adv-x="258" d="M137 5Q105 5 86 18T57 47T44 76T41 89Q37 132 35 180T31 279T31 382T36 485T43 584Q43 584 45 594T54 618T79 641T126 651Q159 650 179 639T209 612T223 579T227 552T227 541Q223 500 221 455T219 363T218 266T221
169T225 74Q225 74 224 64T214 39T188 15T137 5ZM236 661Q208 661 185 672T148 703T134 747Q134 771 148 791T185 822T236 834Q264 834 287 823T323 791T337 747Q337 699 308 680T236 661ZM24 661Q-4 661 -27 672T-63 703T-77 747Q-77 771 -64 791T-27 822T24 834Q53
834 76 823T112 791T126 747Q126 715 113 696T76 669T24 661Z" />
<glyph unicode="&#xd0;" horiz-adv-x="643" d="M166 -2Q109 1 80 26T40 85Q32 210 31 330T40 564Q42 617 93 634T233 651Q309 651 362 638T453 602T517 551T566 493Q622 381 612 284T530 101Q489 55 431 32T305 2T166 -2ZM224 180Q275 176 310 185T368 214T400
264T413 332Q410 382 396 413T357 462T299 483T225 483Q222 410 222 335T224 180ZM28 262Q27 262 13 263T-18 272T-43 306Q-49 325 -46 338T-36 358T-23 368T-17 371Q2 375 26 379T79 387T139 392T204 393T270 386Q270 386 279 382T301 369T322 349T332 320Q332
298 323 285T303 266T282 259T273 257Q239 259 213 261T165 264T122 265T79 265T28 262Z" />
<glyph unicode="&#xd1;" horiz-adv-x="646" d="M134 5Q104 7 86 18T57 45T43 71T39 82Q33 136 32 192T30 304T33 415T37 524Q37 524 39 537T54 566T96 591Q113 597 132 594T166 585T182 578Q212 558 250 521T332 434T423 328Q423 355 422 381T421 436T424 503T430
592Q430 592 432 601T443 621T468 641T514 649Q547 648 566 637T596 610T611 577T615 550T615 539Q611 499 609 455T607 365T606 272T608 175T613 77Q613 77 612 68T605 45T585 21T545 5Q516 0 494 11T459 36T447 49Q447 49 438 59T413 86T377 126T334 173T290
222T249 267T216 305Q216 274 216 244T218 174T221 75Q221 75 219 64T209 39T183 14T134 5ZM237 672Q221 665 205 668T179 678T169 685Q145 705 141 729T145 776T173 814T217 833Q256 838 282 833T329 816T374 792Q377 792 378 797T384 808Q384 808 391 815T415
828T457 826Q484 819 496 806T513 781T516 759T515 750Q514 734 496 709T446 674Q426 668 406 668T367 671T325 685Q313 689 301 695T280 708T265 718Q265 718 265 710T259 691T237 672Z" />
<glyph unicode="&#xd2;" horiz-adv-x="734" d="M308 -7Q245 -7 193 16T103 80T46 178T31 303Q34 371 57 434T122 547T220 626T347 656Q398 656 450 646T549 611T632 547T688 449T703 310Q700 246 675 196T609 107T518 44T413 6T308 -7ZM344 176Q365 176 386 182T426
200T462 231T488 275T499 331Q501 373 490 402T460 448T415 474T364 482Q339 482 316 469T276 434T248 381T235 318Q233 274 246 242T284 193T344 176ZM390 674Q380 676 361 680T320 693T277 714T239 742Q239 742 234 747T224 763T219 785T228 813Q236 826 249
831T275 838T296 838T305 837Q325 833 352 826T429 797Q429 797 439 791T460 772T474 741T465 700Q458 687 446 681T421 674T399 673T390 674Z" />
<glyph unicode="&#xd3;" horiz-adv-x="734" d="M308 -7Q245 -7 193 16T103 80T46 178T31 303Q34 371 57 434T122 547T220 626T347 656Q398 656 450 646T549 611T632 547T688 449T703 310Q700 246 675 196T609 107T518 44T413 6T308 -7ZM344 176Q365 176 386 182T426
200T462 231T488 275T499 331Q501 373 490 402T460 448T415 474T364 482Q339 482 316 469T276 434T248 381T235 318Q233 274 246 242T284 193T344 176ZM304 669Q304 669 295 669T274 669T249 676T229 695Q217 718 220 736T235 766T256 785T266 792Q315 815 342
822T389 832Q389 832 398 833T420 833T446 827T467 809Q476 794 476 781T470 759T460 744T455 738Q439 722 418 710T374 690T334 676T304 669Z" />
<glyph unicode="&#xd4;" horiz-adv-x="734" d="M308 -7Q245 -7 193 16T103 80T46 178T31 303Q34 371 57 434T122 547T220 626T347 656Q398 656 450 646T549 611T632 547T688 449T703 310Q700 246 675 196T609 107T518 44T413 6T308 -7ZM344 176Q365 176 386 182T426
200T462 231T488 275T499 331Q501 373 490 402T460 448T415 474T364 482Q339 482 316 469T276 434T248 381T235 318Q233 274 246 242T284 193T344 176ZM227 681Q209 694 203 706T197 729T199 746T202 753Q215 771 226 784T251 809T287 837Q296 845 314 848T353
848T390 832L471 780Q471 780 478 772T492 751T497 722T476 689Q463 677 448 675T420 674T398 680T389 683L348 716Q336 706 322 695T297 674Q297 674 287 671T260 668T227 681Z" />
<glyph unicode="&#xd5;" horiz-adv-x="734" d="M308 -7Q245 -7 193 16T103 80T46 178T31 303Q34 371 57 434T122 547T220 626T347 656Q398 656 450 646T549 611T632 547T688 449T703 310Q700 246 675 196T609 107T518 44T413 6T308 -7ZM344 176Q365 176 386 182T426
200T462 231T488 275T499 331Q501 373 490 402T460 448T415 474T364 482Q339 482 316 469T276 434T248 381T235 318Q233 274 246 242T284 193T344 176ZM257 672Q241 665 225 668T199 678T189 685Q165 705 161 729T165 776T193 814T237 833Q276 838 302 833T349
816T394 792Q397 792 398 797T404 808Q404 808 411 815T435 828T477 826Q504 819 516 806T533 781T536 759T535 750Q534 734 516 709T466 674Q446 668 426 668T387 671T345 685Q333 689 321 695T300 708T285 718Q285 718 285 710T279 691T257 672Z" />
<glyph unicode="&#xd6;" horiz-adv-x="734" d="M308 -7Q245 -7 193 16T103 80T46 178T31 303Q34 371 57 434T122 547T220 626T347 656Q398 656 450 646T549 611T632 547T688 449T703 310Q700 246 675 196T609 107T518 44T413 6T308 -7ZM344 176Q365 176 386 182T426
200T462 231T488 275T499 331Q501 373 490 402T460 448T415 474T364 482Q339 482 316 469T276 434T248 381T235 318Q233 274 246 242T284 193T344 176ZM456 661Q428 661 405 672T368 703T354 747Q354 771 368 791T405 822T456 834Q484 834 507 823T543 791T557
747Q557 699 528 680T456 661ZM244 661Q216 661 193 672T157 703T143 747Q143 771 156 791T193 822T244 834Q273 834 296 823T332 791T346 747Q346 715 333 696T296 669T244 661Z" />
<glyph unicode="&#xd7;" horiz-adv-x="516" d="M450 82Q429 72 410 75T376 87T352 105T343 114Q298 162 260 201T187 280T116 369T39 485Q39 485 35 493T30 515T36 541T65 565Q85 574 103 570T136 557T160 539T169 531Q217 473 262 419T359 305T472 172Q472 172
477 163T485 139T481 110T450 82ZM70 82Q46 96 40 111T35 140T43 163T48 172Q95 228 133 274T207 363T277 451T352 550Q352 550 361 559T390 573T435 568Q461 558 471 544T483 516T483 494T480 485Q439 418 403 365T331 266T257 176T173 83Q173 83 160 76T124 67T70
82Z" />
<glyph unicode="&#xd8;" horiz-adv-x="734" d="M308 -7Q245 -7 193 16T103 80T46 178T31 303Q34 371 57 434T122 547T220 626T347 656Q398 656 450 646T549 611T632 547T688 449T703 310Q700 246 675 196T609 107T518 44T413 6T308 -7ZM344 176Q365 176 386 182T426
200T462 231T488 275T499 331Q501 373 490 402T460 448T415 474T364 482Q339 482 316 469T276 434T248 381T235 318Q233 274 246 242T284 193T344 176ZM203 -37Q175 -27 162 -11T146 21T143 48T145 59Q167 113 197 180T265 323T341 476T421 630Q421 630 427 639T445
659T478 674T527 671Q558 661 572 646T589 614T590 586T588 575Q529 454 479 346T387 146T316 -15Q316 -15 304 -26T267 -43T203 -37Z" />
<glyph unicode="&#xd9;" horiz-adv-x="628" d="M321 -3Q235 3 171 40T71 151T30 344V594Q30 594 32 603T42 623T66 644T110 653Q148 653 170 640T204 610T218 580T221 567L225 333Q226 275 239 239T272 185T311 163Q342 168 361 191T389 265T398 400L396 573Q396
573 396 584T403 609T426 635T477 646Q511 646 533 634T567 605T584 569T591 539T593 527L598 349Q598 277 586 215T543 104T458 28T321 -3ZM356 674Q346 676 327 680T286 693T243 714T205 742Q205 742 200 747T190 763T185 785T194 813Q202 826 215 831T241 838T262
838T271 837Q291 833 318 826T395 797Q395 797 405 791T426 772T440 741T431 700Q424 687 412 681T387 674T365 673T356 674Z" />
<glyph unicode="&#xda;" horiz-adv-x="628" d="M321 -3Q235 3 171 40T71 151T30 344V594Q30 594 32 603T42 623T66 644T110 653Q148 653 170 640T204 610T218 580T221 567L225 333Q226 275 239 239T272 185T311 163Q342 168 361 191T389 265T398 400L396 573Q396
573 396 584T403 609T426 635T477 646Q511 646 533 634T567 605T584 569T591 539T593 527L598 349Q598 277 586 215T543 104T458 28T321 -3ZM270 669Q270 669 261 669T240 669T215 676T195 695Q183 718 186 736T201 766T222 785T232 792Q281 815 308 822T355 832Q355
832 364 833T386 833T412 827T433 809Q442 794 442 781T436 759T426 744T421 738Q405 722 384 710T340 690T300 676T270 669Z" />
<glyph unicode="&#xdb;" horiz-adv-x="628" d="M321 -3Q235 3 171 40T71 151T30 344V594Q30 594 32 603T42 623T66 644T110 653Q148 653 170 640T204 610T218 580T221 567L225 333Q226 275 239 239T272 185T311 163Q342 168 361 191T389 265T398 400L396 573Q396
573 396 584T403 609T426 635T477 646Q511 646 533 634T567 605T584 569T591 539T593 527L598 349Q598 277 586 215T543 104T458 28T321 -3ZM193 681Q175 694 169 706T163 729T165 746T168 753Q181 771 192 784T217 809T253 837Q262 845 280 848T319 848T356 832L437
780Q437 780 444 772T458 751T463 722T442 689Q429 677 414 675T386 674T364 680T355 683L314 716Q302 706 288 695T263 674Q263 674 253 671T226 668T193 681Z" />
<glyph unicode="&#xdc;" horiz-adv-x="628" d="M321 -3Q235 3 171 40T71 151T30 344V594Q30 594 32 603T42 623T66 644T110 653Q148 653 170 640T204 610T218 580T221 567L225 333Q226 275 239 239T272 185T311 163Q342 168 361 191T389 265T398 400L396 573Q396
573 396 584T403 609T426 635T477 646Q511 646 533 634T567 605T584 569T591 539T593 527L598 349Q598 277 586 215T543 104T458 28T321 -3ZM422 661Q394 661 371 672T334 703T320 747Q320 771 334 791T371 822T422 834Q450 834 473 823T509 791T523 747Q523 699
494 680T422 661ZM210 661Q182 661 159 672T123 703T109 747Q109 771 122 791T159 822T210 834Q239 834 262 823T298 791T312 747Q312 715 299 696T262 669T210 661Z" />
<glyph unicode="&#xdd;" horiz-adv-x="562" d="M277 212Q182 224 122 274T41 404T42 585Q42 585 46 595T61 618T91 639T140 642Q174 637 192 623T217 594T226 567T228 555Q224 470 229 426T257 377Q268 376 283 389T313 427T334 483T337 549Q337 549 335 560T335
588T351 620T395 641Q431 648 455 639T494 615T515 588T522 575Q535 519 530 459T496 346T414 256T277 212ZM285 4Q255 4 236 15T206 40T191 65T186 76Q175 135 176 193T183 305L368 300Q362 235 362 175T368 67Q368 67 367 58T358 36T333 14T285 4ZM235 669Q235
669 226 669T205 669T180 676T160 695Q148 718 151 736T166 766T187 785T197 792Q246 815 273 822T320 832Q320 832 329 833T351 833T377 827T398 809Q407 794 407 781T401 759T391 744T386 738Q370 722 349 710T305 690T265 676T235 669Z" />
<glyph unicode="&#xde;" horiz-adv-x="589" d="M299 64Q250 64 209 82T137 134T92 210T81 304Q85 354 107 397T164 474T244 526T338 545Q388 545 429 524T501 466T546 383T558 287Q554 237 532 196T474 126T394 80T299 64ZM137 5Q105 5 86 18T57 47T44 76T41 89Q37
132 35 180T31 279T31 382T36 485T43 584Q43 584 45 594T54 618T79 641T126 651Q159 650 179 639T209 612T223 579T227 552T227 541Q223 500 221 455T219 363T218 266T221 169T225 74Q225 74 224 64T214 39T188 15T137 5ZM316 244Q329 244 340 252T358 276T366
308Q367 326 362 340T347 363T324 372Q311 372 300 364T282 341T274 308Q273 291 278 276T294 253T316 244Z" />
<glyph unicode="&#xdf;" horiz-adv-x="583" d="M137 6Q108 6 89 18T60 46T45 75T41 88Q36 126 34 173T31 271T31 376T36 482T43 583Q43 583 45 592T54 614T77 635T119 646Q197 656 270 653T402 630T500 567T549 454Q549 417 536 389T507 343T483 322Q495 313 511
294T540 247T553 182Q551 127 523 91T450 34T352 6Q352 6 339 6T308 10T271 27T244 65Q234 92 238 109T254 135T274 149T284 153Q303 160 321 168T350 185T359 204Q355 212 346 217T325 226T296 232T261 234T219 233L224 76Q224 76 222 66T212 41T187 17T137 6ZM222
436Q249 435 272 435T314 439T342 450T353 469Q352 481 342 488T315 498T274 502T225 501L222 436Z" />
<glyph unicode="&#xe0;" horiz-adv-x="638" d="M294 -1Q239 -2 192 16T108 69T51 147T31 242Q32 301 52 348T108 428T191 480T294 499Q380 500 436 474T521 392T549 250Q549 200 536 156T493 77T414 22T294 -1ZM301 167Q318 167 333 174T359 195T378 226T385 262Q385
294 375 314T349 344T310 354Q294 354 280 345T254 322T237 289T231 252Q231 228 239 209T264 178T301 167ZM531 0Q502 0 483 9T455 27T446 36Q439 109 433 177T427 318T434 470Q434 470 443 478T471 495T522 500Q556 497 574 481T598 446T606 412T607 397Q603
346 601 312T598 245T601 173T606 71Q606 71 605 61T597 36T575 11T531 0ZM362 532Q352 534 333 538T292 551T249 572T211 600Q211 600 206 605T196 621T191 643T200 671Q208 684 221 689T247 696T268 696T277 695Q297 691 324 684T401 655Q401 655 411 649T432
630T446 599T437 558Q430 545 418 539T393 532T371 531T362 532Z" />
<glyph unicode="&#xe1;" horiz-adv-x="638" d="M294 -1Q239 -2 192 16T108 69T51 147T31 242Q32 301 52 348T108 428T191 480T294 499Q380 500 436 474T521 392T549 250Q549 200 536 156T493 77T414 22T294 -1ZM301 167Q318 167 333 174T359 195T378 226T385 262Q385
294 375 314T349 344T310 354Q294 354 280 345T254 322T237 289T231 252Q231 228 239 209T264 178T301 167ZM531 0Q502 0 483 9T455 27T446 36Q439 109 433 177T427 318T434 470Q434 470 443 478T471 495T522 500Q556 497 574 481T598 446T606 412T607 397Q603
346 601 312T598 245T601 173T606 71Q606 71 605 61T597 36T575 11T531 0ZM276 527Q276 527 267 527T246 527T221 534T201 553Q189 576 192 594T207 624T228 643T238 650Q287 673 314 680T361 690Q361 690 370 691T392 691T418 685T439 667Q448 652 448 639T442
617T432 602T427 596Q411 580 390 568T346 548T306 534T276 527Z" />
<glyph unicode="&#xe2;" horiz-adv-x="638" d="M294 -1Q239 -2 192 16T108 69T51 147T31 242Q32 301 52 348T108 428T191 480T294 499Q380 500 436 474T521 392T549 250Q549 200 536 156T493 77T414 22T294 -1ZM301 167Q318 167 333 174T359 195T378 226T385 262Q385
294 375 314T349 344T310 354Q294 354 280 345T254 322T237 289T231 252Q231 228 239 209T264 178T301 167ZM531 0Q502 0 483 9T455 27T446 36Q439 109 433 177T427 318T434 470Q434 470 443 478T471 495T522 500Q556 497 574 481T598 446T606 412T607 397Q603
346 601 312T598 245T601 173T606 71Q606 71 605 61T597 36T575 11T531 0ZM199 539Q181 552 175 564T169 587T171 604T174 611Q187 629 198 642T223 667T259 695Q268 703 286 706T325 706T362 690L443 638Q443 638 450 630T464 609T469 580T448 547Q435 535 420
533T392 532T370 538T361 541L320 574Q308 564 294 553T269 532Q269 532 259 529T232 526T199 539Z" />
<glyph unicode="&#xe3;" horiz-adv-x="638" d="M294 -1Q239 -2 192 16T108 69T51 147T31 242Q32 301 52 348T108 428T191 480T294 499Q380 500 436 474T521 392T549 250Q549 200 536 156T493 77T414 22T294 -1ZM301 167Q318 167 333 174T359 195T378 226T385 262Q385
294 375 314T349 344T310 354Q294 354 280 345T254 322T237 289T231 252Q231 228 239 209T264 178T301 167ZM531 0Q502 0 483 9T455 27T446 36Q439 109 433 177T427 318T434 470Q434 470 443 478T471 495T522 500Q556 497 574 481T598 446T606 412T607 397Q603
346 601 312T598 245T601 173T606 71Q606 71 605 61T597 36T575 11T531 0ZM229 530Q213 523 197 526T171 536T161 543Q137 563 133 587T137 634T165 672T209 691Q248 696 274 691T321 674T366 650Q369 650 370 655T376 666Q376 666 383 673T407 686T449 684Q476
677 488 664T505 639T508 617T507 608Q506 592 488 567T438 532Q418 526 398 526T359 529T317 543Q305 547 293 553T272 566T257 576Q257 576 257 568T251 549T229 530Z" />
<glyph unicode="&#xe4;" horiz-adv-x="638" d="M294 -1Q239 -2 192 16T108 69T51 147T31 242Q32 301 52 348T108 428T191 480T294 499Q380 500 436 474T521 392T549 250Q549 200 536 156T493 77T414 22T294 -1ZM301 167Q318 167 333 174T359 195T378 226T385 262Q385
294 375 314T349 344T310 354Q294 354 280 345T254 322T237 289T231 252Q231 228 239 209T264 178T301 167ZM531 0Q502 0 483 9T455 27T446 36Q439 109 433 177T427 318T434 470Q434 470 443 478T471 495T522 500Q556 497 574 481T598 446T606 412T607 397Q603
346 601 312T598 245T601 173T606 71Q606 71 605 61T597 36T575 11T531 0ZM428 519Q400 519 377 530T340 561T326 605Q326 629 340 649T377 680T428 692Q456 692 479 681T515 649T529 605Q529 557 500 538T428 519ZM216 519Q188 519 165 530T129 561T115 605Q115
629 128 649T165 680T216 692Q245 692 268 681T304 649T318 605Q318 573 305 554T268 527T216 519Z" />
<glyph unicode="&#xe5;" horiz-adv-x="638" d="M294 -1Q239 -2 192 16T108 69T51 147T31 242Q32 301 52 348T108 428T191 480T294 499Q380 500 436 474T521 392T549 250Q549 200 536 156T493 77T414 22T294 -1ZM301 167Q318 167 333 174T359 195T378 226T385 262Q385
294 375 314T349 344T310 354Q294 354 280 345T254 322T237 289T231 252Q231 228 239 209T264 178T301 167ZM531 0Q502 0 483 9T455 27T446 36Q439 109 433 177T427 318T434 470Q434 470 443 478T471 495T522 500Q556 497 574 481T598 446T606 412T607 397Q603
346 601 312T598 245T601 173T606 71Q606 71 605 61T597 36T575 11T531 0ZM312 515Q276 515 249 532T206 576T191 634Q191 665 208 689T252 728T312 743Q344 743 373 731T420 695T439 638Q439 608 424 580T381 533T312 515ZM314 609Q325 609 331 616T337 631Q337
639 330 644T314 649Q306 649 300 644T293 630Q293 622 299 616T314 609Z" />
<glyph unicode="&#xe6;" horiz-adv-x="1021" d="M731 -11Q665 2 624 28T560 90T529 166T519 246Q518 299 536 346T590 430T673 485T780 501Q839 497 879 478T943 431T978 371T990 309Q991 262 966 221T877 164Q861 160 841 159T800 158T759 159T724 162T699 165T689
166Q693 161 701 151T726 132T773 125Q812 127 836 129T873 132T890 135T895 136Q895 136 903 136T925 134T953 125T977 102Q989 85 988 72T981 48T969 33T962 28Q962 28 942 19T888 0T813 -14T731 -11ZM294 -1Q239 -2 192 16T108 69T51 147T31 242Q32 301 52 348T108
428T191 480T294 499Q380 500 436 474T521 392T549 250Q549 200 536 156T493 77T414 22T294 -1ZM301 167Q318 167 333 174T359 195T378 226T385 262Q385 294 375 314T349 344T310 354Q294 354 280 345T254 322T237 289T231 252Q231 228 239 209T264 178T301 167ZM531
0Q502 0 483 9T455 27T446 36Q439 109 433 177T427 318T434 470Q434 470 443 478T471 495T522 500Q556 497 574 481T598 446T606 412T607 397Q603 346 601 312T598 245T601 173T606 71Q606 71 605 61T597 36T575 11T531 0ZM695 282L798 283Q798 283 801 283T811
285T822 290T831 300T835 317Q835 333 829 344T808 360T767 363Q752 362 739 353T715 331T699 305T695 282Z" />
<glyph unicode="&#xe7;" d="M297 -245Q263 -243 238 -229T191 -196Q191 -196 186 -190T177 -175T173 -154T186 -131Q198 -120 211 -119T233 -119T243 -122Q259 -128 266 -135T280 -147Q288 -149 293 -148T300 -145T303 -141Q299 -134 294 -128T284 -116Q281 -114
272 -109T254 -98T241 -89Q233 -69 234 -44T239 -6Q239 -6 242 2T255 20T286 28Q306 27 316 14T327 0Q329 -5 334 -17T340 -45Q345 -48 355 -56T378 -78T400 -107T411 -140Q416 -179 402 -203T360 -237T297 -245ZM266 -9Q184 -5 134 25T60 107T31 224Q27 276 42
325T90 412T170 473T277 495Q331 494 368 481T429 448T465 409T483 376T488 363Q488 363 487 352T479 325T453 295Q439 285 418 280T375 277T343 293Q341 293 337 297T326 307T310 315T288 317Q268 314 257 306T239 287T231 264T228 243Q226 222 233 206T252 181T276
171Q287 171 298 173T321 180T342 188T356 193Q390 204 415 199T457 180T484 153Q501 130 501 112T498 82T493 71Q493 71 481 58T441 28T371 0T266 -9Z" />
<glyph unicode="&#xe8;" horiz-adv-x="533" d="M243 -11Q177 2 136 28T72 90T41 166T31 246Q30 299 48 346T102 430T185 485T292 501Q351 497 391 478T455 431T490 371T502 309Q503 262 478 221T389 164Q373 160 353 159T312 158T271 159T236 162T211 165T201
166Q205 161 213 151T238 132T285 125Q324 127 348 129T385 132T402 135T407 136Q407 136 415 136T437 134T465 125T489 102Q501 85 500 72T493 48T481 33T474 28Q474 28 454 19T400 0T325 -14T243 -11ZM207 282L310 283Q310 283 313 283T323 285T334 290T343 300T347
317Q347 333 341 344T320 360T279 363Q264 362 251 353T227 331T211 305T207 282ZM321 532Q311 534 292 538T251 551T208 572T170 600Q170 600 165 605T155 621T150 643T159 671Q167 684 180 689T206 696T227 696T236 695Q256 691 283 684T360 655Q360 655 370
649T391 630T405 599T396 558Q389 545 377 539T352 532T330 531T321 532Z" />
<glyph unicode="&#xe9;" horiz-adv-x="533" d="M243 -11Q177 2 136 28T72 90T41 166T31 246Q30 299 48 346T102 430T185 485T292 501Q351 497 391 478T455 431T490 371T502 309Q503 262 478 221T389 164Q373 160 353 159T312 158T271 159T236 162T211 165T201
166Q205 161 213 151T238 132T285 125Q324 127 348 129T385 132T402 135T407 136Q407 136 415 136T437 134T465 125T489 102Q501 85 500 72T493 48T481 33T474 28Q474 28 454 19T400 0T325 -14T243 -11ZM207 282L310 283Q310 283 313 283T323 285T334 290T343 300T347
317Q347 333 341 344T320 360T279 363Q264 362 251 353T227 331T211 305T207 282ZM235 527Q235 527 226 527T205 527T180 534T160 553Q148 576 151 594T166 624T187 643T197 650Q246 673 273 680T320 690Q320 690 329 691T351 691T377 685T398 667Q407 652 407
639T401 617T391 602T386 596Q370 580 349 568T305 548T265 534T235 527Z" />
<glyph unicode="&#xea;" horiz-adv-x="533" d="M243 -11Q177 2 136 28T72 90T41 166T31 246Q30 299 48 346T102 430T185 485T292 501Q351 497 391 478T455 431T490 371T502 309Q503 262 478 221T389 164Q373 160 353 159T312 158T271 159T236 162T211 165T201
166Q205 161 213 151T238 132T285 125Q324 127 348 129T385 132T402 135T407 136Q407 136 415 136T437 134T465 125T489 102Q501 85 500 72T493 48T481 33T474 28Q474 28 454 19T400 0T325 -14T243 -11ZM207 282L310 283Q310 283 313 283T323 285T334 290T343 300T347
317Q347 333 341 344T320 360T279 363Q264 362 251 353T227 331T211 305T207 282ZM158 539Q140 552 134 564T128 587T130 604T133 611Q146 629 157 642T182 667T218 695Q227 703 245 706T284 706T321 690L402 638Q402 638 409 630T423 609T428 580T407 547Q394
535 379 533T351 532T329 538T320 541L279 574Q267 564 253 553T228 532Q228 532 218 529T191 526T158 539Z" />
<glyph unicode="&#xeb;" horiz-adv-x="533" d="M243 -11Q177 2 136 28T72 90T41 166T31 246Q30 299 48 346T102 430T185 485T292 501Q351 497 391 478T455 431T490 371T502 309Q503 262 478 221T389 164Q373 160 353 159T312 158T271 159T236 162T211 165T201
166Q205 161 213 151T238 132T285 125Q324 127 348 129T385 132T402 135T407 136Q407 136 415 136T437 134T465 125T489 102Q501 85 500 72T493 48T481 33T474 28Q474 28 454 19T400 0T325 -14T243 -11ZM207 282L310 283Q310 283 313 283T323 285T334 290T343 300T347
317Q347 333 341 344T320 360T279 363Q264 362 251 353T227 331T211 305T207 282ZM387 519Q359 519 336 530T299 561T285 605Q285 629 299 649T336 680T387 692Q415 692 438 681T474 649T488 605Q488 557 459 538T387 519ZM175 519Q147 519 124 530T88 561T74 605Q74
629 87 649T124 680T175 692Q204 692 227 681T263 649T277 605Q277 573 264 554T227 527T175 519Z" />
<glyph unicode="&#xec;" horiz-adv-x="254" d="M136 1Q109 3 91 13T62 38T47 62T42 72Q36 126 34 168T31 248T33 332T41 437Q41 437 43 447T54 469T80 491T128 500Q161 499 180 486T208 457T221 428T224 415Q221 367 220 328T218 251T219 170T223 70Q223 70 221
59T211 34T186 9T136 1ZM433 532Q423 534 404 538T363 551T320 572T282 600Q282 600 277 605T267 621T262 643T271 671Q279 684 292 689T318 696T339 696T348 695Q368 691 395 684T472 655Q472 655 482 649T503 630T517 599T508 558Q501 545 489 539T464 532T442
531T433 532Z" />
<glyph unicode="&#xed;" horiz-adv-x="254" d="M136 1Q109 3 91 13T62 38T47 62T42 72Q36 126 34 168T31 248T33 332T41 437Q41 437 43 447T54 469T80 491T128 500Q161 499 180 486T208 457T221 428T224 415Q221 367 220 328T218 251T219 170T223 70Q223 70 221
59T211 34T186 9T136 1ZM347 527Q347 527 338 527T317 527T292 534T272 553Q260 576 263 594T278 624T299 643T309 650Q358 673 385 680T432 690Q432 690 441 691T463 691T489 685T510 667Q519 652 519 639T513 617T503 602T498 596Q482 580 461 568T417 548T377
534T347 527Z" />
<glyph unicode="&#xee;" horiz-adv-x="254" d="M136 1Q109 3 91 13T62 38T47 62T42 72Q36 126 34 168T31 248T33 332T41 437Q41 437 43 447T54 469T80 491T128 500Q161 499 180 486T208 457T221 428T224 415Q221 367 220 328T218 251T219 170T223 70Q223 70 221
59T211 34T186 9T136 1ZM270 539Q252 552 246 564T240 587T242 604T245 611Q258 629 269 642T294 667T330 695Q339 703 357 706T396 706T433 690L514 638Q514 638 521 630T535 609T540 580T519 547Q506 535 491 533T463 532T441 538T432 541L391 574Q379 564 365
553T340 532Q340 532 330 529T303 526T270 539Z" />
<glyph unicode="&#xef;" horiz-adv-x="254" d="M136 1Q109 3 91 13T62 38T47 62T42 72Q36 126 34 168T31 248T33 332T41 437Q41 437 43 447T54 469T80 491T128 500Q161 499 180 486T208 457T221 428T224 415Q221 367 220 328T218 251T219 170T223 70Q223 70 221
59T211 34T186 9T136 1ZM499 519Q471 519 448 530T411 561T397 605Q397 629 411 649T448 680T499 692Q527 692 550 681T586 649T600 605Q600 557 571 538T499 519ZM287 519Q259 519 236 530T200 561T186 605Q186 629 199 649T236 680T287 692Q316 692 339 681T375
649T389 605Q389 573 376 554T339 527T287 519Z" />
<glyph unicode="&#xf0;" horiz-adv-x="603" d="M308 7Q253 3 201 12T109 48T49 120Q25 165 32 214T74 305T169 366Q217 381 258 387T346 391Q345 404 340 416T329 438T321 449Q311 463 299 473T275 490Q238 497 207 491T144 480Q144 480 136 478T114 476T88 479T65
497Q51 515 52 533T60 565T75 588T83 597Q143 636 211 648T349 644Q385 635 422 607T490 533T539 425T556 284Q548 179 483 107T308 7ZM286 165Q301 166 313 172T334 191T345 218Q324 226 305 229T268 228Q231 218 240 190Q246 179 257 172T286 165ZM309 412Q309
412 301 411T282 410T258 417T238 439Q229 456 229 467T235 487T245 498T250 502Q266 509 287 517T334 532T387 546T444 557T504 562Q504 562 513 560T534 553T557 539T571 514Q575 494 569 481T554 461T536 451T528 448Q497 444 474 442T430 436T392 430T354 423T309
412Z" />
<glyph unicode="&#xf1;" horiz-adv-x="619" d="M464 7Q431 16 415 34T394 73T389 107T390 122Q398 172 396 222T377 303Q364 324 341 329T291 325T244 294Q224 273 218 246T211 192T209 150Q208 129 208 119T207 103T206 86Q206 86 206 78T200 58T181 37T139 26Q117
25 100 37T72 62T62 75Q53 87 51 99T49 131T48 183Q42 223 41 248T43 291T56 326T81 368Q104 396 138 422T214 466T298 491T380 486Q402 480 430 468T486 432T539 370T578 276Q589 229 589 185T579 76Q579 76 576 62T562 32T528 6T464 7ZM136 1Q109 3 91 13T62
38T47 62T42 72Q36 126 34 168T31 248T33 332T41 437Q41 437 43 447T54 469T80 491T128 500Q161 499 180 486T208 457T221 428T224 415Q221 367 220 328T218 251T219 170T223 70Q223 70 221 59T211 34T186 9T136 1ZM208 530Q192 523 176 526T150 536T140 543Q116
563 112 587T116 634T144 672T188 691Q227 696 253 691T300 674T345 650Q348 650 349 655T355 666Q355 666 362 673T386 686T428 684Q455 677 467 664T484 639T487 617T486 608Q485 592 467 567T417 532Q397 526 377 526T338 529T296 543Q284 547 272 553T251 566T236
576Q236 576 236 568T230 549T208 530Z" />
<glyph unicode="&#xf2;" horiz-adv-x="607" d="M301 -1Q243 -1 194 18T108 70T51 148T30 242Q30 292 49 338T104 421T188 479T295 500Q353 500 404 485T494 439T555 361T577 250Q577 200 556 155T497 74T409 19T301 -1ZM297 165Q314 165 329 172T357 192T376 221T383
255Q383 286 373 305T346 334T305 344Q288 344 274 336T248 313T231 282T224 247Q224 223 233 205T258 176T297 165ZM338 532Q328 534 309 538T268 551T225 572T187 600Q187 600 182 605T172 621T167 643T176 671Q184 684 197 689T223 696T244 696T253 695Q273
691 300 684T377 655Q377 655 387 649T408 630T422 599T413 558Q406 545 394 539T369 532T347 531T338 532Z" />
<glyph unicode="&#xf3;" horiz-adv-x="607" d="M301 -1Q243 -1 194 18T108 70T51 148T30 242Q30 292 49 338T104 421T188 479T295 500Q353 500 404 485T494 439T555 361T577 250Q577 200 556 155T497 74T409 19T301 -1ZM297 165Q314 165 329 172T357 192T376 221T383
255Q383 286 373 305T346 334T305 344Q288 344 274 336T248 313T231 282T224 247Q224 223 233 205T258 176T297 165ZM252 527Q252 527 243 527T222 527T197 534T177 553Q165 576 168 594T183 624T204 643T214 650Q263 673 290 680T337 690Q337 690 346 691T368
691T394 685T415 667Q424 652 424 639T418 617T408 602T403 596Q387 580 366 568T322 548T282 534T252 527Z" />
<glyph unicode="&#xf4;" horiz-adv-x="607" d="M301 -1Q243 -1 194 18T108 70T51 148T30 242Q30 292 49 338T104 421T188 479T295 500Q353 500 404 485T494 439T555 361T577 250Q577 200 556 155T497 74T409 19T301 -1ZM297 165Q314 165 329 172T357 192T376 221T383
255Q383 286 373 305T346 334T305 344Q288 344 274 336T248 313T231 282T224 247Q224 223 233 205T258 176T297 165ZM175 539Q157 552 151 564T145 587T147 604T150 611Q163 629 174 642T199 667T235 695Q244 703 262 706T301 706T338 690L419 638Q419 638 426
630T440 609T445 580T424 547Q411 535 396 533T368 532T346 538T337 541L296 574Q284 564 270 553T245 532Q245 532 235 529T208 526T175 539Z" />
<glyph unicode="&#xf5;" horiz-adv-x="607" d="M301 -1Q243 -1 194 18T108 70T51 148T30 242Q30 292 49 338T104 421T188 479T295 500Q353 500 404 485T494 439T555 361T577 250Q577 200 556 155T497 74T409 19T301 -1ZM297 165Q314 165 329 172T357 192T376 221T383
255Q383 286 373 305T346 334T305 344Q288 344 274 336T248 313T231 282T224 247Q224 223 233 205T258 176T297 165ZM205 530Q189 523 173 526T147 536T137 543Q113 563 109 587T113 634T141 672T185 691Q224 696 250 691T297 674T342 650Q345 650 346 655T352
666Q352 666 359 673T383 686T425 684Q452 677 464 664T481 639T484 617T483 608Q482 592 464 567T414 532Q394 526 374 526T335 529T293 543Q281 547 269 553T248 566T233 576Q233 576 233 568T227 549T205 530Z" />
<glyph unicode="&#xf6;" horiz-adv-x="607" d="M301 -1Q243 -1 194 18T108 70T51 148T30 242Q30 292 49 338T104 421T188 479T295 500Q353 500 404 485T494 439T555 361T577 250Q577 200 556 155T497 74T409 19T301 -1ZM297 165Q314 165 329 172T357 192T376 221T383
255Q383 286 373 305T346 334T305 344Q288 344 274 336T248 313T231 282T224 247Q224 223 233 205T258 176T297 165ZM404 519Q376 519 353 530T316 561T302 605Q302 629 316 649T353 680T404 692Q432 692 455 681T491 649T505 605Q505 557 476 538T404 519ZM192
519Q164 519 141 530T105 561T91 605Q91 629 104 649T141 680T192 692Q221 692 244 681T280 649T294 605Q294 573 281 554T244 527T192 519Z" />
<glyph unicode="&#xf7;" horiz-adv-x="566" d="M142 241Q140 241 129 241T104 245T76 261T55 295Q47 319 50 334T62 359T78 371T86 375Q109 380 139 385T205 395T279 401T358 402T439 393Q439 393 450 388T477 373T504 348T516 312Q516 285 505 270T480 247T454
237T443 235Q401 238 369 240T310 243T258 245T205 244T142 241ZM283 57Q255 57 232 69T196 100T182 144Q182 168 195 187T232 218T283 230Q312 230 335 219T371 188T385 144Q385 112 372 93T335 65T283 57ZM283 412Q255 412 232 423T196 455T182 499Q182 523 195
543T232 574T283 586Q312 586 335 575T371 543T385 499Q385 467 372 448T335 420T283 412Z" />
<glyph unicode="&#xf8;" horiz-adv-x="607" d="M301 -1Q243 -1 194 18T108 70T51 148T30 242Q30 292 49 338T104 421T188 479T295 500Q353 500 404 485T494 439T555 361T577 250Q577 200 556 155T497 74T409 19T301 -1ZM200 -35Q182 -27 174 -14T163 11T161 32T162
41Q181 99 209 174T271 332T338 496Q338 496 342 503T354 519T375 532T406 529Q426 521 435 509T446 483T447 461T445 452Q407 356 375 270T317 111T271 -18Q271 -18 264 -26T241 -40T200 -35ZM297 165Q314 165 329 172T357 192T376 221T383 255Q383 286 373 305T346
334T305 344Q288 344 274 336T248 313T231 282T224 247Q224 223 233 205T258 176T297 165Z" />
<glyph unicode="&#xf9;" horiz-adv-x="618" d="M239 7Q217 12 189 25T133 62T80 124T41 219Q31 267 31 312T40 422Q40 422 43 436T57 467T91 493T154 492Q188 483 204 464T225 425T230 391T229 376Q220 326 222 275T242 191Q252 176 267 170T301 164T334 171T357
186Q363 195 365 223T365 284T356 336Q350 358 346 373T341 400T338 426Q338 426 339 436T347 459T371 484T419 497Q449 500 472 487T510 461T524 447Q538 429 556 393T582 311Q590 257 587 219T572 149T537 85Q514 57 480 37T404 7T321 -4T239 7ZM325 532Q315
534 296 538T255 551T212 572T174 600Q174 600 169 605T159 621T154 643T163 671Q171 684 184 689T210 696T231 696T240 695Q260 691 287 684T364 655Q364 655 374 649T395 630T409 599T400 558Q393 545 381 539T356 532T334 531T325 532Z" />
<glyph unicode="&#xfa;" horiz-adv-x="618" d="M239 7Q217 12 189 25T133 62T80 124T41 219Q31 267 31 312T40 422Q40 422 43 436T57 467T91 493T154 492Q188 483 204 464T225 425T230 391T229 376Q220 326 222 275T242 191Q252 176 267 170T301 164T334 171T357
186Q363 195 365 223T365 284T356 336Q350 358 346 373T341 400T338 426Q338 426 339 436T347 459T371 484T419 497Q449 500 472 487T510 461T524 447Q538 429 556 393T582 311Q590 257 587 219T572 149T537 85Q514 57 480 37T404 7T321 -4T239 7ZM239 527Q239
527 230 527T209 527T184 534T164 553Q152 576 155 594T170 624T191 643T201 650Q250 673 277 680T324 690Q324 690 333 691T355 691T381 685T402 667Q411 652 411 639T405 617T395 602T390 596Q374 580 353 568T309 548T269 534T239 527Z" />
<glyph unicode="&#xfb;" horiz-adv-x="618" d="M239 7Q217 12 189 25T133 62T80 124T41 219Q31 267 31 312T40 422Q40 422 43 436T57 467T91 493T154 492Q188 483 204 464T225 425T230 391T229 376Q220 326 222 275T242 191Q252 176 267 170T301 164T334 171T357
186Q363 195 365 223T365 284T356 336Q350 358 346 373T341 400T338 426Q338 426 339 436T347 459T371 484T419 497Q449 500 472 487T510 461T524 447Q538 429 556 393T582 311Q590 257 587 219T572 149T537 85Q514 57 480 37T404 7T321 -4T239 7ZM162 539Q144
552 138 564T132 587T134 604T137 611Q150 629 161 642T186 667T222 695Q231 703 249 706T288 706T325 690L406 638Q406 638 413 630T427 609T432 580T411 547Q398 535 383 533T355 532T333 538T324 541L283 574Q271 564 257 553T232 532Q232 532 222 529T195 526T162
539Z" />
<glyph unicode="&#xfc;" horiz-adv-x="618" d="M239 7Q217 12 189 25T133 62T80 124T41 219Q31 267 31 312T40 422Q40 422 43 436T57 467T91 493T154 492Q188 483 204 464T225 425T230 391T229 376Q220 326 222 275T242 191Q252 176 267 170T301 164T334 171T357
186Q363 195 365 223T365 284T356 336Q350 358 346 373T341 400T338 426Q338 426 339 436T347 459T371 484T419 497Q449 500 472 487T510 461T524 447Q538 429 556 393T582 311Q590 257 587 219T572 149T537 85Q514 57 480 37T404 7T321 -4T239 7ZM391 519Q363
519 340 530T303 561T289 605Q289 629 303 649T340 680T391 692Q419 692 442 681T478 649T492 605Q492 557 463 538T391 519ZM179 519Q151 519 128 530T92 561T78 605Q78 629 91 649T128 680T179 692Q208 692 231 681T267 649T281 605Q281 573 268 554T231 527T179
519Z" />
<glyph unicode="&#xfd;" horiz-adv-x="639" d="M357 -214Q287 -218 225 -205T108 -165Q108 -165 97 -159T73 -141T54 -110T55 -68Q63 -44 78 -34T110 -22T137 -21T149 -23Q184 -32 208 -38T253 -48T297 -53Q344 -51 369 -38T404 2T413 70Q417 138 417 186T413
275T405 357T395 455Q395 455 401 466T424 487T474 498Q508 499 530 484T563 455T575 440Q593 366 600 300T608 162T605 0Q595 -101 536 -154T357 -214ZM220 12Q178 31 141 60T78 128T43 212Q35 250 33 280T32 343T42 418Q42 418 45 429T58 456T86 482T133 491Q168
488 188 476T218 446T230 411T232 383T231 372Q224 314 227 274T239 212T256 181Q268 171 294 171T363 189Q368 191 379 205T401 243T411 298L550 325Q564 244 549 183T496 78Q467 46 424 24T329 -2T220 12ZM272 527Q272 527 263 527T242 527T217 534T197 553Q185
576 188 594T203 624T224 643T234 650Q283 673 310 680T357 690Q357 690 366 691T388 691T414 685T435 667Q444 652 444 639T438 617T428 602T423 596Q407 580 386 568T342 548T302 534T272 527Z" />
<glyph unicode="&#xfe;" horiz-adv-x="589" d="M299 64Q250 64 209 82T137 134T92 210T81 304Q85 354 107 397T164 474T244 526T338 545Q388 545 429 524T501 466T546 383T558 287Q554 237 532 196T474 126T394 80T299 64ZM137 5Q105 5 86 18T57 47T44 76T41 89Q37
132 35 180T31 279T31 382T36 485T43 584Q43 584 45 594T54 618T79 641T126 651Q159 650 179 639T209 612T223 579T227 552T227 541Q223 500 221 455T219 363T218 266T221 169T225 74Q225 74 224 64T214 39T188 15T137 5ZM316 244Q329 244 340 252T358 276T366
308Q367 326 362 340T347 363T324 372Q311 372 300 364T282 341T274 308Q273 291 278 276T294 253T316 244Z" />
<glyph unicode="&#xff;" horiz-adv-x="639" d="M357 -214Q287 -218 225 -205T108 -165Q108 -165 97 -159T73 -141T54 -110T55 -68Q63 -44 78 -34T110 -22T137 -21T149 -23Q184 -32 208 -38T253 -48T297 -53Q344 -51 369 -38T404 2T413 70Q417 138 417 186T413
275T405 357T395 455Q395 455 401 466T424 487T474 498Q508 499 530 484T563 455T575 440Q593 366 600 300T608 162T605 0Q595 -101 536 -154T357 -214ZM220 12Q178 31 141 60T78 128T43 212Q35 250 33 280T32 343T42 418Q42 418 45 429T58 456T86 482T133 491Q168
488 188 476T218 446T230 411T232 383T231 372Q224 314 227 274T239 212T256 181Q268 171 294 171T363 189Q368 191 379 205T401 243T411 298L550 325Q564 244 549 183T496 78Q467 46 424 24T329 -2T220 12ZM424 519Q396 519 373 530T336 561T322 605Q322 629 336
649T373 680T424 692Q452 692 475 681T511 649T525 605Q525 557 496 538T424 519ZM212 519Q184 519 161 530T125 561T111 605Q111 629 124 649T161 680T212 692Q241 692 264 681T300 649T314 605Q314 573 301 554T264 527T212 519Z" />
<glyph unicode="&#x2013;" horiz-adv-x="526" d="M122 241Q119 241 108 241T83 245T56 261T35 295Q27 319 30 334T42 359T58 371T66 375Q89 380 119 385T185 395T259 401T338 402T419 393Q419 393 430 388T457 373T484 348T496 312Q496 285 485 270T460 247T434
237T423 235Q381 238 349 240T290 243T238 245T185 244T122 241Z" />
<glyph unicode="&#x2014;" horiz-adv-x="726" d="M696 312Q696 285 685 270T660 247T634 237T623 235Q581 238 529 240T420 243T308 245T205 244T122 241Q122 241 112 241T86 245T56 261T35 295Q27 319 30 334T42 359T58 371T66 375Q86 380 124 384T214 392T321
399T433 402T537 401T619 393Q619 393 630 388T657 373T684 348T696 312Z" />
<glyph unicode="&#x2018;" horiz-adv-x="261" d="M91 417Q65 425 55 440T43 469T41 482L47 516Q28 542 30 570T52 619T102 645Q141 647 166 637T204 611T224 579T231 551Q231 530 224 506T204 462T176 432Q176 432 166 425T136 413T91 417Z" />
<glyph unicode="&#x2019;" horiz-adv-x="261" d="M159 404Q120 403 95 412T57 438T38 470T30 498Q30 520 37 544T57 588T85 617Q85 617 95 624T125 636T170 632Q196 624 206 609T218 580T220 567L214 533Q234 507 231 479T209 430T159 404Z" />
<glyph unicode="&#x201a;" horiz-adv-x="261" d="M91 -103Q65 -95 55 -80T43 -51T41 -38L47 -4Q28 22 30 50T52 99T102 125Q141 127 166 117T204 91T224 59T231 31Q231 10 224 -14T204 -58T176 -88Q176 -88 166 -95T136 -107T91 -103Z" />
<glyph unicode="&#x201c;" horiz-adv-x="501" d="M331 417Q305 425 295 440T283 469T281 482L287 516Q268 542 270 570T292 619T342 645Q381 647 406 637T444 611T464 579T471 551Q471 530 464 506T444 462T416 432Q416 432 406 425T376 413T331 417ZM91 417Q65
425 55 440T43 469T41 482L47 516Q28 542 30 570T52 619T102 645Q141 647 166 637T204 611T224 579T231 551Q231 530 224 506T204 462T176 432Q176 432 166 425T136 413T91 417Z" />
<glyph unicode="&#x201d;" horiz-adv-x="501" d="M399 404Q360 403 335 412T297 438T278 470T270 498Q270 520 277 544T297 588T325 617Q325 617 335 624T365 636T410 632Q436 624 446 609T458 580T460 567L454 533Q474 507 471 479T449 430T399 404ZM159 404Q120
403 95 412T57 438T38 470T30 498Q30 520 37 544T57 588T85 617Q85 617 95 624T125 636T170 632Q196 624 206 609T218 580T220 567L214 533Q234 507 231 479T209 430T159 404Z" />
<glyph unicode="&#x201e;" horiz-adv-x="491" d="M321 -103Q295 -95 285 -80T273 -51T271 -38L277 -4Q258 22 260 50T282 99T332 125Q371 127 396 117T434 91T454 59T461 31Q461 10 454 -14T434 -58T406 -88Q406 -88 396 -95T366 -107T321 -103ZM91 -103Q65 -95
55 -80T43 -51T41 -38L47 -4Q28 22 30 50T52 99T102 125Q141 127 166 117T204 91T224 59T231 31Q231 10 224 -14T204 -58T176 -88Q176 -88 166 -95T136 -107T91 -103Z" />
<glyph unicode="&#x2022;" horiz-adv-x="327" d="M163 211Q126 211 96 226T48 268T30 325Q30 357 48 382T96 423T163 438Q201 438 231 423T279 383T297 325Q297 283 279 258T231 222T163 211Z" />
<glyph unicode="&#x2039;" horiz-adv-x="354" d="M275 71Q258 60 240 62T205 71T179 86T169 93Q148 116 133 130T105 161T74 204Q45 241 37 266T31 311T42 344Q55 371 75 405T122 475T181 539Q181 539 188 546T210 562T244 571T285 560Q307 548 315 535T323 510T321
491T318 483Q297 448 279 422T243 372T207 317Q190 280 211 252L289 170Q289 170 294 164T304 148T310 125T304 98T275 71Z" />
<glyph unicode="&#x203a;" horiz-adv-x="354" d="M79 71Q58 84 51 98T44 125T50 148T60 164T65 170L143 252Q164 280 147 317Q128 348 111 372T76 422T36 483Q36 483 34 490T31 510T39 535T69 560Q92 572 110 571T143 562T165 547T173 539Q205 510 231 475T278
406T312 344Q320 330 323 311T318 267T280 204Q263 178 250 162T222 131T185 93Q185 93 175 86T149 72T115 62T79 71Z" />
</font>
</defs>
</svg>
