<?xml version="1.0" standalone="no"?>
<!DOCTYPE svg PUBLIC "-//W3C//DTD SVG 1.1//EN" "http://www.w3.org/Graphics/SVG/1.1/DTD/svg11.dtd">
<svg xmlns="http://www.w3.org/2000/svg">
<defs >
<font id="SourGummy" horiz-adv-x="482" ><font-face
    font-family="Sour Gummy Black Thin"
    units-per-em="1000"
    panose-1="0 0 0 0 0 0 0 0 0 0"
    ascent="996"
    descent="-296"
    alphabetic="0" />
<glyph unicode=" " horiz-adv-x="260" />
<glyph unicode="!" horiz-adv-x="165" d="M81 189Q72 189 67 193T59 202T56 206Q57 269 57 341T60 488T65 632Q65 632 65 635T68 641T75 648T88 651Q95 651 99 649T105 643T109 636T110 630T110 627Q108 577 107 528T104 429T102 324T101 208Q101 208 100 204T95
194T81 189ZM82 -2Q73 -2 66 1T54 11T50 26Q50 34 54 40T65 51T82 55Q91 55 98 51T110 41T115 26Q115 18 111 12T99 2T82 -2Z" />
<glyph unicode="&quot;" horiz-adv-x="290" d="M216 505Q210 506 207 509T204 516T203 520Q204 536 204 551T203 582T202 614Q202 614 202 618T206 626T219 630Q226 630 230 628T236 622T238 616T239 613Q241 582 239 558T232 514Q232 514 231 511T226 506T216
505ZM65 505Q59 506 56 509T53 516T52 520Q53 536 53 551T52 582T51 614Q51 614 51 618T55 626T68 630Q75 630 79 628T85 622T87 616T88 613Q90 582 88 558T81 514Q81 514 80 511T75 506T65 505Z" />
<glyph unicode="#" horiz-adv-x="610" d="M459 -1Q452 -1 448 1T440 8T436 14T435 17Q430 60 428 120T425 248T425 386T430 518T437 629Q437 629 437 632T440 638T447 645T460 648Q467 648 471 646T477 639T481 632T482 626T482 623Q478 583 476 525T473 399T472
263T475 131T480 18Q480 18 480 15T477 9T471 2T459 -1ZM162 -1Q155 -1 151 1T143 8T139 14T138 17Q134 60 132 120T129 248T129 386T133 518T140 629Q140 629 140 632T143 638T150 645T163 648Q170 648 174 646T180 639T184 632T185 626T185 623Q181 583 179 525T177
399T176 263T178 131T183 18Q183 18 183 15T180 9T174 2T162 -1ZM83 138Q83 138 79 138T68 141T56 147T51 160Q51 167 54 170T63 176T73 178T77 178Q179 185 293 189T530 196Q530 196 533 196T540 195T548 192T556 185T559 175Q559 168 556 164T549 158T542 156T539
155L83 138ZM83 411Q83 411 79 411T68 413T56 419T51 431Q51 439 54 442T63 448T73 450T77 450Q179 457 293 461T530 469Q530 469 533 469T540 467T548 464T556 458T559 448Q559 441 556 437T549 430T542 428T539 427L83 411Z" />
<glyph unicode="$" horiz-adv-x="463" d="M273 3Q227 -2 189 3T122 18T78 36T62 44Q62 44 61 45T57 48T53 54T51 61T53 69Q56 74 60 76T68 78T74 77T77 76Q120 58 166 50T253 45T323 67T361 121Q370 157 357 184T317 233T258 271T196 300Q177 309 156 323T118
356T89 398T75 448T84 506T123 570Q150 603 180 620T241 643T297 649T345 644T378 635T390 630Q390 630 392 629T399 624T406 617T411 609T411 600Q409 595 404 593T394 591T385 591T381 592Q321 609 271 599T186 561T134 496T128 422Q136 393 159 373T213 338T278
307T340 273T386 227Q405 197 410 167T409 109T384 59T338 22T273 3ZM272 -89Q264 -89 260 -84T254 -75T253 -70Q252 -59 251 -47T249 -20T247 10L292 24Q293 7 293 -10T293 -42T289 -73Q289 -73 288 -77T284 -85T272 -89ZM249 621Q248 639 248 655T248 687T251
718Q251 718 252 722T257 730T269 734Q277 734 281 730T286 720T287 715Q289 704 290 692T292 665T293 635L249 621Z" />
<glyph unicode="%" horiz-adv-x="851" d="M296 6Q289 8 286 12T282 20T281 27T281 30Q306 106 344 204T430 416T533 649Q533 649 534 651T539 655T546 658T558 655Q565 652 567 647T570 637T568 629T566 626Q516 508 470 397T386 189T321 17Q321 17 319 13T311
6T296 6ZM161 355Q109 355 80 392T50 493Q50 524 62 553T94 604T139 640T190 654Q225 654 251 636T292 584T307 509Q307 478 294 450T260 401T213 367T161 355ZM167 386Q192 386 216 403T255 448T271 509Q271 559 248 591T187 624Q162 624 139 606T102 558T87 495Q87
446 108 416T167 386ZM655 2Q603 2 574 39T544 139Q544 170 556 199T588 251T633 287T684 301Q719 301 745 282T786 231T801 156Q801 125 789 97T755 48T708 14T655 2ZM661 32Q686 32 710 49T749 94T765 155Q765 205 742 238T681 271Q656 271 633 253T596 205T581
142Q581 92 602 62T661 32Z" />
<glyph unicode="&amp;" horiz-adv-x="550" d="M112 25Q80 48 66 76T51 136T65 205Q83 245 106 274T158 324T221 355Q158 381 127 419T94 506Q99 540 113 563T148 603T197 629T256 646L395 650Q395 650 398 650T407 650T417 647T425 642T429 633Q429 627 425 623T415
617T405 615T400 614Q346 613 304 610T228 596T169 559Q148 534 142 511T143 467T169 426Q188 409 217 393T287 359Q287 359 288 358T291 355T291 349Q291 345 288 343T283 341T280 340Q241 328 208 309T150 262T107 193Q87 138 98 104T146 55T242 37Q306 50 347
75T412 134T446 210Q447 219 447 228T449 246T451 264Q451 264 451 266T453 272T459 277T473 280Q482 280 487 277T494 269T498 261T499 258Q499 218 490 186T465 129T427 82T380 42Q310 2 243 -3T112 25ZM270 -89Q262 -89 258 -84T253 -75T252 -70Q251 -59 250
-47T248 -20T246 10L290 24Q292 7 292 -10T291 -42T288 -73Q288 -73 287 -77T283 -85T270 -89ZM247 621Q246 639 246 655T247 687T250 718Q250 718 251 722T255 730T267 734Q276 734 280 730T285 720T286 715Q288 704 289 692T291 665T292 635L247 621Z" />
<glyph unicode="&apos;" horiz-adv-x="139" d="M65 505Q59 506 56 509T53 516T52 520Q53 536 53 551T52 582T51 614Q51 614 51 618T55 626T68 630Q75 630 79 628T85 622T87 616T88 613Q90 582 88 558T81 514Q81 514 80 511T75 506T65 505Z" />
<glyph unicode="(" horiz-adv-x="259" d="M154 -25Q147 -27 142 -26T132 -23T126 -18T124 -16Q79 58 62 153T54 363Q62 415 73 467T108 571T170 675Q170 675 174 679T186 686T200 686Q204 684 206 681T208 675T209 670T208 665T207 663Q180 622 162 581T131 501T112
423T99 350Q95 311 98 260T111 156T135 62T164 -3Q164 -3 164 -6T165 -12T163 -19T154 -25Z" />
<glyph unicode=")" horiz-adv-x="259" d="M105 -25Q99 -23 97 -20T94 -13T94 -6T95 -3Q110 19 124 61T148 156T161 259T160 350Q156 385 149 423T129 500T98 581T52 663Q52 663 52 665T51 669T50 675T53 681T59 686Q66 690 73 687T84 679T89 675Q129 623 151 571T186
467T205 363Q214 248 197 153T135 -16Q135 -16 133 -18T127 -22T118 -26T105 -25Z" />
<glyph unicode="*" horiz-adv-x="426" d="M87 434Q82 436 81 439T79 444T80 447Q91 473 108 507T146 574T185 628T218 650Q224 650 229 648T239 641T250 630Q277 586 300 547T338 480Q338 480 338 478T339 473T337 466T330 461Q325 460 321 461T313 464T308 468T306
470L219 620Q186 574 157 528T101 437Q101 437 100 436T95 433T87 434ZM358 546Q283 554 212 555T75 549Q75 549 70 549T58 551T51 559Q50 566 55 569T67 574T73 575Q120 582 167 583T264 583T363 573Q363 573 365 572T370 569T374 564T375 557Q374 552 370 550T362
547T358 546Z" />
<glyph unicode="+" horiz-adv-x="437" d="M219 62Q210 63 205 66T198 74T195 82T194 86Q194 155 194 221T196 349T198 462T203 554Q203 554 203 557T205 565T211 573T224 576Q231 576 235 574T242 568T246 562T247 556T248 553Q246 495 244 422T242 263T240 88Q240
88 240 84T238 75T232 66T219 62ZM51 305Q50 312 53 316T61 323T70 327T74 328Q100 333 127 337T182 343T240 345T301 342T366 333Q366 333 369 332T377 327T385 318T386 306Q385 301 382 298T374 294T367 293T361 294T358 295Q322 300 287 302T218 305T149 301T81
292Q81 292 77 292T68 291T58 295T51 305Z" />
<glyph unicode="," horiz-adv-x="174" d="M59 -93Q53 -89 52 -85T50 -77T51 -73L75 -1Q60 16 57 35T59 68T80 86Q90 87 98 85T111 78T119 66T124 49Q124 19 119 -5T105 -49T84 -85Q84 -85 81 -88T72 -94T59 -93Z" />
<glyph unicode="-" horiz-adv-x="462" d="M78 294Q77 294 73 294T65 294T57 298T51 307Q49 313 51 317T56 323T63 327T66 328Q106 334 136 338T193 343T247 345T308 342T385 336Q385 336 389 335T399 331T408 324T411 312Q410 305 406 302T398 297T390 296T386
296Q344 299 313 300T255 302T204 302T148 299T78 294Z" />
<glyph unicode="." horiz-adv-x="165" d="M82 -2Q73 -2 66 1T54 11T50 26Q50 34 54 40T65 51T82 55Q91 55 98 51T110 41T115 26Q115 14 106 6T82 -2Z" />
<glyph unicode="/" horiz-adv-x="390" d="M67 6Q60 8 57 12T52 20T51 27T51 30Q76 106 114 204T200 416T303 649Q303 649 304 651T309 655T317 658T329 655Q336 652 338 647T340 637T338 629T336 626Q287 508 241 397T156 189T92 17Q92 17 90 13T82 6T67 6Z" />
<glyph unicode="0" horiz-adv-x="615" d="M262 -3Q198 -3 149 37T73 148T51 310Q53 378 72 441T125 556T201 636T292 666Q331 666 371 655T447 618T510 552T552 453T564 317Q562 253 543 202T492 112T422 48T342 10T262 -3ZM87 184L83 217Q177 285 287 332T523
411L533 365Q414 349 303 303T87 184ZM271 43Q313 43 355 60T434 114T495 204T522 332Q525 412 508 466T458 553T386 600T303 615Q261 615 224 591T159 525T113 427T93 309Q90 225 111 166T173 75T271 43Z" />
<glyph unicode="1" horiz-adv-x="350" d="M277 2Q270 2 265 4T258 10T254 16T252 19Q246 72 243 144T240 294T242 448T250 583L84 427Q84 427 82 426T76 424T67 424T57 429Q52 434 51 438T51 445T53 451T55 453L190 577Q215 600 238 621T278 640Q286 640 290 637T297
628T299 620T300 616Q296 576 294 519T291 396T290 261T292 131T297 20Q297 20 297 18T294 11T288 5T277 2Z" />
<glyph unicode="2" horiz-adv-x="475" d="M127 4Q117 4 110 7T100 16T98 29T108 46Q182 160 232 254T306 415T321 515Q305 566 277 589T211 615Q171 614 140 598T83 556Q83 556 81 555T76 552T68 551T58 556Q55 559 53 561T51 567T51 573T55 579Q78 604 102 619T152
642T207 650Q255 648 288 628T342 576T368 506T365 429Q353 378 330 326T279 222T219 125T158 40H405Q405 40 408 40T415 38T422 33T425 24Q425 18 423 15T419 11T415 9T413 8L127 4Z" />
<glyph unicode="3" horiz-adv-x="450" d="M233 7Q206 11 181 18T134 38T93 65T56 101Q56 101 55 103T52 108T50 116T56 125Q61 130 67 129T78 126T86 120T90 117Q99 108 121 93T173 64T235 45Q265 49 288 59T326 87T349 131T354 191Q333 260 291 292T190 329Q182
330 176 333T169 341T171 350T186 357Q193 359 214 362T262 377T310 411Q338 444 346 475T343 537T299 596Q278 610 247 612T180 611T104 596Q104 596 101 596T93 595T84 598T77 606Q75 611 76 615T80 621T85 624T88 625Q119 636 150 643T210 649Q229 651 247 649T284
640T321 625Q356 601 373 571T391 507T383 444T352 392Q341 381 329 372T303 355T275 341Q307 327 332 307T374 258T398 190Q404 142 392 108T356 51T299 18T233 7Z" />
<glyph unicode="4" horiz-adv-x="470" d="M399 2Q392 2 388 4T380 10T376 16T375 19Q370 62 367 119T363 241T362 368T363 489T367 589L106 312Q96 294 94 281T99 261T121 250L373 257L367 223Q330 219 291 217T210 214T124 215Q97 218 80 229T56 257T52 294T71
335Q120 390 165 438T245 519Q282 556 316 589T382 650Q391 653 398 650T409 641T414 630T415 623Q411 582 410 524T408 400T410 264T414 133T420 21Q420 21 420 18T417 12T411 5T399 2Z" />
<glyph unicode="5" horiz-adv-x="450" d="M218 13Q186 13 158 21T106 43T61 79Q61 79 60 81T58 86T58 94T63 103Q69 108 75 108T86 105T91 102Q114 79 143 66T211 50Q269 61 300 85T344 146T355 225Q347 255 334 277T301 314T258 333T205 336L101 304Q94 300 88
300T76 304T67 315T63 331Q60 390 57 450T52 557T51 624Q53 629 55 633T62 639T73 643T89 643L356 639Q356 639 358 639T364 637T372 634T378 628T380 619Q380 612 377 609T368 604T360 603T356 603L90 610Q93 563 97 495T106 349Q143 363 175 369T237 374T289
361Q331 344 355 316T390 255T400 189T388 131Q369 91 344 66T287 28T218 13Z" />
<glyph unicode="6" horiz-adv-x="558" d="M277 7Q169 35 114 103T51 278Q50 356 66 418T110 527T173 601T244 639Q312 656 376 646T498 597Q498 597 500 596T504 592T507 585T506 576Q503 571 500 570T492 569T486 571T483 573Q425 602 370 608T261 601Q203 576
170 531T119 429Q112 405 107 381T100 333T97 285Q174 315 244 322T379 310Q438 291 467 261T503 195T499 127Q480 82 449 54T375 15T277 7ZM299 46Q358 48 394 73T450 139Q481 238 358 275Q302 289 237 278T101 240Q111 186 139 144T209 75T299 46Z" />
<glyph unicode="7" horiz-adv-x="422" d="M350 2Q343 2 339 4T331 10T327 16T326 19Q320 73 318 148T315 307T317 469T325 609Q285 614 244 614T163 610T81 596Q81 596 78 595T69 594T59 596T52 604Q50 610 52 613T58 619T65 622T68 623Q113 638 158 644T251 651T346
643Q356 643 361 639T369 629T371 619T371 615Q367 575 366 518T364 395T364 262T366 132T371 21Q371 21 371 18T368 12T362 5T350 2Z" />
<glyph unicode="8" horiz-adv-x="537" d="M261 306Q216 306 178 316T111 347T66 395T50 460Q50 496 62 530T100 593T167 638T267 653Q312 652 352 638T422 601T470 546T487 479Q487 444 468 413T417 358T344 320T261 306ZM261 -2Q216 -2 178 8T111 39T66 88T50
153Q50 188 62 223T100 286T167 330T267 345Q312 344 352 331T422 293T470 239T487 172Q487 136 468 105T417 50T344 12T261 -2ZM256 35Q288 35 321 47T381 78T424 123T441 176Q441 203 426 226T384 266T324 292T255 299Q196 297 160 276T107 222T91 153Q91 116
113 90T172 50T256 35ZM256 343Q288 343 321 354T381 386T424 431T441 484Q441 511 426 534T384 573T324 599T255 607Q196 605 160 584T107 530T91 460Q91 424 113 398T172 357T256 343Z" />
<glyph unicode="9" horiz-adv-x="557" d="M314 17Q245 -1 182 9T60 59Q60 59 58 60T54 64T50 71T52 80Q54 85 58 86T65 86T71 84T74 82Q133 54 188 48T297 55Q355 80 388 125T438 227Q446 251 450 275T457 323T461 371Q384 340 314 334T178 346Q120 365 91 395T55
461T58 529Q78 574 109 602T183 642T281 649Q388 621 443 552T506 378Q508 300 492 238T447 129T385 55T314 17ZM199 380Q256 367 321 378T456 416Q447 470 419 512T349 581T259 610Q199 608 163 583T107 517Q75 418 199 380Z" />
<glyph unicode=":" horiz-adv-x="165" d="M82 366Q73 366 66 369T54 379T50 394Q50 402 54 408T65 418T82 422Q91 422 98 419T110 409T115 394Q115 386 111 380T99 370T82 366ZM82 164Q73 164 66 167T54 177T50 192Q50 200 54 206T65 217T82 221Q91 221 98 217T110
207T115 192Q115 184 111 178T99 168T82 164Z" />
<glyph unicode=";" horiz-adv-x="174" d="M59 40Q53 44 52 48T50 57T51 61L75 132Q60 149 57 168T59 202T80 219Q90 220 98 218T111 211T119 199T124 182Q124 152 119 128T105 84T84 48Q84 48 81 45T72 39T59 40ZM88 358Q79 358 72 361T60 371T55 386Q55 394 59
400T71 411T88 415Q97 415 104 411T115 401T120 386Q120 378 116 372T104 362T88 358Z" />
<glyph unicode="&lt;" horiz-adv-x="348" d="M225 7Q217 4 210 6T199 12T195 16Q160 76 126 137T60 259Q47 280 50 300T66 340L257 628Q257 628 261 633T272 641T288 640Q294 636 296 631T298 621T296 613T294 609L104 316Q86 290 100 266L233 33Q233 33 234 30T235
23T233 14T225 7Z" />
<glyph unicode="=" horiz-adv-x="475" d="M424 184Q423 178 419 175T411 170T403 168T400 168Q366 171 333 173T266 175T201 176T138 173T75 167Q75 167 72 167T65 168T57 172T51 181Q49 187 51 191T58 197T65 201T69 202Q119 212 172 215T284 218T402 209Q402
209 405 208T414 203T422 195T424 184ZM424 373Q423 367 419 364T411 359T403 358T400 358Q366 361 333 363T266 365T201 366T138 363T75 356Q75 356 72 356T65 357T57 361T51 370Q49 376 51 380T58 386T65 390T69 391Q119 401 172 404T284 407T402 398Q402 398
405 397T414 392T422 385T424 373Z" />
<glyph unicode="&gt;" horiz-adv-x="348" d="M123 7Q117 10 115 14T113 22T114 30T115 33L248 266Q262 290 244 316L54 609Q54 609 53 612T51 621T52 631T60 640Q69 645 76 642T87 633T91 628L282 340Q294 321 297 301T288 259Q256 198 222 137T153 16Q153 16
149 13T139 7T123 7Z" />
<glyph unicode="?" horiz-adv-x="518" d="M278 157Q270 156 265 160T257 171T253 182T252 187Q247 217 256 243T285 292T330 338Q358 364 380 391T413 452T417 525Q406 556 385 576T334 606T261 613Q207 613 167 595T103 532Q100 517 98 502T100 470T122 433Q122
433 125 430T131 422T128 409Q125 404 120 404T109 405T99 409T95 412Q62 440 53 479T74 575Q93 600 120 617T184 643T264 653Q311 653 349 641T416 602T461 533Q467 510 467 486T460 435T432 381T379 320Q344 292 318 261T289 187Q289 187 289 180T288 166T278
157ZM281 -2Q273 -2 266 1T254 11T249 26Q249 34 253 40T265 51T281 55Q290 55 297 51T309 41T314 26Q314 18 310 12T298 2T281 -2Z" />
<glyph unicode="@" horiz-adv-x="855" d="M329 -146Q269 -132 222 -102T139 -27T77 77Q46 172 52 266T103 454Q142 522 194 571T315 645T476 666Q514 665 553 656T629 630T698 584T754 516T792 421Q806 353 804 294T789 183T753 83Q733 54 712 41T667 31T617 57Q598
82 587 145T579 333Q548 280 517 230T452 141T382 82Q360 74 341 75T307 86T280 115Q259 149 259 198T274 311Q299 392 339 434T437 477Q490 475 532 449T603 369Q605 364 607 336T613 268T621 189T630 121T639 90Q656 64 676 66T718 98Q752 181 763 262T755 422Q733
494 693 539T598 607T474 633Q395 636 332 613T221 544T136 432Q108 371 97 312T90 196T114 84Q136 34 166 -5T237 -71T331 -111Q366 -115 398 -112T460 -97T517 -65Q517 -65 522 -63T534 -60T548 -68Q553 -74 553 -79T553 -87T549 -92T547 -94Q518 -116 485 -129T413
-147T329 -146ZM338 107Q361 104 389 130T447 197Q478 238 508 284T566 382Q529 424 493 438T418 442Q377 432 349 387T301 264Q294 225 297 189T311 130T338 107Z" />
<glyph unicode="A" horiz-adv-x="504" d="M74 -1Q65 0 61 4T54 12T51 20T50 23Q55 118 73 217T119 417Q133 461 147 501T177 573T212 624T254 643Q271 646 285 635T313 602T339 546T363 472Q373 444 386 394T412 280T436 149T453 15Q453 15 453 13T451 7T445 2T433
-1Q425 -1 420 1T412 6T408 12T407 15Q391 127 372 230T330 418Q316 473 299 517T261 598Q240 573 224 544T195 482T172 413Q157 359 144 308T122 206T107 108T99 15Q99 15 99 12T96 6T88 0T74 -1ZM93 95L100 127Q147 138 195 143T295 149T398 146L404 105Q369
111 328 113T245 115T163 108T93 95Z" />
<glyph unicode="B" horiz-adv-x="556" d="M349 16Q295 7 245 3T154 -2T88 6T60 28Q56 71 54 129T51 254T51 388T55 517T62 627Q64 635 68 640T80 647T97 649L320 647Q364 641 399 625T459 584T497 524Q505 494 502 468T483 420T442 380T380 348Q417 332 443 309T485
257T506 192Q505 151 490 117T440 57T349 16ZM104 41Q167 40 224 42T326 55T402 87Q476 145 452 220Q440 258 414 280T355 314T285 328L97 326Q96 255 97 184T104 41ZM97 369Q162 365 225 368T353 383Q397 400 424 426T454 493Q450 537 417 567T316 609Q297 612
264 613T190 615T106 616L97 369Z" />
<glyph unicode="C" horiz-adv-x="635" d="M286 11Q224 22 181 50T109 117T67 200T51 287T55 366Q63 410 86 459T148 552T238 623T355 651Q420 650 468 627T544 566T581 488T577 408Q577 408 576 406T570 403T559 402Q552 404 548 407T543 413T542 416Q542 416
542 431T537 471T518 521T477 570T403 605Q357 616 311 601T225 551T154 470T108 373T99 275Q105 223 124 184T171 119T228 76T288 53T342 47Q382 49 417 65T479 105T516 155Q516 155 518 157T525 161T534 164T547 161Q552 158 555 155T559 149T561 143T561 139T561
137Q561 137 552 121T524 83T472 40T394 10T286 11Z" />
<glyph unicode="D" horiz-adv-x="621" d="M133 -2Q100 -2 80 4T51 24Q51 173 51 322T51 619Q50 638 91 645T200 651Q276 651 328 639T416 604T477 555T525 498Q581 386 569 289T490 106Q449 60 393 37T271 6T133 -2ZM105 42Q218 35 296 51T422 105T493 199T521
326Q515 419 483 478T397 569T269 609T106 609Q99 473 99 331T105 42Z" />
<glyph unicode="E" horiz-adv-x="561" d="M117 2Q105 2 95 3T78 7T67 15T60 26Q57 99 55 173T52 322T53 474T63 633Q66 647 79 653T114 657L477 650Q477 650 479 650T486 648T495 645T501 638T504 627Q504 619 500 615T491 610T482 609T478 609L108 623Q103 570
100 514T97 401T97 284T100 163T106 40Q149 44 191 48T272 58T348 68T418 79T481 91Q481 91 483 91T490 92T498 91T505 86T510 76Q512 69 511 64T506 57T501 53T498 52Q450 42 402 34T306 20T211 10T117 2ZM80 316V359L359 370Q359 370 363 370T373 369T386 366T396
359T400 346Q400 339 395 335T383 329T371 327T365 327L80 316Z" />
<glyph unicode="F" horiz-adv-x="554" d="M88 7Q79 6 74 9T65 16T61 23T60 26Q57 99 55 173T52 322T53 474T63 633Q65 642 71 647T88 655T114 657L477 650Q477 650 479 650T486 648T495 645T501 638T504 627Q504 619 500 615T491 610T482 609T478 609L108 623Q102
556 99 486T96 343T99 194T106 40Q106 40 106 36T106 25T101 13T88 7ZM80 316V359L359 370Q359 370 363 370T373 369T386 366T396 359T400 346Q400 339 395 335T383 329T371 327T365 327L80 316Z" />
<glyph unicode="G" horiz-adv-x="637" d="M256 12Q200 23 160 46T94 106T59 189T51 296Q59 357 80 412T141 516T241 605Q313 649 380 650T511 617Q544 594 561 569T583 516T586 461T577 404Q577 404 575 402T568 399T557 399Q551 401 548 405T545 413T544 417Q549
444 548 469T539 520Q528 549 505 570T452 601T387 610T319 592Q260 564 216 526T145 437T105 320Q94 230 120 172T202 79Q253 61 301 51T399 46T502 77Q525 96 526 118T507 169Q481 189 446 203T362 225Q362 225 361 227T359 232T357 239T357 248Q358 254 361
257T368 262T371 264Q400 262 425 256T474 241T517 220Q539 203 553 185T572 149T574 111T555 71Q531 48 498 33T426 9T343 2T256 12Z" />
<glyph unicode="H" horiz-adv-x="549" d="M85 -3Q78 -3 73 -1T66 6T62 12T60 15Q56 58 54 118T51 246T51 384T55 516T62 627Q62 627 62 630T65 636T72 643T85 646Q92 646 96 644T102 638T106 631T107 625T107 622Q103 581 101 523T99 398T98 261T100 129T105 16Q105
16 105 13T102 7T96 0T85 -3ZM66 243L83 285L455 312V267L66 243ZM477 -3Q470 -3 465 -1T458 6T454 12T452 15Q447 58 445 118T443 246T443 384T447 516T454 627Q454 627 454 630T457 636T464 643T477 646Q484 646 488 644T494 638T498 631T499 625T499 622Q495
581 493 523T491 398T490 261T492 129T497 16Q497 16 497 13T494 7T488 0T477 -3Z" />
<glyph unicode="I" horiz-adv-x="157" d="M85 -3Q78 -3 73 -1T66 6T62 12T60 15Q56 58 54 118T51 246T51 384T55 516T62 627Q62 627 62 630T65 636T72 643T85 646Q92 646 96 644T102 638T106 631T107 625T107 622Q103 581 101 523T99 398T98 261T100 129T105 16Q105
16 105 13T102 7T96 0T85 -3Z" />
<glyph unicode="J" horiz-adv-x="416" d="M209 5Q176 7 148 18T97 49T53 97Q53 97 52 99T51 106T51 114T59 122Q65 125 70 125T80 123T88 119T91 117Q103 101 116 88T142 66T170 52T199 47Q253 51 279 92T315 196Q318 235 316 301T308 448T300 616Q300 616 300
620T301 630T307 640T318 644Q326 644 331 641T338 633T342 626T343 622Q349 546 354 479T362 354T365 255T363 186Q353 124 332 86T279 28T209 5Z" />
<glyph unicode="K" horiz-adv-x="473" d="M371 -2Q364 -3 358 -2T348 2T342 7T340 10Q310 69 279 113T216 189T152 243T87 278V336Q161 354 214 390T301 469T355 555T381 628Q381 628 381 630T384 634T391 639T403 640Q411 639 415 637T420 631T422 626T423 623Q420
584 405 545T364 468T303 398T224 340T130 299Q181 276 228 236T316 140T386 19Q386 19 386 17T386 10T382 3T371 -2ZM85 -3Q78 -3 73 -1T66 6T62 12T60 15Q56 58 54 118T51 246T51 384T55 516T62 627Q62 627 62 630T65 636T72 643T85 646Q92 646 96 644T102 638T106
631T107 625T107 622Q103 581 101 523T99 398T98 261T100 129T105 16Q105 16 105 13T102 7T96 0T85 -3Z" />
<glyph unicode="L" horiz-adv-x="561" d="M117 2Q105 2 95 3T78 7T67 15T60 26Q57 84 55 143T52 262T51 383T54 506T63 633Q63 633 63 636T65 644T72 651T86 653Q95 652 99 648T106 638T108 628T108 623Q95 490 96 343T106 40Q178 47 245 55T372 72T481 91Q481
91 483 91T490 92T498 91T505 86T510 76Q512 69 511 64T506 57T501 53T498 52Q450 42 402 34T306 20T211 10T117 2Z" />
<glyph unicode="M" horiz-adv-x="680" d="M85 -3Q78 -3 74 -1T66 6T62 12T61 15Q55 69 53 141T50 293T53 448T61 585Q61 585 61 587T64 594T71 600T84 603Q92 603 96 600T103 592Q134 541 162 495T217 408T266 333T311 270Q339 296 370 334T437 420T509 520T583
628Q583 628 584 632T591 641T608 646Q616 646 620 643T627 634T629 626T630 622Q626 581 624 523T622 398T621 261T623 129T628 16Q628 16 628 13T625 7T619 0T607 -3Q600 -3 596 -1T588 6T584 12T583 15Q579 59 577 120T573 251T573 391T578 525Q520 442 465
369T360 249Q337 226 313 229T266 254Q237 296 209 337T154 419T101 500Q99 457 99 408T98 307T99 204T102 105T106 16Q106 16 106 13T103 7T97 0T85 -3Z" />
<glyph unicode="N" horiz-adv-x="550" d="M85 -3Q78 -3 74 -1T66 6T62 12T61 15Q55 69 53 137T50 280T53 425T61 557Q61 557 62 562T68 571T84 576Q90 576 93 574T100 569T104 564Q161 486 218 408T333 252T447 96Q444 155 443 226T443 370T448 509T455 627Q455
627 455 630T458 636T465 643T478 646Q485 646 489 644T495 638T499 631T500 625T500 622Q496 581 494 523T492 398T491 261T493 129T498 16Q498 16 498 13T495 6T489 0T477 -3Q471 -2 466 2T457 10T453 15Q453 15 438 34T397 86T339 161T273 248T205 338T146 421T102
486Q99 417 99 335T100 169T106 16Q106 16 106 13T103 7T97 0T85 -3Z" />
<glyph unicode="O" horiz-adv-x="765" d="M324 -7Q261 -7 210 16T121 80T66 178T51 303Q54 371 79 434T147 547T245 626T363 656Q413 656 464 645T562 608T644 543T699 445T714 310Q711 246 686 196T621 107T530 44T427 6T324 -7ZM335 39Q378 39 422 50T508 83T582
140T635 221T659 325Q664 404 641 458T577 544T483 591T377 606Q323 606 276 582T191 516T131 419T106 302Q102 219 129 160T210 70T335 39Z" />
<glyph unicode="P" horiz-adv-x="556" d="M85 -3Q78 -3 73 -1T66 6T62 12T60 15Q56 58 54 118T51 246T51 384T55 516T62 627Q62 627 62 630T65 638T73 645T86 649Q210 659 301 649T439 590Q487 542 500 489T494 386T426 295Q405 278 368 267T283 250T188 245T98
252L105 16Q105 16 105 13T102 7T96 0T85 -3ZM98 287Q196 279 263 287T373 316T434 371T456 446Q456 504 431 541T359 597T249 620T109 618Q101 533 99 450T98 287Z" />
<glyph unicode="Q" horiz-adv-x="765" d="M324 -7Q261 -7 210 16T121 80T66 178T51 303Q54 371 79 434T147 547T245 626T363 656Q413 656 464 645T562 608T644 543T699 445T714 310Q711 246 686 196T621 107T530 44T427 6T324 -7ZM465 -132Q457 -134 451 -132T440
-125T433 -118T430 -114Q409 -55 390 1T357 110T335 210Q335 210 334 214T333 223T335 233T343 239Q351 241 356 236T364 224T367 217Q382 170 399 119T435 13T474 -100Q474 -100 475 -104T477 -113T476 -124T465 -132ZM335 39Q378 39 422 50T508 83T582 140T635
221T659 325Q664 404 641 458T577 544T483 591T377 606Q323 606 276 582T191 516T131 419T106 302Q102 219 129 160T210 70T335 39Z" />
<glyph unicode="R" horiz-adv-x="536" d="M86 6Q77 6 72 10T64 19T61 28T60 32Q56 75 54 133T51 257T52 389T57 517T64 627Q64 627 64 630T67 638T75 645T88 649Q212 659 292 649T420 590Q468 542 480 489T474 386T406 295Q385 278 351 263T274 238T187 224T100
226L105 27Q105 27 105 24T104 17T98 9T86 6ZM412 44Q368 73 317 101T208 159T89 217Q89 223 93 226T105 231T119 232T131 232T136 231Q165 219 194 207T252 180T313 150T377 115T445 73Q445 73 446 72T448 69T449 63T449 56T445 48Q442 43 437 42T426 40T416 42T412
44ZM100 272Q192 267 254 283T353 327T408 389T430 451Q430 506 403 539T329 590T226 613T109 618Q102 533 100 443T100 272Z" />
<glyph unicode="S" horiz-adv-x="463" d="M273 6Q227 1 189 6T122 21T78 39T62 47Q62 47 61 48T57 51T53 57T51 64T53 72Q56 77 60 79T68 81T74 80T77 79Q120 61 166 53T253 48T323 70T361 124Q370 160 357 187T317 236T258 274T196 303Q177 312 156 325T118 358T89
400T75 451T84 509T123 573Q150 606 180 623T241 646T297 652T345 647T378 638T390 633Q390 633 392 632T399 627T406 620T411 612T411 603Q409 598 404 596T394 594T385 593T381 594Q321 611 271 601T186 564T134 499T128 425Q136 396 159 376T213 341T278 310T340
276T386 230Q405 200 410 170T409 112T384 62T338 25T273 6Z" />
<glyph unicode="T" horiz-adv-x="520" d="M270 -3Q263 -3 259 -1T251 6T247 12T246 15Q240 69 238 145T235 306T238 470T246 610Q246 610 246 613T249 619T256 626T269 629Q277 629 281 626T288 617T290 609T291 605Q287 565 286 509T284 387T284 256T286 127T291
16Q291 16 291 13T288 7T282 0T270 -3ZM441 594Q399 601 356 604T269 607T179 605T86 598Q86 598 83 598T75 597T65 598T57 602T51 611Q50 617 52 621T59 628T67 632T75 634T78 635Q171 645 263 645T446 635Q446 635 448 634T455 631T462 626T468 619T469 609Q468
602 464 599T454 595T445 594T441 594Z" />
<glyph unicode="U" horiz-adv-x="596" d="M311 -3Q225 3 169 48T84 177T51 379V629Q51 629 51 631T53 638T59 644T72 647Q80 647 85 644T94 637T98 630T100 627L103 393Q101 292 120 216T186 96T311 43Q368 51 410 86T474 193T495 383L492 620Q492 620 492 622T493
628T499 633T511 636Q517 637 522 635T530 630T536 624T539 619T540 617L545 396Q548 316 538 245T502 119T430 32T311 -3Z" />
<glyph unicode="V" horiz-adv-x="561" d="M276 4Q250 1 225 31T175 118T129 255T87 429T50 630Q50 630 51 632T54 638T60 643T71 646Q77 646 81 644T89 639T93 634T95 632Q107 556 123 478T159 328T198 195T237 96T272 44Q296 57 320 98T368 200T410 332T444 478T463
619Q463 619 463 622T466 628T472 634T486 635Q495 634 500 631T507 623T510 616T511 613Q505 534 490 451T452 289T401 148T341 47T276 4Z" />
<glyph unicode="W" horiz-adv-x="974" d="M276 4Q250 1 225 31T175 118T129 255T87 429T50 630Q50 630 51 632T54 638T60 643T71 646Q77 646 81 644T89 639T93 634T95 632Q107 556 123 478T159 328T198 195T237 96T272 44Q296 57 320 99T368 203T410 339T444 487T463
630Q463 630 463 631T466 633T472 635T486 635Q495 634 500 631T507 623T510 616T511 613Q505 534 490 451T452 289T401 148T341 47T276 4ZM689 4Q663 1 638 31T588 118T542 255T500 429T463 630Q463 630 464 632T467 638T473 643T483 646Q490 646 494 644T502
639T506 634T508 632Q520 556 536 478T571 328T610 195T649 96T685 44Q709 57 733 98T781 200T823 332T856 478T875 619Q875 619 875 622T878 628T885 634T899 635Q908 634 913 631T920 623T923 616T924 613Q918 534 903 451T864 289T813 148T754 47T689 4Z" />
<glyph unicode="X" horiz-adv-x="593" d="M526 18Q520 14 514 14T503 16T495 20T492 23Q442 87 394 149T301 272T212 390T129 502T53 608Q53 608 52 611T51 618T52 626T60 634Q65 637 71 636T82 631T90 626T94 623Q138 561 188 494T292 354T406 205T526 49Q526
49 527 47T531 42T534 34T533 26T526 18ZM75 4Q70 7 68 11T64 18T64 25T65 31T66 33Q125 104 181 177T292 326T398 480T501 640Q501 640 502 641T507 644T516 646T527 643Q533 640 536 637T541 629T542 623T542 620Q490 534 437 453T330 294T220 145T108 6Q108
6 106 4T99 1T88 -1T75 4Z" />
<glyph unicode="Y" horiz-adv-x="525" d="M253 266Q166 278 118 323T56 444T61 620Q61 620 62 624T65 635T73 645T87 647Q96 645 100 640T105 628T106 616T106 611Q84 473 118 396T251 309Q305 318 342 348T399 423T424 516T418 610Q418 610 418 613T418 620T423
628T436 633Q444 633 449 631T458 624T463 617T465 614Q478 557 473 500T441 393T369 309T253 266ZM256 9Q248 9 243 12T236 20T232 27T231 31Q221 90 222 153T233 282L279 286Q267 207 268 144T276 31Q276 31 276 28T275 20T269 13T256 9Z" />
<glyph unicode="Z" horiz-adv-x="541" d="M116 0Q106 -1 98 0T85 4T78 12T76 24T82 39Q121 94 161 154T243 280T329 418T421 572Q352 607 268 607T87 582Q87 582 83 581T72 580T60 582T52 592Q50 598 51 602T55 609T61 614T66 616T68 617Q154 642 242 646T419
627Q437 619 448 609T466 587T472 559T464 527Q440 485 412 440T353 347T289 249T219 147T145 42L462 58Q462 58 466 58T476 57T486 52T490 40Q490 33 488 29T482 23T476 21T473 20L116 0Z" />
<glyph unicode="[" horiz-adv-x="305" d="M147 8Q124 9 107 15T79 35T62 66T55 107Q52 166 52 237T51 382T54 522T60 638Q61 645 63 649T71 656T83 657Q123 658 161 658T233 655Q233 655 236 655T242 653T248 647T251 637Q251 631 248 627T242 622T236 620T233
619L103 620L98 107Q100 76 110 62T144 46H228Q228 46 232 46T241 44T251 39T255 27Q255 20 252 16T244 10T237 8T233 8H147Z" />
<glyph unicode="\" horiz-adv-x="390" d="M324 6Q315 3 310 6T302 13T299 17Q273 92 235 188T150 396T54 626Q54 626 53 629T51 637T52 647T62 655Q69 658 73 658T81 656T85 651T87 649Q142 530 190 417T276 205T339 30Q339 30 339 27T338 20T334 12T324 6Z" />
<glyph unicode="]" horiz-adv-x="305" d="M72 8Q72 8 69 8T61 10T54 16T50 27Q50 35 54 38T63 44T73 46T77 46H161Q184 48 194 62T207 107L202 620L72 619Q72 619 70 619T64 621T57 627T54 637Q54 643 56 647T62 652T69 654T72 655Q107 657 144 657T222 657Q230
658 234 656T242 650T245 638Q248 589 250 523T253 382T254 237T250 107Q249 84 244 66T227 35T198 16T158 8H72Z" />
<glyph unicode="^" horiz-adv-x="374" d="M57 524Q53 527 52 531T51 538T53 543T54 546Q67 563 83 579T118 613T157 646Q166 653 175 656T194 658T214 649L318 575Q318 575 319 573T322 568T323 561T320 552Q317 548 313 547T304 547T297 549T294 551L192 627Q171
619 145 594T80 527Q80 527 77 525T68 521T57 524Z" />
<glyph unicode="_" horiz-adv-x="560" d="M51 61Q49 67 51 71T57 77T64 81T68 82Q133 92 201 96T340 99T485 90Q485 90 489 89T498 84T506 76T509 64Q508 57 504 54T496 49T488 48T484 49Q433 54 382 55T280 57T179 54T77 46Q77 46 74 46T66 47T57 51T51 61Z" />
<glyph unicode="`" horiz-adv-x="325" d="M249 510Q223 521 199 533T151 557T105 581T61 607Q61 607 59 608T54 612T51 619T53 628Q56 633 60 634T67 636T73 634T76 632Q121 609 168 587T264 541Q264 541 266 539T270 534T274 527T273 517Q271 512 267 511T259
509T252 509T249 510Z" />
<glyph unicode="a" horiz-adv-x="598" d="M264 4Q215 4 176 22T108 73T65 149T50 243Q50 293 68 339T119 422T195 479T287 500Q352 500 403 474T483 392T512 250Q512 200 492 156T437 77T358 24T264 4ZM266 47Q305 47 341 64T406 110T450 177T467 257Q467 328
444 374T380 442T286 464Q247 464 212 445T151 392T110 319T95 236Q95 181 116 138T175 71T266 47ZM527 1Q518 1 513 5T505 14T502 18Q495 91 493 166T493 319T503 479Q503 479 504 483T510 492T526 497Q534 497 538 494T545 485T547 477T548 473Q544 422 542 368T539
257T542 141T547 20Q547 20 547 17T544 11T538 4T527 1Z" />
<glyph unicode="b" horiz-adv-x="598" d="M301 4Q252 4 213 22T145 73T102 149T87 243Q87 293 105 339T156 422T232 479T324 500Q373 500 414 485T485 440T531 362T548 250Q548 200 528 156T474 77T395 24T301 4ZM85 1Q78 1 73 3T66 9T62 15T60 18Q56 61 54 121T51
249T51 387T55 519T62 631Q62 631 62 633T65 640T72 646T85 649Q93 649 97 646T104 637T106 629T107 625Q103 585 101 527T99 401T98 264T100 132T105 20Q105 20 104 16T99 6T85 1ZM302 47Q342 47 378 64T442 110T487 177T504 257Q504 328 481 374T416 442T322
464Q283 464 249 445T188 392T147 319T132 236Q132 181 152 138T211 71T302 47Z" />
<glyph unicode="c" horiz-adv-x="560" d="M286 -9Q204 -4 154 26T80 108T51 225Q47 277 62 325T110 412T190 473T297 495Q345 495 378 483T434 454T468 419T486 390T491 378Q491 378 491 375T491 368T482 360Q473 356 465 357T451 362T446 365Q446 365 440 376T420
403T380 430T316 443Q277 444 238 434T168 400T118 335T104 231Q108 162 131 123T194 67T289 43Q330 39 364 47T424 69T462 92T476 103Q476 103 480 104T491 106T505 97Q509 93 509 88T510 80T509 76Q509 76 497 62T459 31T391 1T286 -9Z" />
<glyph unicode="d" horiz-adv-x="598" d="M264 4Q215 4 176 22T108 73T65 149T50 243Q50 293 68 339T119 422T195 479T287 500Q352 500 403 474T483 392T512 250Q512 200 492 156T437 77T358 24T264 4ZM266 47Q305 47 341 64T406 110T450 177T467 257Q467 328
444 374T380 442T286 464Q247 464 212 445T151 392T110 319T95 236Q95 181 116 138T175 71T266 47ZM525 1Q518 1 514 3T506 9T502 15T501 18Q496 61 494 121T491 249T491 387T496 519T503 631Q503 631 503 633T506 640T513 646T526 649Q534 649 538 646T545 637T547
629T548 625Q544 585 542 527T539 401T538 264T541 132T546 20Q546 20 546 17T543 11T537 4T525 1Z" />
<glyph unicode="e" horiz-adv-x="546" d="M253 -10Q187 1 147 27T86 89T58 166T51 248Q51 288 68 332T117 415T196 476T301 495Q360 491 395 473T449 428T473 372T479 318Q478 267 452 238T377 199Q361 196 335 195T277 193T214 193T157 195T115 196T99 197Q101
155 120 119T174 60T261 32Q297 29 334 31T402 39T451 48T470 53Q470 53 473 53T480 54T489 51T495 40Q497 34 496 30T492 24T487 20T485 19Q485 19 464 13T407 -1T332 -12T253 -10ZM95 226L346 229Q346 229 355 230T378 236T405 251T428 279T437 325Q437 371 422
401T370 446T270 456Q223 453 189 428T132 365T101 291T95 226Z" />
<glyph unicode="f" horiz-adv-x="537" d="M176 -4Q167 -4 162 -1T154 6T150 14T149 17Q146 77 145 135T142 250T141 360T145 463Q151 506 166 539T204 596T260 633T336 649Q370 648 397 639T446 613T486 574Q486 574 486 572T487 567T485 561T478 554Q472 550
466 552T454 558T449 562Q425 588 397 599T335 610Q276 601 240 564T199 463Q194 380 192 306T191 160T197 15Q197 15 197 12T195 6T189 -1T176 -4ZM459 424Q459 418 456 415T450 410T445 409T442 408Q353 410 263 409T80 402Q80 402 73 402T59 406T51 417Q51 422
53 425T58 430T63 432T66 433Q110 438 155 441T247 446T341 448T437 446Q437 446 440 445T448 442T456 436T459 424Z" />
<glyph unicode="g" horiz-adv-x="674" d="M424 -209Q354 -213 292 -202T175 -164Q175 -164 173 -163T167 -158T163 -151T163 -140Q165 -135 169 -133T178 -130T186 -130T189 -131Q223 -146 259 -155T334 -167T414 -167Q461 -165 494 -149T546 -102T570 -26Q574
42 575 108T573 236T564 356T546 463Q546 463 546 468T550 478T564 484Q575 485 581 482T589 474T592 470Q610 396 617 312T624 138T618 -39Q605 -122 556 -163T424 -209ZM298 4Q241 4 196 22T118 73T68 149T50 243Q50 293 71 339T130 422T217 479T324 500Q400
500 458 474T551 392T585 250Q585 200 562 156T498 77T407 24T298 4ZM300 47Q345 47 387 64T462 110T514 177T533 257Q533 328 506 374T431 442T323 464Q277 464 237 445T167 392T119 319T102 236Q102 181 126 138T194 71T300 47Z" />
<glyph unicode="h" horiz-adv-x="567" d="M471 13Q462 15 458 20T453 30T452 38T453 42Q461 91 465 135T468 219T460 290Q437 373 402 407T324 443Q288 435 258 414T203 364T158 304T124 243T99 193Q91 175 88 166T84 152T85 144T88 136T90 118T86 83L75 211L98
271Q120 317 148 355T206 422T268 467T327 484Q378 479 413 453T471 386T508 290Q519 226 516 161T500 27Q500 27 499 24T495 18T486 13T471 13ZM85 1Q78 1 73 3T66 9T62 15T60 18Q56 61 54 121T51 249T51 387T55 519T62 631Q62 631 62 633T65 640T72 646T85 649Q93
649 97 646T104 637T106 629T107 625Q103 585 101 527T99 401T98 264T100 132T105 20Q105 20 105 17T102 11T96 4T85 1Z" />
<glyph unicode="i" horiz-adv-x="168" d="M85 1Q78 1 74 3T66 9T62 15T61 18Q55 72 53 128T50 242T53 359T61 479Q61 479 61 481T64 488T71 494T84 497Q92 497 96 494T103 485T105 477T106 473Q102 422 100 368T98 257T100 141T106 20Q106 20 106 17T103 11T97
4T85 1ZM87 566Q70 566 63 576T56 600Q56 614 63 624T87 635Q104 635 111 625T118 600Q118 591 115 583T106 571T87 566Z" />
<glyph unicode="j" horiz-adv-x="168" d="M85 -171Q78 -171 74 -169T66 -163T62 -157T61 -154Q57 -110 54 -49T51 84T51 228T54 365T61 479Q61 479 61 481T64 488T71 494T84 497Q92 497 96 494T103 485T105 477T106 473Q102 433 101 373T99 242T99 100T101 -37T106
-152Q106 -152 106 -155T103 -161T97 -168T85 -171ZM87 566Q70 566 63 576T56 600Q56 614 63 624T87 635Q104 635 111 625T118 600Q118 591 115 583T106 571T87 566Z" />
<glyph unicode="k" horiz-adv-x="465" d="M404 27Q398 24 392 25T381 29T373 35T370 38Q343 71 315 99T259 150T203 193T147 227T89 255L92 306Q149 310 200 324T295 365T373 435Q373 435 375 437T381 442T390 446T402 445Q408 442 410 437T412 427T410 417T409
413Q390 381 362 356T297 312T217 280T126 258L121 277Q167 262 207 240T284 190T352 127T413 53Q413 53 414 50T415 43T413 34T404 27ZM85 1Q78 1 73 3T66 9T62 15T60 18Q56 61 54 121T51 249T51 387T55 519T62 631Q62 631 62 633T65 640T72 646T85 649Q93 649
97 646T104 637T106 629T107 625Q103 585 101 527T99 401T98 264T100 132T105 20Q105 20 105 17T102 11T96 4T85 1Z" />
<glyph unicode="l" horiz-adv-x="157" d="M85 1Q78 1 73 3T66 9T62 15T60 18Q56 61 54 121T51 249T51 387T55 519T62 631Q62 631 62 633T65 640T72 646T85 649Q93 649 97 646T104 637T106 629T107 625Q103 585 101 527T99 401T98 264T100 132T105 20Q105 20 105
17T102 11T96 4T85 1Z" />
<glyph unicode="m" horiz-adv-x="877" d="M430 26Q423 28 419 31T412 38T409 45T408 48Q420 153 418 233T389 359Q365 406 337 429T277 456T212 443Q170 420 144 385T105 309T92 222Q94 183 94 148T96 84T100 41Q100 41 100 40T100 36T97 31T90 27Q84 26 80 28T73
32T70 35Q58 57 58 76T60 118T56 169Q56 203 57 237T63 304T77 365T102 416Q120 440 145 458T201 486T266 496T335 482Q362 468 382 448T418 404T443 350T459 286Q469 229 467 167T455 40Q455 40 454 38T451 32T443 27T430 26ZM85 1Q78 1 74 3T66 9T62 15T61 18Q55
72 53 128T50 242T53 359T61 479Q61 479 61 481T64 488T71 494T84 497Q92 497 96 494T103 485T105 477T106 473Q102 422 100 368T98 257T100 141T106 20Q106 20 106 17T103 11T97 4T85 1ZM790 26Q783 28 779 31T772 38T769 45T768 48Q780 153 778 233T749 359Q725
406 697 429T637 456T572 443Q530 420 504 385T465 309T452 222Q454 183 453 155T450 106T447 66Q447 66 447 63T447 55T445 46T442 42Q434 41 431 42T428 45T427 47Q425 61 424 81T423 124T424 170Q424 204 424 238T426 305T437 365T462 416Q480 440 505 458T561
486T626 496T695 482Q722 468 742 448T778 404T803 350T819 286Q829 229 827 167T815 40Q815 40 814 38T811 32T803 27T790 26Z" />
<glyph unicode="n" horiz-adv-x="517" d="M430 26Q423 28 419 31T412 38T409 45T408 48Q420 153 418 233T389 359Q365 406 337 429T277 456T212 443Q170 420 144 385T105 309T92 222Q94 183 94 148T96 84T100 41Q100 41 100 40T100 36T97 31T90 27Q84 26 80 28T73
32T70 35Q58 57 58 76T60 118T56 169Q56 203 57 237T63 304T77 365T102 416Q120 440 145 458T201 486T266 496T335 482Q362 468 382 448T418 404T443 350T459 286Q469 229 467 167T455 40Q455 40 454 38T451 32T443 27T430 26ZM85 1Q78 1 74 3T66 9T62 15T61 18Q55
72 53 128T50 242T53 359T61 479Q61 479 61 481T64 488T71 494T84 497Q92 497 96 494T103 485T105 477T106 473Q102 422 100 368T98 257T100 141T106 20Q106 20 106 17T103 11T97 4T85 1Z" />
<glyph unicode="o" horiz-adv-x="562" d="M264 4Q215 4 176 22T108 73T65 149T50 243Q50 293 68 339T119 422T195 479T287 500Q336 500 377 485T448 440T495 362T512 250Q512 200 492 156T437 77T358 24T264 4ZM266 47Q305 47 341 64T406 110T450 177T467 257Q467
328 444 374T380 442T286 464Q247 464 212 445T151 392T110 319T95 236Q95 181 116 138T175 71T266 47Z" />
<glyph unicode="p" horiz-adv-x="597" d="M299 4Q250 4 211 22T143 73T100 149T85 243Q85 293 103 339T154 422T230 479T322 500Q371 500 412 485T483 440T530 362T547 250Q547 200 527 156T472 77T393 24T299 4ZM84 -212Q77 -212 73 -210T65 -203T61 -197T60
-194Q56 -151 54 -85T51 57T51 211T55 357T62 474Q62 474 62 477T65 483T72 490T85 493Q93 493 97 490T104 481T106 473T107 469Q103 428 101 364T99 225T98 72T100 -75T105 -193Q105 -193 105 -196T102 -202T96 -209T84 -212ZM301 47Q340 47 376 64T441 110T485
177T502 257Q502 328 479 374T415 442T321 464Q282 464 247 445T186 392T145 319T130 236Q130 181 151 138T210 71T301 47Z" />
<glyph unicode="q" horiz-adv-x="600" d="M264 4Q215 4 176 22T108 73T65 149T50 243Q50 293 68 339T119 422T195 479T287 500Q352 500 403 474T483 392T512 250Q512 200 492 156T437 77T358 24T264 4ZM266 47Q305 47 341 64T406 110T450 177T467 257Q467 328
444 374T380 442T286 464Q247 464 212 445T151 392T110 319T95 236Q95 181 116 138T175 71T266 47ZM527 -212Q520 -212 515 -210T508 -203T504 -197T502 -194Q498 -151 496 -85T493 57T493 211T497 357T505 474Q505 474 505 477T508 483T514 490T528 493Q536 493
540 490T547 481T549 473T550 469Q546 428 544 364T541 225T540 72T542 -75T547 -193Q547 -193 547 -196T544 -202T538 -209T527 -212Z" />
<glyph unicode="r" horiz-adv-x="440" d="M86 159Q81 158 77 159T71 162T67 166T65 168Q64 176 63 180T61 191T60 214T61 263Q65 322 81 366T130 440T210 486Q240 494 268 493T323 482T375 452Q375 452 377 450T383 443T388 435T390 425T383 416Q376 411 369 412T355
417T344 424T340 428Q311 450 280 452T216 440Q162 419 135 375T100 270Q97 242 96 229T95 210T94 198T96 177Q96 177 96 173T95 165T86 159ZM85 1Q78 1 74 3T66 9T62 15T61 18Q55 72 53 128T50 242T53 359T61 479Q61 479 61 481T64 488T71 494T84 497Q92 497 96
494T103 485T105 477T106 473Q102 422 100 368T98 257T100 141T106 20Q106 20 106 17T103 11T97 4T85 1Z" />
<glyph unicode="s" horiz-adv-x="511" d="M258 35Q329 41 352 63T354 127Q346 144 322 163T267 203T206 249T155 300T128 358Q122 396 137 426T191 475T294 494T450 473Q450 473 452 472T456 469T459 463T460 456Q459 452 457 450T452 446T447 445T445 445Q445
445 430 447T390 451T336 454T279 453T228 445T194 426Q177 407 174 386T179 343T210 298T267 254Q317 224 353 191T403 124T402 55Q393 34 365 21T297 4T213 6T127 31T52 83Q52 83 52 84T51 87T50 91T53 96Q56 99 59 100T64 101T69 100T71 99Q71 99 86 89T128
64T188 41T258 35Z" />
<glyph unicode="t" horiz-adv-x="420" d="M218 1Q211 1 207 3T199 9T195 15T194 18Q190 61 188 121T184 249T184 387T189 519T196 631Q196 631 196 633T199 640T206 646T219 649Q227 649 231 646T238 637T240 629T241 625Q237 585 235 527T232 401T231 264T234
132T239 20Q239 20 239 17T236 11T230 4T218 1ZM351 439Q272 439 201 440T74 442Q74 442 71 442T62 445T54 450T50 460Q50 465 51 468T55 472T59 473T61 474Q69 476 91 476T143 477T209 478T281 479T349 479Q349 479 351 478T356 476T362 472T368 466T370 457Q370
451 367 447T361 442T354 440T351 439Z" />
<glyph unicode="u" horiz-adv-x="517" d="M183 12Q156 26 135 46T99 90T74 144T58 208Q48 265 50 327T62 454Q62 454 63 456T66 462T74 467T87 468Q94 467 98 463T105 456T108 449T109 446Q97 341 100 261T128 135Q146 100 166 78T209 47T256 38T305 51Q348 75
373 107T409 178T420 261Q418 300 410 344T394 425T381 476Q381 476 381 477T381 481T384 486T391 490Q398 492 402 490T409 485T411 482Q429 449 441 409T461 325Q469 271 466 226T450 145T416 78Q397 54 372 36T316 8T252 -2T183 12Z" />
<glyph unicode="v" horiz-adv-x="470" d="M222 2Q208 3 196 8T173 24T155 50T140 86L51 456Q51 456 51 458T51 464T55 471T66 476Q74 478 79 476T88 469T94 462T96 459L165 187Q176 131 189 93T216 44Q233 46 257 83T313 201Q331 252 343 299T364 388T375 462Q375
462 375 465T378 473T384 480T398 482Q406 481 410 477T417 467T419 459T420 455Q418 424 414 392T402 328T386 263T365 196Q339 127 315 83T267 19T222 2Z" />
<glyph unicode="w" horiz-adv-x="793" d="M222 2Q208 3 196 8T173 24T155 50T140 86L51 456Q51 456 51 458T51 464T55 471T66 476Q74 478 79 476T88 469T94 462T96 459L165 187Q176 131 189 93T216 44Q233 46 257 83T313 201Q331 252 343 299T364 388T375 462Q375
462 375 465T378 473T384 480T398 482Q406 481 410 477T417 467T419 459T420 455Q418 424 414 392T402 328T386 263T365 196Q339 127 315 83T267 19T222 2ZM545 2Q531 3 519 8T496 24T477 50T463 86L380 456Q380 456 380 458T380 465T383 472T389 476Q397 479 402
477T412 471T418 464T420 460L487 187Q499 131 512 93T539 44Q556 46 580 83T636 201Q654 252 666 299T687 388T698 462Q698 462 698 465T701 473T707 480T720 482Q729 481 733 477T740 467T742 459T743 455Q741 414 734 371T715 285T688 196Q662 127 638 83T590
19T545 2Z" />
<glyph unicode="x" horiz-adv-x="509" d="M58 0Q53 4 52 8T51 16T53 25T56 31T58 33Q87 65 116 99T174 168T232 241Q212 268 192 296T152 352T113 408T73 464Q73 464 73 466T72 470T74 476T81 483Q86 486 91 486T100 485T106 482T109 480Q135 448 160 415T210
347T260 277Q289 316 316 352T368 423T414 490Q414 490 416 492T423 498T433 501T446 499Q453 496 455 491T458 481T458 472T457 468Q433 433 410 400T364 336T324 280T290 236Q322 193 352 152T407 77T444 24Q444 24 444 23T445 18T444 12T441 6T433 1Q425 -2
418 0T407 6T402 9L262 200Q214 142 171 90T93 2Q93 2 90 0T82 -3T70 -5T58 0Z" />
<glyph unicode="y" horiz-adv-x="600" d="M350 -209Q280 -213 218 -202T102 -164Q102 -164 100 -163T94 -158T89 -151T89 -140Q91 -135 95 -133T104 -130T112 -130T115 -131Q149 -146 185 -155T260 -167T340 -167Q387 -165 420 -149T472 -102T496 -26Q500 42 501
108T500 236T491 356T472 463Q472 463 472 468T476 478T490 484Q501 485 507 482T515 474T518 470Q536 396 543 312T550 138T544 -39Q531 -122 482 -163T350 -209ZM209 12Q167 31 137 59T88 125T60 208Q53 246 52 286T54 369T65 454Q65 454 66 456T70 462T80 467T95
468Q102 467 106 465T114 459T118 453T120 448T121 446Q112 376 110 317T116 211T144 135Q188 65 240 47T354 51Q405 75 437 107T484 180T498 264L539 325Q553 244 538 183T485 78Q456 46 413 23T317 -5T209 12Z" />
<glyph unicode="z" horiz-adv-x="576" d="M119 -6Q95 -3 84 6T71 29T78 55T102 80L435 398Q444 412 442 420T430 432T404 439T371 442Q319 445 270 443T176 435T87 418Q87 418 82 418T70 418T58 422T51 432Q50 439 53 443T60 450T68 454T72 455Q157 480 246 484T427
478Q445 474 458 468T480 452T492 429T492 400Q487 384 462 355T397 286T309 203T210 115T112 30L503 54Q503 54 506 53T514 50T522 44T526 34Q526 28 524 24T518 18T513 16T510 15L119 -6Z" />
<glyph unicode="{" horiz-adv-x="307" d="M209 6Q209 6 202 4T182 2T154 9T125 31T99 76Q91 96 91 124T94 182T96 237T81 277Q81 277 73 281T58 293T51 307Q53 314 57 316T65 318T69 317Q69 317 76 317T93 323T110 341T116 378Q116 395 113 421T109 478T112 539T130
593T169 630T237 640Q237 640 240 639T247 636T254 631T257 622Q257 615 252 613T242 611T237 612Q237 612 228 612T206 606T179 585T156 540Q149 517 150 488T154 428T156 369T146 320T111 289Q111 289 119 278T132 242T132 171Q126 126 134 95T159 48T200 39Q200
39 204 40T213 41T223 39T228 29Q229 22 227 18T220 11T213 7T209 6Z" />
<glyph unicode="|" horiz-adv-x="157" d="M85 -1Q78 -1 73 1T66 8T62 14T60 17Q56 60 54 120T51 248T51 386T55 518T62 629Q62 629 62 632T65 638T72 645T85 648Q92 648 96 646T102 639T106 632T107 626T107 623Q103 583 101 525T99 399T98 263T100 131T105 18Q105
18 105 15T102 9T96 2T85 -1Z" />
<glyph unicode="}" horiz-adv-x="307" d="M98 6Q98 6 95 7T87 10T81 17T79 29Q80 36 84 38T93 41T103 40T107 39Q130 33 147 48T173 94T175 171Q169 216 175 241T188 278T196 289Q171 298 162 319T151 369T153 428T157 488T151 540Q142 570 129 585T102 605T79
611T70 612Q70 612 65 612T55 613T50 622Q50 627 53 630T60 636T67 639T70 640Q112 643 138 630T177 593T194 539T198 478T195 421T191 378Q190 354 197 341T213 323T230 318T238 317Q238 317 242 317T250 316T256 307Q258 300 250 293T234 282T226 277Q213 263
212 238T212 182T215 124T208 76Q197 47 183 31T153 9T126 3T106 4T98 6Z" />
<glyph unicode="~" horiz-adv-x="462" d="M88 271Q83 268 77 270T67 276T63 280Q51 293 51 307T60 334T85 355T123 365Q159 369 191 357T256 331T324 315Q341 316 354 322T374 341Q374 341 376 346T382 355T396 358Q403 357 406 354T410 346T411 338T411 334Q405
314 387 301T330 283Q309 282 278 291T214 313T154 334Q135 339 117 335T89 319T86 292Q86 292 88 289T92 280T88 271Z" />
<glyph unicode="&#xa0;" horiz-adv-x="260" />
<glyph unicode="&#xa1;" horiz-adv-x="165" d="M77 -2Q70 -2 66 0T60 6T56 13T55 19T55 22Q57 72 58 121T61 220T63 325T64 441Q64 441 65 446T70 455T84 460Q94 460 99 456T106 448T109 443Q109 381 108 309T106 162T100 17Q100 17 100 14T97 8T90 1T77 -2ZM83
594Q74 594 67 598T55 608T50 623Q50 631 54 637T66 647T83 651Q92 651 99 648T111 638T115 623Q115 615 111 609T100 598T83 594Z" />
<glyph unicode="&#xa2;" horiz-adv-x="560" d="M286 50Q204 54 154 84T80 166T51 283Q47 336 62 384T110 471T190 532T297 554Q345 553 378 541T434 512T468 477T486 448T491 436Q491 436 491 434T492 429T490 423T482 418Q476 416 471 419T462 426T459 430Q459
430 452 443T427 474T383 506T318 521Q279 522 238 510T163 469T108 397T90 291Q93 229 109 190T151 129T213 97T290 83Q331 79 366 89T428 114T470 141T485 153Q485 153 488 153T495 154T504 149Q507 146 508 144T509 139T510 135T509 134Q509 134 497 121T459
90T391 60T286 50ZM304 -23Q296 -22 292 -18T287 -8T286 -3Q285 8 284 17T282 38T280 64L324 77Q326 60 326 47T325 22T322 -6Q322 -6 321 -10T317 -18T304 -23ZM281 522Q280 539 280 558T280 595T283 628Q283 628 284 632T289 640T301 644Q310 644 314 640T319
630T320 625Q322 614 323 599T325 568T326 535L281 522Z" />
<glyph unicode="&#xa3;" horiz-adv-x="434" d="M96 -6Q83 -5 76 -1T69 12T75 34Q89 53 98 76T112 126T119 182Q119 212 114 251T104 333T96 416T100 488Q108 528 123 562T166 619T240 649Q269 649 291 639T331 611T362 566Q362 566 362 564T363 560T362 554T356
549Q351 547 345 548T335 553T330 556Q320 573 306 586T273 607Q248 612 226 605T186 576T154 518Q144 494 142 458T143 379T152 292T162 206Q165 153 156 110T124 31Q153 34 182 36T240 41T299 44T357 47Q357 47 359 47T366 46T375 43T381 38T384 29Q384 23 382
19T375 13T369 10T366 9Q354 9 325 8T257 4T176 0T96 -6ZM76 278Q76 278 71 278T59 280T51 291Q50 297 52 300T59 305T66 307T70 308Q106 313 144 316T222 320T304 321Q304 321 306 321T313 320T320 317T326 312T329 302Q329 295 326 292T319 287T312 285T309 285Q269
287 230 287T152 284T76 278Z" />
<glyph unicode="&#xa5;" horiz-adv-x="525" d="M253 266Q166 278 118 323T56 444T61 620Q61 620 62 624T65 635T73 645T87 647Q96 645 100 640T105 628T106 616T106 611Q84 473 118 396T251 309Q305 318 342 348T399 423T424 516T418 610Q418 610 418 613T418
620T423 628T436 633Q444 633 449 631T458 624T463 617T465 614Q478 557 473 500T441 393T369 309T253 266ZM100 97Q100 97 95 97T85 100T76 111Q74 117 76 121T83 127T90 131T94 132Q168 147 252 148T427 139Q427 139 430 138T439 133T447 125T449 114Q448 108
444 105T436 100T428 98T425 98Q391 101 358 103T291 105T226 106T163 103T100 97ZM256 9Q248 9 243 12T236 20T232 27T231 31Q221 90 222 153T233 282L279 286Q267 207 268 144T276 31Q276 31 276 28T275 20T269 13T256 9ZM100 186Q100 186 97 186T90 187T82 191T76
200Q74 206 76 210T83 216T90 220T94 221Q168 236 252 237T427 228Q427 228 430 227T439 222T447 215T449 203Q448 197 444 194T436 189T428 188T425 188Q391 191 358 193T291 195T226 196T163 193T100 186Z" />
<glyph unicode="&#xa6;" horiz-adv-x="150" d="M79 401Q72 401 68 403T60 409T56 415T55 418Q51 470 51 509T51 587T55 679Q55 679 55 681T58 688T65 694T78 697Q86 697 90 694T97 685T99 677T100 673Q92 603 94 542T100 420Q100 420 100 417T97 411T91 404T79
401ZM79 -9Q72 -9 68 -7T60 -1T56 5T55 8Q51 60 51 99T51 177T55 269Q55 269 55 271T58 278T65 284T78 287Q86 287 90 284T97 275T99 267T100 263Q92 193 94 132T100 10Q100 10 100 7T97 1T91 -6T79 -9Z" />
<glyph unicode="&#xa7;" horiz-adv-x="373" d="M188 -8Q161 -8 136 3T92 29T62 58T50 76Q50 80 52 84T62 88Q68 88 81 78T111 56T148 33T186 23Q200 23 212 32T232 57T240 89Q240 109 229 125T201 155T168 185T140 219T128 263Q128 302 151 331T208 365Q164 393
137 422T97 481T84 537Q84 558 91 578T113 614T147 640T191 650Q216 650 241 637T287 604T321 562Q321 562 322 560T323 553Q323 549 320 545T312 541Q306 541 301 547T296 554Q278 575 261 589T228 610T196 617Q182 617 165 609T135 583T122 537Q122 506 135 483T169
440T215 402T265 362Q269 359 270 356T272 349Q272 346 271 344T268 339T262 336T255 335Q222 335 203 326T174 300T165 262Q165 244 176 228T204 197T238 164T266 128T278 84Q278 60 267 39T236 5T188 -8Z" />
<glyph unicode="&#xa8;" horiz-adv-x="376" d="M294 532Q285 532 278 536T266 546T261 561Q261 569 265 575T277 585T294 589Q303 589 310 585T321 575T326 561Q326 549 317 541T294 532ZM82 532Q73 532 66 536T54 546T50 561Q50 569 54 575T65 585T82 589Q91
589 98 585T110 575T115 561Q115 553 111 547T99 536T82 532Z" />
<glyph unicode="&#xa9;" horiz-adv-x="737" d="M370 0Q260 0 189 44T84 163T50 327Q50 417 88 490T198 606T370 649Q416 649 461 631T547 582T619 508T669 415T687 311Q687 222 652 152T547 41T370 0ZM351 136Q294 140 260 163T209 224T188 311Q185 363 205 409T264
485T358 514Q399 513 425 500T466 469T486 439T492 426Q492 426 492 424T492 418T486 412Q482 411 479 413T473 418T471 421Q471 421 466 431T449 454T419 477T373 489Q346 490 318 481T266 451T228 397T216 317Q218 270 228 241T258 195T301 172T354 161Q383 158
407 165T449 184T478 204T488 213Q488 213 490 214T495 215T501 211Q504 208 505 206T506 201T505 199Q505 199 497 189T471 165T424 143T351 136ZM370 37Q464 37 526 73T620 171T651 313Q651 372 627 426T562 522T471 588T370 612Q281 613 218 575T120 471T86
326Q86 247 116 182T209 77T370 37Z" />
<glyph unicode="&#xaa;" horiz-adv-x="324" d="M146 277Q117 277 96 291T62 330T50 385Q50 415 64 441T103 483T156 500Q200 500 228 473T257 388Q257 358 242 333T201 293T146 277ZM147 297Q171 297 191 310T224 344T237 391Q237 439 214 461T156 484Q133 484
113 469T82 431T70 381Q70 344 91 321T147 297ZM264 276Q258 276 256 280T253 284Q248 333 248 384T253 491Q253 491 255 495T264 499Q269 499 271 497T273 491T274 488Q271 458 270 425T270 356T273 284Q273 284 273 282T271 278T264 276Z" />
<glyph unicode="&#xab;" horiz-adv-x="506" d="M422 64Q416 59 410 59T399 63T390 69T387 72Q366 95 346 119T307 168T270 221Q260 237 255 252T250 282T258 312Q283 361 308 406T360 489T418 559Q418 559 421 562T428 568T438 573T449 571Q454 568 455 563T455
554T452 546T450 543Q422 509 396 470T345 389T297 299Q281 266 305 235L419 91Q419 91 421 90T425 86T428 80T428 72T422 64ZM222 64Q216 59 210 59T199 63T190 69T187 72Q166 95 146 119T107 168T70 221Q60 237 55 252T50 282T58 312Q83 361 108 406T160 489T218
559Q218 559 221 562T228 568T238 573T249 571Q254 568 255 563T255 554T252 546T250 543Q222 509 196 470T145 389T97 299Q81 266 105 235L219 91Q219 91 221 90T225 86T228 80T228 72T222 64Z" />
<glyph unicode="&#xac;" horiz-adv-x="749" d="M652 72Q646 74 644 78T642 88T643 97T644 101Q653 142 657 182T662 264T657 345Q608 341 548 339T421 335T291 335T169 338T67 345Q67 345 65 346T59 350T53 357T50 369Q50 376 53 380T59 387T66 389T69 390Q118
387 180 386T309 383T442 382T565 385T663 391Q663 391 667 391T676 389T686 382T691 366Q698 318 698 271T693 179T671 88Q671 88 670 85T667 78T662 72T652 72Z" />
<glyph unicode="&#xae;" horiz-adv-x="617" d="M309 137Q220 137 163 172T78 266T50 395Q50 466 81 523T170 615T309 649Q356 649 401 628T484 569T544 484T567 383Q567 312 539 257T453 169T309 137ZM309 167Q386 167 436 195T512 272T537 384Q537 431 517 473T464
549T391 601T309 620Q237 620 186 590T107 509T79 395Q79 333 103 281T179 198T309 167ZM257 259Q253 259 251 261T249 266T248 269Q245 299 245 343T245 433T249 512Q249 512 249 514T252 518T258 521Q305 526 335 522T384 497Q411 468 409 435T379 377Q369 368
350 360T308 349T263 349L265 267Q265 267 265 265T263 261T257 259ZM381 274Q356 291 325 309T259 345Q259 348 261 349T267 351T273 351T276 351Q290 345 304 339T332 325T361 308T394 286Q394 286 394 285T395 281T394 276Q392 273 389 273T384 273T381 274ZM263
367Q310 365 336 376T374 406T388 440Q388 470 370 485T324 504T266 508Q263 474 263 437T263 367Z" />
<glyph unicode="&#xaf;" d="M431 561Q430 554 426 551T418 546T410 545T406 545Q364 548 331 549T268 551T211 551T150 548T78 543Q78 543 75 543T66 544T57 547T51 556Q49 562 51 566T56 572T63 576T66 577Q116 585 155 589T230 593T308 592T405 585Q405 585
409 584T419 580T428 573T431 561Z" />
<glyph unicode="&#xb0;" horiz-adv-x="393" d="M197 368Q146 368 114 388T66 441T50 514Q50 555 67 587T118 639T197 659Q224 659 249 647T296 614T330 565T343 507Q343 447 307 408T197 368ZM197 405Q252 405 279 435T306 509Q306 539 290 564T249 606T197 622Q146
622 117 591T88 514Q88 470 114 438T197 405Z" />
<glyph unicode="&#xb2;" horiz-adv-x="279" d="M86 341Q81 341 77 343T73 351T78 361Q131 443 158 502T180 586Q172 610 159 621T127 634Q108 633 94 625T65 606Q65 606 64 605T60 604T54 606Q52 608 51 609T50 612T53 616Q69 633 87 641T125 650Q156 649 174
633T200 593T201 545Q193 512 177 479T141 414T102 358H220Q220 358 222 358T226 356T229 351Q229 348 228 346T225 344T223 343L86 341Z" />
<glyph unicode="&#xb3;" horiz-adv-x="263" d="M135 342Q118 345 104 350T77 365T53 386Q53 386 52 387T51 392T53 397Q57 400 60 399T66 395T69 393Q75 387 94 376T136 360Q155 363 167 370T186 392T191 428Q181 460 162 475T115 492Q110 493 107 495T105 501T113
505Q117 506 127 507T149 514T171 530Q191 553 190 575T166 616Q151 626 127 625T75 616Q75 616 73 616T68 617T63 621Q62 624 63 626T66 628T68 629Q82 634 96 638T125 641Q138 642 150 639T176 629Q198 615 205 595T208 555T191 521Q183 514 174 508T155 498Q178
488 192 471T212 427Q216 398 205 379T176 351T135 342Z" />
<glyph unicode="&#xb4;" horiz-adv-x="325" d="M76 506Q76 506 74 505T67 504T59 506T52 513Q50 518 51 522T54 530T59 535T62 537Q111 559 158 582T250 628Q250 628 252 629T258 630T265 630T272 623Q275 618 275 614T272 608T267 604T265 602Q244 589 222 577T176
552T127 529T76 506Z" />
<glyph unicode="&#xb6;" horiz-adv-x="652" d="M471 -3Q464 -3 460 0T454 6T452 13T451 16L458 252Q416 246 368 246T273 250T189 266T130 295Q81 336 62 386T56 489T117 590Q164 638 255 648T470 649Q478 649 483 646T490 638T493 631T494 627Q498 579 501 516T505
384T506 247T503 119T496 15Q496 15 495 13T491 6T483 0T471 -3ZM567 -3Q560 -3 556 0T550 6T548 13T547 16Q550 65 551 128T553 261T554 397T551 523T545 622Q545 622 545 624T546 630T549 637T556 643T567 646Q575 646 580 643T587 637T589 630T590 627Q594 579
597 516T601 384T602 247T599 119T592 15Q592 15 591 13T587 6T579 0T567 -3Z" />
<glyph unicode="&#xb7;" horiz-adv-x="165" d="M82 258Q73 258 66 261T54 271T50 286Q50 294 54 300T65 311T82 315Q91 315 98 311T110 301T115 286Q115 278 111 272T99 262T82 258Z" />
<glyph unicode="&#xb8;" horiz-adv-x="318" d="M158 -218Q124 -216 99 -202T53 -169Q53 -169 52 -168T51 -165T51 -161T55 -156Q59 -153 63 -153T70 -155T73 -157Q93 -176 118 -186T174 -196Q205 -193 219 -182T238 -152T239 -112Q235 -88 217 -75T169 -55Q160
-55 154 -53T144 -47T142 -38Q140 -18 139 1T138 38Q138 38 138 42T141 51T148 55Q156 55 158 47T160 38Q163 23 165 6T168 -32Q192 -36 210 -43T240 -62T258 -87T267 -118Q271 -157 258 -179T219 -209T158 -218Z" />
<glyph unicode="&#xb9;" horiz-adv-x="224" d="M163 326Q158 326 155 328T151 332T150 335Q147 370 146 420T145 523T149 614L67 537Q67 537 65 536T61 535T54 538Q51 541 51 544T52 548T53 550L120 611Q132 622 144 633T163 642Q169 642 171 639T173 633T174
630Q172 605 171 568T169 488T170 405T173 335Q173 335 173 333T170 328T163 326Z" />
<glyph unicode="&#xba;" horiz-adv-x="342" d="M150 416Q104 416 77 447T51 528Q53 561 68 590T109 637T164 656Q187 656 210 650T252 629T282 590T291 531Q290 502 276 481T242 445T197 423T150 416ZM154 432Q180 432 206 443T251 478T272 536Q274 574 259 596T220
627T169 637Q143 637 121 622T86 583T70 528Q67 483 91 458T154 432Z" />
<glyph unicode="&#xbb;" horiz-adv-x="506" d="M284 64Q279 68 278 72T278 79T281 85T285 89T287 91L401 235Q425 266 409 299Q386 346 362 388T311 470T256 543Q256 543 255 546T252 553T251 563T257 571Q262 575 267 574T277 569T285 562T288 559Q318 528 345
490T398 406T448 312Q455 298 456 283T452 252T436 221Q418 194 399 169T361 119T319 72Q319 72 316 69T308 63T296 60T284 64ZM84 64Q79 68 78 72T78 79T81 85T85 89T87 91L201 235Q225 266 209 299Q186 346 162 388T111 470T56 543Q56 543 55 546T52 553T51 563T57
571Q62 575 67 574T77 569T85 562T88 559Q118 528 145 490T198 406T248 312Q255 298 256 283T252 252T236 221Q218 194 199 169T161 119T119 72Q119 72 116 69T108 63T96 60T84 64Z" />
<glyph unicode="&#xbc;" horiz-adv-x="483" d="M127 6Q120 8 117 12T112 20T111 27T111 30Q136 106 174 204T260 416T363 649Q363 649 364 651T369 655T377 658T389 655Q396 652 398 647T400 637T398 629T396 626Q347 508 301 397T216 189T152 17Q152 17 150 13T142
6T127 6ZM163 326Q158 326 155 328T151 332T150 335Q147 370 146 420T145 523T149 614L67 537Q67 537 65 536T61 535T54 538Q51 541 51 544T52 548T53 550L120 611Q132 622 144 633T163 642Q169 642 171 639T173 633T174 630Q172 605 171 568T169 488T170 405T173
335Q173 335 173 333T170 328T163 326ZM423 -4Q418 -4 416 -2T412 3T411 5Q408 31 407 67T405 144T405 220T407 283L280 148Q273 135 274 127T287 117L410 121L407 104Q380 101 351 100T289 100Q272 103 263 111T253 132T263 159Q286 186 308 209T348 249Q366 267
382 283T414 313Q421 315 424 312T430 304T431 299Q429 274 428 237T427 158T429 76T433 6Q433 6 433 4T430 -1T423 -4Z" />
<glyph unicode="&#xbd;" horiz-adv-x="519" d="M127 6Q120 8 117 12T112 20T111 27T111 30Q136 106 174 204T260 416T363 649Q363 649 364 651T369 655T377 658T389 655Q396 652 398 647T400 637T398 629T396 626Q347 508 301 397T216 189T152 17Q152 17 150 13T142
6T127 6ZM163 326Q158 326 155 328T151 332T150 335Q147 370 146 420T145 523T149 614L67 537Q67 537 65 536T61 535T54 538Q51 541 51 544T52 548T53 550L120 611Q132 622 144 633T163 642Q169 642 171 639T173 633T174 630Q172 605 171 568T169 488T170 405T173
335Q173 335 173 333T170 328T163 326ZM326 1Q321 1 317 3T313 10T318 21Q371 103 398 162T420 246Q412 270 399 281T367 294Q348 293 334 285T305 266Q305 266 304 265T300 264T294 266Q292 268 291 269T290 272T293 276Q309 293 327 301T365 310Q396 309 414
293T440 253T441 205Q433 172 417 139T381 74T342 18H460Q460 18 462 18T466 16T469 11Q469 7 468 6T465 4T463 3L326 1Z" />
<glyph unicode="&#xbe;" horiz-adv-x="483" d="M127 6Q120 8 117 12T112 20T111 27T111 30Q136 106 174 204T260 416T363 649Q363 649 364 651T369 655T377 658T389 655Q396 652 398 647T400 637T398 629T396 626Q347 508 301 397T216 189T152 17Q152 17 150 13T142
6T127 6ZM135 342Q118 345 104 350T77 365T53 386Q53 386 52 387T51 392T53 397Q57 400 60 399T66 395T69 393Q75 387 94 376T136 360Q155 363 167 370T186 392T191 428Q181 460 162 475T115 492Q110 493 107 495T105 501T113 505Q117 506 127 507T149 514T171
530Q191 553 190 575T166 616Q151 626 127 625T75 616Q75 616 73 616T68 617T63 621Q62 624 63 626T66 628T68 629Q82 634 96 638T125 641Q138 642 150 639T176 629Q198 615 205 595T208 555T191 521Q183 514 174 508T155 498Q178 488 192 471T212 427Q216 398
205 379T176 351T135 342ZM423 -4Q418 -4 416 -2T412 3T411 5Q408 31 407 67T405 144T405 220T407 283L280 148Q273 135 274 127T287 117L410 121L407 104Q380 101 351 100T289 100Q272 103 263 111T253 132T263 159Q286 186 308 209T348 249Q366 267 382 283T414
313Q421 315 424 312T430 304T431 299Q429 274 428 237T427 158T429 76T433 6Q433 6 433 4T430 -1T423 -4Z" />
<glyph unicode="&#xbf;" horiz-adv-x="518" d="M254 -2Q207 -2 169 10T102 49T57 118Q51 141 51 165T58 216T86 271T139 331Q174 359 201 390T229 464Q229 464 229 471T230 485T240 494Q248 495 253 491T261 480T265 469T266 464Q271 435 262 409T233 359T188
313Q160 288 138 260T105 199T101 126Q113 95 133 75T185 45T257 38Q311 38 352 56T415 119Q419 134 421 149T419 181T396 218Q396 218 393 221T387 229T390 242Q393 247 398 247T409 246T419 242T423 239Q456 211 465 172T444 76Q425 51 398 34T335 8T254 -2ZM237
596Q228 596 221 600T209 610T204 625Q204 633 208 639T220 649T237 653Q246 653 253 650T264 640T269 625Q269 617 265 611T253 600T237 596Z" />
<glyph unicode="&#xc0;" horiz-adv-x="504" d="M74 -1Q65 0 61 4T54 12T51 20T50 23Q55 118 73 217T119 417Q133 461 147 501T177 573T212 624T254 643Q271 646 285 635T313 602T339 546T363 472Q373 444 386 394T412 280T436 149T453 15Q453 15 453 13T451 7T445
2T433 -1Q425 -1 420 1T412 6T408 12T407 15Q391 127 372 230T330 418Q316 473 299 517T261 598Q240 573 224 544T195 482T172 413Q157 359 144 308T122 206T107 108T99 15Q99 15 99 12T96 6T88 0T74 -1ZM93 95L100 127Q147 138 195 143T295 149T398 146L404 105Q369
111 328 113T245 115T163 108T93 95ZM345 693Q319 704 295 716T247 740T201 764T157 790Q157 790 155 791T150 795T147 802T149 811Q152 816 156 817T163 819T169 817T172 815Q217 792 264 770T360 724Q360 724 362 722T366 717T370 710T369 700Q367 695 363 694T355
692T348 692T345 693Z" />
<glyph unicode="&#xc1;" horiz-adv-x="504" d="M74 -1Q65 0 61 4T54 12T51 20T50 23Q55 118 73 217T119 417Q133 461 147 501T177 573T212 624T254 643Q271 646 285 635T313 602T339 546T363 472Q373 444 386 394T412 280T436 149T453 15Q453 15 453 13T451 7T445
2T433 -1Q425 -1 420 1T412 6T408 12T407 15Q391 127 372 230T330 418Q316 473 299 517T261 598Q240 573 224 544T195 482T172 413Q157 359 144 308T122 206T107 108T99 15Q99 15 99 12T96 6T88 0T74 -1ZM93 95L100 127Q147 138 195 143T295 149T398 146L404 105Q369
111 328 113T245 115T163 108T93 95ZM163 689Q163 689 161 688T154 687T146 689T139 696Q137 701 138 705T141 713T146 718T149 720Q198 742 245 765T337 811Q337 811 339 812T345 813T352 813T359 806Q362 801 362 797T359 791T354 787T352 785Q331 772 309 760T263
735T214 712T163 689Z" />
<glyph unicode="&#xc2;" horiz-adv-x="504" d="M74 -1Q65 0 61 4T54 12T51 20T50 23Q55 118 73 217T119 417Q133 461 147 501T177 573T212 624T254 643Q271 646 285 635T313 602T339 546T363 472Q373 444 386 394T412 280T436 149T453 15Q453 15 453 13T451 7T445
2T433 -1Q425 -1 420 1T412 6T408 12T407 15Q391 127 372 230T330 418Q316 473 299 517T261 598Q240 573 224 544T195 482T172 413Q157 359 144 308T122 206T107 108T99 15Q99 15 99 12T96 6T88 0T74 -1ZM93 95L100 127Q147 138 195 143T295 149T398 146L404 105Q369
111 328 113T245 115T163 108T93 95ZM130 693Q126 696 125 699T124 706T126 712T127 714Q140 732 156 748T191 781T230 814Q239 821 248 824T267 826T287 817L391 743Q391 743 392 742T395 737T396 730T393 721Q390 717 386 716T377 716T370 718T367 720L265 795Q244
787 218 762T153 695Q153 695 150 693T141 690T130 693Z" />
<glyph unicode="&#xc3;" horiz-adv-x="504" d="M74 -1Q65 0 61 4T54 12T51 20T50 23Q55 118 73 217T119 417Q133 461 147 501T177 573T212 624T254 643Q271 646 285 635T313 602T339 546T363 472Q373 444 386 394T412 280T436 149T453 15Q453 15 453 13T451 7T445
2T433 -1Q425 -1 420 1T412 6T408 12T407 15Q391 127 372 230T330 418Q316 473 299 517T261 598Q240 573 224 544T195 482T172 413Q157 359 144 308T122 206T107 108T99 15Q99 15 99 12T96 6T88 0T74 -1ZM93 95L100 127Q147 138 195 143T295 149T398 146L404 105Q369
111 328 113T245 115T163 108T93 95ZM123 701Q118 697 112 699T102 705T98 709Q86 723 86 737T95 763T120 784T158 795Q194 799 226 787T291 761T359 745Q376 745 389 751T409 771Q409 771 411 775T417 784T431 788Q438 787 441 783T445 775T446 767T446 764Q440
744 422 730T365 713Q344 711 313 720T249 743T189 764Q170 768 152 764T124 748T121 721Q121 721 123 718T127 710T123 701Z" />
<glyph unicode="&#xc4;" horiz-adv-x="504" d="M74 -1Q65 0 61 4T54 12T51 20T50 23Q55 118 73 217T119 417Q133 461 147 501T177 573T212 624T254 643Q271 646 285 635T313 602T339 546T363 472Q373 444 386 394T412 280T436 149T453 15Q453 15 453 13T451 7T445
2T433 -1Q425 -1 420 1T412 6T408 12T407 15Q391 127 372 230T330 418Q316 473 299 517T261 598Q240 573 224 544T195 482T172 413Q157 359 144 308T122 206T107 108T99 15Q99 15 99 12T96 6T88 0T74 -1ZM93 95L100 127Q147 138 195 143T295 149T398 146L404 105Q369
111 328 113T245 115T163 108T93 95ZM352 715Q343 715 336 719T324 729T319 744Q319 752 323 758T335 768T352 772Q361 772 368 768T379 758T384 744Q384 732 375 724T352 715ZM140 715Q131 715 124 719T112 729T108 744Q108 752 112 758T123 768T140 772Q149 772
156 768T168 758T173 744Q173 736 169 730T157 719T140 715Z" />
<glyph unicode="&#xc5;" horiz-adv-x="504" d="M74 -1Q65 0 61 4T54 12T51 20T50 23Q55 118 73 217T119 417Q133 461 147 501T177 573T212 624T254 643Q271 646 285 635T313 602T339 546T363 472Q373 444 386 394T412 280T436 149T453 15Q453 15 453 13T451 7T445
2T433 -1Q425 -1 420 1T412 6T408 12T407 15Q391 127 372 230T330 418Q316 473 299 517T261 598Q240 573 224 544T195 482T172 413Q157 359 144 308T122 206T107 108T99 15Q99 15 99 12T96 6T88 0T74 -1ZM93 95L100 127Q147 138 195 143T295 149T398 146L404 105Q369
111 328 113T245 115T163 108T93 95ZM257 691Q232 691 213 703T183 734T172 775Q172 797 184 814T215 841T257 851Q280 851 300 842T333 817T346 777Q346 756 336 736T305 704T257 691ZM257 715Q287 715 303 734T320 775Q320 800 301 813T258 827Q234 827 216 812T198
774Q198 752 214 734T257 715Z" />
<glyph unicode="&#xc6;" horiz-adv-x="908" d="M74 -1Q65 0 61 4T54 12T51 20T50 23Q55 118 73 217T119 417Q133 461 147 501T177 573T212 624T254 643Q271 646 285 635T313 602T339 546T363 472Q373 444 386 394T412 280T436 149T453 15Q453 15 453 13T451 7T445
2T433 -1Q425 -1 420 1T412 6T408 12T407 15Q391 127 372 230T330 418Q316 473 299 517T261 598Q240 573 224 544T195 482T172 413Q157 359 144 308T122 206T107 108T99 15Q99 15 99 12T96 6T88 0T74 -1ZM93 95L100 127Q147 138 195 143T295 149T398 146L404 105Q369
111 328 113T245 115T163 108T93 95ZM464 -1Q452 -1 442 0T425 4T414 12T407 23Q404 96 402 170T399 319T400 471T410 630Q413 644 426 650T461 654L824 647Q824 647 826 647T833 645T842 642T848 635T851 624Q851 616 847 612T838 607T829 606T825 606L455 620Q450
567 447 511T444 398T444 281T447 160T453 37Q496 41 538 45T619 55T695 65T765 76T828 88Q828 88 830 88T837 89T845 88T852 83T857 73Q859 66 858 61T853 54T848 50T845 49Q797 39 749 31T653 17T558 7T464 -1ZM427 313V356L706 367Q706 367 710 367T720 366T733
363T743 356T747 343Q747 336 742 332T730 326T718 324T712 324L427 313Z" />
<glyph unicode="&#xc7;" horiz-adv-x="635" d="M286 11Q224 22 181 50T109 117T67 200T51 287T55 366Q63 410 86 459T148 552T238 623T355 651Q420 650 468 627T544 566T581 488T577 408Q577 408 576 406T570 403T559 402Q552 404 548 407T543 413T542 416Q542
416 542 431T537 471T518 521T477 570T403 605Q357 616 311 601T225 551T154 470T108 373T99 275Q105 223 124 184T171 119T228 76T288 53T342 47Q382 49 417 65T479 105T516 155Q516 155 518 157T525 161T534 164T547 161Q552 158 555 155T559 149T561 143T561
139T561 137Q561 137 552 121T524 83T472 40T394 10T286 11ZM319 -228Q285 -226 260 -212T214 -179Q214 -179 213 -178T212 -175T212 -171T216 -166Q220 -163 224 -163T231 -165T234 -167Q254 -186 279 -196T335 -206Q366 -203 380 -192T399 -162T400 -122Q396
-98 378 -85T330 -65Q321 -65 315 -63T305 -57T303 -48Q301 -28 300 -9T299 28Q299 28 299 32T302 41T309 45Q317 45 319 37T321 28Q324 13 326 -4T329 -42Q353 -46 371 -53T401 -72T419 -97T428 -128Q432 -167 419 -189T380 -219T319 -228Z" />
<glyph unicode="&#xc8;" horiz-adv-x="561" d="M117 2Q105 2 95 3T78 7T67 15T60 26Q57 99 55 173T52 322T53 474T63 633Q66 647 79 653T114 657L477 650Q477 650 479 650T486 648T495 645T501 638T504 627Q504 619 500 615T491 610T482 609T478 609L108 623Q103
570 100 514T97 401T97 284T100 163T106 40Q149 44 191 48T272 58T348 68T418 79T481 91Q481 91 483 91T490 92T498 91T505 86T510 76Q512 69 511 64T506 57T501 53T498 52Q450 42 402 34T306 20T211 10T117 2ZM80 316V359L359 370Q359 370 363 370T373 369T386
366T396 359T400 346Q400 339 395 335T383 329T371 327T365 327L80 316ZM379 693Q353 704 329 716T281 740T235 764T191 790Q191 790 189 791T184 795T181 802T183 811Q186 816 190 817T197 819T203 817T206 815Q251 792 298 770T394 724Q394 724 396 722T400 717T404
710T403 700Q401 695 397 694T389 692T382 692T379 693Z" />
<glyph unicode="&#xc9;" horiz-adv-x="561" d="M117 2Q105 2 95 3T78 7T67 15T60 26Q57 99 55 173T52 322T53 474T63 633Q66 647 79 653T114 657L477 650Q477 650 479 650T486 648T495 645T501 638T504 627Q504 619 500 615T491 610T482 609T478 609L108 623Q103
570 100 514T97 401T97 284T100 163T106 40Q149 44 191 48T272 58T348 68T418 79T481 91Q481 91 483 91T490 92T498 91T505 86T510 76Q512 69 511 64T506 57T501 53T498 52Q450 42 402 34T306 20T211 10T117 2ZM80 316V359L359 370Q359 370 363 370T373 369T386
366T396 359T400 346Q400 339 395 335T383 329T371 327T365 327L80 316ZM197 689Q197 689 195 688T188 687T180 689T173 696Q171 701 172 705T175 713T180 718T183 720Q232 742 279 765T371 811Q371 811 373 812T379 813T386 813T393 806Q396 801 396 797T393 791T388
787T386 785Q365 772 343 760T297 735T248 712T197 689Z" />
<glyph unicode="&#xca;" horiz-adv-x="561" d="M117 2Q105 2 95 3T78 7T67 15T60 26Q57 99 55 173T52 322T53 474T63 633Q66 647 79 653T114 657L477 650Q477 650 479 650T486 648T495 645T501 638T504 627Q504 619 500 615T491 610T482 609T478 609L108 623Q103
570 100 514T97 401T97 284T100 163T106 40Q149 44 191 48T272 58T348 68T418 79T481 91Q481 91 483 91T490 92T498 91T505 86T510 76Q512 69 511 64T506 57T501 53T498 52Q450 42 402 34T306 20T211 10T117 2ZM80 316V359L359 370Q359 370 363 370T373 369T386
366T396 359T400 346Q400 339 395 335T383 329T371 327T365 327L80 316ZM164 693Q160 696 159 699T158 706T160 712T161 714Q174 732 190 748T225 781T264 814Q273 821 282 824T301 826T321 817L425 743Q425 743 426 742T429 737T430 730T427 721Q424 717 420 716T411
716T404 718T401 720L299 795Q278 787 252 762T187 695Q187 695 184 693T175 690T164 693Z" />
<glyph unicode="&#xcb;" horiz-adv-x="561" d="M117 2Q105 2 95 3T78 7T67 15T60 26Q57 99 55 173T52 322T53 474T63 633Q66 647 79 653T114 657L477 650Q477 650 479 650T486 648T495 645T501 638T504 627Q504 619 500 615T491 610T482 609T478 609L108 623Q103
570 100 514T97 401T97 284T100 163T106 40Q149 44 191 48T272 58T348 68T418 79T481 91Q481 91 483 91T490 92T498 91T505 86T510 76Q512 69 511 64T506 57T501 53T498 52Q450 42 402 34T306 20T211 10T117 2ZM80 316V359L359 370Q359 370 363 370T373 369T386
366T396 359T400 346Q400 339 395 335T383 329T371 327T365 327L80 316ZM386 715Q377 715 370 719T358 729T353 744Q353 752 357 758T369 768T386 772Q395 772 402 768T413 758T418 744Q418 732 409 724T386 715ZM174 715Q165 715 158 719T146 729T142 744Q142
752 146 758T157 768T174 772Q183 772 190 768T202 758T207 744Q207 736 203 730T191 719T174 715Z" />
<glyph unicode="&#xcc;" horiz-adv-x="157" d="M85 -3Q78 -3 73 -1T66 6T62 12T60 15Q56 58 54 118T51 246T51 384T55 516T62 627Q62 627 62 630T65 636T72 643T85 646Q92 646 96 644T102 638T106 631T107 625T107 622Q103 581 101 523T99 398T98 261T100 129T105
16Q105 16 105 13T102 7T96 0T85 -3ZM176 693Q150 704 126 716T78 740T32 764T-12 790Q-12 790 -14 791T-19 795T-22 802T-20 811Q-17 816 -13 817T-6 819T0 817T3 815Q48 792 95 770T191 724Q191 724 193 722T197 717T201 710T200 700Q198 695 194 694T186 692T179
692T176 693Z" />
<glyph unicode="&#xcd;" horiz-adv-x="157" d="M85 -3Q78 -3 73 -1T66 6T62 12T60 15Q56 58 54 118T51 246T51 384T55 516T62 627Q62 627 62 630T65 636T72 643T85 646Q92 646 96 644T102 638T106 631T107 625T107 622Q103 581 101 523T99 398T98 261T100 129T105
16Q105 16 105 13T102 7T96 0T85 -3ZM-6 689Q-6 689 -8 688T-15 687T-23 689T-30 696Q-32 701 -31 705T-28 713T-23 718T-20 720Q29 742 76 765T168 811Q168 811 170 812T176 813T183 813T190 806Q193 801 193 797T190 791T185 787T183 785Q162 772 140 760T94
735T45 712T-6 689Z" />
<glyph unicode="&#xce;" horiz-adv-x="157" d="M85 -3Q78 -3 73 -1T66 6T62 12T60 15Q56 58 54 118T51 246T51 384T55 516T62 627Q62 627 62 630T65 636T72 643T85 646Q92 646 96 644T102 638T106 631T107 625T107 622Q103 581 101 523T99 398T98 261T100 129T105
16Q105 16 105 13T102 7T96 0T85 -3ZM-39 693Q-43 696 -44 699T-45 706T-43 712T-42 714Q-29 732 -13 748T22 781T61 814Q70 821 79 824T98 826T118 817L222 743Q222 743 223 742T226 737T227 730T224 721Q221 717 217 716T208 716T201 718T198 720L96 795Q75 787
49 762T-16 695Q-16 695 -19 693T-28 690T-39 693Z" />
<glyph unicode="&#xcf;" horiz-adv-x="157" d="M85 -3Q78 -3 73 -1T66 6T62 12T60 15Q56 58 54 118T51 246T51 384T55 516T62 627Q62 627 62 630T65 636T72 643T85 646Q92 646 96 644T102 638T106 631T107 625T107 622Q103 581 101 523T99 398T98 261T100 129T105
16Q105 16 105 13T102 7T96 0T85 -3ZM183 715Q174 715 167 719T155 729T150 744Q150 752 154 758T166 768T183 772Q192 772 199 768T210 758T215 744Q215 732 206 724T183 715ZM-29 715Q-38 715 -45 719T-57 729T-61 744Q-61 752 -57 758T-46 768T-29 772Q-20 772
-13 768T-1 758T4 744Q4 736 0 730T-12 719T-29 715Z" />
<glyph unicode="&#xd0;" horiz-adv-x="621" d="M133 -2Q100 -2 80 4T51 24Q51 173 51 322T51 619Q50 638 91 645T200 651Q276 651 328 639T416 604T477 555T525 498Q581 386 569 289T490 106Q449 60 393 37T271 6T133 -2ZM105 42Q218 35 296 51T422 105T493 199T521
326Q515 419 483 478T397 569T269 609T106 609Q99 473 99 331T105 42ZM-49 299Q-51 299 -56 299T-68 301T-76 312Q-78 318 -76 322T-71 328T-64 332T-61 333Q-21 339 9 343T66 348T120 350T181 347T258 341Q258 341 262 340T272 336T281 329T284 317Q283 310 279
307T271 302T263 301T259 301Q217 304 186 305T128 307T77 307T21 304T-49 299Z" />
<glyph unicode="&#xd1;" horiz-adv-x="550" d="M85 -3Q78 -3 74 -1T66 6T62 12T61 15Q55 69 53 137T50 280T53 425T61 557Q61 557 62 562T68 571T84 576Q90 576 93 574T100 569T104 564Q161 486 218 408T333 252T447 96Q444 155 443 226T443 370T448 509T455 627Q455
627 455 630T458 636T465 643T478 646Q485 646 489 644T495 638T499 631T500 625T500 622Q496 581 494 523T492 398T491 261T493 129T498 16Q498 16 498 13T495 6T489 0T477 -3Q471 -2 466 2T457 10T453 15Q453 15 438 34T397 86T339 161T273 248T205 338T146 421T102
486Q99 417 99 335T100 169T106 16Q106 16 106 13T103 7T97 0T85 -3ZM152 701Q147 697 141 699T131 705T127 709Q115 723 115 737T124 763T149 784T187 795Q223 799 255 787T320 761T388 745Q405 745 418 751T438 771Q438 771 440 775T446 784T460 788Q467 787
470 783T474 775T475 767T475 764Q469 744 451 730T394 713Q373 711 342 720T278 743T218 764Q199 768 181 764T153 748T150 721Q150 721 152 718T156 710T152 701Z" />
<glyph unicode="&#xd2;" horiz-adv-x="765" d="M324 -7Q261 -7 210 16T121 80T66 178T51 303Q54 371 79 434T147 547T245 626T363 656Q413 656 464 645T562 608T644 543T699 445T714 310Q711 246 686 196T621 107T530 44T427 6T324 -7ZM335 39Q378 39 422 50T508
83T582 140T635 221T659 325Q664 404 641 458T577 544T483 591T377 606Q323 606 276 582T191 516T131 419T106 302Q102 219 129 160T210 70T335 39ZM454 693Q428 704 404 716T356 740T310 764T266 790Q266 790 264 791T259 795T256 802T258 811Q261 816 265 817T272
819T278 817T281 815Q326 792 373 770T469 724Q469 724 471 722T475 717T479 710T478 700Q476 695 472 694T464 692T457 692T454 693Z" />
<glyph unicode="&#xd3;" horiz-adv-x="765" d="M324 -7Q261 -7 210 16T121 80T66 178T51 303Q54 371 79 434T147 547T245 626T363 656Q413 656 464 645T562 608T644 543T699 445T714 310Q711 246 686 196T621 107T530 44T427 6T324 -7ZM335 39Q378 39 422 50T508
83T582 140T635 221T659 325Q664 404 641 458T577 544T483 591T377 606Q323 606 276 582T191 516T131 419T106 302Q102 219 129 160T210 70T335 39ZM272 689Q272 689 270 688T263 687T255 689T248 696Q246 701 247 705T250 713T255 718T258 720Q307 742 354 765T446
811Q446 811 448 812T454 813T461 813T468 806Q471 801 471 797T468 791T463 787T461 785Q440 772 418 760T372 735T323 712T272 689Z" />
<glyph unicode="&#xd4;" horiz-adv-x="765" d="M324 -7Q261 -7 210 16T121 80T66 178T51 303Q54 371 79 434T147 547T245 626T363 656Q413 656 464 645T562 608T644 543T699 445T714 310Q711 246 686 196T621 107T530 44T427 6T324 -7ZM335 39Q378 39 422 50T508
83T582 140T635 221T659 325Q664 404 641 458T577 544T483 591T377 606Q323 606 276 582T191 516T131 419T106 302Q102 219 129 160T210 70T335 39ZM239 693Q235 696 234 699T233 706T235 712T236 714Q249 732 265 748T300 781T339 814Q348 821 357 824T376 826T396
817L500 743Q500 743 501 742T504 737T505 730T502 721Q499 717 495 716T486 716T479 718T476 720L374 795Q353 787 327 762T262 695Q262 695 259 693T250 690T239 693Z" />
<glyph unicode="&#xd5;" horiz-adv-x="765" d="M324 -7Q261 -7 210 16T121 80T66 178T51 303Q54 371 79 434T147 547T245 626T363 656Q413 656 464 645T562 608T644 543T699 445T714 310Q711 246 686 196T621 107T530 44T427 6T324 -7ZM335 39Q378 39 422 50T508
83T582 140T635 221T659 325Q664 404 641 458T577 544T483 591T377 606Q323 606 276 582T191 516T131 419T106 302Q102 219 129 160T210 70T335 39ZM232 701Q227 697 221 699T211 705T207 709Q195 723 195 737T204 763T229 784T267 795Q303 799 335 787T400 761T468
745Q485 745 498 751T518 771Q518 771 520 775T526 784T540 788Q547 787 550 783T554 775T555 767T555 764Q549 744 531 730T474 713Q453 711 422 720T358 743T298 764Q279 768 261 764T233 748T230 721Q230 721 232 718T236 710T232 701Z" />
<glyph unicode="&#xd6;" horiz-adv-x="765" d="M324 -7Q261 -7 210 16T121 80T66 178T51 303Q54 371 79 434T147 547T245 626T363 656Q413 656 464 645T562 608T644 543T699 445T714 310Q711 246 686 196T621 107T530 44T427 6T324 -7ZM335 39Q378 39 422 50T508
83T582 140T635 221T659 325Q664 404 641 458T577 544T483 591T377 606Q323 606 276 582T191 516T131 419T106 302Q102 219 129 160T210 70T335 39ZM461 715Q452 715 445 719T433 729T428 744Q428 752 432 758T444 768T461 772Q470 772 477 768T488 758T493 744Q493
732 484 724T461 715ZM249 715Q240 715 233 719T221 729T217 744Q217 752 221 758T232 768T249 772Q258 772 265 768T277 758T282 744Q282 736 278 730T266 719T249 715Z" />
<glyph unicode="&#xd7;" horiz-adv-x="493" d="M429 80Q424 76 419 76T410 78T404 82T402 84Q353 148 306 209T214 330T129 444T52 550Q52 550 52 552T51 557T52 564T58 570Q62 572 66 571T75 568T82 564T85 562Q132 496 186 423T302 269T429 105Q429 105 431
103T434 96T435 88T429 80ZM70 69Q64 72 63 76T61 83T62 89T63 92Q110 148 155 206T243 325T327 448T409 575Q409 575 411 577T418 580T430 578Q435 576 437 573T441 566T442 561T442 559Q400 491 358 426T273 300T185 181T96 70Q96 70 93 68T84 66T70 69Z" />
<glyph unicode="&#xd8;" horiz-adv-x="765" d="M324 -7Q261 -7 210 16T121 80T66 178T51 303Q54 371 79 434T147 547T245 626T363 656Q413 656 464 645T562 608T644 543T699 445T714 310Q711 246 686 196T621 107T530 44T427 6T324 -7ZM335 39Q378 39 422 50T508
83T582 140T635 221T659 325Q664 404 641 458T577 544T483 591T377 606Q323 606 276 582T191 516T131 419T106 302Q102 219 129 160T210 70T335 39ZM244 -28Q236 -26 232 -22T227 -14T226 -6T226 -2Q246 59 274 135T338 297T414 478T499 669Q499 669 500 671T505
675T514 678T528 675Q535 671 537 666T539 656T537 647T535 644Q482 516 432 395T341 169T271 -17Q271 -17 268 -21T259 -28T244 -28Z" />
<glyph unicode="&#xd9;" horiz-adv-x="596" d="M311 -3Q225 3 169 48T84 177T51 379V629Q51 629 51 631T53 638T59 644T72 647Q80 647 85 644T94 637T98 630T100 627L103 393Q101 292 120 216T186 96T311 43Q368 51 410 86T474 193T495 383L492 620Q492 620 492
622T493 628T499 633T511 636Q517 637 522 635T530 630T536 624T539 619T540 617L545 396Q548 316 538 245T502 119T430 32T311 -3ZM389 693Q363 704 339 716T291 740T245 764T201 790Q201 790 199 791T194 795T191 802T193 811Q196 816 200 817T207 819T213 817T216
815Q261 792 308 770T404 724Q404 724 406 722T410 717T414 710T413 700Q411 695 407 694T399 692T392 692T389 693Z" />
<glyph unicode="&#xda;" horiz-adv-x="596" d="M311 -3Q225 3 169 48T84 177T51 379V629Q51 629 51 631T53 638T59 644T72 647Q80 647 85 644T94 637T98 630T100 627L103 393Q101 292 120 216T186 96T311 43Q368 51 410 86T474 193T495 383L492 620Q492 620 492
622T493 628T499 633T511 636Q517 637 522 635T530 630T536 624T539 619T540 617L545 396Q548 316 538 245T502 119T430 32T311 -3ZM207 689Q207 689 205 688T198 687T190 689T183 696Q181 701 182 705T185 713T190 718T193 720Q242 742 289 765T381 811Q381 811
383 812T389 813T396 813T403 806Q406 801 406 797T403 791T398 787T396 785Q375 772 353 760T307 735T258 712T207 689Z" />
<glyph unicode="&#xdb;" horiz-adv-x="596" d="M311 -3Q225 3 169 48T84 177T51 379V629Q51 629 51 631T53 638T59 644T72 647Q80 647 85 644T94 637T98 630T100 627L103 393Q101 292 120 216T186 96T311 43Q368 51 410 86T474 193T495 383L492 620Q492 620 492
622T493 628T499 633T511 636Q517 637 522 635T530 630T536 624T539 619T540 617L545 396Q548 316 538 245T502 119T430 32T311 -3ZM174 693Q170 696 169 699T168 706T170 712T171 714Q184 732 200 748T235 781T274 814Q283 821 292 824T311 826T331 817L435 743Q435
743 436 742T439 737T440 730T437 721Q434 717 430 716T421 716T414 718T411 720L309 795Q288 787 262 762T197 695Q197 695 194 693T185 690T174 693Z" />
<glyph unicode="&#xdc;" horiz-adv-x="596" d="M311 -3Q225 3 169 48T84 177T51 379V629Q51 629 51 631T53 638T59 644T72 647Q80 647 85 644T94 637T98 630T100 627L103 393Q101 292 120 216T186 96T311 43Q368 51 410 86T474 193T495 383L492 620Q492 620 492
622T493 628T499 633T511 636Q517 637 522 635T530 630T536 624T539 619T540 617L545 396Q548 316 538 245T502 119T430 32T311 -3ZM396 715Q387 715 380 719T368 729T363 744Q363 752 367 758T379 768T396 772Q405 772 412 768T423 758T428 744Q428 732 419 724T396
715ZM184 715Q175 715 168 719T156 729T152 744Q152 752 156 758T167 768T184 772Q193 772 200 768T212 758T217 744Q217 736 213 730T201 719T184 715Z" />
<glyph unicode="&#xdd;" horiz-adv-x="525" d="M253 266Q166 278 118 323T56 444T61 620Q61 620 62 624T65 635T73 645T87 647Q96 645 100 640T105 628T106 616T106 611Q84 473 118 396T251 309Q305 318 342 348T399 423T424 516T418 610Q418 610 418 613T418
620T423 628T436 633Q444 633 449 631T458 624T463 617T465 614Q478 557 473 500T441 393T369 309T253 266ZM256 9Q248 9 243 12T236 20T232 27T231 31Q221 90 222 153T233 282L279 286Q267 207 268 144T276 31Q276 31 276 28T275 20T269 13T256 9ZM191 689Q191
689 189 688T182 687T174 689T167 696Q165 701 166 705T169 713T174 718T177 720Q226 742 273 765T365 811Q365 811 367 812T373 813T380 813T387 806Q390 801 390 797T387 791T382 787T380 785Q359 772 337 760T291 735T242 712T191 689Z" />
<glyph unicode="&#xde;" horiz-adv-x="539" d="M267 93Q225 93 189 109T127 153T89 219T79 300Q83 343 102 381T151 447T220 492T301 508Q343 508 379 492T440 448T479 381T488 300Q485 257 466 220T417 154T348 109T267 93ZM85 -3Q78 -3 73 -1T66 6T62 12T60
15Q56 58 54 118T51 246T51 384T55 516T62 627Q62 627 62 630T65 636T72 643T85 646Q92 646 96 644T102 638T106 631T107 625T107 622Q103 581 101 523T99 398T98 261T100 129T105 16Q105 16 105 13T102 7T96 0T85 -3ZM270 133Q315 133 353 156T417 218T445 304Q449
351 430 389T377 451T297 474Q252 474 214 451T151 390T122 304Q119 257 137 218T191 156T270 133Z" />
<glyph unicode="&#xdf;" horiz-adv-x="561" d="M85 -3Q78 -3 73 -1T66 6T62 12T60 15Q56 58 54 118T51 246T51 384T55 516T62 627Q62 627 62 630T65 636T72 643T85 646Q173 655 247 653T376 634T464 583T503 493Q503 456 488 429T446 382T382 351Q421 335 450
311T495 258T511 197Q509 143 485 105T419 44T325 14Q325 14 319 14T305 14T291 18T284 30Q284 37 289 41T300 48T312 52T318 53Q367 67 399 88T446 139T459 206Q452 244 429 268T369 305T288 324T195 330T97 330L105 16Q105 16 105 13T102 7T96 0T85 -3ZM97 371Q169
367 234 370T348 385T426 424T455 494Q453 538 426 565T351 604T240 618T105 612L97 371Z" />
<glyph unicode="&#xe0;" horiz-adv-x="598" d="M264 4Q215 4 176 22T108 73T65 149T50 243Q50 293 68 339T119 422T195 479T287 500Q352 500 403 474T483 392T512 250Q512 200 492 156T437 77T358 24T264 4ZM266 47Q305 47 341 64T406 110T450 177T467 257Q467
328 444 374T380 442T286 464Q247 464 212 445T151 392T110 319T95 236Q95 181 116 138T175 71T266 47ZM527 1Q518 1 513 5T505 14T502 18Q495 91 493 166T493 319T503 479Q503 479 504 483T510 492T526 497Q534 497 538 494T545 485T547 477T548 473Q544 422 542
368T539 257T542 141T547 20Q547 20 547 17T544 11T538 4T527 1ZM378 551Q352 562 328 574T280 598T234 622T190 648Q190 648 188 649T183 653T180 660T182 669Q185 674 189 675T196 677T202 675T205 673Q250 650 297 628T393 582Q393 582 395 580T399 575T403
568T402 558Q400 553 396 552T388 550T381 550T378 551Z" />
<glyph unicode="&#xe1;" horiz-adv-x="598" d="M264 4Q215 4 176 22T108 73T65 149T50 243Q50 293 68 339T119 422T195 479T287 500Q352 500 403 474T483 392T512 250Q512 200 492 156T437 77T358 24T264 4ZM266 47Q305 47 341 64T406 110T450 177T467 257Q467
328 444 374T380 442T286 464Q247 464 212 445T151 392T110 319T95 236Q95 181 116 138T175 71T266 47ZM527 1Q518 1 513 5T505 14T502 18Q495 91 493 166T493 319T503 479Q503 479 504 483T510 492T526 497Q534 497 538 494T545 485T547 477T548 473Q544 422 542
368T539 257T542 141T547 20Q547 20 547 17T544 11T538 4T527 1ZM196 547Q196 547 194 546T187 545T179 547T172 554Q170 559 171 563T174 571T179 576T182 578Q231 600 278 623T370 669Q370 669 372 670T378 671T385 671T392 664Q395 659 395 655T392 649T387
645T385 643Q364 630 342 618T296 593T247 570T196 547Z" />
<glyph unicode="&#xe2;" horiz-adv-x="598" d="M264 4Q215 4 176 22T108 73T65 149T50 243Q50 293 68 339T119 422T195 479T287 500Q352 500 403 474T483 392T512 250Q512 200 492 156T437 77T358 24T264 4ZM266 47Q305 47 341 64T406 110T450 177T467 257Q467
328 444 374T380 442T286 464Q247 464 212 445T151 392T110 319T95 236Q95 181 116 138T175 71T266 47ZM527 1Q518 1 513 5T505 14T502 18Q495 91 493 166T493 319T503 479Q503 479 504 483T510 492T526 497Q534 497 538 494T545 485T547 477T548 473Q544 422 542
368T539 257T542 141T547 20Q547 20 547 17T544 11T538 4T527 1ZM163 551Q159 554 158 557T157 564T159 570T160 572Q173 590 189 606T224 639T263 672Q272 679 281 682T300 684T320 675L424 601Q424 601 425 600T428 595T429 588T426 579Q423 575 419 574T410
574T403 576T400 578L298 653Q277 645 251 620T186 553Q186 553 183 551T174 548T163 551Z" />
<glyph unicode="&#xe3;" horiz-adv-x="598" d="M264 4Q215 4 176 22T108 73T65 149T50 243Q50 293 68 339T119 422T195 479T287 500Q352 500 403 474T483 392T512 250Q512 200 492 156T437 77T358 24T264 4ZM266 47Q305 47 341 64T406 110T450 177T467 257Q467
328 444 374T380 442T286 464Q247 464 212 445T151 392T110 319T95 236Q95 181 116 138T175 71T266 47ZM527 1Q518 1 513 5T505 14T502 18Q495 91 493 166T493 319T503 479Q503 479 504 483T510 492T526 497Q534 497 538 494T545 485T547 477T548 473Q544 422 542
368T539 257T542 141T547 20Q547 20 547 17T544 11T538 4T527 1ZM156 559Q151 555 145 557T135 563T131 567Q119 581 119 595T128 621T153 642T191 653Q227 657 259 645T324 619T392 603Q409 603 422 609T442 629Q442 629 444 633T450 642T464 646Q471 645 474
641T478 633T479 625T479 622Q473 602 455 588T398 571Q377 569 346 578T282 601T222 622Q203 626 185 622T157 606T154 579Q154 579 156 576T160 568T156 559Z" />
<glyph unicode="&#xe4;" horiz-adv-x="598" d="M264 4Q215 4 176 22T108 73T65 149T50 243Q50 293 68 339T119 422T195 479T287 500Q352 500 403 474T483 392T512 250Q512 200 492 156T437 77T358 24T264 4ZM266 47Q305 47 341 64T406 110T450 177T467 257Q467
328 444 374T380 442T286 464Q247 464 212 445T151 392T110 319T95 236Q95 181 116 138T175 71T266 47ZM527 1Q518 1 513 5T505 14T502 18Q495 91 493 166T493 319T503 479Q503 479 504 483T510 492T526 497Q534 497 538 494T545 485T547 477T548 473Q544 422 542
368T539 257T542 141T547 20Q547 20 547 17T544 11T538 4T527 1ZM385 573Q376 573 369 577T357 587T352 602Q352 610 356 616T368 626T385 630Q394 630 401 626T412 616T417 602Q417 590 408 582T385 573ZM173 573Q164 573 157 577T145 587T141 602Q141 610 145
616T156 626T173 630Q182 630 189 626T201 616T206 602Q206 594 202 588T190 577T173 573Z" />
<glyph unicode="&#xe5;" horiz-adv-x="598" d="M264 4Q215 4 176 22T108 73T65 149T50 243Q50 293 68 339T119 422T195 479T287 500Q352 500 403 474T483 392T512 250Q512 200 492 156T437 77T358 24T264 4ZM266 47Q305 47 341 64T406 110T450 177T467 257Q467
328 444 374T380 442T286 464Q247 464 212 445T151 392T110 319T95 236Q95 181 116 138T175 71T266 47ZM527 1Q518 1 513 5T505 14T502 18Q495 91 493 166T493 319T503 479Q503 479 504 483T510 492T526 497Q534 497 538 494T545 485T547 477T548 473Q544 422 542
368T539 257T542 141T547 20Q547 20 547 17T544 11T538 4T527 1ZM290 549Q265 549 246 561T216 592T205 633Q205 655 217 672T248 699T290 709Q313 709 333 700T366 675T379 635Q379 614 369 594T338 562T290 549ZM290 573Q320 573 336 592T353 633Q353 658 334
671T291 685Q267 685 249 670T231 632Q231 610 247 592T290 573Z" />
<glyph unicode="&#xe6;" horiz-adv-x="994" d="M701 -10Q635 1 595 27T534 89T506 166T499 248Q499 288 516 332T565 415T644 476T749 495Q808 491 843 473T897 428T921 372T927 318Q926 267 900 238T825 199Q809 196 783 195T725 193T662 193T605 195T563 196T547
197Q549 155 568 119T622 60T709 32Q745 29 782 31T850 39T899 48T918 53Q918 53 921 53T928 54T937 51T943 40Q945 34 944 30T940 24T935 20T933 19Q933 19 912 13T855 -1T780 -12T701 -10ZM264 4Q215 4 176 22T108 73T65 149T50 243Q50 293 68 339T119 422T195
479T287 500Q352 500 403 474T483 392T512 250Q512 200 492 156T437 77T358 24T264 4ZM266 47Q305 47 341 64T406 110T450 177T467 257Q467 328 444 374T380 442T286 464Q247 464 212 445T151 392T110 319T95 236Q95 181 116 138T175 71T266 47ZM527 1Q518 1 513
5T505 14T502 18Q495 91 493 166T493 319T503 479Q503 479 504 483T510 492T526 497Q534 497 538 494T545 485T547 477T548 473Q544 422 542 368T539 257T542 141T547 20Q547 20 547 17T544 11T538 4T527 1ZM543 226L794 229Q794 229 803 230T826 236T853 251T876
279T885 325Q885 371 870 401T818 446T718 456Q671 453 637 428T580 365T549 291T543 226Z" />
<glyph unicode="&#xe7;" horiz-adv-x="560" d="M308 -245Q274 -243 249 -229T203 -196Q203 -196 202 -195T201 -192T201 -188T205 -183Q209 -180 213 -180T220 -182T223 -184Q243 -203 268 -213T324 -223Q355 -220 369 -209T388 -179T389 -139Q385 -115 367 -102T319
-82Q310 -82 304 -80T294 -74T292 -65Q290 -45 289 -26T288 11Q288 11 288 15T291 24T298 28Q306 28 308 20T310 11Q313 -4 315 -21T318 -59Q342 -63 360 -70T390 -89T408 -114T417 -145Q421 -184 408 -206T369 -236T308 -245ZM286 -9Q204 -4 154 26T80 108T51
225Q47 277 62 325T110 412T190 473T297 495Q345 495 378 483T434 454T468 419T486 390T491 378Q491 378 491 375T491 368T482 360Q473 356 465 357T451 362T446 365Q446 365 440 376T420 403T380 430T316 443Q277 444 238 434T168 400T118 335T104 231Q108 162
131 123T194 67T289 43Q330 39 364 47T424 69T462 92T476 103Q476 103 480 104T491 106T505 97Q509 93 509 88T510 80T509 76Q509 76 497 62T459 31T391 1T286 -9Z" />
<glyph unicode="&#xe8;" horiz-adv-x="546" d="M253 -10Q187 1 147 27T86 89T58 166T51 248Q51 288 68 332T117 415T196 476T301 495Q360 491 395 473T449 428T473 372T479 318Q478 267 452 238T377 199Q361 196 335 195T277 193T214 193T157 195T115 196T99 197Q101
155 120 119T174 60T261 32Q297 29 334 31T402 39T451 48T470 53Q470 53 473 53T480 54T489 51T495 40Q497 34 496 30T492 24T487 20T485 19Q485 19 464 13T407 -1T332 -12T253 -10ZM95 226L346 229Q346 229 355 230T378 236T405 251T428 279T437 325Q437 371 422
401T370 446T270 456Q223 453 189 428T132 365T101 291T95 226ZM388 551Q362 562 338 574T290 598T244 622T200 648Q200 648 198 649T193 653T190 660T192 669Q195 674 199 675T206 677T212 675T215 673Q260 650 307 628T403 582Q403 582 405 580T409 575T413 568T412
558Q410 553 406 552T398 550T391 550T388 551Z" />
<glyph unicode="&#xe9;" horiz-adv-x="546" d="M253 -10Q187 1 147 27T86 89T58 166T51 248Q51 288 68 332T117 415T196 476T301 495Q360 491 395 473T449 428T473 372T479 318Q478 267 452 238T377 199Q361 196 335 195T277 193T214 193T157 195T115 196T99 197Q101
155 120 119T174 60T261 32Q297 29 334 31T402 39T451 48T470 53Q470 53 473 53T480 54T489 51T495 40Q497 34 496 30T492 24T487 20T485 19Q485 19 464 13T407 -1T332 -12T253 -10ZM95 226L346 229Q346 229 355 230T378 236T405 251T428 279T437 325Q437 371 422
401T370 446T270 456Q223 453 189 428T132 365T101 291T95 226ZM206 547Q206 547 204 546T197 545T189 547T182 554Q180 559 181 563T184 571T189 576T192 578Q241 600 288 623T380 669Q380 669 382 670T388 671T395 671T402 664Q405 659 405 655T402 649T397 645T395
643Q374 630 352 618T306 593T257 570T206 547Z" />
<glyph unicode="&#xea;" horiz-adv-x="546" d="M253 -10Q187 1 147 27T86 89T58 166T51 248Q51 288 68 332T117 415T196 476T301 495Q360 491 395 473T449 428T473 372T479 318Q478 267 452 238T377 199Q361 196 335 195T277 193T214 193T157 195T115 196T99 197Q101
155 120 119T174 60T261 32Q297 29 334 31T402 39T451 48T470 53Q470 53 473 53T480 54T489 51T495 40Q497 34 496 30T492 24T487 20T485 19Q485 19 464 13T407 -1T332 -12T253 -10ZM95 226L346 229Q346 229 355 230T378 236T405 251T428 279T437 325Q437 371 422
401T370 446T270 456Q223 453 189 428T132 365T101 291T95 226ZM173 551Q169 554 168 557T167 564T169 570T170 572Q183 590 199 606T234 639T273 672Q282 679 291 682T310 684T330 675L434 601Q434 601 435 600T438 595T439 588T436 579Q433 575 429 574T420 574T413
576T410 578L308 653Q287 645 261 620T196 553Q196 553 193 551T184 548T173 551Z" />
<glyph unicode="&#xeb;" horiz-adv-x="546" d="M253 -10Q187 1 147 27T86 89T58 166T51 248Q51 288 68 332T117 415T196 476T301 495Q360 491 395 473T449 428T473 372T479 318Q478 267 452 238T377 199Q361 196 335 195T277 193T214 193T157 195T115 196T99 197Q101
155 120 119T174 60T261 32Q297 29 334 31T402 39T451 48T470 53Q470 53 473 53T480 54T489 51T495 40Q497 34 496 30T492 24T487 20T485 19Q485 19 464 13T407 -1T332 -12T253 -10ZM95 226L346 229Q346 229 355 230T378 236T405 251T428 279T437 325Q437 371 422
401T370 446T270 456Q223 453 189 428T132 365T101 291T95 226ZM395 573Q386 573 379 577T367 587T362 602Q362 610 366 616T378 626T395 630Q404 630 411 626T422 616T427 602Q427 590 418 582T395 573ZM183 573Q174 573 167 577T155 587T151 602Q151 610 155
616T166 626T183 630Q192 630 199 626T211 616T216 602Q216 594 212 588T200 577T183 573Z" />
<glyph unicode="&#xec;" horiz-adv-x="156" d="M85 1Q78 1 74 3T66 9T62 15T61 18Q55 72 53 128T50 242T53 359T61 479Q61 479 61 481T64 488T71 494T84 497Q92 497 96 494T103 485T105 477T106 473Q102 422 100 368T98 257T100 141T106 20Q106 20 106 17T103
11T97 4T85 1ZM430 551Q404 562 380 574T332 598T286 622T242 648Q242 648 240 649T235 653T232 660T234 669Q237 674 241 675T248 677T254 675T257 673Q302 650 349 628T445 582Q445 582 447 580T451 575T455 568T454 558Q452 553 448 552T440 550T433 550T430
551Z" />
<glyph unicode="&#xed;" horiz-adv-x="156" d="M85 1Q78 1 74 3T66 9T62 15T61 18Q55 72 53 128T50 242T53 359T61 479Q61 479 61 481T64 488T71 494T84 497Q92 497 96 494T103 485T105 477T106 473Q102 422 100 368T98 257T100 141T106 20Q106 20 106 17T103
11T97 4T85 1ZM248 547Q248 547 246 546T239 545T231 547T224 554Q222 559 223 563T226 571T231 576T234 578Q283 600 330 623T422 669Q422 669 424 670T430 671T437 671T444 664Q447 659 447 655T444 649T439 645T437 643Q416 630 394 618T348 593T299 570T248
547Z" />
<glyph unicode="&#xee;" horiz-adv-x="156" d="M85 1Q78 1 74 3T66 9T62 15T61 18Q55 72 53 128T50 242T53 359T61 479Q61 479 61 481T64 488T71 494T84 497Q92 497 96 494T103 485T105 477T106 473Q102 422 100 368T98 257T100 141T106 20Q106 20 106 17T103
11T97 4T85 1ZM215 551Q211 554 210 557T209 564T211 570T212 572Q225 590 241 606T276 639T315 672Q324 679 333 682T352 684T372 675L476 601Q476 601 477 600T480 595T481 588T478 579Q475 575 471 574T462 574T455 576T452 578L350 653Q329 645 303 620T238
553Q238 553 235 551T226 548T215 551Z" />
<glyph unicode="&#xef;" horiz-adv-x="156" d="M85 1Q78 1 74 3T66 9T62 15T61 18Q55 72 53 128T50 242T53 359T61 479Q61 479 61 481T64 488T71 494T84 497Q92 497 96 494T103 485T105 477T106 473Q102 422 100 368T98 257T100 141T106 20Q106 20 106 17T103
11T97 4T85 1ZM437 573Q428 573 421 577T409 587T404 602Q404 610 408 616T420 626T437 630Q446 630 453 626T464 616T469 602Q469 590 460 582T437 573ZM225 573Q216 573 209 577T197 587T193 602Q193 610 197 616T208 626T225 630Q234 630 241 626T253 616T258
602Q258 594 254 588T242 577T225 573Z" />
<glyph unicode="&#xf0;" horiz-adv-x="590" d="M281 7Q227 3 184 14T109 54T59 127Q49 160 55 195T91 260T179 310Q243 329 314 322T461 285Q461 309 459 333T452 381T439 429Q421 486 388 531T297 601Q244 615 189 609T75 573Q75 573 73 572T66 570T59 570T52
576Q50 581 51 585T54 591T58 595T60 597Q119 636 182 646T314 639Q350 630 385 602T448 527T492 419T507 278Q499 172 444 104T281 7ZM259 46Q308 49 349 75T419 143T457 240Q387 266 322 277T200 275Q77 238 108 139Q128 99 164 74T259 46ZM234 434Q234 434 231
433T222 430T212 430T204 436Q200 441 200 445T203 453T208 459T210 461Q245 481 272 495T324 520T375 540T432 558T507 580Q507 580 511 580T522 581T533 577T539 567Q541 560 539 556T532 548T525 544T521 543Q481 531 451 522T397 504T348 485T297 463T234 434Z"
/>
<glyph unicode="&#xf1;" horiz-adv-x="517" d="M430 26Q423 28 419 31T412 38T409 45T408 48Q420 153 418 233T389 359Q365 406 337 429T277 456T212 443Q170 420 144 385T105 309T92 222Q94 183 94 148T96 84T100 41Q100 41 100 40T100 36T97 31T90 27Q84 26
80 28T73 32T70 35Q58 57 58 76T60 118T56 169Q56 203 57 237T63 304T77 365T102 416Q120 440 145 458T201 486T266 496T335 482Q362 468 382 448T418 404T443 350T459 286Q469 229 467 167T455 40Q455 40 454 38T451 32T443 27T430 26ZM85 1Q78 1 74 3T66 9T62
15T61 18Q55 72 53 128T50 242T53 359T61 479Q61 479 61 481T64 488T71 494T84 497Q92 497 96 494T103 485T105 477T106 473Q102 422 100 368T98 257T100 141T106 20Q106 20 106 17T103 11T97 4T85 1ZM128 559Q123 555 117 557T107 563T103 567Q91 581 91 595T100
621T125 642T163 653Q199 657 231 645T296 619T364 603Q381 603 394 609T414 629Q414 629 416 633T422 642T436 646Q443 645 446 641T450 633T451 625T451 622Q445 602 427 588T370 571Q349 569 318 578T254 601T194 622Q175 626 157 622T129 606T126 579Q126 579
128 576T132 568T128 559Z" />
<glyph unicode="&#xf2;" horiz-adv-x="562" d="M264 4Q215 4 176 22T108 73T65 149T50 243Q50 293 68 339T119 422T195 479T287 500Q336 500 377 485T448 440T495 362T512 250Q512 200 492 156T437 77T358 24T264 4ZM266 47Q305 47 341 64T406 110T450 177T467
257Q467 328 444 374T380 442T286 464Q247 464 212 445T151 392T110 319T95 236Q95 181 116 138T175 71T266 47ZM378 551Q352 562 328 574T280 598T234 622T190 648Q190 648 188 649T183 653T180 660T182 669Q185 674 189 675T196 677T202 675T205 673Q250 650
297 628T393 582Q393 582 395 580T399 575T403 568T402 558Q400 553 396 552T388 550T381 550T378 551Z" />
<glyph unicode="&#xf3;" horiz-adv-x="562" d="M264 4Q215 4 176 22T108 73T65 149T50 243Q50 293 68 339T119 422T195 479T287 500Q336 500 377 485T448 440T495 362T512 250Q512 200 492 156T437 77T358 24T264 4ZM266 47Q305 47 341 64T406 110T450 177T467
257Q467 328 444 374T380 442T286 464Q247 464 212 445T151 392T110 319T95 236Q95 181 116 138T175 71T266 47ZM196 547Q196 547 194 546T187 545T179 547T172 554Q170 559 171 563T174 571T179 576T182 578Q231 600 278 623T370 669Q370 669 372 670T378 671T385
671T392 664Q395 659 395 655T392 649T387 645T385 643Q364 630 342 618T296 593T247 570T196 547Z" />
<glyph unicode="&#xf4;" horiz-adv-x="562" d="M264 4Q215 4 176 22T108 73T65 149T50 243Q50 293 68 339T119 422T195 479T287 500Q336 500 377 485T448 440T495 362T512 250Q512 200 492 156T437 77T358 24T264 4ZM266 47Q305 47 341 64T406 110T450 177T467
257Q467 328 444 374T380 442T286 464Q247 464 212 445T151 392T110 319T95 236Q95 181 116 138T175 71T266 47ZM163 551Q159 554 158 557T157 564T159 570T160 572Q173 590 189 606T224 639T263 672Q272 679 281 682T300 684T320 675L424 601Q424 601 425 600T428
595T429 588T426 579Q423 575 419 574T410 574T403 576T400 578L298 653Q277 645 251 620T186 553Q186 553 183 551T174 548T163 551Z" />
<glyph unicode="&#xf5;" horiz-adv-x="562" d="M264 4Q215 4 176 22T108 73T65 149T50 243Q50 293 68 339T119 422T195 479T287 500Q336 500 377 485T448 440T495 362T512 250Q512 200 492 156T437 77T358 24T264 4ZM266 47Q305 47 341 64T406 110T450 177T467
257Q467 328 444 374T380 442T286 464Q247 464 212 445T151 392T110 319T95 236Q95 181 116 138T175 71T266 47ZM156 559Q151 555 145 557T135 563T131 567Q119 581 119 595T128 621T153 642T191 653Q227 657 259 645T324 619T392 603Q409 603 422 609T442 629Q442
629 444 633T450 642T464 646Q471 645 474 641T478 633T479 625T479 622Q473 602 455 588T398 571Q377 569 346 578T282 601T222 622Q203 626 185 622T157 606T154 579Q154 579 156 576T160 568T156 559Z" />
<glyph unicode="&#xf6;" horiz-adv-x="562" d="M264 4Q215 4 176 22T108 73T65 149T50 243Q50 293 68 339T119 422T195 479T287 500Q336 500 377 485T448 440T495 362T512 250Q512 200 492 156T437 77T358 24T264 4ZM266 47Q305 47 341 64T406 110T450 177T467
257Q467 328 444 374T380 442T286 464Q247 464 212 445T151 392T110 319T95 236Q95 181 116 138T175 71T266 47ZM385 573Q376 573 369 577T357 587T352 602Q352 610 356 616T368 626T385 630Q394 630 401 626T412 616T417 602Q417 590 408 582T385 573ZM173 573Q164
573 157 577T145 587T141 602Q141 610 145 616T156 626T173 630Q182 630 189 626T201 616T206 602Q206 594 202 588T190 577T173 573Z" />
<glyph unicode="&#xf7;" horiz-adv-x="462" d="M78 264Q78 264 75 264T66 264T57 268T51 277Q49 283 51 287T56 293T63 297T66 298Q106 304 136 308T193 313T247 315T308 312T385 306Q385 306 389 305T399 301T408 294T411 282Q410 275 406 272T398 267T390 266T386
266Q344 269 313 270T255 272T204 272T148 269T78 264ZM230 134Q221 134 214 137T203 147T198 162Q198 170 202 176T214 187T230 191Q239 191 246 187T258 177T263 162Q263 154 259 148T247 138T230 134ZM230 396Q221 396 214 399T203 409T198 424Q198 432 202
438T214 448T230 452Q239 452 246 449T258 439T263 424Q263 416 259 410T247 400T230 396Z" />
<glyph unicode="&#xf8;" horiz-adv-x="562" d="M264 4Q215 4 176 22T108 73T65 149T50 243Q50 293 68 339T119 422T195 479T287 500Q336 500 377 485T448 440T495 362T512 250Q512 200 492 156T437 77T358 24T264 4ZM153 -94Q146 -92 143 -88T138 -80T137 -73T137
-70Q162 6 200 104T286 316T389 549Q389 549 390 551T395 555T403 558T415 555Q422 552 424 547T426 537T424 529T422 526Q373 408 327 297T242 89T178 -83Q178 -83 176 -87T168 -93T153 -94ZM266 47Q305 47 341 64T406 110T450 177T467 257Q467 328 444 374T380
442T286 464Q247 464 212 445T151 392T110 319T95 236Q95 181 116 138T175 71T266 47Z" />
<glyph unicode="&#xf9;" horiz-adv-x="517" d="M183 12Q156 26 135 46T99 90T74 144T58 208Q48 265 50 327T62 454Q62 454 63 456T66 462T74 467T87 468Q94 467 98 463T105 456T108 449T109 446Q97 341 100 261T128 135Q146 100 166 78T209 47T256 38T305 51Q348
75 373 107T409 178T420 261Q418 300 410 344T394 425T381 476Q381 476 381 477T381 481T384 486T391 490Q398 492 402 490T409 485T411 482Q429 449 441 409T461 325Q469 271 466 226T450 145T416 78Q397 54 372 36T316 8T252 -2T183 12ZM344 551Q318 562 294
574T246 598T200 622T156 648Q156 648 154 649T149 653T146 660T148 669Q151 674 155 675T162 677T168 675T171 673Q216 650 263 628T359 582Q359 582 361 580T365 575T369 568T368 558Q366 553 362 552T354 550T347 550T344 551Z" />
<glyph unicode="&#xfa;" horiz-adv-x="517" d="M183 12Q156 26 135 46T99 90T74 144T58 208Q48 265 50 327T62 454Q62 454 63 456T66 462T74 467T87 468Q94 467 98 463T105 456T108 449T109 446Q97 341 100 261T128 135Q146 100 166 78T209 47T256 38T305 51Q348
75 373 107T409 178T420 261Q418 300 410 344T394 425T381 476Q381 476 381 477T381 481T384 486T391 490Q398 492 402 490T409 485T411 482Q429 449 441 409T461 325Q469 271 466 226T450 145T416 78Q397 54 372 36T316 8T252 -2T183 12ZM162 547Q162 547 160
546T153 545T145 547T138 554Q136 559 137 563T140 571T145 576T148 578Q197 600 244 623T336 669Q336 669 338 670T344 671T351 671T358 664Q361 659 361 655T358 649T353 645T351 643Q330 630 308 618T262 593T213 570T162 547Z" />
<glyph unicode="&#xfb;" horiz-adv-x="517" d="M183 12Q156 26 135 46T99 90T74 144T58 208Q48 265 50 327T62 454Q62 454 63 456T66 462T74 467T87 468Q94 467 98 463T105 456T108 449T109 446Q97 341 100 261T128 135Q146 100 166 78T209 47T256 38T305 51Q348
75 373 107T409 178T420 261Q418 300 410 344T394 425T381 476Q381 476 381 477T381 481T384 486T391 490Q398 492 402 490T409 485T411 482Q429 449 441 409T461 325Q469 271 466 226T450 145T416 78Q397 54 372 36T316 8T252 -2T183 12ZM129 551Q125 554 124
557T123 564T125 570T126 572Q139 590 155 606T190 639T229 672Q238 679 247 682T266 684T286 675L390 601Q390 601 391 600T394 595T395 588T392 579Q389 575 385 574T376 574T369 576T366 578L264 653Q243 645 217 620T152 553Q152 553 149 551T140 548T129 551Z"
/>
<glyph unicode="&#xfc;" horiz-adv-x="517" d="M183 12Q156 26 135 46T99 90T74 144T58 208Q48 265 50 327T62 454Q62 454 63 456T66 462T74 467T87 468Q94 467 98 463T105 456T108 449T109 446Q97 341 100 261T128 135Q146 100 166 78T209 47T256 38T305 51Q348
75 373 107T409 178T420 261Q418 300 410 344T394 425T381 476Q381 476 381 477T381 481T384 486T391 490Q398 492 402 490T409 485T411 482Q429 449 441 409T461 325Q469 271 466 226T450 145T416 78Q397 54 372 36T316 8T252 -2T183 12ZM351 573Q342 573 335
577T323 587T318 602Q318 610 322 616T334 626T351 630Q360 630 367 626T378 616T383 602Q383 590 374 582T351 573ZM139 573Q130 573 123 577T111 587T107 602Q107 610 111 616T122 626T139 630Q148 630 155 626T167 616T172 602Q172 594 168 588T156 577T139
573Z" />
<glyph unicode="&#xfd;" horiz-adv-x="600" d="M350 -209Q280 -213 218 -202T102 -164Q102 -164 100 -163T94 -158T89 -151T89 -140Q91 -135 95 -133T104 -130T112 -130T115 -131Q149 -146 185 -155T260 -167T340 -167Q387 -165 420 -149T472 -102T496 -26Q500
42 501 108T500 236T491 356T472 463Q472 463 472 468T476 478T490 484Q501 485 507 482T515 474T518 470Q536 396 543 312T550 138T544 -39Q531 -122 482 -163T350 -209ZM209 12Q167 31 137 59T88 125T60 208Q53 246 52 286T54 369T65 454Q65 454 66 456T70 462T80
467T95 468Q102 467 106 465T114 459T118 453T120 448T121 446Q112 376 110 317T116 211T144 135Q188 65 240 47T354 51Q405 75 437 107T484 180T498 264L539 325Q553 244 538 183T485 78Q456 46 413 23T317 -5T209 12ZM203 547Q203 547 201 546T194 545T186 547T179
554Q177 559 178 563T181 571T186 576T189 578Q238 600 285 623T377 669Q377 669 379 670T385 671T392 671T399 664Q402 659 402 655T399 649T394 645T392 643Q371 630 349 618T303 593T254 570T203 547Z" />
<glyph unicode="&#xfe;" horiz-adv-x="539" d="M267 93Q225 93 189 109T127 153T89 219T79 300Q83 343 102 381T151 447T220 492T301 508Q343 508 379 492T440 448T479 381T488 300Q485 257 466 220T417 154T348 109T267 93ZM85 -3Q78 -3 73 -1T66 6T62 12T60
15Q56 58 54 118T51 246T51 384T55 516T62 627Q62 627 62 630T65 636T72 643T85 646Q92 646 96 644T102 638T106 631T107 625T107 622Q103 581 101 523T99 398T98 261T100 129T105 16Q105 16 105 13T102 7T96 0T85 -3ZM270 133Q315 133 353 156T417 218T445 304Q449
351 430 389T377 451T297 474Q252 474 214 451T151 390T122 304Q119 257 137 218T191 156T270 133Z" />
<glyph unicode="&#xff;" horiz-adv-x="600" d="M350 -209Q280 -213 218 -202T102 -164Q102 -164 100 -163T94 -158T89 -151T89 -140Q91 -135 95 -133T104 -130T112 -130T115 -131Q149 -146 185 -155T260 -167T340 -167Q387 -165 420 -149T472 -102T496 -26Q500
42 501 108T500 236T491 356T472 463Q472 463 472 468T476 478T490 484Q501 485 507 482T515 474T518 470Q536 396 543 312T550 138T544 -39Q531 -122 482 -163T350 -209ZM209 12Q167 31 137 59T88 125T60 208Q53 246 52 286T54 369T65 454Q65 454 66 456T70 462T80
467T95 468Q102 467 106 465T114 459T118 453T120 448T121 446Q112 376 110 317T116 211T144 135Q188 65 240 47T354 51Q405 75 437 107T484 180T498 264L539 325Q553 244 538 183T485 78Q456 46 413 23T317 -5T209 12ZM392 573Q383 573 376 577T364 587T359 602Q359
610 363 616T375 626T392 630Q401 630 408 626T419 616T424 602Q424 590 415 582T392 573ZM180 573Q171 573 164 577T152 587T148 602Q148 610 152 616T163 626T180 630Q189 630 196 626T208 616T213 602Q213 594 209 588T197 577T180 573Z" />
<glyph unicode="&#x2013;" horiz-adv-x="462" d="M78 294Q78 294 75 294T66 294T57 298T51 307Q49 313 51 317T56 323T63 327T66 328Q106 334 136 338T193 343T247 345T308 342T385 336Q385 336 389 335T399 331T408 324T411 312Q410 305 406 302T398 297T390
296T386 296Q344 299 313 300T255 302T204 302T148 299T78 294Z" />
<glyph unicode="&#x2014;" horiz-adv-x="662" d="M611 312Q610 305 606 302T598 297T590 296T586 296Q544 299 493 300T385 302T274 302T168 299T78 294Q78 294 75 294T66 294T57 298T51 307Q49 313 51 317T56 323T63 327T66 328Q99 333 140 336T227 342T320 344T415
344T505 341T585 336Q585 336 589 335T599 331T608 324T611 312Z" />
<glyph unicode="&#x2018;" horiz-adv-x="174" d="M59 457Q53 461 52 465T50 473T51 477L75 549Q60 566 57 585T59 618T80 636Q90 637 98 635T111 628T119 616T124 599Q124 569 119 545T105 501T84 465Q84 465 81 462T72 456T59 457Z" />
<glyph unicode="&#x2019;" horiz-adv-x="174" d="M94 452Q84 451 76 453T63 460T55 472T50 489Q51 519 56 543T70 588T90 623Q90 623 93 626T102 632T115 631Q122 628 123 623T124 615T123 611L99 539Q115 523 118 504T115 470T94 452Z" />
<glyph unicode="&#x201a;" horiz-adv-x="174" d="M59 -93Q53 -89 52 -85T50 -77T51 -73L75 -1Q60 16 57 35T59 68T80 86Q90 87 98 85T111 78T119 66T124 49Q124 19 119 -5T105 -49T84 -85Q84 -85 81 -88T72 -94T59 -93Z" />
<glyph unicode="&#x201c;" horiz-adv-x="314" d="M199 457Q193 461 192 465T190 473T191 477L215 549Q200 566 197 585T199 618T220 636Q230 637 238 635T251 628T259 616T264 599Q264 569 259 545T245 501T224 465Q224 465 221 462T212 456T199 457ZM59 457Q53
461 52 465T50 473T51 477L75 549Q60 566 57 585T59 618T80 636Q90 637 98 635T111 628T119 616T124 599Q124 569 119 545T105 501T84 465Q84 465 81 462T72 456T59 457Z" />
<glyph unicode="&#x201d;" horiz-adv-x="314" d="M234 452Q224 451 216 453T203 460T195 472T190 489Q191 519 196 543T210 588T230 623Q230 623 233 626T242 632T255 631Q262 628 263 623T264 615T263 611L239 539Q255 523 258 504T255 470T234 452ZM94 452Q84
451 76 453T63 460T55 472T50 489Q51 519 56 543T70 588T90 623Q90 623 93 626T102 632T115 631Q122 628 123 623T124 615T123 611L99 539Q115 523 118 504T115 470T94 452Z" />
<glyph unicode="&#x201e;" horiz-adv-x="304" d="M189 -93Q183 -89 182 -85T180 -77T181 -73L205 -1Q190 16 187 35T189 68T210 86Q220 87 228 85T241 78T249 66T254 49Q254 19 249 -5T235 -49T214 -85Q214 -85 211 -88T202 -94T189 -93ZM59 -93Q53 -89 52 -85T50
-77T51 -73L75 -1Q60 16 57 35T59 68T80 86Q90 87 98 85T111 78T119 66T124 49Q124 19 119 -5T105 -49T84 -85Q84 -85 81 -88T72 -94T59 -93Z" />
<glyph unicode="&#x2022;" horiz-adv-x="223" d="M111 233Q94 233 80 240T58 259T50 286Q50 301 58 313T80 333T111 340Q128 340 142 333T164 314T173 286Q173 271 165 259T142 240T111 233Z" />
<glyph unicode="&#x2039;" horiz-adv-x="306" d="M222 64Q216 59 210 59T199 63T190 69T187 72Q166 95 146 119T107 168T70 221Q60 237 55 252T50 282T58 312Q83 361 108 406T160 489T218 559Q218 559 221 562T228 568T238 573T249 571Q254 568 255 563T255 554T252
546T250 543Q222 509 196 470T145 389T97 299Q81 266 105 235L219 91Q219 91 221 90T225 86T228 80T228 72T222 64Z" />
<glyph unicode="&#x203a;" horiz-adv-x="306" d="M84 64Q79 68 78 72T78 79T81 85T85 89T87 91L201 235Q225 266 209 299Q186 346 162 388T111 470T56 543Q56 543 55 546T52 553T51 563T57 571Q62 575 67 574T77 569T85 562T88 559Q118 528 145 490T198 406T248
312Q255 298 256 283T252 252T236 221Q218 194 199 169T161 119T119 72Q119 72 116 69T108 63T96 60T84 64Z" />
</font>
</defs>
</svg>
